<?xml version="1.0" encoding="utf-8"?>
<!-- Generator: Adobe Illustrator 17.0.0, SVG Export Plug-In . SVG Version: 6.00 Build 0)  -->
<!DOCTYPE svg PUBLIC "-//W3C//DTD SVG 1.1//EN" "http://www.w3.org/Graphics/SVG/1.1/DTD/svg11.dtd">
<svg version="1.1" id="Layer_1" xmlns="http://www.w3.org/2000/svg" xmlns:xlink="http://www.w3.org/1999/xlink" x="0px" y="0px"
	 width="266.333px" height="265px" viewBox="0 0 266.333 265" enable-background="new 0 0 266.333 265" xml:space="preserve">
<g>
	<g>
		<g>
			<path fill="#1E5035" d="M33.506,201.16h1.439v-8.923h-1.439v-1.457h8.689v3.094h-1.547v-1.655h-4.065v3.67h3.742v1.403h-3.742
				v3.886h4.065v-1.654h1.565v3.094h-8.708V201.16z"/>
			<path fill="#1E5035" d="M46.924,196.213c0.738-0.792,1.709-1.493,2.824-1.493c0.972,0,1.637,0.378,2.033,0.989
				c0.252,0.432,0.396,0.972,0.396,1.619v3.994h1.206v1.295h-3.904v-1.295h1.151v-3.652c0-0.378-0.054-0.684-0.18-0.917
				c-0.216-0.414-0.594-0.612-1.151-0.612c-0.845,0-1.655,0.504-2.321,1.17v4.012h1.151v1.295h-3.886v-1.295h1.206v-5.127h-1.206
				v-1.332h2.681V196.213z"/>
			<path fill="#1E5035" d="M60.431,201.79c-0.144-0.306-0.234-0.702-0.234-1.134v-4.461H58.74v-1.332h1.457v-1.78l1.547-0.63v2.41
				h2.356v1.332h-2.356v4.191c0,0.252,0.036,0.432,0.108,0.594c0.144,0.252,0.432,0.378,0.881,0.378
				c0.468,0,1.025-0.216,1.475-0.432l-0.162,1.385c-0.45,0.234-1.025,0.45-1.745,0.45C61.439,202.762,60.773,202.455,60.431,201.79z
				"/>
			<path fill="#1E5035" d="M65.737,198.75c0-2.178,1.583-4.03,4.048-4.03c2.464,0,4.047,1.835,4.047,4.03
				c0,2.158-1.601,4.012-4.047,4.012C67.302,202.762,65.737,200.927,65.737,198.75z M72.231,198.75c0-1.584-1.007-2.717-2.446-2.717
				c-1.458,0-2.465,1.133-2.465,2.717c0,1.583,1.007,2.698,2.465,2.698C71.224,201.448,72.231,200.333,72.231,198.75z"/>
			<path fill="#1E5035" d="M75.611,198.785c0-2.213,1.565-4.065,3.778-4.065c0.972,0,1.781,0.359,2.303,0.846v-4.785h-1.331v-1.332
				h2.878v11.874h1.206v1.295H81.71v-0.989c-0.612,0.647-1.385,1.134-2.465,1.134C77.194,202.762,75.611,201.143,75.611,198.785z
				 M81.692,200.423v-3.599c-0.558-0.432-1.223-0.755-2.123-0.755c-1.331,0-2.356,1.062-2.375,2.698
				c0,1.619,1.025,2.645,2.339,2.645C80.415,201.412,81.116,200.998,81.692,200.423z"/>
			<path fill="#1E5035" d="M85.954,198.75c0-2.178,1.583-4.03,4.048-4.03c2.464,0,4.047,1.835,4.047,4.03
				c0,2.158-1.601,4.012-4.047,4.012C87.519,202.762,85.954,200.927,85.954,198.75z M92.448,198.75c0-1.584-1.007-2.717-2.446-2.717
				c-1.458,0-2.465,1.133-2.465,2.717c0,1.583,1.007,2.698,2.465,2.698C91.44,201.448,92.448,200.333,92.448,198.75z"/>
			<path fill="#1E5035" d="M101.261,197.4c-0.54,0-0.936-0.342-0.936-0.863c0-0.126,0.018-0.271,0.072-0.396
				c-0.306-0.144-0.755-0.233-1.241-0.233c-0.99,0-1.529,0.485-1.529,0.989c0,0.576,0.594,0.81,1.835,1.134
				c1.673,0.432,2.896,0.881,2.896,2.339c0,1.547-1.475,2.41-3.166,2.41c-1.169,0-2.357-0.396-2.878-0.917
				c-0.288-0.288-0.432-0.612-0.432-1.008c0-0.504,0.36-0.936,0.882-0.936c0.503,0,0.917,0.342,0.917,0.899
				c0,0.144-0.018,0.27-0.072,0.396c0.288,0.181,0.864,0.36,1.583,0.36c0.935,0,1.691-0.36,1.691-1.044
				c0-0.558-0.558-0.827-1.709-1.115c-1.979-0.504-3.041-0.989-3.041-2.375c0-1.187,1.062-2.32,3.041-2.32
				c1.007,0,2.015,0.324,2.519,0.827c0.27,0.271,0.396,0.594,0.396,0.936C102.088,197.04,101.746,197.4,101.261,197.4z"/>
			<path fill="#1E5035" d="M108.418,201.322h1.259V190.78h-1.259v-1.332h2.807v11.874h1.241v1.295h-4.048V201.322z"/>
			<path fill="#1E5035" d="M114.083,198.75c0-2.178,1.583-4.03,4.048-4.03c2.464,0,4.047,1.835,4.047,4.03
				c0,2.158-1.601,4.012-4.047,4.012C115.648,202.762,114.083,200.927,114.083,198.75z M120.578,198.75
				c0-1.584-1.007-2.717-2.446-2.717c-1.458,0-2.465,1.133-2.465,2.717c0,1.583,1.007,2.698,2.465,2.698
				C119.57,201.448,120.578,200.333,120.578,198.75z"/>
			<path fill="#1E5035" d="M129.391,197.4c-0.54,0-0.936-0.342-0.936-0.863c0-0.126,0.018-0.271,0.072-0.396
				c-0.306-0.144-0.755-0.233-1.241-0.233c-0.99,0-1.529,0.485-1.529,0.989c0,0.576,0.594,0.81,1.835,1.134
				c1.673,0.432,2.896,0.881,2.896,2.339c0,1.547-1.475,2.41-3.166,2.41c-1.169,0-2.357-0.396-2.878-0.917
				c-0.288-0.288-0.432-0.612-0.432-1.008c0-0.504,0.36-0.936,0.882-0.936c0.503,0,0.917,0.342,0.917,0.899
				c0,0.144-0.018,0.27-0.072,0.396c0.288,0.181,0.864,0.36,1.583,0.36c0.935,0,1.691-0.36,1.691-1.044
				c0-0.558-0.558-0.827-1.709-1.115c-1.979-0.504-3.041-0.989-3.041-2.375c0-1.187,1.062-2.32,3.041-2.32
				c1.007,0,2.015,0.324,2.519,0.827c0.27,0.271,0.396,0.594,0.396,0.936C130.218,197.04,129.876,197.4,129.391,197.4z"/>
			<path fill="#1E5035" d="M142.161,197.4c-0.539,0-0.936-0.342-0.936-0.863c0-0.126,0.019-0.271,0.072-0.396
				c-0.306-0.144-0.756-0.233-1.241-0.233c-0.989,0-1.529,0.485-1.529,0.989c0,0.576,0.594,0.81,1.835,1.134
				c1.674,0.432,2.896,0.881,2.896,2.339c0,1.547-1.475,2.41-3.166,2.41c-1.17,0-2.357-0.396-2.879-0.917
				c-0.287-0.288-0.432-0.612-0.432-1.008c0-0.504,0.359-0.936,0.882-0.936c0.503,0,0.917,0.342,0.917,0.899
				c0,0.144-0.018,0.27-0.072,0.396c0.289,0.181,0.864,0.36,1.584,0.36c0.936,0,1.691-0.36,1.691-1.044
				c0-0.558-0.559-0.827-1.709-1.115c-1.979-0.504-3.041-0.989-3.041-2.375c0-1.187,1.062-2.32,3.041-2.32
				c1.007,0,2.014,0.324,2.518,0.827c0.27,0.271,0.396,0.594,0.396,0.936C142.989,197.04,142.647,197.4,142.161,197.4z"/>
			<path fill="#1E5035" d="M146.621,199.235c0.216,1.476,1.296,2.194,2.807,2.194c0.989,0,1.835-0.306,2.753-0.827l-0.127,1.421
				c-0.809,0.504-1.799,0.738-2.859,0.738c-2.502,0-4.192-1.619-4.192-3.994c0-2.177,1.493-4.048,3.851-4.048
				c2.393,0,3.651,1.709,3.651,3.688c0,0.287-0.036,0.593-0.071,0.827H146.621z M146.621,198.084h4.335
				c-0.071-1.241-0.826-2.087-2.141-2.087C147.772,195.997,146.819,196.681,146.621,198.084z"/>
			<path fill="#1E5035" d="M160.543,195.854c0,0.558-0.45,1.043-0.99,1.043c-0.521,0-0.881-0.324-1.025-0.666
				c-0.576,0.181-1.241,0.828-1.619,1.565v3.526h1.422v1.295h-4.156v-1.295h1.205v-5.127h-1.205v-1.332h2.681v1.764
				c0.612-1.062,1.511-1.907,2.411-1.907C160.112,194.72,160.543,195.241,160.543,195.854z"/>
			<path fill="#1E5035" d="M162.197,196.195h-0.972v-1.332h3.76v1.277h-1.188l2.105,4.66l2.104-4.66h-1.241v-1.277h3.76v1.332
				h-0.971l-3.186,6.638h-0.988L162.197,196.195z"/>
			<path fill="#1E5035" d="M171.675,201.322h1.259v-5.127h-1.259v-1.332h2.807v6.459h1.241v1.295h-4.048V201.322z M172.413,192.093
				c0-0.611,0.521-1.115,1.134-1.115c0.594,0,1.115,0.504,1.115,1.115c0,0.63-0.54,1.134-1.134,1.134
				C172.917,193.227,172.413,192.723,172.413,192.093z"/>
			<path fill="#1E5035" d="M177.376,198.714c0-2.087,1.673-3.994,3.886-3.994c1.925,0,3.328,1.26,3.328,2.446
				c0,0.684-0.468,1.151-1.098,1.151c-0.504,0-0.971-0.396-0.971-0.971c0-0.252,0.125-0.504,0.323-0.648
				c-0.18-0.359-0.827-0.701-1.583-0.701c-1.043,0-2.32,0.882-2.32,2.753c0,1.601,1.169,2.68,2.77,2.68
				c0.9,0,1.709-0.27,2.663-0.827l-0.144,1.421c-0.792,0.504-1.709,0.738-2.663,0.738
				C179.157,202.762,177.376,201.106,177.376,198.714z"/>
			<path fill="#1E5035" d="M186.423,201.322h1.259v-5.127h-1.259v-1.332h2.807v6.459h1.241v1.295h-4.048V201.322z M187.161,192.093
				c0-0.611,0.521-1.115,1.134-1.115c0.594,0,1.115,0.504,1.115,1.115c0,0.63-0.54,1.134-1.134,1.134
				C187.665,193.227,187.161,192.723,187.161,192.093z"/>
			<path fill="#1E5035" d="M192.143,198.75c0-2.178,1.583-4.03,4.048-4.03c2.464,0,4.048,1.835,4.048,4.03
				c0,2.158-1.602,4.012-4.048,4.012C193.708,202.762,192.143,200.927,192.143,198.75z M198.637,198.75
				c0-1.584-1.008-2.717-2.446-2.717c-1.458,0-2.465,1.133-2.465,2.717c0,1.583,1.007,2.698,2.465,2.698
				C197.629,201.448,198.637,200.333,198.637,198.75z"/>
			<path fill="#1E5035" d="M207.451,197.4c-0.54,0-0.936-0.342-0.936-0.863c0-0.126,0.019-0.271,0.071-0.396
				c-0.305-0.144-0.755-0.233-1.24-0.233c-0.99,0-1.529,0.485-1.529,0.989c0,0.576,0.594,0.81,1.834,1.134
				c1.674,0.432,2.896,0.881,2.896,2.339c0,1.547-1.475,2.41-3.166,2.41c-1.169,0-2.356-0.396-2.878-0.917
				c-0.288-0.288-0.433-0.612-0.433-1.008c0-0.504,0.36-0.936,0.883-0.936c0.503,0,0.917,0.342,0.917,0.899
				c0,0.144-0.019,0.27-0.072,0.396c0.288,0.181,0.864,0.36,1.583,0.36c0.936,0,1.691-0.36,1.691-1.044
				c0-0.558-0.558-0.827-1.709-1.115c-1.979-0.504-3.041-0.989-3.041-2.375c0-1.187,1.062-2.32,3.041-2.32
				c1.008,0,2.015,0.324,2.519,0.827c0.27,0.271,0.396,0.594,0.396,0.936C208.278,197.04,207.936,197.4,207.451,197.4z"/>
			<path fill="#1E5035" d="M214.788,198.785c0-2.213,1.564-4.065,3.777-4.065c0.972,0,1.781,0.359,2.303,0.846v-4.785h-1.331v-1.332
				h2.879v11.874h1.205v1.295h-2.734v-0.989c-0.612,0.647-1.386,1.134-2.465,1.134C216.371,202.762,214.788,201.143,214.788,198.785
				z M220.868,200.423v-3.599c-0.557-0.432-1.223-0.755-2.123-0.755c-1.33,0-2.355,1.062-2.374,2.698
				c0,1.619,1.025,2.645,2.339,2.645C219.59,201.412,220.292,200.998,220.868,200.423z"/>
			<path fill="#1E5035" d="M226.713,199.235c0.215,1.476,1.295,2.194,2.807,2.194c0.988,0,1.834-0.306,2.752-0.827l-0.126,1.421
				c-0.81,0.504-1.8,0.738-2.86,0.738c-2.501,0-4.191-1.619-4.191-3.994c0-2.177,1.492-4.048,3.85-4.048
				c2.393,0,3.652,1.709,3.652,3.688c0,0.287-0.037,0.593-0.072,0.827H226.713z M226.713,198.084h4.335
				c-0.071-1.241-0.827-2.087-2.141-2.087C227.864,195.997,226.911,196.681,226.713,198.084z"/>
			<path fill="#1E5035" d="M66.915,226.432h1.206v-8.653h-1.206v-1.331h2.681v1.008c0.648-0.666,1.367-1.151,2.483-1.151
				c2.033,0,3.616,1.619,3.616,3.976c0,2.23-1.565,4.065-3.76,4.065c-0.881,0-1.655-0.323-2.267-0.827v2.914h1.385v1.295h-4.138
				V226.432z M74.093,220.297c0-1.619-0.989-2.645-2.303-2.645c-0.881,0-1.547,0.414-2.123,0.989v3.616
				c0.54,0.432,1.223,0.737,2.086,0.737C73.067,222.995,74.093,221.935,74.093,220.297z"/>
			<path fill="#1E5035" d="M79.074,220.818c0.216,1.476,1.295,2.195,2.807,2.195c0.989,0,1.835-0.306,2.752-0.828l-0.126,1.422
				c-0.81,0.504-1.799,0.737-2.86,0.737c-2.501,0-4.192-1.619-4.192-3.994c0-2.177,1.493-4.047,3.85-4.047
				c2.393,0,3.652,1.709,3.652,3.688c0,0.288-0.036,0.594-0.072,0.827H79.074z M79.074,219.667h4.335
				c-0.072-1.241-0.827-2.087-2.141-2.087C80.225,217.58,79.271,218.265,79.074,219.667z"/>
			<path fill="#1E5035" d="M86.501,222.905h1.259v-10.542h-1.259v-1.331h2.807v11.873h1.241v1.296h-4.048V222.905z"/>
			<path fill="#1E5035" d="M93.193,223.319c-0.234-0.432-0.36-0.953-0.36-1.583v-3.958h-1.205v-1.331h2.734v4.947
				c0,0.396,0.072,0.701,0.198,0.936c0.216,0.414,0.576,0.594,1.133,0.594c0.846,0,1.637-0.521,2.321-1.17v-3.976h-1.241v-1.331
				h2.789v6.458h1.205v1.296h-2.698v-1.35c-0.738,0.792-1.709,1.493-2.825,1.493C94.254,224.345,93.589,223.949,93.193,223.319z"/>
			<path fill="#1E5035" d="M107.007,226.396h1.493v-3.13c-0.629,0.594-1.367,1.079-2.5,1.079c-2.033,0-3.652-1.637-3.652-4.012
				c0-2.23,1.619-4.029,3.814-4.029c0.989,0,1.799,0.377,2.464,0.917l0.396-0.81h1.007v9.984h1.223v1.331h-4.246V226.396z
				 M108.5,222.006v-3.616c-0.558-0.413-1.277-0.737-2.159-0.737c-1.313,0-2.411,1.008-2.411,2.681c0,1.637,1.043,2.662,2.375,2.662
				C107.187,222.995,107.906,222.582,108.5,222.006z"/>
			<path fill="#1E5035" d="M113.517,223.319c-0.234-0.432-0.36-0.953-0.36-1.583v-3.958h-1.205v-1.331h2.734v4.947
				c0,0.396,0.072,0.701,0.198,0.936c0.216,0.414,0.576,0.594,1.133,0.594c0.846,0,1.637-0.521,2.321-1.17v-3.976h-1.241v-1.331
				h2.789v6.458h1.205v1.296h-2.698v-1.35c-0.738,0.792-1.709,1.493-2.825,1.493C114.579,224.345,113.913,223.949,113.517,223.319z"
				/>
			<path fill="#1E5035" d="M124.255,220.818c0.216,1.476,1.295,2.195,2.807,2.195c0.989,0,1.835-0.306,2.752-0.828l-0.126,1.422
				c-0.81,0.504-1.799,0.737-2.86,0.737c-2.501,0-4.192-1.619-4.192-3.994c0-2.177,1.493-4.047,3.85-4.047
				c2.393,0,3.652,1.709,3.652,3.688c0,0.288-0.036,0.594-0.072,0.827H124.255z M124.255,219.667h4.335
				c-0.072-1.241-0.827-2.087-2.141-2.087C125.406,217.58,124.453,218.265,124.255,219.667z"/>
			<path fill="#1E5035" d="M138.177,217.437c0,0.558-0.45,1.044-0.989,1.044c-0.521,0-0.882-0.324-1.025-0.666
				c-0.576,0.18-1.242,0.827-1.619,1.565v3.525h1.421v1.296h-4.156v-1.296h1.206v-5.127h-1.206v-1.331h2.68v1.763
				c0.612-1.062,1.512-1.906,2.411-1.906C137.746,216.304,138.177,216.825,138.177,217.437z"/>
			<path fill="#1E5035" d="M139.435,222.905h1.259v-5.127h-1.259v-1.331h2.807v6.458h1.241v1.296h-4.048V222.905z M140.46,214.738
				l2.087-2.447c0.252-0.287,0.558-0.468,0.863-0.468c0.432,0,0.792,0.343,0.792,0.828c0,0.288-0.198,0.63-0.575,0.882l-2.717,1.709
				L140.46,214.738z"/>
			<path fill="#1E5035" d="M145.029,222.132c0-1.421,1.259-2.339,3.04-2.339c0.81,0,1.709,0.181,2.123,0.307v-0.882
				c0-0.45-0.126-0.81-0.342-1.079c-0.324-0.396-0.863-0.594-1.619-0.594c-0.486,0-0.773,0.107-1.008,0.233
				c0.055,0.126,0.09,0.288,0.09,0.432c0,0.504-0.377,0.882-0.898,0.882c-0.541,0-0.918-0.378-0.918-0.918
				c0-0.917,1.008-1.87,2.986-1.87c1.205,0,2.086,0.359,2.608,0.971c0.396,0.468,0.594,1.08,0.594,1.781v3.85h1.205v1.296h-2.663
				v-0.936c-0.629,0.594-1.618,1.079-2.662,1.079C146.144,224.345,145.029,223.535,145.029,222.132z M150.192,222.258v-1.259
				c-0.521-0.145-1.188-0.271-1.889-0.271c-1.098,0-1.709,0.522-1.709,1.277c0,0.702,0.521,1.17,1.421,1.17
				C148.842,223.176,149.598,222.779,150.192,222.258z"/>
			<path fill="#1E5035" d="M159.975,227.781c-0.863,0-1.475-0.486-1.475-1.098c0-0.558,0.378-0.882,0.846-0.882
				c0.449,0,0.737,0.324,0.846,0.647c0.252-0.09,0.504-0.287,0.791-0.701c0.145-0.233,0.307-0.521,0.486-0.882l0.521-1.079
				l-2.861-6.009h-1.007v-1.331h3.778v1.277h-1.188c0,0,2.033,4.605,2.015,4.605l2.051-4.605h-1.241v-1.277h3.742v1.331h-1.008
				l-3.652,7.79c-0.197,0.396-0.396,0.737-0.611,1.043C161.432,227.367,160.767,227.781,159.975,227.781z"/>
			<path fill="#1E5035" d="M178.287,218.983c-0.54,0-0.936-0.342-0.936-0.863c0-0.126,0.019-0.27,0.071-0.396
				c-0.305-0.145-0.755-0.234-1.24-0.234c-0.99,0-1.529,0.486-1.529,0.99c0,0.575,0.594,0.81,1.834,1.133
				c1.674,0.432,2.896,0.882,2.896,2.339c0,1.547-1.475,2.411-3.166,2.411c-1.169,0-2.356-0.396-2.878-0.918
				c-0.288-0.288-0.433-0.611-0.433-1.008c0-0.503,0.36-0.936,0.883-0.936c0.503,0,0.917,0.342,0.917,0.9
				c0,0.144-0.019,0.27-0.072,0.396c0.288,0.18,0.864,0.359,1.583,0.359c0.936,0,1.691-0.359,1.691-1.043
				c0-0.558-0.558-0.828-1.709-1.115c-1.979-0.504-3.041-0.99-3.041-2.375c0-1.188,1.062-2.32,3.041-2.32
				c1.008,0,2.015,0.323,2.519,0.827c0.27,0.27,0.396,0.594,0.396,0.936C179.114,218.624,178.772,218.983,178.287,218.983z"/>
			<path fill="#1E5035" d="M180.893,226.432h1.205v-8.653h-1.205v-1.331h2.681v1.008c0.647-0.666,1.367-1.151,2.483-1.151
				c2.032,0,3.615,1.619,3.615,3.976c0,2.23-1.564,4.065-3.76,4.065c-0.881,0-1.655-0.323-2.267-0.827v2.914h1.386v1.295h-4.139
				V226.432z M188.071,220.297c0-1.619-0.988-2.645-2.303-2.645c-0.881,0-1.547,0.414-2.122,0.989v3.616
				c0.54,0.432,1.224,0.737,2.087,0.737C187.045,222.995,188.071,221.935,188.071,220.297z"/>
			<path fill="#1E5035" d="M191.343,222.132c0-1.421,1.259-2.339,3.04-2.339c0.81,0,1.709,0.181,2.123,0.307v-0.882
				c0-0.45-0.126-0.81-0.342-1.079c-0.324-0.396-0.863-0.594-1.619-0.594c-0.486,0-0.773,0.107-1.008,0.233
				c0.055,0.126,0.09,0.288,0.09,0.432c0,0.504-0.377,0.882-0.898,0.882c-0.541,0-0.918-0.378-0.918-0.918
				c0-0.917,1.008-1.87,2.986-1.87c1.205,0,2.086,0.359,2.608,0.971c0.396,0.468,0.594,1.08,0.594,1.781v3.85h1.205v1.296h-2.663
				v-0.936c-0.629,0.594-1.618,1.079-2.662,1.079C192.458,224.345,191.343,223.535,191.343,222.132z M196.506,222.258v-1.259
				c-0.521-0.145-1.188-0.271-1.889-0.271c-1.098,0-1.709,0.522-1.709,1.277c0,0.702,0.521,1.17,1.421,1.17
				C195.157,223.176,195.913,222.779,196.506,222.258z"/>
		</g>
	</g>
	<rect x="6.4" y="2.666" fill="#16A314" width="253.534" height="30.082"/>
	<g>
		<path fill="#FFFFFF" d="M79.739,21.246h0.042l3.387-9.545h3.852v14.392H84.12V16.95h-0.042l-3.429,9.143h-2.116l-3.344-9.143
			h-0.043v9.143H72.31V11.701h3.873L79.739,21.246z"/>
		<path fill="#FFFFFF" d="M91.312,18.791c0-4.063,1.354-7.301,6.413-7.301c5.058,0,6.391,3.238,6.391,7.301
			c0,4.106-1.333,7.513-6.391,7.513C92.667,26.304,91.312,22.897,91.312,18.791z M94.38,18.791c0,2.857,0.509,5.08,3.345,5.08
			s3.322-2.222,3.322-5.08c0-2.857-0.486-4.868-3.322-4.868S94.38,15.934,94.38,18.791z"/>
		<path fill="#FFFFFF" d="M108.41,26.093V11.701h2.92l5.757,9.037h0.043v-9.037h2.814v14.392h-2.899l-5.757-8.72h-0.042v8.72H108.41
			z"/>
		<path fill="#FFFFFF" d="M130.989,14.305v11.788h-2.921V14.305h-3.788v-2.604h10.476v2.604H130.989z"/>
		<path fill="#FFFFFF" d="M144.848,22.833h-4.55l-0.974,3.259h-3.09l4.656-14.497h3.556l4.593,14.497h-3.218L144.848,22.833z
			 M142.563,15.236l-1.672,5.164h3.365l-1.651-5.164H142.563z"/>
		<path fill="#FFFFFF" d="M155.788,11.701v11.81h6.709v2.582h-9.629V11.701H155.788z"/>
		<path fill="#FFFFFF" d="M169.753,22.559l3.218-10.857h3.068l-4.593,14.498h-3.556l-4.655-14.498h3.237l3.26,10.857H169.753z"/>
		<path fill="#FFFFFF" d="M178.873,18.791c0-4.063,1.354-7.301,6.413-7.301s6.392,3.238,6.392,7.301
			c0,4.106-1.333,7.513-6.392,7.513S178.873,22.897,178.873,18.791z M181.942,18.791c0,2.857,0.508,5.08,3.344,5.08
			s3.323-2.222,3.323-5.08c0-2.857-0.487-4.868-3.323-4.868S181.942,15.934,181.942,18.791z"/>
	</g>
	<g>
		<path fill="#1E5035" d="M169.922,96.538c0-5.59,3.055-9.101,8.84-9.101c5.721,0,8.84,3.51,8.84,9.101s-3.119,9.035-8.84,9.035
			C172.977,105.573,169.922,102.128,169.922,96.538z M183.833,96.538c0-3.9-1.69-6.045-5.07-6.045c-3.381,0-5.135,2.145-5.135,6.045
			c0,3.9,1.754,5.98,5.135,5.98C182.142,102.518,183.833,100.438,183.833,96.538z M181.622,131.964h-3.899l24.051-44.202h3.899
			L181.622,131.964z M195.792,123.254c0-5.59,3.056-9.1,8.841-9.1c5.72,0,8.84,3.51,8.84,9.1s-3.12,9.036-8.84,9.036
			C198.848,132.29,195.792,128.844,195.792,123.254z M209.704,123.254c0-3.9-1.69-6.045-5.07-6.045
			c-3.381,0-5.136,2.145-5.136,6.045c0,3.9,1.755,5.98,5.136,5.98C208.013,129.234,209.704,127.154,209.704,123.254z"/>
		<path fill="#1E5035" d="M168.191,150.521c0-4.125,1.237-7.49,6.297-7.49c5.037,0,6.297,3.365,6.297,7.49
			c0,4.191-1.26,7.709-6.297,7.709C169.428,158.229,168.191,154.712,168.191,150.521z M170.362,150.521
			c0,3.148,0.586,5.972,4.126,5.972c3.518,0,4.126-2.823,4.126-5.972s-0.608-5.754-4.126-5.754
			C170.948,144.767,170.362,147.372,170.362,150.521z"/>
		<path fill="#1E5035" d="M192.788,145.093h-7.166v4.776h6.188v1.846h-6.188v6.297h-2.062v-14.765h9.229V145.093z"/>
		<path fill="#1E5035" d="M204.834,145.093h-7.166v4.776h6.188v1.846h-6.188v6.297h-2.062v-14.765h9.229V145.093z"/>
	</g>
	<g>
		<g>
			<g>
				<path fill="#1E5035" d="M87.758,120.675c10.154,2.031,15.926,9.085,15.926,17.957c0,12.934-8.872,20.309-25.439,20.309
					c-8.551,0-16.354-1.282-23.729-5.023l2.993-7.482c6.307,3.207,13.041,4.489,20.202,4.489c14.002,0,16.033-8.23,16.033-12.826
					c0-7.589-5.451-12.506-17.315-12.506h-9.085v-8.017H76c11.437,0,15.926-6.841,15.926-13.361c0-4.81-2.565-12.078-14.216-12.078
					c-6.734,0-12.292,1.496-18.492,4.489l-2.993-7.375c7.482-3.634,15.499-5.13,23.088-5.13c13.361,0,22.233,6.841,22.233,19.026
					c0,8.872-5.879,14.644-13.789,17.316V120.675z"/>
				<path fill="#1E5035" d="M111.163,120.995c0-20.309,5.023-36.876,25.653-36.876c20.522,0,25.653,16.567,25.653,36.876
					c0,20.63-5.131,37.945-25.653,37.945C116.187,158.94,111.163,141.625,111.163,120.995z M121.317,120.995
					c0,15.499,2.886,29.929,15.499,29.929c12.506,0,15.499-14.43,15.499-29.929c0-15.499-2.993-28.859-15.499-28.859
					C124.203,92.136,121.317,105.497,121.317,120.995z"/>
			</g>
		</g>
	</g>
</g>
</svg>
