<?xml version="1.0" encoding="utf-8"?>
<!-- Generator: Adobe Illustrator 17.0.0, SVG Export Plug-In . SVG Version: 6.00 Build 0)  -->
<!DOCTYPE svg PUBLIC "-//W3C//DTD SVG 1.1//EN" "http://www.w3.org/Graphics/SVG/1.1/DTD/svg11.dtd">
<svg version="1.1" id="Layer_1" xmlns="http://www.w3.org/2000/svg" xmlns:xlink="http://www.w3.org/1999/xlink" x="0px" y="0px"
	 width="266.333px" height="265px" viewBox="0 0 266.333 265" enable-background="new 0 0 266.333 265" xml:space="preserve">
<g>
	<g>
		<path fill="#1E5035" d="M171.436,97.331c0-5.59,3.055-9.101,8.84-9.101c5.721,0,8.84,3.51,8.84,9.101s-3.119,9.035-8.84,9.035
			C174.491,106.366,171.436,102.922,171.436,97.331z M185.346,97.331c0-3.9-1.69-6.045-5.07-6.045c-3.381,0-5.135,2.145-5.135,6.045
			c0,3.9,1.754,5.98,5.135,5.98C183.656,103.311,185.346,101.231,185.346,97.331z M183.135,132.757h-3.899l24.051-44.202h3.899
			L183.135,132.757z M197.306,124.047c0-5.59,3.056-9.1,8.841-9.1c5.72,0,8.84,3.51,8.84,9.1c0,5.59-3.12,9.036-8.84,9.036
			C200.362,133.083,197.306,129.637,197.306,124.047z M211.217,124.047c0-3.9-1.69-6.045-5.07-6.045
			c-3.381,0-5.136,2.145-5.136,6.045c0,3.9,1.755,5.98,5.136,5.98C209.527,130.028,211.217,127.947,211.217,124.047z"/>
		<path fill="#1E5035" d="M169.705,151.314c0-4.126,1.237-7.491,6.297-7.491c5.037,0,6.297,3.365,6.297,7.491
			c0,4.19-1.26,7.708-6.297,7.708C170.942,159.022,169.705,155.505,169.705,151.314z M171.876,151.314
			c0,3.148,0.586,5.971,4.126,5.971c3.518,0,4.126-2.822,4.126-5.971s-0.608-5.754-4.126-5.754
			C172.462,145.56,171.876,148.166,171.876,151.314z"/>
		<path fill="#1E5035" d="M194.301,145.885h-7.166v4.777h6.188v1.846h-6.188v6.297h-2.062V144.04h9.229V145.885z"/>
		<path fill="#1E5035" d="M206.348,145.885h-7.166v4.777h6.188v1.846h-6.188v6.297h-2.062V144.04h9.229V145.885z"/>
	</g>
	<rect x="5.99" y="2.666" fill="#16A314" width="254.353" height="30.179"/>
	<g>
		<path fill="#FFFFFF" d="M54.312,10.178v11.843h6.729v2.59h-9.657V10.178H54.312z"/>
		<path fill="#FFFFFF" d="M73.396,21.342h-4.563l-0.977,3.269h-3.099l4.669-14.539h3.566l4.605,14.539h-3.226L73.396,21.342z
			 M71.103,13.722l-1.677,5.179h3.375l-1.655-5.179H71.103z"/>
		<path fill="#FFFFFF" d="M94.009,21.066l3.226-10.888h3.078l-4.606,14.539h-3.565l-4.67-14.539h3.248l3.269,10.888H94.009z"/>
		<path fill="#FFFFFF" d="M110.142,21.342h-4.563l-0.976,3.269h-3.1l4.67-14.539h3.565l4.606,14.539h-3.227L110.142,21.342z
			 M107.85,13.722l-1.677,5.179h3.375l-1.656-5.179H107.85z"/>
		<path fill="#FFFFFF" d="M123.624,9.965c1.719,0,3.226,0.213,5.2,0.807l-0.658,2.441c-2.271-0.531-3.184-0.637-4.309-0.637
			c-2.675,0-3.587,1.846-3.587,4.712c0,3.077,0.912,4.945,3.587,4.945c1.125,0,2.037-0.106,4.309-0.637l0.658,2.44
			c-1.975,0.573-3.481,0.785-5.2,0.785c-5.073,0-6.432-3.396-6.432-7.534C117.192,13.213,118.55,9.965,123.624,9.965z"/>
		<path fill="#FFFFFF" d="M140.797,21.342h-4.563l-0.976,3.269h-3.1l4.67-14.539h3.565L145,24.611h-3.227L140.797,21.342z
			 M138.505,13.722l-1.677,5.179h3.375l-1.656-5.179H138.505z"/>
		<path fill="#FFFFFF" d="M158.438,10.178v11.843h6.729v2.59h-9.657V10.178H158.438z"/>
		<path fill="#FFFFFF" d="M168.013,17.288c0-4.075,1.358-7.323,6.431-7.323c5.073,0,6.41,3.248,6.41,7.323
			c0,4.117-1.337,7.534-6.41,7.534C169.372,24.822,168.013,21.405,168.013,17.288z M171.09,17.288c0,2.865,0.51,5.094,3.354,5.094
			c2.845,0,3.332-2.229,3.332-5.094c0-2.866-0.487-4.882-3.332-4.882C171.6,12.406,171.09,14.422,171.09,17.288z"/>
		<path fill="#FFFFFF" d="M191.639,9.965c1.72,0,3.227,0.213,5.2,0.807l-0.658,2.441c-2.271-0.531-3.184-0.637-4.309-0.637
			c-2.674,0-3.587,1.846-3.587,4.712c0,3.077,0.913,4.945,3.587,4.945c1.125,0,2.038-0.106,4.309-0.637l0.658,2.44
			c-1.974,0.573-3.48,0.785-5.2,0.785c-5.072,0-6.431-3.396-6.431-7.534C185.209,13.213,186.567,9.965,191.639,9.965z"/>
		<path fill="#FFFFFF" d="M208.813,21.342h-4.563l-0.977,3.269h-3.099l4.669-14.539h3.566l4.605,14.539h-3.226L208.813,21.342z
			 M206.52,13.722l-1.677,5.179h3.375l-1.655-5.179H206.52z"/>
	</g>
	<g>
		<g>
			<g>
				<g>
					<path fill="#1E5035" d="M55.729,98.371l-2.895-7.72c7.827-3.432,14.046-5.361,23.053-5.361
						c15.762,0,23.053,9.972,23.053,21.767c0,15.011-11.044,28.414-32.489,43.426v0.214h33.561v8.578H52.834v-9.328
						c30.666-20.266,35.92-32.811,35.92-40.746c0-13.403-10.187-15.012-15.012-15.012C68.488,94.19,63.341,94.941,55.729,98.371z"/>
					<path fill="#1E5035" d="M107.519,154.986l2.895-7.398c7.613,3.646,13.295,4.718,19.622,4.718
						c10.4,0,16.619-6.219,16.619-16.083c0-7.077-3.431-15.226-14.475-15.226c-5.576,0-10.293,2.358-13.939,7.076l-7.077-0.644
						l1.715-41.066h39.673v8.578h-31.31l-1.501,24.447l0.215,0.106c3.646-3.859,9.221-6.862,15.547-6.862
						c12.974,0,21.338,8.364,21.338,23.054c0,16.083-10.188,24.662-26.271,24.662C122.101,160.347,115.346,158.739,107.519,154.986z
						"/>
				</g>
			</g>
		</g>
	</g>
	<g>
		<g>
			<path fill="#1E5035" d="M44.253,211.364h1.439v-8.924h-1.439v-1.457h4.444c4.209,0,6.818,2.268,6.818,5.811
				c0,3.58-2.464,6.027-6.926,6.027h-4.336V211.364z M48.804,211.364c3.328,0,5.037-1.836,5.037-4.588
				c0-2.734-2.015-4.336-5.181-4.336h-1.331v8.924H48.804z"/>
			<path fill="#1E5035" d="M59.11,209.438c0.216,1.475,1.295,2.195,2.807,2.195c0.989,0,1.835-0.307,2.752-0.828l-0.126,1.422
				c-0.81,0.504-1.799,0.736-2.86,0.736c-2.501,0-4.192-1.619-4.192-3.992c0-2.178,1.493-4.049,3.85-4.049
				c2.393,0,3.652,1.709,3.652,3.688c0,0.289-0.036,0.594-0.072,0.828H59.11z M59.11,208.288h4.335
				c-0.072-1.242-0.827-2.088-2.141-2.088C60.261,206.2,59.307,206.883,59.11,208.288z"/>
			<path fill="#1E5035" d="M72.151,207.604c-0.54,0-0.936-0.342-0.936-0.865c0-0.125,0.018-0.27,0.072-0.395
				c-0.306-0.145-0.755-0.234-1.241-0.234c-0.99,0-1.529,0.486-1.529,0.99c0,0.574,0.594,0.809,1.835,1.133
				c1.673,0.432,2.896,0.881,2.896,2.338c0,1.549-1.475,2.412-3.166,2.412c-1.169,0-2.357-0.396-2.878-0.918
				c-0.288-0.287-0.432-0.611-0.432-1.008c0-0.504,0.36-0.936,0.882-0.936c0.503,0,0.917,0.342,0.917,0.9
				c0,0.143-0.018,0.27-0.072,0.395c0.288,0.18,0.864,0.361,1.583,0.361c0.935,0,1.691-0.361,1.691-1.045
				c0-0.557-0.558-0.826-1.709-1.115c-1.979-0.504-3.041-0.988-3.041-2.375c0-1.188,1.062-2.32,3.041-2.32
				c1.007,0,2.015,0.324,2.519,0.828c0.27,0.27,0.396,0.594,0.396,0.936C72.978,207.243,72.636,207.604,72.151,207.604z"/>
			<path fill="#1E5035" d="M75.009,208.917c0-2.086,1.673-3.994,3.886-3.994c1.925,0,3.328,1.26,3.328,2.447
				c0,0.684-0.468,1.15-1.097,1.15c-0.504,0-0.972-0.395-0.972-0.971c0-0.252,0.126-0.504,0.324-0.648
				c-0.18-0.359-0.827-0.701-1.583-0.701c-1.043,0-2.321,0.881-2.321,2.752c0,1.602,1.169,2.682,2.771,2.682
				c0.899,0,1.709-0.27,2.663-0.828l-0.144,1.422c-0.792,0.504-1.709,0.736-2.662,0.736
				C76.79,212.964,75.009,211.309,75.009,208.917z"/>
			<path fill="#1E5035" d="M85.19,211.938c-0.234-0.432-0.36-0.953-0.36-1.582v-3.959h-1.205v-1.33h2.734v4.947
				c0,0.395,0.072,0.701,0.198,0.936c0.216,0.414,0.576,0.594,1.133,0.594c0.846,0,1.637-0.521,2.321-1.17v-3.977H88.77v-1.33h2.789
				v6.459h1.205v1.295h-2.698v-1.35c-0.738,0.791-1.709,1.492-2.825,1.492C86.251,212.964,85.586,212.569,85.19,211.938z"/>
			<path fill="#1E5035" d="M95.927,209.438c0.216,1.475,1.295,2.195,2.807,2.195c0.989,0,1.835-0.307,2.752-0.828l-0.126,1.422
				c-0.81,0.504-1.799,0.736-2.86,0.736c-2.501,0-4.192-1.619-4.192-3.992c0-2.178,1.493-4.049,3.85-4.049
				c2.393,0,3.652,1.709,3.652,3.688c0,0.289-0.036,0.594-0.072,0.828H95.927z M95.927,208.288h4.335
				c-0.072-1.242-0.827-2.088-2.141-2.088C97.079,206.2,96.125,206.883,95.927,208.288z"/>
			<path fill="#1E5035" d="M106.162,206.417c0.738-0.793,1.709-1.494,2.824-1.494c0.972,0,1.637,0.379,2.033,0.99
				c0.252,0.432,0.396,0.971,0.396,1.619v3.994h1.206v1.295h-3.904v-1.295h1.151v-3.652c0-0.379-0.054-0.684-0.18-0.918
				c-0.216-0.414-0.594-0.611-1.151-0.611c-0.845,0-1.655,0.504-2.321,1.17v4.012h1.151v1.295h-3.886v-1.295h1.206v-5.129h-1.206
				v-1.33h2.681V206.417z"/>
			<path fill="#1E5035" d="M115.28,211.993c-0.144-0.307-0.234-0.701-0.234-1.133v-4.463h-1.457v-1.33h1.457v-1.781l1.547-0.629
				v2.41h2.356v1.33h-2.356v4.193c0,0.252,0.036,0.432,0.108,0.594c0.144,0.252,0.432,0.377,0.881,0.377
				c0.468,0,1.025-0.217,1.475-0.432l-0.162,1.385c-0.45,0.234-1.025,0.449-1.745,0.449
				C116.288,212.964,115.622,212.659,115.28,211.993z"/>
			<path fill="#1E5035" d="M120.586,208.952c0-2.176,1.583-4.029,4.048-4.029c2.464,0,4.047,1.836,4.047,4.029
				c0,2.16-1.601,4.012-4.047,4.012C122.151,212.964,120.586,211.13,120.586,208.952z M127.08,208.952
				c0-1.582-1.007-2.715-2.446-2.715c-1.458,0-2.465,1.133-2.465,2.715c0,1.584,1.007,2.699,2.465,2.699
				C126.073,211.651,127.08,210.536,127.08,208.952z"/>
			<path fill="#1E5035" d="M134.796,211.526h1.205v-5.129h-1.205v-1.33h2.681v1.35c0.647-0.756,1.601-1.494,2.734-1.494
				c0.899,0,1.511,0.342,1.889,0.881c0.108,0.162,0.18,0.342,0.234,0.541c0.791-0.791,1.745-1.422,2.734-1.422
				c1.115,0,1.799,0.414,2.158,1.115c0.198,0.414,0.307,0.918,0.307,1.477v4.012h1.205v1.295h-3.904v-1.295h1.151v-3.67
				c0-0.361-0.054-0.648-0.144-0.883c-0.18-0.432-0.54-0.629-1.098-0.629c-0.791,0-1.529,0.467-2.213,1.133v4.049h1.134v1.295
				h-3.832v-1.295h1.151v-3.67c0-0.361-0.036-0.648-0.126-0.883c-0.198-0.432-0.54-0.629-1.098-0.629
				c-0.827,0-1.564,0.504-2.23,1.15v4.031h1.134v1.295h-3.868V211.526z"/>
			<path fill="#1E5035" d="M150.066,210.751c0-1.42,1.259-2.338,3.04-2.338c0.81,0,1.709,0.18,2.123,0.307v-0.883
				c0-0.449-0.126-0.809-0.342-1.078c-0.324-0.396-0.864-0.594-1.619-0.594c-0.486,0-0.774,0.107-1.008,0.232
				c0.054,0.127,0.09,0.289,0.09,0.434c0,0.502-0.378,0.881-0.899,0.881c-0.54,0-0.917-0.379-0.917-0.918
				c0-0.918,1.007-1.871,2.986-1.871c1.205,0,2.086,0.359,2.608,0.973c0.396,0.467,0.594,1.078,0.594,1.779v3.852h1.205v1.295
				h-2.663v-0.936c-0.629,0.594-1.619,1.078-2.662,1.078C151.181,212.964,150.066,212.155,150.066,210.751z M155.229,210.878v-1.26
				c-0.522-0.143-1.188-0.27-1.89-0.27c-1.097,0-1.709,0.521-1.709,1.277c0,0.701,0.521,1.17,1.422,1.17
				C153.88,211.796,154.635,211.399,155.229,210.878z M152.89,203.358l2.087-2.447c0.252-0.287,0.558-0.467,0.863-0.467
				c0.432,0,0.792,0.342,0.792,0.826c0,0.289-0.198,0.631-0.576,0.883l-2.717,1.709L152.89,203.358z"/>
			<path fill="#1E5035" d="M158.825,211.489h1.025l2.446-2.59l-2.32-2.502h-1.008v-1.33h3.616v1.24h-0.989l1.583,1.891l1.583-1.891
				h-1.007v-1.24h3.579v1.33h-1.025l-2.284,2.447l2.465,2.645h1.025v1.332h-3.652v-1.242h1.008l-1.745-2.033l-1.728,2.033h1.025
				v1.242h-3.598V211.489z"/>
			<path fill="#1E5035" d="M168.861,211.526h1.26v-5.129h-1.26v-1.33h2.807v6.459h1.241v1.295h-4.048V211.526z M169.599,202.296
				c0-0.611,0.521-1.115,1.133-1.115c0.594,0,1.115,0.504,1.115,1.115c0,0.631-0.539,1.135-1.133,1.135
				C170.102,203.43,169.599,202.926,169.599,202.296z"/>
			<path fill="#1E5035" d="M174.527,211.526h1.205v-5.129h-1.205v-1.33h2.681v1.35c0.647-0.756,1.601-1.494,2.734-1.494
				c0.899,0,1.511,0.342,1.889,0.881c0.108,0.162,0.18,0.342,0.234,0.541c0.791-0.791,1.745-1.422,2.734-1.422
				c1.115,0,1.799,0.414,2.158,1.115c0.198,0.414,0.307,0.918,0.307,1.477v4.012h1.205v1.295h-3.904v-1.295h1.151v-3.67
				c0-0.361-0.054-0.648-0.144-0.883c-0.18-0.432-0.54-0.629-1.098-0.629c-0.791,0-1.529,0.467-2.213,1.133v4.049h1.134v1.295
				h-3.832v-1.295h1.151v-3.67c0-0.361-0.036-0.648-0.126-0.883c-0.198-0.432-0.54-0.629-1.098-0.629
				c-0.827,0-1.564,0.504-2.23,1.15v4.031h1.134v1.295h-3.868V211.526z"/>
			<path fill="#1E5035" d="M189.779,208.952c0-2.176,1.583-4.029,4.048-4.029s4.048,1.836,4.048,4.029
				c0,2.16-1.602,4.012-4.048,4.012C191.344,212.964,189.779,211.13,189.779,208.952z M196.273,208.952
				c0-1.582-1.007-2.715-2.446-2.715c-1.457,0-2.465,1.133-2.465,2.715c0,1.584,1.008,2.699,2.465,2.699
				C195.266,211.651,196.273,210.536,196.273,208.952z"/>
			<path fill="#1E5035" d="M204.042,208.989c0-2.213,1.565-4.066,3.778-4.066c0.971,0,1.78,0.359,2.303,0.846v-4.785h-1.332v-1.332
				h2.879v11.875h1.205v1.295h-2.734v-0.99c-0.611,0.648-1.385,1.133-2.465,1.133C205.625,212.964,204.042,211.344,204.042,208.989z
				 M210.123,210.626v-3.598c-0.558-0.432-1.224-0.756-2.123-0.756c-1.331,0-2.356,1.061-2.375,2.699
				c0,1.619,1.025,2.645,2.339,2.645C208.845,211.616,209.547,211.202,210.123,210.626z"/>
			<path fill="#1E5035" d="M215.967,209.438c0.216,1.475,1.295,2.195,2.807,2.195c0.989,0,1.835-0.307,2.752-0.828l-0.126,1.422
				c-0.81,0.504-1.799,0.736-2.86,0.736c-2.501,0-4.191-1.619-4.191-3.992c0-2.178,1.493-4.049,3.85-4.049
				c2.393,0,3.652,1.709,3.652,3.688c0,0.289-0.036,0.594-0.072,0.828H215.967z M215.967,208.288h4.335
				c-0.071-1.242-0.827-2.088-2.141-2.088C217.119,206.2,216.165,206.883,215.967,208.288z"/>
			<path fill="#1E5035" d="M71.492,232.03c0-0.756,0.45-1.242,1.08-1.242c0.647,0,1.08,0.486,1.08,0.99
				c0,0.324-0.09,0.557-0.234,0.773c0.414,0.359,1.205,0.629,2.159,0.629c1.439,0,2.356-0.701,2.356-1.871
				c0-1.115-1.079-1.637-2.338-2.104c-2.123-0.791-3.652-1.512-3.652-3.617c0-1.852,1.476-3.238,3.76-3.238
				c2.069,0,3.688,1.115,3.688,2.43c0,0.738-0.468,1.17-1.043,1.17c-0.684,0-1.098-0.504-1.098-1.045
				c0-0.287,0.09-0.467,0.198-0.629c-0.324-0.287-1.025-0.504-1.763-0.504c-1.313,0-2.105,0.701-2.105,1.691
				c0,1.133,1.062,1.619,2.411,2.141c2.033,0.756,3.562,1.494,3.562,3.58c0,2.158-1.691,3.436-4.012,3.436
				S71.492,233.307,71.492,232.03z"/>
			<path fill="#1E5035" d="M80.558,237.606l7.358-16.586l1.313,0.576L81.871,238.2L80.558,237.606z"/>
			<path fill="#1E5035" d="M90.342,233.11h2.159v-6.352l-1.871,0.469l-0.36-1.314l3.077-0.809h0.719v8.006h2.123v1.295h-5.847
				V233.11z"/>
			<path fill="#1E5035" d="M98.976,233.38c0.558,0,1.007,0.432,1.007,0.988c0,0.217-0.108,0.469-0.27,0.631
				c0.378,0.215,0.936,0.324,1.619,0.324c1.529,0,2.5-1.045,2.5-2.375c0-1.297-0.881-2.25-2.519-2.25
				c-0.81,0-1.655,0.199-2.321,0.521l-0.702-0.395l0.684-5.686h5.811v1.457h-4.624l-0.36,3.004c0.468-0.143,1.08-0.232,1.709-0.232
				c2.23,0,3.886,1.35,3.886,3.58c0,2.176-1.709,3.723-3.976,3.723c-1.367,0-2.393-0.377-2.968-0.916
				c-0.36-0.342-0.558-0.775-0.558-1.188C97.896,233.901,98.364,233.38,98.976,233.38z"/>
			<path fill="#1E5035" d="M107.302,229.762c0-2.734,1.799-4.768,4.3-4.768c2.5,0,4.299,2.051,4.299,4.768
				c0,2.754-1.799,4.785-4.299,4.785C109.101,234.548,107.302,232.497,107.302,229.762z M114.3,229.762
				c0-1.979-1.097-3.453-2.698-3.453s-2.699,1.457-2.699,3.453c0,2.016,1.098,3.455,2.699,3.455S114.3,231.778,114.3,229.762z"/>
			<path fill="#1E5035" d="M121.961,236.635h1.206v-8.654h-1.206v-1.33h2.681v1.008c0.648-0.666,1.367-1.152,2.483-1.152
				c2.033,0,3.616,1.619,3.616,3.977c0,2.23-1.565,4.064-3.76,4.064c-0.881,0-1.655-0.322-2.267-0.826v2.914h1.385v1.295h-4.138
				V236.635z M129.139,230.501c0-1.619-0.989-2.645-2.303-2.645c-0.881,0-1.547,0.414-2.123,0.99v3.615
				c0.54,0.432,1.223,0.738,2.086,0.738C128.114,233.2,129.139,232.137,129.139,230.501z"/>
			<path fill="#1E5035" d="M132.537,230.536c0-2.176,1.583-4.029,4.048-4.029c2.464,0,4.047,1.836,4.047,4.029
				c0,2.16-1.601,4.012-4.047,4.012C134.102,234.548,132.537,232.714,132.537,230.536z M139.032,230.536
				c0-1.582-1.008-2.715-2.446-2.715c-1.458,0-2.465,1.133-2.465,2.715c0,1.584,1.007,2.699,2.465,2.699
				C138.024,233.235,139.032,232.12,139.032,230.536z"/>
			<path fill="#1E5035" d="M148.726,227.639c0,0.559-0.45,1.045-0.99,1.045c-0.521,0-0.881-0.324-1.025-0.666
				c-0.575,0.18-1.241,0.828-1.619,1.564v3.527h1.422v1.295h-4.156v-1.295h1.206v-5.129h-1.206v-1.33h2.681v1.764
				c0.612-1.062,1.512-1.908,2.411-1.908C148.295,226.507,148.726,227.028,148.726,227.639z"/>
			<path fill="#1E5035" d="M154.354,233.11h1.206v-5.129h-1.206v-1.33h2.681v1.35c0.647-0.756,1.602-1.494,2.734-1.494
				c0.899,0,1.512,0.342,1.89,0.881c0.107,0.162,0.18,0.342,0.233,0.541c0.792-0.791,1.745-1.422,2.734-1.422
				c1.115,0,1.799,0.414,2.159,1.115c0.198,0.414,0.306,0.918,0.306,1.477v4.012h1.205v1.295h-3.903v-1.295h1.151v-3.67
				c0-0.361-0.055-0.648-0.145-0.883c-0.18-0.432-0.539-0.629-1.097-0.629c-0.792,0-1.529,0.467-2.213,1.133v4.049h1.133v1.295
				h-3.832v-1.295h1.151v-3.67c0-0.361-0.035-0.648-0.125-0.883c-0.198-0.432-0.54-0.629-1.098-0.629
				c-0.828,0-1.565,0.504-2.231,1.15v4.031h1.134v1.295h-3.868V233.11z"/>
			<path fill="#1E5035" d="M171.19,231.022c0.216,1.475,1.295,2.195,2.807,2.195c0.989,0,1.835-0.307,2.752-0.828l-0.126,1.422
				c-0.81,0.504-1.799,0.736-2.86,0.736c-2.501,0-4.191-1.619-4.191-3.992c0-2.178,1.493-4.049,3.85-4.049
				c2.393,0,3.652,1.709,3.652,3.688c0,0.289-0.036,0.594-0.072,0.828H171.19z M171.19,229.872h4.335
				c-0.071-1.242-0.827-2.088-2.141-2.088C172.341,227.784,171.387,228.467,171.19,229.872z"/>
			<path fill="#1E5035" d="M184.231,229.188c-0.54,0-0.936-0.342-0.936-0.865c0-0.125,0.018-0.27,0.071-0.395
				c-0.306-0.145-0.755-0.234-1.241-0.234c-0.989,0-1.529,0.486-1.529,0.99c0,0.574,0.594,0.809,1.835,1.133
				c1.674,0.432,2.896,0.881,2.896,2.338c0,1.549-1.475,2.412-3.166,2.412c-1.169,0-2.356-0.396-2.878-0.918
				c-0.288-0.287-0.433-0.611-0.433-1.008c0-0.504,0.36-0.936,0.882-0.936c0.504,0,0.918,0.342,0.918,0.9
				c0,0.143-0.019,0.27-0.072,0.395c0.288,0.18,0.863,0.361,1.583,0.361c0.936,0,1.691-0.361,1.691-1.045
				c0-0.557-0.558-0.826-1.709-1.115c-1.979-0.504-3.041-0.988-3.041-2.375c0-1.188,1.062-2.32,3.041-2.32
				c1.007,0,2.015,0.324,2.519,0.828c0.27,0.27,0.396,0.594,0.396,0.936C185.058,228.827,184.716,229.188,184.231,229.188z"/>
			<path fill="#1E5035" d="M187.126,232.335c0-1.42,1.259-2.338,3.04-2.338c0.81,0,1.709,0.18,2.123,0.307v-0.883
				c0-0.449-0.126-0.809-0.342-1.078c-0.324-0.396-0.864-0.594-1.619-0.594c-0.486,0-0.774,0.107-1.008,0.232
				c0.054,0.127,0.09,0.289,0.09,0.434c0,0.502-0.378,0.881-0.899,0.881c-0.54,0-0.917-0.379-0.917-0.918
				c0-0.918,1.007-1.871,2.986-1.871c1.205,0,2.086,0.359,2.608,0.973c0.396,0.467,0.594,1.078,0.594,1.779v3.852h1.205v1.295
				h-2.663v-0.936c-0.629,0.594-1.619,1.078-2.662,1.078C188.241,234.548,187.126,233.739,187.126,232.335z M192.289,232.462v-1.26
				c-0.522-0.143-1.188-0.27-1.89-0.27c-1.097,0-1.709,0.521-1.709,1.277c0,0.701,0.521,1.17,1.422,1.17
				C190.939,233.38,191.695,232.983,192.289,232.462z"/>
		</g>
	</g>
</g>
<g>
</g>
<g>
</g>
<g>
</g>
<g>
</g>
<g>
</g>
<g>
</g>
<g>
</g>
<g>
</g>
<g>
</g>
<g>
</g>
<g>
</g>
<g>
</g>
<g>
</g>
<g>
</g>
<g>
</g>
</svg>
