<?xml version="1.0" encoding="utf-8"?>
<!-- Generator: Adobe Illustrator 17.0.0, SVG Export Plug-In . SVG Version: 6.00 Build 0)  -->
<!DOCTYPE svg PUBLIC "-//W3C//DTD SVG 1.1//EN" "http://www.w3.org/Graphics/SVG/1.1/DTD/svg11.dtd">
<svg version="1.1" id="Layer_1" xmlns="http://www.w3.org/2000/svg" xmlns:xlink="http://www.w3.org/1999/xlink" x="0px" y="0px"
	 width="266.333px" height="265px" viewBox="0 0 266.333 265" enable-background="new 0 0 266.333 265" xml:space="preserve">
<g>
	<g>
		<path fill="#1E5035" d="M165.362,97.086c0-5.59,3.055-9.101,8.84-9.101c5.721,0,8.84,3.51,8.84,9.101s-3.119,9.035-8.84,9.035
			C168.417,106.121,165.362,102.676,165.362,97.086z M179.272,97.086c0-3.9-1.69-6.045-5.07-6.045c-3.381,0-5.135,2.145-5.135,6.045
			c0,3.9,1.754,5.98,5.135,5.98C177.582,103.066,179.272,100.986,179.272,97.086z M177.061,132.512h-3.899l24.051-44.202h3.899
			L177.061,132.512z M191.232,123.801c0-5.59,3.056-9.1,8.841-9.1c5.72,0,8.84,3.51,8.84,9.1c0,5.59-3.12,9.036-8.84,9.036
			C194.288,132.837,191.232,129.392,191.232,123.801z M205.143,123.801c0-3.9-1.69-6.045-5.07-6.045
			c-3.381,0-5.136,2.145-5.136,6.045c0,3.9,1.755,5.98,5.136,5.98C203.453,129.782,205.143,127.702,205.143,123.801z"/>
		<path fill="#1E5035" d="M163.631,151.069c0-4.126,1.237-7.491,6.297-7.491c5.037,0,6.297,3.365,6.297,7.491
			c0,4.19-1.26,7.708-6.297,7.708C164.868,158.777,163.631,155.259,163.631,151.069z M165.801,151.069
			c0,3.148,0.586,5.971,4.126,5.971c3.518,0,4.126-2.822,4.126-5.971s-0.608-5.754-4.126-5.754
			C166.387,145.315,165.801,147.921,165.801,151.069z"/>
		<path fill="#1E5035" d="M188.227,145.64h-7.166v4.777h6.188v1.846h-6.188v6.297h-2.062v-14.766h9.229V145.64z"/>
		<path fill="#1E5035" d="M200.274,145.64h-7.166v4.777h6.188v1.846h-6.188v6.297h-2.062v-14.766h9.229V145.64z"/>
	</g>
	<rect x="6.4" y="2.666" fill="#16A314" width="253.534" height="30.082"/>
	<g>
		<path fill="#FFFFFF" d="M80.055,21.447h-4.55l-0.974,3.259h-3.09l4.656-14.497h3.555l4.593,14.497h-3.217L80.055,21.447z
			 M77.77,13.849l-1.672,5.164h3.364l-1.65-5.164H77.77z"/>
		<path fill="#FFFFFF" d="M88.074,24.706V10.315h2.921l5.756,9.037h0.043v-9.037h2.814v14.392h-2.899l-5.757-8.72H90.91v8.72H88.074
			z"/>
		<path fill="#FFFFFF" d="M104.368,24.706V10.315h2.921l5.756,9.037h0.043v-9.037h2.814v14.392h-2.899l-5.757-8.72h-0.042v8.72
			H104.368z"/>
		<path fill="#FFFFFF" d="M126.946,12.918v11.788h-2.92V12.918h-3.788v-2.604h10.476v2.604H126.946z"/>
		<path fill="#FFFFFF" d="M140.806,21.447h-4.55l-0.974,3.259h-3.09l4.656-14.497h3.555l4.593,14.497h-3.217L140.806,21.447z
			 M138.521,13.849l-1.672,5.164h3.364l-1.65-5.164H138.521z"/>
		<path fill="#FFFFFF" d="M156.846,24.706l-3.026-5.122h-2.074v5.122h-2.921V10.315h6.138c3.026,0,4.762,1.82,4.762,4.635
			c0,1.947-0.91,3.577-2.857,4.148l3.365,5.608H156.846z M151.746,16.982h2.856c1.207,0,2.138-0.529,2.138-2.032
			c0-1.46-0.867-2.031-2.095-2.031h-2.899V16.982z"/>
		<path fill="#FFFFFF" d="M172.356,21.447h-4.55l-0.974,3.259h-3.09l4.656-14.497h3.555l4.593,14.497h-3.217L172.356,21.447z
			 M170.071,13.849l-1.672,5.164h3.364l-1.65-5.164H170.071z"/>
		<path fill="#FFFFFF" d="M180.375,24.706V10.315h2.921v5.672h5.502v-5.672h2.899v14.392h-2.899v-6.138h-5.502v6.138H180.375z"/>
	</g>
	<g>
		<g>
			<path fill="#1E5035" d="M29.62,210.518h1.439v-8.923H29.62v-1.458h8.689v3.095h-1.547v-1.655h-4.066v3.67h3.742v1.403h-3.742
				v3.886h4.066v-1.655h1.564v3.095H29.62V210.518z"/>
			<path fill="#1E5035" d="M43.038,205.571c0.738-0.792,1.71-1.493,2.825-1.493c0.971,0,1.637,0.378,2.032,0.989
				c0.252,0.432,0.396,0.972,0.396,1.619v3.994h1.205v1.295h-3.904v-1.295h1.151v-3.652c0-0.378-0.054-0.684-0.18-0.918
				c-0.216-0.413-0.594-0.611-1.151-0.611c-0.846,0-1.655,0.504-2.32,1.17v4.012h1.151v1.295h-3.886v-1.295h1.205v-5.128h-1.205
				v-1.331h2.68V205.571z"/>
			<path fill="#1E5035" d="M56.546,211.148c-0.144-0.307-0.233-0.702-0.233-1.134v-4.462h-1.458v-1.331h1.458v-1.781l1.547-0.629
				v2.41h2.356v1.331H57.86v4.192c0,0.252,0.036,0.432,0.107,0.594c0.145,0.252,0.433,0.377,0.882,0.377
				c0.468,0,1.025-0.216,1.476-0.432l-0.162,1.386c-0.45,0.233-1.025,0.449-1.745,0.449
				C57.554,212.119,56.888,211.813,56.546,211.148z"/>
			<path fill="#1E5035" d="M61.852,208.107c0-2.177,1.583-4.029,4.048-4.029c2.465,0,4.048,1.835,4.048,4.029
				c0,2.159-1.602,4.012-4.048,4.012C63.417,212.119,61.852,210.284,61.852,208.107z M68.346,208.107
				c0-1.583-1.007-2.716-2.446-2.716c-1.457,0-2.465,1.133-2.465,2.716s1.008,2.699,2.465,2.699
				C67.339,210.806,68.346,209.69,68.346,208.107z"/>
			<path fill="#1E5035" d="M71.726,208.143c0-2.213,1.565-4.065,3.777-4.065c0.972,0,1.781,0.359,2.303,0.846v-4.786h-1.331v-1.331
				h2.879v11.874h1.205v1.295h-2.734v-0.989c-0.611,0.647-1.386,1.133-2.465,1.133C73.309,212.119,71.726,210.5,71.726,208.143z
				 M77.806,209.781v-3.599c-0.558-0.432-1.223-0.756-2.122-0.756c-1.332,0-2.357,1.062-2.375,2.699
				c0,1.619,1.025,2.645,2.339,2.645C76.529,210.77,77.231,210.356,77.806,209.781z"/>
			<path fill="#1E5035" d="M82.068,208.107c0-2.177,1.583-4.029,4.048-4.029s4.048,1.835,4.048,4.029
				c0,2.159-1.602,4.012-4.048,4.012C83.633,212.119,82.068,210.284,82.068,208.107z M88.562,208.107
				c0-1.583-1.007-2.716-2.446-2.716c-1.457,0-2.465,1.133-2.465,2.716s1.008,2.699,2.465,2.699
				C87.555,210.806,88.562,209.69,88.562,208.107z"/>
			<path fill="#1E5035" d="M96.349,209.906c0-1.421,1.26-2.338,3.041-2.338c0.81,0,1.709,0.18,2.122,0.306v-0.882
				c0-0.449-0.126-0.81-0.342-1.079c-0.323-0.396-0.863-0.594-1.619-0.594c-0.485,0-0.773,0.107-1.007,0.233
				c0.054,0.126,0.09,0.288,0.09,0.433c0,0.503-0.378,0.881-0.899,0.881c-0.54,0-0.918-0.378-0.918-0.917
				c0-0.918,1.008-1.871,2.986-1.871c1.206,0,2.087,0.359,2.608,0.972c0.396,0.468,0.594,1.079,0.594,1.78v3.851h1.206v1.295h-2.663
				v-0.936c-0.63,0.594-1.619,1.079-2.662,1.079C97.464,212.119,96.349,211.309,96.349,209.906z M101.512,210.032v-1.259
				c-0.521-0.144-1.187-0.27-1.889-0.27c-1.098,0-1.709,0.521-1.709,1.277c0,0.701,0.521,1.169,1.421,1.169
				C100.163,210.95,100.918,210.554,101.512,210.032z"/>
			<path fill="#1E5035" d="M105.342,210.68h1.259v-10.543h-1.259v-1.331h2.806v11.874h1.242v1.295h-4.048V210.68z"/>
			<path fill="#1E5035" d="M118.599,212.137c0,0.953-0.252,1.727-0.72,2.284c-0.647,0.792-1.709,1.151-2.933,1.151
				c-1.277,0-2.303-0.396-2.807-0.899c-0.287-0.287-0.413-0.594-0.413-0.936c0-0.539,0.396-1.007,0.972-1.007
				c0.521,0,0.899,0.378,0.899,0.881c0,0.145-0.036,0.307-0.108,0.433c0.27,0.107,0.72,0.251,1.367,0.251
				c0.737,0,1.386-0.216,1.799-0.737c0.252-0.323,0.396-0.791,0.396-1.421v-1.35c-0.612,0.63-1.313,1.098-2.429,1.098
				c-1.997,0-3.616-1.565-3.616-3.85c0-2.142,1.565-3.958,3.742-3.958c1.025,0,1.799,0.396,2.374,0.917v-0.773h2.681v1.331h-1.205
				V212.137z M112.59,208.017c0,1.547,0.989,2.537,2.356,2.537c0.846,0,1.548-0.396,2.105-0.972v-3.4
				c-0.522-0.432-1.188-0.756-2.069-0.756C113.579,205.426,112.59,206.47,112.59,208.017z"/>
			<path fill="#1E5035" d="M121.367,208.107c0-2.177,1.583-4.029,4.048-4.029s4.048,1.835,4.048,4.029
				c0,2.159-1.602,4.012-4.048,4.012C122.933,212.119,121.367,210.284,121.367,208.107z M127.861,208.107
				c0-1.583-1.007-2.716-2.446-2.716c-1.457,0-2.465,1.133-2.465,2.716s1.008,2.699,2.465,2.699
				C126.855,210.806,127.861,209.69,127.861,208.107z"/>
			<path fill="#1E5035" d="M131.241,208.143c0-2.213,1.565-4.065,3.778-4.065c0.972,0,1.781,0.359,2.303,0.846v-4.786h-1.331v-1.331
				h2.879v11.874h1.205v1.295h-2.734v-0.989c-0.611,0.647-1.386,1.133-2.465,1.133C132.824,212.119,131.241,210.5,131.241,208.143z
				 M137.322,209.781v-3.599c-0.558-0.432-1.223-0.756-2.122-0.756c-1.333,0-2.358,1.062-2.375,2.699
				c0,1.619,1.025,2.645,2.339,2.645C136.046,210.77,136.747,210.356,137.322,209.781z"/>
			<path fill="#1E5035" d="M141.585,208.107c0-2.177,1.583-4.029,4.048-4.029s4.048,1.835,4.048,4.029
				c0,2.159-1.602,4.012-4.048,4.012C143.15,212.119,141.585,210.284,141.585,208.107z M148.079,208.107
				c0-1.583-1.007-2.716-2.446-2.716c-1.457,0-2.465,1.133-2.465,2.716s1.008,2.699,2.465,2.699
				C147.072,210.806,148.079,209.69,148.079,208.107z M144.769,202.512l2.086-2.446c0.252-0.288,0.559-0.468,0.864-0.468
				c0.432,0,0.791,0.342,0.791,0.827c0,0.288-0.197,0.63-0.575,0.882l-2.717,1.709L144.769,202.512z"/>
			<path fill="#1E5035" d="M154.085,205.571c0.738-0.792,1.71-1.493,2.825-1.493c0.971,0,1.637,0.378,2.032,0.989
				c0.252,0.432,0.396,0.972,0.396,1.619v3.994h1.205v1.295h-3.904v-1.295h1.151v-3.652c0-0.378-0.054-0.684-0.18-0.918
				c-0.216-0.413-0.594-0.611-1.151-0.611c-0.846,0-1.655,0.504-2.32,1.17v4.012h1.151v1.295h-3.886v-1.295h1.205v-5.128h-1.205
				v-1.331h2.68V205.571z"/>
			<path fill="#1E5035" d="M166.387,208.107c0-2.177,1.583-4.029,4.048-4.029s4.048,1.835,4.048,4.029
				c0,2.159-1.602,4.012-4.048,4.012C167.953,212.119,166.387,210.284,166.387,208.107z M172.882,208.107
				c0-1.583-1.007-2.716-2.446-2.716c-1.457,0-2.465,1.133-2.465,2.716s1.008,2.699,2.465,2.699
				C171.875,210.806,172.882,209.69,172.882,208.107z"/>
			<path fill="#1E5035" d="M182.576,205.211c0,0.558-0.45,1.044-0.989,1.044c-0.521,0-0.882-0.324-1.025-0.666
				c-0.576,0.18-1.241,0.828-1.619,1.565v3.526h1.421v1.295h-4.155v-1.295h1.205v-5.128h-1.205v-1.331h2.68v1.764
				c0.612-1.062,1.512-1.907,2.411-1.907C182.144,204.078,182.576,204.599,182.576,205.211z"/>
			<path fill="#1E5035" d="M191.228,212.137c0,0.953-0.252,1.727-0.72,2.284c-0.647,0.792-1.709,1.151-2.933,1.151
				c-1.277,0-2.303-0.396-2.807-0.899c-0.287-0.287-0.413-0.594-0.413-0.936c0-0.539,0.396-1.007,0.972-1.007
				c0.521,0,0.899,0.378,0.899,0.881c0,0.145-0.036,0.307-0.108,0.433c0.27,0.107,0.72,0.251,1.367,0.251
				c0.737,0,1.386-0.216,1.799-0.737c0.252-0.323,0.396-0.791,0.396-1.421v-1.35c-0.612,0.63-1.313,1.098-2.429,1.098
				c-1.997,0-3.616-1.565-3.616-3.85c0-2.142,1.565-3.958,3.742-3.958c1.025,0,1.799,0.396,2.374,0.917v-0.773h2.681v1.331h-1.205
				V212.137z M185.219,208.017c0,1.547,0.989,2.537,2.356,2.537c0.846,0,1.548-0.396,2.105-0.972v-3.4
				c-0.522-0.432-1.188-0.756-2.069-0.756C186.209,205.426,185.219,206.47,185.219,208.017z"/>
			<path fill="#1E5035" d="M193.87,209.906c0-1.421,1.26-2.338,3.041-2.338c0.81,0,1.709,0.18,2.122,0.306v-0.882
				c0-0.449-0.126-0.81-0.342-1.079c-0.323-0.396-0.863-0.594-1.619-0.594c-0.485,0-0.773,0.107-1.007,0.233
				c0.054,0.126,0.09,0.288,0.09,0.433c0,0.503-0.378,0.881-0.899,0.881c-0.54,0-0.918-0.378-0.918-0.917
				c0-0.918,1.008-1.871,2.986-1.871c1.206,0,2.087,0.359,2.608,0.972c0.396,0.468,0.594,1.079,0.594,1.78v3.851h1.206v1.295h-2.663
				v-0.936c-0.63,0.594-1.619,1.079-2.662,1.079C194.985,212.119,193.87,211.309,193.87,209.906z M199.033,210.032v-1.259
				c-0.521-0.144-1.187-0.27-1.889-0.27c-1.098,0-1.709,0.521-1.709,1.277c0,0.701,0.521,1.169,1.421,1.169
				C197.684,210.95,198.439,210.554,199.033,210.032z M196.695,202.512l2.086-2.446c0.252-0.288,0.559-0.468,0.864-0.468
				c0.432,0,0.791,0.342,0.791,0.827c0,0.288-0.197,0.63-0.575,0.882l-2.717,1.709L196.695,202.512z"/>
			<path fill="#1E5035" d="M205.813,205.571c0.738-0.792,1.71-1.493,2.825-1.493c0.971,0,1.637,0.378,2.032,0.989
				c0.252,0.432,0.396,0.972,0.396,1.619v3.994h1.205v1.295h-3.904v-1.295h1.151v-3.652c0-0.378-0.054-0.684-0.18-0.918
				c-0.216-0.413-0.594-0.611-1.151-0.611c-0.846,0-1.655,0.504-2.32,1.17v4.012h1.151v1.295h-3.886v-1.295h1.205v-5.128h-1.205
				v-1.331h2.68V205.571z"/>
			<path fill="#1E5035" d="M213.691,210.68h1.26v-5.128h-1.26v-1.331h2.807v6.459h1.241v1.295h-4.048V210.68z M214.428,201.451
				c0-0.611,0.522-1.115,1.134-1.115c0.594,0,1.115,0.504,1.115,1.115c0,0.63-0.54,1.134-1.134,1.134
				C214.932,202.585,214.428,202.081,214.428,201.451z"/>
			<path fill="#1E5035" d="M219.392,208.071c0-2.086,1.674-3.993,3.887-3.993c1.925,0,3.328,1.259,3.328,2.446
				c0,0.684-0.468,1.151-1.098,1.151c-0.504,0-0.972-0.396-0.972-0.972c0-0.252,0.126-0.503,0.324-0.647
				c-0.181-0.359-0.828-0.701-1.583-0.701c-1.044,0-2.321,0.881-2.321,2.752c0,1.602,1.17,2.681,2.771,2.681
				c0.899,0,1.709-0.27,2.663-0.827l-0.145,1.421c-0.791,0.504-1.709,0.737-2.662,0.737
				C221.174,212.119,219.392,210.465,219.392,208.071z"/>
			<path fill="#1E5035" d="M228.332,208.107c0-2.177,1.583-4.029,4.048-4.029s4.048,1.835,4.048,4.029
				c0,2.159-1.602,4.012-4.048,4.012C229.897,212.119,228.332,210.284,228.332,208.107z M234.826,208.107
				c0-1.583-1.007-2.716-2.446-2.716c-1.457,0-2.465,1.133-2.465,2.716s1.008,2.699,2.465,2.699
				C233.819,210.806,234.826,209.69,234.826,208.107z"/>
			<path fill="#1E5035" d="M69.468,221.721v-1.331h2.753v6.711c0.737-0.792,1.655-1.439,2.752-1.439
				c0.882,0,1.548,0.306,1.943,0.827c0.342,0.45,0.521,1.062,0.521,1.781v3.994h1.205v1.295h-3.903v-1.295h1.151v-3.652
				c0-0.504-0.108-0.846-0.306-1.098c-0.234-0.287-0.594-0.432-1.062-0.432c-0.846,0-1.655,0.504-2.303,1.17v4.012h1.151v1.295
				h-3.904v-1.295h1.205v-10.543H69.468z"/>
			<path fill="#1E5035" d="M79.954,229.691c0-2.177,1.583-4.029,4.048-4.029s4.048,1.835,4.048,4.029
				c0,2.159-1.602,4.012-4.048,4.012C81.52,233.703,79.954,231.868,79.954,229.691z M86.448,229.691
				c0-1.583-1.007-2.716-2.446-2.716c-1.457,0-2.465,1.133-2.465,2.716s1.008,2.699,2.465,2.699
				C85.442,232.39,86.448,231.274,86.448,229.691z"/>
			<path fill="#1E5035" d="M89.775,232.264h1.205v-5.128h-1.205v-1.331h2.68v1.35c0.648-0.756,1.602-1.493,2.735-1.493
				c0.899,0,1.511,0.342,1.889,0.881c0.107,0.162,0.18,0.342,0.233,0.54c0.792-0.791,1.745-1.421,2.734-1.421
				c1.116,0,1.8,0.413,2.159,1.115c0.198,0.414,0.306,0.917,0.306,1.476v4.012h1.206v1.295h-3.904v-1.295h1.151v-3.67
				c0-0.36-0.054-0.648-0.144-0.882c-0.181-0.432-0.54-0.63-1.098-0.63c-0.792,0-1.529,0.468-2.213,1.134v4.048h1.134v1.295h-3.832
				v-1.295h1.151v-3.67c0-0.36-0.036-0.648-0.126-0.882c-0.198-0.432-0.54-0.63-1.098-0.63c-0.827,0-1.565,0.504-2.23,1.151v4.03
				h1.133v1.295h-3.867V232.264z"/>
			<path fill="#1E5035" d="M107.114,232.786l-0.396,0.791h-1.008v-11.855h-1.224v-1.331h2.771v6.369
				c0.612-0.612,1.35-1.098,2.482-1.098c2.033,0,3.67,1.637,3.67,4.012c0,2.23-1.618,4.029-3.831,4.029
				C108.589,233.703,107.779,233.343,107.114,232.786z M111.81,229.674c0-1.638-1.025-2.663-2.375-2.663
				c-0.881,0-1.601,0.414-2.177,0.99v3.615c0.558,0.414,1.26,0.738,2.141,0.738C110.712,232.354,111.81,231.346,111.81,229.674z"/>
			<path fill="#1E5035" d="M121.522,226.795c0,0.558-0.45,1.044-0.989,1.044c-0.521,0-0.882-0.324-1.025-0.666
				c-0.576,0.18-1.241,0.828-1.619,1.565v3.526h1.421v1.295h-4.155v-1.295h1.205v-5.128h-1.205v-1.331h2.68v1.764
				c0.612-1.062,1.512-1.907,2.411-1.907C121.09,225.662,121.522,226.183,121.522,226.795z"/>
			<path fill="#1E5035" d="M124.165,230.177c0.216,1.475,1.295,2.194,2.807,2.194c0.989,0,1.835-0.306,2.752-0.827l-0.126,1.421
				c-0.81,0.504-1.799,0.737-2.86,0.737c-2.5,0-4.191-1.619-4.191-3.993c0-2.177,1.493-4.048,3.85-4.048
				c2.393,0,3.652,1.709,3.652,3.688c0,0.288-0.036,0.594-0.072,0.828H124.165z M124.165,229.026h4.336
				c-0.072-1.241-0.828-2.087-2.142-2.087C125.317,226.939,124.363,227.623,124.165,229.026z"/>
			<path fill="#1E5035" d="M137.403,237.139c-0.863,0-1.476-0.485-1.476-1.098c0-0.558,0.378-0.881,0.846-0.881
				c0.45,0,0.738,0.323,0.846,0.647c0.252-0.09,0.504-0.288,0.792-0.702c0.144-0.233,0.306-0.521,0.485-0.881l0.521-1.08
				l-2.86-6.009h-1.007v-1.331h3.777v1.277h-1.188c0,0,2.033,4.605,2.016,4.605l2.051-4.605h-1.241v-1.277h3.741v1.331H143.7
				l-3.652,7.79c-0.198,0.396-0.396,0.737-0.611,1.044C138.86,236.725,138.195,237.139,137.403,237.139z"/>
			<path fill="#1E5035" d="M150.227,232.264h1.205v-5.128h-1.205v-1.331h2.68v1.35c0.648-0.756,1.602-1.493,2.735-1.493
				c0.899,0,1.511,0.342,1.889,0.881c0.107,0.162,0.18,0.342,0.233,0.54c0.792-0.791,1.745-1.421,2.735-1.421
				c1.115,0,1.799,0.413,2.158,1.115c0.198,0.414,0.306,0.917,0.306,1.476v4.012h1.206v1.295h-3.904v-1.295h1.151v-3.67
				c0-0.36-0.054-0.648-0.144-0.882c-0.181-0.432-0.54-0.63-1.098-0.63c-0.792,0-1.529,0.468-2.213,1.134v4.048h1.134v1.295h-3.832
				v-1.295h1.151v-3.67c0-0.36-0.036-0.648-0.126-0.882c-0.198-0.432-0.54-0.63-1.098-0.63c-0.827,0-1.565,0.504-2.23,1.151v4.03
				h1.133v1.295h-3.867V232.264z"/>
			<path fill="#1E5035" d="M166.864,232.677c-0.233-0.432-0.359-0.953-0.359-1.583v-3.958h-1.206v-1.331h2.734v4.947
				c0,0.396,0.072,0.702,0.198,0.936c0.216,0.414,0.576,0.594,1.134,0.594c0.845,0,1.637-0.521,2.32-1.169v-3.977h-1.241v-1.331
				h2.788v6.459h1.206v1.295h-2.699v-1.35c-0.737,0.792-1.709,1.493-2.824,1.493C167.925,233.703,167.259,233.307,166.864,232.677z"
				/>
			<path fill="#1E5035" d="M175.317,234.926c0.54,0,0.9,0.414,0.9,0.953v0.055c0.503-0.019,0.845-0.396,1.043-0.972
				c0.126-0.414,0.18-0.899,0.18-1.439v-6.387h-1.475v-1.331h3.021v7.592c0,0.899-0.144,1.602-0.396,2.159
				c-0.468,1.098-1.385,1.601-2.446,1.601c-1.17,0-1.764-0.629-1.764-1.277C174.382,235.377,174.778,234.926,175.317,234.926z
				 M176.829,223.035c0-0.611,0.521-1.115,1.133-1.115c0.594,0,1.116,0.504,1.116,1.115c0,0.63-0.54,1.134-1.134,1.134
				C177.333,224.169,176.829,223.665,176.829,223.035z"/>
			<path fill="#1E5035" d="M182.89,230.177c0.216,1.475,1.295,2.194,2.807,2.194c0.989,0,1.835-0.306,2.752-0.827l-0.126,1.421
				c-0.81,0.504-1.799,0.737-2.86,0.737c-2.5,0-4.191-1.619-4.191-3.993c0-2.177,1.493-4.048,3.85-4.048
				c2.393,0,3.652,1.709,3.652,3.688c0,0.288-0.036,0.594-0.072,0.828H182.89z M182.89,229.026h4.336
				c-0.072-1.241-0.828-2.087-2.142-2.087C184.042,226.939,183.089,227.623,182.89,229.026z"/>
			<path fill="#1E5035" d="M196.812,226.795c0,0.558-0.45,1.044-0.989,1.044c-0.521,0-0.882-0.324-1.025-0.666
				c-0.576,0.18-1.241,0.828-1.619,1.565v3.526h1.421v1.295h-4.155v-1.295h1.205v-5.128h-1.205v-1.331h2.68v1.764
				c0.612-1.062,1.512-1.907,2.411-1.907C196.381,225.662,196.812,226.183,196.812,226.795z"/>
		</g>
	</g>
	<g>
	</g>
	<g>
		<g>
			<g>
				<path fill="#1E5035" d="M55.154,97.323l-2.886-7.696c7.803-3.421,14.002-5.345,22.98-5.345c15.713,0,22.981,9.94,22.981,21.698
					c0,14.965-11.01,28.325-32.388,43.29v0.214h33.456v8.551h-47.03v-9.299c30.57-20.202,35.808-32.708,35.808-40.618
					c0-13.36-10.154-14.964-14.965-14.964C67.874,93.154,62.743,93.903,55.154,97.323z"/>
				<path fill="#1E5035" d="M106.885,121.159c0-20.309,5.023-36.877,25.653-36.877c20.523,0,25.653,16.568,25.653,36.877
					c0,20.628-5.13,37.945-25.653,37.945C111.908,159.104,106.885,141.788,106.885,121.159z M117.039,121.159
					c0,15.498,2.886,29.928,15.499,29.928c12.506,0,15.499-14.43,15.499-29.928c0-15.499-2.992-28.86-15.499-28.86
					C119.925,92.299,117.039,105.66,117.039,121.159z"/>
			</g>
		</g>
	</g>
</g>
<g>
</g>
<g>
</g>
<g>
</g>
<g>
</g>
<g>
</g>
<g>
</g>
<g>
</g>
<g>
</g>
<g>
</g>
<g>
</g>
<g>
</g>
<g>
</g>
<g>
</g>
<g>
</g>
<g>
</g>
</svg>
