<?xml version="1.0" encoding="utf-8"?>
<!-- Generator: Adobe Illustrator 17.0.0, SVG Export Plug-In . SVG Version: 6.00 Build 0)  -->
<!DOCTYPE svg PUBLIC "-//W3C//DTD SVG 1.1//EN" "http://www.w3.org/Graphics/SVG/1.1/DTD/svg11.dtd">
<svg version="1.1" id="Layer_1" xmlns="http://www.w3.org/2000/svg" xmlns:xlink="http://www.w3.org/1999/xlink" x="0px" y="0px"
	 width="266.333px" height="265px" viewBox="0 0 266.333 265" enable-background="new 0 0 266.333 265" xml:space="preserve">
<g>
	<g>
		<path fill="#1E5035" d="M167.401,96.823c0-5.59,3.056-9.101,8.841-9.101c5.72,0,8.841,3.51,8.841,9.101s-3.121,9.035-8.841,9.035
			C170.457,105.858,167.401,102.413,167.401,96.823z M181.311,96.823c0-3.9-1.689-6.045-5.069-6.045s-5.136,2.145-5.136,6.045
			c0,3.9,1.756,5.98,5.136,5.98S181.311,100.723,181.311,96.823z M179.102,132.249h-3.9l24.051-44.202h3.9L179.102,132.249z
			 M193.272,123.539c0-5.59,3.055-9.1,8.84-9.1c5.721,0,8.841,3.51,8.841,9.1s-3.12,9.036-8.841,9.036
			C196.327,132.574,193.272,129.129,193.272,123.539z M207.182,123.539c0-3.9-1.689-6.045-5.07-6.045
			c-3.379,0-5.135,2.145-5.135,6.045c0,3.9,1.756,5.98,5.135,5.98C205.493,129.519,207.182,127.439,207.182,123.539z"/>
		<path fill="#1E5035" d="M165.67,150.806c0-4.126,1.237-7.491,6.297-7.491c5.037,0,6.297,3.365,6.297,7.491
			c0,4.19-1.26,7.708-6.297,7.708C166.908,158.514,165.67,154.996,165.67,150.806z M167.842,150.806
			c0,3.148,0.586,5.971,4.125,5.971c3.518,0,4.125-2.822,4.125-5.971s-0.607-5.754-4.125-5.754
			C168.428,145.052,167.842,147.657,167.842,150.806z"/>
		<path fill="#1E5035" d="M190.266,145.377h-7.165v4.777h6.188V152h-6.188v6.297h-2.063v-14.766h9.229V145.377z"/>
		<path fill="#1E5035" d="M202.313,145.377h-7.165v4.777h6.188V152h-6.188v6.297h-2.063v-14.766h9.229V145.377z"/>
	</g>
	<rect x="6.4" y="2.666" fill="#16A314" width="253.534" height="30.082"/>
	<g>
		<path fill="#FFFFFF" d="M78.258,14.304h-6.604v3.492h5.651v2.582h-5.651v5.714h-2.92V11.701h9.524V14.304z"/>
		<path fill="#FFFFFF" d="M85.514,11.701v11.81h6.709v2.582h-9.629V11.701H85.514z"/>
		<path fill="#FFFFFF" d="M95.057,18.791c0-4.063,1.354-7.301,6.413-7.301c5.058,0,6.391,3.238,6.391,7.301
			c0,4.106-1.333,7.513-6.391,7.513C96.411,26.304,95.057,22.896,95.057,18.791z M98.125,18.791c0,2.857,0.508,5.08,3.344,5.08
			s3.323-2.222,3.323-5.08c0-2.857-0.487-4.868-3.323-4.868S98.125,15.934,98.125,18.791z"/>
		<path fill="#FFFFFF" d="M120.176,26.092l-3.026-5.122h-2.074v5.122h-2.92V11.701h6.138c3.026,0,4.762,1.82,4.762,4.635
			c0,1.947-0.91,3.577-2.857,4.148l3.365,5.608H120.176z M115.075,18.368h2.857c1.206,0,2.137-0.529,2.137-2.032
			c0-1.46-0.868-2.032-2.095-2.032h-2.899V18.368z"/>
		<path fill="#FFFFFF" d="M127.136,25.521l0.508-2.434c2.243,0.529,3.831,0.635,4.953,0.635c1.482,0,2.371-0.678,2.371-1.63
			c0-1.333-1.652-1.608-3.324-2.074c-2.497-0.698-4.296-2.074-4.296-4.508c0-2.899,2.392-4.021,5.249-4.021
			c1.629,0,3.111,0.211,5.08,0.804l-0.656,2.434c-2.265-0.529-3.323-0.635-4.423-0.635c-1.482,0-2.18,0.635-2.18,1.503
			c0,1.185,1.544,1.566,3.28,1.989c2.498,0.571,4.339,1.756,4.339,4.275c0,3.069-2.37,4.444-5.439,4.444
			C130.945,26.304,129.104,26.092,127.136,25.521z"/>
		<path fill="#FFFFFF" d="M142.203,26.092V11.701h2.921v5.672h5.502v-5.672h2.899v14.392h-2.899v-6.138h-5.502v6.138H142.203z"/>
		<path fill="#FFFFFF" d="M168.02,14.304h-6.814v3.068h5.862v2.582h-5.862v3.556h6.92v2.582h-9.841V11.701h9.735V14.304z"/>
		<path fill="#FFFFFF" d="M172.673,26.092V11.701h2.921v14.392H172.673z"/>
		<path fill="#FFFFFF" d="M187.762,21.246h0.042l3.387-9.545h3.852v14.392h-2.899V16.95h-0.042l-3.429,9.143h-2.117l-3.344-9.143
			h-0.042v9.143h-2.836V11.701h3.873L187.762,21.246z"/>
	</g>
	<g>
		<g>
			<g>
				<g>
					<path fill="#1E5035" d="M84.197,120.849c10.154,2.031,15.926,9.086,15.926,17.958c0,12.934-8.872,20.31-25.439,20.31
						c-8.551,0-16.354-1.283-23.729-5.024l2.993-7.481c6.307,3.206,13.041,4.489,20.202,4.489c14.002,0,16.033-8.23,16.033-12.827
						c0-7.589-5.451-12.506-17.315-12.506h-9.085v-8.017h8.658c11.437,0,15.926-6.841,15.926-13.36
						c0-4.811-2.565-12.079-14.216-12.079c-6.734,0-12.292,1.497-18.491,4.489l-2.993-7.375c7.482-3.634,15.499-5.131,23.088-5.131
						c13.361,0,22.233,6.841,22.233,19.026c0,8.872-5.879,14.644-13.789,17.315V120.849z"/>
					<path fill="#1E5035" d="M107.602,121.17c0-20.309,5.023-36.877,25.653-36.877c20.522,0,25.652,16.568,25.652,36.877
						c0,20.629-5.13,37.946-25.652,37.946C112.625,159.116,107.602,141.8,107.602,121.17z M117.756,121.17
						c0,15.499,2.886,29.929,15.499,29.929c12.506,0,15.498-14.431,15.498-29.929c0-15.499-2.992-28.86-15.498-28.86
						C120.642,92.31,117.756,105.671,117.756,121.17z"/>
				</g>
			</g>
		</g>
	</g>
	<g>
		<g>
			<path fill="#1E5035" d="M35.043,201.348h1.439v-8.924h-1.439v-1.457h8.689v3.095h-1.547v-1.655H38.12v3.67h3.742v1.403H38.12
				v3.886h4.065v-1.655h1.565v3.095h-8.708V201.348z"/>
			<path fill="#1E5035" d="M48.461,196.4c0.738-0.792,1.709-1.493,2.824-1.493c0.972,0,1.637,0.377,2.033,0.989
				c0.252,0.432,0.396,0.972,0.396,1.619v3.993h1.206v1.296h-3.904v-1.296h1.151v-3.651c0-0.378-0.054-0.684-0.18-0.918
				c-0.216-0.413-0.594-0.611-1.151-0.611c-0.845,0-1.655,0.504-2.321,1.169v4.012h1.151v1.296h-3.886v-1.296h1.206v-5.127h-1.206
				v-1.331h2.681V196.4z"/>
			<path fill="#1E5035" d="M60.781,200.735c0-1.421,1.259-2.339,3.04-2.339c0.81,0,1.709,0.181,2.123,0.307v-0.882
				c0-0.45-0.126-0.81-0.342-1.079c-0.324-0.396-0.864-0.594-1.619-0.594c-0.486,0-0.774,0.107-1.007,0.233
				c0.054,0.126,0.09,0.288,0.09,0.432c0,0.504-0.378,0.882-0.899,0.882c-0.54,0-0.917-0.378-0.917-0.918
				c0-0.917,1.007-1.87,2.986-1.87c1.205,0,2.086,0.359,2.608,0.971c0.396,0.468,0.594,1.08,0.594,1.781v3.85h1.205v1.296H65.98
				v-0.936c-0.629,0.594-1.619,1.079-2.662,1.079C61.896,202.948,60.781,202.139,60.781,200.735z M65.944,200.861v-1.259
				c-0.522-0.145-1.188-0.271-1.889-0.271c-1.097,0-1.709,0.522-1.709,1.277c0,0.702,0.521,1.17,1.421,1.17
				C64.595,201.779,65.351,201.383,65.944,200.861z"/>
			<path fill="#1E5035" d="M70.08,196.382h-0.972v-1.331h3.76v1.277h-1.187l2.104,4.659l2.105-4.659h-1.241v-1.277h3.76v1.331
				h-0.971l-3.185,6.639h-0.989L70.08,196.382z"/>
			<path fill="#1E5035" d="M79.325,200.735c0-1.421,1.259-2.339,3.04-2.339c0.81,0,1.709,0.181,2.123,0.307v-0.882
				c0-0.45-0.126-0.81-0.342-1.079c-0.324-0.396-0.864-0.594-1.619-0.594c-0.486,0-0.774,0.107-1.007,0.233
				c0.054,0.126,0.09,0.288,0.09,0.432c0,0.504-0.378,0.882-0.899,0.882c-0.54,0-0.917-0.378-0.917-0.918
				c0-0.917,1.007-1.87,2.986-1.87c1.205,0,2.086,0.359,2.608,0.971c0.396,0.468,0.594,1.08,0.594,1.781v3.85h1.205v1.296h-2.663
				v-0.936c-0.629,0.594-1.619,1.079-2.662,1.079C80.44,202.948,79.325,202.139,79.325,200.735z M84.488,200.861v-1.259
				c-0.522-0.145-1.188-0.271-1.889-0.271c-1.097,0-1.709,0.522-1.709,1.277c0,0.702,0.521,1.17,1.421,1.17
				C83.139,201.779,83.895,201.383,84.488,200.861z"/>
			<path fill="#1E5035" d="M91.269,196.4c0.738-0.792,1.709-1.493,2.824-1.493c0.972,0,1.637,0.377,2.033,0.989
				c0.252,0.432,0.396,0.972,0.396,1.619v3.993h1.206v1.296h-3.904v-1.296h1.151v-3.651c0-0.378-0.054-0.684-0.18-0.918
				c-0.216-0.413-0.594-0.611-1.151-0.611c-0.845,0-1.655,0.504-2.321,1.169v4.012h1.151v1.296h-3.886v-1.296h1.206v-5.127h-1.206
				v-1.331h2.681V196.4z"/>
			<path fill="#1E5035" d="M99.02,198.9c0-2.087,1.673-3.993,3.886-3.993c1.925,0,3.328,1.259,3.328,2.446
				c0,0.684-0.468,1.151-1.097,1.151c-0.504,0-0.972-0.396-0.972-0.972c0-0.252,0.126-0.504,0.324-0.647
				c-0.18-0.359-0.827-0.701-1.583-0.701c-1.043,0-2.321,0.881-2.321,2.752c0,1.602,1.169,2.681,2.771,2.681
				c0.899,0,1.709-0.27,2.663-0.827l-0.144,1.421c-0.792,0.504-1.709,0.737-2.663,0.737C100.801,202.948,99.02,201.293,99.02,198.9z
				"/>
			<path fill="#1E5035" d="M109.542,199.422c0.216,1.476,1.295,2.195,2.807,2.195c0.989,0,1.835-0.306,2.752-0.827l-0.126,1.421
				c-0.81,0.504-1.799,0.737-2.86,0.737c-2.501,0-4.192-1.619-4.192-3.994c0-2.177,1.493-4.047,3.85-4.047
				c2.393,0,3.652,1.709,3.652,3.688c0,0.288-0.036,0.594-0.072,0.827H109.542z M109.542,198.271h4.335
				c-0.072-1.241-0.827-2.086-2.141-2.086C110.693,196.185,109.74,196.868,109.542,198.271z"/>
			<path fill="#1E5035" d="M121.539,198.973c0-2.213,1.565-4.065,3.778-4.065c0.971,0,1.781,0.359,2.303,0.845v-4.785h-1.332v-1.331
				h2.879v11.873h1.205v1.296h-2.734v-0.989c-0.612,0.647-1.385,1.133-2.465,1.133C123.122,202.948,121.539,201.329,121.539,198.973
				z M127.619,200.609v-3.598c-0.558-0.432-1.223-0.756-2.123-0.756c-1.331,0-2.356,1.062-2.375,2.698
				c0,1.619,1.025,2.645,2.339,2.645C126.342,201.599,127.043,201.186,127.619,200.609z"/>
			<path fill="#1E5035" d="M133.464,199.422c0.216,1.476,1.295,2.195,2.807,2.195c0.989,0,1.835-0.306,2.752-0.827l-0.126,1.421
				c-0.81,0.504-1.799,0.737-2.86,0.737c-2.501,0-4.192-1.619-4.192-3.994c0-2.177,1.493-4.047,3.85-4.047
				c2.393,0,3.652,1.709,3.652,3.688c0,0.288-0.036,0.594-0.072,0.827H133.464z M133.464,198.271h4.335
				c-0.071-1.241-0.827-2.086-2.141-2.086C134.616,196.185,133.662,196.868,133.464,198.271z"/>
			<path fill="#1E5035" d="M146.666,201.977c-0.144-0.306-0.234-0.701-0.234-1.133v-4.462h-1.457v-1.331h1.457v-1.781l1.548-0.63
				v2.411h2.356v1.331h-2.356v4.191c0,0.252,0.036,0.433,0.107,0.594c0.145,0.252,0.432,0.378,0.882,0.378
				c0.468,0,1.025-0.216,1.475-0.432l-0.161,1.386c-0.45,0.233-1.025,0.449-1.745,0.449
				C147.673,202.948,147.007,202.643,146.666,201.977z"/>
			<path fill="#1E5035" d="M153.554,199.422c0.216,1.476,1.296,2.195,2.807,2.195c0.989,0,1.835-0.306,2.753-0.827l-0.126,1.421
				c-0.81,0.504-1.8,0.737-2.86,0.737c-2.501,0-4.192-1.619-4.192-3.994c0-2.177,1.493-4.047,3.851-4.047
				c2.393,0,3.651,1.709,3.651,3.688c0,0.288-0.036,0.594-0.071,0.827H153.554z M153.554,198.271h4.336
				c-0.072-1.241-0.827-2.086-2.141-2.086C154.706,196.185,153.752,196.868,153.554,198.271z"/>
			<path fill="#1E5035" d="M161.108,201.509h1.206v-5.127h-1.206v-1.331h2.681v1.35c0.647-0.756,1.602-1.493,2.734-1.493
				c0.899,0,1.512,0.342,1.89,0.881c0.107,0.162,0.18,0.342,0.233,0.54c0.792-0.792,1.745-1.421,2.734-1.421
				c1.115,0,1.799,0.413,2.159,1.115c0.198,0.413,0.306,0.917,0.306,1.475v4.012h1.205v1.296h-3.903v-1.296h1.151v-3.67
				c0-0.359-0.055-0.647-0.145-0.881c-0.18-0.432-0.539-0.63-1.097-0.63c-0.792,0-1.529,0.468-2.213,1.133v4.048h1.133v1.296h-3.832
				v-1.296h1.151v-3.67c0-0.359-0.035-0.647-0.125-0.881c-0.198-0.432-0.54-0.63-1.098-0.63c-0.828,0-1.565,0.504-2.231,1.151v4.029
				h1.134v1.296h-3.868V201.509z"/>
			<path fill="#1E5035" d="M176.163,205.035h1.205v-8.653h-1.205v-1.331h2.681v1.008c0.647-0.666,1.367-1.151,2.482-1.151
				c2.033,0,3.616,1.619,3.616,3.976c0,2.23-1.565,4.065-3.76,4.065c-0.882,0-1.655-0.323-2.267-0.827v2.914h1.385v1.295h-4.138
				V205.035z M183.34,198.9c0-1.619-0.989-2.645-2.303-2.645c-0.881,0-1.547,0.414-2.122,0.989v3.616
				c0.539,0.432,1.223,0.737,2.086,0.737C182.315,201.599,183.34,200.538,183.34,198.9z"/>
			<path fill="#1E5035" d="M186.739,198.937c0-2.177,1.583-4.029,4.048-4.029c2.464,0,4.047,1.835,4.047,4.029
				c0,2.159-1.601,4.012-4.047,4.012C188.303,202.948,186.739,201.113,186.739,198.937z M193.233,198.937
				c0-1.583-1.008-2.717-2.446-2.717c-1.458,0-2.465,1.134-2.465,2.717s1.007,2.698,2.465,2.698
				C192.225,201.635,193.233,200.52,193.233,198.937z"/>
			<path fill="#1E5035" d="M202.927,196.04c0,0.558-0.449,1.044-0.989,1.044c-0.521,0-0.882-0.324-1.025-0.666
				c-0.576,0.18-1.241,0.827-1.619,1.565v3.525h1.421v1.296h-4.155v-1.296h1.205v-5.127h-1.205v-1.331h2.681v1.763
				c0.611-1.062,1.511-1.906,2.41-1.906C202.496,194.907,202.927,195.429,202.927,196.04z"/>
			<path fill="#1E5035" d="M204.078,200.735c0-1.421,1.259-2.339,3.04-2.339c0.81,0,1.709,0.181,2.123,0.307v-0.882
				c0-0.45-0.126-0.81-0.342-1.079c-0.324-0.396-0.864-0.594-1.619-0.594c-0.486,0-0.774,0.107-1.008,0.233
				c0.054,0.126,0.09,0.288,0.09,0.432c0,0.504-0.378,0.882-0.899,0.882c-0.54,0-0.917-0.378-0.917-0.918
				c0-0.917,1.007-1.87,2.986-1.87c1.205,0,2.086,0.359,2.608,0.971c0.396,0.468,0.594,1.08,0.594,1.781v3.85h1.205v1.296h-2.663
				v-0.936c-0.629,0.594-1.619,1.079-2.662,1.079C205.193,202.948,204.078,202.139,204.078,200.735z M209.241,200.861v-1.259
				c-0.522-0.145-1.188-0.271-1.89-0.271c-1.097,0-1.709,0.522-1.709,1.277c0,0.702,0.521,1.17,1.422,1.17
				C207.891,201.779,208.647,201.383,209.241,200.861z"/>
			<path fill="#1E5035" d="M213.25,198.973c0-2.213,1.564-4.065,3.777-4.065c0.972,0,1.781,0.359,2.303,0.845v-4.785H218v-1.331
				h2.878v11.873h1.206v1.296h-2.734v-0.989c-0.612,0.647-1.386,1.133-2.465,1.133C214.833,202.948,213.25,201.329,213.25,198.973z
				 M219.331,200.609v-3.598c-0.558-0.432-1.223-0.756-2.123-0.756c-1.331,0-2.356,1.062-2.374,2.698
				c0,1.619,1.025,2.645,2.339,2.645C218.053,201.599,218.755,201.186,219.331,200.609z"/>
			<path fill="#1E5035" d="M223.466,200.735c0-1.421,1.26-2.339,3.04-2.339c0.81,0,1.709,0.181,2.123,0.307v-0.882
				c0-0.45-0.126-0.81-0.342-1.079c-0.323-0.396-0.863-0.594-1.619-0.594c-0.485,0-0.773,0.107-1.007,0.233
				c0.054,0.126,0.09,0.288,0.09,0.432c0,0.504-0.378,0.882-0.899,0.882c-0.54,0-0.918-0.378-0.918-0.918
				c0-0.917,1.008-1.87,2.986-1.87c1.205,0,2.087,0.359,2.608,0.971c0.396,0.468,0.594,1.08,0.594,1.781v3.85h1.205v1.296h-2.662
				v-0.936c-0.63,0.594-1.619,1.079-2.662,1.079C224.582,202.948,223.466,202.139,223.466,200.735z M228.629,200.861v-1.259
				c-0.521-0.145-1.188-0.271-1.889-0.271c-1.098,0-1.709,0.522-1.709,1.277c0,0.702,0.521,1.17,1.421,1.17
				C227.28,201.779,228.036,201.383,228.629,200.861z"/>
			<path fill="#1E5035" d="M50.701,218.469c0-3.472,2.519-6.134,6.062-6.134c3.49,0,5.973,2.68,5.973,6.134
				c0,3.473-2.519,6.135-6.062,6.135C53.183,224.604,50.701,221.923,50.701,218.469z M61.063,218.469
				c0-2.645-1.817-4.623-4.335-4.623c-2.537,0-4.354,1.961-4.354,4.623c0,2.645,1.817,4.624,4.354,4.624
				C59.246,223.093,61.063,221.132,61.063,218.469z"/>
			<path fill="#1E5035" d="M65.953,223.561c-0.144-0.306-0.234-0.702-0.234-1.134v-4.461h-1.457v-1.332h1.457v-1.78l1.547-0.63v2.41
				h2.356v1.332h-2.356v4.191c0,0.252,0.036,0.432,0.108,0.594c0.144,0.252,0.432,0.378,0.881,0.378
				c0.468,0,1.025-0.216,1.475-0.432l-0.162,1.385c-0.45,0.234-1.025,0.45-1.745,0.45C66.961,224.532,66.295,224.226,65.953,223.561
				z"/>
			<path fill="#1E5035" d="M71.259,220.521c0-2.177,1.583-4.03,4.048-4.03c2.464,0,4.047,1.835,4.047,4.03
				c0,2.158-1.601,4.012-4.047,4.012C72.824,224.532,71.259,222.697,71.259,220.521z M77.753,220.521
				c0-1.584-1.007-2.717-2.446-2.717c-1.458,0-2.465,1.133-2.465,2.717c0,1.583,1.007,2.698,2.465,2.698
				C76.746,223.219,77.753,222.104,77.753,220.521z"/>
			<path fill="#1E5035" d="M83.76,217.983c0.738-0.791,1.709-1.493,2.824-1.493c0.972,0,1.637,0.378,2.033,0.989
				c0.252,0.432,0.396,0.972,0.396,1.619v3.994h1.206v1.295h-3.904v-1.295h1.151v-3.652c0-0.378-0.054-0.684-0.18-0.917
				c-0.216-0.414-0.594-0.612-1.151-0.612c-0.845,0-1.655,0.504-2.321,1.17v4.012h1.151v1.295h-3.886v-1.295h1.206v-5.127h-1.206
				v-1.332h2.681V217.983z M85.415,214.583c-0.432-0.378-0.72-0.539-0.99-0.539c-0.414,0-0.702,0.342-0.863,1.097l-1.134-0.27
				c0.144-1.439,1.008-2.356,1.907-2.356c0.702,0,1.188,0.306,1.583,0.665c0.45,0.378,0.738,0.54,0.99,0.54
				c0.432,0,0.719-0.342,0.881-1.098l1.115,0.271c-0.126,1.438-0.989,2.356-1.889,2.356
				C86.314,215.249,85.829,214.943,85.415,214.583z"/>
			<path fill="#1E5035" d="M91.529,220.521c0-2.177,1.583-4.03,4.048-4.03c2.464,0,4.047,1.835,4.047,4.03
				c0,2.158-1.601,4.012-4.047,4.012C93.094,224.532,91.529,222.697,91.529,220.521z M98.023,220.521
				c0-1.584-1.007-2.717-2.446-2.717c-1.458,0-2.465,1.133-2.465,2.717c0,1.583,1.007,2.698,2.465,2.698
				C97.016,223.219,98.023,222.104,98.023,220.521z"/>
			<path fill="#1E5035" d="M105.846,222.931h1.547v-8.923h-1.547v-1.457h4.696v1.457h-1.529v8.923h1.529v1.457h-4.696V222.931z"/>
			<path fill="#1E5035" d="M115.038,217.983c0.738-0.791,1.709-1.493,2.824-1.493c0.972,0,1.637,0.378,2.033,0.989
				c0.252,0.432,0.396,0.972,0.396,1.619v3.994h1.206v1.295h-3.904v-1.295h1.151v-3.652c0-0.378-0.054-0.684-0.18-0.917
				c-0.216-0.414-0.594-0.612-1.151-0.612c-0.845,0-1.655,0.504-2.321,1.17v4.012h1.151v1.295h-3.886v-1.295h1.206v-5.127h-1.206
				v-1.332h2.681V217.983z"/>
			<path fill="#1E5035" d="M122.933,217.966h-0.972v-1.332h3.76v1.277h-1.187l2.104,4.66l2.105-4.66h-1.241v-1.277h3.76v1.332
				h-0.971l-3.185,6.638h-0.989L122.933,217.966z"/>
			<path fill="#1E5035" d="M132.411,223.093h1.259v-5.127h-1.259v-1.332h2.807v6.459h1.241v1.295h-4.048V223.093z M133.149,213.863
				c0-0.611,0.521-1.115,1.134-1.115c0.594,0,1.115,0.504,1.115,1.115c0,0.63-0.54,1.134-1.134,1.134
				C133.652,214.997,133.149,214.493,133.149,213.863z"/>
			<path fill="#1E5035" d="M139.714,221.006c0.216,1.476,1.295,2.194,2.807,2.194c0.989,0,1.835-0.306,2.752-0.827l-0.126,1.421
				c-0.81,0.504-1.799,0.738-2.86,0.738c-2.501,0-4.191-1.619-4.191-3.994c0-2.177,1.493-4.048,3.85-4.048
				c2.393,0,3.652,1.709,3.652,3.688c0,0.287-0.036,0.593-0.072,0.827H139.714z M139.714,219.854h4.335
				c-0.071-1.241-0.827-2.087-2.141-2.087C140.866,217.768,139.912,218.451,139.714,219.854z"/>
			<path fill="#1E5035" d="M153.636,217.624c0,0.558-0.449,1.043-0.989,1.043c-0.521,0-0.882-0.323-1.025-0.666
				c-0.576,0.181-1.241,0.828-1.619,1.565v3.526h1.421v1.295h-4.155v-1.295h1.205v-5.127h-1.205v-1.332h2.681v1.764
				c0.611-1.062,1.511-1.907,2.41-1.907C153.205,216.49,153.636,217.012,153.636,217.624z"/>
			<path fill="#1E5035" d="M157.557,217.983c0.737-0.791,1.709-1.493,2.824-1.493c0.972,0,1.637,0.378,2.033,0.989
				c0.252,0.432,0.396,0.972,0.396,1.619v3.994h1.205v1.295h-3.903v-1.295h1.151v-3.652c0-0.378-0.055-0.684-0.181-0.917
				c-0.216-0.414-0.594-0.612-1.151-0.612c-0.845,0-1.654,0.504-2.32,1.17v4.012h1.151v1.295h-3.886v-1.295h1.205v-5.127h-1.205
				v-1.332h2.681V217.983z"/>
			<path fill="#1E5035" d="M165.327,220.521c0-2.177,1.583-4.03,4.048-4.03c2.464,0,4.047,1.835,4.047,4.03
				c0,2.158-1.601,4.012-4.047,4.012C166.891,224.532,165.327,222.697,165.327,220.521z M171.821,220.521
				c0-1.584-1.008-2.717-2.446-2.717c-1.458,0-2.465,1.133-2.465,2.717c0,1.583,1.007,2.698,2.465,2.698
				C170.813,223.219,171.821,222.104,171.821,220.521z"/>
			<path fill="#1E5035" d="M181.478,216.94c0.198,0.161,0.342,0.432,0.342,0.684c0,0.558-0.45,1.025-1.008,1.025
				c-0.575,0-1.062-0.504-1.062-1.241c0-0.324,0.145-0.684,0.378-1.008c0.576-0.773,1.764-1.421,3.202-1.421
				c2.249,0,3.49,1.312,3.49,2.68c0,1.529-1.259,2.357-2.788,3.274c-1.224,0.72-2.069,1.331-2.591,2.177h4.354v-1.529h1.331v2.807
				h-7.411l-0.234-0.773c0.702-1.673,2.141-2.771,3.688-3.724c1.169-0.738,2.068-1.313,2.068-2.195c0-0.81-0.791-1.385-1.979-1.385
				C182.467,216.311,181.766,216.562,181.478,216.94z"/>
			<path fill="#1E5035" d="M189.194,219.746c0-2.734,1.799-4.767,4.3-4.767c2.5,0,4.299,2.051,4.299,4.767
				c0,2.753-1.799,4.786-4.299,4.786C190.993,224.532,189.194,222.481,189.194,219.746z M196.192,219.746
				c0-1.979-1.098-3.454-2.698-3.454c-1.602,0-2.699,1.458-2.699,3.454c0,2.016,1.098,3.454,2.699,3.454
				C195.094,223.2,196.192,221.762,196.192,219.746z"/>
			<path fill="#1E5035" d="M200.022,223.093h2.158v-6.351l-1.871,0.468l-0.359-1.313l3.076-0.81h0.72v8.006h2.123v1.295h-5.847
				V223.093z"/>
			<path fill="#1E5035" d="M207.612,221.294c0-1.241,0.863-2.285,2.086-2.753c-1.115-0.521-1.835-1.547-1.835-2.555
				c0-1.816,1.584-3.166,3.671-3.166c2.104,0,3.688,1.35,3.688,3.166c0,1.044-0.756,2.033-1.853,2.555
				c1.223,0.468,2.104,1.493,2.104,2.753c0,1.799-1.565,3.238-3.939,3.238C209.176,224.532,207.612,223.093,207.612,221.294z
				 M213.854,221.186c0-1.133-0.936-2.033-2.32-2.033c-1.368,0-2.303,0.9-2.303,2.033c0,1.134,0.935,2.015,2.303,2.015
				C212.918,223.2,213.854,222.319,213.854,221.186z M213.62,216.076c0-1.133-0.863-1.925-2.086-1.925
				c-1.206,0-2.069,0.792-2.069,1.925c0,1.044,0.918,1.89,2.069,1.89S213.62,217.12,213.62,216.076z"/>
		</g>
	</g>
</g>
</svg>
