<?xml version="1.0" encoding="utf-8"?>
<!-- Generator: Adobe Illustrator 17.0.0, SVG Export Plug-In . SVG Version: 6.00 Build 0)  -->
<!DOCTYPE svg PUBLIC "-//W3C//DTD SVG 1.1//EN" "http://www.w3.org/Graphics/SVG/1.1/DTD/svg11.dtd">
<svg version="1.1" id="Layer_1" xmlns="http://www.w3.org/2000/svg" xmlns:xlink="http://www.w3.org/1999/xlink" x="0px" y="0px"
	 width="266.333px" height="265px" viewBox="0 0 266.333 265" enable-background="new 0 0 266.333 265" xml:space="preserve">
<g>
	<rect x="5.99" y="2.479" fill="#16A314" width="254.353" height="30.179"/>
	<g>
		<path fill="#FFFFFF" d="M62.582,25.405l0.509-2.44c2.25,0.53,3.842,0.637,4.967,0.637c1.485,0,2.377-0.68,2.377-1.635
			c0-1.337-1.655-1.613-3.332-2.08c-2.505-0.7-4.309-2.08-4.309-4.521c0-2.908,2.398-4.033,5.264-4.033
			c1.634,0,3.12,0.213,5.094,0.807l-0.658,2.441c-2.271-0.531-3.333-0.637-4.436-0.637c-1.486,0-2.187,0.637-2.187,1.507
			c0,1.188,1.55,1.57,3.29,1.995c2.504,0.573,4.351,1.762,4.351,4.287c0,3.078-2.377,4.457-5.455,4.457
			C66.402,26.19,64.555,25.978,62.582,25.405z"/>
		<path fill="#FFFFFF" d="M77.548,18.656c0-4.075,1.358-7.323,6.431-7.323s6.41,3.248,6.41,7.323c0,4.117-1.337,7.534-6.41,7.534
			S77.548,22.773,77.548,18.656z M80.626,18.656c0,2.865,0.509,5.094,3.354,5.094s3.332-2.229,3.332-5.094
			c0-2.866-0.488-4.882-3.332-4.882S80.626,15.79,80.626,18.656z"/>
		<path fill="#FFFFFF" d="M97.629,11.546v11.843h6.729v2.59H94.7V11.546H97.629z"/>
		<path fill="#FFFFFF" d="M123.081,22.71h-4.563l-0.976,3.269h-3.099l4.669-14.539h3.566l4.606,14.539h-3.226L123.081,22.71z
			 M120.789,15.09l-1.677,5.179h3.375l-1.656-5.179H120.789z"/>
		<path fill="#FFFFFF" d="M134.057,11.546v11.843h6.729v2.59h-9.658V11.546H134.057z"/>
		<path fill="#FFFFFF" d="M148.069,20.884v5.094h-2.93V11.546h6.155c3.035,0,4.775,1.867,4.775,4.669c0,2.865-1.74,4.67-4.775,4.67
			H148.069z M148.069,18.295h2.907c1.231,0,2.102-0.573,2.102-2.08c0-1.464-0.87-2.059-2.102-2.059h-2.907V18.295z"/>
		<path fill="#FFFFFF" d="M166.749,22.71h-4.563l-0.977,3.269h-3.099l4.67-14.539h3.565l4.605,14.539h-3.226L166.749,22.71z
			 M164.457,15.09l-1.677,5.179h3.374l-1.655-5.179H164.457z"/>
		<path fill="#FFFFFF" d="M180.229,11.333c1.72,0,3.227,0.213,5.2,0.807l-0.657,2.441c-2.271-0.531-3.185-0.637-4.31-0.637
			c-2.674,0-3.587,1.846-3.587,4.712c0,3.077,0.913,4.945,3.587,4.945c1.125,0,2.038-0.106,4.31-0.637l0.657,2.44
			c-1.974,0.573-3.48,0.785-5.2,0.785c-5.072,0-6.431-3.396-6.431-7.534C173.799,14.581,175.157,11.333,180.229,11.333z"/>
		<path fill="#FFFFFF" d="M197.403,22.71h-4.563l-0.977,3.269h-3.099l4.67-14.539H197l4.605,14.539h-3.226L197.403,22.71z
			 M195.111,15.09l-1.677,5.179h3.374l-1.655-5.179H195.111z"/>
	</g>
	<g>
		<g>
			<path fill="#1E5035" d="M24.603,210.274h1.439v-8.923h-1.439v-1.458h8.689v3.095h-1.547v-1.655h-4.065v3.67h3.742v1.403h-3.742
				v3.886h4.065v-1.655h1.565v3.095h-8.708V210.274z"/>
			<path fill="#1E5035" d="M34.981,210.4h1.025l2.447-2.591l-2.321-2.501h-1.007v-1.331h3.616v1.241h-0.99l1.583,1.89l1.583-1.89
				H39.91v-1.241h3.58v1.331h-1.025l-2.285,2.447l2.465,2.645h1.025v1.331h-3.652v-1.241h1.007l-1.745-2.033l-1.727,2.033h1.025
				v1.241h-3.598V210.4z"/>
			<path fill="#1E5035" d="M46.258,210.904c-0.144-0.307-0.234-0.702-0.234-1.134v-4.462h-1.457v-1.331h1.457v-1.781l1.547-0.629
				v2.41h2.356v1.331h-2.356v4.192c0,0.252,0.036,0.432,0.108,0.594c0.144,0.252,0.432,0.377,0.881,0.377
				c0.468,0,1.025-0.216,1.475-0.432l-0.162,1.386c-0.45,0.233-1.025,0.449-1.745,0.449C47.266,211.875,46.6,211.569,46.258,210.904
				z"/>
			<path fill="#1E5035" d="M57.986,204.966c0,0.558-0.45,1.044-0.989,1.044c-0.522,0-0.882-0.324-1.026-0.666
				c-0.576,0.18-1.241,0.828-1.619,1.565v3.526h1.421v1.295h-4.156v-1.295h1.206v-5.128h-1.206v-1.331h2.681v1.764
				c0.612-1.062,1.511-1.907,2.411-1.907C57.555,203.834,57.986,204.355,57.986,204.966z"/>
			<path fill="#1E5035" d="M59.136,209.662c0-1.421,1.259-2.338,3.04-2.338c0.81,0,1.709,0.18,2.123,0.306v-0.882
				c0-0.449-0.126-0.81-0.342-1.079c-0.324-0.396-0.864-0.594-1.619-0.594c-0.486,0-0.774,0.107-1.007,0.233
				c0.054,0.126,0.09,0.288,0.09,0.433c0,0.503-0.378,0.881-0.899,0.881c-0.54,0-0.917-0.378-0.917-0.917
				c0-0.918,1.007-1.871,2.986-1.871c1.205,0,2.086,0.359,2.608,0.972c0.396,0.468,0.594,1.079,0.594,1.78v3.851h1.205v1.295h-2.663
				v-0.936c-0.629,0.594-1.619,1.079-2.662,1.079C60.252,211.875,59.136,211.065,59.136,209.662z M64.299,209.788v-1.259
				c-0.522-0.144-1.187-0.27-1.889-0.27c-1.097,0-1.709,0.521-1.709,1.277c0,0.701,0.521,1.169,1.421,1.169
				C62.95,210.706,63.706,210.31,64.299,209.788z"/>
			<path fill="#1E5035" d="M74.425,208.349c0.216,1.475,1.295,2.194,2.807,2.194c0.989,0,1.835-0.306,2.752-0.827l-0.126,1.421
				c-0.81,0.504-1.799,0.737-2.86,0.737c-2.501,0-4.192-1.619-4.192-3.993c0-2.177,1.493-4.048,3.85-4.048
				c2.393,0,3.652,1.709,3.652,3.688c0,0.288-0.036,0.594-0.072,0.828H74.425z M74.425,207.198h4.335
				c-0.072-1.241-0.827-2.087-2.141-2.087C75.576,205.111,74.623,205.795,74.425,207.198z"/>
			<path fill="#1E5035" d="M84.659,205.327c0.738-0.792,1.709-1.493,2.824-1.493c0.972,0,1.637,0.378,2.033,0.989
				c0.252,0.432,0.396,0.972,0.396,1.619v3.994h1.206v1.295h-3.904v-1.295h1.151v-3.652c0-0.378-0.054-0.684-0.18-0.918
				c-0.216-0.413-0.594-0.611-1.151-0.611c-0.845,0-1.655,0.504-2.321,1.17v4.012h1.151v1.295h-3.886v-1.295h1.206v-5.128h-1.206
				v-1.331h2.681V205.327z"/>
			<path fill="#1E5035" d="M96.763,213.962h1.206v-8.653h-1.206v-1.331h2.681v1.008c0.648-0.666,1.367-1.151,2.483-1.151
				c2.033,0,3.616,1.619,3.616,3.976c0,2.23-1.565,4.065-3.76,4.065c-0.881,0-1.655-0.323-2.267-0.827v2.914h1.385v1.296h-4.138
				V213.962z M103.941,207.827c0-1.619-0.989-2.645-2.303-2.645c-0.881,0-1.547,0.414-2.123,0.99v3.615
				c0.54,0.433,1.223,0.738,2.086,0.738C102.916,210.526,103.941,209.465,103.941,207.827z"/>
			<path fill="#1E5035" d="M113.653,204.966c0,0.558-0.45,1.044-0.989,1.044c-0.522,0-0.882-0.324-1.026-0.666
				c-0.576,0.18-1.241,0.828-1.619,1.565v3.526h1.421v1.295h-4.156v-1.295h1.206v-5.128h-1.206v-1.331h2.681v1.764
				c0.612-1.062,1.511-1.907,2.411-1.907C113.222,203.834,113.653,204.355,113.653,204.966z"/>
			<path fill="#1E5035" d="M114.714,207.863c0-2.177,1.583-4.029,4.048-4.029c2.464,0,4.047,1.835,4.047,4.029
				c0,2.159-1.601,4.012-4.047,4.012C116.279,211.875,114.714,210.04,114.714,207.863z M121.208,207.863
				c0-1.583-1.007-2.716-2.446-2.716c-1.458,0-2.465,1.133-2.465,2.716s1.007,2.699,2.465,2.699
				C120.201,210.562,121.208,209.446,121.208,207.863z"/>
			<path fill="#1E5035" d="M124.588,207.899c0-2.213,1.565-4.065,3.778-4.065c0.971,0,1.781,0.359,2.303,0.846v-4.786h-1.332v-1.331
				h2.879v11.874h1.205v1.295h-2.734v-0.989c-0.612,0.647-1.385,1.133-2.465,1.133C126.171,211.875,124.588,210.256,124.588,207.899
				z M130.669,209.537v-3.599c-0.558-0.432-1.223-0.756-2.123-0.756c-1.331,0-2.356,1.062-2.375,2.699
				c0,1.619,1.025,2.645,2.339,2.645C129.391,210.526,130.093,210.112,130.669,209.537z"/>
			<path fill="#1E5035" d="M136.171,210.849c-0.233-0.432-0.359-0.953-0.359-1.583v-3.958h-1.205v-1.331h2.734v4.947
				c0,0.396,0.072,0.702,0.198,0.936c0.216,0.414,0.575,0.594,1.133,0.594c0.846,0,1.638-0.521,2.321-1.169v-3.977h-1.242v-1.331
				h2.789v6.459h1.205v1.295h-2.698v-1.35c-0.737,0.792-1.709,1.493-2.824,1.493C137.232,211.875,136.567,211.479,136.171,210.849z"
				/>
			<path fill="#1E5035" d="M145.307,207.827c0-2.086,1.674-3.993,3.887-3.993c1.925,0,3.328,1.259,3.328,2.446
				c0,0.684-0.468,1.151-1.098,1.151c-0.504,0-0.972-0.396-0.972-0.972c0-0.252,0.126-0.503,0.324-0.647
				c-0.181-0.359-0.828-0.701-1.583-0.701c-1.044,0-2.321,0.881-2.321,2.752c0,1.602,1.17,2.681,2.771,2.681
				c0.899,0,1.709-0.27,2.663-0.827l-0.145,1.421c-0.791,0.504-1.709,0.737-2.662,0.737
				C147.089,211.875,145.307,210.22,145.307,207.827z"/>
			<path fill="#1E5035" d="M155.595,210.904c-0.144-0.307-0.233-0.702-0.233-1.134v-4.462h-1.458v-1.331h1.458v-1.781l1.547-0.629
				v2.41h2.356v1.331h-2.356v4.192c0,0.252,0.036,0.432,0.107,0.594c0.145,0.252,0.433,0.377,0.882,0.377
				c0.468,0,1.025-0.216,1.476-0.432l-0.162,1.386c-0.45,0.233-1.025,0.449-1.745,0.449
				C156.603,211.875,155.937,211.569,155.595,210.904z"/>
			<path fill="#1E5035" d="M160.902,207.863c0-2.177,1.583-4.029,4.048-4.029s4.048,1.835,4.048,4.029
				c0,2.159-1.602,4.012-4.048,4.012C162.467,211.875,160.902,210.04,160.902,207.863z M167.396,207.863
				c0-1.583-1.007-2.716-2.446-2.716c-1.457,0-2.465,1.133-2.465,2.716s1.008,2.699,2.465,2.699
				C166.389,210.562,167.396,209.446,167.396,207.863z"/>
			<path fill="#1E5035" d="M175.165,207.899c0-2.213,1.565-4.065,3.777-4.065c0.972,0,1.781,0.359,2.303,0.846v-4.786h-1.331v-1.331
				h2.879v11.874h1.205v1.295h-2.734v-0.989c-0.611,0.647-1.386,1.133-2.465,1.133C176.748,211.875,175.165,210.256,175.165,207.899
				z M181.245,209.537v-3.599c-0.558-0.432-1.223-0.756-2.122-0.756c-1.332,0-2.357,1.062-2.375,2.699
				c0,1.619,1.025,2.645,2.339,2.645C179.968,210.526,180.67,210.112,181.245,209.537z"/>
			<path fill="#1E5035" d="M187.09,208.349c0.216,1.475,1.295,2.194,2.807,2.194c0.989,0,1.835-0.306,2.752-0.827l-0.126,1.421
				c-0.81,0.504-1.799,0.737-2.86,0.737c-2.5,0-4.191-1.619-4.191-3.993c0-2.177,1.493-4.048,3.85-4.048
				c2.393,0,3.652,1.709,3.652,3.688c0,0.288-0.036,0.594-0.072,0.828H187.09z M187.09,207.198h4.336
				c-0.072-1.241-0.828-2.087-2.142-2.087C188.241,205.111,187.288,205.795,187.09,207.198z"/>
			<path fill="#1E5035" d="M199.249,209.356c0-0.755,0.449-1.241,1.079-1.241c0.647,0,1.079,0.486,1.079,0.989
				c0,0.324-0.09,0.558-0.233,0.774c0.414,0.359,1.205,0.629,2.158,0.629c1.439,0,2.357-0.701,2.357-1.871
				c0-1.115-1.08-1.637-2.339-2.104c-2.123-0.791-3.652-1.511-3.652-3.616c0-1.853,1.476-3.238,3.76-3.238
				c2.069,0,3.688,1.116,3.688,2.429c0,0.738-0.468,1.17-1.044,1.17c-0.684,0-1.097-0.504-1.097-1.044
				c0-0.288,0.09-0.468,0.197-0.63c-0.323-0.287-1.025-0.503-1.763-0.503c-1.313,0-2.104,0.701-2.104,1.69
				c0,1.134,1.061,1.619,2.41,2.142c2.033,0.755,3.562,1.493,3.562,3.579c0,2.159-1.691,3.437-4.012,3.437
				C200.975,211.947,199.249,210.633,199.249,209.356z"/>
			<path fill="#1E5035" d="M208.673,210.274h1.079l3.292-8.941h-1.313v-1.439h5.938v1.439h-1.332l3.293,8.941h1.097v1.457h-4.209
				v-1.439h1.367l-0.882-2.5h-4.678l-0.881,2.5h1.438v1.439h-4.209V210.274z M216.534,206.424l-1.871-5.164l-1.871,5.164H216.534z"
				/>
			<path fill="#1E5035" d="M222.144,210.274h1.439v-8.923h-1.439v-1.458h4.678v1.458h-1.602v8.94h3.742v-1.745h1.565v3.185h-8.384
				V210.274z"/>
			<path fill="#1E5035" d="M232.432,210.274h1.439v-8.923h-1.439v-1.458h8.689v3.095h-1.547v-1.655h-4.066v3.67h3.742v1.403h-3.742
				v3.886h4.066v-1.655h1.564v3.095h-8.707V210.274z"/>
		</g>
	</g>
	<g>
		<g>
			<path fill="#1E5035" d="M140.34,94.777c0-5.59,3.055-9.101,8.84-9.101c5.721,0,8.84,3.51,8.84,9.101s-3.119,9.035-8.84,9.035
				C143.395,103.812,140.34,100.367,140.34,94.777z M154.251,94.777c0-3.9-1.69-6.045-5.07-6.045c-3.381,0-5.135,2.145-5.135,6.045
				c0,3.9,1.754,5.98,5.135,5.98C152.56,100.757,154.251,98.676,154.251,94.777z M152.04,130.203h-3.899l24.051-44.202h3.899
				L152.04,130.203z M166.211,121.492c0-5.59,3.056-9.1,8.841-9.1c5.72,0,8.84,3.51,8.84,9.1s-3.12,9.036-8.84,9.036
				C169.266,130.528,166.211,127.083,166.211,121.492z M180.122,121.492c0-3.9-1.69-6.045-5.07-6.045
				c-3.381,0-5.136,2.145-5.136,6.045c0,3.9,1.755,5.98,5.136,5.98C178.431,127.473,180.122,125.393,180.122,121.492z"/>
			<path fill="#1E5035" d="M138.609,148.759c0-4.125,1.237-7.491,6.297-7.491c5.037,0,6.297,3.366,6.297,7.491
				c0,4.191-1.26,7.709-6.297,7.709C139.846,156.468,138.609,152.951,138.609,148.759z M140.78,148.759
				c0,3.148,0.586,5.972,4.126,5.972c3.518,0,4.126-2.823,4.126-5.972s-0.608-5.754-4.126-5.754
				C141.366,143.006,140.78,145.611,140.78,148.759z"/>
			<path fill="#1E5035" d="M163.206,143.332h-7.166v4.776h6.188v1.846h-6.188v6.297h-2.062v-14.765h9.229V143.332z"/>
			<path fill="#1E5035" d="M175.253,143.332h-7.166v4.776h6.188v1.846h-6.188v6.297h-2.062v-14.765h9.229V143.332z"/>
		</g>
		<g>
			<g>
				<g>
					<path fill="#1E5035" d="M84.116,153.896l2.895-7.398c7.613,3.646,13.295,4.718,19.622,4.718c10.401,0,16.62-6.219,16.62-16.083
						c0-7.077-3.431-15.226-14.475-15.226c-5.576,0-10.293,2.358-13.939,7.076l-7.077-0.644l1.715-41.066h39.673v8.578H97.84
						l-1.501,24.447l0.215,0.106c3.646-3.859,9.221-6.862,15.547-6.862c12.974,0,21.337,8.364,21.337,23.054
						c0,16.083-10.187,24.661-26.27,24.661C98.698,159.257,91.943,157.649,84.116,153.896z"/>
				</g>
			</g>
		</g>
	</g>
</g>
<g>
</g>
<g>
</g>
<g>
</g>
<g>
</g>
<g>
</g>
<g>
</g>
<g>
</g>
<g>
</g>
<g>
</g>
<g>
</g>
<g>
</g>
<g>
</g>
<g>
</g>
<g>
</g>
<g>
</g>
</svg>
