<?xml version="1.0" encoding="utf-8"?>
<!-- Generator: Adobe Illustrator 17.0.0, SVG Export Plug-In . SVG Version: 6.00 Build 0)  -->
<!DOCTYPE svg PUBLIC "-//W3C//DTD SVG 1.1//EN" "http://www.w3.org/Graphics/SVG/1.1/DTD/svg11.dtd">
<svg version="1.1" id="Layer_1" xmlns="http://www.w3.org/2000/svg" xmlns:xlink="http://www.w3.org/1999/xlink" x="0px" y="0px"
	 width="266.333px" height="265px" viewBox="0 0 266.333 265" enable-background="new 0 0 266.333 265" xml:space="preserve">
<g>
	<g>
		<path fill="#1E5035" d="M165.362,94.538c0-5.59,3.055-9.101,8.84-9.101c5.721,0,8.84,3.51,8.84,9.101s-3.119,9.035-8.84,9.035
			C168.417,103.573,165.362,100.129,165.362,94.538z M179.272,94.538c0-3.9-1.69-6.045-5.07-6.045c-3.381,0-5.135,2.145-5.135,6.045
			c0,3.9,1.754,5.98,5.135,5.98C177.582,100.518,179.272,98.438,179.272,94.538z M177.061,129.965h-3.899l24.051-44.202h3.899
			L177.061,129.965z M191.232,121.254c0-5.59,3.056-9.1,8.841-9.1c5.72,0,8.84,3.51,8.84,9.1s-3.12,9.036-8.84,9.036
			C194.288,130.29,191.232,126.844,191.232,121.254z M205.143,121.254c0-3.9-1.69-6.045-5.07-6.045
			c-3.381,0-5.136,2.145-5.136,6.045c0,3.9,1.755,5.98,5.136,5.98C203.453,127.235,205.143,125.154,205.143,121.254z"/>
		<path fill="#1E5035" d="M163.631,148.521c0-4.126,1.237-7.491,6.297-7.491c5.037,0,6.297,3.365,6.297,7.491
			c0,4.19-1.26,7.708-6.297,7.708C164.868,156.229,163.631,152.712,163.631,148.521z M165.801,148.521
			c0,3.148,0.586,5.971,4.126,5.971c3.518,0,4.126-2.822,4.126-5.971s-0.608-5.754-4.126-5.754
			C166.387,142.767,165.801,145.373,165.801,148.521z"/>
		<path fill="#1E5035" d="M188.227,143.092h-7.166v4.777h6.188v1.846h-6.188v6.297h-2.062v-14.765h9.229V143.092z"/>
		<path fill="#1E5035" d="M200.274,143.092h-7.166v4.777h6.188v1.846h-6.188v6.297h-2.062v-14.765h9.229V143.092z"/>
	</g>
	<rect x="6.4" y="2.666" fill="#16A314" width="253.534" height="30.082"/>
	<g>
		<path fill="#FFFFFF" d="M88.022,18.628c0-4.063,1.354-7.301,6.413-7.301c5.058,0,6.392,3.238,6.392,7.301
			c0,4.106-1.334,7.513-6.392,7.513C89.377,26.141,88.022,22.734,88.022,18.628z M91.091,18.628c0,2.857,0.508,5.08,3.344,5.08
			s3.322-2.222,3.322-5.08c0-2.857-0.486-4.868-3.322-4.868S91.091,15.771,91.091,18.628z"/>
		<path fill="#FFFFFF" d="M112.273,22.671h-4.55l-0.974,3.259h-3.09l4.656-14.497h3.555l4.593,14.497h-3.217L112.273,22.671z
			 M109.988,15.073l-1.672,5.164h3.364l-1.65-5.164H109.988z"/>
		<path fill="#FFFFFF" d="M123.213,18.078l5.418-6.54h3.471l-5.016,6.074l5.058,8.317h-3.64l-3.535-5.989l-1.756,2.116v3.873h-2.921
			V11.538h2.921V18.078z"/>
		<path fill="#FFFFFF" d="M139.21,11.538v11.81h6.709v2.582h-9.63V11.538H139.21z"/>
		<path fill="#FFFFFF" d="M159.99,14.142h-6.814v3.068h5.862v2.582h-5.862v3.556h6.92v2.582h-9.841V11.538h9.735V14.142z"/>
		<path fill="#FFFFFF" d="M170.21,17.909l2.814-6.371h3.153l-4.613,9.312v5.08h-2.921v-5.08l-4.635-9.312h3.322l2.836,6.371H170.21z
			"/>
	</g>
	<g>
		<g>
			<path fill="#1E5035" d="M65.404,201.161h1.439v-8.923h-1.439v-1.457h8.689v3.094h-1.547v-1.655H68.48v3.67h3.742v1.403H68.48
				v3.887h4.066v-1.655h1.564v3.094h-8.707V201.161z"/>
			<path fill="#1E5035" d="M78.822,196.214c0.738-0.791,1.71-1.493,2.825-1.493c0.971,0,1.637,0.378,2.032,0.989
				c0.252,0.432,0.396,0.972,0.396,1.619v3.994h1.205v1.295h-3.904v-1.295h1.151v-3.652c0-0.378-0.054-0.684-0.18-0.917
				c-0.216-0.414-0.594-0.612-1.151-0.612c-0.846,0-1.655,0.504-2.32,1.17v4.012h1.151v1.295h-3.886v-1.295h1.205v-5.127h-1.205
				v-1.332h2.68V196.214z"/>
			<path fill="#1E5035" d="M90.945,201.323h1.259v-10.542h-1.259v-1.332h2.806v11.874h1.242v1.295h-4.048V201.323z"/>
			<path fill="#1E5035" d="M98.193,199.236c0.216,1.476,1.295,2.194,2.807,2.194c0.989,0,1.835-0.306,2.752-0.827l-0.126,1.421
				c-0.81,0.504-1.799,0.738-2.86,0.738c-2.5,0-4.191-1.619-4.191-3.994c0-2.177,1.493-4.048,3.85-4.048
				c2.393,0,3.652,1.709,3.652,3.688c0,0.287-0.036,0.593-0.072,0.827H98.193z M98.193,198.085h4.336
				c-0.072-1.241-0.828-2.087-2.142-2.087C99.344,195.998,98.391,196.681,98.193,198.085z"/>
			<path fill="#1E5035" d="M108.426,196.214c0.738-0.791,1.71-1.493,2.825-1.493c0.971,0,1.637,0.378,2.032,0.989
				c0.252,0.432,0.396,0.972,0.396,1.619v3.994h1.205v1.295h-3.904v-1.295h1.151v-3.652c0-0.378-0.054-0.684-0.18-0.917
				c-0.216-0.414-0.594-0.612-1.151-0.612c-0.846,0-1.655,0.504-2.32,1.17v4.012h1.151v1.295h-3.886v-1.295h1.205v-5.127h-1.205
				v-1.332h2.68V196.214z"/>
			<path fill="#1E5035" d="M117.546,201.791c-0.144-0.306-0.233-0.702-0.233-1.134v-4.461h-1.458v-1.332h1.458v-1.78l1.547-0.63
				v2.41h2.356v1.332h-2.356v4.191c0,0.252,0.036,0.432,0.107,0.594c0.145,0.252,0.433,0.378,0.882,0.378
				c0.468,0,1.025-0.216,1.476-0.432l-0.162,1.385c-0.45,0.234-1.025,0.45-1.745,0.45
				C118.553,202.762,117.887,202.456,117.546,201.791z"/>
			<path fill="#1E5035" d="M124.434,199.236c0.216,1.476,1.295,2.194,2.807,2.194c0.989,0,1.835-0.306,2.752-0.827l-0.126,1.421
				c-0.81,0.504-1.799,0.738-2.86,0.738c-2.5,0-4.191-1.619-4.191-3.994c0-2.177,1.493-4.048,3.85-4.048
				c2.393,0,3.652,1.709,3.652,3.688c0,0.287-0.036,0.593-0.072,0.827H124.434z M124.434,198.085h4.336
				c-0.072-1.241-0.828-2.087-2.142-2.087C125.586,195.998,124.632,196.681,124.434,198.085z"/>
			<path fill="#1E5035" d="M137.475,197.401c-0.539,0-0.936-0.342-0.936-0.863c0-0.126,0.019-0.271,0.072-0.396
				c-0.306-0.144-0.756-0.233-1.241-0.233c-0.989,0-1.529,0.485-1.529,0.989c0,0.576,0.594,0.81,1.835,1.134
				c1.673,0.432,2.896,0.881,2.896,2.339c0,1.547-1.476,2.41-3.166,2.41c-1.17,0-2.357-0.396-2.879-0.917
				c-0.287-0.288-0.432-0.612-0.432-1.008c0-0.504,0.36-0.936,0.882-0.936c0.504,0,0.917,0.342,0.917,0.899
				c0,0.144-0.018,0.27-0.071,0.396c0.287,0.181,0.863,0.36,1.583,0.36c0.936,0,1.69-0.36,1.69-1.044
				c0-0.558-0.558-0.827-1.709-1.115c-1.979-0.504-3.04-0.989-3.04-2.375c0-1.187,1.062-2.32,3.04-2.32
				c1.008,0,2.016,0.324,2.519,0.827c0.271,0.271,0.396,0.594,0.396,0.936C138.303,197.041,137.962,197.401,137.475,197.401z"/>
			<path fill="#1E5035" d="M145.029,196.699c0-3.472,2.519-6.134,6.062-6.134c3.49,0,5.973,2.68,5.973,6.134
				c0,3.473-2.519,6.135-6.062,6.135C147.511,202.834,145.029,200.153,145.029,196.699z M155.391,196.699
				c0-2.645-1.817-4.623-4.336-4.623c-2.536,0-4.354,1.961-4.354,4.623c0,2.645,1.817,4.624,4.354,4.624
				C153.574,201.323,155.391,199.362,155.391,196.699z"/>
			<path fill="#1E5035" d="M158.95,200.549c0-1.422,1.26-2.339,3.041-2.339c0.81,0,1.709,0.18,2.122,0.306v-0.882
				c0-0.449-0.126-0.81-0.342-1.079c-0.323-0.396-0.863-0.594-1.619-0.594c-0.485,0-0.773,0.108-1.007,0.234
				c0.054,0.126,0.09,0.287,0.09,0.432c0,0.504-0.378,0.881-0.899,0.881c-0.54,0-0.918-0.377-0.918-0.917
				c0-0.918,1.008-1.871,2.986-1.871c1.206,0,2.087,0.359,2.608,0.972c0.396,0.468,0.594,1.079,0.594,1.781v3.85h1.206v1.295h-2.663
				v-0.936c-0.63,0.594-1.619,1.08-2.662,1.08C160.065,202.762,158.95,201.953,158.95,200.549z M164.113,200.675v-1.26
				c-0.521-0.144-1.187-0.27-1.889-0.27c-1.098,0-1.709,0.521-1.709,1.277c0,0.701,0.521,1.169,1.421,1.169
				C162.764,201.592,163.519,201.197,164.113,200.675z"/>
			<path fill="#1E5035" d="M167.924,201.323h1.205v-10.542h-1.205v-1.332h2.753v9.121l2.807-2.446h-1.313v-1.26h4.461v1.332h-1.402
				l-2.159,1.853l2.213,3.238h1.349v1.331h-2.267l-2.429-3.706l-1.259,1.08v1.349h1.133v1.277h-3.886V201.323z"/>
			<path fill="#1E5035" d="M177.944,201.323h1.259v-10.542h-1.259v-1.332h2.806v11.874h1.242v1.295h-4.048V201.323z"/>
			<path fill="#1E5035" d="M185.192,199.236c0.216,1.476,1.295,2.194,2.807,2.194c0.989,0,1.835-0.306,2.752-0.827l-0.126,1.421
				c-0.81,0.504-1.799,0.738-2.86,0.738c-2.5,0-4.191-1.619-4.191-3.994c0-2.177,1.493-4.048,3.85-4.048
				c2.393,0,3.652,1.709,3.652,3.688c0,0.287-0.036,0.593-0.072,0.827H185.192z M185.192,198.085h4.336
				c-0.072-1.241-0.828-2.087-2.142-2.087C186.343,195.998,185.39,196.681,185.192,198.085z"/>
			<path fill="#1E5035" d="M193.933,206.198c-0.863,0-1.476-0.485-1.476-1.098c0-0.558,0.378-0.881,0.846-0.881
				c0.45,0,0.738,0.323,0.846,0.647c0.252-0.09,0.504-0.288,0.792-0.701c0.144-0.234,0.306-0.522,0.485-0.882l0.521-1.079
				l-2.86-6.009h-1.007v-1.332h3.777v1.277h-1.188c0,0,2.033,4.605,2.016,4.605l2.051-4.605h-1.241v-1.277h3.741v1.332h-1.007
				l-3.652,7.789c-0.198,0.396-0.396,0.738-0.611,1.044C195.39,205.785,194.725,206.198,193.933,206.198z"/>
		</g>
	</g>
	<g>
		<g>
			<g>
				<path fill="#1E5035" d="M54.91,97.16l-2.886-7.696c7.803-3.42,14.002-5.344,22.98-5.344c15.713,0,22.981,9.94,22.981,21.698
					c0,14.964-11.01,28.325-32.388,43.289v0.214h33.456v8.551h-47.03v-9.299c30.57-20.202,35.808-32.708,35.808-40.617
					c0-13.361-10.154-14.964-14.965-14.964C67.63,92.991,62.499,93.739,54.91,97.16z"/>
				<path fill="#1E5035" d="M106.534,120.996c0-20.309,5.023-36.876,25.653-36.876c20.522,0,25.652,16.567,25.652,36.876
					c0,20.629-5.13,37.945-25.652,37.945C111.557,158.941,106.534,141.625,106.534,120.996z M116.688,120.996
					c0,15.499,2.886,29.929,15.499,29.929c12.506,0,15.498-14.43,15.498-29.929c0-15.499-2.992-28.859-15.498-28.859
					C119.574,92.136,116.688,105.497,116.688,120.996z"/>
			</g>
		</g>
	</g>
</g>
<g>
</g>
<g>
</g>
<g>
</g>
<g>
</g>
<g>
</g>
<g>
</g>
<g>
</g>
<g>
</g>
<g>
</g>
<g>
</g>
<g>
</g>
<g>
</g>
<g>
</g>
<g>
</g>
<g>
</g>
</svg>
