<?xml version="1.0" encoding="utf-8"?>
<!-- Generator: Adobe Illustrator 17.0.0, SVG Export Plug-In . SVG Version: 6.00 Build 0)  -->
<!DOCTYPE svg PUBLIC "-//W3C//DTD SVG 1.1//EN" "http://www.w3.org/Graphics/SVG/1.1/DTD/svg11.dtd">
<svg version="1.1" id="Layer_1" xmlns="http://www.w3.org/2000/svg" xmlns:xlink="http://www.w3.org/1999/xlink" x="0px" y="0px"
	 width="266.333px" height="265px" viewBox="0 0 266.333 265" enable-background="new 0 0 266.333 265" xml:space="preserve">
<g>
	<g>
		<path fill="#1E5035" d="M167.538,94.428c0-5.59,3.055-9.101,8.84-9.101c5.721,0,8.84,3.511,8.84,9.101
			c0,5.591-3.119,9.035-8.84,9.035C170.592,103.464,167.538,100.019,167.538,94.428z M181.448,94.428c0-3.9-1.69-6.045-5.07-6.045
			c-3.381,0-5.135,2.145-5.135,6.045s1.754,5.98,5.135,5.98C179.757,100.409,181.448,98.329,181.448,94.428z M179.237,129.855
			h-3.899l24.051-44.202h3.899L179.237,129.855z M193.408,121.144c0-5.59,3.056-9.1,8.841-9.1c5.72,0,8.84,3.51,8.84,9.1
			c0,5.591-3.12,9.036-8.84,9.036C196.464,130.18,193.408,126.735,193.408,121.144z M207.319,121.144c0-3.899-1.69-6.045-5.07-6.045
			c-3.381,0-5.136,2.146-5.136,6.045c0,3.9,1.755,5.98,5.136,5.98C205.629,127.125,207.319,125.045,207.319,121.144z"/>
		<path fill="#1E5035" d="M165.806,148.412c0-4.126,1.237-7.491,6.297-7.491c5.037,0,6.297,3.365,6.297,7.491
			c0,4.19-1.26,7.708-6.297,7.708C167.044,156.12,165.806,152.602,165.806,148.412z M167.977,148.412
			c0,3.148,0.586,5.971,4.126,5.971c3.518,0,4.126-2.822,4.126-5.971s-0.608-5.754-4.126-5.754
			C168.563,142.658,167.977,145.263,167.977,148.412z"/>
		<path fill="#1E5035" d="M190.403,142.983h-7.166v4.777h6.188v1.846h-6.188v6.297h-2.062v-14.766h9.229V142.983z"/>
		<path fill="#1E5035" d="M202.45,142.983h-7.166v4.777h6.188v1.846h-6.188v6.297h-2.062v-14.766h9.229V142.983z"/>
	</g>
	<g>
		<g>
			<path fill="#1E5035" d="M23.766,210.461h1.439v-8.923h-1.439v-1.458h8.689v3.095h-1.547v-1.655h-4.065v3.67h3.742v1.403h-3.742
				v3.886h4.065v-1.655h1.565v3.095h-8.708V210.461z"/>
			<path fill="#1E5035" d="M37.185,205.513c0.738-0.792,1.709-1.493,2.824-1.493c0.972,0,1.637,0.378,2.033,0.989
				c0.252,0.432,0.396,0.972,0.396,1.619v3.994h1.206v1.295h-3.904v-1.295h1.151v-3.652c0-0.378-0.054-0.684-0.18-0.918
				c-0.216-0.413-0.594-0.611-1.151-0.611c-0.845,0-1.655,0.504-2.321,1.17v4.012h1.151v1.295h-3.886v-1.295h1.206v-5.128h-1.206
				v-1.331h2.681V205.513z"/>
			<path fill="#1E5035" d="M49.468,208.013c0-2.086,1.673-3.993,3.886-3.993c1.925,0,3.328,1.259,3.328,2.446
				c0,0.684-0.468,1.151-1.097,1.151c-0.504,0-0.972-0.396-0.972-0.972c0-0.252,0.126-0.503,0.324-0.647
				c-0.18-0.359-0.827-0.701-1.583-0.701c-1.043,0-2.321,0.881-2.321,2.752c0,1.602,1.169,2.681,2.771,2.681
				c0.899,0,1.709-0.27,2.663-0.827l-0.144,1.421c-0.792,0.504-1.709,0.737-2.663,0.737
				C51.249,212.061,49.468,210.407,49.468,208.013z"/>
			<path fill="#1E5035" d="M58.426,209.848c0-1.421,1.259-2.338,3.04-2.338c0.81,0,1.709,0.18,2.123,0.306v-0.882
				c0-0.449-0.126-0.81-0.342-1.079c-0.324-0.396-0.864-0.594-1.619-0.594c-0.486,0-0.774,0.107-1.007,0.233
				c0.054,0.126,0.09,0.288,0.09,0.433c0,0.503-0.378,0.881-0.899,0.881c-0.54,0-0.917-0.378-0.917-0.917
				c0-0.918,1.007-1.871,2.986-1.871c1.205,0,2.086,0.359,2.608,0.972c0.396,0.468,0.594,1.079,0.594,1.78v3.851h1.205v1.295h-2.663
				v-0.936c-0.629,0.594-1.619,1.079-2.662,1.079C59.541,212.061,58.426,211.252,58.426,209.848z M63.589,209.974v-1.259
				c-0.522-0.144-1.188-0.27-1.889-0.27c-1.097,0-1.709,0.521-1.709,1.277c0,0.701,0.521,1.169,1.421,1.169
				C62.239,210.892,62.995,210.497,63.589,209.974z"/>
			<path fill="#1E5035" d="M67.419,210.623h1.259V200.08h-1.259v-1.331h2.807v11.874h1.241v1.295h-4.048V210.623z"/>
			<path fill="#1E5035" d="M72.815,211.108l4.857-5.703h-3.203v1.493H73.12v-2.734h6.621v0.792l-4.839,5.702h3.58v-1.475h1.331
				v2.734h-6.998V211.108z"/>
			<path fill="#1E5035" d="M81.358,209.848c0-1.421,1.259-2.338,3.04-2.338c0.81,0,1.709,0.18,2.123,0.306v-0.882
				c0-0.449-0.126-0.81-0.342-1.079c-0.324-0.396-0.864-0.594-1.619-0.594c-0.486,0-0.773,0.107-1.007,0.233
				c0.054,0.126,0.09,0.288,0.09,0.433c0,0.503-0.378,0.881-0.899,0.881c-0.54,0-0.917-0.378-0.917-0.917
				c0-0.918,1.007-1.871,2.986-1.871c1.205,0,2.086,0.359,2.608,0.972c0.396,0.468,0.594,1.079,0.594,1.78v3.851h1.205v1.295h-2.663
				v-0.936c-0.629,0.594-1.619,1.079-2.662,1.079C82.473,212.061,81.358,211.252,81.358,209.848z M86.521,209.974v-1.259
				c-0.522-0.144-1.188-0.27-1.889-0.27c-1.097,0-1.709,0.521-1.709,1.277c0,0.701,0.521,1.169,1.421,1.169
				C85.172,210.892,85.927,210.497,86.521,209.974z"/>
			<path fill="#1E5035" d="M90.531,208.086c0-2.213,1.565-4.065,3.778-4.065c0.971,0,1.781,0.359,2.303,0.846v-4.786H95.28v-1.331
				h2.879v11.874h1.205v1.295H96.63v-0.989c-0.612,0.647-1.385,1.133-2.465,1.133C92.114,212.061,90.531,210.442,90.531,208.086z
				 M96.611,209.723v-3.599c-0.558-0.432-1.223-0.756-2.123-0.756c-1.331,0-2.356,1.062-2.375,2.699
				c0,1.619,1.025,2.645,2.339,2.645C95.334,210.713,96.036,210.299,96.611,209.723z"/>
			<path fill="#1E5035" d="M100.873,208.049c0-2.177,1.583-4.029,4.048-4.029c2.464,0,4.047,1.835,4.047,4.029
				c0,2.159-1.601,4.012-4.047,4.012C102.438,212.061,100.873,210.226,100.873,208.049z M107.367,208.049
				c0-1.583-1.007-2.716-2.446-2.716c-1.458,0-2.465,1.133-2.465,2.716s1.007,2.699,2.465,2.699
				C106.36,210.749,107.367,209.632,107.367,208.049z"/>
			<path fill="#1E5035" d="M116.18,206.701c-0.54,0-0.936-0.342-0.936-0.864c0-0.126,0.018-0.27,0.072-0.396
				c-0.306-0.144-0.755-0.233-1.241-0.233c-0.99,0-1.529,0.485-1.529,0.989c0,0.575,0.594,0.81,1.835,1.133
				c1.673,0.433,2.896,0.882,2.896,2.339c0,1.548-1.475,2.411-3.166,2.411c-1.169,0-2.357-0.396-2.878-0.918
				c-0.288-0.287-0.432-0.611-0.432-1.007c0-0.504,0.36-0.936,0.882-0.936c0.503,0,0.917,0.342,0.917,0.899
				c0,0.144-0.018,0.27-0.072,0.396c0.288,0.18,0.864,0.36,1.583,0.36c0.935,0,1.691-0.36,1.691-1.044
				c0-0.558-0.558-0.827-1.709-1.115c-1.979-0.504-3.041-0.989-3.041-2.375c0-1.188,1.062-2.32,3.041-2.32
				c1.007,0,2.015,0.323,2.519,0.827c0.27,0.271,0.396,0.594,0.396,0.936C117.007,206.34,116.666,206.701,116.18,206.701z"/>
			<path fill="#1E5035" d="M123.517,208.086c0-2.213,1.565-4.065,3.778-4.065c0.971,0,1.781,0.359,2.303,0.846v-4.786h-1.332v-1.331
				h2.879v11.874h1.205v1.295h-2.734v-0.989c-0.612,0.647-1.385,1.133-2.465,1.133C125.1,212.061,123.517,210.442,123.517,208.086z
				 M129.598,209.723v-3.599c-0.558-0.432-1.223-0.756-2.123-0.756c-1.331,0-2.356,1.062-2.375,2.699
				c0,1.619,1.025,2.645,2.339,2.645C128.32,210.713,129.022,210.299,129.598,209.723z"/>
			<path fill="#1E5035" d="M135.443,208.536c0.216,1.475,1.295,2.194,2.806,2.194c0.99,0,1.835-0.306,2.753-0.827l-0.126,1.421
				c-0.81,0.504-1.799,0.737-2.86,0.737c-2.501,0-4.192-1.619-4.192-3.993c0-2.177,1.494-4.048,3.85-4.048
				c2.393,0,3.651,1.709,3.651,3.688c0,0.288-0.035,0.594-0.071,0.828H135.443z M135.443,207.384h4.335
				c-0.072-1.241-0.827-2.087-2.141-2.087C136.593,205.298,135.64,205.981,135.443,207.384z"/>
			<path fill="#1E5035" d="M147.259,210.623h1.259V200.08h-1.259v-1.331h2.806v11.874h1.242v1.295h-4.048V210.623z"/>
			<path fill="#1E5035" d="M152.799,209.848c0-1.421,1.26-2.338,3.041-2.338c0.81,0,1.709,0.18,2.122,0.306v-0.882
				c0-0.449-0.126-0.81-0.342-1.079c-0.323-0.396-0.863-0.594-1.619-0.594c-0.485,0-0.773,0.107-1.007,0.233
				c0.054,0.126,0.09,0.288,0.09,0.433c0,0.503-0.378,0.881-0.899,0.881c-0.54,0-0.918-0.378-0.918-0.917
				c0-0.918,1.008-1.871,2.986-1.871c1.206,0,2.087,0.359,2.608,0.972c0.396,0.468,0.594,1.079,0.594,1.78v3.851h1.206v1.295h-2.663
				v-0.936c-0.63,0.594-1.619,1.079-2.662,1.079C153.914,212.061,152.799,211.252,152.799,209.848z M157.962,209.974v-1.259
				c-0.521-0.144-1.187-0.27-1.889-0.27c-1.098,0-1.709,0.521-1.709,1.277c0,0.701,0.521,1.169,1.421,1.169
				C156.613,210.892,157.368,210.497,157.962,209.974z"/>
			<path fill="#1E5035" d="M166.486,208.013c0-2.086,1.674-3.993,3.887-3.993c1.925,0,3.328,1.259,3.328,2.446
				c0,0.684-0.468,1.151-1.098,1.151c-0.504,0-0.972-0.396-0.972-0.972c0-0.252,0.126-0.503,0.324-0.647
				c-0.181-0.359-0.828-0.701-1.583-0.701c-1.044,0-2.321,0.881-2.321,2.752c0,1.602,1.17,2.681,2.771,2.681
				c0.899,0,1.709-0.27,2.663-0.827l-0.145,1.421c-0.791,0.504-1.709,0.737-2.662,0.737
				C168.267,212.061,166.486,210.407,166.486,208.013z"/>
			<path fill="#1E5035" d="M175.425,208.049c0-2.177,1.583-4.029,4.048-4.029s4.048,1.835,4.048,4.029
				c0,2.159-1.602,4.012-4.048,4.012C176.991,212.061,175.425,210.226,175.425,208.049z M181.92,208.049
				c0-1.583-1.007-2.716-2.446-2.716c-1.457,0-2.465,1.133-2.465,2.716s1.008,2.699,2.465,2.699
				C180.913,210.749,181.92,209.632,181.92,208.049z"/>
			<path fill="#1E5035" d="M185.12,210.623h1.259V200.08h-1.259v-1.331h2.806v11.874h1.242v1.295h-4.048V210.623z"/>
			<path fill="#1E5035" d="M192.368,208.536c0.216,1.475,1.295,2.194,2.807,2.194c0.989,0,1.835-0.306,2.752-0.827l-0.126,1.421
				c-0.81,0.504-1.799,0.737-2.86,0.737c-2.5,0-4.191-1.619-4.191-3.993c0-2.177,1.493-4.048,3.85-4.048
				c2.393,0,3.652,1.709,3.652,3.688c0,0.288-0.036,0.594-0.072,0.828H192.368z M192.368,207.384h4.336
				c-0.072-1.241-0.828-2.087-2.142-2.087C193.519,205.298,192.566,205.981,192.368,207.384z"/>
			<path fill="#1E5035" d="M199.958,208.013c0-2.086,1.674-3.993,3.887-3.993c1.925,0,3.328,1.259,3.328,2.446
				c0,0.684-0.468,1.151-1.098,1.151c-0.504,0-0.972-0.396-0.972-0.972c0-0.252,0.126-0.503,0.324-0.647
				c-0.181-0.359-0.828-0.701-1.583-0.701c-1.044,0-2.321,0.881-2.321,2.752c0,1.602,1.17,2.681,2.771,2.681
				c0.899,0,1.709-0.27,2.663-0.827l-0.145,1.421c-0.791,0.504-1.709,0.737-2.662,0.737
				C201.739,212.061,199.958,210.407,199.958,208.013z"/>
			<path fill="#1E5035" d="M208.879,208.013c0-2.086,1.674-3.993,3.887-3.993c1.925,0,3.328,1.259,3.328,2.446
				c0,0.684-0.468,1.151-1.098,1.151c-0.504,0-0.972-0.396-0.972-0.972c0-0.252,0.126-0.503,0.324-0.647
				c-0.181-0.359-0.828-0.701-1.583-0.701c-1.044,0-2.321,0.881-2.321,2.752c0,1.602,1.17,2.681,2.771,2.681
				c0.899,0,1.709-0.27,2.663-0.827l-0.145,1.421c-0.791,0.504-1.709,0.737-2.662,0.737
				C210.66,212.061,208.879,210.407,208.879,208.013z"/>
			<path fill="#1E5035" d="M217.926,210.623h1.26v-5.128h-1.26v-1.331h2.807v6.459h1.241v1.295h-4.048V210.623z M218.664,201.393
				c0-0.611,0.522-1.115,1.134-1.115c0.594,0,1.115,0.504,1.115,1.115c0,0.63-0.54,1.134-1.134,1.134
				C219.168,202.527,218.664,202.023,218.664,201.393z"/>
			<path fill="#1E5035" d="M223.646,208.049c0-2.177,1.583-4.029,4.048-4.029s4.048,1.835,4.048,4.029
				c0,2.159-1.602,4.012-4.048,4.012C225.212,212.061,223.646,210.226,223.646,208.049z M230.14,208.049
				c0-1.583-1.007-2.716-2.446-2.716c-1.457,0-2.465,1.133-2.465,2.716s1.008,2.699,2.465,2.699
				C229.133,210.749,230.14,209.632,230.14,208.049z M226.831,202.455l2.086-2.446c0.252-0.288,0.559-0.468,0.864-0.468
				c0.432,0,0.791,0.342,0.791,0.827c0,0.288-0.197,0.63-0.575,0.882l-2.717,1.709L226.831,202.455z"/>
			<path fill="#1E5035" d="M236.146,205.513c0.738-0.792,1.71-1.493,2.825-1.493c0.971,0,1.637,0.378,2.032,0.989
				c0.252,0.432,0.396,0.972,0.396,1.619v3.994h1.205v1.295h-3.904v-1.295h1.151v-3.652c0-0.378-0.054-0.684-0.18-0.918
				c-0.216-0.413-0.594-0.611-1.151-0.611c-0.846,0-1.655,0.504-2.32,1.17v4.012h1.151v1.295h-3.886v-1.295h1.205v-5.128h-1.205
				v-1.331h2.68V205.513z"/>
			<path fill="#1E5035" d="M50.7,227.583c0-3.472,2.519-6.135,6.062-6.135c3.49,0,5.973,2.681,5.973,6.135
				c0,3.473-2.519,6.135-6.062,6.135C53.183,233.717,50.7,231.037,50.7,227.583z M61.063,227.583c0-2.645-1.817-4.623-4.335-4.623
				c-2.537,0-4.354,1.961-4.354,4.623c0,2.645,1.817,4.624,4.354,4.624C59.246,232.207,61.063,230.246,61.063,227.583z"/>
			<path fill="#1E5035" d="M65.953,232.674c-0.144-0.307-0.234-0.702-0.234-1.134v-4.462h-1.457v-1.331h1.457v-1.781l1.547-0.629
				v2.41h2.356v1.331h-2.356v4.192c0,0.252,0.036,0.432,0.108,0.594c0.144,0.252,0.432,0.377,0.881,0.377
				c0.468,0,1.025-0.216,1.475-0.432l-0.162,1.386c-0.45,0.233-1.025,0.449-1.745,0.449
				C66.961,233.645,66.295,233.34,65.953,232.674z"/>
			<path fill="#1E5035" d="M71.258,229.633c0-2.177,1.583-4.029,4.048-4.029c2.464,0,4.047,1.835,4.047,4.029
				c0,2.159-1.601,4.012-4.047,4.012C72.823,233.645,71.258,231.81,71.258,229.633z M77.753,229.633
				c0-1.583-1.007-2.716-2.446-2.716c-1.458,0-2.465,1.133-2.465,2.716s1.007,2.699,2.465,2.699
				C76.745,232.333,77.753,231.216,77.753,229.633z"/>
			<path fill="#1E5035" d="M83.759,227.097c0.738-0.792,1.709-1.493,2.824-1.493c0.972,0,1.637,0.378,2.033,0.989
				c0.252,0.432,0.396,0.972,0.396,1.619v3.994h1.206v1.295h-3.904v-1.295h1.151v-3.652c0-0.378-0.054-0.684-0.18-0.918
				c-0.216-0.413-0.594-0.611-1.151-0.611c-0.845,0-1.655,0.504-2.321,1.17v4.012h1.151v1.295h-3.886v-1.295h1.206v-5.128h-1.206
				v-1.331h2.681V227.097z M85.415,223.697c-0.432-0.378-0.72-0.54-0.99-0.54c-0.414,0-0.702,0.342-0.863,1.098l-1.133-0.27
				c0.144-1.439,1.007-2.356,1.907-2.356c0.702,0,1.188,0.306,1.583,0.665c0.45,0.378,0.738,0.54,0.99,0.54
				c0.432,0,0.719-0.342,0.881-1.098l1.115,0.27c-0.126,1.439-0.989,2.357-1.889,2.357
				C86.314,224.363,85.828,224.057,85.415,223.697z"/>
			<path fill="#1E5035" d="M91.529,229.633c0-2.177,1.583-4.029,4.048-4.029c2.464,0,4.047,1.835,4.047,4.029
				c0,2.159-1.601,4.012-4.047,4.012C93.094,233.645,91.529,231.81,91.529,229.633z M98.023,229.633
				c0-1.583-1.007-2.716-2.446-2.716c-1.458,0-2.465,1.133-2.465,2.716s1.007,2.699,2.465,2.699
				C97.016,232.333,98.023,231.216,98.023,229.633z"/>
			<path fill="#1E5035" d="M105.845,232.045h1.547v-8.923h-1.547v-1.458h4.695v1.458h-1.529v8.923h1.529v1.457h-4.695V232.045z"/>
			<path fill="#1E5035" d="M115.037,227.097c0.738-0.792,1.709-1.493,2.824-1.493c0.972,0,1.637,0.378,2.033,0.989
				c0.252,0.432,0.396,0.972,0.396,1.619v3.994h1.206v1.295h-3.904v-1.295h1.151v-3.652c0-0.378-0.054-0.684-0.18-0.918
				c-0.216-0.413-0.594-0.611-1.151-0.611c-0.845,0-1.655,0.504-2.321,1.17v4.012h1.151v1.295h-3.886v-1.295h1.206v-5.128h-1.206
				v-1.331h2.681V227.097z"/>
			<path fill="#1E5035" d="M122.933,227.079h-0.972v-1.331h3.76v1.277h-1.187l2.104,4.659l2.105-4.659h-1.241v-1.277h3.76v1.331
				h-0.971l-3.185,6.639h-0.989L122.933,227.079z"/>
			<path fill="#1E5035" d="M132.411,232.207h1.259v-5.128h-1.259v-1.331h2.807v6.459h1.241v1.295h-4.048V232.207z M133.149,222.977
				c0-0.611,0.521-1.115,1.133-1.115c0.594,0,1.115,0.504,1.115,1.115c0,0.63-0.54,1.134-1.133,1.134
				C133.652,224.111,133.149,223.607,133.149,222.977z"/>
			<path fill="#1E5035" d="M139.714,230.12c0.216,1.475,1.295,2.194,2.807,2.194c0.989,0,1.835-0.306,2.752-0.827l-0.126,1.421
				c-0.81,0.504-1.799,0.737-2.86,0.737c-2.5,0-4.191-1.619-4.191-3.993c0-2.177,1.493-4.048,3.85-4.048
				c2.393,0,3.652,1.709,3.652,3.688c0,0.288-0.036,0.594-0.072,0.828H139.714z M139.714,228.968h4.336
				c-0.072-1.241-0.828-2.087-2.142-2.087C140.865,226.882,139.912,227.565,139.714,228.968z"/>
			<path fill="#1E5035" d="M153.636,226.737c0,0.558-0.45,1.044-0.989,1.044c-0.521,0-0.882-0.324-1.025-0.666
				c-0.576,0.18-1.241,0.828-1.619,1.565v3.526h1.421v1.295h-4.155v-1.295h1.205v-5.128h-1.205v-1.331h2.68v1.764
				c0.612-1.062,1.512-1.907,2.411-1.907C153.205,225.604,153.636,226.126,153.636,226.737z"/>
			<path fill="#1E5035" d="M157.555,227.097c0.738-0.792,1.71-1.493,2.825-1.493c0.971,0,1.637,0.378,2.032,0.989
				c0.252,0.432,0.396,0.972,0.396,1.619v3.994h1.205v1.295h-3.904v-1.295h1.151v-3.652c0-0.378-0.054-0.684-0.18-0.918
				c-0.216-0.413-0.594-0.611-1.151-0.611c-0.846,0-1.655,0.504-2.32,1.17v4.012h1.151v1.295h-3.886v-1.295h1.205v-5.128h-1.205
				v-1.331h2.68V227.097z"/>
			<path fill="#1E5035" d="M165.326,229.633c0-2.177,1.583-4.029,4.048-4.029s4.048,1.835,4.048,4.029
				c0,2.159-1.602,4.012-4.048,4.012C166.891,233.645,165.326,231.81,165.326,229.633z M171.82,229.633
				c0-1.583-1.007-2.716-2.446-2.716c-1.457,0-2.465,1.133-2.465,2.716s1.008,2.699,2.465,2.699
				C170.813,232.333,171.82,231.216,171.82,229.633z"/>
			<path fill="#1E5035" d="M181.477,226.053c0.198,0.162,0.342,0.432,0.342,0.684c0,0.558-0.449,1.025-1.007,1.025
				c-0.576,0-1.062-0.503-1.062-1.241c0-0.323,0.144-0.684,0.378-1.007c0.575-0.773,1.763-1.422,3.202-1.422
				c2.248,0,3.489,1.313,3.489,2.681c0,1.529-1.259,2.356-2.788,3.274c-1.224,0.72-2.068,1.331-2.591,2.177h4.354v-1.529h1.332
				v2.807h-7.412l-0.234-0.773c0.702-1.673,2.142-2.771,3.688-3.724c1.169-0.738,2.068-1.313,2.068-2.195
				c0-0.81-0.791-1.385-1.979-1.385C182.466,225.424,181.765,225.675,181.477,226.053z"/>
			<path fill="#1E5035" d="M189.194,228.86c0-2.734,1.799-4.768,4.299-4.768c2.501,0,4.3,2.051,4.3,4.768
				c0,2.753-1.799,4.785-4.3,4.785C190.993,233.645,189.194,231.594,189.194,228.86z M196.192,228.86
				c0-1.979-1.098-3.454-2.699-3.454c-1.601,0-2.698,1.457-2.698,3.454c0,2.015,1.098,3.454,2.698,3.454
				C195.094,232.314,196.192,230.875,196.192,228.86z"/>
			<path fill="#1E5035" d="M200.02,232.207h2.159v-6.351l-1.871,0.468l-0.359-1.313l3.076-0.81h0.72v8.006h2.122v1.295h-5.847
				V232.207z"/>
			<path fill="#1E5035" d="M207.611,230.407c0-1.241,0.864-2.284,2.087-2.752c-1.115-0.521-1.835-1.547-1.835-2.555
				c0-1.817,1.583-3.166,3.67-3.166c2.105,0,3.688,1.349,3.688,3.166c0,1.043-0.756,2.033-1.854,2.555
				c1.224,0.468,2.105,1.493,2.105,2.752c0,1.8-1.565,3.238-3.94,3.238C209.176,233.645,207.611,232.207,207.611,230.407z
				 M213.854,230.299c0-1.134-0.936-2.033-2.321-2.033c-1.367,0-2.303,0.899-2.303,2.033c0,1.133,0.936,2.015,2.303,2.015
				C212.919,232.314,213.854,231.432,213.854,230.299z M213.62,225.19c0-1.133-0.863-1.925-2.087-1.925
				c-1.205,0-2.068,0.792-2.068,1.925c0,1.044,0.917,1.889,2.068,1.889S213.62,226.234,213.62,225.19z"/>
		</g>
	</g>
	<rect x="5.99" y="2.666" fill="#16A314" width="254.353" height="30.179"/>
	<g>
		<path fill="#FFFFFF" d="M107.936,20.907v5.094h-2.93V11.569h6.155c3.035,0,4.775,1.867,4.775,4.669c0,2.865-1.74,4.67-4.775,4.67
			H107.936z M107.936,18.318h2.907c1.231,0,2.102-0.573,2.102-2.08c0-1.464-0.87-2.059-2.102-2.059h-2.907V18.318z"/>
		<path fill="#FFFFFF" d="M126.616,22.733h-4.563l-0.977,3.269h-3.099l4.67-14.539h3.565l4.605,14.539h-3.226L126.616,22.733z
			 M124.324,15.112l-1.677,5.179h3.374l-1.655-5.179H124.324z"/>
		<path fill="#FFFFFF" d="M144.426,14.179h-6.834v3.077h5.879v2.59h-5.879v3.565h6.94v2.59h-9.87V11.569h9.764V14.179z"/>
		<path fill="#FFFFFF" d="M152.685,23.411h6.559v2.59h-10.612v-2.122l6.432-9.658v-0.042h-6.007v-2.61h9.976v2.122l-6.347,9.679
			V23.411z"/>
	</g>
	<g>
		<g>
			<g>
				<path fill="#1E5035" d="M57.656,98.371l-2.895-7.72c7.827-3.432,14.046-5.361,23.053-5.361c15.762,0,23.053,9.972,23.053,21.767
					c0,15.011-11.044,28.414-32.488,43.425v0.214h33.561v8.578H54.761v-9.328c30.666-20.265,35.92-32.81,35.92-40.745
					c0-13.403-10.187-15.012-15.012-15.012C70.416,94.19,65.269,94.941,57.656,98.371z"/>
				<path fill="#1E5035" d="M109.447,122.282c0-20.372,5.039-36.992,25.733-36.992c20.587,0,25.733,16.62,25.733,36.992
					c0,20.694-5.146,38.064-25.733,38.064C114.486,160.346,109.447,142.976,109.447,122.282z M119.633,122.282
					c0,15.548,2.895,30.022,15.547,30.022c12.545,0,15.548-14.474,15.548-30.022c0-15.547-3.003-28.95-15.548-28.95
					C122.528,93.332,119.633,106.736,119.633,122.282z"/>
			</g>
		</g>
	</g>
</g>
<g>
</g>
<g>
</g>
<g>
</g>
<g>
</g>
<g>
</g>
<g>
</g>
<g>
</g>
<g>
</g>
<g>
</g>
<g>
</g>
<g>
</g>
<g>
</g>
<g>
</g>
<g>
</g>
<g>
</g>
</svg>
