<?xml version="1.0" encoding="utf-8"?>
<!-- Generator: Adobe Illustrator 17.0.0, SVG Export Plug-In . SVG Version: 6.00 Build 0)  -->
<!DOCTYPE svg PUBLIC "-//W3C//DTD SVG 1.1//EN" "http://www.w3.org/Graphics/SVG/1.1/DTD/svg11.dtd">
<svg version="1.1" id="Layer_1" xmlns="http://www.w3.org/2000/svg" xmlns:xlink="http://www.w3.org/1999/xlink" x="0px" y="0px"
	 width="266.333px" height="265px" viewBox="0 0 266.333 265" enable-background="new 0 0 266.333 265" xml:space="preserve">
<g>
	<g>
		<path fill="#1E5035" d="M165.542,96.538c0-5.59,3.055-9.101,8.84-9.101c5.721,0,8.84,3.51,8.84,9.101s-3.119,9.035-8.84,9.035
			C168.596,105.573,165.542,102.128,165.542,96.538z M179.452,96.538c0-3.9-1.69-6.045-5.07-6.045c-3.381,0-5.135,2.145-5.135,6.045
			c0,3.9,1.754,5.98,5.135,5.98C177.761,102.518,179.452,100.438,179.452,96.538z M177.241,131.964h-3.899l24.051-44.202h3.899
			L177.241,131.964z M191.412,123.254c0-5.59,3.056-9.1,8.841-9.1c5.72,0,8.84,3.51,8.84,9.1s-3.12,9.036-8.84,9.036
			C194.467,132.29,191.412,128.844,191.412,123.254z M205.323,123.254c0-3.9-1.69-6.045-5.07-6.045
			c-3.381,0-5.136,2.145-5.136,6.045c0,3.9,1.755,5.98,5.136,5.98C203.632,129.234,205.323,127.154,205.323,123.254z"/>
		<path fill="#1E5035" d="M163.81,150.521c0-4.125,1.237-7.49,6.297-7.49c5.037,0,6.297,3.365,6.297,7.49
			c0,4.191-1.26,7.709-6.297,7.709C165.047,158.229,163.81,154.712,163.81,150.521z M165.981,150.521
			c0,3.148,0.586,5.972,4.126,5.972c3.518,0,4.126-2.823,4.126-5.972s-0.608-5.754-4.126-5.754
			C166.567,144.767,165.981,147.372,165.981,150.521z"/>
		<path fill="#1E5035" d="M188.407,145.093h-7.166v4.776h6.188v1.846h-6.188v6.297h-2.062v-14.765h9.229V145.093z"/>
		<path fill="#1E5035" d="M200.454,145.093h-7.166v4.776h6.188v1.846h-6.188v6.297h-2.062v-14.765h9.229V145.093z"/>
	</g>
	<rect x="6.4" y="2.666" fill="#16A314" width="253.534" height="30.082"/>
	<g>
		<path fill="#FFFFFF" d="M83.251,18.077l5.418-6.54h3.471l-5.016,6.074l5.058,8.317h-3.64l-3.535-5.989l-1.756,2.116v3.873h-2.921
			V11.538h2.921V18.077z"/>
		<path fill="#FFFFFF" d="M96.328,25.929V11.538h2.921v14.392H96.328z"/>
		<path fill="#FFFFFF" d="M106.908,20.85v5.08h-2.921V11.538h6.138c3.026,0,4.762,1.863,4.762,4.656
			c0,2.857-1.735,4.656-4.762,4.656H106.908z M106.908,18.268h2.899c1.228,0,2.095-0.572,2.095-2.074
			c0-1.46-0.867-2.053-2.095-2.053h-2.899V18.268z"/>
		<path fill="#FFFFFF" d="M122.143,20.85v5.08h-2.921V11.538h6.138c3.026,0,4.762,1.863,4.762,4.656
			c0,2.857-1.735,4.656-4.762,4.656H122.143z M122.143,18.268h2.899c1.228,0,2.095-0.572,2.095-2.074
			c0-1.46-0.867-2.053-2.095-2.053h-2.899V18.268z"/>
		<path fill="#FFFFFF" d="M137.378,11.538v11.81h6.709v2.582h-9.63V11.538H137.378z"/>
		<path fill="#FFFFFF" d="M148.423,25.929V11.538h2.921v14.392H148.423z"/>
		<path fill="#FFFFFF" d="M156.083,25.929V11.538h2.921l5.756,9.037h0.043v-9.037h2.814v14.392h-2.899l-5.757-8.72h-0.042v8.72
			H156.083z"/>
		<path fill="#FFFFFF" d="M171.911,18.627c0-4.063,1.354-7.301,6.413-7.301c1.714,0,3.175,0.211,5.121,0.804l-0.635,2.434
			c-2.265-0.529-3.132-0.635-4.254-0.635c-2.666,0-3.576,1.841-3.576,4.698c0,3.069,0.91,4.931,3.576,4.931
			c0.741,0,1.354-0.148,1.989-0.402v-2.349h-2.222v-2.603h5.121v6.941c-1.777,0.635-3.217,0.995-5.121,0.995
			C173.265,26.141,171.911,22.754,171.911,18.627z"/>
	</g>
	<g>
		<g>
			<path fill="#1E5035" d="M71.483,201.161h1.439v-8.924h-1.439v-1.457h8.689v3.095h-1.547v-1.655h-4.066v3.67h3.742v1.403h-3.742
				v3.886h4.066v-1.655h1.564v3.095h-8.707V201.161z"/>
			<path fill="#1E5035" d="M84.901,196.214c0.738-0.792,1.71-1.493,2.825-1.493c0.971,0,1.637,0.377,2.032,0.989
				c0.252,0.432,0.396,0.972,0.396,1.619v3.993h1.205v1.296h-3.904v-1.296h1.151v-3.651c0-0.378-0.054-0.684-0.18-0.918
				c-0.216-0.413-0.594-0.611-1.151-0.611c-0.846,0-1.655,0.504-2.32,1.169v4.012h1.151v1.296h-3.886v-1.296h1.205v-5.127h-1.205
				v-1.331h2.68V196.214z"/>
			<path fill="#1E5035" d="M98.445,201.736c-0.233-0.432-0.359-0.953-0.359-1.583v-3.958h-1.206v-1.331h2.734v4.947
				c0,0.396,0.072,0.701,0.198,0.936c0.216,0.414,0.576,0.594,1.134,0.594c0.845,0,1.637-0.521,2.32-1.17v-3.976h-1.241v-1.331
				h2.788v6.458h1.206v1.296h-2.699v-1.35c-0.737,0.792-1.709,1.493-2.824,1.493C99.506,202.762,98.84,202.366,98.445,201.736z"/>
			<path fill="#1E5035" d="M110.225,196.214c0.738-0.792,1.71-1.493,2.825-1.493c0.971,0,1.637,0.377,2.032,0.989
				c0.252,0.432,0.396,0.972,0.396,1.619v3.993h1.205v1.296h-3.904v-1.296h1.151v-3.651c0-0.378-0.054-0.684-0.18-0.918
				c-0.216-0.413-0.594-0.611-1.151-0.611c-0.846,0-1.655,0.504-2.32,1.169v4.012h1.151v1.296h-3.886v-1.296h1.205v-5.127h-1.205
				v-1.331h2.68V196.214z"/>
			<path fill="#1E5035" d="M122.33,204.849h1.206v-8.653h-1.206v-1.331h2.681v1.008c0.647-0.666,1.367-1.151,2.482-1.151
				c2.033,0,3.616,1.619,3.616,3.976c0,2.23-1.565,4.065-3.76,4.065c-0.882,0-1.655-0.323-2.267-0.827v2.914h1.385v1.295h-4.138
				V204.849z M129.508,198.714c0-1.619-0.99-2.645-2.303-2.645c-0.882,0-1.548,0.414-2.123,0.989v3.616
				c0.539,0.432,1.223,0.737,2.087,0.737C128.483,201.412,129.508,200.352,129.508,198.714z"/>
			<path fill="#1E5035" d="M139.22,195.854c0,0.558-0.45,1.044-0.989,1.044c-0.521,0-0.882-0.324-1.025-0.666
				c-0.576,0.18-1.241,0.827-1.619,1.565v3.525h1.421v1.296h-4.155v-1.296h1.205v-5.127h-1.205v-1.331h2.68v1.763
				c0.612-1.062,1.512-1.906,2.411-1.906C138.789,194.721,139.22,195.242,139.22,195.854z"/>
			<path fill="#1E5035" d="M140.281,198.75c0-2.177,1.583-4.029,4.048-4.029s4.048,1.835,4.048,4.029
				c0,2.159-1.602,4.012-4.048,4.012C141.846,202.762,140.281,200.927,140.281,198.75z M146.775,198.75
				c0-1.583-1.007-2.717-2.446-2.717c-1.457,0-2.465,1.134-2.465,2.717s1.008,2.698,2.465,2.698
				C145.768,201.448,146.775,200.333,146.775,198.75z"/>
			<path fill="#1E5035" d="M150.155,198.786c0-2.213,1.565-4.065,3.777-4.065c0.972,0,1.781,0.359,2.303,0.845v-4.785h-1.331v-1.331
				h2.879v11.873h1.205v1.296h-2.734v-0.989c-0.611,0.647-1.386,1.133-2.465,1.133C151.738,202.762,150.155,201.143,150.155,198.786
				z M156.235,200.423v-3.598c-0.558-0.432-1.223-0.756-2.122-0.756c-1.332,0-2.357,1.062-2.375,2.698
				c0,1.619,1.025,2.645,2.339,2.645C154.958,201.412,155.66,200.999,156.235,200.423z"/>
			<path fill="#1E5035" d="M161.738,201.736c-0.233-0.432-0.359-0.953-0.359-1.583v-3.958h-1.206v-1.331h2.734v4.947
				c0,0.396,0.072,0.701,0.198,0.936c0.216,0.414,0.576,0.594,1.134,0.594c0.845,0,1.637-0.521,2.32-1.17v-3.976h-1.241v-1.331
				h2.788v6.458h1.206v1.296h-2.699v-1.35c-0.737,0.792-1.709,1.493-2.824,1.493C162.799,202.762,162.133,202.366,161.738,201.736z"
				/>
			<path fill="#1E5035" d="M170.875,198.714c0-2.087,1.674-3.993,3.887-3.993c1.925,0,3.328,1.259,3.328,2.446
				c0,0.684-0.468,1.151-1.098,1.151c-0.504,0-0.972-0.396-0.972-0.972c0-0.252,0.126-0.504,0.324-0.647
				c-0.181-0.359-0.828-0.702-1.583-0.702c-1.044,0-2.321,0.882-2.321,2.753c0,1.602,1.17,2.681,2.771,2.681
				c0.899,0,1.709-0.27,2.663-0.828l-0.145,1.422c-0.791,0.504-1.709,0.737-2.662,0.737
				C172.656,202.762,170.875,201.106,170.875,198.714z"/>
			<path fill="#1E5035" d="M181.163,201.79c-0.144-0.306-0.233-0.701-0.233-1.133v-4.462h-1.458v-1.331h1.458v-1.781l1.547-0.63
				v2.411h2.356v1.331h-2.356v4.191c0,0.252,0.036,0.433,0.107,0.594c0.145,0.252,0.433,0.378,0.882,0.378
				c0.468,0,1.025-0.216,1.476-0.432l-0.162,1.386c-0.45,0.233-1.025,0.449-1.745,0.449
				C182.17,202.762,181.504,202.456,181.163,201.79z"/>
			<path fill="#1E5035" d="M186.468,198.75c0-2.177,1.583-4.029,4.048-4.029s4.048,1.835,4.048,4.029
				c0,2.159-1.602,4.012-4.048,4.012C188.034,202.762,186.468,200.927,186.468,198.75z M192.962,198.75
				c0-1.583-1.007-2.717-2.446-2.717c-1.457,0-2.465,1.134-2.465,2.717s1.008,2.698,2.465,2.698
				C191.956,201.448,192.962,200.333,192.962,198.75z"/>
			<path fill="#1E5035" d="M64.217,220.369c0-2.213,1.565-4.065,3.777-4.065c0.972,0,1.781,0.359,2.303,0.846v-4.785h-1.331v-1.332
				h2.879v11.874h1.205v1.295h-2.734v-0.989c-0.611,0.647-1.386,1.134-2.465,1.134C65.8,224.346,64.217,222.727,64.217,220.369z
				 M70.297,222.007v-3.599c-0.558-0.432-1.223-0.755-2.122-0.755c-1.332,0-2.357,1.062-2.375,2.698
				c0,1.619,1.025,2.645,2.339,2.645C69.021,222.996,69.722,222.582,70.297,222.007z"/>
			<path fill="#1E5035" d="M76.142,220.819c0.216,1.476,1.295,2.194,2.807,2.194c0.989,0,1.835-0.306,2.752-0.827l-0.126,1.421
				c-0.81,0.504-1.799,0.738-2.86,0.738c-2.5,0-4.191-1.619-4.191-3.994c0-2.177,1.493-4.048,3.85-4.048
				c2.393,0,3.652,1.709,3.652,3.688c0,0.287-0.036,0.593-0.072,0.827H76.142z M76.142,219.668h4.336
				c-0.072-1.241-0.828-2.087-2.142-2.087C77.293,217.581,76.34,218.265,76.142,219.668z"/>
			<path fill="#1E5035" d="M87.941,226.433h1.206v-8.653h-1.206v-1.332h2.681v1.008c0.647-0.666,1.367-1.151,2.482-1.151
				c2.033,0,3.616,1.619,3.616,3.976c0,2.231-1.565,4.066-3.76,4.066c-0.882,0-1.655-0.324-2.267-0.828v2.915h1.385v1.295h-4.138
				V226.433z M95.12,220.298c0-1.619-0.99-2.645-2.303-2.645c-0.882,0-1.548,0.413-2.123,0.989v3.616
				c0.539,0.432,1.223,0.737,2.087,0.737C94.094,222.996,95.12,221.935,95.12,220.298z"/>
			<path fill="#1E5035" d="M104.832,217.438c0,0.558-0.45,1.043-0.989,1.043c-0.521,0-0.882-0.324-1.025-0.666
				c-0.576,0.181-1.241,0.828-1.619,1.565v3.526h1.421v1.295h-4.155v-1.295h1.205v-5.127h-1.205v-1.332h2.68v1.764
				c0.612-1.062,1.512-1.907,2.411-1.907C104.4,216.304,104.832,216.825,104.832,217.438z"/>
			<path fill="#1E5035" d="M107.474,220.819c0.216,1.476,1.295,2.194,2.807,2.194c0.989,0,1.835-0.306,2.752-0.827l-0.126,1.421
				c-0.81,0.504-1.799,0.738-2.86,0.738c-2.5,0-4.191-1.619-4.191-3.994c0-2.177,1.493-4.048,3.85-4.048
				c2.393,0,3.652,1.709,3.652,3.688c0,0.287-0.036,0.593-0.072,0.827H107.474z M107.474,219.668h4.336
				c-0.072-1.241-0.828-2.087-2.142-2.087C108.625,217.581,107.672,218.265,107.474,219.668z"/>
			<path fill="#1E5035" d="M115.064,220.298c0-2.087,1.674-3.994,3.887-3.994c1.925,0,3.328,1.26,3.328,2.446
				c0,0.684-0.468,1.151-1.098,1.151c-0.504,0-0.972-0.396-0.972-0.971c0-0.252,0.126-0.504,0.324-0.648
				c-0.181-0.359-0.828-0.701-1.583-0.701c-1.044,0-2.321,0.882-2.321,2.753c0,1.601,1.17,2.68,2.771,2.68
				c0.899,0,1.709-0.27,2.663-0.827l-0.145,1.421c-0.791,0.504-1.709,0.738-2.662,0.738
				C116.845,224.346,115.064,222.69,115.064,220.298z"/>
			<path fill="#1E5035" d="M124.111,222.906h1.26v-5.127h-1.26v-1.332h2.807v6.459h1.241v1.295h-4.048V222.906z M124.848,213.677
				c0-0.611,0.522-1.115,1.134-1.115c0.594,0,1.115,0.504,1.115,1.115c0,0.63-0.54,1.134-1.134,1.134
				C125.352,214.811,124.848,214.307,124.848,213.677z"/>
			<path fill="#1E5035" d="M129.831,220.334c0-2.178,1.583-4.03,4.048-4.03s4.048,1.835,4.048,4.03c0,2.158-1.602,4.012-4.048,4.012
				C131.396,224.346,129.831,222.511,129.831,220.334z M136.325,220.334c0-1.584-1.007-2.717-2.446-2.717
				c-1.457,0-2.465,1.133-2.465,2.717c0,1.583,1.008,2.698,2.465,2.698C135.318,223.032,136.325,221.917,136.325,220.334z"/>
			<path fill="#1E5035" d="M150.408,217.438c0,0.558-0.45,1.043-0.989,1.043c-0.521,0-0.882-0.324-1.025-0.666
				c-0.576,0.181-1.241,0.828-1.619,1.565v3.526h1.421v1.295h-4.155v-1.295h1.205v-5.127h-1.205v-1.332h2.68v1.764
				c0.612-1.062,1.512-1.907,2.411-1.907C149.976,216.304,150.408,216.825,150.408,217.438z"/>
			<path fill="#1E5035" d="M153.051,220.819c0.216,1.476,1.295,2.194,2.807,2.194c0.989,0,1.835-0.306,2.752-0.827l-0.126,1.421
				c-0.81,0.504-1.799,0.738-2.86,0.738c-2.5,0-4.191-1.619-4.191-3.994c0-2.177,1.493-4.048,3.85-4.048
				c2.393,0,3.652,1.709,3.652,3.688c0,0.287-0.036,0.593-0.072,0.827H153.051z M153.051,219.668h4.336
				c-0.072-1.241-0.828-2.087-2.142-2.087C154.203,217.581,153.25,218.265,153.051,219.668z"/>
			<path fill="#1E5035" d="M168.251,224.363c0,0.953-0.252,1.728-0.72,2.285c-0.647,0.791-1.709,1.151-2.933,1.151
				c-1.277,0-2.303-0.396-2.807-0.899c-0.287-0.288-0.413-0.594-0.413-0.936c0-0.54,0.396-1.008,0.972-1.008
				c0.521,0,0.899,0.378,0.899,0.882c0,0.144-0.036,0.306-0.108,0.432c0.27,0.107,0.72,0.252,1.367,0.252
				c0.737,0,1.386-0.216,1.799-0.738c0.252-0.323,0.396-0.791,0.396-1.421v-1.35c-0.612,0.63-1.313,1.098-2.429,1.098
				c-1.997,0-3.616-1.565-3.616-3.85c0-2.141,1.565-3.958,3.742-3.958c1.025,0,1.799,0.396,2.374,0.918v-0.774h2.681v1.332h-1.205
				V224.363z M162.243,220.243c0,1.548,0.989,2.537,2.356,2.537c0.846,0,1.548-0.396,2.105-0.972v-3.4
				c-0.522-0.432-1.188-0.755-2.069-0.755C163.232,217.653,162.243,218.696,162.243,220.243z"/>
			<path fill="#1E5035" d="M172.117,223.32c-0.233-0.433-0.359-0.954-0.359-1.584v-3.957h-1.206v-1.332h2.734v4.947
				c0,0.396,0.072,0.702,0.198,0.936c0.216,0.414,0.576,0.594,1.134,0.594c0.845,0,1.637-0.521,2.32-1.169v-3.976h-1.241v-1.332
				h2.788v6.459h1.206v1.295h-2.699v-1.349c-0.737,0.791-1.709,1.493-2.824,1.493C173.178,224.346,172.512,223.949,172.117,223.32z"
				/>
			<path fill="#1E5035" d="M181.092,222.906h1.259v-10.542h-1.259v-1.332h2.806v11.874h1.242v1.295h-4.048V222.906z"/>
			<path fill="#1E5035" d="M186.631,222.133c0-1.422,1.26-2.339,3.041-2.339c0.81,0,1.709,0.18,2.122,0.306v-0.882
				c0-0.449-0.126-0.81-0.342-1.079c-0.323-0.396-0.863-0.594-1.619-0.594c-0.485,0-0.773,0.108-1.007,0.234
				c0.054,0.126,0.09,0.287,0.09,0.432c0,0.504-0.378,0.881-0.899,0.881c-0.54,0-0.918-0.377-0.918-0.917
				c0-0.918,1.008-1.871,2.986-1.871c1.206,0,2.087,0.359,2.608,0.972c0.396,0.468,0.594,1.079,0.594,1.781v3.85h1.206v1.295h-2.663
				v-0.936c-0.63,0.594-1.619,1.08-2.662,1.08C187.747,224.346,186.631,223.536,186.631,222.133z M191.794,222.259v-1.26
				c-0.521-0.144-1.187-0.27-1.889-0.27c-1.098,0-1.709,0.521-1.709,1.277c0,0.701,0.521,1.169,1.421,1.169
				C190.446,223.176,191.201,222.78,191.794,222.259z"/>
			<path fill="#1E5035" d="M202.262,217.438c0,0.558-0.45,1.043-0.989,1.043c-0.521,0-0.882-0.324-1.025-0.666
				c-0.576,0.181-1.241,0.828-1.619,1.565v3.526h1.421v1.295h-4.155v-1.295h1.205v-5.127h-1.205v-1.332h2.68v1.764
				c0.612-1.062,1.512-1.907,2.411-1.907C201.831,216.304,202.262,216.825,202.262,217.438z"/>
		</g>
	</g>
	<g>
		<g>
			<g>
				<path fill="#1E5035" d="M84.197,120.675c10.154,2.031,15.926,9.085,15.926,17.957c0,12.934-8.871,20.309-25.438,20.309
					c-8.552,0-16.354-1.282-23.729-5.023l2.993-7.482c6.306,3.207,13.04,4.489,20.201,4.489c14.003,0,16.033-8.23,16.033-12.826
					c0-7.589-5.451-12.506-17.315-12.506h-9.086v-8.017h8.658c11.437,0,15.927-6.841,15.927-13.361
					c0-4.81-2.565-12.078-14.217-12.078c-6.733,0-12.292,1.496-18.491,4.489l-2.993-7.375c7.482-3.634,15.499-5.13,23.088-5.13
					c13.361,0,22.232,6.841,22.232,19.026c0,8.872-5.879,14.644-13.788,17.316V120.675z"/>
				<path fill="#1E5035" d="M107.602,120.995c0-20.309,5.023-36.876,25.653-36.876c20.522,0,25.652,16.567,25.652,36.876
					c0,20.63-5.13,37.945-25.652,37.945C112.625,158.94,107.602,141.625,107.602,120.995z M117.756,120.995
					c0,15.499,2.886,29.929,15.499,29.929c12.506,0,15.498-14.43,15.498-29.929c0-15.499-2.992-28.859-15.498-28.859
					C120.642,92.136,117.756,105.497,117.756,120.995z"/>
			</g>
		</g>
	</g>
</g>
</svg>
