<?xml version="1.0" encoding="utf-8"?>
<!-- Generator: Adobe Illustrator 17.0.0, SVG Export Plug-In . SVG Version: 6.00 Build 0)  -->
<!DOCTYPE svg PUBLIC "-//W3C//DTD SVG 1.1//EN" "http://www.w3.org/Graphics/SVG/1.1/DTD/svg11.dtd">
<svg version="1.1" id="Layer_1" xmlns="http://www.w3.org/2000/svg" xmlns:xlink="http://www.w3.org/1999/xlink" x="0px" y="0px"
	 width="266.333px" height="265px" viewBox="0 0 266.333 265" enable-background="new 0 0 266.333 265" xml:space="preserve">
<g>
	<rect x="5.99" y="2.667" fill="#16A314" width="254.353" height="30.179"/>
	<g>
		<path fill="#FFFFFF" d="M105.003,16.759l5.418-6.54h3.471l-5.016,6.074l5.058,8.317h-3.64l-3.534-5.989l-1.757,2.116v3.873h-2.92
			V10.219h2.92V16.759z"/>
		<path fill="#FFFFFF" d="M126.503,19.532v-9.312h2.899v9.312c0,3.767-2.244,5.291-5.651,5.291s-5.672-1.524-5.672-5.291v-9.312H121
			v9.312c0,1.545,0.466,2.856,2.772,2.856C125.995,22.388,126.503,21.077,126.503,19.532z"/>
		<path fill="#FFFFFF" d="M134.161,24.611V10.219h2.92l5.757,9.037h0.042v-9.037h2.815v14.392h-2.9l-5.756-8.72h-0.043v8.72H134.161
			z"/>
		<path fill="#FFFFFF" d="M158.137,21.352h-4.55l-0.974,3.259h-3.09l4.656-14.497h3.555l4.594,14.497h-3.218L158.137,21.352z
			 M155.852,13.754l-1.672,5.164h3.365l-1.651-5.164H155.852z"/>
	</g>
	<g>
		<g>
			<path fill="#1E5035" d="M20.808,211.364h1.439v-8.923h-1.439v-1.458h8.689v3.095H27.95v-1.655h-4.065v3.67h3.742v1.403h-3.742
				v3.886h4.065v-1.655h1.565v3.095h-8.708V211.364z"/>
			<path fill="#1E5035" d="M34.226,206.417c0.738-0.792,1.709-1.493,2.824-1.493c0.972,0,1.637,0.378,2.033,0.989
				c0.252,0.432,0.396,0.972,0.396,1.619v3.994h1.206v1.295h-3.904v-1.295h1.151v-3.652c0-0.378-0.054-0.684-0.18-0.918
				c-0.216-0.413-0.594-0.611-1.151-0.611c-0.845,0-1.655,0.504-2.321,1.17v4.012h1.151v1.295h-3.886v-1.295h1.206v-5.128h-1.206
				v-1.331h2.681V206.417z"/>
			<path fill="#1E5035" d="M46.33,215.051h1.206v-8.653H46.33v-1.331h2.681v1.008c0.648-0.666,1.367-1.151,2.483-1.151
				c2.033,0,3.616,1.619,3.616,3.976c0,2.23-1.565,4.065-3.76,4.065c-0.881,0-1.655-0.323-2.267-0.827v2.914h1.385v1.296H46.33
				V215.051z M53.508,208.917c0-1.619-0.989-2.645-2.303-2.645c-0.881,0-1.547,0.414-2.123,0.99v3.615
				c0.54,0.433,1.223,0.738,2.086,0.738C52.483,211.616,53.508,210.554,53.508,208.917z"/>
			<path fill="#1E5035" d="M63.22,206.056c0,0.558-0.45,1.044-0.989,1.044c-0.522,0-0.882-0.324-1.026-0.666
				c-0.576,0.18-1.241,0.828-1.619,1.565v3.526h1.421v1.295h-4.156v-1.295h1.206v-5.128h-1.206v-1.331h2.681v1.764
				c0.612-1.062,1.511-1.907,2.411-1.907C62.789,204.924,63.22,205.445,63.22,206.056z"/>
			<path fill="#1E5035" d="M64.281,208.953c0-2.177,1.583-4.029,4.048-4.029c2.464,0,4.047,1.835,4.047,4.029
				c0,2.159-1.601,4.012-4.047,4.012C65.846,212.965,64.281,211.13,64.281,208.953z M70.775,208.953
				c0-1.583-1.007-2.716-2.446-2.716c-1.458,0-2.465,1.133-2.465,2.716s1.007,2.699,2.465,2.699
				C69.768,211.652,70.775,210.536,70.775,208.953z"/>
			<path fill="#1E5035" d="M74.155,208.989c0-2.213,1.565-4.065,3.778-4.065c0.971,0,1.781,0.359,2.303,0.846v-4.786h-1.332v-1.331
				h2.879v11.874h1.205v1.295h-2.734v-0.989c-0.612,0.647-1.385,1.133-2.465,1.133C75.738,212.965,74.155,211.345,74.155,208.989z
				 M80.236,210.627v-3.599c-0.558-0.432-1.223-0.756-2.123-0.756c-1.331,0-2.356,1.062-2.375,2.699
				c0,1.619,1.025,2.645,2.339,2.645C78.958,211.616,79.66,211.202,80.236,210.627z"/>
			<path fill="#1E5035" d="M85.738,211.939c-0.234-0.432-0.36-0.953-0.36-1.583v-3.958h-1.205v-1.331h2.734v4.947
				c0,0.396,0.072,0.702,0.198,0.936c0.216,0.414,0.576,0.594,1.133,0.594c0.846,0,1.637-0.521,2.321-1.169v-3.977h-1.241v-1.331
				h2.789v6.459h1.205v1.295h-2.698v-1.35c-0.738,0.792-1.709,1.493-2.825,1.493C86.799,212.965,86.134,212.569,85.738,211.939z"/>
			<path fill="#1E5035" d="M94.875,208.917c0-2.086,1.673-3.993,3.886-3.993c1.925,0,3.328,1.259,3.328,2.446
				c0,0.684-0.468,1.151-1.097,1.151c-0.504,0-0.972-0.396-0.972-0.972c0-0.252,0.126-0.503,0.324-0.647
				c-0.18-0.359-0.827-0.701-1.583-0.701c-1.043,0-2.321,0.881-2.321,2.752c0,1.602,1.169,2.681,2.771,2.681
				c0.899,0,1.709-0.27,2.663-0.827l-0.144,1.421c-0.792,0.504-1.709,0.737-2.662,0.737
				C96.656,212.965,94.875,211.31,94.875,208.917z"/>
			<path fill="#1E5035" d="M105.163,211.994c-0.144-0.307-0.234-0.702-0.234-1.134v-4.462h-1.457v-1.331h1.457v-1.781l1.547-0.629
				v2.41h2.356v1.331h-2.356v4.192c0,0.252,0.036,0.432,0.108,0.594c0.144,0.252,0.432,0.377,0.881,0.377
				c0.468,0,1.025-0.216,1.475-0.432l-0.162,1.386c-0.45,0.233-1.025,0.449-1.745,0.449
				C106.171,212.965,105.505,212.659,105.163,211.994z"/>
			<path fill="#1E5035" d="M110.469,208.953c0-2.177,1.583-4.029,4.048-4.029c2.464,0,4.047,1.835,4.047,4.029
				c0,2.159-1.601,4.012-4.047,4.012C112.034,212.965,110.469,211.13,110.469,208.953z M116.963,208.953
				c0-1.583-1.007-2.716-2.446-2.716c-1.458,0-2.465,1.133-2.465,2.716s1.007,2.699,2.465,2.699
				C115.956,211.652,116.963,210.536,116.963,208.953z"/>
			<path fill="#1E5035" d="M125.777,207.604c-0.54,0-0.936-0.342-0.936-0.864c0-0.126,0.018-0.27,0.072-0.396
				c-0.306-0.144-0.755-0.233-1.241-0.233c-0.99,0-1.529,0.485-1.529,0.989c0,0.575,0.594,0.81,1.835,1.133
				c1.673,0.433,2.896,0.882,2.896,2.339c0,1.548-1.475,2.411-3.166,2.411c-1.169,0-2.357-0.396-2.878-0.918
				c-0.288-0.287-0.432-0.611-0.432-1.007c0-0.504,0.36-0.936,0.882-0.936c0.503,0,0.917,0.342,0.917,0.899
				c0,0.144-0.018,0.27-0.072,0.396c0.288,0.18,0.864,0.36,1.583,0.36c0.935,0,1.691-0.36,1.691-1.044
				c0-0.558-0.558-0.827-1.709-1.115c-1.979-0.504-3.041-0.989-3.041-2.375c0-1.188,1.062-2.32,3.041-2.32
				c1.007,0,2.015,0.323,2.519,0.827c0.27,0.271,0.396,0.594,0.396,0.936C126.604,207.244,126.262,207.604,125.777,207.604z"/>
			<path fill="#1E5035" d="M138.547,207.604c-0.54,0-0.936-0.342-0.936-0.864c0-0.126,0.019-0.27,0.071-0.396
				c-0.305-0.144-0.755-0.233-1.24-0.233c-0.99,0-1.529,0.485-1.529,0.989c0,0.575,0.594,0.81,1.834,1.133
				c1.674,0.433,2.896,0.882,2.896,2.339c0,1.548-1.475,2.411-3.166,2.411c-1.169,0-2.356-0.396-2.878-0.918
				c-0.288-0.287-0.432-0.611-0.432-1.007c0-0.504,0.36-0.936,0.882-0.936c0.503,0,0.917,0.342,0.917,0.899
				c0,0.144-0.019,0.27-0.072,0.396c0.288,0.18,0.864,0.36,1.583,0.36c0.936,0,1.691-0.36,1.691-1.044
				c0-0.558-0.558-0.827-1.709-1.115c-1.979-0.504-3.041-0.989-3.041-2.375c0-1.188,1.062-2.32,3.041-2.32
				c1.008,0,2.015,0.323,2.519,0.827c0.27,0.271,0.396,0.594,0.396,0.936C139.374,207.244,139.032,207.604,138.547,207.604z"/>
			<path fill="#1E5035" d="M143.007,209.439c0.215,1.475,1.295,2.194,2.807,2.194c0.988,0,1.834-0.306,2.752-0.827l-0.126,1.421
				c-0.81,0.504-1.8,0.737-2.86,0.737c-2.501,0-4.191-1.619-4.191-3.993c0-2.177,1.492-4.048,3.85-4.048
				c2.393,0,3.652,1.709,3.652,3.688c0,0.288-0.037,0.594-0.072,0.828H143.007z M143.007,208.288h4.335
				c-0.071-1.241-0.827-2.087-2.141-2.087C144.157,206.201,143.204,206.884,143.007,208.288z"/>
			<path fill="#1E5035" d="M150.434,211.526h1.259v-10.543h-1.259v-1.331h2.807v11.874h1.24v1.295h-4.047V211.526z"/>
			<path fill="#1E5035" d="M157.682,209.439c0.217,1.475,1.296,2.194,2.807,2.194c0.99,0,1.836-0.306,2.753-0.827l-0.126,1.421
				c-0.81,0.504-1.799,0.737-2.86,0.737c-2.501,0-4.192-1.619-4.192-3.993c0-2.177,1.494-4.048,3.851-4.048
				c2.393,0,3.651,1.709,3.651,3.688c0,0.288-0.035,0.594-0.071,0.828H157.682z M157.682,208.288h4.336
				c-0.072-1.241-0.827-2.087-2.141-2.087C158.835,206.201,157.881,206.884,157.682,208.288z"/>
			<path fill="#1E5035" d="M165.272,208.917c0-2.086,1.674-3.993,3.887-3.993c1.924,0,3.328,1.259,3.328,2.446
				c0,0.684-0.469,1.151-1.098,1.151c-0.504,0-0.972-0.396-0.972-0.972c0-0.252,0.126-0.503,0.323-0.647
				c-0.18-0.359-0.826-0.701-1.582-0.701c-1.044,0-2.321,0.881-2.321,2.752c0,1.602,1.169,2.681,2.771,2.681
				c0.899,0,1.709-0.27,2.662-0.827l-0.144,1.421c-0.792,0.504-1.709,0.737-2.662,0.737
				C167.053,212.965,165.272,211.31,165.272,208.917z"/>
			<path fill="#1E5035" d="M174.194,208.917c0-2.086,1.672-3.993,3.885-3.993c1.926,0,3.328,1.259,3.328,2.446
				c0,0.684-0.467,1.151-1.097,1.151c-0.504,0-0.972-0.396-0.972-0.972c0-0.252,0.126-0.503,0.324-0.647
				c-0.18-0.359-0.828-0.701-1.584-0.701c-1.043,0-2.32,0.881-2.32,2.752c0,1.602,1.17,2.681,2.771,2.681
				c0.899,0,1.709-0.27,2.663-0.827l-0.145,1.421c-0.791,0.504-1.709,0.737-2.662,0.737
				C175.974,212.965,174.194,211.31,174.194,208.917z"/>
			<path fill="#1E5035" d="M183.241,211.526h1.259v-5.128h-1.259v-1.331h2.807v6.459h1.24v1.295h-4.047V211.526z M183.978,202.297
				c0-0.611,0.521-1.115,1.134-1.115c0.594,0,1.115,0.504,1.115,1.115c0,0.63-0.54,1.134-1.134,1.134
				C184.481,203.43,183.978,202.926,183.978,202.297z"/>
			<path fill="#1E5035" d="M188.96,208.953c0-2.177,1.584-4.029,4.049-4.029c2.464,0,4.047,1.835,4.047,4.029
				c0,2.159-1.602,4.012-4.047,4.012C190.525,212.965,188.96,211.13,188.96,208.953z M195.454,208.953
				c0-1.583-1.007-2.716-2.445-2.716c-1.458,0-2.465,1.133-2.465,2.716s1.007,2.699,2.465,2.699
				C194.447,211.652,195.454,210.536,195.454,208.953z"/>
			<path fill="#1E5035" d="M201.462,206.417c0.737-0.792,1.709-1.493,2.824-1.493c0.971,0,1.637,0.378,2.033,0.989
				c0.252,0.432,0.395,0.972,0.395,1.619v3.994h1.206v1.295h-3.903v-1.295h1.15v-3.652c0-0.378-0.054-0.684-0.18-0.918
				c-0.216-0.413-0.594-0.611-1.151-0.611c-0.845,0-1.655,0.504-2.321,1.17v4.012h1.152v1.295h-3.887v-1.295h1.206v-5.128h-1.206
				v-1.331h2.682V206.417z"/>
			<path fill="#1E5035" d="M209.249,210.752c0-1.421,1.26-2.338,3.04-2.338c0.81,0,1.709,0.18,2.123,0.306v-0.882
				c0-0.449-0.126-0.81-0.342-1.079c-0.323-0.396-0.864-0.594-1.619-0.594c-0.485,0-0.773,0.107-1.007,0.233
				c0.053,0.126,0.09,0.288,0.09,0.433c0,0.503-0.379,0.881-0.9,0.881c-0.539,0-0.917-0.378-0.917-0.917
				c0-0.918,1.007-1.871,2.986-1.871c1.205,0,2.087,0.359,2.608,0.972c0.396,0.468,0.594,1.079,0.594,1.78v3.851h1.205v1.295h-2.662
				v-0.936c-0.63,0.594-1.619,1.079-2.662,1.079C210.364,212.965,209.249,212.155,209.249,210.752z M214.412,210.878v-1.259
				c-0.522-0.144-1.188-0.27-1.89-0.27c-1.097,0-1.709,0.521-1.709,1.277c0,0.701,0.521,1.169,1.422,1.169
				C213.062,211.796,213.818,211.4,214.412,210.878z"/>
			<path fill="#1E5035" d="M218.422,208.989c0-2.213,1.565-4.065,3.778-4.065c0.971,0,1.78,0.359,2.303,0.846v-4.786h-1.332v-1.331
				h2.879v11.874h1.205v1.295h-2.734v-0.989c-0.611,0.647-1.385,1.133-2.465,1.133C220.005,212.965,218.422,211.345,218.422,208.989
				z M224.503,210.627v-3.599c-0.559-0.432-1.224-0.756-2.123-0.756c-1.332,0-2.357,1.062-2.375,2.699
				c0,1.619,1.025,2.645,2.339,2.645C223.225,211.616,223.926,211.202,224.503,210.627z"/>
			<path fill="#1E5035" d="M228.763,208.953c0-2.177,1.583-4.029,4.048-4.029s4.047,1.835,4.047,4.029
				c0,2.159-1.601,4.012-4.047,4.012C230.329,212.965,228.763,211.13,228.763,208.953z M235.257,208.953
				c0-1.583-1.007-2.716-2.446-2.716c-1.457,0-2.465,1.133-2.465,2.716s1.008,2.699,2.465,2.699
				C234.251,211.652,235.257,210.536,235.257,208.953z"/>
			<path fill="#1E5035" d="M244.071,207.604c-0.54,0-0.936-0.342-0.936-0.864c0-0.126,0.018-0.27,0.072-0.396
				c-0.307-0.144-0.756-0.233-1.242-0.233c-0.989,0-1.529,0.485-1.529,0.989c0,0.575,0.594,0.81,1.836,1.133
				c1.673,0.433,2.896,0.882,2.896,2.339c0,1.548-1.476,2.411-3.166,2.411c-1.17,0-2.357-0.396-2.879-0.918
				c-0.288-0.287-0.432-0.611-0.432-1.007c0-0.504,0.359-0.936,0.881-0.936c0.504,0,0.918,0.342,0.918,0.899
				c0,0.144-0.018,0.27-0.072,0.396c0.288,0.18,0.863,0.36,1.584,0.36c0.935,0,1.69-0.36,1.69-1.044
				c0-0.558-0.558-0.827-1.709-1.115c-1.979-0.504-3.04-0.989-3.04-2.375c0-1.188,1.061-2.32,3.04-2.32
				c1.007,0,2.015,0.323,2.519,0.827c0.27,0.271,0.396,0.594,0.396,0.936C244.898,207.244,244.556,207.604,244.071,207.604z"/>
		</g>
	</g>
	<g>
		<g>
			<path fill="#1E5035" d="M159.505,95.866c0-5.59,3.055-9.101,8.84-9.101c5.721,0,8.84,3.51,8.84,9.101s-3.119,9.035-8.84,9.035
				C162.559,104.902,159.505,101.457,159.505,95.866z M173.415,95.866c0-3.9-1.69-6.045-5.07-6.045
				c-3.381,0-5.135,2.145-5.135,6.045c0,3.9,1.754,5.98,5.135,5.98C171.724,101.846,173.415,99.766,173.415,95.866z
				 M171.204,131.293h-3.899l24.051-44.202h3.899L171.204,131.293z M185.375,122.582c0-5.59,3.056-9.1,8.841-9.1
				c5.72,0,8.84,3.51,8.84,9.1c0,5.59-3.12,9.036-8.84,9.036C188.43,131.618,185.375,128.173,185.375,122.582z M199.286,122.582
				c0-3.9-1.69-6.045-5.07-6.045c-3.381,0-5.136,2.145-5.136,6.045c0,3.9,1.755,5.98,5.136,5.98
				C197.595,128.563,199.286,126.483,199.286,122.582z"/>
			<path fill="#1E5035" d="M157.773,149.849c0-4.125,1.237-7.49,6.297-7.49c5.037,0,6.297,3.365,6.297,7.49
				c0,4.191-1.26,7.709-6.297,7.709C159.01,157.558,157.773,154.041,157.773,149.849z M159.944,149.849
				c0,3.148,0.586,5.972,4.126,5.972c3.518,0,4.126-2.823,4.126-5.972s-0.608-5.754-4.126-5.754
				C160.53,144.095,159.944,146.701,159.944,149.849z"/>
			<path fill="#1E5035" d="M182.37,144.422h-7.166v4.776h6.188v1.846h-6.188v6.297h-2.062v-14.765h9.229V144.422z"/>
			<path fill="#1E5035" d="M194.417,144.422h-7.166v4.776h6.188v1.846h-6.188v6.297h-2.062v-14.765h9.229V144.422z"/>
		</g>
		<g>
			<g>
				<g>
					<g>
						<path fill="#1E5035" d="M64.309,105.831l-2.573-8.042c8.363-3.753,17.478-8.471,23.053-12.867h6.969v73.448h-9.65V96.502
							L64.309,105.831z"/>
						<path fill="#1E5035" d="M100.338,121.378c0-20.372,5.04-36.992,25.733-36.992c20.587,0,25.734,16.62,25.734,36.992
							c0,20.694-5.146,38.064-25.734,38.064C105.378,159.442,100.338,142.072,100.338,121.378z M110.524,121.378
							c0,15.548,2.895,30.022,15.547,30.022c12.545,0,15.547-14.475,15.547-30.022c0-15.547-3.002-28.95-15.547-28.95
							C113.419,92.427,110.524,105.831,110.524,121.378z"/>
					</g>
				</g>
			</g>
		</g>
	</g>
</g>
<g>
</g>
<g>
</g>
<g>
</g>
<g>
</g>
<g>
</g>
<g>
</g>
<g>
</g>
<g>
</g>
<g>
</g>
<g>
</g>
<g>
</g>
<g>
</g>
<g>
</g>
<g>
</g>
<g>
</g>
</svg>
