<?xml version="1.0" encoding="utf-8"?>
<!-- Generator: Adobe Illustrator 17.0.0, SVG Export Plug-In . SVG Version: 6.00 Build 0)  -->
<!DOCTYPE svg PUBLIC "-//W3C//DTD SVG 1.1//EN" "http://www.w3.org/Graphics/SVG/1.1/DTD/svg11.dtd">
<svg version="1.1" id="Layer_1" xmlns="http://www.w3.org/2000/svg" xmlns:xlink="http://www.w3.org/1999/xlink" x="0px" y="0px"
	 width="266.333px" height="265px" viewBox="0 0 266.333 265" enable-background="new 0 0 266.333 265" xml:space="preserve">
<g>
	<g>
		<path fill="#1E5035" d="M169.962,97.086c0-5.59,3.055-9.101,8.84-9.101c5.721,0,8.84,3.51,8.84,9.101s-3.119,9.035-8.84,9.035
			C173.016,106.121,169.962,102.676,169.962,97.086z M183.872,97.086c0-3.9-1.69-6.045-5.07-6.045c-3.381,0-5.135,2.145-5.135,6.045
			s1.754,5.98,5.135,5.98C182.181,103.066,183.872,100.986,183.872,97.086z M181.661,132.512h-3.899l24.051-44.202h3.899
			L181.661,132.512z M195.832,123.801c0-5.59,3.056-9.1,8.841-9.1c5.72,0,8.84,3.51,8.84,9.1c0,5.59-3.12,9.036-8.84,9.036
			C198.887,132.837,195.832,129.392,195.832,123.801z M209.743,123.801c0-3.9-1.69-6.045-5.07-6.045
			c-3.381,0-5.136,2.145-5.136,6.045s1.755,5.98,5.136,5.98C208.052,129.782,209.743,127.702,209.743,123.801z"/>
		<path fill="#1E5035" d="M168.23,151.069c0-4.126,1.237-7.491,6.297-7.491c5.037,0,6.297,3.365,6.297,7.491
			c0,4.19-1.26,7.708-6.297,7.708C169.467,158.777,168.23,155.259,168.23,151.069z M170.401,151.069
			c0,3.148,0.586,5.971,4.126,5.971c3.518,0,4.126-2.822,4.126-5.971s-0.608-5.754-4.126-5.754
			C170.987,145.315,170.401,147.921,170.401,151.069z"/>
		<path fill="#1E5035" d="M192.827,145.64h-7.166v4.777h6.188v1.846h-6.188v6.297h-2.062v-14.766h9.229v1.846H192.827z"/>
		<path fill="#1E5035" d="M204.874,145.64h-7.166v4.777h6.188v1.846h-6.188v6.297h-2.062v-14.766h9.229v1.846H204.874z"/>
	</g>
	<rect x="6.4" y="2.666" fill="#16A314" width="253.534" height="30.082"/>
	<g>
		<path fill="#FFFFFF" d="M91.42,11.325c1.714,0,3.217,0.212,5.185,0.805l-0.656,2.434c-2.265-0.529-3.174-0.635-4.296-0.635
			c-2.667,0-3.577,1.842-3.577,4.698c0,3.069,0.91,4.932,3.577,4.932c1.122,0,2.031-0.106,4.296-0.635l0.656,2.434
			c-1.968,0.571-3.471,0.783-5.185,0.783c-5.059,0-6.413-3.387-6.413-7.514C85.007,14.564,86.361,11.325,91.42,11.325z"/>
		<path fill="#FFFFFF" d="M108.559,25.929l-3.026-5.122h-2.074v5.122h-2.92V11.537h6.138c3.026,0,4.762,1.82,4.762,4.635
			c0,1.947-0.91,3.577-2.857,4.148l3.365,5.608h-3.388V25.929z M103.459,18.204h2.857c1.206,0,2.138-0.529,2.138-2.032
			c0-1.46-0.868-2.031-2.096-2.031h-2.899V18.204z"/>
		<path fill="#FFFFFF" d="M125.826,14.141h-6.814v3.068h5.862v2.582h-5.862v3.556h6.921v2.582h-9.842V11.537h9.735
			C125.826,11.537,125.826,14.141,125.826,14.141z"/>
		<path fill="#FFFFFF" d="M133.4,20.85v5.079h-2.92V11.537h6.138c3.026,0,4.762,1.862,4.762,4.656c0,2.857-1.735,4.656-4.762,4.656
			L133.4,20.85L133.4,20.85z M133.4,18.268h2.899c1.228,0,2.096-0.571,2.096-2.074c0-1.46-0.868-2.053-2.096-2.053H133.4V18.268z"/>
		<path fill="#FFFFFF" d="M145.715,25.929V11.537h2.92v14.392H145.715z"/>
		<path fill="#FFFFFF" d="M163.11,14.141h-6.814v3.068h5.862v2.582h-5.862v3.556h6.921v2.582h-9.842V11.537h9.735L163.11,14.141
			L163.11,14.141z"/>
		<path fill="#FFFFFF" d="M175.785,25.929l-3.026-5.122h-2.074v5.122h-2.92V11.537h6.138c3.026,0,4.762,1.82,4.762,4.635
			c0,1.947-0.91,3.577-2.857,4.148l3.365,5.608h-3.388V25.929z M170.684,18.204h2.857c1.206,0,2.138-0.529,2.138-2.032
			c0-1.46-0.868-2.031-2.096-2.031h-2.899V18.204z"/>
	</g>
	<g>
		<path fill="#1E5035" d="M42.826,210.518h1.439v-8.923h-1.439v-1.458h8.689v3.095h-1.547v-1.655h-4.065v3.67h3.742v1.403h-3.742
			v3.886h4.065v-1.655h1.565v3.095h-8.708v-1.458H42.826z"/>
		<path fill="#1E5035" d="M56.244,205.571c0.738-0.792,1.709-1.493,2.824-1.493c0.972,0,1.637,0.378,2.033,0.989
			c0.252,0.432,0.396,0.972,0.396,1.619v3.994h1.206v1.295h-3.904v-1.295h1.151v-3.652c0-0.378-0.054-0.684-0.18-0.918
			c-0.216-0.413-0.594-0.611-1.151-0.611c-0.845,0-1.655,0.504-2.321,1.17v4.012h1.151v1.295h-3.886v-1.295h1.206v-5.128h-1.206
			v-1.331h2.681C56.244,204.222,56.244,205.571,56.244,205.571z"/>
		<path fill="#1E5035" d="M68.348,214.206h1.206v-8.653h-1.206v-1.331h2.681v1.008c0.648-0.666,1.367-1.151,2.483-1.151
			c2.033,0,3.616,1.619,3.616,3.976c0,2.23-1.565,4.065-3.76,4.065c-0.881,0-1.655-0.323-2.267-0.827v2.914h1.385v1.296h-4.138
			V214.206z M75.526,208.071c0-1.619-0.989-2.645-2.303-2.645c-0.881,0-1.547,0.414-2.123,0.99v3.615
			c0.54,0.433,1.223,0.738,2.086,0.738C74.5,210.77,75.526,209.709,75.526,208.071z"/>
		<path fill="#1E5035" d="M85.238,205.211c0,0.558-0.45,1.044-0.99,1.044c-0.521,0-0.881-0.324-1.025-0.666
			c-0.576,0.18-1.241,0.828-1.619,1.565v3.526h1.421v1.295H78.87v-1.295h1.206v-5.128H78.87v-1.331h2.681v1.764
			c0.612-1.062,1.511-1.907,2.411-1.907C84.807,204.078,85.238,204.599,85.238,205.211z"/>
		<path fill="#1E5035" d="M86.299,208.107c0-2.177,1.583-4.029,4.048-4.029c2.464,0,4.047,1.835,4.047,4.029
			c0,2.159-1.601,4.012-4.047,4.012C87.864,212.119,86.299,210.284,86.299,208.107z M92.793,208.107
			c0-1.583-1.007-2.716-2.446-2.716c-1.458,0-2.465,1.133-2.465,2.716s1.007,2.699,2.465,2.699
			C91.786,210.806,92.793,209.69,92.793,208.107z"/>
		<path fill="#1E5035" d="M96.173,208.143c0-2.213,1.565-4.065,3.778-4.065c0.972,0,1.781,0.359,2.303,0.846v-4.786h-1.331v-1.331
			h2.878v11.874h1.206v1.295h-2.734v-0.989c-0.612,0.647-1.385,1.133-2.465,1.133C97.756,212.119,96.173,210.5,96.173,208.143z
			 M102.253,209.781v-3.599c-0.558-0.432-1.223-0.756-2.123-0.756c-1.331,0-2.356,1.062-2.375,2.699
			c0,1.619,1.025,2.645,2.339,2.645C100.976,210.77,101.678,210.356,102.253,209.781z"/>
		<path fill="#1E5035" d="M107.756,211.093c-0.234-0.432-0.36-0.953-0.36-1.583v-3.958h-1.205v-1.331h2.734v4.947
			c0,0.396,0.072,0.702,0.198,0.936c0.216,0.414,0.576,0.594,1.133,0.594c0.846,0,1.637-0.521,2.321-1.169v-3.977h-1.241v-1.331
			h2.789v6.459h1.205v1.295h-2.698v-1.35c-0.738,0.792-1.709,1.493-2.825,1.493C108.818,212.119,108.152,211.723,107.756,211.093z"
			/>
		<path fill="#1E5035" d="M116.893,208.071c0-2.086,1.673-3.993,3.886-3.993c1.925,0,3.328,1.259,3.328,2.446
			c0,0.684-0.468,1.151-1.097,1.151c-0.504,0-0.972-0.396-0.972-0.972c0-0.252,0.126-0.503,0.324-0.647
			c-0.18-0.359-0.827-0.701-1.583-0.701c-1.043,0-2.321,0.881-2.321,2.752c0,1.602,1.169,2.681,2.771,2.681
			c0.899,0,1.709-0.27,2.663-0.827l-0.144,1.421c-0.792,0.504-1.709,0.737-2.663,0.737
			C118.674,212.119,116.893,210.465,116.893,208.071z"/>
		<path fill="#1E5035" d="M127.181,211.148c-0.144-0.307-0.234-0.702-0.234-1.134v-4.462h-1.457v-1.331h1.457v-1.781l1.547-0.629
			v2.41h2.356v1.331h-2.356v4.192c0,0.252,0.036,0.432,0.108,0.594c0.144,0.252,0.432,0.377,0.881,0.377
			c0.468,0,1.025-0.216,1.475-0.432l-0.162,1.386c-0.45,0.233-1.025,0.449-1.745,0.449
			C128.189,212.119,127.523,211.813,127.181,211.148z"/>
		<path fill="#1E5035" d="M132.487,208.107c0-2.177,1.583-4.029,4.048-4.029c2.464,0,4.047,1.835,4.047,4.029
			c0,2.159-1.601,4.012-4.047,4.012C134.052,212.119,132.487,210.284,132.487,208.107z M138.981,208.107
			c0-1.583-1.007-2.716-2.446-2.716c-1.458,0-2.465,1.133-2.465,2.716s1.007,2.699,2.465,2.699
			C137.974,210.806,138.981,209.69,138.981,208.107z"/>
		<path fill="#1E5035" d="M147.794,206.758c-0.539,0-0.936-0.342-0.936-0.864c0-0.126,0.019-0.27,0.072-0.396
			c-0.306-0.144-0.756-0.233-1.241-0.233c-0.989,0-1.529,0.485-1.529,0.989c0,0.575,0.594,0.81,1.835,1.133
			c1.674,0.433,2.896,0.882,2.896,2.339c0,1.548-1.475,2.411-3.166,2.411c-1.17,0-2.357-0.396-2.879-0.918
			c-0.287-0.287-0.432-0.611-0.432-1.007c0-0.504,0.359-0.936,0.882-0.936c0.503,0,0.917,0.342,0.917,0.899
			c0,0.144-0.018,0.27-0.072,0.396c0.289,0.18,0.864,0.36,1.584,0.36c0.936,0,1.691-0.36,1.691-1.044
			c0-0.558-0.559-0.827-1.709-1.115c-1.979-0.504-3.041-0.989-3.041-2.375c0-1.188,1.062-2.32,3.041-2.32
			c1.007,0,2.014,0.323,2.518,0.827c0.27,0.271,0.396,0.594,0.396,0.936C148.622,206.398,148.28,206.758,147.794,206.758z"/>
		<path fill="#1E5035" d="M157.218,211.202l-0.396,0.791h-1.007v-11.855h-1.225v-1.331h2.771v6.369
			c0.611-0.612,1.35-1.098,2.482-1.098c2.033,0,3.67,1.637,3.67,4.012c0,2.23-1.619,4.029-3.832,4.029
			C158.693,212.119,157.884,211.759,157.218,211.202z M161.913,208.09c0-1.638-1.025-2.663-2.375-2.663
			c-0.881,0-1.601,0.414-2.176,0.99v3.615c0.558,0.414,1.259,0.738,2.141,0.738C160.815,210.77,161.913,209.762,161.913,208.09z"/>
		<path fill="#1E5035" d="M166.409,211.093c-0.234-0.432-0.36-0.953-0.36-1.583v-3.958h-1.205v-1.331h2.734v4.947
			c0,0.396,0.071,0.702,0.198,0.936c0.215,0.414,0.575,0.594,1.133,0.594c0.846,0,1.637-0.521,2.32-1.169v-3.977h-1.24v-1.331h2.788
			v6.459h1.205v1.295h-2.698v-1.35c-0.738,0.792-1.709,1.493-2.824,1.493C167.47,212.119,166.805,211.723,166.409,211.093z"/>
		<path fill="#1E5035" d="M180.378,206.758c-0.539,0-0.936-0.342-0.936-0.864c0-0.126,0.019-0.27,0.072-0.396
			c-0.306-0.144-0.756-0.233-1.241-0.233c-0.989,0-1.529,0.485-1.529,0.989c0,0.575,0.594,0.81,1.835,1.133
			c1.674,0.433,2.896,0.882,2.896,2.339c0,1.548-1.475,2.411-3.166,2.411c-1.17,0-2.357-0.396-2.879-0.918
			c-0.287-0.287-0.432-0.611-0.432-1.007c0-0.504,0.359-0.936,0.882-0.936c0.503,0,0.917,0.342,0.917,0.899
			c0,0.144-0.018,0.27-0.072,0.396c0.289,0.18,0.864,0.36,1.584,0.36c0.936,0,1.691-0.36,1.691-1.044
			c0-0.558-0.559-0.827-1.709-1.115c-1.979-0.504-3.041-0.989-3.041-2.375c0-1.188,1.062-2.32,3.041-2.32
			c1.007,0,2.014,0.323,2.518,0.827c0.27,0.271,0.396,0.594,0.396,0.936C181.206,206.398,180.864,206.758,180.378,206.758z"/>
		<path fill="#1E5035" d="M183.29,210.68h1.26v-5.128h-1.26v-1.331h2.807v6.459h1.242v1.295h-4.049L183.29,210.68L183.29,210.68z
			 M184.028,201.451c0-0.611,0.521-1.115,1.133-1.115c0.594,0,1.115,0.504,1.115,1.115c0,0.63-0.539,1.134-1.133,1.134
			C184.532,202.585,184.028,202.081,184.028,201.451z"/>
		<path fill="#1E5035" d="M191.637,205.571c0.737-0.792,1.709-1.493,2.824-1.493c0.972,0,1.638,0.378,2.033,0.989
			c0.252,0.432,0.396,0.972,0.396,1.619v3.994h1.205v1.295h-3.903v-1.295h1.151v-3.652c0-0.378-0.055-0.684-0.18-0.918
			c-0.217-0.413-0.594-0.611-1.152-0.611c-0.845,0-1.654,0.504-2.32,1.17v4.012h1.151v1.295h-3.886v-1.295h1.205v-5.128h-1.205
			v-1.331h2.681L191.637,205.571L191.637,205.571z"/>
		<path fill="#1E5035" d="M200.989,208.593c0.216,1.475,1.295,2.194,2.807,2.194c0.989,0,1.835-0.306,2.752-0.827l-0.125,1.421
			c-0.811,0.504-1.8,0.737-2.861,0.737c-2.5,0-4.191-1.619-4.191-3.993c0-2.177,1.493-4.048,3.85-4.048
			c2.393,0,3.652,1.709,3.652,3.688c0,0.288-0.036,0.594-0.072,0.828L200.989,208.593L200.989,208.593z M200.989,207.442h4.336
			c-0.072-1.241-0.828-2.087-2.141-2.087C202.141,205.355,201.187,206.039,200.989,207.442z"/>
		<path fill="#1E5035" d="M214.03,206.758c-0.54,0-0.936-0.342-0.936-0.864c0-0.126,0.018-0.27,0.072-0.396
			c-0.307-0.144-0.756-0.233-1.242-0.233c-0.989,0-1.529,0.485-1.529,0.989c0,0.575,0.594,0.81,1.836,1.133
			c1.673,0.433,2.896,0.882,2.896,2.339c0,1.548-1.476,2.411-3.166,2.411c-1.17,0-2.357-0.396-2.879-0.918
			c-0.288-0.287-0.432-0.611-0.432-1.007c0-0.504,0.359-0.936,0.881-0.936c0.504,0,0.918,0.342,0.918,0.899
			c0,0.144-0.018,0.27-0.072,0.396c0.288,0.18,0.863,0.36,1.584,0.36c0.935,0,1.69-0.36,1.69-1.044c0-0.558-0.558-0.827-1.709-1.115
			c-1.979-0.504-3.04-0.989-3.04-2.375c0-1.188,1.061-2.32,3.04-2.32c1.007,0,2.015,0.323,2.519,0.827
			c0.27,0.271,0.396,0.594,0.396,0.936C214.857,206.398,214.516,206.758,214.03,206.758z"/>
		<path fill="#1E5035" d="M222.412,206.758c-0.54,0-0.936-0.342-0.936-0.864c0-0.126,0.019-0.27,0.071-0.396
			c-0.305-0.144-0.755-0.233-1.24-0.233c-0.99,0-1.529,0.485-1.529,0.989c0,0.575,0.594,0.81,1.834,1.133
			c1.674,0.433,2.896,0.882,2.896,2.339c0,1.548-1.475,2.411-3.166,2.411c-1.169,0-2.356-0.396-2.878-0.918
			c-0.288-0.287-0.433-0.611-0.433-1.007c0-0.504,0.36-0.936,0.883-0.936c0.503,0,0.917,0.342,0.917,0.899
			c0,0.144-0.019,0.27-0.072,0.396c0.288,0.18,0.864,0.36,1.583,0.36c0.936,0,1.691-0.36,1.691-1.044
			c0-0.558-0.558-0.827-1.709-1.115c-1.979-0.504-3.041-0.989-3.041-2.375c0-1.188,1.062-2.32,3.041-2.32
			c1.008,0,2.015,0.323,2.519,0.827c0.27,0.271,0.396,0.594,0.396,0.936C223.239,206.398,222.897,206.758,222.412,206.758z"/>
	</g>
	<g>
		<g>
			<g>
				<path fill="#1E5035" d="M59.91,97.323l-2.886-7.696c7.803-3.421,14.002-5.345,22.981-5.345c15.712,0,22.981,9.94,22.981,21.698
					c0,14.965-11.01,28.325-32.387,43.29v0.214h33.456v8.551H57.024v-9.299c30.57-20.202,35.807-32.708,35.807-40.618
					c0-13.36-10.154-14.964-14.964-14.964C72.63,93.154,67.499,93.903,59.91,97.323z"/>
				<path fill="#1E5035" d="M111.533,121.159c0-20.309,5.023-36.877,25.653-36.877c20.522,0,25.653,16.568,25.653,36.877
					c0,20.628-5.131,37.945-25.653,37.945C116.557,159.104,111.533,141.788,111.533,121.159z M121.688,121.159
					c0,15.498,2.886,29.928,15.499,29.928c12.506,0,15.499-14.43,15.499-29.928c0-15.499-2.993-28.86-15.499-28.86
					C124.573,92.299,121.688,105.66,121.688,121.159z"/>
			</g>
		</g>
	</g>
</g>
</svg>
