<?xml version="1.0" encoding="utf-8"?>
<!-- Generator: Adobe Illustrator 17.0.0, SVG Export Plug-In . SVG Version: 6.00 Build 0)  -->
<!DOCTYPE svg PUBLIC "-//W3C//DTD SVG 1.1//EN" "http://www.w3.org/Graphics/SVG/1.1/DTD/svg11.dtd">
<svg version="1.1" id="Layer_1" xmlns="http://www.w3.org/2000/svg" xmlns:xlink="http://www.w3.org/1999/xlink" x="0px" y="0px"
	 width="266.333px" height="265px" viewBox="0 0 266.333 265" enable-background="new 0 0 266.333 265" xml:space="preserve">
<g>
	<rect x="6.4" y="2.667" fill="#16A314" width="253.534" height="30.082"/>
	<g>
		<path fill="#FFFFFF" d="M95.861,24.707V10.315h2.921v14.392H95.861z"/>
		<path fill="#FFFFFF" d="M109.657,24.135l0.508-2.434c2.244,0.528,3.831,0.635,4.953,0.635c1.481,0,2.37-0.678,2.37-1.63
			c0-1.333-1.651-1.608-3.323-2.074c-2.497-0.698-4.296-2.074-4.296-4.508c0-2.899,2.392-4.021,5.249-4.021
			c1.629,0,3.11,0.212,5.079,0.805l-0.656,2.434c-2.265-0.529-3.322-0.635-4.423-0.635c-1.481,0-2.181,0.635-2.181,1.503
			c0,1.185,1.545,1.565,3.281,1.989c2.497,0.571,4.338,1.757,4.338,4.275c0,3.068-2.37,4.444-5.438,4.444
			C113.467,24.919,111.626,24.707,109.657,24.135z"/>
		<path fill="#FFFFFF" d="M124.724,24.707V10.315h2.921v5.672h5.502v-5.672h2.899v14.392h-2.899v-6.138h-5.502v6.138H124.724z"/>
		<path fill="#FFFFFF" d="M140.34,17.405c0-4.063,1.354-7.302,6.413-7.302c5.058,0,6.392,3.238,6.392,7.302
			c0,4.106-1.334,7.514-6.392,7.514C141.694,24.919,140.34,21.511,140.34,17.405z M143.409,17.405c0,2.857,0.508,5.079,3.344,5.079
			s3.322-2.222,3.322-5.079c0-2.856-0.486-4.867-3.322-4.867S143.409,14.549,143.409,17.405z"/>
		<path fill="#FFFFFF" d="M160.358,19.628v5.079h-2.921V10.315h6.138c3.026,0,4.762,1.862,4.762,4.656
			c0,2.857-1.735,4.656-4.762,4.656H160.358z M160.358,17.046h2.899c1.228,0,2.095-0.571,2.095-2.074
			c0-1.46-0.867-2.053-2.095-2.053h-2.899V17.046z"/>
	</g>
	<g>
		<g>
			<path fill="#1E5035" d="M65.315,211.953h1.439v-8.923h-1.439v-1.458h8.689v3.095h-1.547v-1.655h-4.066v3.67h3.742v1.403h-3.742
				v3.886h4.066v-1.655h1.564v3.095h-8.707V211.953z"/>
			<path fill="#1E5035" d="M78.733,207.006c0.738-0.792,1.71-1.493,2.825-1.493c0.971,0,1.637,0.378,2.032,0.989
				c0.252,0.432,0.396,0.972,0.396,1.619v3.994h1.205v1.295h-3.904v-1.295h1.151v-3.652c0-0.378-0.054-0.684-0.18-0.918
				c-0.216-0.413-0.594-0.611-1.151-0.611c-0.846,0-1.655,0.504-2.32,1.17v4.012h1.151v1.295h-3.886v-1.295h1.205v-5.128h-1.205
				v-1.331h2.68V207.006z"/>
			<path fill="#1E5035" d="M92.24,212.583c-0.144-0.307-0.233-0.702-0.233-1.134v-4.462h-1.458v-1.331h1.458v-1.781l1.547-0.629
				v2.41h2.356v1.331h-2.356v4.192c0,0.252,0.036,0.432,0.107,0.594c0.145,0.252,0.433,0.377,0.882,0.377
				c0.468,0,1.025-0.216,1.476-0.432l-0.162,1.386c-0.45,0.233-1.025,0.449-1.745,0.449
				C93.248,213.553,92.582,213.248,92.24,212.583z"/>
			<path fill="#1E5035" d="M97.653,209.542c0-2.177,1.583-4.029,4.048-4.029s4.048,1.835,4.048,4.029
				c0,2.159-1.602,4.012-4.048,4.012C99.219,213.553,97.653,211.718,97.653,209.542z M104.148,209.542
				c0-1.583-1.007-2.716-2.446-2.716c-1.457,0-2.465,1.133-2.465,2.716s1.008,2.699,2.465,2.699
				C103.141,212.241,104.148,211.125,104.148,209.542z"/>
			<path fill="#1E5035" d="M107.528,209.578c0-2.213,1.565-4.065,3.777-4.065c0.972,0,1.781,0.359,2.303,0.846v-4.786h-1.331v-1.331
				h2.879v11.874h1.205v1.295h-2.734v-0.989c-0.611,0.647-1.386,1.133-2.465,1.133C109.111,213.553,107.528,211.934,107.528,209.578
				z M113.609,211.215v-3.599c-0.558-0.432-1.223-0.756-2.122-0.756c-1.332,0-2.357,1.062-2.375,2.699
				c0,1.619,1.025,2.645,2.339,2.645C112.332,212.205,113.033,211.791,113.609,211.215z"/>
			<path fill="#1E5035" d="M117.888,211.34c0-1.421,1.26-2.338,3.041-2.338c0.81,0,1.709,0.18,2.122,0.306v-0.882
				c0-0.449-0.126-0.81-0.342-1.079c-0.323-0.396-0.863-0.594-1.619-0.594c-0.485,0-0.773,0.107-1.007,0.233
				c0.054,0.126,0.09,0.288,0.09,0.433c0,0.503-0.378,0.881-0.899,0.881c-0.54,0-0.918-0.378-0.918-0.917
				c0-0.918,1.008-1.871,2.986-1.871c1.206,0,2.087,0.359,2.608,0.972c0.396,0.468,0.594,1.079,0.594,1.78v3.851h1.206v1.295h-2.663
				v-0.936c-0.63,0.594-1.619,1.079-2.662,1.079C119.003,213.553,117.888,212.744,117.888,211.34z M123.051,211.466v-1.259
				c-0.521-0.144-1.187-0.27-1.889-0.27c-1.098,0-1.709,0.521-1.709,1.277c0,0.701,0.521,1.169,1.421,1.169
				C121.702,212.384,122.457,211.989,123.051,211.466z"/>
			<path fill="#1E5035" d="M131.414,212.115h1.259v-10.543h-1.259v-1.331h2.806v11.874h1.243v1.295h-4.048V212.115z"/>
			<path fill="#1E5035" d="M137.097,211.34c0-1.421,1.26-2.338,3.041-2.338c0.81,0,1.709,0.18,2.122,0.306v-0.882
				c0-0.449-0.126-0.81-0.342-1.079c-0.323-0.396-0.863-0.594-1.619-0.594c-0.485,0-0.773,0.107-1.007,0.233
				c0.054,0.126,0.09,0.288,0.09,0.433c0,0.503-0.378,0.881-0.899,0.881c-0.54,0-0.918-0.378-0.918-0.917
				c0-0.918,1.008-1.871,2.986-1.871c1.206,0,2.087,0.359,2.608,0.972c0.396,0.468,0.594,1.079,0.594,1.78v3.851h1.206v1.295h-2.663
				v-0.936c-0.63,0.594-1.619,1.079-2.662,1.079C138.213,213.553,137.097,212.744,137.097,211.34z M142.26,211.466v-1.259
				c-0.521-0.144-1.187-0.27-1.889-0.27c-1.098,0-1.709,0.521-1.709,1.277c0,0.701,0.521,1.169,1.421,1.169
				C140.912,212.384,141.667,211.989,142.26,211.466z"/>
			<path fill="#1E5035" d="M152.008,212.583c-0.144-0.307-0.233-0.702-0.233-1.134v-4.462h-1.458v-1.331h1.458v-1.781l1.547-0.629
				v2.41h2.356v1.331h-2.356v4.192c0,0.252,0.036,0.432,0.107,0.594c0.145,0.252,0.433,0.377,0.882,0.377
				c0.468,0,1.025-0.216,1.476-0.432l-0.162,1.386c-0.45,0.233-1.025,0.449-1.745,0.449
				C153.016,213.553,152.35,213.248,152.008,212.583z"/>
			<path fill="#1E5035" d="M157.385,212.115h1.26v-5.128h-1.26v-1.331h2.807v6.459h1.241v1.295h-4.048V212.115z M158.123,202.885
				c0-0.611,0.522-1.115,1.134-1.115c0.594,0,1.115,0.504,1.115,1.115c0,0.63-0.54,1.134-1.134,1.134
				C158.627,204.019,158.123,203.515,158.123,202.885z"/>
			<path fill="#1E5035" d="M164.688,210.028c0.216,1.475,1.295,2.194,2.807,2.194c0.989,0,1.835-0.306,2.752-0.827l-0.126,1.421
				c-0.81,0.504-1.799,0.737-2.86,0.737c-2.5,0-4.191-1.619-4.191-3.993c0-2.177,1.493-4.048,3.85-4.048
				c2.393,0,3.652,1.709,3.652,3.688c0,0.288-0.036,0.594-0.072,0.828H164.688z M164.688,208.877h4.336
				c-0.072-1.241-0.828-2.087-2.142-2.087C165.84,206.79,164.886,207.473,164.688,208.877z"/>
			<path fill="#1E5035" d="M174.923,207.006c0.738-0.792,1.71-1.493,2.825-1.493c0.971,0,1.637,0.378,2.032,0.989
				c0.252,0.432,0.396,0.972,0.396,1.619v3.994h1.205v1.295h-3.904v-1.295h1.151v-3.652c0-0.378-0.054-0.684-0.18-0.918
				c-0.216-0.413-0.594-0.611-1.151-0.611c-0.846,0-1.655,0.504-2.32,1.17v4.012h1.151v1.295h-3.886v-1.295h1.205v-5.128h-1.205
				v-1.331h2.68V207.006z"/>
			<path fill="#1E5035" d="M182.836,209.578c0-2.213,1.565-4.065,3.777-4.065c0.972,0,1.781,0.359,2.303,0.846v-4.786h-1.331v-1.331
				h2.879v11.874h1.205v1.295h-2.734v-0.989c-0.611,0.647-1.386,1.133-2.465,1.133C184.419,213.553,182.836,211.934,182.836,209.578
				z M188.916,211.215v-3.599c-0.558-0.432-1.223-0.756-2.122-0.756c-1.332,0-2.357,1.062-2.375,2.699
				c0,1.619,1.025,2.645,2.339,2.645C187.639,212.205,188.34,211.791,188.916,211.215z"/>
			<path fill="#1E5035" d="M193.196,211.34c0-1.421,1.26-2.338,3.041-2.338c0.81,0,1.709,0.18,2.122,0.306v-0.882
				c0-0.449-0.126-0.81-0.342-1.079c-0.323-0.396-0.863-0.594-1.619-0.594c-0.485,0-0.773,0.107-1.007,0.233
				c0.054,0.126,0.09,0.288,0.09,0.433c0,0.503-0.378,0.881-0.899,0.881c-0.54,0-0.918-0.378-0.918-0.917
				c0-0.918,1.008-1.871,2.986-1.871c1.206,0,2.087,0.359,2.608,0.972c0.396,0.468,0.594,1.079,0.594,1.78v3.851h1.206v1.295h-2.663
				v-0.936c-0.63,0.594-1.619,1.079-2.662,1.079C194.311,213.553,193.196,212.744,193.196,211.34z M198.359,211.466v-1.259
				c-0.521-0.144-1.187-0.27-1.889-0.27c-1.098,0-1.709,0.521-1.709,1.277c0,0.701,0.521,1.169,1.421,1.169
				C197.01,212.384,197.765,211.989,198.359,211.466z"/>
		</g>
	</g>
	<g>
	</g>
	<g>
		<g>
			<path fill="#1E5035" d="M159.516,97.549c0-5.59,3.056-9.101,8.841-9.101c5.72,0,8.841,3.51,8.841,9.101s-3.121,9.035-8.841,9.035
				C162.572,106.584,159.516,103.139,159.516,97.549z M173.426,97.549c0-3.9-1.689-6.045-5.069-6.045s-5.136,2.145-5.136,6.045
				c0,3.9,1.756,5.98,5.136,5.98S173.426,101.448,173.426,97.549z M171.217,132.975h-3.9l24.051-44.202h3.9L171.217,132.975z
				 M185.387,124.264c0-5.59,3.055-9.1,8.84-9.1c5.721,0,8.841,3.51,8.841,9.1c0,5.59-3.12,9.036-8.841,9.036
				C188.442,133.3,185.387,129.855,185.387,124.264z M199.298,124.264c0-3.9-1.689-6.045-5.07-6.045
				c-3.379,0-5.135,2.145-5.135,6.045c0,3.9,1.756,5.98,5.135,5.98C197.608,130.245,199.298,128.165,199.298,124.264z"/>
			<path fill="#1E5035" d="M157.786,151.531c0-4.125,1.237-7.49,6.297-7.49c5.037,0,6.297,3.365,6.297,7.49
				c0,4.191-1.26,7.709-6.297,7.709C159.023,159.24,157.786,155.722,157.786,151.531z M159.958,151.531
				c0,3.148,0.586,5.972,4.125,5.972c3.518,0,4.125-2.823,4.125-5.972s-0.607-5.754-4.125-5.754
				C160.544,145.777,159.958,148.382,159.958,151.531z"/>
			<path fill="#1E5035" d="M182.382,146.103h-7.165v4.776h6.188v1.846h-6.188v6.297h-2.063v-14.765h9.229V146.103z"/>
			<path fill="#1E5035" d="M194.428,146.103h-7.165v4.776h6.188v1.846h-6.188v6.297H185.2v-14.765h9.229V146.103z"/>
		</g>
		<g>
			<g>
				<g>
					<g>
						<path fill="#1E5035" d="M64.279,105.661l-2.565-8.017c8.338-3.741,17.423-8.444,22.981-12.826h6.947v73.218h-9.62V96.362
							L64.279,105.661z"/>
						<path fill="#1E5035" d="M100.299,121.16c0-20.309,5.023-36.877,25.653-36.877c20.522,0,25.652,16.568,25.652,36.877
							c0,20.629-5.13,37.945-25.652,37.945C105.322,159.105,100.299,141.789,100.299,121.16z M110.453,121.16
							c0,15.498,2.886,29.929,15.499,29.929c12.506,0,15.498-14.431,15.498-29.929c0-15.499-2.992-28.86-15.498-28.86
							C113.339,92.299,110.453,105.661,110.453,121.16z"/>
					</g>
				</g>
			</g>
		</g>
	</g>
</g>
<g>
</g>
<g>
</g>
<g>
</g>
<g>
</g>
<g>
</g>
<g>
</g>
<g>
</g>
<g>
</g>
<g>
</g>
<g>
</g>
<g>
</g>
<g>
</g>
<g>
</g>
<g>
</g>
<g>
</g>
</svg>
