<?xml version="1.0" encoding="utf-8"?>
<!-- Generator: Adobe Illustrator 17.0.0, SVG Export Plug-In . SVG Version: 6.00 Build 0)  -->
<!DOCTYPE svg PUBLIC "-//W3C//DTD SVG 1.1//EN" "http://www.w3.org/Graphics/SVG/1.1/DTD/svg11.dtd">
<svg version="1.1" id="Layer_1" xmlns="http://www.w3.org/2000/svg" xmlns:xlink="http://www.w3.org/1999/xlink" x="0px" y="0px"
	 width="266.333px" height="265px" viewBox="0 0 266.333 265" enable-background="new 0 0 266.333 265" xml:space="preserve">
<g>
	<g>
		<path fill="#1E5035" d="M167.401,94.086c0-5.59,3.055-9.101,8.84-9.101c5.721,0,8.84,3.51,8.84,9.101s-3.119,9.035-8.84,9.035
			C170.456,103.121,167.401,99.676,167.401,94.086z M181.311,94.086c0-3.9-1.69-6.045-5.07-6.045c-3.381,0-5.135,2.145-5.135,6.045
			c0,3.9,1.754,5.98,5.135,5.98C179.621,100.066,181.311,97.986,181.311,94.086z M179.1,129.512h-3.899l24.051-44.202h3.899
			L179.1,129.512z M193.271,120.802c0-5.59,3.056-9.1,8.841-9.1c5.72,0,8.84,3.51,8.84,9.1s-3.12,9.036-8.84,9.036
			C196.327,129.838,193.271,126.392,193.271,120.802z M207.182,120.802c0-3.9-1.69-6.045-5.07-6.045
			c-3.381,0-5.136,2.145-5.136,6.045c0,3.9,1.755,5.98,5.136,5.98C205.492,126.782,207.182,124.702,207.182,120.802z"/>
		<path fill="#1E5035" d="M165.67,148.069c0-4.125,1.237-7.491,6.297-7.491c5.037,0,6.297,3.366,6.297,7.491
			c0,4.191-1.26,7.709-6.297,7.709C166.907,155.778,165.67,152.26,165.67,148.069z M167.84,148.069c0,3.148,0.586,5.972,4.126,5.972
			c3.518,0,4.126-2.823,4.126-5.972s-0.608-5.754-4.126-5.754C168.426,142.315,167.84,144.921,167.84,148.069z"/>
		<path fill="#1E5035" d="M190.266,142.641H183.1v4.776h6.188v1.846H183.1v6.297h-2.062v-14.765h9.229V142.641z"/>
		<path fill="#1E5035" d="M202.313,142.641h-7.166v4.776h6.188v1.846h-6.188v6.297h-2.062v-14.765h9.229V142.641z"/>
	</g>
	<rect x="6.4" y="2.666" fill="#16A314" width="253.534" height="30.082"/>
	<g>
		<path fill="#FFFFFF" d="M30.806,18.501c1.566,0.466,2.603,1.63,2.603,3.492c0,2.455-1.587,3.937-4.592,3.937h-6.519V11.538h6.095
			c3.005,0,4.592,1.354,4.592,3.683c0,1.545-0.846,2.751-2.18,3.238V18.501z M28.076,14.141h-2.857v3.111h2.857
			c1.206,0,1.841-0.445,1.841-1.566C29.918,14.628,29.282,14.141,28.076,14.141z M25.219,19.855v3.492h3.111
			c1.228,0,2.01-0.402,2.01-1.757c0-1.291-0.783-1.735-2.116-1.735H25.219z"/>
		<path fill="#FFFFFF" d="M45.766,25.929l-3.026-5.122h-2.074v5.122h-2.92V11.538h6.138c3.026,0,4.762,1.82,4.762,4.635
			c0,1.947-0.91,3.577-2.857,4.148l3.365,5.608H45.766z M40.666,18.205h2.857c1.206,0,2.137-0.529,2.137-2.032
			c0-1.46-0.868-2.031-2.095-2.031h-2.899V18.205z"/>
		<path fill="#FFFFFF" d="M52.726,18.628c0-4.063,1.354-7.302,6.413-7.302c5.058,0,6.391,3.238,6.391,7.302
			c0,4.106-1.333,7.514-6.391,7.514C54.081,26.141,52.726,22.734,52.726,18.628z M55.795,18.628c0,2.857,0.508,5.079,3.344,5.079
			s3.323-2.222,3.323-5.079c0-2.856-0.487-4.867-3.323-4.867S55.795,15.771,55.795,18.628z"/>
		<path fill="#FFFFFF" d="M69.866,18.628c0-4.063,1.354-7.302,6.413-7.302c5.058,0,6.391,3.238,6.391,7.302
			c0,4.106-1.333,7.514-6.391,7.514C71.22,26.141,69.866,22.734,69.866,18.628z M72.935,18.628c0,2.857,0.508,5.079,3.344,5.079
			s3.323-2.222,3.323-5.079c0-2.856-0.487-4.867-3.323-4.867S72.935,15.771,72.935,18.628z"/>
		<path fill="#FFFFFF" d="M89.884,18.078l5.418-6.54h3.471l-5.016,6.074l5.058,8.317h-3.64l-3.534-5.989l-1.757,2.116v3.873h-2.92
			V11.538h2.92V18.078z"/>
		<path fill="#FFFFFF" d="M101.882,25.358l0.508-2.434c2.243,0.528,3.831,0.635,4.952,0.635c1.481,0,2.371-0.678,2.371-1.63
			c0-1.333-1.651-1.608-3.323-2.074c-2.498-0.698-4.296-2.074-4.296-4.508c0-2.899,2.392-4.021,5.249-4.021
			c1.63,0,3.111,0.212,5.08,0.805l-0.656,2.434c-2.265-0.529-3.323-0.635-4.423-0.635c-1.481,0-2.18,0.635-2.18,1.503
			c0,1.185,1.545,1.565,3.28,1.989c2.498,0.571,4.338,1.757,4.338,4.275c0,3.068-2.37,4.444-5.439,4.444
			C105.691,26.141,103.85,25.929,101.882,25.358z"/>
		<path fill="#FFFFFF" d="M132.184,18.501c1.566,0.466,2.604,1.63,2.604,3.492c0,2.455-1.588,3.937-4.593,3.937h-6.519V11.538h6.095
			c3.005,0,4.592,1.354,4.592,3.683c0,1.545-0.847,2.751-2.18,3.238V18.501z M129.454,14.141h-2.857v3.111h2.857
			c1.206,0,1.841-0.445,1.841-1.566C131.296,14.628,130.66,14.141,129.454,14.141z M126.597,19.855v3.492h3.111
			c1.228,0,2.01-0.402,2.01-1.757c0-1.291-0.783-1.735-2.116-1.735H126.597z"/>
		<path fill="#FFFFFF" d="M147.144,25.929l-3.027-5.122h-2.073v5.122h-2.921V11.538h6.138c3.026,0,4.762,1.82,4.762,4.635
			c0,1.947-0.91,3.577-2.857,4.148l3.365,5.608H147.144z M142.044,18.205h2.856c1.207,0,2.138-0.529,2.138-2.032
			c0-1.46-0.867-2.031-2.095-2.031h-2.899V18.205z"/>
		<path fill="#FFFFFF" d="M154.104,18.628c0-4.063,1.354-7.302,6.413-7.302c5.058,0,6.392,3.238,6.392,7.302
			c0,4.106-1.334,7.514-6.392,7.514C155.459,26.141,154.104,22.734,154.104,18.628z M157.174,18.628
			c0,2.857,0.508,5.079,3.344,5.079s3.322-2.222,3.322-5.079c0-2.856-0.486-4.867-3.322-4.867S157.174,15.771,157.174,18.628z"/>
		<path fill="#FFFFFF" d="M177.233,14.141v11.788h-2.92V14.141h-3.788v-2.604h10.476v2.604H177.233z"/>
		<path fill="#FFFFFF" d="M185.337,25.929V11.538h2.921v5.672h5.502v-5.672h2.899v14.392h-2.899v-6.138h-5.502v6.138H185.337z"/>
		<path fill="#FFFFFF" d="M211.154,14.141h-6.814v3.068h5.862v2.582h-5.862v3.556h6.92v2.582h-9.841V11.538h9.735V14.141z"/>
		<path fill="#FFFFFF" d="M223.83,25.929l-3.027-5.122h-2.073v5.122h-2.921V11.538h6.138c3.026,0,4.762,1.82,4.762,4.635
			c0,1.947-0.91,3.577-2.857,4.148l3.365,5.608H223.83z M218.729,18.205h2.856c1.207,0,2.138-0.529,2.138-2.032
			c0-1.46-0.867-2.031-2.095-2.031h-2.899V18.205z"/>
		<path fill="#FFFFFF" d="M230.789,25.358l0.508-2.434c2.244,0.528,3.831,0.635,4.953,0.635c1.481,0,2.37-0.678,2.37-1.63
			c0-1.333-1.651-1.608-3.323-2.074c-2.497-0.698-4.296-2.074-4.296-4.508c0-2.899,2.392-4.021,5.249-4.021
			c1.629,0,3.11,0.212,5.079,0.805l-0.656,2.434c-2.265-0.529-3.323-0.635-4.423-0.635c-1.481,0-2.181,0.635-2.181,1.503
			c0,1.185,1.545,1.565,3.28,1.989c2.498,0.571,4.339,1.757,4.339,4.275c0,3.068-2.37,4.444-5.438,4.444
			C234.598,26.141,232.757,25.929,230.789,25.358z"/>
	</g>
	<g>
		<g>
			<path fill="#1E5035" d="M65.656,208.103h1.439v-8.923h-1.439v-1.458h8.689v3.095h-1.547v-1.655h-4.065v3.67h3.742v1.403h-3.742
				v3.886h4.065v-1.655h1.565v3.095h-8.708V208.103z"/>
			<path fill="#1E5035" d="M79.074,203.156c0.738-0.792,1.709-1.493,2.824-1.493c0.972,0,1.637,0.378,2.033,0.989
				c0.252,0.432,0.396,0.972,0.396,1.619v3.994h1.206v1.295h-3.904v-1.295h1.151v-3.652c0-0.378-0.054-0.684-0.18-0.918
				c-0.216-0.413-0.594-0.611-1.151-0.611c-0.845,0-1.655,0.504-2.321,1.17v4.012h1.151v1.295h-3.886v-1.295h1.206v-5.128h-1.206
				v-1.331h2.681V203.156z"/>
			<path fill="#1E5035" d="M92.581,208.733c-0.144-0.307-0.234-0.702-0.234-1.134v-4.462H90.89v-1.331h1.457v-1.781l1.547-0.629
				v2.41h2.356v1.331h-2.356v4.192c0,0.252,0.036,0.432,0.108,0.594c0.144,0.252,0.432,0.377,0.881,0.377
				c0.468,0,1.025-0.216,1.475-0.432l-0.162,1.386c-0.45,0.233-1.025,0.449-1.745,0.449
				C93.589,209.704,92.923,209.398,92.581,208.733z"/>
			<path fill="#1E5035" d="M97.887,205.692c0-2.177,1.583-4.029,4.048-4.029c2.464,0,4.047,1.835,4.047,4.029
				c0,2.159-1.601,4.012-4.047,4.012C99.452,209.704,97.887,207.869,97.887,205.692z M104.382,205.692
				c0-1.583-1.007-2.716-2.446-2.716c-1.458,0-2.465,1.133-2.465,2.716s1.007,2.699,2.465,2.699
				C103.374,208.391,104.382,207.275,104.382,205.692z"/>
			<path fill="#1E5035" d="M107.761,205.728c0-2.213,1.565-4.065,3.778-4.065c0.971,0,1.781,0.359,2.303,0.846v-4.786h-1.332v-1.331
				h2.879v11.874h1.205v1.295h-2.734v-0.989c-0.612,0.647-1.385,1.133-2.465,1.133C109.344,209.704,107.761,208.085,107.761,205.728
				z M113.842,207.366v-3.599c-0.558-0.432-1.223-0.756-2.123-0.756c-1.331,0-2.356,1.062-2.375,2.699
				c0,1.619,1.025,2.645,2.339,2.645C112.565,208.355,113.266,207.941,113.842,207.366z"/>
			<path fill="#1E5035" d="M117.978,207.491c0-1.421,1.259-2.338,3.04-2.338c0.81,0,1.709,0.18,2.123,0.306v-0.882
				c0-0.449-0.126-0.81-0.342-1.079c-0.324-0.396-0.864-0.594-1.619-0.594c-0.486,0-0.774,0.107-1.007,0.233
				c0.054,0.126,0.09,0.288,0.09,0.433c0,0.503-0.378,0.881-0.899,0.881c-0.54,0-0.917-0.378-0.917-0.917
				c0-0.918,1.007-1.871,2.986-1.871c1.205,0,2.086,0.359,2.608,0.972c0.396,0.468,0.594,1.079,0.594,1.78v3.851h1.205v1.295h-2.663
				v-0.936c-0.629,0.594-1.619,1.079-2.662,1.079C119.093,209.704,117.978,208.894,117.978,207.491z M123.141,207.617v-1.259
				c-0.522-0.144-1.188-0.27-1.889-0.27c-1.097,0-1.709,0.521-1.709,1.277c0,0.701,0.521,1.169,1.421,1.169
				C121.791,208.535,122.547,208.139,123.141,207.617z"/>
			<path fill="#1E5035" d="M131.504,208.265h1.259v-10.543h-1.259v-1.331h2.806v11.874h1.242v1.295h-4.048V208.265z"/>
			<path fill="#1E5035" d="M137.043,207.491c0-1.421,1.26-2.338,3.041-2.338c0.81,0,1.709,0.18,2.122,0.306v-0.882
				c0-0.449-0.126-0.81-0.342-1.079c-0.323-0.396-0.863-0.594-1.619-0.594c-0.485,0-0.773,0.107-1.007,0.233
				c0.054,0.126,0.09,0.288,0.09,0.433c0,0.503-0.378,0.881-0.899,0.881c-0.54,0-0.918-0.378-0.918-0.917
				c0-0.918,1.008-1.871,2.986-1.871c1.206,0,2.087,0.359,2.608,0.972c0.396,0.468,0.594,1.079,0.594,1.78v3.851h1.206v1.295h-2.663
				v-0.936c-0.63,0.594-1.619,1.079-2.662,1.079C138.158,209.704,137.043,208.894,137.043,207.491z M142.206,207.617v-1.259
				c-0.521-0.144-1.187-0.27-1.889-0.27c-1.098,0-1.709,0.521-1.709,1.277c0,0.701,0.521,1.169,1.421,1.169
				C140.857,208.535,141.612,208.139,142.206,207.617z"/>
			<path fill="#1E5035" d="M151.954,208.733c-0.144-0.307-0.233-0.702-0.233-1.134v-4.462h-1.458v-1.331h1.458v-1.781l1.547-0.629
				v2.41h2.356v1.331h-2.356v4.192c0,0.252,0.036,0.432,0.107,0.594c0.145,0.252,0.433,0.377,0.882,0.377
				c0.468,0,1.025-0.216,1.476-0.432l-0.162,1.386c-0.45,0.233-1.025,0.449-1.745,0.449
				C152.962,209.704,152.296,209.398,151.954,208.733z"/>
			<path fill="#1E5035" d="M157.331,208.265h1.26v-5.128h-1.26v-1.331h2.807v6.459h1.241v1.295h-4.048V208.265z M158.068,199.036
				c0-0.611,0.522-1.115,1.134-1.115c0.594,0,1.115,0.504,1.115,1.115c0,0.63-0.54,1.134-1.134,1.134
				C158.572,200.17,158.068,199.666,158.068,199.036z"/>
			<path fill="#1E5035" d="M164.633,206.178c0.216,1.475,1.295,2.194,2.807,2.194c0.989,0,1.835-0.306,2.752-0.827l-0.126,1.421
				c-0.81,0.504-1.799,0.737-2.86,0.737c-2.5,0-4.191-1.619-4.191-3.993c0-2.177,1.493-4.048,3.85-4.048
				c2.393,0,3.652,1.709,3.652,3.688c0,0.288-0.036,0.594-0.072,0.828H164.633z M164.633,205.027h4.336
				c-0.072-1.241-0.828-2.087-2.142-2.087C165.785,202.94,164.832,203.624,164.633,205.027z"/>
			<path fill="#1E5035" d="M174.868,203.156c0.738-0.792,1.71-1.493,2.825-1.493c0.971,0,1.637,0.378,2.032,0.989
				c0.252,0.432,0.396,0.972,0.396,1.619v3.994h1.205v1.295h-3.904v-1.295h1.151v-3.652c0-0.378-0.054-0.684-0.18-0.918
				c-0.216-0.413-0.594-0.611-1.151-0.611c-0.846,0-1.655,0.504-2.32,1.17v4.012h1.151v1.295h-3.886v-1.295h1.205v-5.128h-1.205
				v-1.331h2.68V203.156z"/>
			<path fill="#1E5035" d="M182.637,205.728c0-2.213,1.565-4.065,3.777-4.065c0.972,0,1.781,0.359,2.303,0.846v-4.786h-1.331v-1.331
				h2.879v11.874h1.205v1.295h-2.734v-0.989c-0.611,0.647-1.386,1.133-2.465,1.133C184.22,209.704,182.637,208.085,182.637,205.728z
				 M188.717,207.366v-3.599c-0.558-0.432-1.223-0.756-2.122-0.756c-1.332,0-2.357,1.062-2.375,2.699
				c0,1.619,1.025,2.645,2.339,2.645C187.441,208.355,188.142,207.941,188.717,207.366z"/>
			<path fill="#1E5035" d="M192.853,207.491c0-1.421,1.26-2.338,3.041-2.338c0.81,0,1.709,0.18,2.122,0.306v-0.882
				c0-0.449-0.126-0.81-0.342-1.079c-0.323-0.396-0.863-0.594-1.619-0.594c-0.485,0-0.773,0.107-1.007,0.233
				c0.054,0.126,0.09,0.288,0.09,0.433c0,0.503-0.378,0.881-0.899,0.881c-0.54,0-0.918-0.378-0.918-0.917
				c0-0.918,1.008-1.871,2.986-1.871c1.206,0,2.087,0.359,2.608,0.972c0.396,0.468,0.594,1.079,0.594,1.78v3.851h1.206v1.295h-2.663
				v-0.936c-0.63,0.594-1.619,1.079-2.662,1.079C193.968,209.704,192.853,208.894,192.853,207.491z M198.016,207.617v-1.259
				c-0.521-0.144-1.187-0.27-1.889-0.27c-1.098,0-1.709,0.521-1.709,1.277c0,0.701,0.521,1.169,1.421,1.169
				C196.668,208.535,197.423,208.139,198.016,207.617z"/>
		</g>
	</g>
	<g>
		<g>
			<g>
				<path fill="#1E5035" d="M55.979,97.324l-2.886-7.696c7.803-3.421,14.002-5.345,22.981-5.345c15.712,0,22.981,9.94,22.981,21.698
					c0,14.965-11.01,28.325-32.387,43.29v0.214h33.456v8.551H53.093v-9.299c30.57-20.202,35.807-32.708,35.807-40.618
					c0-13.36-10.154-14.964-14.964-14.964C68.698,93.155,63.568,93.903,55.979,97.324z"/>
				<path fill="#1E5035" d="M107.602,153.76l2.886-7.375c7.589,3.634,13.254,4.703,19.561,4.703c10.368,0,16.567-6.2,16.567-16.033
					c0-7.055-3.421-15.179-14.429-15.179c-5.559,0-10.262,2.352-13.896,7.055l-7.054-0.642l1.71-40.938h39.548v8.551h-31.211
					l-1.496,24.37l0.214,0.107c3.634-3.848,9.192-6.841,15.499-6.841c12.934,0,21.271,8.337,21.271,22.98
					c0,16.033-10.154,24.585-26.187,24.585C122.139,159.105,115.405,157.502,107.602,153.76z"/>
			</g>
		</g>
	</g>
</g>
<g>
</g>
<g>
</g>
<g>
</g>
<g>
</g>
<g>
</g>
<g>
</g>
<g>
</g>
<g>
</g>
<g>
</g>
<g>
</g>
<g>
</g>
<g>
</g>
<g>
</g>
<g>
</g>
<g>
</g>
</svg>
