<?xml version="1.0" encoding="utf-8"?>
<!-- Generator: Adobe Illustrator 17.0.0, SVG Export Plug-In . SVG Version: 6.00 Build 0)  -->
<!DOCTYPE svg PUBLIC "-//W3C//DTD SVG 1.1//EN" "http://www.w3.org/Graphics/SVG/1.1/DTD/svg11.dtd">
<svg version="1.1" id="Layer_1" xmlns="http://www.w3.org/2000/svg" xmlns:xlink="http://www.w3.org/1999/xlink" x="0px" y="0px"
	 width="266.333px" height="265px" viewBox="0 0 266.333 265" enable-background="new 0 0 266.333 265" xml:space="preserve">
<g>
	<g>
		<path fill="#1E5035" d="M169.962,94.539c0-5.59,3.055-9.101,8.84-9.101c5.721,0,8.84,3.51,8.84,9.101s-3.119,9.035-8.84,9.035
			C173.016,103.574,169.962,100.129,169.962,94.539z M183.872,94.539c0-3.9-1.69-6.045-5.07-6.045c-3.381,0-5.135,2.145-5.135,6.045
			c0,3.9,1.754,5.98,5.135,5.98C182.181,100.519,183.872,98.439,183.872,94.539z M181.661,129.965h-3.899l24.051-44.202h3.899
			L181.661,129.965z M195.832,121.255c0-5.59,3.056-9.1,8.841-9.1c5.72,0,8.84,3.51,8.84,9.1s-3.12,9.036-8.84,9.036
			C198.887,130.29,195.832,126.845,195.832,121.255z M209.743,121.255c0-3.9-1.69-6.045-5.07-6.045
			c-3.381,0-5.136,2.145-5.136,6.045c0,3.9,1.755,5.98,5.136,5.98C208.052,127.235,209.743,125.155,209.743,121.255z"/>
		<path fill="#1E5035" d="M168.23,148.521c0-4.125,1.237-7.49,6.297-7.49c5.037,0,6.297,3.365,6.297,7.49
			c0,4.191-1.26,7.709-6.297,7.709C169.467,156.23,168.23,152.713,168.23,148.521z M170.401,148.521
			c0,3.148,0.586,5.972,4.126,5.972c3.518,0,4.126-2.823,4.126-5.972s-0.608-5.754-4.126-5.754
			C170.987,142.767,170.401,145.373,170.401,148.521z"/>
		<path fill="#1E5035" d="M192.827,143.093h-7.166v4.776h6.188v1.846h-6.188v6.297h-2.062v-14.765h9.229V143.093z"/>
		<path fill="#1E5035" d="M204.874,143.093h-7.166v4.776h6.188v1.846h-6.188v6.297h-2.062v-14.765h9.229V143.093z"/>
	</g>
	<g>
		<g>
			<path fill="#1E5035" d="M65.656,201.161h1.439v-8.923h-1.439v-1.458h8.689v3.095h-1.548v-1.655h-4.065v3.67h3.742v1.403h-3.742
				v3.886h4.065v-1.655h1.565v3.095h-8.707V201.161z"/>
			<path fill="#1E5035" d="M79.074,196.214c0.738-0.792,1.709-1.493,2.824-1.493c0.972,0,1.638,0.378,2.033,0.989
				c0.252,0.432,0.396,0.972,0.396,1.619v3.994h1.206v1.295h-3.904v-1.295h1.151v-3.652c0-0.378-0.054-0.684-0.18-0.918
				c-0.216-0.413-0.594-0.611-1.151-0.611c-0.846,0-1.655,0.504-2.321,1.17v4.012h1.151v1.295h-3.886v-1.295h1.206v-5.128h-1.206
				v-1.331h2.681V196.214z"/>
			<path fill="#1E5035" d="M92.581,201.791c-0.144-0.307-0.233-0.702-0.233-1.134v-4.462H90.89v-1.331h1.457v-1.781l1.547-0.629
				v2.41h2.356v1.331h-2.356v4.192c0,0.252,0.036,0.432,0.108,0.594c0.144,0.252,0.432,0.377,0.881,0.377
				c0.468,0,1.025-0.216,1.476-0.432l-0.162,1.386c-0.449,0.233-1.025,0.449-1.745,0.449
				C93.589,202.761,92.923,202.456,92.581,201.791z"/>
			<path fill="#1E5035" d="M97.887,198.75c0-2.177,1.583-4.029,4.048-4.029c2.464,0,4.047,1.835,4.047,4.029
				c0,2.159-1.601,4.012-4.047,4.012C99.452,202.761,97.887,200.926,97.887,198.75z M104.382,198.75
				c0-1.583-1.008-2.716-2.446-2.716c-1.458,0-2.465,1.133-2.465,2.716s1.007,2.699,2.465,2.699
				C103.374,201.449,104.382,200.333,104.382,198.75z"/>
			<path fill="#1E5035" d="M107.761,198.786c0-2.213,1.564-4.065,3.777-4.065c0.972,0,1.781,0.359,2.303,0.846v-4.786h-1.331v-1.331
				h2.879v11.874h1.205v1.295h-2.734v-0.989c-0.612,0.647-1.386,1.133-2.465,1.133C109.344,202.761,107.761,201.142,107.761,198.786
				z M113.841,200.424v-3.599c-0.558-0.432-1.223-0.756-2.123-0.756c-1.331,0-2.356,1.062-2.374,2.699
				c0,1.619,1.025,2.645,2.339,2.645C112.564,201.413,113.266,200.999,113.841,200.424z"/>
			<path fill="#1E5035" d="M117.977,200.549c0-1.421,1.26-2.338,3.04-2.338c0.81,0,1.709,0.18,2.123,0.306v-0.882
				c0-0.449-0.126-0.81-0.342-1.079c-0.323-0.396-0.863-0.594-1.619-0.594c-0.485,0-0.773,0.107-1.007,0.233
				c0.054,0.126,0.09,0.288,0.09,0.433c0,0.503-0.378,0.881-0.899,0.881c-0.54,0-0.918-0.378-0.918-0.917
				c0-0.918,1.008-1.871,2.986-1.871c1.205,0,2.087,0.359,2.608,0.972c0.396,0.468,0.594,1.079,0.594,1.78v3.851h1.205v1.295h-2.662
				v-0.936c-0.63,0.594-1.619,1.079-2.662,1.079C119.092,202.761,117.977,201.952,117.977,200.549z M123.14,200.674v-1.259
				c-0.521-0.144-1.188-0.27-1.889-0.27c-1.098,0-1.709,0.521-1.709,1.277c0,0.701,0.521,1.169,1.421,1.169
				C121.791,201.592,122.547,201.197,123.14,200.674z"/>
			<path fill="#1E5035" d="M131.503,201.323h1.26V190.78h-1.26v-1.331h2.807v11.874h1.241v1.295h-4.048V201.323z"/>
			<path fill="#1E5035" d="M137.043,200.549c0-1.421,1.26-2.338,3.04-2.338c0.81,0,1.709,0.18,2.123,0.306v-0.882
				c0-0.449-0.126-0.81-0.342-1.079c-0.323-0.396-0.863-0.594-1.619-0.594c-0.485,0-0.773,0.107-1.007,0.233
				c0.054,0.126,0.09,0.288,0.09,0.433c0,0.503-0.378,0.881-0.899,0.881c-0.54,0-0.918-0.378-0.918-0.917
				c0-0.918,1.008-1.871,2.986-1.871c1.205,0,2.087,0.359,2.608,0.972c0.396,0.468,0.594,1.079,0.594,1.78v3.851h1.205v1.295h-2.662
				v-0.936c-0.63,0.594-1.619,1.079-2.662,1.079C138.158,202.761,137.043,201.952,137.043,200.549z M142.206,200.674v-1.259
				c-0.521-0.144-1.188-0.27-1.889-0.27c-1.098,0-1.709,0.521-1.709,1.277c0,0.701,0.521,1.169,1.421,1.169
				C140.856,201.592,141.612,201.197,142.206,200.674z"/>
			<path fill="#1E5035" d="M151.953,201.791c-0.144-0.307-0.233-0.702-0.233-1.134v-4.462h-1.457v-1.331h1.457v-1.781l1.547-0.629
				v2.41h2.356v1.331h-2.356v4.192c0,0.252,0.036,0.432,0.108,0.594c0.144,0.252,0.432,0.377,0.881,0.377
				c0.468,0,1.025-0.216,1.476-0.432l-0.162,1.386c-0.449,0.233-1.025,0.449-1.745,0.449
				C152.961,202.761,152.295,202.456,151.953,201.791z"/>
			<path fill="#1E5035" d="M157.331,201.323h1.259v-5.128h-1.259v-1.331h2.807v6.459h1.241v1.295h-4.048V201.323z M158.068,192.093
				c0-0.611,0.521-1.115,1.134-1.115c0.594,0,1.115,0.504,1.115,1.115c0,0.63-0.54,1.134-1.134,1.134
				C158.572,193.227,158.068,192.723,158.068,192.093z"/>
			<path fill="#1E5035" d="M164.633,199.236c0.216,1.475,1.295,2.194,2.807,2.194c0.989,0,1.835-0.306,2.752-0.827l-0.126,1.421
				c-0.81,0.504-1.799,0.737-2.86,0.737c-2.501,0-4.191-1.619-4.191-3.993c0-2.177,1.493-4.048,3.85-4.048
				c2.393,0,3.652,1.709,3.652,3.688c0,0.288-0.036,0.594-0.072,0.828H164.633z M164.633,198.085h4.335
				c-0.071-1.241-0.827-2.087-2.141-2.087C165.785,195.998,164.831,196.681,164.633,198.085z"/>
			<path fill="#1E5035" d="M174.868,196.214c0.737-0.792,1.709-1.493,2.824-1.493c0.972,0,1.637,0.378,2.033,0.989
				c0.252,0.432,0.396,0.972,0.396,1.619v3.994h1.205v1.295h-3.903v-1.295h1.151v-3.652c0-0.378-0.055-0.684-0.181-0.918
				c-0.216-0.413-0.594-0.611-1.151-0.611c-0.845,0-1.654,0.504-2.32,1.17v4.012h1.151v1.295h-3.886v-1.295h1.205v-5.128h-1.205
				v-1.331h2.681V196.214z"/>
			<path fill="#1E5035" d="M182.637,198.786c0-2.213,1.564-4.065,3.777-4.065c0.972,0,1.781,0.359,2.303,0.846v-4.786h-1.331v-1.331
				h2.879v11.874h1.205v1.295h-2.734v-0.989c-0.612,0.647-1.386,1.133-2.465,1.133C184.22,202.761,182.637,201.142,182.637,198.786z
				 M188.717,200.424v-3.599c-0.558-0.432-1.223-0.756-2.123-0.756c-1.331,0-2.356,1.062-2.374,2.699
				c0,1.619,1.025,2.645,2.339,2.645C187.44,201.413,188.142,200.999,188.717,200.424z"/>
			<path fill="#1E5035" d="M192.853,200.549c0-1.421,1.26-2.338,3.04-2.338c0.81,0,1.709,0.18,2.123,0.306v-0.882
				c0-0.449-0.126-0.81-0.342-1.079c-0.323-0.396-0.863-0.594-1.619-0.594c-0.485,0-0.773,0.107-1.007,0.233
				c0.054,0.126,0.09,0.288,0.09,0.433c0,0.503-0.378,0.881-0.899,0.881c-0.54,0-0.918-0.378-0.918-0.917
				c0-0.918,1.008-1.871,2.986-1.871c1.205,0,2.087,0.359,2.608,0.972c0.396,0.468,0.594,1.079,0.594,1.78v3.851h1.205v1.295h-2.662
				v-0.936c-0.63,0.594-1.619,1.079-2.662,1.079C193.968,202.761,192.853,201.952,192.853,200.549z M198.016,200.674v-1.259
				c-0.521-0.144-1.188-0.27-1.889-0.27c-1.098,0-1.709,0.521-1.709,1.277c0,0.701,0.521,1.169,1.421,1.169
				C196.667,201.592,197.423,201.197,198.016,200.674z"/>
		</g>
	</g>
	<rect x="6.4" y="2.666" fill="#16A314" width="253.534" height="30.082"/>
	<g>
		<path fill="#FFFFFF" d="M55.985,21.014v5.079h-2.92V11.702h6.138c3.026,0,4.762,1.862,4.762,4.656
			c0,2.857-1.735,4.656-4.762,4.656H55.985z M55.985,18.432h2.899c1.228,0,2.096-0.572,2.096-2.074c0-1.46-0.868-2.053-2.096-2.053
			h-2.899V18.432z"/>
		<path fill="#FFFFFF" d="M74.607,22.834h-4.55l-0.974,3.259h-3.09l4.655-14.497h3.556l4.593,14.497h-3.217L74.607,22.834z
			 M72.321,15.236l-1.672,5.164h3.365l-1.65-5.164H72.321z"/>
		<path fill="#FFFFFF" d="M82.626,26.093V11.702h2.921l5.757,9.037h0.042v-9.037h2.814v14.392H91.26l-5.756-8.72h-0.043v8.72H82.626
			z"/>
		<path fill="#FFFFFF" d="M106.601,22.834h-4.55l-0.974,3.259h-3.09l4.656-14.497h3.556l4.593,14.497h-3.218L106.601,22.834z
			 M104.316,15.236l-1.672,5.164h3.365l-1.651-5.164H104.316z"/>
		<path fill="#FFFFFF" d="M122.049,21.247h0.042l3.387-9.545h3.852v14.392h-2.899v-9.143h-0.042l-3.429,9.143h-2.116l-3.344-9.143
			h-0.043v9.143h-2.836V11.702h3.873L122.049,21.247z"/>
		<path fill="#FFFFFF" d="M141.77,22.834h-4.55l-0.974,3.259h-3.09l4.655-14.497h3.556l4.593,14.497h-3.217L141.77,22.834z
			 M139.484,15.236l-1.672,5.164h3.365l-1.65-5.164H139.484z"/>
		<path fill="#FFFFFF" d="M156.432,26.093V11.702h2.921v5.672h5.503v-5.672h2.899v14.392h-2.899v-6.138h-5.503v6.138H156.432z"/>
		<path fill="#FFFFFF" d="M180.197,22.834h-4.55l-0.974,3.259h-3.09l4.655-14.497h3.556l4.593,14.497h-3.217L180.197,22.834z
			 M177.911,15.236l-1.672,5.164h3.365l-1.65-5.164H177.911z"/>
		<path fill="#FFFFFF" d="M192.576,14.305v11.788h-2.921V14.305h-3.788v-2.604h10.476v2.604H192.576z"/>
		<path fill="#FFFFFF" d="M200.023,25.522l0.508-2.434c2.243,0.529,3.831,0.635,4.952,0.635c1.481,0,2.371-0.678,2.371-1.63
			c0-1.333-1.651-1.608-3.323-2.074c-2.497-0.698-4.296-2.074-4.296-4.508c0-2.899,2.392-4.021,5.248-4.021
			c1.63,0,3.111,0.211,5.08,0.804l-0.656,2.434c-2.265-0.529-3.323-0.635-4.424-0.635c-1.481,0-2.18,0.635-2.18,1.503
			c0,1.185,1.545,1.566,3.28,1.989c2.498,0.571,4.339,1.756,4.339,4.275c0,3.069-2.37,4.444-5.439,4.444
			C203.833,26.305,201.991,26.093,200.023,25.522z"/>
	</g>
	<g>
		<g>
			<g>
				<path fill="#1E5035" d="M55.979,97.16l-2.886-7.696c7.803-3.42,14.002-5.344,22.98-5.344c15.713,0,22.981,9.94,22.981,21.698
					c0,14.964-11.01,28.325-32.388,43.289v0.214h33.456v8.551h-47.03v-9.299C83.663,128.371,88.9,115.865,88.9,107.956
					c0-13.361-10.154-14.964-14.964-14.964C68.699,92.991,63.568,93.739,55.979,97.16z"/>
				<path fill="#1E5035" d="M107.602,120.996c0-20.309,5.023-36.876,25.653-36.876c20.522,0,25.653,16.567,25.653,36.876
					c0,20.629-5.131,37.945-25.653,37.945C112.626,158.941,107.602,141.625,107.602,120.996z M117.757,120.996
					c0,15.499,2.886,29.929,15.499,29.929c12.506,0,15.499-14.43,15.499-29.929c0-15.499-2.993-28.859-15.499-28.859
					C120.642,92.136,117.757,105.497,117.757,120.996z"/>
			</g>
		</g>
	</g>
</g>
<g>
</g>
<g>
</g>
<g>
</g>
<g>
</g>
<g>
</g>
<g>
</g>
<g>
</g>
<g>
</g>
<g>
</g>
<g>
</g>
<g>
</g>
<g>
</g>
<g>
</g>
<g>
</g>
<g>
</g>
</svg>
