<?xml version="1.0" encoding="utf-8"?>
<!-- Generator: Adobe Illustrator 17.0.0, SVG Export Plug-In . SVG Version: 6.00 Build 0)  -->
<!DOCTYPE svg PUBLIC "-//W3C//DTD SVG 1.1//EN" "http://www.w3.org/Graphics/SVG/1.1/DTD/svg11.dtd">
<svg version="1.1" id="Layer_1" xmlns="http://www.w3.org/2000/svg" xmlns:xlink="http://www.w3.org/1999/xlink" x="0px" y="0px"
	 width="266.333px" height="265px" viewBox="0 0 266.333 265" enable-background="new 0 0 266.333 265" xml:space="preserve">
<g>
	<g>
		<path fill="#1E5035" d="M163.262,95.823c0-5.59,3.056-9.101,8.841-9.101c5.72,0,8.841,3.51,8.841,9.101s-3.121,9.035-8.841,9.035
			C166.318,104.858,163.262,101.413,163.262,95.823z M177.173,95.823c0-3.9-1.689-6.045-5.069-6.045s-5.136,2.145-5.136,6.045
			c0,3.9,1.756,5.98,5.136,5.98S177.173,99.723,177.173,95.823z M174.964,131.249h-3.9l24.051-44.202h3.9L174.964,131.249z
			 M189.133,122.539c0-5.59,3.055-9.1,8.84-9.1c5.721,0,8.841,3.51,8.841,9.1c0,5.59-3.12,9.036-8.841,9.036
			C192.188,131.574,189.133,128.129,189.133,122.539z M203.044,122.539c0-3.9-1.689-6.045-5.07-6.045
			c-3.379,0-5.135,2.145-5.135,6.045c0,3.9,1.756,5.98,5.135,5.98C201.354,128.519,203.044,126.439,203.044,122.539z"/>
		<path fill="#1E5035" d="M161.532,149.805c0-4.125,1.237-7.49,6.297-7.49c5.037,0,6.297,3.365,6.297,7.49
			c0,4.191-1.26,7.709-6.297,7.709C162.769,157.514,161.532,153.997,161.532,149.805z M163.704,149.805
			c0,3.148,0.586,5.972,4.125,5.972c3.518,0,4.125-2.823,4.125-5.972s-0.607-5.754-4.125-5.754
			C164.29,144.051,163.704,146.657,163.704,149.805z"/>
		<path fill="#1E5035" d="M186.128,144.378h-7.165v4.776h6.188V151h-6.188v6.297h-2.063v-14.765h9.229V144.378z"/>
		<path fill="#1E5035" d="M198.174,144.378h-7.165v4.776h6.188V151h-6.188v6.297h-2.063v-14.765h9.229V144.378z"/>
	</g>
	<g>
		<g>
			<path fill="#1E5035" d="M65.656,201.446h1.439v-8.924h-1.439v-1.457h8.689v3.095h-1.547v-1.655h-4.065v3.67h3.742v1.403h-3.742
				v3.886h4.065v-1.655h1.565v3.095h-8.708V201.446z"/>
			<path fill="#1E5035" d="M79.074,196.499c0.738-0.792,1.709-1.493,2.824-1.493c0.972,0,1.637,0.377,2.033,0.989
				c0.252,0.432,0.396,0.972,0.396,1.619v3.993h1.206v1.296h-3.904v-1.296h1.151v-3.651c0-0.378-0.054-0.684-0.18-0.918
				c-0.216-0.413-0.594-0.611-1.151-0.611c-0.845,0-1.655,0.504-2.321,1.169v4.012h1.151v1.296h-3.886v-1.296h1.206v-5.127h-1.206
				v-1.331h2.681V196.499z"/>
			<path fill="#1E5035" d="M92.581,202.075c-0.144-0.306-0.234-0.701-0.234-1.133v-4.462H90.89v-1.331h1.457v-1.781l1.547-0.63
				v2.411h2.356v1.331h-2.356v4.191c0,0.252,0.036,0.433,0.108,0.594c0.144,0.252,0.432,0.378,0.881,0.378
				c0.468,0,1.025-0.216,1.475-0.432l-0.162,1.386c-0.45,0.233-1.025,0.449-1.745,0.449
				C93.589,203.047,92.923,202.741,92.581,202.075z"/>
			<path fill="#1E5035" d="M97.887,199.035c0-2.177,1.583-4.029,4.048-4.029c2.464,0,4.047,1.835,4.047,4.029
				c0,2.159-1.601,4.012-4.047,4.012C99.452,203.047,97.887,201.212,97.887,199.035z M104.382,199.035
				c0-1.583-1.007-2.717-2.446-2.717c-1.458,0-2.465,1.134-2.465,2.717s1.007,2.698,2.465,2.698
				C103.374,201.733,104.382,200.618,104.382,199.035z"/>
			<path fill="#1E5035" d="M107.761,199.071c0-2.213,1.565-4.065,3.778-4.065c0.971,0,1.781,0.359,2.303,0.845v-4.785h-1.332v-1.331
				h2.879v11.873h1.205v1.296h-2.734v-0.989c-0.612,0.647-1.385,1.133-2.465,1.133C109.344,203.047,107.761,201.427,107.761,199.071
				z M113.842,200.708v-3.598c-0.558-0.432-1.223-0.756-2.123-0.756c-1.331,0-2.356,1.062-2.375,2.698
				c0,1.619,1.025,2.645,2.339,2.645C112.565,201.697,113.266,201.284,113.842,200.708z"/>
			<path fill="#1E5035" d="M117.978,200.834c0-1.421,1.259-2.339,3.04-2.339c0.81,0,1.709,0.181,2.123,0.307v-0.882
				c0-0.45-0.126-0.81-0.342-1.079c-0.324-0.396-0.864-0.594-1.619-0.594c-0.486,0-0.774,0.107-1.007,0.233
				c0.054,0.126,0.09,0.288,0.09,0.432c0,0.504-0.378,0.882-0.899,0.882c-0.54,0-0.917-0.378-0.917-0.918
				c0-0.917,1.007-1.87,2.986-1.87c1.205,0,2.086,0.359,2.608,0.971c0.396,0.468,0.594,1.08,0.594,1.781v3.85h1.205v1.296h-2.663
				v-0.936c-0.629,0.594-1.619,1.079-2.662,1.079C119.093,203.047,117.978,202.237,117.978,200.834z M123.141,200.96v-1.259
				c-0.522-0.145-1.188-0.271-1.889-0.271c-1.097,0-1.709,0.522-1.709,1.277c0,0.702,0.521,1.17,1.421,1.17
				C121.791,201.878,122.547,201.481,123.141,200.96z"/>
			<path fill="#1E5035" d="M131.504,201.607h1.259v-10.542h-1.259v-1.331h2.806v11.873h1.242v1.296h-4.048V201.607z"/>
			<path fill="#1E5035" d="M137.043,200.834c0-1.421,1.26-2.339,3.041-2.339c0.81,0,1.709,0.181,2.122,0.307v-0.882
				c0-0.45-0.126-0.81-0.342-1.079c-0.323-0.396-0.863-0.594-1.619-0.594c-0.485,0-0.773,0.107-1.007,0.233
				c0.054,0.126,0.09,0.288,0.09,0.432c0,0.504-0.378,0.882-0.899,0.882c-0.54,0-0.918-0.378-0.918-0.918
				c0-0.917,1.008-1.87,2.986-1.87c1.206,0,2.087,0.359,2.608,0.971c0.396,0.468,0.594,1.08,0.594,1.781v3.85h1.206v1.296h-2.663
				v-0.936c-0.63,0.594-1.619,1.079-2.662,1.079C138.158,203.047,137.043,202.237,137.043,200.834z M142.206,200.96v-1.259
				c-0.521-0.145-1.187-0.271-1.889-0.271c-1.098,0-1.709,0.522-1.709,1.277c0,0.702,0.521,1.17,1.421,1.17
				C140.857,201.878,141.612,201.481,142.206,200.96z"/>
			<path fill="#1E5035" d="M151.954,202.075c-0.144-0.306-0.233-0.701-0.233-1.133v-4.462h-1.458v-1.331h1.458v-1.781l1.547-0.63
				v2.411h2.356v1.331h-2.356v4.191c0,0.252,0.036,0.433,0.107,0.594c0.145,0.252,0.433,0.378,0.882,0.378
				c0.468,0,1.025-0.216,1.476-0.432l-0.162,1.386c-0.45,0.233-1.025,0.449-1.745,0.449
				C152.962,203.047,152.296,202.741,151.954,202.075z"/>
			<path fill="#1E5035" d="M157.331,201.607h1.26v-5.127h-1.26v-1.331h2.807v6.458h1.241v1.296h-4.048V201.607z M158.068,192.379
				c0-0.611,0.522-1.115,1.134-1.115c0.594,0,1.115,0.504,1.115,1.115c0,0.63-0.54,1.134-1.134,1.134
				C158.572,193.512,158.068,193.008,158.068,192.379z"/>
			<path fill="#1E5035" d="M164.633,199.52c0.216,1.476,1.295,2.195,2.807,2.195c0.989,0,1.835-0.306,2.752-0.828l-0.126,1.422
				c-0.81,0.504-1.799,0.737-2.86,0.737c-2.5,0-4.191-1.619-4.191-3.994c0-2.177,1.493-4.047,3.85-4.047
				c2.393,0,3.652,1.709,3.652,3.688c0,0.288-0.036,0.594-0.072,0.827H164.633z M164.633,198.369h4.336
				c-0.072-1.241-0.828-2.087-2.142-2.087C165.785,196.282,164.832,196.966,164.633,198.369z"/>
			<path fill="#1E5035" d="M174.868,196.499c0.738-0.792,1.71-1.493,2.825-1.493c0.971,0,1.637,0.377,2.032,0.989
				c0.252,0.432,0.396,0.972,0.396,1.619v3.993h1.205v1.296h-3.904v-1.296h1.151v-3.651c0-0.378-0.054-0.684-0.18-0.918
				c-0.216-0.413-0.594-0.611-1.151-0.611c-0.846,0-1.655,0.504-2.32,1.169v4.012h1.151v1.296h-3.886v-1.296h1.205v-5.127h-1.205
				v-1.331h2.68V196.499z"/>
			<path fill="#1E5035" d="M182.637,199.071c0-2.213,1.565-4.065,3.777-4.065c0.972,0,1.781,0.359,2.303,0.845v-4.785h-1.331v-1.331
				h2.879v11.873h1.205v1.296h-2.734v-0.989c-0.611,0.647-1.386,1.133-2.465,1.133C184.22,203.047,182.637,201.427,182.637,199.071z
				 M188.717,200.708v-3.598c-0.558-0.432-1.223-0.756-2.122-0.756c-1.332,0-2.357,1.062-2.375,2.698
				c0,1.619,1.025,2.645,2.339,2.645C187.441,201.697,188.142,201.284,188.717,200.708z"/>
			<path fill="#1E5035" d="M192.853,200.834c0-1.421,1.26-2.339,3.041-2.339c0.81,0,1.709,0.181,2.122,0.307v-0.882
				c0-0.45-0.126-0.81-0.342-1.079c-0.323-0.396-0.863-0.594-1.619-0.594c-0.485,0-0.773,0.107-1.007,0.233
				c0.054,0.126,0.09,0.288,0.09,0.432c0,0.504-0.378,0.882-0.899,0.882c-0.54,0-0.918-0.378-0.918-0.918
				c0-0.917,1.008-1.87,2.986-1.87c1.206,0,2.087,0.359,2.608,0.971c0.396,0.468,0.594,1.08,0.594,1.781v3.85h1.206v1.296h-2.663
				v-0.936c-0.63,0.594-1.619,1.079-2.662,1.079C193.968,203.047,192.853,202.237,192.853,200.834z M198.016,200.96v-1.259
				c-0.521-0.145-1.187-0.271-1.889-0.271c-1.098,0-1.709,0.522-1.709,1.277c0,0.702,0.521,1.17,1.421,1.17
				C196.668,201.878,197.423,201.481,198.016,200.96z"/>
		</g>
	</g>
	<rect x="6.4" y="2.666" fill="#16A314" width="253.534" height="30.082"/>
	<g>
		<path fill="#FFFFFF" d="M98.411,21.013v5.079h-2.92V11.701h6.138c3.026,0,4.762,1.862,4.762,4.656
			c0,2.857-1.735,4.656-4.762,4.656H98.411z M98.411,18.431h2.899c1.228,0,2.095-0.572,2.095-2.074c0-1.46-0.868-2.053-2.095-2.053
			h-2.899V18.431z"/>
		<path fill="#FFFFFF" d="M118.747,26.092l-3.026-5.122h-2.074v5.122h-2.92V11.701h6.138c3.026,0,4.762,1.82,4.762,4.635
			c0,1.947-0.91,3.577-2.857,4.148l3.365,5.608H118.747z M113.647,18.368h2.857c1.206,0,2.137-0.529,2.137-2.032
			c0-1.46-0.868-2.032-2.095-2.032h-2.899V18.368z"/>
		<path fill="#FFFFFF" d="M134.702,21.013v-9.312h2.9v9.312c0,3.767-2.244,5.291-5.652,5.291c-3.407,0-5.671-1.523-5.671-5.291
			v-9.312h2.92v9.312c0,1.545,0.466,2.857,2.772,2.857C134.195,23.87,134.702,22.558,134.702,21.013z M130.533,8.145v2.434h-2.265
			V8.145H130.533z M135.612,8.145v2.434h-2.264V8.145H135.612z"/>
		<path fill="#FFFFFF" d="M142.36,26.092V11.701h2.922l5.756,9.037h0.043v-9.037h2.814v14.392h-2.9l-5.756-8.72h-0.043v8.72H142.36z
			"/>
		<path fill="#FFFFFF" d="M168.389,14.304h-6.814v3.068h5.861v2.582h-5.861v3.556h6.92v2.582h-9.842V11.701h9.736V14.304z"/>
	</g>
	<g>
		<g>
			<g>
				<g>
					<path fill="#1E5035" d="M54.91,97.335l-2.886-7.696c7.803-3.42,14.002-5.345,22.981-5.345c15.712,0,22.981,9.94,22.981,21.698
						c0,14.965-11.01,28.325-32.387,43.29v0.214h33.456v8.551H52.024v-9.299c30.57-20.202,35.807-32.708,35.807-40.618
						c0-13.36-10.154-14.964-14.964-14.964C67.63,93.166,62.499,93.914,54.91,97.335z"/>
					<path fill="#1E5035" d="M106.533,121.171c0-20.309,5.023-36.877,25.653-36.877c20.522,0,25.653,16.568,25.653,36.877
						c0,20.629-5.131,37.945-25.653,37.945C111.557,159.116,106.533,141.799,106.533,121.171z M116.688,121.171
						c0,15.498,2.886,29.929,15.499,29.929c12.506,0,15.499-14.431,15.499-29.929c0-15.499-2.993-28.86-15.499-28.86
						C119.573,92.31,116.688,105.672,116.688,121.171z"/>
				</g>
			</g>
		</g>
	</g>
</g>
<g>
</g>
<g>
</g>
<g>
</g>
<g>
</g>
<g>
</g>
<g>
</g>
<g>
</g>
<g>
</g>
<g>
</g>
<g>
</g>
<g>
</g>
<g>
</g>
<g>
</g>
<g>
</g>
<g>
</g>
</svg>
