<?xml version="1.0" encoding="utf-8"?>
<!-- Generator: Adobe Illustrator 17.0.0, SVG Export Plug-In . SVG Version: 6.00 Build 0)  -->
<!DOCTYPE svg PUBLIC "-//W3C//DTD SVG 1.1//EN" "http://www.w3.org/Graphics/SVG/1.1/DTD/svg11.dtd">
<svg version="1.1" id="Layer_1" xmlns="http://www.w3.org/2000/svg" xmlns:xlink="http://www.w3.org/1999/xlink" x="0px" y="0px"
	 width="266.333px" height="265px" viewBox="0 0 266.333 265" enable-background="new 0 0 266.333 265" xml:space="preserve">
<g>
	<g>
		<g>
			<path fill="#1E5035" d="M17.896,127.121h1.697V116.6h-1.697v-1.718H28.14v3.648h-1.824v-1.951h-4.793v4.326h4.412v1.654h-4.412
				v4.581h4.793v-1.951h1.846v3.648H17.896V127.121z"/>
			<path fill="#1E5035" d="M33.72,121.288c0.87-0.934,2.015-1.761,3.33-1.761c1.146,0,1.93,0.446,2.396,1.167
				c0.297,0.509,0.467,1.146,0.467,1.909v4.708h1.421v1.527h-4.603v-1.527h1.357v-4.306c0-0.445-0.063-0.806-0.212-1.081
				c-0.254-0.488-0.7-0.722-1.357-0.722c-0.997,0-1.951,0.594-2.736,1.379v4.729h1.357v1.527H30.56v-1.527h1.421v-6.045H30.56
				v-1.569h3.16V121.288z"/>
			<path fill="#1E5035" d="M47.997,131.468h1.421v-10.202h-1.421v-1.569h3.16v1.188c0.764-0.784,1.612-1.357,2.927-1.357
				c2.397,0,4.263,1.909,4.263,4.688c0,2.63-1.845,4.794-4.433,4.794c-1.04,0-1.951-0.382-2.672-0.976v3.436h1.633v1.527h-4.878
				V131.468z M56.46,124.236c0-1.909-1.167-3.118-2.715-3.118c-1.039,0-1.824,0.488-2.502,1.167v4.263
				c0.636,0.51,1.442,0.87,2.46,0.87C55.251,127.418,56.46,126.166,56.46,124.236z"/>
			<path fill="#1E5035" d="M67.915,120.864c0,0.657-0.53,1.229-1.167,1.229c-0.615,0-1.039-0.382-1.209-0.784
				c-0.679,0.212-1.463,0.976-1.909,1.845v4.157h1.675v1.527h-4.899v-1.527h1.421v-6.045h-1.421v-1.569h3.16v2.079
				c0.721-1.252,1.782-2.249,2.842-2.249C67.406,119.527,67.915,120.142,67.915,120.864z"/>
			<path fill="#1E5035" d="M69.168,124.278c0-2.566,1.867-4.751,4.772-4.751s4.772,2.164,4.772,4.751c0,2.546-1.888,4.73-4.772,4.73
				C71.013,129.008,69.168,126.844,69.168,124.278z M76.824,124.278c0-1.866-1.188-3.202-2.884-3.202
				c-1.718,0-2.906,1.336-2.906,3.202c0,1.867,1.188,3.182,2.906,3.182C75.637,127.46,76.824,126.145,76.824,124.278z"/>
			<path fill="#1E5035" d="M80.813,124.321c0-2.609,1.846-4.794,4.454-4.794c1.146,0,2.1,0.425,2.715,0.997v-5.642h-1.569v-1.569
				h3.394v13.998h1.421v1.527h-3.224v-1.167c-0.721,0.764-1.633,1.337-2.906,1.337C82.68,129.008,80.813,127.099,80.813,124.321z
				 M87.982,126.251v-4.241c-0.657-0.51-1.442-0.892-2.502-0.892c-1.57,0-2.779,1.252-2.8,3.182c0,1.909,1.209,3.118,2.757,3.118
				C86.476,127.418,87.303,126.929,87.982,126.251z"/>
			<path fill="#1E5035" d="M94.474,127.799c-0.276-0.509-0.424-1.124-0.424-1.866v-4.667h-1.421v-1.569h3.224v5.833
				c0,0.467,0.085,0.827,0.233,1.103c0.254,0.488,0.679,0.7,1.336,0.7c0.997,0,1.93-0.615,2.736-1.379v-4.688h-1.463v-1.569h3.288
				v7.614h1.421v1.527h-3.182v-1.591c-0.87,0.934-2.015,1.761-3.33,1.761C95.725,129.008,94.941,128.542,94.474,127.799z"/>
			<path fill="#1E5035" d="M105.251,124.236c0-2.46,1.973-4.709,4.582-4.709c2.269,0,3.923,1.485,3.923,2.885
				c0,0.807-0.551,1.357-1.293,1.357c-0.594,0-1.146-0.467-1.146-1.146c0-0.297,0.148-0.594,0.382-0.763
				c-0.212-0.425-0.976-0.827-1.866-0.827c-1.23,0-2.736,1.039-2.736,3.244c0,1.888,1.379,3.161,3.266,3.161
				c1.061,0,2.015-0.318,3.139-0.976l-0.169,1.675c-0.934,0.594-2.015,0.87-3.139,0.87
				C107.35,129.008,105.251,127.057,105.251,124.236z"/>
			<path fill="#1E5035" d="M117.384,127.863c-0.17-0.36-0.276-0.827-0.276-1.336v-5.261h-1.718v-1.569h1.718v-2.1l1.824-0.742v2.842
				h2.778v1.569h-2.778v4.942c0,0.297,0.042,0.509,0.127,0.7c0.17,0.297,0.509,0.445,1.04,0.445c0.551,0,1.209-0.255,1.739-0.51
				l-0.191,1.634c-0.53,0.275-1.209,0.53-2.058,0.53C118.571,129.008,117.787,128.648,117.384,127.863z"/>
			<path fill="#1E5035" d="M123.642,124.278c0-2.566,1.866-4.751,4.772-4.751c2.906,0,4.772,2.164,4.772,4.751
				c0,2.546-1.888,4.73-4.772,4.73C125.487,129.008,123.642,126.844,123.642,124.278z M131.299,124.278
				c0-1.866-1.188-3.202-2.884-3.202c-1.718,0-2.906,1.336-2.906,3.202c0,1.867,1.188,3.182,2.906,3.182
				C130.111,127.46,131.299,126.145,131.299,124.278z"/>
			<path fill="#1E5035" d="M141.693,122.688c-0.637,0-1.103-0.403-1.103-1.019c0-0.148,0.021-0.318,0.084-0.467
				c-0.36-0.169-0.891-0.275-1.463-0.275c-1.167,0-1.803,0.572-1.803,1.166c0,0.679,0.699,0.955,2.163,1.337
				c1.973,0.509,3.415,1.039,3.415,2.757c0,1.824-1.74,2.842-3.733,2.842c-1.378,0-2.778-0.466-3.394-1.081
				c-0.34-0.34-0.509-0.722-0.509-1.188c0-0.595,0.425-1.104,1.039-1.104c0.594,0,1.082,0.403,1.082,1.061
				c0,0.17-0.021,0.318-0.085,0.467c0.34,0.212,1.018,0.424,1.866,0.424c1.103,0,1.993-0.424,1.993-1.229
				c0-0.658-0.656-0.976-2.014-1.315c-2.334-0.594-3.585-1.166-3.585-2.8c0-1.399,1.251-2.736,3.585-2.736
				c1.188,0,2.375,0.382,2.969,0.977c0.318,0.317,0.467,0.699,0.467,1.103C142.669,122.263,142.265,122.688,141.693,122.688z"/>
			<path fill="#1E5035" d="M150.54,126.039c0-0.891,0.53-1.463,1.273-1.463c0.763,0,1.271,0.572,1.271,1.166
				c0,0.382-0.105,0.657-0.275,0.912c0.488,0.424,1.422,0.742,2.545,0.742c1.697,0,2.779-0.827,2.779-2.206
				c0-1.314-1.273-1.93-2.758-2.481c-2.502-0.933-4.306-1.781-4.306-4.263c0-2.185,1.739-3.818,4.433-3.818
				c2.439,0,4.349,1.315,4.349,2.863c0,0.87-0.552,1.379-1.23,1.379c-0.806,0-1.294-0.594-1.294-1.23
				c0-0.339,0.106-0.551,0.233-0.742c-0.382-0.339-1.209-0.594-2.079-0.594c-1.548,0-2.48,0.827-2.48,1.994
				c0,1.336,1.251,1.908,2.842,2.523c2.396,0.891,4.199,1.761,4.199,4.221c0,2.546-1.994,4.052-4.729,4.052
				C152.576,129.093,150.54,127.545,150.54,126.039z"/>
			<path fill="#1E5035" d="M162.186,126.399c0-1.675,1.484-2.757,3.584-2.757c0.955,0,2.015,0.212,2.503,0.36v-1.039
				c0-0.53-0.149-0.954-0.403-1.272c-0.382-0.467-1.018-0.7-1.908-0.7c-0.573,0-0.912,0.127-1.188,0.275
				c0.063,0.148,0.106,0.34,0.106,0.51c0,0.594-0.445,1.039-1.061,1.039c-0.637,0-1.082-0.445-1.082-1.082
				c0-1.081,1.188-2.206,3.521-2.206c1.42,0,2.46,0.425,3.074,1.146c0.467,0.552,0.701,1.272,0.701,2.1v4.539h1.42v1.527h-3.139
				v-1.103c-0.742,0.699-1.908,1.272-3.139,1.272C163.501,129.008,162.186,128.053,162.186,126.399z M168.273,126.548v-1.484
				c-0.615-0.17-1.399-0.318-2.228-0.318c-1.293,0-2.015,0.615-2.015,1.506c0,0.827,0.615,1.379,1.676,1.379
				C166.682,127.63,167.573,127.163,168.273,126.548z"/>
			<path fill="#1E5035" d="M173.11,127.311h1.421v-6.045h-1.421v-1.569h3.16v1.591c0.764-0.891,1.888-1.761,3.225-1.761
				c1.061,0,1.781,0.403,2.227,1.04c0.127,0.19,0.212,0.402,0.275,0.636c0.934-0.933,2.058-1.676,3.225-1.676
				c1.314,0,2.121,0.488,2.545,1.315c0.232,0.488,0.36,1.082,0.36,1.739v4.729h1.421v1.527h-4.603v-1.527h1.357v-4.326
				c0-0.425-0.063-0.764-0.169-1.04c-0.213-0.509-0.637-0.742-1.295-0.742c-0.933,0-1.803,0.552-2.608,1.337v4.771h1.337v1.527
				h-4.518v-1.527h1.357v-4.326c0-0.425-0.043-0.764-0.148-1.04c-0.234-0.509-0.637-0.742-1.295-0.742
				c-0.975,0-1.845,0.594-2.629,1.357v4.751h1.336v1.527h-4.561V127.311z"/>
			<path fill="#1E5035" d="M197.505,122.688c-0.637,0-1.104-0.403-1.104-1.019c0-0.148,0.021-0.318,0.085-0.467
				c-0.36-0.169-0.892-0.275-1.464-0.275c-1.166,0-1.803,0.572-1.803,1.166c0,0.679,0.7,0.955,2.164,1.337
				c1.973,0.509,3.414,1.039,3.414,2.757c0,1.824-1.739,2.842-3.732,2.842c-1.379,0-2.779-0.466-3.395-1.081
				c-0.339-0.34-0.508-0.722-0.508-1.188c0-0.595,0.424-1.104,1.039-1.104c0.594,0,1.082,0.403,1.082,1.061
				c0,0.17-0.021,0.318-0.086,0.467c0.34,0.212,1.019,0.424,1.867,0.424c1.103,0,1.993-0.424,1.993-1.229
				c0-0.658-0.657-0.976-2.015-1.315c-2.333-0.594-3.584-1.166-3.584-2.8c0-1.399,1.251-2.736,3.584-2.736
				c1.188,0,2.375,0.382,2.969,0.977c0.318,0.317,0.467,0.699,0.467,1.103C198.479,122.263,198.077,122.688,197.505,122.688z"/>
			<path fill="#1E5035" d="M200.899,124.278c0-2.566,1.866-4.751,4.771-4.751c2.906,0,4.772,2.164,4.772,4.751
				c0,2.546-1.888,4.73-4.772,4.73C202.745,129.008,200.899,126.844,200.899,124.278z M208.555,124.278
				c0-1.866-1.188-3.202-2.885-3.202c-1.718,0-2.905,1.336-2.905,3.202c0,1.867,1.188,3.182,2.905,3.182
				C207.368,127.46,208.555,126.145,208.555,124.278z"/>
			<path fill="#1E5035" d="M215.641,121.288c0.869-0.934,2.016-1.761,3.33-1.761c1.146,0,1.93,0.446,2.396,1.167
				c0.297,0.509,0.467,1.146,0.467,1.909v4.708h1.421v1.527h-4.603v-1.527h1.357v-4.306c0-0.445-0.063-0.806-0.212-1.081
				c-0.255-0.488-0.7-0.722-1.357-0.722c-0.997,0-1.951,0.594-2.735,1.379v4.729h1.357v1.527h-4.582v-1.527h1.421v-6.045h-1.421
				v-1.569h3.16V121.288z"/>
			<path fill="#1E5035" d="M224.933,127.311h1.484v-6.045h-1.484v-1.569h3.309v7.614h1.464v1.527h-4.772V127.311z M225.803,116.431
				c0-0.722,0.614-1.315,1.336-1.315c0.699,0,1.314,0.594,1.314,1.315c0,0.742-0.637,1.336-1.336,1.336
				C226.397,117.767,225.803,117.174,225.803,116.431z"/>
			<path fill="#1E5035" d="M233.1,127.863c-0.17-0.36-0.276-0.827-0.276-1.336v-5.261h-1.718v-1.569h1.718v-2.1l1.824-0.742v2.842
				h2.778v1.569h-2.778v4.942c0,0.297,0.042,0.509,0.127,0.7c0.17,0.297,0.509,0.445,1.04,0.445c0.551,0,1.209-0.255,1.738-0.51
				l-0.19,1.634c-0.53,0.275-1.209,0.53-2.058,0.53C234.288,129.008,233.503,128.648,233.1,127.863z"/>
			<path fill="#1E5035" d="M241.223,124.851c0.255,1.739,1.527,2.588,3.309,2.588c1.167,0,2.164-0.361,3.246-0.976l-0.148,1.675
				c-0.955,0.594-2.121,0.87-3.373,0.87c-2.947,0-4.941-1.909-4.941-4.709c0-2.566,1.76-4.772,4.539-4.772
				c2.82,0,4.305,2.016,4.305,4.349c0,0.339-0.042,0.7-0.084,0.976H241.223z M241.223,123.494h5.111
				c-0.084-1.464-0.975-2.46-2.523-2.46C242.581,121.034,241.458,121.84,241.223,123.494z"/>
			<path fill="#1E5035" d="M131.36,150.398h-5.629v-3.108h5.629v-5.671h3.192v5.671h5.629v3.108h-5.629v5.671h-3.192V150.398z"/>
		</g>
	</g>
	<rect x="6.4" y="2.666" fill="#16A314" width="253.534" height="30.082"/>
	<g>
		<path fill="#FFFFFF" d="M67.072,25.522l0.508-2.434c2.243,0.529,3.831,0.635,4.952,0.635c1.481,0,2.371-0.678,2.371-1.63
			c0-1.333-1.651-1.608-3.323-2.074c-2.498-0.698-4.296-2.074-4.296-4.508c0-2.899,2.392-4.021,5.249-4.021
			c1.63,0,3.111,0.211,5.08,0.804l-0.656,2.434c-2.265-0.529-3.323-0.635-4.423-0.635c-1.481,0-2.18,0.635-2.18,1.503
			c0,1.185,1.545,1.566,3.28,1.989c2.498,0.571,4.338,1.756,4.338,4.275c0,3.069-2.37,4.444-5.439,4.444
			C70.882,26.305,69.041,26.093,67.072,25.522z"/>
		<path fill="#FFFFFF" d="M89.61,22.834h-4.55l-0.974,3.259h-3.09l4.656-14.497h3.556L93.8,26.093h-3.217L89.61,22.834z
			 M87.324,15.236l-1.672,5.164h3.365l-1.651-5.164H87.324z"/>
		<path fill="#FFFFFF" d="M105.057,21.247h0.042l3.386-9.545h3.852v14.392h-2.899v-9.143h-0.042l-3.429,9.143h-2.116l-3.344-9.143
			h-0.042v9.143h-2.836V11.702h3.873L105.057,21.247z"/>
		<path fill="#FFFFFF" d="M116.503,25.522l0.508-2.434c2.243,0.529,3.831,0.635,4.952,0.635c1.481,0,2.371-0.678,2.371-1.63
			c0-1.333-1.651-1.608-3.323-2.074c-2.498-0.698-4.296-2.074-4.296-4.508c0-2.899,2.392-4.021,5.249-4.021
			c1.63,0,3.111,0.211,5.08,0.804l-0.656,2.434c-2.265-0.529-3.323-0.635-4.423-0.635c-1.481,0-2.18,0.635-2.18,1.503
			c0,1.185,1.545,1.566,3.28,1.989c2.498,0.571,4.338,1.756,4.338,4.275c0,3.069-2.37,4.444-5.439,4.444
			C120.313,26.305,118.471,26.093,116.503,25.522z"/>
		<path fill="#FFFFFF" d="M131.421,18.792c0-4.063,1.354-7.301,6.413-7.301c5.058,0,6.392,3.238,6.392,7.301
			c0,4.106-1.334,7.513-6.392,7.513C132.775,26.305,131.421,22.898,131.421,18.792z M134.489,18.792c0,2.857,0.508,5.08,3.344,5.08
			s3.323-2.222,3.323-5.08c0-2.857-0.487-4.868-3.323-4.868S134.489,15.935,134.489,18.792z"/>
		<path fill="#FFFFFF" d="M148.518,26.093V11.702h2.92l5.758,9.037h0.042v-9.037h2.814v14.392h-2.899l-5.756-8.72h-0.043v8.72
			H148.518z"/>
		<path fill="#FFFFFF" d="M164.811,26.093V11.702h2.921v14.392H164.811z"/>
		<path fill="#FFFFFF" d="M178.757,14.305v11.788h-2.92V14.305h-3.789v-2.604h10.477v2.604H178.757z"/>
		<path fill="#FFFFFF" d="M196.596,14.305h-6.815v3.068h5.862v2.582h-5.862v3.556h6.921v2.582h-9.842V11.702h9.736V14.305z"/>
	</g>
	<g>
		<g>
			<path fill="#1E5035" d="M12.689,239.087h1.697v-10.521h-1.697v-1.718h10.244v3.648h-1.824v-1.951h-4.793v4.326h4.412v1.654
				h-4.412v4.582h4.793v-1.952h1.846v3.648H12.689V239.087z"/>
			<path fill="#1E5035" d="M28.513,233.254c0.87-0.933,2.015-1.761,3.33-1.761c1.146,0,1.93,0.446,2.396,1.167
				c0.297,0.509,0.467,1.146,0.467,1.909v4.708h1.421v1.527h-4.603v-1.527h1.357v-4.306c0-0.445-0.063-0.806-0.212-1.081
				c-0.254-0.488-0.7-0.722-1.357-0.722c-0.997,0-1.951,0.594-2.736,1.379v4.729h1.357v1.527h-4.582v-1.527h1.421v-6.045h-1.421
				v-1.569h3.16V233.254z"/>
			<path fill="#1E5035" d="M42.79,243.434h1.421v-10.202H42.79v-1.569h3.16v1.188c0.764-0.784,1.612-1.357,2.927-1.357
				c2.397,0,4.263,1.909,4.263,4.688c0,2.63-1.845,4.794-4.433,4.794c-1.04,0-1.951-0.382-2.672-0.976v3.436h1.633v1.527H42.79
				V243.434z M51.252,236.202c0-1.909-1.167-3.118-2.715-3.118c-1.039,0-1.824,0.488-2.502,1.167v4.263
				c0.636,0.51,1.442,0.87,2.46,0.87C50.043,239.383,51.252,238.132,51.252,236.202z"/>
			<path fill="#1E5035" d="M62.707,232.83c0,0.657-0.53,1.229-1.167,1.229c-0.615,0-1.039-0.381-1.209-0.784
				c-0.679,0.212-1.463,0.976-1.909,1.845v4.157h1.675v1.527h-4.899v-1.527h1.421v-6.045h-1.421v-1.569h3.16v2.079
				c0.721-1.252,1.782-2.249,2.842-2.249C62.198,231.493,62.707,232.108,62.707,232.83z"/>
			<path fill="#1E5035" d="M63.96,236.244c0-2.565,1.867-4.751,4.772-4.751s4.772,2.164,4.772,4.751c0,2.546-1.888,4.73-4.772,4.73
				C65.806,240.974,63.96,238.81,63.96,236.244z M71.617,236.244c0-1.866-1.188-3.202-2.884-3.202c-1.718,0-2.906,1.336-2.906,3.202
				c0,1.867,1.188,3.182,2.906,3.182C70.429,239.425,71.617,238.111,71.617,236.244z"/>
			<path fill="#1E5035" d="M75.606,236.287c0-2.608,1.846-4.794,4.454-4.794c1.146,0,2.1,0.425,2.715,0.997v-5.642h-1.569v-1.569
				h3.394v13.998h1.421v1.527h-3.224v-1.167c-0.721,0.764-1.633,1.337-2.906,1.337C77.472,240.974,75.606,239.065,75.606,236.287z
				 M82.775,238.216v-4.241c-0.657-0.51-1.442-0.892-2.502-0.892c-1.57,0-2.779,1.252-2.8,3.182c0,1.909,1.209,3.118,2.757,3.118
				C81.269,239.383,82.096,238.895,82.775,238.216z"/>
			<path fill="#1E5035" d="M89.267,239.765c-0.276-0.509-0.424-1.124-0.424-1.866v-4.667h-1.421v-1.569h3.224v5.833
				c0,0.467,0.085,0.827,0.233,1.103c0.254,0.488,0.679,0.7,1.336,0.7c0.997,0,1.93-0.615,2.736-1.379v-4.688h-1.463v-1.569h3.288
				v7.614h1.421v1.527h-3.182v-1.591c-0.87,0.934-2.015,1.761-3.33,1.761C90.518,240.974,89.733,240.507,89.267,239.765z"/>
			<path fill="#1E5035" d="M100.043,236.202c0-2.46,1.973-4.709,4.582-4.709c2.269,0,3.923,1.485,3.923,2.885
				c0,0.807-0.551,1.357-1.293,1.357c-0.594,0-1.146-0.467-1.146-1.146c0-0.297,0.148-0.594,0.382-0.763
				c-0.212-0.425-0.976-0.828-1.866-0.828c-1.23,0-2.736,1.04-2.736,3.245c0,1.888,1.379,3.161,3.266,3.161
				c1.061,0,2.015-0.318,3.139-0.977l-0.169,1.676c-0.934,0.594-2.015,0.87-3.139,0.87
				C102.143,240.974,100.043,239.023,100.043,236.202z"/>
			<path fill="#1E5035" d="M112.176,239.829c-0.17-0.36-0.276-0.827-0.276-1.336v-5.261h-1.718v-1.569h1.718v-2.1l1.824-0.742v2.842
				h2.778v1.569h-2.778v4.942c0,0.297,0.042,0.509,0.127,0.7c0.17,0.297,0.509,0.445,1.04,0.445c0.551,0,1.209-0.255,1.739-0.51
				l-0.191,1.634c-0.53,0.275-1.209,0.53-2.058,0.53C113.364,240.974,112.579,240.614,112.176,239.829z"/>
			<path fill="#1E5035" d="M118.435,236.244c0-2.565,1.866-4.751,4.772-4.751s4.772,2.164,4.772,4.751
				c0,2.546-1.888,4.73-4.772,4.73C120.28,240.974,118.435,238.81,118.435,236.244z M126.091,236.244
				c0-1.866-1.188-3.202-2.884-3.202c-1.718,0-2.906,1.336-2.906,3.202c0,1.867,1.188,3.182,2.906,3.182
				C124.903,239.425,126.091,238.111,126.091,236.244z"/>
			<path fill="#1E5035" d="M136.485,234.654c-0.637,0-1.103-0.403-1.103-1.019c0-0.148,0.021-0.318,0.085-0.467
				c-0.361-0.17-0.891-0.275-1.464-0.275c-1.167,0-1.803,0.572-1.803,1.166c0,0.679,0.7,0.955,2.164,1.337
				c1.972,0.509,3.415,1.039,3.415,2.757c0,1.824-1.739,2.842-3.733,2.842c-1.378,0-2.778-0.466-3.394-1.081
				c-0.339-0.34-0.509-0.722-0.509-1.188c0-0.595,0.424-1.104,1.039-1.104c0.594,0,1.082,0.403,1.082,1.061
				c0,0.17-0.021,0.318-0.085,0.467c0.339,0.212,1.018,0.424,1.866,0.424c1.103,0,1.994-0.424,1.994-1.229
				c0-0.658-0.657-0.976-2.015-1.315c-2.333-0.594-3.584-1.166-3.584-2.8c0-1.399,1.251-2.736,3.584-2.736
				c1.188,0,2.376,0.382,2.97,0.977c0.318,0.317,0.467,0.699,0.467,1.103C137.462,234.229,137.057,234.654,136.485,234.654z"/>
			<path fill="#1E5035" d="M145.206,239.087h1.696v-10.521h-1.696v-1.718h5.578c3.371,0,4.877,1.633,4.877,3.585
				c0,1.654-1.039,2.735-2.48,3.202c1.803,0.509,2.885,1.549,2.885,3.309c0,2.248-1.824,3.86-5.027,3.86h-5.832V239.087z
				 M150.677,232.935c1.993,0,3.032-0.912,3.032-2.29c0-1.337-1.061-2.121-2.969-2.121h-1.93v4.411H150.677z M151.081,239.129
				c1.887,0,3.033-0.891,3.033-2.312c0-1.527-1.23-2.333-3.31-2.333h-1.993v4.645H151.081z"/>
			<path fill="#1E5035" d="M158.102,239.277h1.484v-12.429h-1.484v-1.569h3.309v13.998h1.464v1.527h-4.772V239.277z"/>
			<path fill="#1E5035" d="M164.635,238.365c0-1.675,1.485-2.757,3.585-2.757c0.954,0,2.015,0.212,2.503,0.36v-1.039
				c0-0.53-0.148-0.954-0.403-1.272c-0.382-0.467-1.019-0.7-1.909-0.7c-0.572,0-0.912,0.127-1.188,0.275
				c0.064,0.148,0.105,0.34,0.105,0.51c0,0.594-0.445,1.039-1.06,1.039c-0.636,0-1.082-0.445-1.082-1.082
				c0-1.081,1.188-2.206,3.521-2.206c1.422,0,2.461,0.425,3.076,1.146c0.467,0.552,0.699,1.272,0.699,2.1v4.539h1.422v1.527h-3.14
				v-1.103c-0.742,0.699-1.909,1.272-3.139,1.272C165.951,240.974,164.635,240.019,164.635,238.365z M170.723,238.513v-1.484
				c-0.615-0.17-1.4-0.318-2.227-0.318c-1.295,0-2.016,0.615-2.016,1.506c0,0.827,0.615,1.379,1.676,1.379
				C169.132,239.595,170.023,239.129,170.723,238.513z"/>
			<path fill="#1E5035" d="M175.433,236.202c0-2.46,1.973-4.709,4.581-4.709c2.27,0,3.924,1.485,3.924,2.885
				c0,0.807-0.551,1.357-1.293,1.357c-0.594,0-1.146-0.467-1.146-1.146c0-0.297,0.148-0.594,0.383-0.763
				c-0.213-0.425-0.977-0.828-1.867-0.828c-1.23,0-2.736,1.04-2.736,3.245c0,1.888,1.379,3.161,3.268,3.161
				c1.06,0,2.014-0.318,3.139-0.977l-0.17,1.676c-0.934,0.594-2.016,0.87-3.139,0.87
				C177.533,240.974,175.433,239.023,175.433,236.202z"/>
			<path fill="#1E5035" d="M185.913,239.277h1.42v-12.429h-1.42v-1.569h3.244v10.753l3.309-2.884h-1.548v-1.485h5.26v1.569h-1.654
				l-2.545,2.185l2.608,3.818h1.591v1.569h-2.673l-2.863-4.369l-1.484,1.272v1.591h1.336v1.506h-4.58V239.277z"/>
			<path fill="#1E5035" d="M203.18,239.087h1.696v-10.521h-1.696v-1.718h5.514v1.718h-1.887v10.542h4.411v-2.058h1.845v3.754h-9.883
				V239.087z"/>
			<path fill="#1E5035" d="M215.27,238.365c0-1.675,1.485-2.757,3.585-2.757c0.954,0,2.015,0.212,2.503,0.36v-1.039
				c0-0.53-0.148-0.954-0.403-1.272c-0.382-0.467-1.019-0.7-1.909-0.7c-0.572,0-0.912,0.127-1.188,0.275
				c0.064,0.148,0.105,0.34,0.105,0.51c0,0.594-0.445,1.039-1.06,1.039c-0.636,0-1.082-0.445-1.082-1.082
				c0-1.081,1.188-2.206,3.521-2.206c1.422,0,2.461,0.425,3.076,1.146c0.467,0.552,0.699,1.272,0.699,2.1v4.539h1.422v1.527h-3.14
				v-1.103c-0.742,0.699-1.909,1.272-3.139,1.272C216.586,240.974,215.27,240.019,215.27,238.365z M221.358,238.513v-1.484
				c-0.615-0.17-1.4-0.318-2.227-0.318c-1.295,0-2.016,0.615-2.016,1.506c0,0.827,0.615,1.379,1.676,1.379
				C219.767,239.595,220.658,239.129,221.358,238.513z"/>
			<path fill="#1E5035" d="M228.549,239.892l-0.467,0.934h-1.188v-13.978h-1.442v-1.569h3.267v7.508
				c0.721-0.721,1.591-1.294,2.927-1.294c2.397,0,4.327,1.931,4.327,4.73c0,2.63-1.909,4.751-4.518,4.751
				C230.289,240.974,229.335,240.549,228.549,239.892z M234.085,236.223c0-1.931-1.209-3.14-2.799-3.14
				c-1.039,0-1.888,0.488-2.566,1.167v4.263c0.657,0.488,1.484,0.87,2.523,0.87C232.792,239.383,234.085,238.196,234.085,236.223z"
				/>
			<path fill="#1E5035" d="M239.962,236.817c0.255,1.739,1.527,2.588,3.309,2.588c1.167,0,2.164-0.361,3.246-0.977l-0.148,1.676
				c-0.955,0.594-2.121,0.87-3.373,0.87c-2.947,0-4.941-1.909-4.941-4.709c0-2.566,1.76-4.772,4.539-4.772
				c2.82,0,4.305,2.016,4.305,4.349c0,0.339-0.042,0.7-0.084,0.976H239.962z M239.962,235.46h5.111
				c-0.084-1.464-0.975-2.461-2.523-2.461C241.319,232.999,240.196,233.805,239.962,235.46z"/>
			<path fill="#1E5035" d="M248.723,239.277h1.484v-12.429h-1.484v-1.569h3.309v13.998h1.464v1.527h-4.772V239.277z"/>
		</g>
	</g>
	<g>
		<g>
			<path fill="#1E5035" d="M154.391,60.691c0-3.108,1.699-5.061,4.917-5.061c3.181,0,4.916,1.952,4.916,5.061
				c0,3.109-1.735,5.025-4.916,5.025C156.09,65.716,154.391,63.8,154.391,60.691z M162.128,60.691c0-2.168-0.94-3.361-2.819-3.361
				c-1.88,0-2.856,1.193-2.856,3.361c0,2.169,0.977,3.326,2.856,3.326C161.187,64.017,162.128,62.86,162.128,60.691z
				 M160.898,80.392h-2.169l13.375-24.581h2.169L160.898,80.392z M168.779,75.548c0-3.108,1.698-5.061,4.916-5.061
				c3.181,0,4.916,1.952,4.916,5.061s-1.735,5.024-4.916,5.024C170.477,80.572,168.779,78.656,168.779,75.548z M176.514,75.548
				c0-2.169-0.939-3.362-2.819-3.362s-2.855,1.193-2.855,3.362s0.976,3.325,2.855,3.325S176.514,77.717,176.514,75.548z"/>
			<path fill="#1E5035" d="M153.429,90.716c0-2.293,0.688-4.164,3.5-4.164c2.8,0,3.5,1.871,3.5,4.164c0,2.329-0.7,4.285-3.5,4.285
				C154.117,95.001,153.429,93.045,153.429,90.716z M154.635,90.716c0,1.75,0.326,3.319,2.294,3.319
				c1.955,0,2.293-1.569,2.293-3.319s-0.338-3.198-2.293-3.198C154.962,87.518,154.635,88.966,154.635,90.716z"/>
			<path fill="#1E5035" d="M167.106,87.698h-3.982v2.655h3.439v1.026h-3.439v3.5h-1.146v-8.207h5.129V87.698z"/>
			<path fill="#1E5035" d="M173.806,87.698h-3.982v2.655h3.439v1.026h-3.439v3.5h-1.146v-8.207h5.129V87.698z"/>
		</g>
		<g>
			<g>
				<g>
					<path fill="#1E5035" d="M90.296,60.317l-1.623-4.326c4.387-1.923,7.872-3.005,12.919-3.005c8.833,0,12.919,5.589,12.919,12.198
						c0,8.413-6.189,15.924-18.207,24.336v0.12h18.808v4.808H88.673V89.22c17.186-11.357,20.13-18.388,20.13-22.834
						c0-7.512-5.708-8.412-8.412-8.412C97.446,57.974,94.562,58.394,90.296,60.317z"/>
					<path fill="#1E5035" d="M119.317,73.717c0-11.417,2.824-20.731,14.421-20.731c11.537,0,14.421,9.314,14.421,20.731
						c0,11.597-2.884,21.331-14.421,21.331C122.141,95.049,119.317,85.314,119.317,73.717z M125.025,73.717
						c0,8.713,1.623,16.824,8.713,16.824c7.03,0,8.713-8.111,8.713-16.824s-1.683-16.225-8.713-16.225
						C126.648,57.493,125.025,65.005,125.025,73.717z"/>
				</g>
			</g>
		</g>
	</g>
	<g>
		<path fill="#1E5035" d="M147.641,183.19c0-3.107,1.699-5.061,4.917-5.061c3.181,0,4.916,1.953,4.916,5.061
			c0,3.109-1.735,5.025-4.916,5.025C149.34,188.215,147.641,186.299,147.641,183.19z M155.378,183.19
			c0-2.168-0.94-3.361-2.819-3.361c-1.88,0-2.856,1.193-2.856,3.361c0,2.17,0.977,3.326,2.856,3.326
			C154.437,186.516,155.378,185.36,155.378,183.19z M154.148,202.891h-2.169l13.375-24.58h2.169L154.148,202.891z M162.029,198.048
			c0-3.107,1.698-5.061,4.916-5.061c3.181,0,4.916,1.953,4.916,5.061c0,3.109-1.735,5.025-4.916,5.025
			C163.727,203.073,162.029,201.157,162.029,198.048z M169.764,198.048c0-2.168-0.939-3.361-2.819-3.361s-2.855,1.193-2.855,3.361
			c0,2.17,0.976,3.326,2.855,3.326S169.764,200.217,169.764,198.048z"/>
		<path fill="#1E5035" d="M146.679,213.215c0-2.293,0.688-4.164,3.5-4.164c2.8,0,3.5,1.871,3.5,4.164c0,2.33-0.7,4.285-3.5,4.285
			C147.367,217.501,146.679,215.546,146.679,213.215z M147.885,213.215c0,1.75,0.326,3.32,2.294,3.32c1.955,0,2.293-1.57,2.293-3.32
			s-0.338-3.197-2.293-3.197C148.212,210.018,147.885,211.465,147.885,213.215z"/>
		<path fill="#1E5035" d="M160.356,210.198h-3.982v2.656h3.439v1.025h-3.439v3.5h-1.146v-8.207h5.129V210.198z"/>
		<path fill="#1E5035" d="M167.056,210.198h-3.982v2.656h3.439v1.025h-3.439v3.5h-1.146v-8.207h5.129V210.198z"/>
	</g>
	<g>
		<g>
			<g>
				<path fill="#1E5035" d="M95.063,188.713l-1.442-4.507c4.687-2.104,9.794-4.747,12.919-7.211h3.906v41.161h-5.408v-34.672
					L95.063,188.713z"/>
				<path fill="#1E5035" d="M115.252,197.425c0-11.417,2.824-20.731,14.421-20.731c11.537,0,14.421,9.314,14.421,20.731
					c0,11.597-2.885,21.331-14.421,21.331C118.076,218.757,115.252,209.022,115.252,197.425z M120.96,197.425
					c0,8.713,1.623,16.824,8.713,16.824c7.031,0,8.713-8.111,8.713-16.824s-1.683-16.225-8.713-16.225
					C122.583,181.201,120.96,188.713,120.96,197.425z"/>
			</g>
		</g>
	</g>
</g>
<g>
</g>
<g>
</g>
<g>
</g>
<g>
</g>
<g>
</g>
<g>
</g>
<g>
</g>
<g>
</g>
<g>
</g>
<g>
</g>
<g>
</g>
<g>
</g>
<g>
</g>
<g>
</g>
<g>
</g>
</svg>
