<?xml version="1.0" encoding="utf-8"?>
<!-- Generator: Adobe Illustrator 17.0.0, SVG Export Plug-In . SVG Version: 6.00 Build 0)  -->
<!DOCTYPE svg PUBLIC "-//W3C//DTD SVG 1.1//EN" "http://www.w3.org/Graphics/SVG/1.1/DTD/svg11.dtd">
<svg version="1.1" id="Layer_1" xmlns="http://www.w3.org/2000/svg" xmlns:xlink="http://www.w3.org/1999/xlink" x="0px" y="0px"
	 width="266.333px" height="265px" viewBox="0 0 266.333 265" enable-background="new 0 0 266.333 265" xml:space="preserve">
<g>
	<g>
		<g>
			<path fill="#1E5035" d="M45.106,201.173h1.439v-8.923h-1.439v-1.458h8.689v3.095h-1.547v-1.655h-4.065v3.67h3.741v1.403h-3.741
				v3.886h4.065v-1.655h1.565v3.095h-8.708V201.173z"/>
			<path fill="#1E5035" d="M58.525,196.225c0.737-0.792,1.709-1.493,2.824-1.493c0.972,0,1.637,0.378,2.033,0.989
				c0.252,0.432,0.396,0.972,0.396,1.619v3.994h1.205v1.295H61.08v-1.295h1.151v-3.652c0-0.378-0.055-0.684-0.181-0.918
				c-0.216-0.413-0.594-0.611-1.151-0.611c-0.845,0-1.654,0.504-2.32,1.17v4.012h1.151v1.295h-3.886v-1.295h1.205v-5.128h-1.205
				v-1.331h2.681V196.225z"/>
			<path fill="#1E5035" d="M70.808,198.725c0-2.086,1.673-3.993,3.886-3.993c1.925,0,3.328,1.259,3.328,2.446
				c0,0.684-0.468,1.151-1.097,1.151c-0.504,0-0.972-0.396-0.972-0.972c0-0.252,0.126-0.503,0.323-0.647
				c-0.18-0.359-0.827-0.701-1.583-0.701c-1.043,0-2.32,0.881-2.32,2.752c0,1.602,1.169,2.681,2.771,2.681
				c0.899,0,1.709-0.27,2.662-0.827l-0.144,1.421c-0.792,0.504-1.709,0.737-2.662,0.737
				C72.59,202.773,70.808,201.119,70.808,198.725z"/>
			<path fill="#1E5035" d="M79.748,198.761c0-2.177,1.583-4.029,4.048-4.029s4.048,1.835,4.048,4.029
				c0,2.159-1.602,4.012-4.048,4.012C81.313,202.773,79.748,200.938,79.748,198.761z M86.242,198.761
				c0-1.583-1.007-2.716-2.446-2.716c-1.457,0-2.465,1.133-2.465,2.716s1.008,2.699,2.465,2.699
				C85.235,201.461,86.242,200.344,86.242,198.761z"/>
			<path fill="#1E5035" d="M92.249,196.225c0.737-0.792,1.709-1.493,2.824-1.493c0.972,0,1.637,0.378,2.033,0.989
				c0.252,0.432,0.396,0.972,0.396,1.619v3.994h1.205v1.295h-3.903v-1.295h1.151v-3.652c0-0.378-0.055-0.684-0.181-0.918
				c-0.216-0.413-0.594-0.611-1.151-0.611c-0.845,0-1.654,0.504-2.32,1.17v4.012h1.151v1.295h-3.886v-1.295h1.205v-5.128h-1.205
				v-1.331h2.681V196.225z"/>
			<path fill="#1E5035" d="M105.452,197.413c-0.54,0-0.936-0.342-0.936-0.864c0-0.126,0.018-0.27,0.071-0.396
				c-0.306-0.144-0.755-0.233-1.241-0.233c-0.989,0-1.529,0.485-1.529,0.989c0,0.575,0.594,0.81,1.835,1.133
				c1.674,0.433,2.896,0.882,2.896,2.339c0,1.548-1.475,2.411-3.166,2.411c-1.169,0-2.356-0.396-2.878-0.918
				c-0.288-0.287-0.433-0.611-0.433-1.007c0-0.504,0.36-0.936,0.882-0.936c0.504,0,0.918,0.342,0.918,0.899
				c0,0.144-0.019,0.27-0.072,0.396c0.288,0.18,0.863,0.36,1.583,0.36c0.936,0,1.691-0.36,1.691-1.044
				c0-0.558-0.558-0.827-1.709-1.115c-1.979-0.504-3.041-0.989-3.041-2.375c0-1.188,1.062-2.32,3.041-2.32
				c1.007,0,2.015,0.323,2.519,0.827c0.27,0.271,0.396,0.594,0.396,0.936C106.279,197.052,105.937,197.413,105.452,197.413z"/>
			<path fill="#1E5035" d="M109.498,201.748c-0.234-0.432-0.36-0.953-0.36-1.583v-3.958h-1.205v-1.331h2.734v4.947
				c0,0.396,0.072,0.702,0.198,0.936c0.216,0.414,0.575,0.594,1.133,0.594c0.846,0,1.638-0.521,2.321-1.169v-3.977h-1.241v-1.331
				h2.788v6.459h1.205v1.295h-2.698v-1.35c-0.737,0.792-1.709,1.493-2.824,1.493C110.559,202.773,109.893,202.378,109.498,201.748z"
				/>
			<path fill="#1E5035" d="M118.598,201.335h1.205v-5.128h-1.205v-1.331h2.681v1.35c0.647-0.756,1.601-1.493,2.734-1.493
				c0.899,0,1.511,0.342,1.889,0.881c0.108,0.162,0.18,0.342,0.234,0.54c0.791-0.791,1.745-1.421,2.734-1.421
				c1.115,0,1.799,0.414,2.158,1.115c0.198,0.414,0.307,0.917,0.307,1.476v4.012h1.205v1.295h-3.904v-1.295h1.151v-3.67
				c0-0.36-0.054-0.648-0.144-0.882c-0.18-0.432-0.54-0.63-1.098-0.63c-0.791,0-1.529,0.468-2.213,1.134v4.048h1.134v1.295h-3.832
				v-1.295h1.151v-3.67c0-0.36-0.036-0.648-0.126-0.882c-0.198-0.432-0.54-0.63-1.098-0.63c-0.827,0-1.564,0.504-2.23,1.151v4.03
				h1.134v1.295h-3.868V201.335z"/>
			<path fill="#1E5035" d="M133.85,198.761c0-2.177,1.583-4.029,4.048-4.029s4.048,1.835,4.048,4.029
				c0,2.159-1.602,4.012-4.048,4.012C135.416,202.773,133.85,200.938,133.85,198.761z M140.344,198.761
				c0-1.583-1.007-2.716-2.446-2.716c-1.457,0-2.465,1.133-2.465,2.716s1.008,2.699,2.465,2.699
				C139.338,201.461,140.344,200.344,140.344,198.761z"/>
			<path fill="#1E5035" d="M148.132,200.56c0-1.421,1.259-2.338,3.04-2.338c0.81,0,1.709,0.18,2.123,0.306v-0.882
				c0-0.449-0.126-0.81-0.342-1.079c-0.324-0.396-0.864-0.594-1.619-0.594c-0.486,0-0.773,0.107-1.008,0.233
				c0.054,0.126,0.09,0.288,0.09,0.433c0,0.503-0.378,0.881-0.899,0.881c-0.54,0-0.917-0.378-0.917-0.917
				c0-0.918,1.007-1.871,2.986-1.871c1.205,0,2.086,0.359,2.608,0.972c0.396,0.468,0.594,1.079,0.594,1.78v3.851h1.205v1.295h-2.663
				v-0.936c-0.629,0.594-1.618,1.079-2.662,1.079C149.247,202.773,148.132,201.964,148.132,200.56z M153.295,200.686v-1.259
				c-0.522-0.144-1.188-0.27-1.89-0.27c-1.097,0-1.709,0.521-1.709,1.277c0,0.701,0.521,1.169,1.422,1.169
				C151.945,201.604,152.701,201.209,153.295,200.686z"/>
			<path fill="#1E5035" d="M161.657,201.335h1.259v-10.543h-1.259v-1.331h2.807v11.874h1.241v1.295h-4.048V201.335z"/>
			<path fill="#1E5035" d="M167.197,200.56c0-1.421,1.259-2.338,3.04-2.338c0.81,0,1.709,0.18,2.123,0.306v-0.882
				c0-0.449-0.126-0.81-0.342-1.079c-0.324-0.396-0.864-0.594-1.619-0.594c-0.486,0-0.773,0.107-1.008,0.233
				c0.054,0.126,0.09,0.288,0.09,0.433c0,0.503-0.378,0.881-0.899,0.881c-0.54,0-0.917-0.378-0.917-0.917
				c0-0.918,1.007-1.871,2.986-1.871c1.205,0,2.086,0.359,2.608,0.972c0.396,0.468,0.594,1.079,0.594,1.78v3.851h1.205v1.295h-2.663
				v-0.936c-0.629,0.594-1.618,1.079-2.662,1.079C168.312,202.773,167.197,201.964,167.197,200.56z M172.36,200.686v-1.259
				c-0.522-0.144-1.188-0.27-1.89-0.27c-1.097,0-1.709,0.521-1.709,1.277c0,0.701,0.521,1.169,1.422,1.169
				C171.01,201.604,171.766,201.209,172.36,200.686z"/>
			<path fill="#1E5035" d="M180.883,198.725c0-2.086,1.673-3.993,3.886-3.993c1.925,0,3.328,1.259,3.328,2.446
				c0,0.684-0.468,1.151-1.097,1.151c-0.504,0-0.972-0.396-0.972-0.972c0-0.252,0.126-0.503,0.323-0.647
				c-0.18-0.359-0.827-0.701-1.583-0.701c-1.043,0-2.32,0.881-2.32,2.752c0,1.602,1.169,2.681,2.771,2.681
				c0.899,0,1.709-0.27,2.662-0.827l-0.144,1.421c-0.792,0.504-1.709,0.737-2.662,0.737
				C182.665,202.773,180.883,201.119,180.883,198.725z"/>
			<path fill="#1E5035" d="M189.841,200.56c0-1.421,1.259-2.338,3.04-2.338c0.81,0,1.709,0.18,2.123,0.306v-0.882
				c0-0.449-0.126-0.81-0.342-1.079c-0.324-0.396-0.864-0.594-1.619-0.594c-0.486,0-0.773,0.107-1.008,0.233
				c0.054,0.126,0.09,0.288,0.09,0.433c0,0.503-0.378,0.881-0.899,0.881c-0.54,0-0.917-0.378-0.917-0.917
				c0-0.918,1.007-1.871,2.986-1.871c1.205,0,2.086,0.359,2.608,0.972c0.396,0.468,0.594,1.079,0.594,1.78v3.851h1.205v1.295h-2.663
				v-0.936c-0.629,0.594-1.618,1.079-2.662,1.079C190.957,202.773,189.841,201.964,189.841,200.56z M195.005,200.686v-1.259
				c-0.522-0.144-1.188-0.27-1.89-0.27c-1.097,0-1.709,0.521-1.709,1.277c0,0.701,0.521,1.169,1.422,1.169
				C193.655,201.604,194.411,201.209,195.005,200.686z"/>
			<path fill="#1E5035" d="M205.472,195.865c0,0.558-0.45,1.044-0.989,1.044c-0.522,0-0.882-0.324-1.026-0.666
				c-0.575,0.18-1.241,0.828-1.619,1.565v3.526h1.422v1.295h-4.156v-1.295h1.206v-5.128h-1.206v-1.331h2.681v1.764
				c0.612-1.062,1.512-1.907,2.411-1.907C205.041,194.732,205.472,195.254,205.472,195.865z"/>
			<path fill="#1E5035" d="M207.971,201.802c-0.144-0.307-0.234-0.702-0.234-1.134v-4.462h-1.457v-1.331h1.457v-1.781l1.548-0.629
				v2.41h2.356v1.331h-2.356v4.192c0,0.252,0.036,0.432,0.107,0.594c0.145,0.252,0.432,0.377,0.882,0.377
				c0.468,0,1.025-0.216,1.475-0.432l-0.161,1.386c-0.45,0.233-1.025,0.449-1.745,0.449
				C208.979,202.773,208.313,202.467,207.971,201.802z"/>
			<path fill="#1E5035" d="M213.403,200.56c0-1.421,1.259-2.338,3.04-2.338c0.81,0,1.709,0.18,2.123,0.306v-0.882
				c0-0.449-0.126-0.81-0.342-1.079c-0.324-0.396-0.864-0.594-1.619-0.594c-0.486,0-0.773,0.107-1.008,0.233
				c0.054,0.126,0.09,0.288,0.09,0.433c0,0.503-0.378,0.881-0.899,0.881c-0.54,0-0.917-0.378-0.917-0.917
				c0-0.918,1.007-1.871,2.986-1.871c1.205,0,2.086,0.359,2.608,0.972c0.396,0.468,0.594,1.079,0.594,1.78v3.851h1.205v1.295h-2.663
				v-0.936c-0.629,0.594-1.618,1.079-2.662,1.079C214.518,202.773,213.403,201.964,213.403,200.56z M218.566,200.686v-1.259
				c-0.522-0.144-1.188-0.27-1.89-0.27c-1.097,0-1.709,0.521-1.709,1.277c0,0.701,0.521,1.169,1.422,1.169
				C217.216,201.604,217.972,201.209,218.566,200.686z"/>
		</g>
	</g>
	<rect x="6.4" y="2.666" fill="#16A314" width="253.534" height="30.082"/>
	<g>
		<path fill="#FFFFFF" d="M60.557,21.246h0.042l3.386-9.545h3.852v14.392h-2.899V16.95h-0.042l-3.429,9.143h-2.116l-3.344-9.143
			h-0.042v9.143h-2.836V11.701h3.873L60.557,21.246z"/>
		<path fill="#FFFFFF" d="M80.278,22.834h-4.55l-0.974,3.259h-3.09l4.656-14.497h3.556l4.593,14.497h-3.217L80.278,22.834z
			 M77.993,15.236L76.321,20.4h3.365l-1.651-5.164H77.993z"/>
		<path fill="#FFFFFF" d="M98.032,14.305h-6.815v3.068h5.863v2.582h-5.863v3.556h6.921v2.582h-9.841V11.701h9.735V14.305z"/>
		<path fill="#FFFFFF" d="M102.474,25.522l0.508-2.434c2.243,0.529,3.831,0.635,4.952,0.635c1.481,0,2.371-0.678,2.371-1.63
			c0-1.333-1.651-1.608-3.323-2.074c-2.498-0.698-4.296-2.074-4.296-4.508c0-2.899,2.392-4.021,5.249-4.021
			c1.63,0,3.111,0.211,5.08,0.804l-0.656,2.434c-2.265-0.529-3.323-0.635-4.423-0.635c-1.481,0-2.18,0.635-2.18,1.503
			c0,1.185,1.545,1.566,3.28,1.989c2.498,0.571,4.338,1.756,4.338,4.275c0,3.069-2.37,4.444-5.439,4.444
			C106.283,26.304,104.442,26.093,102.474,25.522z"/>
		<path fill="#FFFFFF" d="M123.762,14.305v11.788h-2.92V14.305h-3.789v-2.604h10.476v2.604H123.762z"/>
		<path fill="#FFFFFF" d="M139.887,26.093l-3.026-5.122h-2.074v5.122h-2.921V11.701h6.138c3.026,0,4.762,1.82,4.762,4.635
			c0,1.947-0.91,3.577-2.857,4.148l3.365,5.608H139.887z M134.787,18.368h2.856c1.207,0,2.138-0.529,2.138-2.032
			c0-1.46-0.867-2.032-2.095-2.032h-2.899V18.368z"/>
		<path fill="#FFFFFF" d="M146.847,18.791c0-4.063,1.354-7.301,6.413-7.301c5.058,0,6.392,3.238,6.392,7.301
			c0,4.106-1.334,7.513-6.392,7.513C148.202,26.304,146.847,22.897,146.847,18.791z M149.917,18.791c0,2.857,0.508,5.08,3.344,5.08
			s3.322-2.222,3.322-5.08c0-2.857-0.486-4.868-3.322-4.868S149.917,15.934,149.917,18.791z"/>
		<path fill="#FFFFFF" d="M176.832,14.305v11.788h-2.92V14.305h-3.789v-2.604h10.477v2.604H176.832z"/>
		<path fill="#FFFFFF" d="M188.511,23.511h6.54v2.582h-10.582v-2.116l6.413-9.63v-0.042h-5.989v-2.604h9.946v2.117l-6.328,9.65
			V23.511z"/>
		<path fill="#FFFFFF" d="M207.747,21.014v-9.312h2.899v9.312c0,3.767-2.243,5.291-5.65,5.291s-5.672-1.523-5.672-5.291v-9.312
			h2.921v9.312c0,1.545,0.465,2.857,2.772,2.857C207.239,23.871,207.747,22.559,207.747,21.014z"/>
	</g>
	<g>
		<g>
			<path fill="#1E5035" d="M168.907,92.823c0-5.59,3.056-9.101,8.841-9.101c5.72,0,8.841,3.51,8.841,9.101s-3.121,9.035-8.841,9.035
				C171.963,101.858,168.907,98.413,168.907,92.823z M182.817,92.823c0-3.9-1.689-6.045-5.069-6.045s-5.136,2.145-5.136,6.045
				c0,3.9,1.756,5.98,5.136,5.98S182.817,96.723,182.817,92.823z M180.608,128.249h-3.9l24.051-44.202h3.9L180.608,128.249z
				 M194.778,119.539c0-5.59,3.055-9.1,8.84-9.1c5.721,0,8.841,3.51,8.841,9.1s-3.12,9.036-8.841,9.036
				C197.833,128.574,194.778,125.129,194.778,119.539z M208.688,119.539c0-3.9-1.689-6.045-5.07-6.045
				c-3.379,0-5.135,2.145-5.135,6.045c0,3.9,1.756,5.98,5.135,5.98C206.999,125.519,208.688,123.439,208.688,119.539z"/>
			<path fill="#1E5035" d="M167.176,146.806c0-4.126,1.237-7.491,6.297-7.491c5.037,0,6.297,3.365,6.297,7.491
				c0,4.19-1.26,7.708-6.297,7.708C168.414,154.514,167.176,150.997,167.176,146.806z M169.348,146.806
				c0,3.148,0.586,5.971,4.125,5.971c3.518,0,4.125-2.822,4.125-5.971s-0.607-5.754-4.125-5.754
				C169.934,141.052,169.348,143.658,169.348,146.806z"/>
			<path fill="#1E5035" d="M191.772,141.378h-7.165v4.777h6.188v1.846h-6.188v6.297h-2.063v-14.766h9.229V141.378z"/>
			<path fill="#1E5035" d="M203.819,141.378h-7.165v4.777h6.188v1.846h-6.188v6.297h-2.063v-14.766h9.229V141.378z"/>
		</g>
		<g>
			<g>
				<g>
					<g>
						<path fill="#1E5035" d="M58.416,97.335l-2.886-7.696c7.803-3.42,14.002-5.345,22.981-5.345
							c15.712,0,22.981,9.94,22.981,21.698c0,14.965-11.01,28.325-32.387,43.29v0.214h33.456v8.551H55.53v-9.299
							c30.57-20.202,35.807-32.708,35.807-40.618c0-13.36-10.154-14.964-14.964-14.964C71.136,93.166,66.006,93.914,58.416,97.335z"
							/>
						<path fill="#1E5035" d="M110.04,121.171c0-20.309,5.023-36.877,25.653-36.877c20.522,0,25.653,16.568,25.653,36.877
							c0,20.628-5.131,37.945-25.653,37.945C115.063,159.116,110.04,141.799,110.04,121.171z M120.194,121.171
							c0,15.498,2.886,29.928,15.499,29.928c12.506,0,15.499-14.43,15.499-29.928c0-15.499-2.993-28.86-15.499-28.86
							C123.08,92.311,120.194,105.672,120.194,121.171z"/>
					</g>
				</g>
			</g>
		</g>
	</g>
</g>
<g>
</g>
<g>
</g>
<g>
</g>
<g>
</g>
<g>
</g>
<g>
</g>
<g>
</g>
<g>
</g>
<g>
</g>
<g>
</g>
<g>
</g>
<g>
</g>
<g>
</g>
<g>
</g>
<g>
</g>
</svg>
