<?xml version="1.0" encoding="utf-8"?>
<!-- Generator: Adobe Illustrator 17.0.0, SVG Export Plug-In . SVG Version: 6.00 Build 0)  -->
<!DOCTYPE svg PUBLIC "-//W3C//DTD SVG 1.1//EN" "http://www.w3.org/Graphics/SVG/1.1/DTD/svg11.dtd">
<svg version="1.1" id="Layer_1" xmlns="http://www.w3.org/2000/svg" xmlns:xlink="http://www.w3.org/1999/xlink" x="0px" y="0px"
	 width="266.333px" height="265px" viewBox="0 0 266.333 265" enable-background="new 0 0 266.333 265" xml:space="preserve">
<g>
	<g>
		<path fill="#1E5035" d="M165.362,95.823c0-5.59,3.055-9.101,8.84-9.101c5.721,0,8.84,3.51,8.84,9.101s-3.119,9.035-8.84,9.035
			C168.417,104.858,165.362,101.413,165.362,95.823z M179.272,95.823c0-3.9-1.69-6.045-5.07-6.045c-3.381,0-5.135,2.145-5.135,6.045
			c0,3.9,1.754,5.98,5.135,5.98C177.582,101.803,179.272,99.723,179.272,95.823z M177.061,131.249h-3.899l24.051-44.202h3.899
			L177.061,131.249z M191.232,122.539c0-5.59,3.056-9.1,8.841-9.1c5.72,0,8.84,3.51,8.84,9.1c0,5.59-3.12,9.036-8.84,9.036
			C194.288,131.574,191.232,128.129,191.232,122.539z M205.143,122.539c0-3.9-1.69-6.045-5.07-6.045
			c-3.381,0-5.136,2.145-5.136,6.045c0,3.9,1.755,5.98,5.136,5.98C203.453,128.519,205.143,126.439,205.143,122.539z"/>
		<path fill="#1E5035" d="M163.631,149.805c0-4.125,1.237-7.49,6.297-7.49c5.037,0,6.297,3.365,6.297,7.49
			c0,4.191-1.26,7.709-6.297,7.709C164.868,157.514,163.631,153.997,163.631,149.805z M165.801,149.805
			c0,3.148,0.586,5.972,4.126,5.972c3.518,0,4.126-2.823,4.126-5.972s-0.608-5.754-4.126-5.754
			C166.387,144.051,165.801,146.657,165.801,149.805z"/>
		<path fill="#1E5035" d="M188.227,144.378h-7.166v4.776h6.188V151h-6.188v6.297h-2.062v-14.765h9.229V144.378z"/>
		<path fill="#1E5035" d="M200.274,144.378h-7.166v4.776h6.188V151h-6.188v6.297h-2.062v-14.765h9.229V144.378z"/>
	</g>
	<g>
		<g>
			<path fill="#1E5035" d="M82.132,198.768h1.079l3.292-8.941h-1.313v-1.439h5.938v1.439h-1.332l3.293,8.941h1.097v1.457h-4.209
				v-1.439h1.367l-0.882-2.501h-4.678l-0.881,2.501h1.438v1.439h-4.209V198.768z M89.993,194.918l-1.871-5.163l-1.871,5.163H89.993z
				"/>
			<path fill="#1E5035" d="M95.37,196.393c0-2.213,1.565-4.065,3.777-4.065c0.972,0,1.781,0.359,2.303,0.845v-4.785h-1.331v-1.331
				h2.879v11.873h1.205v1.296h-2.734v-0.989c-0.611,0.647-1.386,1.133-2.465,1.133C96.953,200.369,95.37,198.75,95.37,196.393z
				 M101.45,198.03v-3.598c-0.558-0.432-1.223-0.756-2.122-0.756c-1.332,0-2.357,1.062-2.375,2.698c0,1.619,1.025,2.645,2.339,2.645
				C100.174,199.019,100.875,198.606,101.45,198.03z"/>
			<path fill="#1E5035" d="M105.675,198.929h1.26v-5.127h-1.26v-1.331h2.807v6.458h1.241v1.296h-4.048V198.929z M106.413,189.701
				c0-0.611,0.522-1.115,1.134-1.115c0.594,0,1.115,0.504,1.115,1.115c0,0.63-0.54,1.134-1.134,1.134
				C106.917,190.835,106.413,190.331,106.413,189.701z"/>
			<path fill="#1E5035" d="M111.377,196.321c0-2.087,1.674-3.993,3.887-3.993c1.925,0,3.328,1.259,3.328,2.446
				c0,0.684-0.468,1.151-1.098,1.151c-0.504,0-0.972-0.396-0.972-0.972c0-0.252,0.126-0.504,0.324-0.647
				c-0.181-0.359-0.828-0.702-1.583-0.702c-1.044,0-2.321,0.882-2.321,2.753c0,1.602,1.17,2.681,2.771,2.681
				c0.899,0,1.709-0.27,2.663-0.828l-0.145,1.422c-0.791,0.504-1.709,0.737-2.662,0.737
				C113.158,200.369,111.377,198.714,111.377,196.321z"/>
			<path fill="#1E5035" d="M120.424,198.929h1.26v-5.127h-1.26v-1.331h2.807v6.458h1.241v1.296h-4.048V198.929z M121.161,189.701
				c0-0.611,0.522-1.115,1.134-1.115c0.594,0,1.115,0.504,1.115,1.115c0,0.63-0.54,1.134-1.134,1.134
				C121.665,190.835,121.161,190.331,121.161,189.701z"/>
			<path fill="#1E5035" d="M126.143,196.357c0-2.177,1.583-4.029,4.048-4.029c2.465,0,4.048,1.835,4.048,4.029
				c0,2.159-1.602,4.012-4.048,4.012C127.709,200.369,126.143,198.534,126.143,196.357z M132.637,196.357
				c0-1.583-1.007-2.717-2.446-2.717c-1.457,0-2.465,1.134-2.465,2.717s1.008,2.698,2.465,2.698
				C131.631,199.055,132.637,197.94,132.637,196.357z"/>
			<path fill="#1E5035" d="M138.643,193.821c0.738-0.792,1.71-1.493,2.825-1.493c0.971,0,1.637,0.377,2.032,0.989
				c0.252,0.432,0.396,0.972,0.396,1.619v3.993h1.205v1.296h-3.904v-1.296h1.151v-3.651c0-0.378-0.054-0.684-0.18-0.918
				c-0.216-0.413-0.594-0.611-1.151-0.611c-0.846,0-1.655,0.504-2.32,1.169v4.012h1.151v1.296h-3.886v-1.296h1.205v-5.127h-1.205
				v-1.331h2.68V193.821z"/>
			<path fill="#1E5035" d="M146.431,198.156c0-1.421,1.26-2.339,3.041-2.339c0.81,0,1.709,0.181,2.122,0.307v-0.882
				c0-0.45-0.126-0.81-0.342-1.079c-0.323-0.396-0.863-0.594-1.619-0.594c-0.485,0-0.773,0.107-1.007,0.233
				c0.054,0.126,0.09,0.288,0.09,0.432c0,0.504-0.378,0.882-0.899,0.882c-0.54,0-0.918-0.378-0.918-0.918
				c0-0.917,1.008-1.87,2.986-1.87c1.206,0,2.087,0.359,2.608,0.971c0.396,0.468,0.594,1.08,0.594,1.781v3.85h1.206v1.296h-2.663
				v-0.936c-0.63,0.594-1.619,1.079-2.662,1.079C147.547,200.369,146.431,199.559,146.431,198.156z M151.594,198.282v-1.259
				c-0.521-0.145-1.187-0.271-1.889-0.271c-1.098,0-1.709,0.522-1.709,1.277c0,0.702,0.521,1.17,1.421,1.17
				C150.246,199.2,151.001,198.803,151.594,198.282z"/>
			<path fill="#1E5035" d="M155.424,198.929h1.259v-10.542h-1.259v-1.331h2.806v11.873h1.242v1.296h-4.048V198.929z"/>
			<path fill="#1E5035" d="M167.062,196.842c0.216,1.476,1.295,2.195,2.807,2.195c0.989,0,1.835-0.306,2.752-0.828l-0.126,1.422
				c-0.81,0.504-1.799,0.737-2.86,0.737c-2.5,0-4.191-1.619-4.191-3.994c0-2.177,1.493-4.047,3.85-4.047
				c2.393,0,3.652,1.709,3.652,3.688c0,0.288-0.036,0.594-0.072,0.827H167.062z M167.062,195.691h4.336
				c-0.072-1.241-0.828-2.087-2.142-2.087C168.214,193.604,167.26,194.289,167.062,195.691z"/>
			<path fill="#1E5035" d="M177.296,193.821c0.738-0.792,1.71-1.493,2.825-1.493c0.971,0,1.637,0.377,2.032,0.989
				c0.252,0.432,0.396,0.972,0.396,1.619v3.993h1.205v1.296h-3.904v-1.296h1.151v-3.651c0-0.378-0.054-0.684-0.18-0.918
				c-0.216-0.413-0.594-0.611-1.151-0.611c-0.846,0-1.655,0.504-2.32,1.169v4.012h1.151v1.296h-3.886v-1.296h1.205v-5.127h-1.205
				v-1.331h2.68V193.821z"/>
			<path fill="#1E5035" d="M31.221,224.04h1.205v-8.653h-1.205v-1.332h2.681v1.008c0.647-0.666,1.367-1.151,2.482-1.151
				c2.033,0,3.616,1.619,3.616,3.976c0,2.231-1.565,4.066-3.76,4.066c-0.882,0-1.655-0.324-2.267-0.828v2.915h1.385v1.295h-4.138
				V224.04z M38.4,217.905c0-1.619-0.99-2.645-2.303-2.645c-0.882,0-1.548,0.413-2.123,0.989v3.616
				c0.539,0.432,1.223,0.737,2.087,0.737C37.375,220.603,38.4,219.542,38.4,217.905z"/>
			<path fill="#1E5035" d="M48.112,215.045c0,0.558-0.45,1.043-0.989,1.043c-0.521,0-0.882-0.324-1.025-0.666
				c-0.576,0.181-1.241,0.828-1.619,1.565v3.526h1.421v1.295h-4.155v-1.295h1.205v-5.127h-1.205v-1.332h2.68v1.764
				c0.612-1.062,1.512-1.907,2.411-1.907C47.68,213.911,48.112,214.432,48.112,215.045z"/>
			<path fill="#1E5035" d="M49.173,217.941c0-2.178,1.583-4.03,4.048-4.03s4.048,1.835,4.048,4.03c0,2.158-1.602,4.012-4.048,4.012
				C50.738,221.953,49.173,220.118,49.173,217.941z M55.667,217.941c0-1.584-1.007-2.717-2.446-2.717
				c-1.457,0-2.465,1.133-2.465,2.717c0,1.583,1.008,2.698,2.465,2.698C54.66,220.639,55.667,219.524,55.667,217.941z"/>
			<path fill="#1E5035" d="M59.047,217.976c0-2.213,1.565-4.065,3.777-4.065c0.972,0,1.781,0.359,2.303,0.846v-4.785h-1.331v-1.332
				h2.879v11.874h1.205v1.295h-2.734v-0.989c-0.611,0.647-1.386,1.134-2.465,1.134C60.63,221.953,59.047,220.334,59.047,217.976z
				 M65.127,219.614v-3.599c-0.558-0.432-1.223-0.755-2.122-0.755c-1.332,0-2.357,1.062-2.375,2.698
				c0,1.619,1.025,2.645,2.339,2.645C63.85,220.603,64.551,220.189,65.127,219.614z"/>
			<path fill="#1E5035" d="M70.63,220.927c-0.234-0.433-0.359-0.954-0.359-1.584v-3.957h-1.206v-1.332h2.734v4.947
				c0,0.396,0.072,0.702,0.198,0.936c0.216,0.414,0.576,0.594,1.134,0.594c0.845,0,1.637-0.521,2.32-1.169v-3.976H74.21v-1.332
				h2.788v6.459h1.206v1.295h-2.699v-1.349c-0.737,0.791-1.709,1.493-2.824,1.493C71.691,221.953,71.025,221.556,70.63,220.927z"/>
			<path fill="#1E5035" d="M79.766,217.905c0-2.087,1.674-3.994,3.887-3.994c1.925,0,3.328,1.26,3.328,2.446
				c0,0.684-0.468,1.151-1.098,1.151c-0.504,0-0.972-0.396-0.972-0.971c0-0.252,0.126-0.504,0.324-0.648
				c-0.181-0.359-0.828-0.701-1.583-0.701c-1.044,0-2.321,0.882-2.321,2.753c0,1.601,1.17,2.68,2.771,2.68
				c0.899,0,1.709-0.27,2.663-0.827l-0.145,1.421c-0.791,0.504-1.709,0.738-2.662,0.738
				C81.548,221.953,79.766,220.298,79.766,217.905z"/>
			<path fill="#1E5035" d="M90.054,220.981c-0.144-0.306-0.233-0.702-0.233-1.134v-4.461h-1.458v-1.332h1.458v-1.78l1.547-0.63v2.41
				h2.356v1.332h-2.356v4.191c0,0.252,0.036,0.432,0.107,0.594c0.145,0.252,0.433,0.378,0.882,0.378
				c0.468,0,1.025-0.216,1.476-0.432l-0.162,1.385c-0.45,0.234-1.025,0.45-1.745,0.45C91.062,221.953,90.396,221.646,90.054,220.981
				z"/>
			<path fill="#1E5035" d="M95.36,217.941c0-2.178,1.583-4.03,4.048-4.03s4.048,1.835,4.048,4.03c0,2.158-1.602,4.012-4.048,4.012
				C96.925,221.953,95.36,220.118,95.36,217.941z M101.854,217.941c0-1.584-1.007-2.717-2.446-2.717
				c-1.457,0-2.465,1.133-2.465,2.717c0,1.583,1.008,2.698,2.465,2.698C100.847,220.639,101.854,219.524,101.854,217.941z"/>
			<path fill="#1E5035" d="M110.668,216.591c-0.539,0-0.936-0.342-0.936-0.863c0-0.126,0.019-0.271,0.072-0.396
				c-0.306-0.144-0.756-0.233-1.241-0.233c-0.989,0-1.529,0.485-1.529,0.989c0,0.576,0.594,0.81,1.835,1.134
				c1.673,0.432,2.896,0.881,2.896,2.339c0,1.547-1.476,2.41-3.166,2.41c-1.17,0-2.356-0.396-2.879-0.917
				c-0.287-0.288-0.432-0.612-0.432-1.008c0-0.504,0.36-0.936,0.882-0.936c0.504,0,0.917,0.342,0.917,0.899
				c0,0.144-0.018,0.27-0.071,0.396c0.287,0.181,0.863,0.36,1.583,0.36c0.936,0,1.69-0.36,1.69-1.044
				c0-0.558-0.558-0.827-1.709-1.115c-1.979-0.504-3.04-0.989-3.04-2.375c0-1.187,1.062-2.32,3.04-2.32
				c1.008,0,2.016,0.324,2.519,0.827c0.271,0.271,0.396,0.594,0.396,0.936C111.496,216.231,111.154,216.591,110.668,216.591z"/>
			<path fill="#1E5035" d="M123.437,216.591c-0.539,0-0.936-0.342-0.936-0.863c0-0.126,0.019-0.271,0.072-0.396
				c-0.306-0.144-0.756-0.233-1.241-0.233c-0.989,0-1.529,0.485-1.529,0.989c0,0.576,0.594,0.81,1.835,1.134
				c1.673,0.432,2.896,0.881,2.896,2.339c0,1.547-1.476,2.41-3.166,2.41c-1.17,0-2.356-0.396-2.879-0.917
				c-0.287-0.288-0.432-0.612-0.432-1.008c0-0.504,0.36-0.936,0.882-0.936c0.504,0,0.917,0.342,0.917,0.899
				c0,0.144-0.018,0.27-0.071,0.396c0.287,0.181,0.863,0.36,1.583,0.36c0.936,0,1.69-0.36,1.69-1.044
				c0-0.558-0.558-0.827-1.709-1.115c-1.979-0.504-3.04-0.989-3.04-2.375c0-1.187,1.062-2.32,3.04-2.32
				c1.008,0,2.016,0.324,2.519,0.827c0.271,0.271,0.396,0.594,0.396,0.936C124.265,216.231,123.924,216.591,123.437,216.591z"/>
			<path fill="#1E5035" d="M127.898,218.426c0.216,1.476,1.295,2.194,2.807,2.194c0.989,0,1.835-0.306,2.752-0.827l-0.126,1.421
				c-0.81,0.504-1.799,0.738-2.86,0.738c-2.5,0-4.191-1.619-4.191-3.994c0-2.177,1.493-4.048,3.85-4.048
				c2.393,0,3.652,1.709,3.652,3.688c0,0.287-0.036,0.593-0.072,0.827H127.898z M127.898,217.275h4.336
				c-0.072-1.241-0.828-2.087-2.142-2.087C129.049,215.188,128.096,215.872,127.898,217.275z"/>
			<path fill="#1E5035" d="M135.326,220.513h1.259v-10.542h-1.259v-1.332h2.806v11.874h1.242v1.295h-4.048V220.513z"/>
			<path fill="#1E5035" d="M142.574,218.426c0.216,1.476,1.295,2.194,2.807,2.194c0.989,0,1.835-0.306,2.752-0.827l-0.126,1.421
				c-0.81,0.504-1.799,0.738-2.86,0.738c-2.5,0-4.191-1.619-4.191-3.994c0-2.177,1.493-4.048,3.85-4.048
				c2.393,0,3.652,1.709,3.652,3.688c0,0.287-0.036,0.593-0.072,0.827H142.574z M142.574,217.275h4.336
				c-0.072-1.241-0.828-2.087-2.142-2.087C143.725,215.188,142.772,215.872,142.574,217.275z"/>
			<path fill="#1E5035" d="M150.164,217.905c0-2.087,1.674-3.994,3.887-3.994c1.925,0,3.328,1.26,3.328,2.446
				c0,0.684-0.468,1.151-1.098,1.151c-0.504,0-0.972-0.396-0.972-0.971c0-0.252,0.126-0.504,0.324-0.648
				c-0.181-0.359-0.828-0.701-1.583-0.701c-1.044,0-2.321,0.882-2.321,2.753c0,1.601,1.17,2.68,2.771,2.68
				c0.899,0,1.709-0.27,2.663-0.827l-0.145,1.421c-0.791,0.504-1.709,0.738-2.662,0.738
				C151.945,221.953,150.164,220.298,150.164,217.905z"/>
			<path fill="#1E5035" d="M159.085,217.905c0-2.087,1.674-3.994,3.887-3.994c1.925,0,3.328,1.26,3.328,2.446
				c0,0.684-0.468,1.151-1.098,1.151c-0.504,0-0.972-0.396-0.972-0.971c0-0.252,0.126-0.504,0.324-0.648
				c-0.181-0.359-0.828-0.701-1.583-0.701c-1.044,0-2.321,0.882-2.321,2.753c0,1.601,1.17,2.68,2.771,2.68
				c0.899,0,1.709-0.27,2.663-0.827l-0.145,1.421c-0.791,0.504-1.709,0.738-2.662,0.738
				C160.866,221.953,159.085,220.298,159.085,217.905z"/>
			<path fill="#1E5035" d="M168.132,220.513h1.26v-5.127h-1.26v-1.332h2.807v6.459h1.241v1.295h-4.048V220.513z M168.87,211.284
				c0-0.611,0.522-1.115,1.134-1.115c0.594,0,1.115,0.504,1.115,1.115c0,0.63-0.54,1.134-1.134,1.134
				C169.374,212.418,168.87,211.914,168.87,211.284z"/>
			<path fill="#1E5035" d="M173.851,217.941c0-2.178,1.583-4.03,4.048-4.03s4.048,1.835,4.048,4.03c0,2.158-1.602,4.012-4.048,4.012
				C175.417,221.953,173.851,220.118,173.851,217.941z M180.345,217.941c0-1.584-1.007-2.717-2.446-2.717
				c-1.457,0-2.465,1.133-2.465,2.717c0,1.583,1.008,2.698,2.465,2.698C179.339,220.639,180.345,219.524,180.345,217.941z"/>
			<path fill="#1E5035" d="M186.352,215.404c0.738-0.792,1.71-1.493,2.825-1.493c0.971,0,1.637,0.378,2.032,0.989
				c0.252,0.432,0.396,0.972,0.396,1.619v3.994h1.205v1.295h-3.904v-1.295h1.151v-3.652c0-0.378-0.054-0.684-0.18-0.917
				c-0.216-0.414-0.594-0.612-1.151-0.612c-0.846,0-1.655,0.504-2.32,1.17v4.012h1.151v1.295h-3.886v-1.295h1.205v-5.127h-1.205
				v-1.332h2.68V215.404z"/>
			<path fill="#1E5035" d="M194.139,219.74c0-1.422,1.26-2.339,3.041-2.339c0.81,0,1.709,0.18,2.122,0.306v-0.882
				c0-0.449-0.126-0.81-0.342-1.079c-0.323-0.396-0.863-0.594-1.619-0.594c-0.485,0-0.773,0.108-1.007,0.234
				c0.054,0.126,0.09,0.287,0.09,0.432c0,0.504-0.378,0.881-0.899,0.881c-0.54,0-0.918-0.377-0.918-0.917
				c0-0.918,1.008-1.871,2.986-1.871c1.206,0,2.087,0.359,2.608,0.972c0.396,0.468,0.594,1.079,0.594,1.781v3.85h1.206v1.295h-2.663
				v-0.936c-0.63,0.594-1.619,1.08-2.662,1.08C195.255,221.953,194.139,221.143,194.139,219.74z M199.302,219.866v-1.26
				c-0.521-0.144-1.187-0.27-1.889-0.27c-1.098,0-1.709,0.521-1.709,1.277c0,0.701,0.521,1.169,1.421,1.169
				C197.954,220.783,198.709,220.387,199.302,219.866z"/>
			<path fill="#1E5035" d="M203.313,217.976c0-2.213,1.565-4.065,3.777-4.065c0.972,0,1.781,0.359,2.303,0.846v-4.785h-1.331v-1.332
				h2.879v11.874h1.205v1.295h-2.734v-0.989c-0.611,0.647-1.386,1.134-2.465,1.134C204.896,221.953,203.313,220.334,203.313,217.976
				z M209.393,219.614v-3.599c-0.558-0.432-1.223-0.755-2.122-0.755c-1.332,0-2.357,1.062-2.375,2.698
				c0,1.619,1.025,2.645,2.339,2.645C208.117,220.603,208.818,220.189,209.393,219.614z"/>
			<path fill="#1E5035" d="M213.655,217.941c0-2.178,1.583-4.03,4.048-4.03s4.048,1.835,4.048,4.03c0,2.158-1.602,4.012-4.048,4.012
				C215.22,221.953,213.655,220.118,213.655,217.941z M220.149,217.941c0-1.584-1.007-2.717-2.446-2.717
				c-1.457,0-2.465,1.133-2.465,2.717c0,1.583,1.008,2.698,2.465,2.698C219.142,220.639,220.149,219.524,220.149,217.941z"/>
			<path fill="#1E5035" d="M228.962,216.591c-0.539,0-0.936-0.342-0.936-0.863c0-0.126,0.019-0.271,0.072-0.396
				c-0.306-0.144-0.756-0.233-1.241-0.233c-0.989,0-1.529,0.485-1.529,0.989c0,0.576,0.594,0.81,1.835,1.134
				c1.673,0.432,2.896,0.881,2.896,2.339c0,1.547-1.476,2.41-3.166,2.41c-1.17,0-2.357-0.396-2.879-0.917
				c-0.287-0.288-0.432-0.612-0.432-1.008c0-0.504,0.36-0.936,0.882-0.936c0.504,0,0.917,0.342,0.917,0.899
				c0,0.144-0.018,0.27-0.071,0.396c0.287,0.181,0.863,0.36,1.583,0.36c0.936,0,1.69-0.36,1.69-1.044
				c0-0.558-0.558-0.827-1.709-1.115c-1.979-0.504-3.04-0.989-3.04-2.375c0-1.187,1.062-2.32,3.04-2.32
				c1.008,0,2.016,0.324,2.519,0.827c0.271,0.271,0.396,0.594,0.396,0.936C229.79,216.231,229.448,216.591,228.962,216.591z"/>
			<path fill="#1E5035" d="M231.983,220.675c0-0.702,0.558-1.277,1.259-1.277c0.702,0,1.26,0.575,1.26,1.277
				c0,0.701-0.558,1.277-1.26,1.277C232.541,221.953,231.983,221.377,231.983,220.675z"/>
			<path fill="#1E5035" d="M33.162,243.473h1.12v-6.947h-1.12v-1.135h3.46c3.277,0,5.309,1.765,5.309,4.524
				c0,2.787-1.919,4.692-5.393,4.692h-3.376V243.473z M36.706,243.473c2.591,0,3.922-1.429,3.922-3.571
				c0-2.13-1.568-3.376-4.034-3.376h-1.036v6.947H36.706z"/>
			<path fill="#1E5035" d="M44.726,241.975c0.168,1.148,1.009,1.709,2.186,1.709c0.771,0,1.429-0.238,2.143-0.645l-0.098,1.106
				c-0.631,0.393-1.401,0.574-2.228,0.574c-1.947,0-3.264-1.261-3.264-3.109c0-1.695,1.163-3.152,2.998-3.152
				c1.862,0,2.843,1.331,2.843,2.872c0,0.224-0.027,0.462-0.056,0.645H44.726z M44.726,241.079h3.376
				c-0.057-0.967-0.645-1.625-1.667-1.625C45.623,239.454,44.881,239.986,44.726,241.079z"/>
			<path fill="#1E5035" d="M54.879,240.547c-0.421,0-0.729-0.267-0.729-0.673c0-0.098,0.014-0.21,0.056-0.309
				c-0.238-0.111-0.588-0.182-0.967-0.182c-0.771,0-1.19,0.378-1.19,0.771c0,0.448,0.462,0.63,1.429,0.883
				c1.303,0.336,2.256,0.686,2.256,1.82c0,1.205-1.149,1.877-2.466,1.877c-0.91,0-1.835-0.308-2.241-0.714
				c-0.224-0.225-0.336-0.477-0.336-0.784c0-0.393,0.28-0.729,0.687-0.729c0.392,0,0.714,0.266,0.714,0.7
				c0,0.112-0.014,0.21-0.056,0.308c0.224,0.141,0.672,0.28,1.232,0.28c0.729,0,1.316-0.28,1.316-0.812
				c0-0.434-0.434-0.644-1.33-0.868c-1.541-0.393-2.367-0.771-2.367-1.849c0-0.925,0.826-1.808,2.367-1.808
				c0.784,0,1.568,0.253,1.961,0.645c0.21,0.21,0.308,0.462,0.308,0.729C55.522,240.266,55.257,240.547,54.879,240.547z"/>
			<path fill="#1E5035" d="M57.101,241.569c0-1.625,1.303-3.11,3.026-3.11c1.498,0,2.591,0.98,2.591,1.905
				c0,0.532-0.364,0.896-0.854,0.896c-0.392,0-0.756-0.308-0.756-0.756c0-0.196,0.098-0.393,0.252-0.505
				c-0.141-0.28-0.645-0.546-1.232-0.546c-0.812,0-1.808,0.687-1.808,2.143c0,1.247,0.911,2.088,2.157,2.088
				c0.7,0,1.331-0.211,2.073-0.645l-0.112,1.106c-0.616,0.393-1.33,0.574-2.072,0.574C58.488,244.72,57.101,243.431,57.101,241.569z
				"/>
			<path fill="#1E5035" d="M65.025,243.922c-0.182-0.336-0.279-0.742-0.279-1.232v-3.081h-0.938v-1.037h2.129v3.853
				c0,0.308,0.056,0.546,0.154,0.728c0.168,0.322,0.448,0.463,0.882,0.463c0.658,0,1.275-0.406,1.808-0.911v-3.095h-0.967v-1.037
				h2.171v5.028h0.938v1.009h-2.101v-1.051c-0.574,0.617-1.331,1.163-2.199,1.163C65.852,244.72,65.334,244.412,65.025,243.922z"/>
			<path fill="#1E5035" d="M73.384,241.975c0.168,1.148,1.009,1.709,2.186,1.709c0.771,0,1.429-0.238,2.143-0.645l-0.098,1.106
				c-0.631,0.393-1.401,0.574-2.228,0.574c-1.947,0-3.264-1.261-3.264-3.109c0-1.695,1.163-3.152,2.998-3.152
				c1.862,0,2.843,1.331,2.843,2.872c0,0.224-0.027,0.462-0.056,0.645H73.384z M73.384,241.079h3.376
				c-0.057-0.967-0.645-1.625-1.667-1.625C74.281,239.454,73.539,239.986,73.384,241.079z"/>
			<path fill="#1E5035" d="M81.35,239.622c0.574-0.616,1.331-1.163,2.199-1.163c0.756,0,1.274,0.295,1.583,0.771
				c0.196,0.336,0.308,0.757,0.308,1.261v3.109h0.938v1.009H83.34v-1.009h0.896v-2.843c0-0.295-0.042-0.532-0.141-0.715
				c-0.168-0.322-0.462-0.477-0.896-0.477c-0.658,0-1.288,0.393-1.807,0.911v3.123h0.896v1.009h-3.025v-1.009h0.938v-3.991h-0.938
				v-1.037h2.087V239.622z"/>
			<path fill="#1E5035" d="M88.448,243.964c-0.112-0.237-0.183-0.546-0.183-0.882v-3.474h-1.135v-1.037h1.135v-1.387l1.205-0.49
				v1.877h1.835v1.037H89.47v3.264c0,0.195,0.028,0.336,0.084,0.462c0.112,0.196,0.336,0.294,0.687,0.294
				c0.364,0,0.798-0.168,1.148-0.336l-0.126,1.078c-0.351,0.183-0.799,0.351-1.358,0.351
				C89.232,244.72,88.714,244.482,88.448,243.964z"/>
			<path fill="#1E5035" d="M92.578,241.596c0-1.694,1.232-3.138,3.151-3.138s3.151,1.429,3.151,3.138
				c0,1.682-1.246,3.124-3.151,3.124C93.797,244.72,92.578,243.292,92.578,241.596z M97.634,241.596
				c0-1.232-0.784-2.115-1.905-2.115c-1.135,0-1.919,0.883-1.919,2.115c0,1.233,0.784,2.102,1.919,2.102
				C96.85,243.698,97.634,242.83,97.634,241.596z"/>
			<path fill="#1E5035" d="M103.637,243.599h0.938v-3.991h-0.938v-1.037h2.087v1.051c0.504-0.589,1.247-1.163,2.129-1.163
				c0.7,0,1.177,0.267,1.471,0.687c0.084,0.126,0.141,0.267,0.183,0.42c0.616-0.616,1.358-1.106,2.129-1.106
				c0.868,0,1.4,0.322,1.681,0.869c0.154,0.322,0.238,0.714,0.238,1.148v3.123h0.938v1.009h-3.039v-1.009h0.896v-2.857
				c0-0.28-0.043-0.504-0.112-0.686c-0.141-0.337-0.421-0.491-0.854-0.491c-0.616,0-1.19,0.364-1.723,0.883v3.151h0.882v1.009
				h-2.983v-1.009h0.896v-2.857c0-0.28-0.028-0.504-0.098-0.686c-0.154-0.337-0.421-0.491-0.854-0.491
				c-0.645,0-1.219,0.393-1.737,0.896v3.138h0.883v1.009h-3.012V243.599z"/>
			<path fill="#1E5035" d="M115.523,242.998c0-1.106,0.98-1.821,2.367-1.821c0.631,0,1.331,0.14,1.653,0.238v-0.687
				c0-0.351-0.099-0.63-0.267-0.841c-0.252-0.308-0.672-0.462-1.261-0.462c-0.378,0-0.602,0.084-0.784,0.183
				c0.042,0.098,0.07,0.224,0.07,0.336c0,0.392-0.294,0.687-0.7,0.687c-0.421,0-0.715-0.295-0.715-0.715
				c0-0.714,0.784-1.457,2.325-1.457c0.938,0,1.625,0.28,2.031,0.757c0.308,0.364,0.462,0.841,0.462,1.387v2.997h0.938v1.009h-2.073
				v-0.729c-0.49,0.463-1.26,0.841-2.072,0.841C116.391,244.72,115.523,244.09,115.523,242.998z M119.544,243.095v-0.98
				c-0.406-0.112-0.925-0.21-1.471-0.21c-0.854,0-1.331,0.406-1.331,0.994c0,0.547,0.406,0.911,1.106,0.911
				C118.493,243.81,119.081,243.502,119.544,243.095z M117.722,237.24l1.625-1.904c0.196-0.225,0.435-0.364,0.672-0.364
				c0.337,0,0.617,0.266,0.617,0.645c0,0.224-0.154,0.49-0.448,0.686l-2.115,1.331L117.722,237.24z"/>
			<path fill="#1E5035" d="M122.34,243.572h0.798l1.905-2.018l-1.807-1.946h-0.784v-1.037h2.815v0.967h-0.771l1.232,1.471
				l1.232-1.471h-0.784v-0.967h2.787v1.037h-0.798l-1.779,1.904l1.919,2.06h0.799v1.036h-2.844v-0.966h0.784l-1.358-1.583
				l-1.345,1.583h0.799v0.966h-2.802V243.572z"/>
			<path fill="#1E5035" d="M130.153,243.599h0.98v-3.991h-0.98v-1.037h2.186v5.028h0.966v1.009h-3.151V243.599z M130.727,236.414
				c0-0.477,0.406-0.868,0.883-0.868c0.462,0,0.868,0.392,0.868,0.868c0,0.49-0.42,0.883-0.883,0.883
				C131.12,237.297,130.727,236.904,130.727,236.414z"/>
			<path fill="#1E5035" d="M134.563,243.599h0.938v-3.991h-0.938v-1.037h2.087v1.051c0.504-0.589,1.247-1.163,2.129-1.163
				c0.7,0,1.177,0.267,1.471,0.687c0.084,0.126,0.141,0.267,0.183,0.42c0.616-0.616,1.358-1.106,2.129-1.106
				c0.868,0,1.4,0.322,1.681,0.869c0.154,0.322,0.238,0.714,0.238,1.148v3.123h0.938v1.009h-3.039v-1.009h0.896v-2.857
				c0-0.28-0.043-0.504-0.112-0.686c-0.141-0.337-0.421-0.491-0.854-0.491c-0.616,0-1.19,0.364-1.723,0.883v3.151h0.882v1.009
				h-2.983v-1.009h0.896v-2.857c0-0.28-0.028-0.504-0.098-0.686c-0.154-0.337-0.421-0.491-0.854-0.491
				c-0.645,0-1.219,0.393-1.737,0.896v3.138h0.883v1.009h-3.012V243.599z"/>
			<path fill="#1E5035" d="M146.435,241.596c0-1.694,1.232-3.138,3.151-3.138s3.151,1.429,3.151,3.138
				c0,1.682-1.246,3.124-3.151,3.124C147.654,244.72,146.435,243.292,146.435,241.596z M151.492,241.596
				c0-1.232-0.784-2.115-1.905-2.115c-1.135,0-1.919,0.883-1.919,2.115c0,1.233,0.784,2.102,1.919,2.102
				C150.708,243.698,151.492,242.83,151.492,241.596z"/>
			<path fill="#1E5035" d="M157.537,241.625c0-1.723,1.219-3.166,2.941-3.166c0.757,0,1.387,0.28,1.793,0.658v-3.726h-1.036v-1.036
				h2.24v9.244h0.939v1.009h-2.13v-0.771c-0.476,0.505-1.078,0.883-1.919,0.883C158.769,244.72,157.537,243.46,157.537,241.625z
				 M162.271,242.899v-2.801c-0.435-0.337-0.952-0.589-1.653-0.589c-1.036,0-1.835,0.826-1.849,2.102
				c0,1.261,0.799,2.059,1.821,2.059C161.277,243.67,161.823,243.347,162.271,242.899z"/>
			<path fill="#1E5035" d="M166.819,241.975c0.168,1.148,1.009,1.709,2.186,1.709c0.771,0,1.429-0.238,2.143-0.645l-0.098,1.106
				c-0.631,0.393-1.401,0.574-2.228,0.574c-1.947,0-3.264-1.261-3.264-3.109c0-1.695,1.163-3.152,2.998-3.152
				c1.862,0,2.843,1.331,2.843,2.872c0,0.224-0.027,0.462-0.056,0.645H166.819z M166.819,241.079h3.376
				c-0.057-0.967-0.645-1.625-1.667-1.625C167.715,239.454,166.973,239.986,166.819,241.079z"/>
			<path fill="#1E5035" d="M176.437,243.599h1.681v-4.944l-1.457,0.364l-0.28-1.022l2.396-0.63h0.561v6.232h1.652v1.009h-4.552
				V243.599z"/>
			<path fill="#1E5035" d="M182.386,240.995c0-2.13,1.401-3.713,3.348-3.713c1.947,0,3.348,1.598,3.348,3.713
				c0,2.143-1.4,3.726-3.348,3.726C183.788,244.72,182.386,243.124,182.386,240.995z M187.836,240.995
				c0-1.541-0.854-2.689-2.102-2.689c-1.246,0-2.101,1.134-2.101,2.689c0,1.568,0.854,2.689,2.101,2.689
				C186.981,243.684,187.836,242.563,187.836,240.995z"/>
			<path fill="#1E5035" d="M190.59,240.995c0-2.13,1.4-3.713,3.348-3.713s3.348,1.598,3.348,3.713c0,2.143-1.4,3.726-3.348,3.726
				S190.59,243.124,190.59,240.995z M196.04,240.995c0-1.541-0.854-2.689-2.102-2.689c-1.246,0-2.101,1.134-2.101,2.689
				c0,1.568,0.854,2.689,2.101,2.689C195.185,243.684,196.04,242.563,196.04,240.995z"/>
			<path fill="#1E5035" d="M206.384,240.547c-0.421,0-0.729-0.267-0.729-0.673c0-0.098,0.014-0.21,0.056-0.309
				c-0.238-0.111-0.588-0.182-0.967-0.182c-0.771,0-1.19,0.378-1.19,0.771c0,0.448,0.462,0.63,1.429,0.883
				c1.303,0.336,2.256,0.686,2.256,1.82c0,1.205-1.149,1.877-2.466,1.877c-0.91,0-1.835-0.308-2.241-0.714
				c-0.224-0.225-0.336-0.477-0.336-0.784c0-0.393,0.28-0.729,0.687-0.729c0.392,0,0.714,0.266,0.714,0.7
				c0,0.112-0.014,0.21-0.056,0.308c0.224,0.141,0.672,0.28,1.232,0.28c0.729,0,1.316-0.28,1.316-0.812
				c0-0.434-0.434-0.644-1.33-0.868c-1.541-0.393-2.367-0.771-2.367-1.849c0-0.925,0.826-1.808,2.367-1.808
				c0.784,0,1.568,0.253,1.961,0.645c0.21,0.21,0.308,0.462,0.308,0.729C207.028,240.266,206.762,240.547,206.384,240.547z"/>
			<path fill="#1E5035" d="M208.623,241.596c0-1.694,1.232-3.138,3.151-3.138s3.151,1.429,3.151,3.138
				c0,1.682-1.246,3.124-3.151,3.124C209.841,244.72,208.623,243.292,208.623,241.596z M213.679,241.596
				c0-1.232-0.784-2.115-1.905-2.115c-1.135,0-1.919,0.883-1.919,2.115c0,1.233,0.784,2.102,1.919,2.102
				C212.895,243.698,213.679,242.83,213.679,241.596z"/>
			<path fill="#1E5035" d="M216.168,243.599h0.98v-8.208h-0.98v-1.036h2.186v9.244h0.967v1.009h-3.152V243.599z"/>
			<path fill="#1E5035" d="M221.81,241.975c0.168,1.148,1.009,1.709,2.186,1.709c0.771,0,1.429-0.238,2.143-0.645l-0.098,1.106
				c-0.631,0.393-1.401,0.574-2.228,0.574c-1.947,0-3.264-1.261-3.264-3.109c0-1.695,1.163-3.152,2.998-3.152
				c1.862,0,2.843,1.331,2.843,2.872c0,0.224-0.027,0.462-0.056,0.645H221.81z M221.81,241.079h3.376
				c-0.057-0.967-0.645-1.625-1.667-1.625C222.707,239.454,221.965,239.986,221.81,241.079z"/>
			<path fill="#1E5035" d="M231.963,240.547c-0.421,0-0.729-0.267-0.729-0.673c0-0.098,0.014-0.21,0.056-0.309
				c-0.238-0.111-0.588-0.182-0.967-0.182c-0.771,0-1.19,0.378-1.19,0.771c0,0.448,0.462,0.63,1.429,0.883
				c1.303,0.336,2.256,0.686,2.256,1.82c0,1.205-1.149,1.877-2.466,1.877c-0.91,0-1.835-0.308-2.241-0.714
				c-0.224-0.225-0.336-0.477-0.336-0.784c0-0.393,0.28-0.729,0.687-0.729c0.392,0,0.714,0.266,0.714,0.7
				c0,0.112-0.014,0.21-0.056,0.308c0.224,0.141,0.672,0.28,1.232,0.28c0.729,0,1.316-0.28,1.316-0.812
				c0-0.434-0.434-0.644-1.33-0.868c-1.541-0.393-2.367-0.771-2.367-1.849c0-0.925,0.826-1.808,2.367-1.808
				c0.784,0,1.568,0.253,1.961,0.645c0.21,0.21,0.308,0.462,0.308,0.729C232.606,240.266,232.34,240.547,231.963,240.547z"/>
		</g>
	</g>
	<rect x="6.4" y="2.666" fill="#16A314" width="253.534" height="30.082"/>
	<g>
		<path fill="#FFFFFF" d="M113.606,21.083h0.042l3.387-9.545h3.852v14.392h-2.899v-9.143h-0.042l-3.429,9.143h-2.117l-3.344-9.143
			h-0.042v9.143h-2.836V11.538h3.873L113.606,21.083z"/>
		<path fill="#FFFFFF" d="M128.184,22.861v3.069h-2.752v-3.069H128.184z"/>
		<path fill="#FFFFFF" d="M141.241,18.501c1.566,0.466,2.604,1.63,2.604,3.492c0,2.455-1.588,3.937-4.593,3.937h-6.519V11.538h6.095
			c3.006,0,4.593,1.354,4.593,3.683c0,1.545-0.847,2.751-2.18,3.238V18.501z M138.51,14.141h-2.856v3.111h2.856
			c1.207,0,1.842-0.444,1.842-1.566C140.352,14.628,139.717,14.141,138.51,14.141z M135.654,19.855v3.492h3.11
			c1.228,0,2.011-0.402,2.011-1.756c0-1.291-0.783-1.736-2.116-1.736H135.654z"/>
		<path fill="#FFFFFF" d="M147.757,20.638c0-3.323,1.418-5.502,5.143-5.502s5.121,2.18,5.121,5.502c0,3.344-1.396,5.502-5.121,5.502
			S147.757,23.982,147.757,20.638z M151.397,11.538v2.434h-2.265v-2.434H151.397z M150.677,20.638c0,1.968,0.487,3.238,2.223,3.238
			s2.222-1.27,2.222-3.238c0-1.947-0.486-3.217-2.222-3.217S150.677,18.691,150.677,20.638z M156.476,11.538v2.434h-2.265v-2.434
			H156.476z"/>
	</g>
	<g>
		<g>
			<path fill="#1E5035" d="M54.91,97.324l-2.886-7.696c7.803-3.421,14.002-5.345,22.98-5.345c15.713,0,22.981,9.94,22.981,21.698
				c0,14.965-11.01,28.325-32.388,43.29v0.214h33.456v8.551h-47.03v-9.299c30.57-20.202,35.808-32.708,35.808-40.618
				c0-13.36-10.154-14.964-14.965-14.964C67.63,93.155,62.499,93.903,54.91,97.324z"/>
			<path fill="#1E5035" d="M106.534,121.16c0-20.309,5.023-36.877,25.653-36.877c20.522,0,25.652,16.568,25.652,36.877
				c0,20.629-5.13,37.945-25.652,37.945C111.557,159.105,106.534,141.789,106.534,121.16z M116.688,121.16
				c0,15.498,2.886,29.929,15.499,29.929c12.506,0,15.498-14.431,15.498-29.929c0-15.499-2.992-28.86-15.498-28.86
				C119.574,92.299,116.688,105.661,116.688,121.16z"/>
		</g>
	</g>
</g>
<g>
</g>
<g>
</g>
<g>
</g>
<g>
</g>
<g>
</g>
<g>
</g>
<g>
</g>
<g>
</g>
<g>
</g>
<g>
</g>
<g>
</g>
<g>
</g>
<g>
</g>
<g>
</g>
<g>
</g>
</svg>
