<?xml version="1.0" encoding="utf-8"?>
<!-- Generator: Adobe Illustrator 17.0.0, SVG Export Plug-In . SVG Version: 6.00 Build 0)  -->
<!DOCTYPE svg PUBLIC "-//W3C//DTD SVG 1.1//EN" "http://www.w3.org/Graphics/SVG/1.1/DTD/svg11.dtd">
<svg version="1.1" id="Layer_1" xmlns="http://www.w3.org/2000/svg" xmlns:xlink="http://www.w3.org/1999/xlink" x="0px" y="0px"
	 width="266.333px" height="265px" viewBox="0 0 266.333 265" enable-background="new 0 0 266.333 265" xml:space="preserve">
<g>
	<g>
		<path fill="#1E5035" d="M169.961,96.812c0-5.59,3.056-9.101,8.841-9.101c5.72,0,8.841,3.51,8.841,9.101s-3.121,9.035-8.841,9.035
			C173.017,105.847,169.961,102.402,169.961,96.812z M183.872,96.812c0-3.9-1.689-6.045-5.069-6.045s-5.136,2.145-5.136,6.045
			c0,3.9,1.756,5.98,5.136,5.98S183.872,100.712,183.872,96.812z M181.663,132.238h-3.9l24.051-44.202h3.9L181.663,132.238z
			 M195.833,123.528c0-5.59,3.055-9.1,8.84-9.1c5.721,0,8.841,3.51,8.841,9.1s-3.12,9.036-8.841,9.036
			C198.887,132.563,195.833,129.118,195.833,123.528z M209.743,123.528c0-3.9-1.689-6.045-5.07-6.045
			c-3.379,0-5.135,2.145-5.135,6.045c0,3.9,1.756,5.98,5.135,5.98C208.053,129.508,209.743,127.428,209.743,123.528z"/>
		<path fill="#1E5035" d="M168.231,150.795c0-4.126,1.237-7.491,6.297-7.491c5.037,0,6.297,3.365,6.297,7.491
			c0,4.19-1.26,7.708-6.297,7.708C169.468,158.503,168.231,154.985,168.231,150.795z M170.403,150.795
			c0,3.148,0.586,5.971,4.125,5.971c3.518,0,4.125-2.822,4.125-5.971s-0.607-5.754-4.125-5.754
			C170.989,145.041,170.403,147.646,170.403,150.795z"/>
		<path fill="#1E5035" d="M192.827,145.366h-7.165v4.777h6.188v1.846h-6.188v6.297h-2.063v-14.766h9.229V145.366z"/>
		<path fill="#1E5035" d="M204.874,145.366h-7.165v4.777h6.188v1.846h-6.188v6.297h-2.063v-14.766h9.229V145.366z"/>
	</g>
	<g>
		<g>
			<path fill="#1E5035" d="M35.043,201.337h1.439v-8.924h-1.439v-1.457h8.689v3.095h-1.548v-1.655H38.12v3.67h3.742v1.403H38.12
				v3.886h4.065v-1.655h1.565v3.095h-8.707V201.337z"/>
			<path fill="#1E5035" d="M48.461,196.39c0.738-0.792,1.709-1.493,2.824-1.493c0.972,0,1.638,0.377,2.033,0.989
				c0.252,0.432,0.396,0.972,0.396,1.619v3.993h1.206v1.296h-3.904v-1.296h1.151v-3.651c0-0.378-0.054-0.684-0.18-0.918
				c-0.216-0.413-0.594-0.611-1.151-0.611c-0.846,0-1.655,0.504-2.321,1.169v4.012h1.151v1.296h-3.886v-1.296h1.206v-5.127h-1.206
				v-1.331h2.681V196.39z"/>
			<path fill="#1E5035" d="M60.782,200.725c0-1.421,1.259-2.339,3.04-2.339c0.81,0,1.709,0.181,2.123,0.307v-0.882
				c0-0.45-0.126-0.81-0.342-1.079c-0.324-0.396-0.864-0.594-1.619-0.594c-0.486,0-0.774,0.107-1.008,0.233
				c0.054,0.126,0.09,0.288,0.09,0.432c0,0.504-0.378,0.882-0.899,0.882c-0.54,0-0.917-0.378-0.917-0.918
				c0-0.917,1.007-1.87,2.986-1.87c1.205,0,2.086,0.359,2.608,0.971c0.396,0.468,0.594,1.08,0.594,1.781v3.85h1.205v1.296H65.98
				v-0.936c-0.629,0.594-1.619,1.079-2.662,1.079C61.897,202.938,60.782,202.128,60.782,200.725z M65.945,200.851v-1.259
				c-0.522-0.145-1.188-0.271-1.89-0.271c-1.097,0-1.709,0.522-1.709,1.277c0,0.702,0.521,1.17,1.422,1.17
				C64.595,201.769,65.351,201.372,65.945,200.851z"/>
			<path fill="#1E5035" d="M70.081,196.371h-0.972v-1.331h3.76v1.277h-1.188l2.104,4.659l2.105-4.659H74.65v-1.277h3.76v1.331
				h-0.972l-3.185,6.639h-0.989L70.081,196.371z"/>
			<path fill="#1E5035" d="M79.326,200.725c0-1.421,1.259-2.339,3.04-2.339c0.81,0,1.709,0.181,2.123,0.307v-0.882
				c0-0.45-0.126-0.81-0.342-1.079c-0.324-0.396-0.864-0.594-1.619-0.594c-0.486,0-0.774,0.107-1.008,0.233
				c0.054,0.126,0.09,0.288,0.09,0.432c0,0.504-0.378,0.882-0.899,0.882c-0.54,0-0.917-0.378-0.917-0.918
				c0-0.917,1.007-1.87,2.986-1.87c1.205,0,2.086,0.359,2.608,0.971c0.396,0.468,0.594,1.08,0.594,1.781v3.85h1.205v1.296h-2.663
				v-0.936c-0.629,0.594-1.619,1.079-2.662,1.079C80.441,202.938,79.326,202.128,79.326,200.725z M84.489,200.851v-1.259
				c-0.522-0.145-1.188-0.271-1.89-0.271c-1.097,0-1.709,0.522-1.709,1.277c0,0.702,0.521,1.17,1.422,1.17
				C83.139,201.769,83.895,201.372,84.489,200.851z"/>
			<path fill="#1E5035" d="M91.269,196.39c0.737-0.792,1.709-1.493,2.824-1.493c0.972,0,1.637,0.377,2.033,0.989
				c0.252,0.432,0.396,0.972,0.396,1.619v3.993h1.205v1.296h-3.903v-1.296h1.151v-3.651c0-0.378-0.055-0.684-0.181-0.918
				c-0.216-0.413-0.594-0.611-1.151-0.611c-0.845,0-1.654,0.504-2.32,1.169v4.012h1.151v1.296h-3.886v-1.296h1.205v-5.127h-1.205
				v-1.331h2.681V196.39z"/>
			<path fill="#1E5035" d="M99.02,198.89c0-2.087,1.673-3.993,3.886-3.993c1.925,0,3.328,1.259,3.328,2.446
				c0,0.684-0.468,1.151-1.097,1.151c-0.504,0-0.972-0.396-0.972-0.972c0-0.252,0.126-0.504,0.323-0.647
				c-0.18-0.359-0.827-0.701-1.583-0.701c-1.043,0-2.32,0.881-2.32,2.752c0,1.602,1.169,2.681,2.771,2.681
				c0.899,0,1.709-0.27,2.662-0.827l-0.144,1.421c-0.792,0.504-1.709,0.737-2.663,0.737C100.801,202.938,99.02,201.282,99.02,198.89
				z"/>
			<path fill="#1E5035" d="M109.542,199.411c0.216,1.476,1.295,2.195,2.807,2.195c0.989,0,1.835-0.306,2.752-0.827l-0.126,1.421
				c-0.81,0.504-1.799,0.737-2.86,0.737c-2.501,0-4.191-1.619-4.191-3.994c0-2.177,1.493-4.047,3.85-4.047
				c2.393,0,3.652,1.709,3.652,3.688c0,0.288-0.036,0.594-0.072,0.827H109.542z M109.542,198.26h4.335
				c-0.071-1.241-0.827-2.086-2.141-2.086C110.694,196.174,109.74,196.857,109.542,198.26z"/>
			<path fill="#1E5035" d="M121.539,198.962c0-2.213,1.565-4.065,3.778-4.065c0.971,0,1.78,0.359,2.303,0.845v-4.785h-1.332v-1.331
				h2.879v11.873h1.205v1.296h-2.734v-0.989c-0.611,0.647-1.385,1.133-2.465,1.133C123.122,202.938,121.539,201.318,121.539,198.962
				z M127.62,200.599v-3.598c-0.558-0.432-1.224-0.756-2.123-0.756c-1.331,0-2.356,1.062-2.375,2.698
				c0,1.619,1.025,2.645,2.339,2.645C126.342,201.588,127.043,201.175,127.62,200.599z"/>
			<path fill="#1E5035" d="M133.464,199.411c0.216,1.476,1.295,2.195,2.807,2.195c0.989,0,1.835-0.306,2.752-0.827l-0.126,1.421
				c-0.81,0.504-1.799,0.737-2.86,0.737c-2.501,0-4.191-1.619-4.191-3.994c0-2.177,1.493-4.047,3.85-4.047
				c2.393,0,3.652,1.709,3.652,3.688c0,0.288-0.036,0.594-0.072,0.827H133.464z M133.464,198.26h4.335
				c-0.071-1.241-0.827-2.086-2.141-2.086C134.616,196.174,133.662,196.857,133.464,198.26z"/>
			<path fill="#1E5035" d="M146.666,201.966c-0.144-0.306-0.234-0.701-0.234-1.133v-4.462h-1.457v-1.331h1.457v-1.781l1.548-0.63
				v2.411h2.356v1.331h-2.356v4.191c0,0.252,0.036,0.433,0.107,0.594c0.145,0.252,0.432,0.378,0.882,0.378
				c0.468,0,1.025-0.216,1.475-0.432l-0.161,1.386c-0.45,0.233-1.025,0.449-1.745,0.449
				C147.673,202.938,147.007,202.632,146.666,201.966z"/>
			<path fill="#1E5035" d="M153.554,199.411c0.216,1.476,1.296,2.195,2.807,2.195c0.989,0,1.835-0.306,2.753-0.827l-0.126,1.421
				c-0.81,0.504-1.8,0.737-2.86,0.737c-2.501,0-4.192-1.619-4.192-3.994c0-2.177,1.493-4.047,3.851-4.047
				c2.393,0,3.651,1.709,3.651,3.688c0,0.288-0.036,0.594-0.071,0.827H153.554z M153.554,198.26h4.336
				c-0.072-1.241-0.827-2.086-2.141-2.086C154.706,196.174,153.752,196.857,153.554,198.26z"/>
			<path fill="#1E5035" d="M161.108,201.498h1.206v-5.127h-1.206v-1.331h2.681v1.35c0.647-0.756,1.602-1.493,2.734-1.493
				c0.899,0,1.512,0.342,1.89,0.881c0.107,0.162,0.18,0.342,0.233,0.54c0.792-0.792,1.745-1.421,2.734-1.421
				c1.115,0,1.799,0.413,2.159,1.115c0.198,0.413,0.306,0.917,0.306,1.475v4.012h1.205v1.296h-3.903v-1.296h1.151v-3.67
				c0-0.359-0.055-0.647-0.145-0.881c-0.18-0.432-0.539-0.63-1.097-0.63c-0.792,0-1.529,0.468-2.213,1.133v4.048h1.133v1.296h-3.832
				v-1.296h1.151v-3.67c0-0.359-0.035-0.647-0.125-0.881c-0.198-0.432-0.54-0.63-1.098-0.63c-0.828,0-1.565,0.504-2.231,1.151v4.029
				h1.134v1.296h-3.868V201.498z"/>
			<path fill="#1E5035" d="M176.163,205.024h1.205v-8.653h-1.205v-1.331h2.681v1.008c0.647-0.666,1.367-1.151,2.482-1.151
				c2.033,0,3.616,1.619,3.616,3.976c0,2.23-1.565,4.065-3.76,4.065c-0.882,0-1.655-0.323-2.267-0.827v2.914h1.385v1.295h-4.138
				V205.024z M183.34,198.89c0-1.619-0.989-2.645-2.303-2.645c-0.881,0-1.547,0.414-2.122,0.989v3.616
				c0.539,0.432,1.223,0.737,2.086,0.737C182.315,201.588,183.34,200.527,183.34,198.89z"/>
			<path fill="#1E5035" d="M186.739,198.926c0-2.177,1.583-4.029,4.048-4.029c2.464,0,4.047,1.835,4.047,4.029
				c0,2.159-1.601,4.012-4.047,4.012C188.303,202.938,186.739,201.103,186.739,198.926z M193.233,198.926
				c0-1.583-1.008-2.717-2.446-2.717c-1.458,0-2.465,1.134-2.465,2.717s1.007,2.698,2.465,2.698
				C192.225,201.624,193.233,200.509,193.233,198.926z"/>
			<path fill="#1E5035" d="M202.927,196.029c0,0.558-0.449,1.044-0.989,1.044c-0.521,0-0.882-0.324-1.025-0.666
				c-0.576,0.18-1.241,0.827-1.619,1.565v3.525h1.421v1.296h-4.155v-1.296h1.205v-5.127h-1.205v-1.331h2.681v1.763
				c0.611-1.062,1.511-1.906,2.41-1.906C202.496,194.896,202.927,195.418,202.927,196.029z"/>
			<path fill="#1E5035" d="M204.078,200.725c0-1.421,1.259-2.339,3.04-2.339c0.81,0,1.709,0.181,2.123,0.307v-0.882
				c0-0.45-0.126-0.81-0.342-1.079c-0.324-0.396-0.864-0.594-1.619-0.594c-0.486,0-0.774,0.107-1.008,0.233
				c0.054,0.126,0.09,0.288,0.09,0.432c0,0.504-0.378,0.882-0.899,0.882c-0.54,0-0.917-0.378-0.917-0.918
				c0-0.917,1.007-1.87,2.986-1.87c1.205,0,2.086,0.359,2.608,0.971c0.396,0.468,0.594,1.08,0.594,1.781v3.85h1.205v1.296h-2.663
				v-0.936c-0.629,0.594-1.619,1.079-2.662,1.079C205.193,202.938,204.078,202.128,204.078,200.725z M209.241,200.851v-1.259
				c-0.522-0.145-1.188-0.271-1.89-0.271c-1.097,0-1.709,0.522-1.709,1.277c0,0.702,0.521,1.17,1.422,1.17
				C207.891,201.769,208.647,201.372,209.241,200.851z"/>
			<path fill="#1E5035" d="M213.25,198.962c0-2.213,1.564-4.065,3.777-4.065c0.972,0,1.781,0.359,2.303,0.845v-4.785H218v-1.331
				h2.878v11.873h1.206v1.296h-2.734v-0.989c-0.612,0.647-1.386,1.133-2.465,1.133C214.833,202.938,213.25,201.318,213.25,198.962z
				 M219.331,200.599v-3.598c-0.558-0.432-1.223-0.756-2.123-0.756c-1.331,0-2.356,1.062-2.374,2.698
				c0,1.619,1.025,2.645,2.339,2.645C218.053,201.588,218.755,201.175,219.331,200.599z"/>
			<path fill="#1E5035" d="M223.466,200.725c0-1.421,1.26-2.339,3.04-2.339c0.81,0,1.709,0.181,2.123,0.307v-0.882
				c0-0.45-0.126-0.81-0.342-1.079c-0.323-0.396-0.863-0.594-1.619-0.594c-0.485,0-0.773,0.107-1.007,0.233
				c0.054,0.126,0.09,0.288,0.09,0.432c0,0.504-0.378,0.882-0.899,0.882c-0.54,0-0.918-0.378-0.918-0.918
				c0-0.917,1.008-1.87,2.986-1.87c1.205,0,2.087,0.359,2.608,0.971c0.396,0.468,0.594,1.08,0.594,1.781v3.85h1.205v1.296h-2.662
				v-0.936c-0.63,0.594-1.619,1.079-2.662,1.079C224.582,202.938,223.466,202.128,223.466,200.725z M228.629,200.851v-1.259
				c-0.521-0.145-1.188-0.271-1.889-0.271c-1.098,0-1.709,0.522-1.709,1.277c0,0.702,0.521,1.17,1.421,1.17
				C227.28,201.769,228.036,201.372,228.629,200.851z"/>
			<path fill="#1E5035" d="M50.701,218.458c0-3.472,2.519-6.134,6.062-6.134c3.49,0,5.973,2.68,5.973,6.134
				c0,3.473-2.519,6.135-6.062,6.135C53.183,224.593,50.701,221.912,50.701,218.458z M61.063,218.458
				c0-2.645-1.816-4.623-4.335-4.623c-2.537,0-4.354,1.961-4.354,4.623c0,2.645,1.817,4.624,4.354,4.624
				C59.247,223.082,61.063,221.121,61.063,218.458z"/>
			<path fill="#1E5035" d="M65.954,223.55c-0.144-0.306-0.234-0.702-0.234-1.134v-4.461h-1.457v-1.332h1.457v-1.78l1.548-0.63v2.41
				h2.356v1.332h-2.356v4.191c0,0.252,0.036,0.432,0.107,0.594c0.145,0.252,0.432,0.378,0.882,0.378
				c0.468,0,1.025-0.216,1.475-0.432l-0.161,1.385c-0.45,0.234-1.025,0.45-1.745,0.45C66.961,224.521,66.295,224.215,65.954,223.55z
				"/>
			<path fill="#1E5035" d="M71.259,220.51c0-2.177,1.583-4.03,4.048-4.03c2.464,0,4.047,1.835,4.047,4.03
				c0,2.158-1.601,4.012-4.047,4.012C72.824,224.521,71.259,222.687,71.259,220.51z M77.753,220.51c0-1.584-1.008-2.717-2.446-2.717
				c-1.458,0-2.465,1.133-2.465,2.717c0,1.583,1.007,2.698,2.465,2.698C76.746,223.208,77.753,222.093,77.753,220.51z"/>
			<path fill="#1E5035" d="M83.76,217.973c0.737-0.791,1.709-1.493,2.824-1.493c0.972,0,1.637,0.378,2.033,0.989
				c0.252,0.432,0.396,0.972,0.396,1.619v3.994h1.205v1.295h-3.903v-1.295h1.151v-3.652c0-0.378-0.055-0.684-0.181-0.917
				c-0.216-0.414-0.594-0.612-1.151-0.612c-0.845,0-1.654,0.504-2.32,1.17v4.012h1.151v1.295H81.08v-1.295h1.205v-5.127H81.08
				v-1.332h2.681V217.973z M85.416,214.572c-0.433-0.378-0.72-0.539-0.99-0.539c-0.413,0-0.701,0.342-0.863,1.097l-1.134-0.27
				c0.145-1.439,1.008-2.356,1.907-2.356c0.702,0,1.188,0.306,1.583,0.665c0.45,0.378,0.738,0.54,0.99,0.54
				c0.432,0,0.719-0.342,0.881-1.098l1.115,0.271c-0.126,1.438-0.989,2.356-1.889,2.356
				C86.315,215.238,85.829,214.933,85.416,214.572z"/>
			<path fill="#1E5035" d="M91.53,220.51c0-2.177,1.583-4.03,4.048-4.03c2.464,0,4.047,1.835,4.047,4.03
				c0,2.158-1.601,4.012-4.047,4.012C93.094,224.521,91.53,222.687,91.53,220.51z M98.024,220.51c0-1.584-1.008-2.717-2.446-2.717
				c-1.458,0-2.465,1.133-2.465,2.717c0,1.583,1.007,2.698,2.465,2.698C97.016,223.208,98.024,222.093,98.024,220.51z"/>
			<path fill="#1E5035" d="M105.846,222.92h1.547v-8.923h-1.547v-1.457h4.695v1.457h-1.529v8.923h1.529v1.457h-4.695V222.92z"/>
			<path fill="#1E5035" d="M115.038,217.973c0.738-0.791,1.709-1.493,2.824-1.493c0.972,0,1.638,0.378,2.033,0.989
				c0.252,0.432,0.396,0.972,0.396,1.619v3.994h1.206v1.295h-3.904v-1.295h1.151v-3.652c0-0.378-0.054-0.684-0.18-0.917
				c-0.216-0.414-0.594-0.612-1.151-0.612c-0.846,0-1.655,0.504-2.321,1.17v4.012h1.151v1.295h-3.886v-1.295h1.206v-5.127h-1.206
				v-1.332h2.681V217.973z"/>
			<path fill="#1E5035" d="M122.933,217.955h-0.972v-1.332h3.76v1.277h-1.187l2.104,4.66l2.104-4.66h-1.241v-1.277h3.76v1.332
				h-0.971l-3.185,6.638h-0.989L122.933,217.955z"/>
			<path fill="#1E5035" d="M132.412,223.082h1.259v-5.127h-1.259v-1.332h2.807v6.459h1.241v1.295h-4.048V223.082z M133.149,213.853
				c0-0.611,0.521-1.115,1.134-1.115c0.594,0,1.115,0.504,1.115,1.115c0,0.63-0.54,1.134-1.134,1.134
				C133.653,214.986,133.149,214.482,133.149,213.853z"/>
			<path fill="#1E5035" d="M139.714,220.995c0.216,1.476,1.295,2.194,2.807,2.194c0.989,0,1.835-0.306,2.752-0.827l-0.126,1.421
				c-0.81,0.504-1.799,0.738-2.86,0.738c-2.501,0-4.191-1.619-4.191-3.994c0-2.177,1.493-4.048,3.85-4.048
				c2.393,0,3.652,1.709,3.652,3.688c0,0.287-0.036,0.593-0.072,0.827H139.714z M139.714,219.844h4.335
				c-0.071-1.241-0.827-2.087-2.141-2.087C140.866,217.757,139.912,218.44,139.714,219.844z"/>
			<path fill="#1E5035" d="M153.636,217.613c0,0.558-0.449,1.043-0.989,1.043c-0.521,0-0.882-0.323-1.025-0.666
				c-0.576,0.181-1.241,0.828-1.619,1.565v3.526h1.421v1.295h-4.155v-1.295h1.205v-5.127h-1.205v-1.332h2.681v1.764
				c0.611-1.062,1.511-1.907,2.41-1.907C153.205,216.479,153.636,217.001,153.636,217.613z"/>
			<path fill="#1E5035" d="M157.557,217.973c0.737-0.791,1.709-1.493,2.824-1.493c0.972,0,1.637,0.378,2.033,0.989
				c0.252,0.432,0.396,0.972,0.396,1.619v3.994h1.205v1.295h-3.903v-1.295h1.151v-3.652c0-0.378-0.055-0.684-0.181-0.917
				c-0.216-0.414-0.594-0.612-1.151-0.612c-0.845,0-1.654,0.504-2.32,1.17v4.012h1.151v1.295h-3.886v-1.295h1.205v-5.127h-1.205
				v-1.332h2.681V217.973z"/>
			<path fill="#1E5035" d="M165.327,220.51c0-2.177,1.583-4.03,4.048-4.03c2.464,0,4.047,1.835,4.047,4.03
				c0,2.158-1.601,4.012-4.047,4.012C166.891,224.521,165.327,222.687,165.327,220.51z M171.821,220.51
				c0-1.584-1.008-2.717-2.446-2.717c-1.458,0-2.465,1.133-2.465,2.717c0,1.583,1.007,2.698,2.465,2.698
				C170.813,223.208,171.821,222.093,171.821,220.51z"/>
			<path fill="#1E5035" d="M181.478,216.93c0.198,0.161,0.342,0.432,0.342,0.684c0,0.558-0.45,1.025-1.008,1.025
				c-0.575,0-1.062-0.504-1.062-1.241c0-0.324,0.145-0.684,0.378-1.008c0.576-0.773,1.764-1.421,3.202-1.421
				c2.249,0,3.49,1.312,3.49,2.68c0,1.529-1.259,2.357-2.788,3.274c-1.224,0.72-2.069,1.331-2.591,2.177h4.354v-1.529h1.331v2.807
				h-7.411l-0.234-0.773c0.702-1.673,2.141-2.771,3.688-3.724c1.169-0.738,2.068-1.313,2.068-2.195c0-0.81-0.791-1.385-1.979-1.385
				C182.467,216.3,181.766,216.552,181.478,216.93z"/>
			<path fill="#1E5035" d="M189.194,219.735c0-2.734,1.799-4.767,4.3-4.767c2.5,0,4.299,2.051,4.299,4.767
				c0,2.753-1.799,4.786-4.299,4.786C190.993,224.521,189.194,222.471,189.194,219.735z M196.192,219.735
				c0-1.979-1.098-3.454-2.698-3.454c-1.602,0-2.699,1.458-2.699,3.454c0,2.016,1.098,3.454,2.699,3.454
				C195.094,223.189,196.192,221.751,196.192,219.735z"/>
			<path fill="#1E5035" d="M200.022,223.082h2.158v-6.351l-1.871,0.468l-0.359-1.313l3.076-0.81h0.72v8.006h2.123v1.295h-5.847
				V223.082z"/>
			<path fill="#1E5035" d="M207.612,221.283c0-1.241,0.863-2.285,2.086-2.753c-1.115-0.521-1.835-1.547-1.835-2.555
				c0-1.816,1.584-3.166,3.671-3.166c2.104,0,3.688,1.35,3.688,3.166c0,1.044-0.756,2.033-1.853,2.555
				c1.223,0.468,2.104,1.493,2.104,2.753c0,1.799-1.565,3.238-3.939,3.238C209.176,224.521,207.612,223.082,207.612,221.283z
				 M213.854,221.175c0-1.133-0.936-2.033-2.32-2.033c-1.368,0-2.303,0.9-2.303,2.033c0,1.134,0.935,2.015,2.303,2.015
				C212.918,223.189,213.854,222.309,213.854,221.175z M213.62,216.065c0-1.133-0.863-1.925-2.086-1.925
				c-1.206,0-2.069,0.792-2.069,1.925c0,1.044,0.918,1.89,2.069,1.89S213.62,217.109,213.62,216.065z"/>
		</g>
	</g>
	<rect x="6.4" y="2.666" fill="#16A314" width="253.534" height="30.082"/>
	<g>
		<path fill="#FFFFFF" d="M53.987,18.665c1.566,0.466,2.604,1.63,2.604,3.492c0,2.455-1.587,3.937-4.593,3.937h-6.519V11.702h6.096
			c3.005,0,4.592,1.354,4.592,3.683c0,1.545-0.846,2.751-2.18,3.238V18.665z M51.257,14.305H48.4v3.111h2.857
			c1.206,0,1.841-0.444,1.841-1.566C53.098,14.792,52.463,14.305,51.257,14.305z M48.4,20.019v3.492h3.111
			c1.228,0,2.01-0.402,2.01-1.756c0-1.291-0.782-1.736-2.116-1.736H48.4z"/>
		<path fill="#FFFFFF" d="M68.947,26.093l-3.026-5.122h-2.074v5.122h-2.92V11.702h6.138c3.026,0,4.762,1.82,4.762,4.635
			c0,1.947-0.91,3.577-2.857,4.148l3.365,5.608H68.947z M63.846,18.369h2.857c1.206,0,2.138-0.529,2.138-2.032
			c0-1.46-0.868-2.032-2.096-2.032h-2.899V18.369z"/>
		<path fill="#FFFFFF" d="M84.902,21.014v-9.312h2.899v9.312c0,3.767-2.243,5.291-5.65,5.291s-5.672-1.523-5.672-5.291v-9.312h2.92
			v9.312c0,1.545,0.466,2.857,2.772,2.857C84.394,23.871,84.902,22.559,84.902,21.014z"/>
		<path fill="#FFFFFF" d="M92.56,26.093V11.702h2.921l5.757,9.037h0.042v-9.037h2.814v14.392h-2.899l-5.756-8.72h-0.043v8.72H92.56z
			"/>
		<path fill="#FFFFFF" d="M108.388,18.792c0-4.063,1.354-7.301,6.413-7.301c5.058,0,6.391,3.238,6.391,7.301
			c0,4.106-1.333,7.513-6.391,7.513C109.743,26.305,108.388,22.897,108.388,18.792z M111.457,18.792c0,2.857,0.509,5.08,3.345,5.08
			s3.322-2.222,3.322-5.08c0-2.857-0.486-4.868-3.322-4.868S111.457,15.935,111.457,18.792z"/>
		<path fill="#FFFFFF" d="M141.612,14.305h-6.604v3.492h5.65v2.582h-5.65v5.714h-2.921V11.702h9.524V14.305z"/>
		<path fill="#FFFFFF" d="M155.682,14.305h-6.814v3.068h5.862v2.582h-5.862v3.556h6.921v2.582h-9.842V11.702h9.735V14.305z"/>
		<path fill="#FFFFFF" d="M168.357,26.093l-3.026-5.122h-2.074v5.122h-2.92V11.702h6.138c3.026,0,4.762,1.82,4.762,4.635
			c0,1.947-0.91,3.577-2.857,4.148l3.365,5.608H168.357z M163.256,18.369h2.857c1.206,0,2.138-0.529,2.138-2.032
			c0-1.46-0.868-2.032-2.096-2.032h-2.899V18.369z"/>
		<path fill="#FFFFFF" d="M183.91,26.093l-3.026-5.122h-2.074v5.122h-2.92V11.702h6.138c3.026,0,4.762,1.82,4.762,4.635
			c0,1.947-0.91,3.577-2.857,4.148l3.365,5.608H183.91z M178.809,18.369h2.857c1.206,0,2.138-0.529,2.138-2.032
			c0-1.46-0.868-2.032-2.096-2.032h-2.899V18.369z"/>
		<path fill="#FFFFFF" d="M191.442,26.093V11.702h2.92v14.392H191.442z"/>
		<path fill="#FFFFFF" d="M199.101,26.093V11.702h2.921l5.757,9.037h0.042v-9.037h2.814v14.392h-2.899l-5.756-8.72h-0.043v8.72
			H199.101z"/>
		<path fill="#FFFFFF" d="M215.395,26.093V11.702h2.92v14.392H215.395z"/>
	</g>
	<g>
		<g>
			<g>
				<path fill="#1E5035" d="M88.197,120.838c10.154,2.031,15.926,9.086,15.926,17.958c0,12.934-8.872,20.31-25.439,20.31
					c-8.551,0-16.354-1.283-23.729-5.024l2.993-7.481c6.307,3.206,13.041,4.489,20.202,4.489c14.002,0,16.033-8.23,16.033-12.827
					c0-7.589-5.451-12.506-17.315-12.506h-9.085v-8.017h8.658c11.437,0,15.926-6.841,15.926-13.36
					c0-4.811-2.565-12.079-14.216-12.079c-6.734,0-12.292,1.497-18.492,4.489l-2.993-7.375c7.482-3.634,15.499-5.131,23.088-5.131
					c13.361,0,22.233,6.841,22.233,19.026c0,8.872-5.879,14.644-13.789,17.315V120.838z"/>
				<path fill="#1E5035" d="M111.603,121.16c0-20.309,5.023-36.877,25.653-36.877c20.522,0,25.653,16.568,25.653,36.877
					c0,20.629-5.131,37.946-25.653,37.946C116.626,159.105,111.603,141.789,111.603,121.16z M121.757,121.16
					c0,15.499,2.886,29.929,15.499,29.929c12.506,0,15.499-14.431,15.499-29.929c0-15.499-2.993-28.86-15.499-28.86
					C124.643,92.299,121.757,105.661,121.757,121.16z"/>
			</g>
		</g>
	</g>
</g>
</svg>
