<?xml version="1.0" encoding="utf-8"?>
<!-- Generator: Adobe Illustrator 17.0.0, SVG Export Plug-In . SVG Version: 6.00 Build 0)  -->
<!DOCTYPE svg PUBLIC "-//W3C//DTD SVG 1.1//EN" "http://www.w3.org/Graphics/SVG/1.1/DTD/svg11.dtd">
<svg version="1.1" id="Layer_1" xmlns="http://www.w3.org/2000/svg" xmlns:xlink="http://www.w3.org/1999/xlink" x="0px" y="0px"
	 width="266.333px" height="265px" viewBox="0 0 266.333 265" enable-background="new 0 0 266.333 265" xml:space="preserve">
<g>
	<rect x="5.99" y="2.479" fill="#16A314" width="254.353" height="30.179"/>
	<g>
		<path fill="#FFFFFF" d="M24.825,11.333c1.719,0,3.226,0.213,5.2,0.807l-0.658,2.441c-2.271-0.531-3.184-0.637-4.309-0.637
			c-2.674,0-3.587,1.846-3.587,4.712c0,3.077,0.913,4.945,3.587,4.945c1.125,0,2.038-0.106,4.309-0.637l0.658,2.44
			c-1.974,0.573-3.481,0.785-5.2,0.785c-5.073,0-6.431-3.396-6.431-7.534C18.394,14.581,19.753,11.333,24.825,11.333z"/>
		<path fill="#FFFFFF" d="M36.905,11.546v11.843h6.729v2.59h-9.658V11.546H36.905z"/>
		<path fill="#FFFFFF" d="M55.988,22.71h-4.563l-0.976,3.269H47.35l4.669-14.539h3.566l4.606,14.539h-3.226L55.988,22.71z
			 M53.696,15.09l-1.677,5.179h3.375l-1.656-5.179H53.696z"/>
		<path fill="#FFFFFF" d="M71.719,20.884v-9.339h2.908v9.339c0,3.777-2.25,5.306-5.667,5.306s-5.688-1.528-5.688-5.306v-9.339H66.2
			v9.339c0,1.549,0.467,2.865,2.78,2.865C71.21,23.75,71.719,22.433,71.719,20.884z"/>
		<path fill="#FFFFFF" d="M79.405,25.978V11.546h5.391c4.967,0,6.389,3.035,6.389,7.11c0,4.117-1.422,7.322-6.389,7.322H79.405z
			 M84.796,23.388c2.738,0,3.312-1.867,3.312-4.732c0-2.866-0.573-4.5-3.312-4.5h-2.462v9.232H84.796z"/>
		<path fill="#FFFFFF" d="M95.497,25.978V11.546h2.929v14.433H95.497z"/>
		<path fill="#FFFFFF" d="M110.886,22.71h-4.563l-0.976,3.269h-3.099l4.669-14.539h3.566l4.606,14.539h-3.226L110.886,22.71z
			 M108.593,15.09l-1.677,5.179h3.375l-1.656-5.179H108.593z"/>
		<path fill="#FFFFFF" d="M131.818,11.333c1.719,0,3.226,0.213,5.2,0.807l-0.657,2.441c-2.271-0.531-3.184-0.637-4.309-0.637
			c-2.674,0-3.587,1.846-3.587,4.712c0,3.077,0.913,4.945,3.587,4.945c1.125,0,2.038-0.106,4.309-0.637l0.657,2.44
			c-1.974,0.573-3.48,0.785-5.2,0.785c-5.073,0-6.431-3.396-6.431-7.534C125.386,14.581,126.745,11.333,131.818,11.333z"/>
		<path fill="#FFFFFF" d="M149.755,20.884v-9.339h2.908v9.339c0,3.777-2.25,5.306-5.667,5.306s-5.688-1.528-5.688-5.306v-9.339h2.93
			v9.339c0,1.549,0.467,2.865,2.78,2.865C149.246,23.75,149.755,22.433,149.755,20.884z"/>
		<path fill="#FFFFFF" d="M160.371,20.884v5.094h-2.93V11.546h6.155c3.035,0,4.775,1.867,4.775,4.669c0,2.865-1.74,4.67-4.775,4.67
			H160.371z M160.371,18.295h2.907c1.231,0,2.102-0.573,2.102-2.08c0-1.464-0.87-2.059-2.102-2.059h-2.907V18.295z"/>
		<path fill="#FFFFFF" d="M178.945,11.333c1.72,0,3.227,0.213,5.2,0.807l-0.657,2.441c-2.271-0.531-3.185-0.637-4.31-0.637
			c-2.674,0-3.587,1.846-3.587,4.712c0,3.077,0.913,4.945,3.587,4.945c1.125,0,2.038-0.106,4.31-0.637l0.657,2.44
			c-1.974,0.573-3.48,0.785-5.2,0.785c-5.072,0-6.431-3.396-6.431-7.534C172.514,14.581,173.873,11.333,178.945,11.333z"/>
		<path fill="#FFFFFF" d="M196.119,22.71h-4.563l-0.977,3.269h-3.099l4.67-14.539h3.565l4.605,14.539h-3.226L196.119,22.71z
			 M193.827,15.09l-1.677,5.179h3.374l-1.655-5.179H193.827z"/>
		<path fill="#FFFFFF" d="M207.095,18.104l5.434-6.559h3.48l-5.03,6.091l5.072,8.342h-3.65l-3.545-6.007l-1.761,2.123v3.884h-2.93
			V11.546h2.93V18.104z"/>
		<path fill="#FFFFFF" d="M229.978,14.156h-6.834v3.077h5.879v2.59h-5.879v3.565h6.94v2.59h-9.87V11.546h9.764V14.156z"/>
		<path fill="#FFFFFF" d="M234.438,25.405l0.509-2.44c2.25,0.53,3.842,0.637,4.967,0.637c1.486,0,2.378-0.68,2.378-1.635
			c0-1.337-1.656-1.613-3.333-2.08c-2.504-0.7-4.309-2.08-4.309-4.521c0-2.908,2.398-4.033,5.264-4.033
			c1.635,0,3.12,0.213,5.095,0.807l-0.658,2.441c-2.271-0.531-3.332-0.637-4.437-0.637c-1.485,0-2.186,0.637-2.186,1.507
			c0,1.188,1.549,1.57,3.29,1.995c2.504,0.573,4.351,1.762,4.351,4.287c0,3.078-2.377,4.457-5.455,4.457
			C238.258,26.19,236.412,25.978,234.438,25.405z"/>
	</g>
	<g>
		<g>
			<path fill="#1E5035" d="M31.06,210.274h1.439v-8.923H31.06v-1.458h8.689v3.095h-1.547v-1.655h-4.065v3.67h3.742v1.403h-3.742
				v3.886h4.065v-1.655h1.565v3.095H31.06V210.274z"/>
			<path fill="#1E5035" d="M44.478,205.327c0.738-0.792,1.709-1.493,2.824-1.493c0.972,0,1.637,0.378,2.033,0.989
				c0.252,0.432,0.396,0.972,0.396,1.619v3.994h1.206v1.295h-3.904v-1.295h1.151v-3.652c0-0.378-0.054-0.684-0.18-0.918
				c-0.216-0.413-0.594-0.611-1.151-0.611c-0.845,0-1.655,0.504-2.321,1.17v4.012h1.151v1.295h-3.886v-1.295h1.206v-5.128h-1.206
				v-1.331h2.681V205.327z"/>
			<path fill="#1E5035" d="M56.762,207.827c0-2.086,1.673-3.993,3.886-3.993c1.925,0,3.328,1.259,3.328,2.446
				c0,0.684-0.468,1.151-1.097,1.151c-0.504,0-0.972-0.396-0.972-0.972c0-0.252,0.126-0.503,0.324-0.647
				c-0.18-0.359-0.827-0.701-1.583-0.701c-1.043,0-2.321,0.881-2.321,2.752c0,1.602,1.169,2.681,2.771,2.681
				c0.899,0,1.709-0.27,2.663-0.827l-0.144,1.421c-0.792,0.504-1.709,0.737-2.663,0.737
				C58.543,211.875,56.762,210.22,56.762,207.827z"/>
			<path fill="#1E5035" d="M66.943,210.849c-0.234-0.432-0.36-0.953-0.36-1.583v-3.958h-1.205v-1.331h2.734v4.947
				c0,0.396,0.072,0.702,0.198,0.936c0.216,0.414,0.576,0.594,1.133,0.594c0.846,0,1.637-0.521,2.321-1.169v-3.977h-1.241v-1.331
				h2.789v6.459h1.205v1.295h-2.698v-1.35c-0.738,0.792-1.709,1.493-2.825,1.493C68.004,211.875,67.339,211.479,66.943,210.849z"/>
			<path fill="#1E5035" d="M75.899,213.962h1.206v-8.653h-1.206v-1.331h2.681v1.008c0.648-0.666,1.367-1.151,2.483-1.151
				c2.033,0,3.616,1.619,3.616,3.976c0,2.23-1.565,4.065-3.76,4.065c-0.881,0-1.655-0.323-2.267-0.827v2.914h1.385v1.296h-4.138
				V213.962z M83.077,207.827c0-1.619-0.989-2.645-2.303-2.645c-0.881,0-1.547,0.414-2.123,0.99v3.615
				c0.54,0.433,1.223,0.738,2.086,0.738C82.052,210.526,83.077,209.465,83.077,207.827z"/>
			<path fill="#1E5035" d="M86.457,207.827c0-2.086,1.673-3.993,3.886-3.993c1.925,0,3.328,1.259,3.328,2.446
				c0,0.684-0.468,1.151-1.097,1.151c-0.504,0-0.972-0.396-0.972-0.972c0-0.252,0.126-0.503,0.324-0.647
				c-0.18-0.359-0.827-0.701-1.583-0.701c-1.043,0-2.321,0.881-2.321,2.752c0,1.602,1.169,2.681,2.771,2.681
				c0.899,0,1.709-0.27,2.663-0.827l-0.144,1.421c-0.792,0.504-1.709,0.737-2.663,0.737
				C88.238,211.875,86.457,210.22,86.457,207.827z"/>
			<path fill="#1E5035" d="M95.414,209.662c0-1.421,1.259-2.338,3.04-2.338c0.81,0,1.709,0.18,2.123,0.306v-0.882
				c0-0.449-0.126-0.81-0.342-1.079c-0.324-0.396-0.864-0.594-1.619-0.594c-0.486,0-0.773,0.107-1.007,0.233
				c0.054,0.126,0.09,0.288,0.09,0.433c0,0.503-0.378,0.881-0.899,0.881c-0.54,0-0.917-0.378-0.917-0.917
				c0-0.918,1.007-1.871,2.986-1.871c1.205,0,2.086,0.359,2.608,0.972c0.396,0.468,0.594,1.079,0.594,1.78v3.851h1.205v1.295h-2.663
				v-0.936c-0.629,0.594-1.619,1.079-2.662,1.079C96.529,211.875,95.414,211.065,95.414,209.662z M100.577,209.788v-1.259
				c-0.522-0.144-1.188-0.27-1.889-0.27c-1.097,0-1.709,0.521-1.709,1.277c0,0.701,0.521,1.169,1.421,1.169
				C99.228,210.706,99.984,210.31,100.577,209.788z"/>
			<path fill="#1E5035" d="M104.389,210.436h1.206v-10.543h-1.206v-1.331h2.753v9.121l2.806-2.446h-1.313v-1.26h4.461v1.331h-1.403
				l-2.159,1.854l2.213,3.238h1.349v1.331h-2.267l-2.429-3.706l-1.259,1.079v1.35h1.133v1.277h-3.886V210.436z"/>
			<path fill="#1E5035" d="M116.027,208.349c0.216,1.475,1.295,2.194,2.807,2.194c0.989,0,1.835-0.306,2.752-0.827l-0.126,1.421
				c-0.81,0.504-1.799,0.737-2.86,0.737c-2.501,0-4.192-1.619-4.192-3.993c0-2.177,1.493-4.048,3.85-4.048
				c2.393,0,3.652,1.709,3.652,3.688c0,0.288-0.036,0.594-0.072,0.828H116.027z M116.027,207.198h4.335
				c-0.072-1.241-0.827-2.087-2.141-2.087C117.178,205.111,116.225,205.795,116.027,207.198z"/>
			<path fill="#1E5035" d="M129.068,206.514c-0.54,0-0.936-0.342-0.936-0.864c0-0.126,0.018-0.27,0.072-0.396
				c-0.306-0.144-0.755-0.233-1.241-0.233c-0.99,0-1.529,0.485-1.529,0.989c0,0.575,0.594,0.81,1.835,1.133
				c1.673,0.433,2.896,0.882,2.896,2.339c0,1.548-1.475,2.411-3.166,2.411c-1.169,0-2.357-0.396-2.878-0.918
				c-0.288-0.287-0.432-0.611-0.432-1.007c0-0.504,0.36-0.936,0.882-0.936c0.503,0,0.917,0.342,0.917,0.899
				c0,0.144-0.018,0.27-0.072,0.396c0.288,0.18,0.864,0.36,1.583,0.36c0.935,0,1.691-0.36,1.691-1.044
				c0-0.558-0.558-0.827-1.709-1.115c-1.979-0.504-3.041-0.989-3.041-2.375c0-1.188,1.062-2.32,3.041-2.32
				c1.007,0,2.015,0.323,2.519,0.827c0.27,0.271,0.396,0.594,0.396,0.936C129.895,206.154,129.553,206.514,129.068,206.514z"/>
			<path fill="#1E5035" d="M136.369,210.436h1.26v-5.128h-1.26v-1.331h2.807v6.459h1.241v1.295h-4.048V210.436z M137.106,201.207
				c0-0.611,0.522-1.115,1.134-1.115c0.594,0,1.115,0.504,1.115,1.115c0,0.63-0.54,1.134-1.134,1.134
				C137.61,202.34,137.106,201.837,137.106,201.207z"/>
			<path fill="#1E5035" d="M144.714,205.327c0.738-0.792,1.71-1.493,2.825-1.493c0.971,0,1.637,0.378,2.032,0.989
				c0.252,0.432,0.396,0.972,0.396,1.619v3.994h1.205v1.295h-3.904v-1.295h1.151v-3.652c0-0.378-0.054-0.684-0.18-0.918
				c-0.216-0.413-0.594-0.611-1.151-0.611c-0.846,0-1.655,0.504-2.32,1.17v4.012h1.151v1.295h-3.886v-1.295h1.205v-5.128h-1.205
				v-1.331h2.68V205.327z"/>
			<path fill="#1E5035" d="M152.484,207.899c0-2.213,1.565-4.065,3.777-4.065c0.972,0,1.781,0.359,2.303,0.846v-4.786h-1.331v-1.331
				h2.879v11.874h1.205v1.295h-2.734v-0.989c-0.611,0.647-1.386,1.133-2.465,1.133C154.067,211.875,152.484,210.256,152.484,207.899
				z M158.564,209.537v-3.599c-0.558-0.432-1.223-0.756-2.122-0.756c-1.332,0-2.357,1.062-2.375,2.699
				c0,1.619,1.025,2.645,2.339,2.645C157.288,210.526,157.989,210.112,158.564,209.537z"/>
			<path fill="#1E5035" d="M162.79,210.436h1.26v-5.128h-1.26v-1.331h2.807v6.459h1.241v1.295h-4.048V210.436z M163.527,201.207
				c0-0.611,0.522-1.115,1.134-1.115c0.594,0,1.115,0.504,1.115,1.115c0,0.63-0.54,1.134-1.134,1.134
				C164.031,202.34,163.527,201.837,163.527,201.207z"/>
			<path fill="#1E5035" d="M168.581,205.308h-0.971v-1.331h3.76v1.277h-1.188l2.104,4.659l2.105-4.659h-1.242v-1.277h3.761v1.331
				h-0.972l-3.185,6.639h-0.989L168.581,205.308z"/>
			<path fill="#1E5035" d="M178.06,210.436h1.26v-5.128h-1.26v-1.331h2.807v6.459h1.241v1.295h-4.048V210.436z M178.798,201.207
				c0-0.611,0.522-1.115,1.134-1.115c0.594,0,1.115,0.504,1.115,1.115c0,0.63-0.54,1.134-1.134,1.134
				C179.301,202.34,178.798,201.837,178.798,201.207z"/>
			<path fill="#1E5035" d="M183.78,207.899c0-2.213,1.565-4.065,3.777-4.065c0.972,0,1.781,0.359,2.303,0.846v-4.786h-1.331v-1.331
				h2.879v11.874h1.205v1.295h-2.734v-0.989c-0.611,0.647-1.386,1.133-2.465,1.133C185.363,211.875,183.78,210.256,183.78,207.899z
				 M189.86,209.537v-3.599c-0.558-0.432-1.223-0.756-2.122-0.756c-1.332,0-2.357,1.062-2.375,2.699
				c0,1.619,1.025,2.645,2.339,2.645C188.584,210.526,189.285,210.112,189.86,209.537z"/>
			<path fill="#1E5035" d="M195.363,210.849c-0.234-0.432-0.359-0.953-0.359-1.583v-3.958h-1.206v-1.331h2.734v4.947
				c0,0.396,0.072,0.702,0.198,0.936c0.216,0.414,0.576,0.594,1.134,0.594c0.845,0,1.637-0.521,2.32-1.169v-3.977h-1.241v-1.331
				h2.788v6.459h1.206v1.295h-2.699v-1.35c-0.737,0.792-1.709,1.493-2.824,1.493C196.424,211.875,195.758,211.479,195.363,210.849z"
				/>
			<path fill="#1E5035" d="M204.535,209.662c0-1.421,1.26-2.338,3.041-2.338c0.81,0,1.709,0.18,2.122,0.306v-0.882
				c0-0.449-0.126-0.81-0.342-1.079c-0.323-0.396-0.863-0.594-1.619-0.594c-0.485,0-0.773,0.107-1.007,0.233
				c0.054,0.126,0.09,0.288,0.09,0.433c0,0.503-0.378,0.881-0.899,0.881c-0.54,0-0.918-0.378-0.918-0.917
				c0-0.918,1.008-1.871,2.986-1.871c1.206,0,2.087,0.359,2.608,0.972c0.396,0.468,0.594,1.079,0.594,1.78v3.851h1.206v1.295h-2.663
				v-0.936c-0.63,0.594-1.619,1.079-2.662,1.079C205.65,211.875,204.535,211.065,204.535,209.662z M209.698,209.788v-1.259
				c-0.521-0.144-1.187-0.27-1.889-0.27c-1.098,0-1.709,0.521-1.709,1.277c0,0.701,0.521,1.169,1.421,1.169
				C208.349,210.706,209.104,210.31,209.698,209.788z"/>
			<path fill="#1E5035" d="M213.529,210.436h1.259v-10.543h-1.259v-1.331h2.806v11.874h1.242v1.295h-4.048V210.436z"/>
			<path fill="#1E5035" d="M220.777,208.349c0.216,1.475,1.295,2.194,2.807,2.194c0.989,0,1.835-0.306,2.752-0.827l-0.126,1.421
				c-0.81,0.504-1.799,0.737-2.86,0.737c-2.5,0-4.191-1.619-4.191-3.993c0-2.177,1.493-4.048,3.85-4.048
				c2.393,0,3.652,1.709,3.652,3.688c0,0.288-0.036,0.594-0.072,0.828H220.777z M220.777,207.198h4.336
				c-0.072-1.241-0.828-2.087-2.142-2.087C221.928,205.111,220.975,205.795,220.777,207.198z"/>
			<path fill="#1E5035" d="M233.818,206.514c-0.539,0-0.936-0.342-0.936-0.864c0-0.126,0.019-0.27,0.072-0.396
				c-0.306-0.144-0.756-0.233-1.241-0.233c-0.989,0-1.529,0.485-1.529,0.989c0,0.575,0.594,0.81,1.835,1.133
				c1.673,0.433,2.896,0.882,2.896,2.339c0,1.548-1.476,2.411-3.166,2.411c-1.17,0-2.357-0.396-2.879-0.918
				c-0.287-0.287-0.432-0.611-0.432-1.007c0-0.504,0.36-0.936,0.882-0.936c0.504,0,0.917,0.342,0.917,0.899
				c0,0.144-0.018,0.27-0.071,0.396c0.287,0.18,0.863,0.36,1.583,0.36c0.936,0,1.69-0.36,1.69-1.044
				c0-0.558-0.558-0.827-1.709-1.115c-1.979-0.504-3.04-0.989-3.04-2.375c0-1.188,1.062-2.32,3.04-2.32
				c1.008,0,2.016,0.323,2.519,0.827c0.271,0.271,0.396,0.594,0.396,0.936C234.646,206.154,234.304,206.514,233.818,206.514z"/>
		</g>
	</g>
	<g>
		<g>
			<g>
				<path fill="#1E5035" d="M89.577,120.872c10.187,2.037,15.977,9.113,15.977,18.014c0,12.974-8.9,20.372-25.52,20.372
					c-8.578,0-16.405-1.287-23.804-5.039l3.002-7.506c6.326,3.217,13.082,4.503,20.266,4.503c14.046,0,16.084-8.256,16.084-12.866
					c0-7.613-5.469-12.546-17.371-12.546h-9.113v-8.041h8.685c11.474,0,15.977-6.862,15.977-13.403
					c0-4.825-2.573-12.116-14.261-12.116c-6.755,0-12.331,1.501-18.55,4.503l-3.002-7.398c7.506-3.646,15.547-5.146,23.16-5.146
					c13.403,0,22.303,6.862,22.303,19.086c0,8.899-5.897,14.689-13.832,17.37V120.872z"/>
				<path fill="#1E5035" d="M135.684,137.491h-0.214l-14.153,20.694h-10.4l19.621-27.878l-18.013-25.733h11.15l13.081,18.656h0.215
					l12.867-18.656h10.079l-18.014,25.411l19.943,28.2h-11.473L135.684,137.491z"/>
				<path fill="#1E5035" d="M170.106,97.282l-2.895-7.72c7.827-3.431,14.046-5.361,23.053-5.361
					c15.762,0,23.053,9.972,23.053,21.767c0,15.011-11.044,28.414-32.488,43.426v0.214h33.561v8.578h-47.178v-9.328
					c30.666-20.266,35.92-32.811,35.92-40.745c0-13.403-10.187-15.012-15.012-15.012C182.866,93.1,177.719,93.851,170.106,97.282z"
					/>
			</g>
		</g>
	</g>
</g>
<g>
</g>
<g>
</g>
<g>
</g>
<g>
</g>
<g>
</g>
<g>
</g>
<g>
</g>
<g>
</g>
<g>
</g>
<g>
</g>
<g>
</g>
<g>
</g>
<g>
</g>
<g>
</g>
<g>
</g>
</svg>
