<?xml version="1.0" encoding="utf-8"?>
<!-- Generator: Adobe Illustrator 17.0.0, SVG Export Plug-In . SVG Version: 6.00 Build 0)  -->
<!DOCTYPE svg PUBLIC "-//W3C//DTD SVG 1.1//EN" "http://www.w3.org/Graphics/SVG/1.1/DTD/svg11.dtd">
<svg version="1.1" id="Layer_1" xmlns="http://www.w3.org/2000/svg" xmlns:xlink="http://www.w3.org/1999/xlink" x="0px" y="0px"
	 width="266.333px" height="265px" viewBox="0 0 266.333 265" enable-background="new 0 0 266.333 265" xml:space="preserve">
<g>
	<g>
		<g>
			<path fill="#1E5035" d="M65.656,201.162h1.439v-8.923h-1.439v-1.458h8.689v3.095h-1.547v-1.655h-4.065v3.67h3.741v1.403h-3.741
				v3.886h4.065v-1.655h1.565v3.095h-8.708V201.162z"/>
			<path fill="#1E5035" d="M79.075,196.215c0.737-0.792,1.709-1.493,2.824-1.493c0.972,0,1.637,0.378,2.033,0.989
				c0.252,0.432,0.396,0.972,0.396,1.619v3.994h1.205v1.295H81.63v-1.295h1.151v-3.652c0-0.378-0.055-0.684-0.181-0.918
				c-0.216-0.413-0.594-0.611-1.151-0.611c-0.845,0-1.654,0.504-2.32,1.17v4.012h1.151v1.295h-3.886v-1.295h1.205v-5.128h-1.205
				v-1.331h2.681V196.215z"/>
			<path fill="#1E5035" d="M92.582,201.792c-0.144-0.307-0.234-0.702-0.234-1.134v-4.462H90.89v-1.331h1.457v-1.781l1.548-0.629
				v2.41h2.356v1.331h-2.356v4.192c0,0.252,0.036,0.432,0.107,0.594c0.145,0.252,0.432,0.377,0.882,0.377
				c0.468,0,1.025-0.216,1.475-0.432l-0.161,1.386c-0.45,0.233-1.025,0.449-1.745,0.449
				C93.59,202.762,92.924,202.457,92.582,201.792z"/>
			<path fill="#1E5035" d="M97.887,198.751c0-2.177,1.583-4.029,4.048-4.029s4.048,1.835,4.048,4.029
				c0,2.159-1.602,4.012-4.048,4.012C99.453,202.762,97.887,200.927,97.887,198.751z M104.382,198.751
				c0-1.583-1.007-2.716-2.446-2.716c-1.457,0-2.465,1.133-2.465,2.716s1.008,2.699,2.465,2.699
				C103.375,201.45,104.382,200.334,104.382,198.751z"/>
			<path fill="#1E5035" d="M107.761,198.787c0-2.213,1.565-4.065,3.778-4.065c0.971,0,1.78,0.359,2.303,0.846v-4.786h-1.332v-1.331
				h2.879v11.874h1.205v1.295h-2.734v-0.989c-0.611,0.647-1.385,1.133-2.465,1.133C109.344,202.762,107.761,201.143,107.761,198.787
				z M113.842,200.424v-3.599c-0.558-0.432-1.224-0.756-2.123-0.756c-1.331,0-2.356,1.062-2.375,2.699
				c0,1.619,1.025,2.645,2.339,2.645C112.565,201.414,113.266,201,113.842,200.424z"/>
			<path fill="#1E5035" d="M117.978,200.549c0-1.421,1.259-2.338,3.04-2.338c0.81,0,1.709,0.18,2.123,0.306v-0.882
				c0-0.449-0.126-0.81-0.342-1.079c-0.324-0.396-0.864-0.594-1.619-0.594c-0.486,0-0.774,0.107-1.008,0.233
				c0.054,0.126,0.09,0.288,0.09,0.433c0,0.503-0.378,0.881-0.899,0.881c-0.54,0-0.917-0.378-0.917-0.917
				c0-0.918,1.007-1.871,2.986-1.871c1.205,0,2.086,0.359,2.608,0.972c0.396,0.468,0.594,1.079,0.594,1.78v3.851h1.205v1.295h-2.663
				v-0.936c-0.629,0.594-1.619,1.079-2.662,1.079C119.093,202.762,117.978,201.953,117.978,200.549z M123.141,200.675v-1.259
				c-0.522-0.144-1.188-0.27-1.89-0.27c-1.097,0-1.709,0.521-1.709,1.277c0,0.701,0.521,1.169,1.422,1.169
				C121.792,201.593,122.548,201.198,123.141,200.675z"/>
			<path fill="#1E5035" d="M131.504,201.324h1.259v-10.543h-1.259v-1.331h2.807v11.874h1.241v1.295h-4.048V201.324z"/>
			<path fill="#1E5035" d="M137.044,200.549c0-1.421,1.259-2.338,3.04-2.338c0.81,0,1.709,0.18,2.123,0.306v-0.882
				c0-0.449-0.126-0.81-0.342-1.079c-0.324-0.396-0.864-0.594-1.619-0.594c-0.486,0-0.774,0.107-1.008,0.233
				c0.054,0.126,0.09,0.288,0.09,0.433c0,0.503-0.378,0.881-0.899,0.881c-0.54,0-0.917-0.378-0.917-0.917
				c0-0.918,1.007-1.871,2.986-1.871c1.205,0,2.086,0.359,2.608,0.972c0.396,0.468,0.594,1.079,0.594,1.78v3.851h1.205v1.295h-2.663
				v-0.936c-0.629,0.594-1.619,1.079-2.662,1.079C138.159,202.762,137.044,201.953,137.044,200.549z M142.207,200.675v-1.259
				c-0.522-0.144-1.188-0.27-1.89-0.27c-1.097,0-1.709,0.521-1.709,1.277c0,0.701,0.521,1.169,1.422,1.169
				C140.857,201.593,141.613,201.198,142.207,200.675z"/>
			<path fill="#1E5035" d="M151.954,201.792c-0.144-0.307-0.234-0.702-0.234-1.134v-4.462h-1.457v-1.331h1.457v-1.781l1.548-0.629
				v2.41h2.356v1.331h-2.356v4.192c0,0.252,0.036,0.432,0.107,0.594c0.145,0.252,0.432,0.377,0.882,0.377
				c0.468,0,1.025-0.216,1.475-0.432l-0.161,1.386c-0.45,0.233-1.025,0.449-1.745,0.449
				C152.962,202.762,152.296,202.457,151.954,201.792z"/>
			<path fill="#1E5035" d="M157.331,201.324h1.26v-5.128h-1.26v-1.331h2.807v6.459h1.241v1.295h-4.048V201.324z M158.069,192.094
				c0-0.611,0.521-1.115,1.133-1.115c0.594,0,1.115,0.504,1.115,1.115c0,0.63-0.539,1.134-1.133,1.134
				C158.572,193.228,158.069,192.724,158.069,192.094z"/>
			<path fill="#1E5035" d="M164.633,199.237c0.216,1.475,1.296,2.194,2.807,2.194c0.989,0,1.835-0.306,2.753-0.827l-0.126,1.421
				c-0.81,0.504-1.8,0.737-2.86,0.737c-2.501,0-4.192-1.619-4.192-3.993c0-2.177,1.493-4.048,3.851-4.048
				c2.393,0,3.651,1.709,3.651,3.688c0,0.288-0.036,0.594-0.071,0.828H164.633z M164.633,198.086h4.336
				c-0.072-1.241-0.827-2.087-2.141-2.087C165.785,195.999,164.832,196.682,164.633,198.086z"/>
			<path fill="#1E5035" d="M174.868,196.215c0.738-0.792,1.709-1.493,2.824-1.493c0.972,0,1.638,0.378,2.033,0.989
				c0.252,0.432,0.396,0.972,0.396,1.619v3.994h1.206v1.295h-3.904v-1.295h1.151v-3.652c0-0.378-0.054-0.684-0.18-0.918
				c-0.216-0.413-0.594-0.611-1.151-0.611c-0.846,0-1.655,0.504-2.321,1.17v4.012h1.151v1.295h-3.886v-1.295h1.206v-5.128h-1.206
				v-1.331h2.681V196.215z"/>
			<path fill="#1E5035" d="M182.637,198.787c0-2.213,1.565-4.065,3.778-4.065c0.971,0,1.78,0.359,2.303,0.846v-4.786h-1.332v-1.331
				h2.879v11.874h1.205v1.295h-2.734v-0.989c-0.611,0.647-1.385,1.133-2.465,1.133C184.22,202.762,182.637,201.143,182.637,198.787z
				 M188.718,200.424v-3.599c-0.558-0.432-1.224-0.756-2.123-0.756c-1.331,0-2.356,1.062-2.375,2.699
				c0,1.619,1.025,2.645,2.339,2.645C187.441,201.414,188.142,201,188.718,200.424z"/>
			<path fill="#1E5035" d="M192.854,200.549c0-1.421,1.259-2.338,3.04-2.338c0.81,0,1.709,0.18,2.123,0.306v-0.882
				c0-0.449-0.126-0.81-0.342-1.079c-0.324-0.396-0.864-0.594-1.619-0.594c-0.486,0-0.774,0.107-1.008,0.233
				c0.054,0.126,0.09,0.288,0.09,0.433c0,0.503-0.378,0.881-0.899,0.881c-0.54,0-0.917-0.378-0.917-0.917
				c0-0.918,1.007-1.871,2.986-1.871c1.205,0,2.086,0.359,2.608,0.972c0.396,0.468,0.594,1.079,0.594,1.78v3.851h1.205v1.295h-2.663
				v-0.936c-0.629,0.594-1.619,1.079-2.662,1.079C193.969,202.762,192.854,201.953,192.854,200.549z M198.017,200.675v-1.259
				c-0.522-0.144-1.188-0.27-1.89-0.27c-1.097,0-1.709,0.521-1.709,1.277c0,0.701,0.521,1.169,1.422,1.169
				C196.668,201.593,197.424,201.198,198.017,200.675z"/>
		</g>
	</g>
	<rect x="6.4" y="2.666" fill="#16A314" width="253.534" height="30.082"/>
	<g>
		<path fill="#FFFFFF" d="M81.028,25.523l0.508-2.434c2.243,0.529,3.831,0.635,4.952,0.635c1.481,0,2.371-0.678,2.371-1.63
			c0-1.333-1.651-1.608-3.323-2.074c-2.497-0.698-4.296-2.074-4.296-4.508c0-2.899,2.392-4.021,5.248-4.021
			c1.63,0,3.111,0.211,5.08,0.804l-0.656,2.434c-2.265-0.529-3.323-0.635-4.424-0.635c-1.481,0-2.18,0.635-2.18,1.503
			c0,1.185,1.545,1.566,3.28,1.989c2.498,0.571,4.339,1.756,4.339,4.275c0,3.069-2.37,4.444-5.439,4.444
			C84.838,26.305,82.996,26.094,81.028,25.523z"/>
		<path fill="#FFFFFF" d="M102.316,14.306v11.788h-2.92V14.306h-3.789v-2.604h10.477v2.604H102.316z"/>
		<path fill="#FFFFFF" d="M118.842,21.015v-9.312h2.899v9.312c0,3.767-2.243,5.291-5.65,5.291s-5.672-1.523-5.672-5.291v-9.312h2.92
			v9.312c0,1.545,0.466,2.857,2.772,2.857C118.335,23.872,118.842,22.56,118.842,21.015z"/>
		<path fill="#FFFFFF" d="M126.502,26.094V11.702h5.375c4.953,0,6.371,3.026,6.371,7.09c0,4.106-1.418,7.302-6.371,7.302H126.502z
			 M131.877,23.512c2.73,0,3.302-1.862,3.302-4.72c0-2.857-0.571-4.486-3.302-4.486h-2.455v9.206H131.877z"/>
		<path fill="#FFFFFF" d="M142.541,26.094V11.702h2.921v14.392H142.541z"/>
		<path fill="#FFFFFF" d="M149.735,18.792c0-4.063,1.354-7.301,6.413-7.301s6.392,3.238,6.392,7.301
			c0,4.106-1.333,7.513-6.392,7.513S149.735,22.898,149.735,18.792z M152.804,18.792c0,2.857,0.508,5.08,3.344,5.08
			s3.323-2.222,3.323-5.08c0-2.857-0.487-4.868-3.323-4.868S152.804,15.935,152.804,18.792z"/>
		<path fill="#FFFFFF" d="M182.959,14.306h-6.604v3.492h5.65v2.582h-5.65v5.714h-2.921V11.702h9.524V14.306z"/>
	</g>
	<g>
		<g>
			<path fill="#1E5035" d="M168.686,92.812c0-5.59,3.056-9.101,8.841-9.101c5.72,0,8.841,3.51,8.841,9.101s-3.121,9.035-8.841,9.035
				C171.742,101.847,168.686,98.403,168.686,92.812z M182.596,92.812c0-3.9-1.689-6.045-5.069-6.045s-5.136,2.145-5.136,6.045
				c0,3.9,1.756,5.98,5.136,5.98S182.596,96.712,182.596,92.812z M180.387,128.238h-3.9l24.051-44.202h3.9L180.387,128.238z
				 M194.557,119.528c0-5.59,3.055-9.1,8.84-9.1c5.721,0,8.841,3.51,8.841,9.1s-3.12,9.036-8.841,9.036
				C197.612,128.564,194.557,125.118,194.557,119.528z M208.467,119.528c0-3.9-1.689-6.045-5.07-6.045
				c-3.379,0-5.135,2.145-5.135,6.045c0,3.9,1.756,5.98,5.135,5.98C206.778,125.508,208.467,123.428,208.467,119.528z"/>
			<path fill="#1E5035" d="M166.956,146.796c0-4.126,1.237-7.491,6.297-7.491c5.037,0,6.297,3.365,6.297,7.491
				c0,4.19-1.26,7.708-6.297,7.708C168.193,154.504,166.956,150.986,166.956,146.796z M169.128,146.796
				c0,3.148,0.586,5.971,4.125,5.971c3.518,0,4.125-2.822,4.125-5.971s-0.607-5.754-4.125-5.754
				C169.714,141.041,169.128,143.647,169.128,146.796z"/>
			<path fill="#1E5035" d="M191.551,141.367h-7.165v4.777h6.188v1.846h-6.188v6.297h-2.063v-14.766h9.229V141.367z"/>
			<path fill="#1E5035" d="M203.598,141.367h-7.165v4.777h6.188v1.846h-6.188v6.297h-2.063v-14.766h9.229V141.367z"/>
		</g>
		<g>
			<g>
				<g>
					<path fill="#1E5035" d="M58.636,97.324l-2.886-7.696c7.803-3.42,14.002-5.345,22.981-5.345c15.712,0,22.981,9.94,22.981,21.698
						c0,14.965-11.01,28.325-32.387,43.29v0.214h33.456v8.551H55.75v-9.299c30.57-20.202,35.807-32.708,35.807-40.618
						c0-13.36-10.154-14.964-14.964-14.964C71.356,93.155,66.225,93.903,58.636,97.324z"/>
					<path fill="#1E5035" d="M110.259,121.16c0-20.309,5.023-36.877,25.652-36.877c20.522,0,25.653,16.568,25.653,36.877
						c0,20.628-5.131,37.945-25.653,37.945C115.283,159.105,110.259,141.789,110.259,121.16z M120.414,121.16
						c0,15.498,2.886,29.928,15.498,29.928c12.506,0,15.499-14.43,15.499-29.928c0-15.499-2.993-28.86-15.499-28.86
						C123.299,92.3,120.414,105.661,120.414,121.16z"/>
				</g>
			</g>
		</g>
	</g>
</g>
<g>
</g>
<g>
</g>
<g>
</g>
<g>
</g>
<g>
</g>
<g>
</g>
<g>
</g>
<g>
</g>
<g>
</g>
<g>
</g>
<g>
</g>
<g>
</g>
<g>
</g>
<g>
</g>
<g>
</g>
</svg>
