<?xml version="1.0" encoding="utf-8"?>
<!-- Generator: Adobe Illustrator 17.0.0, SVG Export Plug-In . SVG Version: 6.00 Build 0)  -->
<!DOCTYPE svg PUBLIC "-//W3C//DTD SVG 1.1//EN" "http://www.w3.org/Graphics/SVG/1.1/DTD/svg11.dtd">
<svg version="1.1" id="Layer_1" xmlns="http://www.w3.org/2000/svg" xmlns:xlink="http://www.w3.org/1999/xlink" x="0px" y="0px"
	 width="266.333px" height="265px" viewBox="0 0 266.333 265" enable-background="new 0 0 266.333 265" xml:space="preserve">
<g>
	<g>
		<path fill="#1E5035" d="M166.952,94.428c0-5.59,3.055-9.101,8.84-9.101c5.721,0,8.84,3.51,8.84,9.101s-3.119,9.035-8.84,9.035
			C170.007,103.464,166.952,100.019,166.952,94.428z M180.862,94.428c0-3.9-1.69-6.045-5.07-6.045c-3.381,0-5.135,2.145-5.135,6.045
			c0,3.9,1.754,5.98,5.135,5.98C179.172,100.408,180.862,98.328,180.862,94.428z M178.651,129.855h-3.899l24.051-44.202h3.899
			L178.651,129.855z M192.822,121.144c0-5.59,3.056-9.1,8.841-9.1c5.72,0,8.84,3.51,8.84,9.1s-3.12,9.036-8.84,9.036
			C195.878,130.18,192.822,126.735,192.822,121.144z M206.733,121.144c0-3.9-1.69-6.045-5.07-6.045
			c-3.381,0-5.136,2.145-5.136,6.045c0,3.9,1.755,5.98,5.136,5.98C205.043,127.125,206.733,125.045,206.733,121.144z"/>
		<path fill="#1E5035" d="M165.22,148.412c0-4.126,1.237-7.491,6.297-7.491c5.037,0,6.297,3.365,6.297,7.491
			c0,4.19-1.26,7.708-6.297,7.708C166.458,156.12,165.22,152.602,165.22,148.412z M167.391,148.412c0,3.148,0.586,5.971,4.126,5.971
			c3.518,0,4.126-2.822,4.126-5.971s-0.608-5.754-4.126-5.754C167.977,142.658,167.391,145.263,167.391,148.412z"/>
		<path fill="#1E5035" d="M189.817,142.983h-7.166v4.777h6.188v1.846h-6.188v6.297h-2.062v-14.766h9.229V142.983z"/>
		<path fill="#1E5035" d="M201.864,142.983h-7.166v4.777h6.188v1.846h-6.188v6.297h-2.062v-14.766h9.229V142.983z"/>
	</g>
	<rect x="5.99" y="2.666" fill="#16A314" width="254.353" height="30.179"/>
	<g>
		<path fill="#FFFFFF" d="M43.177,21.305h0.042l3.396-9.572h3.863v14.433H47.57v-9.169h-0.042l-3.438,9.169h-2.123l-3.354-9.169
			h-0.042v9.169h-2.844V11.733h3.884L43.177,21.305z"/>
		<path fill="#FFFFFF" d="M55.257,26.165V11.733h2.929v14.433H55.257z"/>
		<path fill="#FFFFFF" d="M68.906,11.52c1.719,0,3.226,0.213,5.2,0.807l-0.658,2.441c-2.271-0.531-3.184-0.637-4.309-0.637
			c-2.674,0-3.587,1.846-3.587,4.712c0,3.077,0.913,4.945,3.587,4.945c1.125,0,2.038-0.106,4.309-0.637l0.658,2.44
			c-1.974,0.573-3.481,0.785-5.2,0.785c-5.073,0-6.431-3.396-6.431-7.534C62.475,14.768,63.833,11.52,68.906,11.52z"/>
		<path fill="#FFFFFF" d="M78.056,26.165V11.733h2.929v5.687h5.519v-5.687h2.908v14.433h-2.908V20.01h-5.519v6.155H78.056z"/>
		<path fill="#FFFFFF" d="M103.954,14.343h-6.834v3.077h5.879v2.59h-5.879v3.565h6.94v2.59h-9.87V11.733h9.764V14.343z"/>
		<path fill="#FFFFFF" d="M111.555,11.733v11.843h6.729v2.59h-9.658V11.733H111.555z"/>
		<path fill="#FFFFFF" d="M125.566,11.733v11.843h6.729v2.59h-9.658V11.733H125.566z"/>
		<path fill="#FFFFFF" d="M146.411,14.343h-6.834v3.077h5.879v2.59h-5.879v3.565h6.94v2.59h-9.87V11.733h9.764V14.343z"/>
		<path fill="#FFFFFF" d="M165.983,18.715c1.571,0.467,2.611,1.635,2.611,3.502c0,2.463-1.592,3.948-4.606,3.948h-6.537V11.733
			h6.113c3.014,0,4.605,1.358,4.605,3.692c0,1.55-0.849,2.76-2.187,3.248V18.715z M163.246,14.343h-2.865v3.12h2.865
			c1.21,0,1.847-0.446,1.847-1.57C165.092,14.831,164.456,14.343,163.246,14.343z M160.381,20.073v3.502h3.119
			c1.231,0,2.017-0.403,2.017-1.762c0-1.294-0.785-1.74-2.122-1.74H160.381z"/>
		<path fill="#FFFFFF" d="M182.712,14.343h-6.834v3.077h5.879v2.59h-5.879v3.565h6.94v2.59h-9.87V11.733h9.764V14.343z"/>
		<path fill="#FFFFFF" d="M190.313,11.733v11.843h6.728v2.59h-9.657V11.733H190.313z"/>
		<path fill="#FFFFFF" d="M209.396,22.897h-4.563l-0.977,3.269h-3.099l4.67-14.539h3.565l4.605,14.539h-3.226L209.396,22.897z
			 M207.104,15.277l-1.677,5.179h3.374l-1.655-5.179H207.104z"/>
		<path fill="#FFFFFF" d="M225.127,21.071v-9.339h2.908v9.339c0,3.777-2.25,5.306-5.667,5.306s-5.688-1.528-5.688-5.306v-9.339h2.93
			v9.339c0,1.549,0.467,2.865,2.78,2.865C224.618,23.937,225.127,22.62,225.127,21.071z"/>
	</g>
	<g>
		<g>
			<path fill="#1E5035" d="M55.772,210.461h1.439v-8.923h-1.439v-1.458h8.689v3.095h-1.547v-1.655h-4.065v3.67h3.742v1.403h-3.742
				v3.886h4.065v-1.655h1.565v3.095h-8.708V210.461z"/>
			<path fill="#1E5035" d="M69.191,205.513c0.738-0.792,1.709-1.493,2.824-1.493c0.972,0,1.637,0.378,2.033,0.989
				c0.252,0.432,0.396,0.972,0.396,1.619v3.994h1.206v1.295h-3.904v-1.295h1.151v-3.652c0-0.378-0.054-0.684-0.18-0.918
				c-0.216-0.413-0.594-0.611-1.151-0.611c-0.845,0-1.655,0.504-2.321,1.17v4.012h1.151v1.295H66.51v-1.295h1.206v-5.128H66.51
				v-1.331h2.681V205.513z"/>
			<path fill="#1E5035" d="M81.294,214.148H82.5v-8.653h-1.206v-1.331h2.681v1.008c0.648-0.666,1.367-1.151,2.483-1.151
				c2.033,0,3.616,1.619,3.616,3.976c0,2.23-1.565,4.065-3.76,4.065c-0.881,0-1.655-0.323-2.267-0.827v2.914h1.385v1.296h-4.138
				V214.148z M88.472,208.013c0-1.619-0.989-2.645-2.303-2.645c-0.881,0-1.547,0.414-2.123,0.99v3.615
				c0.54,0.433,1.223,0.738,2.086,0.738C87.447,210.713,88.472,209.651,88.472,208.013z"/>
			<path fill="#1E5035" d="M91.87,208.049c0-2.177,1.583-4.029,4.048-4.029c2.464,0,4.047,1.835,4.047,4.029
				c0,2.159-1.601,4.012-4.047,4.012C93.435,212.061,91.87,210.226,91.87,208.049z M98.364,208.049c0-1.583-1.007-2.716-2.446-2.716
				c-1.458,0-2.465,1.133-2.465,2.716s1.007,2.699,2.465,2.699C97.357,210.749,98.364,209.632,98.364,208.049z"/>
			<path fill="#1E5035" d="M101.565,210.623h1.259V200.08h-1.259v-1.331h2.807v11.874h1.241v1.295h-4.048V210.623z"/>
			<path fill="#1E5035" d="M107.23,208.049c0-2.177,1.583-4.029,4.048-4.029c2.464,0,4.047,1.835,4.047,4.029
				c0,2.159-1.601,4.012-4.047,4.012C108.795,212.061,107.23,210.226,107.23,208.049z M113.724,208.049
				c0-1.583-1.007-2.716-2.446-2.716c-1.458,0-2.465,1.133-2.465,2.716s1.007,2.699,2.465,2.699
				C112.717,210.749,113.724,209.632,113.724,208.049z"/>
			<path fill="#1E5035" d="M122.538,206.701c-0.54,0-0.936-0.342-0.936-0.864c0-0.126,0.018-0.27,0.072-0.396
				c-0.306-0.144-0.755-0.233-1.241-0.233c-0.99,0-1.529,0.485-1.529,0.989c0,0.575,0.594,0.81,1.835,1.133
				c1.673,0.433,2.896,0.882,2.896,2.339c0,1.548-1.475,2.411-3.166,2.411c-1.169,0-2.357-0.396-2.878-0.918
				c-0.288-0.287-0.432-0.611-0.432-1.007c0-0.504,0.36-0.936,0.882-0.936c0.503,0,0.917,0.342,0.917,0.899
				c0,0.144-0.018,0.27-0.072,0.396c0.288,0.18,0.864,0.36,1.583,0.36c0.935,0,1.691-0.36,1.691-1.044
				c0-0.558-0.558-0.827-1.709-1.115c-1.979-0.504-3.041-0.989-3.041-2.375c0-1.188,1.062-2.32,3.041-2.32
				c1.007,0,2.015,0.323,2.519,0.827c0.27,0.271,0.396,0.594,0.396,0.936C123.365,206.34,123.023,206.701,122.538,206.701z"/>
			<path fill="#1E5035" d="M131.116,215.498c-0.864,0-1.475-0.485-1.475-1.098c0-0.558,0.377-0.881,0.845-0.881
				c0.45,0,0.738,0.323,0.846,0.647c0.252-0.09,0.504-0.288,0.792-0.702c0.144-0.233,0.306-0.521,0.486-0.881l0.521-1.08
				l-2.86-6.009h-1.007v-1.331h3.778v1.277h-1.187c0,0,2.033,4.605,2.015,4.605l2.051-4.605h-1.241v-1.277h3.741v1.331h-1.007
				l-3.652,7.79c-0.198,0.396-0.396,0.737-0.612,1.044C132.573,215.084,131.907,215.498,131.116,215.498z"/>
			<path fill="#1E5035" d="M144.353,205.495h-0.971v-1.331h3.76v1.277h-1.188l2.104,4.659l2.105-4.659h-1.242v-1.277h3.761v1.331
				h-0.972l-3.185,6.639h-0.989L144.353,205.495z"/>
			<path fill="#1E5035" d="M155.164,208.536c0.216,1.475,1.295,2.194,2.807,2.194c0.989,0,1.835-0.306,2.752-0.827l-0.126,1.421
				c-0.81,0.504-1.799,0.737-2.86,0.737c-2.5,0-4.191-1.619-4.191-3.993c0-2.177,1.493-4.048,3.85-4.048
				c2.393,0,3.652,1.709,3.652,3.688c0,0.288-0.036,0.594-0.072,0.828H155.164z M155.164,207.384h4.336
				c-0.072-1.241-0.828-2.087-2.142-2.087C156.315,205.298,155.362,205.981,155.164,207.384z"/>
			<path fill="#1E5035" d="M168.204,206.701c-0.539,0-0.936-0.342-0.936-0.864c0-0.126,0.019-0.27,0.072-0.396
				c-0.306-0.144-0.756-0.233-1.241-0.233c-0.989,0-1.529,0.485-1.529,0.989c0,0.575,0.594,0.81,1.835,1.133
				c1.673,0.433,2.896,0.882,2.896,2.339c0,1.548-1.476,2.411-3.166,2.411c-1.17,0-2.356-0.396-2.879-0.918
				c-0.287-0.287-0.432-0.611-0.432-1.007c0-0.504,0.36-0.936,0.882-0.936c0.504,0,0.917,0.342,0.917,0.899
				c0,0.144-0.018,0.27-0.071,0.396c0.287,0.18,0.863,0.36,1.583,0.36c0.936,0,1.69-0.36,1.69-1.044
				c0-0.558-0.558-0.827-1.709-1.115c-1.979-0.504-3.04-0.989-3.04-2.375c0-1.188,1.062-2.32,3.04-2.32
				c1.008,0,2.016,0.323,2.519,0.827c0.271,0.271,0.396,0.594,0.396,0.936C169.032,206.34,168.69,206.701,168.204,206.701z"/>
			<path fill="#1E5035" d="M172.358,211.09c-0.144-0.307-0.233-0.702-0.233-1.134v-4.462h-1.458v-1.331h1.458v-1.781l1.547-0.629
				v2.41h2.356v1.331h-2.356v4.192c0,0.252,0.036,0.432,0.107,0.594c0.145,0.252,0.433,0.377,0.882,0.377
				c0.468,0,1.025-0.216,1.476-0.432l-0.162,1.386c-0.45,0.233-1.025,0.449-1.745,0.449
				C173.366,212.061,172.7,211.756,172.358,211.09z"/>
			<path fill="#1E5035" d="M177.736,210.623h1.26v-5.128h-1.26v-1.331h2.807v6.459h1.241v1.295h-4.048V210.623z M178.473,201.393
				c0-0.611,0.522-1.115,1.134-1.115c0.594,0,1.115,0.504,1.115,1.115c0,0.63-0.54,1.134-1.134,1.134
				C178.977,202.527,178.473,202.023,178.473,201.393z"/>
			<path fill="#1E5035" d="M183.456,208.086c0-2.213,1.565-4.065,3.777-4.065c0.972,0,1.781,0.359,2.303,0.846v-4.786h-1.331v-1.331
				h2.879v11.874h1.205v1.295h-2.734v-0.989c-0.611,0.647-1.386,1.133-2.465,1.133C185.039,212.061,183.456,210.442,183.456,208.086
				z M189.536,209.723v-3.599c-0.558-0.432-1.223-0.756-2.122-0.756c-1.332,0-2.357,1.062-2.375,2.699
				c0,1.619,1.025,2.645,2.339,2.645C188.259,210.713,188.961,210.299,189.536,209.723z"/>
			<path fill="#1E5035" d="M193.798,208.049c0-2.177,1.583-4.029,4.048-4.029s4.048,1.835,4.048,4.029
				c0,2.159-1.602,4.012-4.048,4.012C195.363,212.061,193.798,210.226,193.798,208.049z M200.292,208.049
				c0-1.583-1.007-2.716-2.446-2.716c-1.457,0-2.465,1.133-2.465,2.716s1.008,2.699,2.465,2.699
				C199.285,210.749,200.292,209.632,200.292,208.049z"/>
			<path fill="#1E5035" d="M209.104,206.701c-0.539,0-0.936-0.342-0.936-0.864c0-0.126,0.019-0.27,0.072-0.396
				c-0.306-0.144-0.756-0.233-1.241-0.233c-0.989,0-1.529,0.485-1.529,0.989c0,0.575,0.594,0.81,1.835,1.133
				c1.673,0.433,2.896,0.882,2.896,2.339c0,1.548-1.476,2.411-3.166,2.411c-1.17,0-2.356-0.396-2.879-0.918
				c-0.287-0.287-0.432-0.611-0.432-1.007c0-0.504,0.36-0.936,0.882-0.936c0.504,0,0.917,0.342,0.917,0.899
				c0,0.144-0.018,0.27-0.071,0.396c0.287,0.18,0.863,0.36,1.583,0.36c0.936,0,1.69-0.36,1.69-1.044
				c0-0.558-0.558-0.827-1.709-1.115c-1.979-0.504-3.04-0.989-3.04-2.375c0-1.188,1.062-2.32,3.04-2.32
				c1.008,0,2.016,0.323,2.519,0.827c0.271,0.271,0.396,0.594,0.396,0.936C209.932,206.34,209.59,206.701,209.104,206.701z"/>
			<path fill="#1E5035" d="M50.7,227.583c0-3.472,2.519-6.135,6.062-6.135c3.49,0,5.973,2.681,5.973,6.135
				c0,3.473-2.519,6.135-6.062,6.135C53.183,233.717,50.7,231.037,50.7,227.583z M61.063,227.583c0-2.645-1.817-4.623-4.335-4.623
				c-2.537,0-4.354,1.961-4.354,4.623c0,2.645,1.817,4.624,4.354,4.624C59.246,232.207,61.063,230.246,61.063,227.583z"/>
			<path fill="#1E5035" d="M65.953,232.674c-0.144-0.307-0.234-0.702-0.234-1.134v-4.462h-1.457v-1.331h1.457v-1.781l1.547-0.629
				v2.41h2.356v1.331h-2.356v4.192c0,0.252,0.036,0.432,0.108,0.594c0.144,0.252,0.432,0.377,0.881,0.377
				c0.468,0,1.025-0.216,1.475-0.432l-0.162,1.386c-0.45,0.233-1.025,0.449-1.745,0.449
				C66.961,233.645,66.295,233.34,65.953,232.674z"/>
			<path fill="#1E5035" d="M71.258,229.633c0-2.177,1.583-4.029,4.048-4.029c2.464,0,4.047,1.835,4.047,4.029
				c0,2.159-1.601,4.012-4.047,4.012C72.823,233.645,71.258,231.81,71.258,229.633z M77.753,229.633
				c0-1.583-1.007-2.716-2.446-2.716c-1.458,0-2.465,1.133-2.465,2.716s1.007,2.699,2.465,2.699
				C76.745,232.333,77.753,231.216,77.753,229.633z"/>
			<path fill="#1E5035" d="M83.759,227.097c0.738-0.792,1.709-1.493,2.824-1.493c0.972,0,1.637,0.378,2.033,0.989
				c0.252,0.432,0.396,0.972,0.396,1.619v3.994h1.206v1.295h-3.904v-1.295h1.151v-3.652c0-0.378-0.054-0.684-0.18-0.918
				c-0.216-0.413-0.594-0.611-1.151-0.611c-0.845,0-1.655,0.504-2.321,1.17v4.012h1.151v1.295h-3.886v-1.295h1.206v-5.128h-1.206
				v-1.331h2.681V227.097z M85.415,223.697c-0.432-0.378-0.72-0.54-0.99-0.54c-0.414,0-0.702,0.342-0.863,1.098l-1.133-0.27
				c0.144-1.439,1.007-2.356,1.907-2.356c0.702,0,1.188,0.306,1.583,0.665c0.45,0.378,0.738,0.54,0.99,0.54
				c0.432,0,0.719-0.342,0.881-1.098l1.115,0.27c-0.126,1.439-0.989,2.357-1.889,2.357
				C86.314,224.363,85.828,224.057,85.415,223.697z"/>
			<path fill="#1E5035" d="M91.529,229.633c0-2.177,1.583-4.029,4.048-4.029c2.464,0,4.047,1.835,4.047,4.029
				c0,2.159-1.601,4.012-4.047,4.012C93.094,233.645,91.529,231.81,91.529,229.633z M98.023,229.633
				c0-1.583-1.007-2.716-2.446-2.716c-1.458,0-2.465,1.133-2.465,2.716s1.007,2.699,2.465,2.699
				C97.016,232.333,98.023,231.216,98.023,229.633z"/>
			<path fill="#1E5035" d="M105.845,232.045h1.547v-8.923h-1.547v-1.458h4.695v1.458h-1.529v8.923h1.529v1.457h-4.695V232.045z"/>
			<path fill="#1E5035" d="M115.037,227.097c0.738-0.792,1.709-1.493,2.824-1.493c0.972,0,1.637,0.378,2.033,0.989
				c0.252,0.432,0.396,0.972,0.396,1.619v3.994h1.206v1.295h-3.904v-1.295h1.151v-3.652c0-0.378-0.054-0.684-0.18-0.918
				c-0.216-0.413-0.594-0.611-1.151-0.611c-0.845,0-1.655,0.504-2.321,1.17v4.012h1.151v1.295h-3.886v-1.295h1.206v-5.128h-1.206
				v-1.331h2.681V227.097z"/>
			<path fill="#1E5035" d="M122.933,227.079h-0.972v-1.331h3.76v1.277h-1.187l2.104,4.659l2.105-4.659h-1.241v-1.277h3.76v1.331
				h-0.971l-3.185,6.639h-0.989L122.933,227.079z"/>
			<path fill="#1E5035" d="M132.411,232.207h1.259v-5.128h-1.259v-1.331h2.807v6.459h1.241v1.295h-4.048V232.207z M133.149,222.977
				c0-0.611,0.521-1.115,1.133-1.115c0.594,0,1.115,0.504,1.115,1.115c0,0.63-0.54,1.134-1.133,1.134
				C133.652,224.111,133.149,223.607,133.149,222.977z"/>
			<path fill="#1E5035" d="M139.714,230.12c0.216,1.475,1.295,2.194,2.807,2.194c0.989,0,1.835-0.306,2.752-0.827l-0.126,1.421
				c-0.81,0.504-1.799,0.737-2.86,0.737c-2.5,0-4.191-1.619-4.191-3.993c0-2.177,1.493-4.048,3.85-4.048
				c2.393,0,3.652,1.709,3.652,3.688c0,0.288-0.036,0.594-0.072,0.828H139.714z M139.714,228.968h4.336
				c-0.072-1.241-0.828-2.087-2.142-2.087C140.865,226.882,139.912,227.565,139.714,228.968z"/>
			<path fill="#1E5035" d="M153.636,226.737c0,0.558-0.45,1.044-0.989,1.044c-0.521,0-0.882-0.324-1.025-0.666
				c-0.576,0.18-1.241,0.828-1.619,1.565v3.526h1.421v1.295h-4.155v-1.295h1.205v-5.128h-1.205v-1.331h2.68v1.764
				c0.612-1.062,1.512-1.907,2.411-1.907C153.205,225.604,153.636,226.126,153.636,226.737z"/>
			<path fill="#1E5035" d="M157.555,227.097c0.738-0.792,1.71-1.493,2.825-1.493c0.971,0,1.637,0.378,2.032,0.989
				c0.252,0.432,0.396,0.972,0.396,1.619v3.994h1.205v1.295h-3.904v-1.295h1.151v-3.652c0-0.378-0.054-0.684-0.18-0.918
				c-0.216-0.413-0.594-0.611-1.151-0.611c-0.846,0-1.655,0.504-2.32,1.17v4.012h1.151v1.295h-3.886v-1.295h1.205v-5.128h-1.205
				v-1.331h2.68V227.097z"/>
			<path fill="#1E5035" d="M165.326,229.633c0-2.177,1.583-4.029,4.048-4.029s4.048,1.835,4.048,4.029
				c0,2.159-1.602,4.012-4.048,4.012C166.891,233.645,165.326,231.81,165.326,229.633z M171.82,229.633
				c0-1.583-1.007-2.716-2.446-2.716c-1.457,0-2.465,1.133-2.465,2.716s1.008,2.699,2.465,2.699
				C170.813,232.333,171.82,231.216,171.82,229.633z"/>
			<path fill="#1E5035" d="M181.477,226.053c0.198,0.162,0.342,0.432,0.342,0.684c0,0.558-0.449,1.025-1.007,1.025
				c-0.576,0-1.062-0.503-1.062-1.241c0-0.323,0.144-0.684,0.378-1.007c0.575-0.773,1.763-1.422,3.202-1.422
				c2.248,0,3.489,1.313,3.489,2.681c0,1.529-1.259,2.356-2.788,3.274c-1.224,0.72-2.068,1.331-2.591,2.177h4.354v-1.529h1.332
				v2.807h-7.412l-0.234-0.773c0.702-1.673,2.142-2.771,3.688-3.724c1.169-0.738,2.068-1.313,2.068-2.195
				c0-0.81-0.791-1.385-1.979-1.385C182.466,225.424,181.765,225.675,181.477,226.053z"/>
			<path fill="#1E5035" d="M189.194,228.86c0-2.734,1.799-4.768,4.299-4.768c2.501,0,4.3,2.051,4.3,4.768
				c0,2.753-1.799,4.785-4.3,4.785C190.993,233.645,189.194,231.594,189.194,228.86z M196.192,228.86
				c0-1.979-1.098-3.454-2.699-3.454c-1.601,0-2.698,1.457-2.698,3.454c0,2.015,1.098,3.454,2.698,3.454
				C195.094,232.314,196.192,230.875,196.192,228.86z"/>
			<path fill="#1E5035" d="M200.02,232.207h2.159v-6.351l-1.871,0.468l-0.359-1.313l3.076-0.81h0.72v8.006h2.122v1.295h-5.847
				V232.207z"/>
			<path fill="#1E5035" d="M207.611,230.407c0-1.241,0.864-2.284,2.087-2.752c-1.115-0.521-1.835-1.547-1.835-2.555
				c0-1.817,1.583-3.166,3.67-3.166c2.105,0,3.688,1.349,3.688,3.166c0,1.043-0.756,2.033-1.854,2.555
				c1.224,0.468,2.105,1.493,2.105,2.752c0,1.8-1.565,3.238-3.94,3.238C209.176,233.645,207.611,232.207,207.611,230.407z
				 M213.854,230.299c0-1.134-0.936-2.033-2.321-2.033c-1.367,0-2.303,0.899-2.303,2.033c0,1.133,0.936,2.015,2.303,2.015
				C212.919,232.314,213.854,231.432,213.854,230.299z M213.62,225.19c0-1.133-0.863-1.925-2.087-1.925
				c-1.205,0-2.068,0.792-2.068,1.925c0,1.044,0.917,1.889,2.068,1.889S213.62,226.234,213.62,225.19z"/>
		</g>
	</g>
	<g>
		<g>
			<g>
				<path fill="#1E5035" d="M55.656,97.469l-2.895-7.72c7.827-3.431,14.046-5.361,23.053-5.361c15.762,0,23.053,9.972,23.053,21.767
					c0,15.011-11.044,28.414-32.489,43.425v0.214h33.561v8.578H52.761v-9.328c30.666-20.265,35.92-32.81,35.92-40.745
					c0-13.403-10.187-15.012-15.012-15.012C68.415,93.287,63.269,94.038,55.656,97.469z"/>
				<path fill="#1E5035" d="M107.446,121.38c0-20.372,5.04-36.992,25.733-36.992c20.587,0,25.734,16.62,25.734,36.992
					c0,20.694-5.146,38.064-25.734,38.064C112.486,159.444,107.446,142.074,107.446,121.38z M117.632,121.38
					c0,15.548,2.895,30.022,15.547,30.022c12.545,0,15.548-14.474,15.548-30.022c0-15.547-3.003-28.95-15.548-28.95
					C120.528,92.43,117.632,105.833,117.632,121.38z"/>
			</g>
		</g>
	</g>
</g>
<g>
</g>
<g>
</g>
<g>
</g>
<g>
</g>
<g>
</g>
<g>
</g>
<g>
</g>
<g>
</g>
<g>
</g>
<g>
</g>
<g>
</g>
<g>
</g>
<g>
</g>
<g>
</g>
<g>
</g>
</svg>
