<?xml version="1.0" encoding="utf-8"?>
<!-- Generator: Adobe Illustrator 17.0.0, SVG Export Plug-In . SVG Version: 6.00 Build 0)  -->
<!DOCTYPE svg PUBLIC "-//W3C//DTD SVG 1.1//EN" "http://www.w3.org/Graphics/SVG/1.1/DTD/svg11.dtd">
<svg version="1.1" id="Layer_1" xmlns="http://www.w3.org/2000/svg" xmlns:xlink="http://www.w3.org/1999/xlink" x="0px" y="0px"
	 width="266.333px" height="265px" viewBox="0 0 266.333 265" enable-background="new 0 0 266.333 265" xml:space="preserve">
<g>
	<rect x="6.782" y="2.479" fill="#16A314" width="254.353" height="30.179"/>
	<g>
		<path fill="#FFFFFF" d="M86.257,11.169c1.72,0,3.227,0.213,5.2,0.807L90.8,14.417c-2.271-0.531-3.185-0.637-4.31-0.637
			c-2.674,0-3.587,1.846-3.587,4.712c0,3.077,0.913,4.945,3.587,4.945c1.125,0,2.038-0.106,4.31-0.637l0.657,2.44
			c-1.974,0.573-3.48,0.785-5.2,0.785c-5.072,0-6.431-3.396-6.431-7.534C79.826,14.417,81.185,11.169,86.257,11.169z"/>
		<path fill="#FFFFFF" d="M94.644,18.492c0-4.075,1.358-7.323,6.431-7.323c5.073,0,6.41,3.248,6.41,7.323
			c0,4.117-1.337,7.534-6.41,7.534C96.002,26.026,94.644,22.609,94.644,18.492z M97.721,18.492c0,2.865,0.51,5.094,3.354,5.094
			c2.845,0,3.333-2.229,3.333-5.094c0-2.866-0.488-4.882-3.333-4.882C98.231,13.61,97.721,15.626,97.721,18.492z"/>
		<path fill="#FFFFFF" d="M111.839,18.492c0-4.075,1.358-7.323,6.431-7.323c5.073,0,6.41,3.248,6.41,7.323
			c0,4.117-1.337,7.534-6.41,7.534C113.197,26.026,111.839,22.609,111.839,18.492z M114.916,18.492c0,2.865,0.51,5.094,3.354,5.094
			c2.845,0,3.333-2.229,3.333-5.094c0-2.866-0.488-4.882-3.333-4.882C115.426,13.61,114.916,15.626,114.916,18.492z"/>
		<path fill="#FFFFFF" d="M131.921,11.382v11.843h6.727v2.59h-9.657V11.382H131.921z"/>
		<path fill="#FFFFFF" d="M151.534,18.364c1.571,0.467,2.611,1.635,2.611,3.502c0,2.463-1.592,3.948-4.606,3.948h-6.537V11.382
			h6.113c3.014,0,4.605,1.358,4.605,3.692c0,1.55-0.849,2.76-2.187,3.248V18.364z M148.797,13.992h-2.865v3.12h2.865
			c1.21,0,1.847-0.446,1.847-1.57C150.643,14.48,150.007,13.992,148.797,13.992z M145.931,19.722v3.502h3.119
			c1.231,0,2.017-0.403,2.017-1.762c0-1.294-0.785-1.74-2.122-1.74H145.931z"/>
		<path fill="#FFFFFF" d="M157.925,18.492c0-4.075,1.358-7.323,6.431-7.323c5.073,0,6.41,3.248,6.41,7.323
			c0,4.117-1.337,7.534-6.41,7.534C159.284,26.026,157.925,22.609,157.925,18.492z M161.003,18.492c0,2.865,0.51,5.094,3.354,5.094
			c2.845,0,3.333-2.229,3.333-5.094c0-2.866-0.488-4.882-3.333-4.882C161.512,13.61,161.003,15.626,161.003,18.492z"/>
		<path fill="#FFFFFF" d="M179.322,20.72h-0.042l-2.887,5.094h-3.247l4.351-7.492l-4.117-6.94h3.417l2.674,4.542h0.043l2.61-4.542
			h3.396l-4.118,6.94l4.521,7.492h-3.481L179.322,20.72z"/>
	</g>
	<g>
		<g>
			<g>
				<path fill="#1E5035" d="M75.632,129.054l0.734-3.674c4.776,1.147,7.992,1.378,10.518,1.378c4.593,0,6.66-2.389,6.66-4.915
					c0-3.812-4.455-4.73-7.808-5.649c-5.099-1.331-9.646-4.133-9.646-9.415c0-5.925,4.822-8.268,10.793-8.268
					c3.445,0,6.66,0.46,10.564,1.608l-1.011,3.674c-4.73-1.148-7.027-1.378-9.554-1.378c-4.593,0-6.2,2.067-6.2,4.501
					c0,3.537,4.547,4.776,8.038,5.604c5.052,1.148,9.415,3.582,9.415,8.956c0,6.2-4.822,9.186-11.253,9.186
					C83.44,130.662,79.536,130.203,75.632,129.054z"/>
				<path fill="#1E5035" d="M104.566,130.203h-3.675l16.994-31.231h3.674L104.566,130.203z"/>
				<path fill="#1E5035" d="M141.216,115.827c-1.791,2.435-4.409,4.042-7.395,4.042c-5.925,0-9.507-3.904-9.507-10.793
					c0-6.614,4.317-10.564,10.196-10.564c8.358,0,10.931,6.936,10.931,14.238c0,13.778-5.971,17.912-13.044,17.912
					c-2.985,0-5.006-0.459-7.119-1.147l0.506-3.216c2.479,0.644,4.271,0.919,6.246,0.919c6.521,0,9.186-6.476,9.277-11.345
					L141.216,115.827z M134.741,101.957c-3.261,0-6.062,2.479-6.062,7.119c0,3.169,1.147,7.211,6.246,7.211
					c2.48,0,4.547-1.608,6.017-3.675C141.216,107.238,140.253,101.957,134.741,101.957z"/>
				<path fill="#1E5035" d="M165.557,115.827c-1.791,2.435-4.409,4.042-7.395,4.042c-5.925,0-9.507-3.904-9.507-10.793
					c0-6.614,4.317-10.564,10.196-10.564c8.358,0,10.931,6.936,10.931,14.238c0,13.778-5.971,17.912-13.044,17.912
					c-2.985,0-5.006-0.459-7.119-1.147l0.506-3.216c2.479,0.644,4.271,0.919,6.246,0.919c6.521,0,9.186-6.476,9.277-11.345
					L165.557,115.827z M159.082,101.957c-3.261,0-6.062,2.479-6.062,7.119c0,3.169,1.147,7.211,6.246,7.211
					c2.48,0,4.547-1.608,6.017-3.675C165.557,107.238,164.593,101.957,159.082,101.957z"/>
				<path fill="#1E5035" d="M189.898,115.827c-1.791,2.435-4.409,4.042-7.395,4.042c-5.925,0-9.507-3.904-9.507-10.793
					c0-6.614,4.317-10.564,10.196-10.564c8.358,0,10.931,6.936,10.931,14.238c0,13.778-5.971,17.912-13.044,17.912
					c-2.985,0-5.006-0.459-7.119-1.147l0.506-3.216c2.479,0.644,4.271,0.919,6.246,0.919c6.521,0,9.186-6.476,9.277-11.345
					L189.898,115.827z M183.423,101.957c-3.261,0-6.062,2.479-6.062,7.119c0,3.169,1.147,7.211,6.246,7.211
					c2.48,0,4.547-1.608,6.017-3.675C189.898,107.238,188.934,101.957,183.423,101.957z"/>
			</g>
		</g>
	</g>
	<g>
		<g>
			<g>
				<path fill="#1E5035" d="M93.553,86.343h-4.17l-0.93,2.759H86.85l3.752-10.985h1.877l3.672,10.985h-1.699L93.553,86.343z
					 M91.485,80.025l-1.78,5.036h3.528l-1.716-5.036H91.485z"/>
				<path fill="#1E5035" d="M96.858,89.102V78.197h1.523l5.293,8.099h0.032v-8.099h1.491v10.905h-1.523l-5.309-7.922h-0.032v7.922
					H96.858z"/>
				<path fill="#1E5035" d="M110.845,79.56v9.542h-1.523V79.56h-2.999v-1.363h7.537v1.363H110.845z"/>
				<path fill="#1E5035" d="M121.96,79.56h-5.452v3.207h4.73v1.363h-4.73v3.608h5.532v1.363h-7.057V78.197h6.977V79.56z"/>
				<path fill="#1E5035" d="M123.163,88.701l0.257-1.282c1.668,0.4,2.79,0.48,3.673,0.48c1.604,0,2.325-0.834,2.325-1.716
					c0-1.331-1.556-1.651-2.727-1.973c-1.78-0.465-3.368-1.443-3.368-3.287c0-2.069,1.685-2.887,3.77-2.887
					c1.202,0,2.325,0.16,3.688,0.562l-0.354,1.282c-1.651-0.4-2.453-0.48-3.335-0.48c-1.604,0-2.165,0.722-2.165,1.571
					c0,1.235,1.587,1.668,2.806,1.957c1.765,0.4,3.288,1.25,3.288,3.127c0,2.165-1.684,3.207-3.929,3.207
					C125.89,89.262,124.527,89.102,123.163,88.701z"/>
				<path fill="#1E5035" d="M141.128,88.701l0.257-1.282c1.668,0.4,2.79,0.48,3.673,0.48c1.604,0,2.325-0.834,2.325-1.716
					c0-1.331-1.556-1.651-2.727-1.973c-1.78-0.465-3.368-1.443-3.368-3.287c0-2.069,1.685-2.887,3.77-2.887
					c1.202,0,2.325,0.16,3.688,0.562l-0.354,1.282c-1.651-0.4-2.453-0.48-3.335-0.48c-1.604,0-2.165,0.722-2.165,1.571
					c0,1.235,1.587,1.668,2.806,1.957c1.765,0.4,3.288,1.25,3.288,3.127c0,2.165-1.684,3.207-3.929,3.207
					C143.854,89.262,142.491,89.102,141.128,88.701z"/>
				<path fill="#1E5035" d="M151.233,89.102h-1.283l5.934-10.905h1.283L151.233,89.102z"/>
				<path fill="#1E5035" d="M158.034,81.244l-0.385-1.202c1.25-0.562,2.613-1.268,3.447-1.925h1.043v10.985h-1.443v-9.253
					L158.034,81.244z"/>
				<path fill="#1E5035" d="M163.423,83.569c0-3.047,0.754-5.532,3.849-5.532c3.079,0,3.85,2.485,3.85,5.532
					c0,3.096-0.771,5.693-3.85,5.693C164.176,89.262,163.423,86.665,163.423,83.569z M164.946,83.569
					c0,2.326,0.434,4.491,2.325,4.491c1.877,0,2.326-2.165,2.326-4.491c0-2.325-0.449-4.329-2.326-4.329
					C165.38,79.24,164.946,81.244,164.946,83.569z"/>
				<path fill="#1E5035" d="M178.146,84.083c-0.625,0.85-1.539,1.411-2.581,1.411c-2.069,0-3.32-1.363-3.32-3.769
					c0-2.31,1.508-3.688,3.561-3.688c2.919,0,3.816,2.422,3.816,4.972c0,4.811-2.085,6.254-4.555,6.254
					c-1.042,0-1.748-0.16-2.485-0.4l0.177-1.123c0.865,0.225,1.491,0.321,2.181,0.321c2.277,0,3.207-2.262,3.239-3.962
					L178.146,84.083z M175.885,79.24c-1.139,0-2.117,0.865-2.117,2.485c0,1.106,0.401,2.518,2.182,2.518
					c0.865,0,1.587-0.562,2.101-1.283C178.146,81.084,177.81,79.24,175.885,79.24z"/>
				<path fill="#1E5035" d="M186.647,84.083c-0.625,0.85-1.539,1.411-2.581,1.411c-2.069,0-3.32-1.363-3.32-3.769
					c0-2.31,1.508-3.688,3.561-3.688c2.919,0,3.816,2.422,3.816,4.972c0,4.811-2.085,6.254-4.555,6.254
					c-1.042,0-1.748-0.16-2.485-0.4l0.177-1.123c0.865,0.225,1.491,0.321,2.181,0.321c2.277,0,3.207-2.262,3.239-3.962
					L186.647,84.083z M184.386,79.24c-1.139,0-2.117,0.865-2.117,2.485c0,1.106,0.401,2.518,2.182,2.518
					c0.865,0,1.587-0.562,2.101-1.283C186.647,81.084,186.311,79.24,184.386,79.24z"/>
			</g>
		</g>
	</g>
	<g>
		<g>
			<path fill="#1E5035" d="M15.116,55.881c0-3.484,2.687-5.946,5.876-5.946c2.496,0,4.334,1.422,4.334,2.791
				c0,0.729-0.485,1.23-1.109,1.23c-0.642,0-1.109-0.416-1.109-1.039c0-0.295,0.139-0.538,0.295-0.659
				c-0.312-0.382-1.162-0.884-2.444-0.884c-2.444,0-4.229,2.011-4.229,4.489c0,2.375,1.733,4.455,4.316,4.455
				c1.352,0,2.461-0.555,3.414-1.491l0.988,1.092c-1.127,1.18-2.738,1.838-4.402,1.838C17.525,61.757,15.116,59.191,15.116,55.881z"
				/>
			<path fill="#1E5035" d="M28.947,58.29c0.208,1.422,1.248,2.115,2.704,2.115c0.953,0,1.769-0.295,2.652-0.798l-0.122,1.369
				c-0.779,0.485-1.732,0.711-2.756,0.711c-2.409,0-4.039-1.56-4.039-3.849c0-2.097,1.439-3.899,3.71-3.899
				c2.306,0,3.519,1.646,3.519,3.554c0,0.277-0.034,0.571-0.069,0.797H28.947z M28.947,57.18h4.178
				c-0.069-1.196-0.798-2.011-2.063-2.011C30.056,55.17,29.137,55.829,28.947,57.18z"/>
			<path fill="#1E5035" d="M36.105,60.3h1.213V50.143h-1.213V48.86h2.703V60.3h1.196v1.248h-3.899V60.3z"/>
			<path fill="#1E5035" d="M42.76,60.699c-0.226-0.416-0.347-0.919-0.347-1.525V55.36h-1.162v-1.282h2.635v4.767
				c0,0.381,0.07,0.676,0.191,0.901c0.208,0.398,0.555,0.572,1.092,0.572c0.814,0,1.577-0.503,2.236-1.127V55.36H46.21v-1.282h2.687
				V60.3h1.162v1.248h-2.601v-1.3c-0.711,0.763-1.646,1.438-2.722,1.438C43.783,61.687,43.141,61.305,42.76,60.699z"/>
			<path fill="#1E5035" d="M51.408,60.3h1.214V50.143h-1.214V48.86h2.705V60.3h1.195v1.248h-3.9V60.3z"/>
			<path fill="#1E5035" d="M56.885,59.555c0-1.369,1.213-2.254,2.929-2.254c0.78,0,1.647,0.174,2.046,0.295v-0.85
				c0-0.434-0.121-0.779-0.329-1.04c-0.312-0.381-0.832-0.571-1.561-0.571c-0.468,0-0.745,0.104-0.971,0.225
				c0.053,0.121,0.087,0.277,0.087,0.416c0,0.485-0.364,0.85-0.866,0.85c-0.521,0-0.885-0.364-0.885-0.884
				c0-0.884,0.971-1.803,2.878-1.803c1.161,0,2.011,0.347,2.513,0.936c0.382,0.451,0.572,1.04,0.572,1.716v3.71h1.162v1.248h-2.566
				v-0.901c-0.606,0.572-1.56,1.04-2.564,1.04C57.96,61.687,56.885,60.907,56.885,59.555z M61.86,59.676v-1.213
				c-0.503-0.139-1.144-0.261-1.82-0.261c-1.058,0-1.646,0.503-1.646,1.231c0,0.676,0.503,1.126,1.369,1.126
				C60.56,60.56,61.288,60.179,61.86,59.676z"/>
			<path fill="#1E5035" d="M71.947,55.031c0,0.537-0.434,1.005-0.953,1.005c-0.503,0-0.85-0.312-0.988-0.641
				c-0.555,0.173-1.195,0.797-1.56,1.508V60.3h1.369v1.248h-4.004V60.3h1.161v-4.94h-1.161v-1.282h2.583v1.698
				c0.589-1.022,1.455-1.837,2.322-1.837C71.531,53.939,71.947,54.442,71.947,55.031z"/>
			<path fill="#1E5035" d="M77.475,60.144h1.387v-8.598h-1.387v-1.403h4.473c2.409,0,4.264,1.403,4.264,3.657
				c0,2.444-1.768,3.778-4.368,3.778c-0.589,0-1.109-0.018-1.404-0.034v2.6h1.491v1.404h-4.455V60.144z M84.599,53.8
				c0-1.404-1.161-2.254-2.687-2.254h-1.474v4.611c0.295,0.017,0.764,0.034,1.509,0.034C83.594,56.192,84.599,55.291,84.599,53.8z"
				/>
			<path fill="#1E5035" d="M88.186,60.3h2.08v-6.119l-1.803,0.451l-0.347-1.266l2.964-0.78h0.693V60.3h2.046v1.248h-5.634V60.3z"/>
			<path fill="#1E5035" d="M95.552,57.077c0-2.635,1.733-4.594,4.143-4.594c2.41,0,4.143,1.976,4.143,4.594
				c0,2.651-1.732,4.61-4.143,4.61C97.286,61.687,95.552,59.712,95.552,57.077z M102.296,57.077c0-1.907-1.058-3.328-2.601-3.328
				s-2.6,1.403-2.6,3.328c0,1.941,1.057,3.328,2.6,3.328S102.296,59.018,102.296,57.077z"/>
			<path fill="#1E5035" d="M109.92,60.144h1.387v-8.598h-1.387v-1.403h4.507v1.403h-1.542v8.615h3.605V58.48h1.508v3.068h-8.078
				V60.144z"/>
			<path fill="#1E5035" d="M119.748,60.3h1.213v-4.94h-1.213v-1.282h2.703V60.3h1.196v1.248h-3.899V60.3z M120.458,51.408
				c0-0.589,0.503-1.074,1.093-1.074c0.571,0,1.074,0.485,1.074,1.074c0,0.606-0.52,1.093-1.092,1.093
				C120.943,52.501,120.458,52.014,120.458,51.408z"/>
			<path fill="#1E5035" d="M126.42,60.751c-0.139-0.294-0.225-0.676-0.225-1.092V55.36h-1.404v-1.282h1.404v-1.716l1.49-0.607v2.323
				h2.271v1.282h-2.271v4.039c0,0.242,0.035,0.416,0.104,0.572c0.139,0.242,0.416,0.363,0.85,0.363c0.451,0,0.988-0.207,1.422-0.416
				l-0.156,1.335c-0.434,0.226-0.988,0.434-1.682,0.434C127.39,61.687,126.75,61.392,126.42,60.751z"/>
			<path fill="#1E5035" d="M133.162,58.29c0.208,1.422,1.248,2.115,2.704,2.115c0.953,0,1.769-0.295,2.652-0.798l-0.122,1.369
				c-0.779,0.485-1.732,0.711-2.756,0.711c-2.409,0-4.039-1.56-4.039-3.849c0-2.097,1.439-3.899,3.71-3.899
				c2.306,0,3.519,1.646,3.519,3.554c0,0.277-0.034,0.571-0.069,0.797H133.162z M133.162,57.18h4.178
				c-0.069-1.196-0.798-2.011-2.062-2.011C134.271,55.17,133.352,55.829,133.162,57.18z"/>
			<path fill="#1E5035" d="M144.773,60.144h1.387v-8.598h-1.387v-1.403h4.42v1.403h-1.455v3.502h5.876v-3.502h-1.456v-1.403h4.42
				v1.403h-1.387v8.598h1.387v1.404h-4.42v-1.404h1.456v-3.727h-5.876v3.727h1.455v1.404h-4.42V60.144z"/>
			<path fill="#1E5035" d="M159.558,60.699c-0.226-0.416-0.347-0.919-0.347-1.525V55.36h-1.161v-1.282h2.635v4.767
				c0,0.381,0.068,0.676,0.19,0.901c0.208,0.398,0.555,0.572,1.092,0.572c0.814,0,1.577-0.503,2.236-1.127V55.36h-1.196v-1.282
				h2.687V60.3h1.161v1.248h-2.6v-1.3c-0.711,0.763-1.646,1.438-2.722,1.438C160.581,61.687,159.939,61.305,159.558,60.699z"/>
			<path fill="#1E5035" d="M168.397,59.555c0-1.369,1.213-2.254,2.929-2.254c0.78,0,1.647,0.174,2.046,0.295v-0.85
				c0-0.434-0.121-0.779-0.329-1.04c-0.312-0.381-0.832-0.571-1.561-0.571c-0.468,0-0.745,0.104-0.971,0.225
				c0.053,0.121,0.087,0.277,0.087,0.416c0,0.485-0.364,0.85-0.866,0.85c-0.521,0-0.885-0.364-0.885-0.884
				c0-0.884,0.971-1.803,2.878-1.803c1.161,0,2.011,0.347,2.513,0.936c0.382,0.451,0.572,1.04,0.572,1.716v3.71h1.162v1.248h-2.566
				v-0.901c-0.606,0.572-1.56,1.04-2.564,1.04C169.471,61.687,168.397,60.907,168.397,59.555z M173.372,59.676v-1.213
				c-0.503-0.139-1.144-0.261-1.82-0.261c-1.058,0-1.646,0.503-1.646,1.231c0,0.676,0.503,1.126,1.369,1.126
				C172.072,60.56,172.799,60.179,173.372,59.676z"/>
			<path fill="#1E5035" d="M177.878,55.36h-1.093v-1.282h3.623v1.248h-1.127l1.214,4.264l1.924-4.697h0.919l1.941,4.697l1.213-4.264
				h-1.248v-1.248h3.605v1.282h-1.092l-1.959,6.483h-0.936l-2.045-4.854l-2.028,4.854h-0.937L177.878,55.36z"/>
			<path fill="#1E5035" d="M191.517,58.29c0.208,1.422,1.248,2.115,2.704,2.115c0.953,0,1.769-0.295,2.652-0.798l-0.122,1.369
				c-0.779,0.485-1.732,0.711-2.756,0.711c-2.409,0-4.039-1.56-4.039-3.849c0-2.097,1.439-3.899,3.71-3.899
				c2.306,0,3.519,1.646,3.519,3.554c0,0.277-0.034,0.571-0.069,0.797H191.517z M191.517,57.18h4.178
				c-0.069-1.196-0.798-2.011-2.062-2.011C192.627,55.17,191.708,55.829,191.517,57.18z"/>
			<path fill="#1E5035" d="M198.814,60.3h1.213v-4.94h-1.213v-1.282h2.703V60.3h1.196v1.248h-3.899V60.3z M199.524,51.408
				c0-0.589,0.503-1.074,1.093-1.074c0.571,0,1.074,0.485,1.074,1.074c0,0.606-0.52,1.093-1.092,1.093
				C200.009,52.501,199.524,52.014,199.524,51.408z"/>
			<path fill="#1E5035" d="M211.086,55.378c0.71-0.763,1.646-1.438,2.721-1.438c0.937,0,1.578,0.364,1.959,0.953
				c0.242,0.416,0.381,0.937,0.381,1.56V60.3h1.162v1.248h-3.762V60.3h1.109v-3.519c0-0.364-0.052-0.659-0.174-0.885
				c-0.207-0.398-0.571-0.589-1.109-0.589c-0.814,0-1.594,0.485-2.235,1.127V60.3h1.109v1.248h-3.744V60.3h1.161v-4.94h-1.161
				v-1.282h2.583V55.378z"/>
			<path fill="#1E5035" d="M220.236,58.29c0.208,1.422,1.248,2.115,2.704,2.115c0.953,0,1.769-0.295,2.652-0.798l-0.122,1.369
				c-0.779,0.485-1.732,0.711-2.756,0.711c-2.409,0-4.039-1.56-4.039-3.849c0-2.097,1.439-3.899,3.71-3.899
				c2.306,0,3.519,1.646,3.519,3.554c0,0.277-0.034,0.571-0.069,0.797H220.236z M220.236,57.18h4.178
				c-0.069-1.196-0.798-2.011-2.062-2.011C221.345,55.17,220.426,55.829,220.236,57.18z"/>
			<path fill="#1E5035" d="M234.882,61.705c0,0.919-0.243,1.664-0.693,2.201c-0.625,0.763-1.647,1.109-2.826,1.109
				c-1.23,0-2.219-0.382-2.704-0.866c-0.277-0.277-0.398-0.572-0.398-0.902c0-0.52,0.382-0.971,0.937-0.971
				c0.502,0,0.866,0.364,0.866,0.85c0,0.139-0.034,0.295-0.104,0.416c0.261,0.104,0.693,0.243,1.318,0.243
				c0.71,0,1.334-0.208,1.732-0.711c0.243-0.312,0.382-0.763,0.382-1.369v-1.3c-0.589,0.606-1.266,1.057-2.34,1.057
				c-1.925,0-3.484-1.508-3.484-3.709c0-2.062,1.508-3.813,3.605-3.813c0.988,0,1.733,0.381,2.288,0.884v-0.745h2.583v1.282h-1.161
				V61.705z M229.092,57.735c0,1.49,0.953,2.444,2.271,2.444c0.814,0,1.491-0.382,2.028-0.937v-3.275
				c-0.503-0.416-1.144-0.729-1.993-0.729C230.046,55.239,229.092,56.245,229.092,57.735z"/>
			<path fill="#1E5035" d="M243.634,55.031c0,0.537-0.434,1.005-0.953,1.005c-0.503,0-0.85-0.312-0.988-0.641
				c-0.555,0.173-1.195,0.797-1.56,1.508V60.3h1.369v1.248h-4.004V60.3h1.161v-4.94h-1.161v-1.282h2.583v1.698
				c0.589-1.022,1.455-1.837,2.322-1.837C243.218,53.939,243.634,54.442,243.634,55.031z"/>
			<path fill="#1E5035" d="M244.882,57.822c0-2.098,1.525-3.883,3.9-3.883c2.374,0,3.899,1.768,3.899,3.883
				c0,2.08-1.542,3.865-3.899,3.865C246.389,61.687,244.882,59.919,244.882,57.822z M251.139,57.822
				c0-1.525-0.971-2.618-2.357-2.618c-1.404,0-2.375,1.093-2.375,2.618s0.971,2.6,2.375,2.6
				C250.169,60.422,251.139,59.347,251.139,57.822z"/>
		</g>
	</g>
	<g>
		<g>
			<g>
				<g>
					<path fill="#1E5035" d="M7.913,217.048l0.56-2.797c3.635,0.874,6.082,1.049,8.005,1.049c3.496,0,5.069-1.817,5.069-3.74
						c0-2.901-3.392-3.601-5.943-4.3c-3.88-1.014-7.341-3.146-7.341-7.166c0-4.51,3.67-6.293,8.215-6.293
						c2.622,0,5.069,0.35,8.04,1.224l-0.769,2.797c-3.601-0.874-5.349-1.049-7.271-1.049c-3.496,0-4.72,1.573-4.72,3.426
						c0,2.691,3.461,3.636,6.118,4.265c3.846,0.874,7.166,2.727,7.166,6.817c0,4.719-3.67,6.991-8.564,6.991
						C13.855,218.271,10.884,217.922,7.913,217.048z"/>
					<path fill="#1E5035" d="M29.936,217.922h-2.797l12.935-23.771h2.796L29.936,217.922z"/>
					<path fill="#1E5035" d="M44.758,200.793l-0.839-2.622c2.727-1.224,5.698-2.762,7.516-4.195h2.272v23.946h-3.146v-20.171
						L44.758,200.793z"/>
					<path fill="#1E5035" d="M69.369,206.98c-1.363,1.853-3.355,3.076-5.628,3.076c-4.51,0-7.236-2.972-7.236-8.216
						c0-5.033,3.286-8.04,7.761-8.04c6.362,0,8.319,5.278,8.319,10.837c0,10.487-4.544,13.634-9.928,13.634
						c-2.272,0-3.811-0.35-5.418-0.874l0.384-2.447c1.888,0.489,3.251,0.699,4.755,0.699c4.964,0,6.991-4.929,7.062-8.635
						L69.369,206.98z M64.44,196.423c-2.482,0-4.614,1.888-4.614,5.418c0,2.412,0.873,5.489,4.754,5.489
						c1.888,0,3.461-1.224,4.579-2.797C69.369,200.443,68.634,196.423,64.44,196.423z"/>
					<path fill="#1E5035" d="M87.896,206.98c-1.363,1.853-3.355,3.076-5.628,3.076c-4.51,0-7.236-2.972-7.236-8.216
						c0-5.033,3.286-8.04,7.761-8.04c6.362,0,8.319,5.278,8.319,10.837c0,10.487-4.544,13.634-9.928,13.634
						c-2.272,0-3.811-0.35-5.418-0.874l0.384-2.447c1.888,0.489,3.251,0.699,4.755,0.699c4.964,0,6.991-4.929,7.062-8.635
						L87.896,206.98z M82.967,196.423c-2.482,0-4.614,1.888-4.614,5.418c0,2.412,0.873,5.489,4.754,5.489
						c1.888,0,3.461-1.224,4.579-2.797C87.896,200.443,87.162,196.423,82.967,196.423z"/>
					<path fill="#1E5035" d="M94.084,222.466l0.699-4.545c-0.42,0-0.839,0-1.224,0v-4.545h3.146v4.545l-1.573,4.545H94.084z"/>
					<path fill="#1E5035" d="M112.017,206.98c-1.363,1.853-3.355,3.076-5.628,3.076c-4.51,0-7.236-2.972-7.236-8.216
						c0-5.033,3.286-8.04,7.761-8.04c6.362,0,8.319,5.278,8.319,10.837c0,10.487-4.544,13.634-9.928,13.634
						c-2.272,0-3.811-0.35-5.418-0.874l0.384-2.447c1.888,0.489,3.251,0.699,4.755,0.699c4.964,0,6.991-4.929,7.062-8.635
						L112.017,206.98z M107.089,196.423c-2.482,0-4.614,1.888-4.614,5.418c0,2.412,0.873,5.489,4.754,5.489
						c1.888,0,3.461-1.224,4.579-2.797C112.017,200.443,111.283,196.423,107.089,196.423z"/>
				</g>
			</g>
		</g>
		<g>
			<g>
				<path fill="#1E5035" d="M8.785,162.212h0.946v-5.489H8.114v1.155H7.168v-2.014h6.128v2.014H12.35v-1.155h-1.617v5.489h0.946
					v0.892H8.785V162.212z"/>
				<path fill="#1E5035" d="M14.307,162.311h0.771v-3.136h-0.771v-0.813h1.717v3.949h0.759v0.792h-2.476V162.311z M14.758,156.668
					c0-0.374,0.319-0.683,0.693-0.683c0.362,0,0.682,0.309,0.682,0.683c0,0.385-0.33,0.692-0.693,0.692
					C15.066,157.36,14.758,157.052,14.758,156.668z"/>
				<path fill="#1E5035" d="M17.773,162.311h0.737v-3.136h-0.737v-0.813h1.639v0.824c0.396-0.462,0.979-0.913,1.673-0.913
					c0.55,0,0.924,0.209,1.155,0.539c0.065,0.1,0.109,0.209,0.143,0.33c0.484-0.483,1.067-0.869,1.673-0.869
					c0.682,0,1.1,0.253,1.319,0.683c0.121,0.253,0.188,0.561,0.188,0.902v2.453h0.737v0.792h-2.388v-0.792h0.704v-2.244
					c0-0.221-0.033-0.396-0.088-0.539c-0.11-0.265-0.33-0.386-0.671-0.386c-0.484,0-0.936,0.286-1.354,0.693v2.476h0.693v0.792
					h-2.344v-0.792h0.704v-2.244c0-0.221-0.021-0.396-0.077-0.539c-0.121-0.265-0.33-0.386-0.671-0.386
					c-0.506,0-0.957,0.309-1.364,0.704v2.465h0.693v0.792h-2.365V162.311z"/>
				<path fill="#1E5035" d="M27.189,160.738c0-1.331,0.968-2.465,2.475-2.465c1.508,0,2.476,1.122,2.476,2.465
					c0,1.32-0.979,2.453-2.476,2.453C28.146,163.191,27.189,162.069,27.189,160.738z M31.16,160.738
					c0-0.968-0.616-1.661-1.497-1.661c-0.891,0-1.507,0.693-1.507,1.661s0.616,1.65,1.507,1.65
					C30.544,162.388,31.16,161.706,31.16,160.738z M29.136,157.316l1.275-1.496c0.154-0.176,0.342-0.286,0.528-0.286
					c0.265,0,0.484,0.209,0.484,0.506c0,0.177-0.121,0.386-0.353,0.539l-1.661,1.046L29.136,157.316z"/>
				<path fill="#1E5035" d="M34.833,159.186c0.451-0.483,1.046-0.913,1.728-0.913c0.594,0,1.001,0.231,1.243,0.605
					c0.154,0.264,0.242,0.594,0.242,0.99v2.442h0.737v0.792h-2.388v-0.792H37.1v-2.233c0-0.231-0.033-0.418-0.11-0.562
					c-0.132-0.253-0.362-0.374-0.704-0.374c-0.517,0-1.012,0.309-1.419,0.716v2.453h0.704v0.792h-2.376v-0.792h0.737v-3.136h-0.737
					v-0.813h1.639V159.186z"/>
				<path fill="#1E5035" d="M42.093,162.212h0.66l2.014-5.468h-0.804v-0.88h3.631v0.88h-0.814l2.014,5.468h0.671v0.892H46.89v-0.88
					h0.836l-0.539-1.529h-2.86l-0.539,1.529h0.88v0.88h-2.574V162.212z M46.901,159.858l-1.144-3.158l-1.145,3.158H46.901z"/>
				<path fill="#1E5035" d="M50.189,162.311h0.771v-6.447h-0.771v-0.813h1.716v7.261h0.76v0.792h-2.476V162.311z"/>
				<path fill="#1E5035" d="M53.665,161.838c0-0.869,0.77-1.43,1.859-1.43c0.495,0,1.045,0.11,1.298,0.187v-0.539
					c0-0.274-0.077-0.495-0.209-0.66c-0.198-0.241-0.528-0.362-0.99-0.362c-0.297,0-0.473,0.065-0.616,0.143
					c0.033,0.077,0.056,0.176,0.056,0.265c0,0.308-0.231,0.539-0.551,0.539c-0.33,0-0.561-0.231-0.561-0.562
					c0-0.562,0.616-1.145,1.826-1.145c0.737,0,1.276,0.221,1.595,0.595c0.242,0.286,0.363,0.66,0.363,1.089v2.354h0.737v0.792
					h-1.628v-0.572c-0.386,0.363-0.99,0.66-1.629,0.66C54.347,163.191,53.665,162.696,53.665,161.838z M56.822,161.915v-0.77
					c-0.319-0.088-0.726-0.165-1.155-0.165c-0.671,0-1.045,0.318-1.045,0.781c0,0.429,0.319,0.715,0.869,0.715
					C55.997,162.476,56.459,162.234,56.822,161.915z M55.393,157.316l1.275-1.496c0.154-0.176,0.342-0.286,0.528-0.286
					c0.265,0,0.484,0.209,0.484,0.506c0,0.177-0.121,0.386-0.353,0.539l-1.661,1.046L55.393,157.316z"/>
				<path fill="#1E5035" d="M59.329,162.311h0.737v-3.136h-0.737v-0.813h1.639v0.824c0.396-0.462,0.979-0.913,1.673-0.913
					c0.55,0,0.924,0.209,1.155,0.539c0.065,0.1,0.109,0.209,0.143,0.33c0.484-0.483,1.067-0.869,1.673-0.869
					c0.682,0,1.1,0.253,1.319,0.683c0.121,0.253,0.188,0.561,0.188,0.902v2.453h0.737v0.792h-2.388v-0.792h0.704v-2.244
					c0-0.221-0.033-0.396-0.088-0.539c-0.11-0.265-0.33-0.386-0.671-0.386c-0.484,0-0.936,0.286-1.354,0.693v2.476h0.693v0.792
					h-2.344v-0.792h0.704v-2.244c0-0.221-0.021-0.396-0.077-0.539c-0.121-0.265-0.33-0.386-0.671-0.386
					c-0.506,0-0.957,0.309-1.364,0.704v2.465h0.693v0.792h-2.365V162.311z"/>
				<path fill="#1E5035" d="M70.022,162.631l-0.241,0.483h-0.616v-7.25h-0.748v-0.813h1.694v3.895
					c0.374-0.374,0.824-0.672,1.518-0.672c1.243,0,2.244,1.002,2.244,2.454c0,1.364-0.989,2.464-2.343,2.464
					C70.924,163.191,70.429,162.971,70.022,162.631z M72.894,160.727c0-1.002-0.627-1.629-1.452-1.629
					c-0.539,0-0.979,0.253-1.331,0.605v2.211c0.341,0.253,0.77,0.451,1.309,0.451C72.223,162.366,72.894,161.75,72.894,160.727z"/>
				<path fill="#1E5035" d="M78.833,158.966c0,0.341-0.275,0.639-0.605,0.639c-0.318,0-0.539-0.198-0.627-0.407
					c-0.352,0.109-0.759,0.506-0.99,0.957v2.156h0.869v0.792h-2.541v-0.792h0.737v-3.136h-0.737v-0.813h1.639v1.078
					c0.374-0.649,0.925-1.167,1.475-1.167C78.569,158.273,78.833,158.592,78.833,158.966z"/>
				<path fill="#1E5035" d="M79.603,162.311h0.771v-3.136h-0.771v-0.813h1.717v3.949h0.759v0.792h-2.476V162.311z M80.054,156.668
					c0-0.374,0.319-0.683,0.693-0.683c0.362,0,0.682,0.309,0.682,0.683c0,0.385-0.33,0.692-0.693,0.692
					C80.361,157.36,80.054,157.052,80.054,156.668z"/>
				<path fill="#1E5035" d="M83.089,160.715c0-1.275,1.023-2.442,2.377-2.442c1.177,0,2.035,0.771,2.035,1.497
					c0,0.418-0.286,0.704-0.671,0.704c-0.309,0-0.595-0.242-0.595-0.595c0-0.154,0.077-0.308,0.198-0.396
					c-0.11-0.221-0.506-0.43-0.968-0.43c-0.639,0-1.42,0.539-1.42,1.684c0,0.979,0.716,1.639,1.694,1.639
					c0.551,0,1.046-0.165,1.629-0.506l-0.088,0.869c-0.484,0.309-1.046,0.451-1.629,0.451
					C84.179,163.191,83.089,162.179,83.089,160.715z"/>
				<path fill="#1E5035" d="M88.645,160.738c0-1.331,0.968-2.465,2.475-2.465c1.508,0,2.476,1.122,2.476,2.465
					c0,1.32-0.979,2.453-2.476,2.453C89.602,163.191,88.645,162.069,88.645,160.738z M92.616,160.738
					c0-0.968-0.616-1.661-1.497-1.661c-0.891,0-1.507,0.693-1.507,1.661s0.616,1.65,1.507,1.65
					C92,162.388,92.616,161.706,92.616,160.738z"/>
				<path fill="#1E5035" d="M97.356,160.715c0-1.275,1.023-2.442,2.377-2.442c1.177,0,2.035,0.771,2.035,1.497
					c0,0.418-0.286,0.704-0.671,0.704c-0.309,0-0.595-0.242-0.595-0.595c0-0.154,0.077-0.308,0.198-0.396
					c-0.11-0.221-0.506-0.43-0.968-0.43c-0.639,0-1.42,0.539-1.42,1.684c0,0.979,0.716,1.639,1.694,1.639
					c0.551,0,1.046-0.165,1.629-0.506l-0.088,0.869c-0.484,0.309-1.046,0.451-1.629,0.451
					C98.445,163.191,97.356,162.179,97.356,160.715z"/>
				<path fill="#1E5035" d="M102.911,160.738c0-1.331,0.968-2.465,2.475-2.465c1.508,0,2.476,1.122,2.476,2.465
					c0,1.32-0.979,2.453-2.476,2.453C103.868,163.191,102.911,162.069,102.911,160.738z M106.883,160.738
					c0-0.968-0.616-1.661-1.497-1.661c-0.891,0-1.507,0.693-1.507,1.661s0.616,1.65,1.507,1.65
					C106.267,162.388,106.883,161.706,106.883,160.738z"/>
				<path fill="#1E5035" d="M110.556,159.186c0.451-0.483,1.046-0.913,1.728-0.913c0.594,0,1.001,0.231,1.243,0.605
					c0.154,0.264,0.242,0.594,0.242,0.99v2.442h0.737v0.792h-2.388v-0.792h0.704v-2.233c0-0.231-0.033-0.418-0.11-0.562
					c-0.132-0.253-0.362-0.374-0.704-0.374c-0.517,0-1.012,0.309-1.419,0.716v2.453h0.704v0.792h-2.376v-0.792h0.737v-3.136h-0.737
					v-0.813h1.639V159.186z"/>
				<path fill="#1E5035" d="M7.102,177.668h0.736v-5.292H7.102v-0.813H8.74v0.615c0.396-0.406,0.836-0.704,1.519-0.704
					c1.243,0,2.211,0.99,2.211,2.432c0,1.364-0.957,2.486-2.299,2.486c-0.539,0-1.013-0.198-1.387-0.506v1.782h0.848v0.792h-2.53
					V177.668z M11.491,173.916c0-0.99-0.605-1.617-1.408-1.617c-0.539,0-0.946,0.253-1.299,0.605v2.211
					c0.33,0.265,0.748,0.451,1.276,0.451C10.864,175.566,11.491,174.918,11.491,173.916z"/>
				<path fill="#1E5035" d="M14.537,174.235c0.132,0.902,0.792,1.342,1.716,1.342c0.605,0,1.123-0.187,1.684-0.506l-0.077,0.869
					c-0.495,0.309-1.1,0.451-1.749,0.451c-1.529,0-2.563-0.99-2.563-2.442c0-1.331,0.913-2.476,2.354-2.476
					c1.463,0,2.233,1.046,2.233,2.256c0,0.176-0.022,0.363-0.044,0.506H14.537z M14.537,173.531h2.651
					c-0.044-0.759-0.506-1.276-1.31-1.276C15.241,172.255,14.658,172.673,14.537,173.531z"/>
				<path fill="#1E5035" d="M19.191,173.96c0-1.353,0.957-2.486,2.31-2.486c0.595,0,1.09,0.221,1.408,0.518v-2.927h-0.813v-0.813
					h1.76v7.261h0.737v0.792H22.92v-0.605c-0.374,0.396-0.848,0.693-1.508,0.693C20.158,176.391,19.191,175.401,19.191,173.96z
					 M22.908,174.962v-2.201c-0.341-0.264-0.748-0.462-1.298-0.462c-0.814,0-1.441,0.649-1.452,1.65c0,0.99,0.627,1.617,1.431,1.617
					C22.128,175.566,22.557,175.313,22.908,174.962z"/>
				<path fill="#1E5035" d="M25.527,175.038c0-0.869,0.77-1.43,1.859-1.43c0.495,0,1.045,0.11,1.298,0.187v-0.539
					c0-0.274-0.077-0.495-0.209-0.66c-0.198-0.241-0.528-0.362-0.99-0.362c-0.297,0-0.473,0.065-0.616,0.143
					c0.033,0.077,0.056,0.176,0.056,0.265c0,0.308-0.231,0.539-0.551,0.539c-0.33,0-0.561-0.231-0.561-0.562
					c0-0.562,0.616-1.145,1.826-1.145c0.737,0,1.276,0.221,1.595,0.595c0.242,0.286,0.363,0.66,0.363,1.089v2.354h0.737v0.792
					h-1.628v-0.572c-0.386,0.363-0.99,0.66-1.629,0.66C26.208,176.391,25.527,175.896,25.527,175.038z M28.684,175.115v-0.77
					c-0.319-0.088-0.726-0.165-1.155-0.165c-0.671,0-1.045,0.318-1.045,0.781c0,0.429,0.319,0.715,0.869,0.715
					C27.859,175.676,28.32,175.434,28.684,175.115z"/>
				<path fill="#1E5035" d="M31.114,175.511h0.771v-6.447h-0.771v-0.813h1.716v7.261h0.76v0.792h-2.476V175.511z"/>
				<path fill="#1E5035" d="M40.41,175.72h-3.169l-0.198-0.44l3.608-4.808l0.693,0.55l-2.926,3.906h1.991v-1.431l0.913-0.362v1.793
					h1.166v0.792h-1.166v1.903H40.41V175.72z"/>
				<path fill="#1E5035" d="M47.02,174.235c0.132,0.902,0.792,1.342,1.716,1.342c0.605,0,1.123-0.187,1.684-0.506l-0.077,0.869
					c-0.495,0.309-1.1,0.451-1.749,0.451c-1.529,0-2.563-0.99-2.563-2.442c0-1.331,0.913-2.476,2.354-2.476
					c1.463,0,2.233,1.046,2.233,2.256c0,0.176-0.022,0.363-0.044,0.506H47.02z M47.02,173.531h2.651
					c-0.044-0.759-0.506-1.276-1.31-1.276C47.724,172.255,47.141,172.673,47.02,173.531z"/>
				<path fill="#1E5035" d="M53.278,172.386c0.451-0.483,1.046-0.913,1.728-0.913c0.594,0,1.001,0.231,1.243,0.605
					c0.154,0.264,0.242,0.594,0.242,0.99v2.442h0.737v0.792h-2.388v-0.792h0.704v-2.233c0-0.231-0.033-0.418-0.11-0.562
					c-0.132-0.253-0.362-0.374-0.704-0.374c-0.517,0-1.012,0.309-1.419,0.716v2.453h0.704v0.792H51.64v-0.792h0.737v-3.136H51.64
					v-0.813h1.639V172.386z"/>
				<path fill="#1E5035" d="M61.023,175.511h1.32v-3.884l-1.145,0.286l-0.22-0.803l1.881-0.495h0.44v4.896h1.298v0.792h-3.575
					V175.511z"/>
				<path fill="#1E5035" d="M69.889,175.412h0.946v-5.489h-1.617v1.155h-0.946v-2.014H74.4v2.014h-0.946v-1.155h-1.617v5.489h0.946
					v0.892h-2.894V175.412z"/>
				<path fill="#1E5035" d="M76.401,174.235c0.132,0.902,0.792,1.342,1.716,1.342c0.605,0,1.123-0.187,1.684-0.506l-0.077,0.869
					c-0.495,0.309-1.1,0.451-1.749,0.451c-1.529,0-2.563-0.99-2.563-2.442c0-1.331,0.913-2.476,2.354-2.476
					c1.463,0,2.233,1.046,2.233,2.256c0,0.176-0.022,0.363-0.044,0.506H76.401z M76.401,173.531h2.651
					c-0.044-0.759-0.506-1.276-1.31-1.276C77.105,172.255,76.522,172.673,76.401,173.531z"/>
				<path fill="#1E5035" d="M84.915,172.167c0,0.341-0.275,0.639-0.605,0.639c-0.318,0-0.539-0.198-0.627-0.407
					c-0.352,0.109-0.759,0.506-0.99,0.957v2.156h0.869v0.792h-2.541v-0.792h0.737v-3.136h-0.737v-0.813h1.639v1.078
					c0.374-0.649,0.925-1.167,1.475-1.167C84.651,171.473,84.915,171.793,84.915,172.167z"/>
				<path fill="#1E5035" d="M85.718,175.038c0-0.869,0.77-1.43,1.859-1.43c0.495,0,1.045,0.11,1.298,0.187v-0.539
					c0-0.274-0.077-0.495-0.209-0.66c-0.198-0.241-0.528-0.362-0.99-0.362c-0.297,0-0.473,0.065-0.616,0.143
					c0.033,0.077,0.056,0.176,0.056,0.265c0,0.308-0.231,0.539-0.551,0.539c-0.33,0-0.561-0.231-0.561-0.562
					c0-0.562,0.616-1.145,1.826-1.145c0.737,0,1.276,0.221,1.595,0.595c0.242,0.286,0.363,0.66,0.363,1.089v2.354h0.737v0.792
					h-1.628v-0.572c-0.386,0.363-0.99,0.66-1.629,0.66C86.4,176.391,85.718,175.896,85.718,175.038z M88.875,175.115v-0.77
					c-0.319-0.088-0.726-0.165-1.155-0.165c-0.671,0-1.045,0.318-1.045,0.781c0,0.429,0.319,0.715,0.869,0.715
					C88.05,175.676,88.512,175.434,88.875,175.115z"/>
				<path fill="#1E5035" d="M91.735,172.376h-0.692v-0.813h2.299v0.792h-0.715l0.77,2.706l1.222-2.981H95.2l1.232,2.981l0.77-2.706
					H96.41v-0.792h2.288v0.813h-0.692l-1.243,4.115h-0.595l-1.298-3.081l-1.287,3.081h-0.594L91.735,172.376z"/>
				<path fill="#1E5035" d="M99.435,175.038c0-0.869,0.77-1.43,1.859-1.43c0.495,0,1.045,0.11,1.298,0.187v-0.539
					c0-0.274-0.077-0.495-0.209-0.66c-0.198-0.241-0.528-0.362-0.99-0.362c-0.297,0-0.473,0.065-0.616,0.143
					c0.033,0.077,0.056,0.176,0.056,0.265c0,0.308-0.231,0.539-0.551,0.539c-0.33,0-0.561-0.231-0.561-0.562
					c0-0.562,0.616-1.145,1.826-1.145c0.737,0,1.276,0.221,1.595,0.595c0.242,0.286,0.363,0.66,0.363,1.089v2.354h0.737v0.792
					h-1.628v-0.572c-0.386,0.363-0.99,0.66-1.629,0.66C100.116,176.391,99.435,175.896,99.435,175.038z M102.592,175.115v-0.77
					c-0.319-0.088-0.726-0.165-1.155-0.165c-0.671,0-1.045,0.318-1.045,0.781c0,0.429,0.319,0.715,0.869,0.715
					C101.767,175.676,102.229,175.434,102.592,175.115z"/>
				<path fill="#1E5035" d="M108.994,172.167c0,0.341-0.275,0.639-0.605,0.639c-0.318,0-0.539-0.198-0.627-0.407
					c-0.352,0.109-0.759,0.506-0.99,0.957v2.156h0.869v0.792H105.1v-0.792h0.737v-3.136H105.1v-0.813h1.639v1.078
					c0.374-0.649,0.925-1.167,1.475-1.167C108.73,171.473,108.994,171.793,108.994,172.167z"/>
				<path fill="#1E5035" d="M110.753,174.235c0.132,0.902,0.792,1.342,1.716,1.342c0.605,0,1.123-0.187,1.684-0.506l-0.077,0.869
					c-0.495,0.309-1.1,0.451-1.749,0.451c-1.529,0-2.563-0.99-2.563-2.442c0-1.331,0.913-2.476,2.354-2.476
					c1.463,0,2.233,1.046,2.233,2.256c0,0.176-0.022,0.363-0.044,0.506H110.753z M110.753,173.531h2.651
					c-0.044-0.759-0.506-1.276-1.31-1.276C111.457,172.255,110.874,172.673,110.753,173.531z"/>
			</g>
		</g>
	</g>
	<g>
		<g>
			<g>
				<g>
					<path fill="#1E5035" d="M160.737,217.048l0.56-2.797c3.635,0.874,6.082,1.049,8.005,1.049c3.496,0,5.069-1.817,5.069-3.74
						c0-2.901-3.392-3.601-5.943-4.3c-3.88-1.014-7.341-3.146-7.341-7.166c0-4.51,3.67-6.293,8.215-6.293
						c2.622,0,5.069,0.35,8.04,1.224l-0.769,2.797c-3.601-0.874-5.349-1.049-7.271-1.049c-3.496,0-4.72,1.573-4.72,3.426
						c0,2.691,3.461,3.636,6.118,4.265c3.846,0.874,7.166,2.727,7.166,6.817c0,4.719-3.67,6.991-8.564,6.991
						C166.679,218.271,163.709,217.922,160.737,217.048z"/>
					<path fill="#1E5035" d="M182.76,217.922h-2.797l12.935-23.771h2.796L182.76,217.922z"/>
					<path fill="#1E5035" d="M210.657,206.98c-1.363,1.853-3.355,3.076-5.628,3.076c-4.51,0-7.236-2.972-7.236-8.216
						c0-5.033,3.286-8.04,7.761-8.04c6.362,0,8.319,5.278,8.319,10.837c0,10.487-4.544,13.634-9.928,13.634
						c-2.272,0-3.811-0.35-5.418-0.874l0.384-2.447c1.888,0.489,3.251,0.699,4.755,0.699c4.964,0,6.991-4.929,7.062-8.635
						L210.657,206.98z M205.728,196.423c-2.482,0-4.614,1.888-4.614,5.418c0,2.412,0.873,5.489,4.754,5.489
						c1.888,0,3.461-1.224,4.579-2.797C210.657,200.443,209.923,196.423,205.728,196.423z"/>
					<path fill="#1E5035" d="M229.184,206.98c-1.363,1.853-3.355,3.076-5.628,3.076c-4.51,0-7.236-2.972-7.236-8.216
						c0-5.033,3.286-8.04,7.761-8.04c6.362,0,8.319,5.278,8.319,10.837c0,10.487-4.544,13.634-9.928,13.634
						c-2.272,0-3.811-0.35-5.418-0.874l0.384-2.447c1.888,0.489,3.251,0.699,4.755,0.699c4.964,0,6.991-4.929,7.062-8.635
						L229.184,206.98z M224.256,196.423c-2.482,0-4.614,1.888-4.614,5.418c0,2.412,0.873,5.489,4.754,5.489
						c1.888,0,3.461-1.224,4.579-2.797C229.184,200.443,228.45,196.423,224.256,196.423z"/>
					<path fill="#1E5035" d="M235.372,222.466l0.699-4.545c-0.42,0-0.839,0-1.224,0v-4.545h3.146v4.545l-1.573,4.545H235.372z"/>
					<path fill="#1E5035" d="M253.305,206.98c-1.363,1.853-3.355,3.076-5.628,3.076c-4.51,0-7.236-2.972-7.236-8.216
						c0-5.033,3.286-8.04,7.761-8.04c6.362,0,8.319,5.278,8.319,10.837c0,10.487-4.544,13.634-9.928,13.634
						c-2.272,0-3.811-0.35-5.418-0.874l0.384-2.447c1.888,0.489,3.251,0.699,4.755,0.699c4.964,0,6.991-4.929,7.062-8.635
						L253.305,206.98z M248.377,196.423c-2.482,0-4.614,1.888-4.614,5.418c0,2.412,0.873,5.489,4.754,5.489
						c1.888,0,3.461-1.224,4.579-2.797C253.305,200.443,252.571,196.423,248.377,196.423z"/>
				</g>
			</g>
		</g>
		<g>
			<g>
				<path fill="#1E5035" d="M155.14,162.212h0.902l0.253-5.456h-0.946v-0.892h1.859l2.311,4.544l2.311-4.544h1.837v0.892h-0.936
					l0.242,5.456h0.913v0.892h-2.794v-0.892h0.891l-0.165-4.499l-2.222,4.29h-0.188l-2.222-4.29l-0.165,4.499h0.891v0.892h-2.772
					V162.212z"/>
				<path fill="#1E5035" d="M164.997,160.738c0-1.331,0.968-2.465,2.475-2.465c1.508,0,2.476,1.122,2.476,2.465
					c0,1.32-0.979,2.453-2.476,2.453C165.954,163.191,164.997,162.069,164.997,160.738z M168.968,160.738
					c0-0.968-0.616-1.661-1.497-1.661c-0.891,0-1.507,0.693-1.507,1.661s0.616,1.65,1.507,1.65
					C168.352,162.388,168.968,161.706,168.968,160.738z"/>
				<path fill="#1E5035" d="M171.795,162.564c-0.143-0.264-0.22-0.583-0.22-0.968v-2.421h-0.737v-0.813h1.672v3.025
					c0,0.241,0.044,0.429,0.121,0.571c0.132,0.253,0.353,0.363,0.693,0.363c0.517,0,1.001-0.319,1.419-0.715v-2.432h-0.759v-0.813
					h1.705v3.949h0.737v0.792h-1.65v-0.825c-0.451,0.484-1.045,0.913-1.728,0.913C172.444,163.191,172.037,162.949,171.795,162.564z
					"/>
				<path fill="#1E5035" d="M180.715,159.913c-0.33,0-0.572-0.209-0.572-0.528c0-0.077,0.011-0.165,0.044-0.242
					c-0.187-0.088-0.462-0.143-0.759-0.143c-0.605,0-0.936,0.297-0.936,0.605c0,0.352,0.363,0.494,1.122,0.692
					c1.023,0.265,1.771,0.539,1.771,1.431c0,0.946-0.902,1.474-1.937,1.474c-0.715,0-1.44-0.241-1.76-0.561
					c-0.176-0.176-0.265-0.374-0.265-0.616c0-0.308,0.221-0.572,0.539-0.572c0.309,0,0.562,0.209,0.562,0.55
					c0,0.089-0.011,0.165-0.044,0.242c0.176,0.11,0.528,0.221,0.968,0.221c0.572,0,1.034-0.221,1.034-0.639
					c0-0.341-0.341-0.506-1.045-0.682c-1.21-0.309-1.859-0.605-1.859-1.452c0-0.727,0.649-1.42,1.859-1.42
					c0.616,0,1.232,0.198,1.54,0.507c0.165,0.165,0.242,0.362,0.242,0.571C181.221,159.693,181.012,159.913,180.715,159.913z"/>
				<path fill="#1E5035" d="M183.487,161.035c0.132,0.902,0.792,1.342,1.716,1.342c0.605,0,1.123-0.187,1.684-0.506l-0.077,0.869
					c-0.495,0.309-1.1,0.451-1.749,0.451c-1.529,0-2.563-0.99-2.563-2.442c0-1.331,0.913-2.476,2.354-2.476
					c1.463,0,2.233,1.046,2.233,2.256c0,0.176-0.022,0.363-0.044,0.506H183.487z M183.487,160.331h2.651
					c-0.044-0.759-0.506-1.276-1.31-1.276C184.191,159.054,183.608,159.472,183.487,160.331z"/>
				<path fill="#1E5035" d="M190.704,164.467h0.737v-5.292h-0.737v-0.813h1.639v0.615c0.396-0.406,0.836-0.704,1.519-0.704
					c1.243,0,2.211,0.99,2.211,2.432c0,1.364-0.957,2.486-2.299,2.486c-0.539,0-1.013-0.198-1.387-0.506v1.782h0.848v0.792h-2.53
					V164.467z M195.093,160.715c0-0.99-0.605-1.617-1.408-1.617c-0.539,0-0.946,0.253-1.299,0.605v2.211
					c0.33,0.265,0.748,0.451,1.276,0.451C194.466,162.366,195.093,161.717,195.093,160.715z"/>
				<path fill="#1E5035" d="M197.182,161.838c0-0.869,0.77-1.43,1.859-1.43c0.495,0,1.045,0.11,1.298,0.187v-0.539
					c0-0.274-0.077-0.495-0.209-0.66c-0.198-0.241-0.528-0.362-0.99-0.362c-0.297,0-0.473,0.065-0.616,0.143
					c0.033,0.077,0.056,0.176,0.056,0.265c0,0.308-0.231,0.539-0.551,0.539c-0.33,0-0.561-0.231-0.561-0.562
					c0-0.562,0.616-1.145,1.826-1.145c0.737,0,1.276,0.221,1.595,0.595c0.242,0.286,0.363,0.66,0.363,1.089v2.354h0.737v0.792
					h-1.628v-0.572c-0.386,0.363-0.99,0.66-1.629,0.66C197.864,163.191,197.182,162.696,197.182,161.838z M200.34,161.915v-0.77
					c-0.319-0.088-0.726-0.165-1.155-0.165c-0.671,0-1.045,0.318-1.045,0.781c0,0.429,0.319,0.715,0.869,0.715
					C199.514,162.476,199.976,162.234,200.34,161.915z"/>
				<path fill="#1E5035" d="M202.881,160.759c0-1.353,0.957-2.486,2.31-2.486c0.595,0,1.09,0.221,1.408,0.518v-2.927h-0.813v-0.813
					h1.76v7.261h0.737v0.792h-1.672v-0.605c-0.374,0.396-0.848,0.693-1.508,0.693C203.848,163.191,202.881,162.201,202.881,160.759z
					 M206.598,161.761v-2.201c-0.341-0.264-0.748-0.462-1.298-0.462c-0.814,0-1.441,0.649-1.452,1.65
					c0,0.99,0.627,1.617,1.431,1.617C205.818,162.366,206.247,162.113,206.598,161.761z"/>
				<path fill="#1E5035" d="M211.922,162.212h0.881v-5.456h-0.881v-0.892h2.772c1.629,0,2.729,0.76,2.729,2.135
					c0,0.968-0.616,1.672-1.474,1.98l1.342,2.232h0.848v0.892h-1.529l-1.64-2.871c-0.143,0.011-0.286,0.021-0.429,0.021
					c-0.265,0-0.551-0.011-0.737-0.021v1.979h0.924v0.892h-2.806V162.212z M216.4,158.032c0-0.848-0.693-1.276-1.761-1.276h-0.836
					v2.618c0.187,0.011,0.439,0.021,0.803,0.021C215.64,159.395,216.4,158.901,216.4,158.032z"/>
				<path fill="#1E5035" d="M219.05,159.528c0-2.267,1.716-3.796,3.773-3.796c1.65,0,2.75,0.892,2.75,1.705
					c0,0.462-0.297,0.771-0.682,0.771c-0.407,0-0.704-0.275-0.704-0.671c0-0.165,0.055-0.309,0.143-0.396
					c-0.253-0.242-0.781-0.495-1.54-0.495c-1.584,0-2.717,1.222-2.717,2.871c0,1.706,1.221,2.828,2.606,2.828
					c0.793,0,1.42-0.221,1.98-0.595v-1.419h-1.925v-0.847h2.904v3.619h-0.957v-0.583c-0.572,0.429-1.254,0.715-2.135,0.715
					C220.745,163.235,219.05,161.838,219.05,159.528z"/>
				<path fill="#1E5035" d="M227.222,162.212h0.881v-5.456h-0.881v-0.892h5.314v1.893h-0.946v-1.013h-2.486v2.245h2.288v0.857
					h-2.288v2.377h2.486v-1.013h0.957v1.893h-5.325V162.212z"/>
				<path fill="#1E5035" d="M233.855,162.212h0.881v-5.456h-0.881v-0.892h2.894c1.75,0,2.53,0.848,2.53,1.859
					c0,0.858-0.539,1.419-1.287,1.661c0.936,0.265,1.496,0.804,1.496,1.717c0,1.166-0.945,2.002-2.607,2.002h-3.025V162.212z
					 M236.694,159.021c1.034,0,1.573-0.473,1.573-1.188c0-0.693-0.55-1.101-1.54-1.101h-1.001v2.288H236.694z M236.903,162.234
					c0.979,0,1.573-0.462,1.573-1.199c0-0.792-0.638-1.21-1.716-1.21h-1.034v2.409H236.903z"/>
				<path fill="#1E5035" d="M243.37,162.212h0.881v-5.456h-0.881v-0.892h2.86v0.892h-0.979v5.468h2.288v-1.067h0.957v1.947h-5.127
					V162.212z"/>
				<path fill="#1E5035" d="M250.597,161.035c0.132,0.902,0.792,1.342,1.716,1.342c0.605,0,1.123-0.187,1.684-0.506l-0.077,0.869
					c-0.495,0.309-1.1,0.451-1.749,0.451c-1.529,0-2.563-0.99-2.563-2.442c0-1.331,0.913-2.476,2.354-2.476
					c1.463,0,2.233,1.046,2.233,2.256c0,0.176-0.022,0.363-0.044,0.506H250.597z M250.597,160.331h2.651
					c-0.044-0.759-0.506-1.276-1.31-1.276C251.301,159.054,250.718,159.472,250.597,160.331z"/>
				<path fill="#1E5035" d="M255.251,160.759c0-1.353,0.957-2.486,2.31-2.486c0.595,0,1.09,0.221,1.408,0.518v-2.927h-0.813v-0.813
					h1.76v7.261h0.737v0.792h-1.672v-0.605c-0.374,0.396-0.848,0.693-1.508,0.693C256.218,163.191,255.251,162.201,255.251,160.759z
					 M258.968,161.761v-2.201c-0.341-0.264-0.748-0.462-1.298-0.462c-0.814,0-1.441,0.649-1.452,1.65
					c0,0.99,0.627,1.617,1.431,1.617C258.188,162.366,258.617,162.113,258.968,161.761z"/>
				<path fill="#1E5035" d="M160.839,175.412h0.946v-5.489h-1.617v1.155h-0.946v-2.014h6.128v2.014h-0.946v-1.155h-1.617v5.489
					h0.946v0.892h-2.894V175.412z"/>
				<path fill="#1E5035" d="M167.35,174.235c0.132,0.902,0.792,1.342,1.716,1.342c0.605,0,1.123-0.187,1.684-0.506l-0.077,0.869
					c-0.495,0.309-1.1,0.451-1.749,0.451c-1.529,0-2.563-0.99-2.563-2.442c0-1.331,0.913-2.476,2.354-2.476
					c1.463,0,2.233,1.046,2.233,2.256c0,0.176-0.022,0.363-0.044,0.506H167.35z M167.35,173.531h2.651
					c-0.044-0.759-0.506-1.276-1.31-1.276C168.054,172.255,167.471,172.673,167.35,173.531z"/>
				<path fill="#1E5035" d="M175.865,172.167c0,0.341-0.275,0.639-0.605,0.639c-0.318,0-0.539-0.198-0.627-0.407
					c-0.352,0.109-0.759,0.506-0.99,0.957v2.156h0.869v0.792h-2.541v-0.792h0.737v-3.136h-0.737v-0.813h1.639v1.078
					c0.374-0.649,0.925-1.167,1.475-1.167C175.6,171.473,175.865,171.793,175.865,172.167z"/>
				<path fill="#1E5035" d="M176.668,175.038c0-0.869,0.77-1.43,1.859-1.43c0.495,0,1.045,0.11,1.298,0.187v-0.539
					c0-0.274-0.077-0.495-0.209-0.66c-0.198-0.241-0.528-0.362-0.99-0.362c-0.297,0-0.473,0.065-0.616,0.143
					c0.033,0.077,0.056,0.176,0.056,0.265c0,0.308-0.231,0.539-0.551,0.539c-0.33,0-0.561-0.231-0.561-0.562
					c0-0.562,0.616-1.145,1.826-1.145c0.737,0,1.276,0.221,1.595,0.595c0.242,0.286,0.363,0.66,0.363,1.089v2.354h0.737v0.792
					h-1.628v-0.572c-0.386,0.363-0.99,0.66-1.629,0.66C177.349,176.391,176.668,175.896,176.668,175.038z M179.825,175.115v-0.77
					c-0.319-0.088-0.726-0.165-1.155-0.165c-0.671,0-1.045,0.318-1.045,0.781c0,0.429,0.319,0.715,0.869,0.715
					C179,175.676,179.462,175.434,179.825,175.115z"/>
				<path fill="#1E5035" d="M182.684,172.376h-0.692v-0.813h2.299v0.792h-0.715l0.77,2.706l1.222-2.981h0.583l1.232,2.981
					l0.77-2.706h-0.792v-0.792h2.288v0.813h-0.692l-1.243,4.115h-0.595l-1.298-3.081l-1.287,3.081h-0.594L182.684,172.376z"/>
				<path fill="#1E5035" d="M190.384,175.038c0-0.869,0.77-1.43,1.859-1.43c0.495,0,1.045,0.11,1.298,0.187v-0.539
					c0-0.274-0.077-0.495-0.209-0.66c-0.198-0.241-0.528-0.362-0.99-0.362c-0.297,0-0.473,0.065-0.616,0.143
					c0.033,0.077,0.056,0.176,0.056,0.265c0,0.308-0.231,0.539-0.551,0.539c-0.33,0-0.561-0.231-0.561-0.562
					c0-0.562,0.616-1.145,1.826-1.145c0.737,0,1.276,0.221,1.595,0.595c0.242,0.286,0.363,0.66,0.363,1.089v2.354h0.737v0.792
					h-1.628v-0.572c-0.386,0.363-0.99,0.66-1.629,0.66C191.066,176.391,190.384,175.896,190.384,175.038z M193.542,175.115v-0.77
					c-0.319-0.088-0.726-0.165-1.155-0.165c-0.671,0-1.045,0.318-1.045,0.781c0,0.429,0.319,0.715,0.869,0.715
					C192.716,175.676,193.178,175.434,193.542,175.115z"/>
				<path fill="#1E5035" d="M199.944,172.167c0,0.341-0.275,0.639-0.605,0.639c-0.318,0-0.539-0.198-0.627-0.407
					c-0.352,0.109-0.759,0.506-0.99,0.957v2.156h0.869v0.792h-2.541v-0.792h0.737v-3.136h-0.737v-0.813h1.639v1.078
					c0.374-0.649,0.925-1.167,1.475-1.167C199.679,171.473,199.944,171.793,199.944,172.167z"/>
				<path fill="#1E5035" d="M201.703,174.235c0.132,0.902,0.792,1.342,1.716,1.342c0.605,0,1.123-0.187,1.684-0.506l-0.077,0.869
					c-0.495,0.309-1.1,0.451-1.749,0.451c-1.529,0-2.563-0.99-2.563-2.442c0-1.331,0.913-2.476,2.354-2.476
					c1.463,0,2.233,1.046,2.233,2.256c0,0.176-0.022,0.363-0.044,0.506H201.703z M201.703,173.531h2.651
					c-0.044-0.759-0.506-1.276-1.31-1.276C202.407,172.255,201.824,172.673,201.703,173.531z"/>
				<path fill="#1E5035" d="M212.187,175.72h-3.169l-0.198-0.44l3.608-4.808l0.693,0.55l-2.926,3.906h1.991v-1.431l0.913-0.362
					v1.793h1.166v0.792H213.1v1.903h-0.913V175.72z"/>
				<path fill="#1E5035" d="M217.962,172.728c0-2.267,1.716-3.796,3.773-3.796c1.65,0,2.75,0.892,2.75,1.705
					c0,0.462-0.297,0.771-0.682,0.771c-0.407,0-0.704-0.275-0.704-0.671c0-0.165,0.055-0.309,0.143-0.396
					c-0.253-0.242-0.781-0.495-1.54-0.495c-1.584,0-2.717,1.222-2.717,2.871c0,1.706,1.221,2.828,2.606,2.828
					c0.793,0,1.42-0.221,1.98-0.595v-1.419h-1.925v-0.847h2.904v3.619h-0.957v-0.583c-0.572,0.429-1.254,0.715-2.135,0.715
					C219.656,176.435,217.962,175.038,217.962,172.728z"/>
				<path fill="#1E5035" d="M226.112,175.038c0-0.869,0.77-1.43,1.859-1.43c0.495,0,1.045,0.11,1.298,0.187v-0.539
					c0-0.274-0.077-0.495-0.209-0.66c-0.198-0.241-0.528-0.362-0.99-0.362c-0.297,0-0.473,0.065-0.616,0.143
					c0.033,0.077,0.056,0.176,0.056,0.265c0,0.308-0.231,0.539-0.551,0.539c-0.33,0-0.561-0.231-0.561-0.562
					c0-0.562,0.616-1.145,1.826-1.145c0.737,0,1.276,0.221,1.595,0.595c0.242,0.286,0.363,0.66,0.363,1.089v2.354h0.737v0.792
					h-1.628v-0.572c-0.386,0.363-0.99,0.66-1.629,0.66C226.794,176.391,226.112,175.896,226.112,175.038z M229.269,175.115v-0.77
					c-0.319-0.088-0.726-0.165-1.155-0.165c-0.671,0-1.045,0.318-1.045,0.781c0,0.429,0.319,0.715,0.869,0.715
					C228.444,175.676,228.906,175.434,229.269,175.115z"/>
				<path fill="#1E5035" d="M231.777,175.511h0.737v-3.136h-0.737v-0.813h1.639v0.824c0.396-0.462,0.979-0.913,1.673-0.913
					c0.55,0,0.924,0.209,1.155,0.539c0.065,0.1,0.109,0.209,0.143,0.33c0.484-0.483,1.067-0.869,1.672-0.869
					c0.683,0,1.101,0.254,1.32,0.683c0.121,0.253,0.188,0.561,0.188,0.902v2.453h0.737v0.792h-2.388v-0.792h0.704v-2.244
					c0-0.221-0.033-0.396-0.088-0.539c-0.11-0.265-0.33-0.386-0.671-0.386c-0.484,0-0.936,0.286-1.354,0.693v2.476h0.693v0.792
					h-2.344v-0.792h0.704v-2.244c0-0.221-0.021-0.396-0.077-0.539c-0.121-0.265-0.33-0.386-0.671-0.386
					c-0.506,0-0.957,0.309-1.364,0.704v2.465h0.693v0.792h-2.365V175.511z"/>
				<path fill="#1E5035" d="M241.171,175.511h0.771v-3.136h-0.771v-0.813h1.717v3.949h0.759v0.792h-2.476V175.511z M241.622,169.868
					c0-0.374,0.319-0.683,0.693-0.683c0.362,0,0.682,0.309,0.682,0.683c0,0.385-0.33,0.692-0.693,0.692
					C241.929,170.56,241.622,170.253,241.622,169.868z"/>
				<path fill="#1E5035" d="M246.274,172.386c0.451-0.483,1.046-0.913,1.728-0.913c0.594,0,1.001,0.231,1.243,0.605
					c0.154,0.264,0.242,0.594,0.242,0.99v2.442h0.737v0.792h-2.388v-0.792h0.704v-2.233c0-0.231-0.033-0.418-0.11-0.562
					c-0.132-0.253-0.362-0.374-0.704-0.374c-0.517,0-1.012,0.309-1.419,0.716v2.453h0.704v0.792h-2.376v-0.792h0.737v-3.136h-0.737
					v-0.813h1.639V172.386z"/>
				<path fill="#1E5035" d="M255.757,176.402c0,0.583-0.154,1.057-0.44,1.397c-0.396,0.484-1.045,0.704-1.793,0.704
					c-0.781,0-1.408-0.242-1.717-0.55c-0.176-0.176-0.253-0.363-0.253-0.572c0-0.33,0.242-0.616,0.595-0.616
					c0.318,0,0.55,0.231,0.55,0.539c0,0.088-0.022,0.188-0.066,0.265c0.165,0.065,0.44,0.153,0.836,0.153
					c0.451,0,0.848-0.132,1.101-0.451c0.154-0.197,0.242-0.483,0.242-0.869v-0.825c-0.374,0.386-0.804,0.672-1.485,0.672
					c-1.221,0-2.211-0.957-2.211-2.354c0-1.31,0.957-2.421,2.288-2.421c0.627,0,1.1,0.242,1.452,0.562v-0.473h1.64v0.813h-0.737
					V176.402z M252.083,173.883c0,0.945,0.605,1.551,1.441,1.551c0.517,0,0.946-0.242,1.287-0.594v-2.08
					c-0.319-0.264-0.727-0.462-1.266-0.462C252.688,172.299,252.083,172.937,252.083,173.883z"/>
			</g>
		</g>
	</g>
	<line fill="none" stroke="#1E5035" stroke-miterlimit="10" x1="136.959" y1="158.522" x2="136.959" y2="223.522"/>
</g>
<g>
</g>
<g>
</g>
<g>
</g>
<g>
</g>
<g>
</g>
<g>
</g>
<g>
</g>
<g>
</g>
<g>
</g>
<g>
</g>
<g>
</g>
<g>
</g>
<g>
</g>
<g>
</g>
<g>
</g>
</svg>
