<?xml version="1.0" encoding="utf-8"?>
<!-- Generator: Adobe Illustrator 17.0.0, SVG Export Plug-In . SVG Version: 6.00 Build 0)  -->
<!DOCTYPE svg PUBLIC "-//W3C//DTD SVG 1.1//EN" "http://www.w3.org/Graphics/SVG/1.1/DTD/svg11.dtd">
<svg version="1.1" id="Layer_1" xmlns="http://www.w3.org/2000/svg" xmlns:xlink="http://www.w3.org/1999/xlink" x="0px" y="0px"
	 width="266.333px" height="265px" viewBox="0 0 266.333 265" enable-background="new 0 0 266.333 265" xml:space="preserve">
<g>
	<g>
		<path fill="#1E5035" d="M165.542,94.086c0-5.59,3.055-9.101,8.84-9.101c5.721,0,8.84,3.51,8.84,9.101s-3.119,9.035-8.84,9.035
			C168.596,103.121,165.542,99.676,165.542,94.086z M179.452,94.086c0-3.9-1.69-6.045-5.07-6.045c-3.381,0-5.135,2.145-5.135,6.045
			c0,3.9,1.754,5.98,5.135,5.98C177.761,100.066,179.452,97.986,179.452,94.086z M177.241,129.512h-3.899l24.051-44.202h3.899
			L177.241,129.512z M191.412,120.802c0-5.59,3.056-9.1,8.841-9.1c5.72,0,8.84,3.51,8.84,9.1s-3.12,9.036-8.84,9.036
			C194.467,129.838,191.412,126.392,191.412,120.802z M205.323,120.802c0-3.9-1.69-6.045-5.07-6.045
			c-3.381,0-5.136,2.145-5.136,6.045c0,3.9,1.755,5.98,5.136,5.98C203.632,126.782,205.323,124.702,205.323,120.802z"/>
		<path fill="#1E5035" d="M163.81,148.069c0-4.125,1.237-7.491,6.297-7.491c5.037,0,6.297,3.366,6.297,7.491
			c0,4.191-1.26,7.709-6.297,7.709C165.048,155.778,163.81,152.26,163.81,148.069z M165.981,148.069
			c0,3.148,0.586,5.972,4.126,5.972c3.518,0,4.126-2.823,4.126-5.972s-0.608-5.754-4.126-5.754
			C166.567,142.315,165.981,144.921,165.981,148.069z"/>
		<path fill="#1E5035" d="M188.407,142.641h-7.166v4.776h6.188v1.846h-6.188v6.297h-2.062v-14.765h9.229V142.641z"/>
		<path fill="#1E5035" d="M200.454,142.641h-7.166v4.776h6.188v1.846h-6.188v6.297h-2.062v-14.765h9.229V142.641z"/>
	</g>
	<g>
		<g>
			<path fill="#1E5035" d="M20.807,208.103h1.439v-8.923h-1.439v-1.458h8.689v3.095H27.95v-1.655h-4.066v3.67h3.742v1.403h-3.742
				v3.886h4.066v-1.655h1.564v3.095h-8.707V208.103z"/>
			<path fill="#1E5035" d="M34.225,203.156c0.738-0.792,1.71-1.493,2.825-1.493c0.971,0,1.637,0.378,2.032,0.989
				c0.252,0.432,0.396,0.972,0.396,1.619v3.994h1.205v1.295H36.78v-1.295h1.151v-3.652c0-0.378-0.054-0.684-0.18-0.918
				c-0.216-0.413-0.594-0.611-1.151-0.611c-0.846,0-1.655,0.504-2.32,1.17v4.012h1.151v1.295h-3.886v-1.295h1.205v-5.128h-1.205
				v-1.331h2.68V203.156z"/>
			<path fill="#1E5035" d="M46.33,211.791h1.206v-8.653H46.33v-1.331h2.681v1.008c0.647-0.666,1.367-1.151,2.482-1.151
				c2.033,0,3.616,1.619,3.616,3.976c0,2.23-1.565,4.065-3.76,4.065c-0.882,0-1.655-0.323-2.267-0.827v2.914h1.385v1.296H46.33
				V211.791z M53.508,205.656c0-1.619-0.99-2.645-2.303-2.645c-0.882,0-1.548,0.414-2.123,0.99v3.615
				c0.539,0.433,1.223,0.738,2.087,0.738C52.483,208.355,53.508,207.294,53.508,205.656z"/>
			<path fill="#1E5035" d="M63.22,202.796c0,0.558-0.45,1.044-0.989,1.044c-0.521,0-0.882-0.324-1.025-0.666
				c-0.576,0.18-1.241,0.828-1.619,1.565v3.526h1.421v1.295h-4.155v-1.295h1.205v-5.128h-1.205v-1.331h2.68v1.764
				c0.612-1.062,1.512-1.907,2.411-1.907C62.789,201.663,63.22,202.184,63.22,202.796z"/>
			<path fill="#1E5035" d="M64.28,205.692c0-2.177,1.583-4.029,4.048-4.029s4.048,1.835,4.048,4.029
				c0,2.159-1.602,4.012-4.048,4.012C65.845,209.704,64.28,207.869,64.28,205.692z M70.774,205.692c0-1.583-1.007-2.716-2.446-2.716
				c-1.457,0-2.465,1.133-2.465,2.716s1.008,2.699,2.465,2.699C69.767,208.391,70.774,207.275,70.774,205.692z"/>
			<path fill="#1E5035" d="M74.155,205.728c0-2.213,1.565-4.065,3.777-4.065c0.972,0,1.781,0.359,2.303,0.846v-4.786h-1.331v-1.331
				h2.879v11.874h1.205v1.295h-2.734v-0.989c-0.611,0.647-1.386,1.133-2.465,1.133C75.738,209.704,74.155,208.085,74.155,205.728z
				 M80.235,207.366v-3.599c-0.558-0.432-1.223-0.756-2.122-0.756c-1.332,0-2.357,1.062-2.375,2.699
				c0,1.619,1.025,2.645,2.339,2.645C78.959,208.355,79.66,207.941,80.235,207.366z"/>
			<path fill="#1E5035" d="M85.738,208.678c-0.233-0.432-0.359-0.953-0.359-1.583v-3.958h-1.206v-1.331h2.734v4.947
				c0,0.396,0.072,0.702,0.198,0.936c0.216,0.414,0.576,0.594,1.134,0.594c0.845,0,1.637-0.521,2.32-1.169v-3.977h-1.241v-1.331
				h2.788v6.459h1.206v1.295h-2.699v-1.35c-0.737,0.792-1.709,1.493-2.824,1.493C86.799,209.704,86.133,209.308,85.738,208.678z"/>
			<path fill="#1E5035" d="M94.874,205.656c0-2.086,1.674-3.993,3.887-3.993c1.925,0,3.328,1.259,3.328,2.446
				c0,0.684-0.468,1.151-1.098,1.151c-0.504,0-0.972-0.396-0.972-0.972c0-0.252,0.126-0.503,0.324-0.647
				c-0.181-0.359-0.828-0.701-1.583-0.701c-1.044,0-2.321,0.881-2.321,2.752c0,1.602,1.17,2.681,2.771,2.681
				c0.899,0,1.709-0.27,2.663-0.827l-0.145,1.421c-0.791,0.504-1.709,0.737-2.662,0.737
				C96.655,209.704,94.874,208.049,94.874,205.656z"/>
			<path fill="#1E5035" d="M105.163,208.733c-0.144-0.307-0.233-0.702-0.233-1.134v-4.462h-1.458v-1.331h1.458v-1.781l1.547-0.629
				v2.41h2.356v1.331h-2.356v4.192c0,0.252,0.036,0.432,0.107,0.594c0.145,0.252,0.433,0.377,0.882,0.377
				c0.468,0,1.025-0.216,1.476-0.432l-0.162,1.386c-0.45,0.233-1.025,0.449-1.745,0.449
				C106.171,209.704,105.505,209.398,105.163,208.733z"/>
			<path fill="#1E5035" d="M110.468,205.692c0-2.177,1.583-4.029,4.048-4.029s4.048,1.835,4.048,4.029
				c0,2.159-1.602,4.012-4.048,4.012C112.034,209.704,110.468,207.869,110.468,205.692z M116.963,205.692
				c0-1.583-1.007-2.716-2.446-2.716c-1.457,0-2.465,1.133-2.465,2.716s1.008,2.699,2.465,2.699
				C115.956,208.391,116.963,207.275,116.963,205.692z"/>
			<path fill="#1E5035" d="M125.775,204.343c-0.539,0-0.936-0.342-0.936-0.864c0-0.126,0.019-0.27,0.072-0.396
				c-0.306-0.144-0.756-0.233-1.241-0.233c-0.989,0-1.529,0.485-1.529,0.989c0,0.575,0.594,0.81,1.835,1.133
				c1.673,0.433,2.896,0.882,2.896,2.339c0,1.548-1.476,2.411-3.166,2.411c-1.17,0-2.356-0.396-2.879-0.918
				c-0.287-0.287-0.432-0.611-0.432-1.007c0-0.504,0.36-0.936,0.882-0.936c0.504,0,0.917,0.342,0.917,0.899
				c0,0.144-0.018,0.27-0.071,0.396c0.287,0.18,0.863,0.36,1.583,0.36c0.936,0,1.69-0.36,1.69-1.044
				c0-0.558-0.558-0.827-1.709-1.115c-1.979-0.504-3.04-0.989-3.04-2.375c0-1.188,1.062-2.32,3.04-2.32
				c1.008,0,2.016,0.323,2.519,0.827c0.271,0.271,0.396,0.594,0.396,0.936C126.603,203.983,126.261,204.343,125.775,204.343z"/>
			<path fill="#1E5035" d="M138.546,204.343c-0.539,0-0.936-0.342-0.936-0.864c0-0.126,0.019-0.27,0.072-0.396
				c-0.306-0.144-0.756-0.233-1.241-0.233c-0.989,0-1.529,0.485-1.529,0.989c0,0.575,0.594,0.81,1.835,1.133
				c1.673,0.433,2.896,0.882,2.896,2.339c0,1.548-1.476,2.411-3.166,2.411c-1.17,0-2.357-0.396-2.879-0.918
				c-0.287-0.287-0.432-0.611-0.432-1.007c0-0.504,0.36-0.936,0.882-0.936c0.504,0,0.917,0.342,0.917,0.899
				c0,0.144-0.018,0.27-0.071,0.396c0.287,0.18,0.863,0.36,1.583,0.36c0.936,0,1.69-0.36,1.69-1.044
				c0-0.558-0.558-0.827-1.709-1.115c-1.979-0.504-3.04-0.989-3.04-2.375c0-1.188,1.062-2.32,3.04-2.32
				c1.008,0,2.016,0.323,2.519,0.827c0.271,0.271,0.396,0.594,0.396,0.936C139.374,203.983,139.032,204.343,138.546,204.343z"/>
			<path fill="#1E5035" d="M143.006,206.178c0.216,1.475,1.295,2.194,2.807,2.194c0.989,0,1.835-0.306,2.752-0.827l-0.126,1.421
				c-0.81,0.504-1.799,0.737-2.86,0.737c-2.5,0-4.191-1.619-4.191-3.993c0-2.177,1.493-4.048,3.85-4.048
				c2.393,0,3.652,1.709,3.652,3.688c0,0.288-0.036,0.594-0.072,0.828H143.006z M143.006,205.027h4.336
				c-0.072-1.241-0.828-2.087-2.142-2.087C144.157,202.94,143.204,203.624,143.006,205.027z"/>
			<path fill="#1E5035" d="M150.434,208.265h1.259v-10.543h-1.259v-1.331h2.806v11.874h1.242v1.295h-4.048V208.265z"/>
			<path fill="#1E5035" d="M157.682,206.178c0.216,1.475,1.295,2.194,2.807,2.194c0.989,0,1.835-0.306,2.752-0.827l-0.126,1.421
				c-0.81,0.504-1.799,0.737-2.86,0.737c-2.5,0-4.191-1.619-4.191-3.993c0-2.177,1.493-4.048,3.85-4.048
				c2.393,0,3.652,1.709,3.652,3.688c0,0.288-0.036,0.594-0.072,0.828H157.682z M157.682,205.027h4.336
				c-0.072-1.241-0.828-2.087-2.142-2.087C158.834,202.94,157.881,203.624,157.682,205.027z"/>
			<path fill="#1E5035" d="M165.271,205.656c0-2.086,1.674-3.993,3.887-3.993c1.925,0,3.328,1.259,3.328,2.446
				c0,0.684-0.468,1.151-1.098,1.151c-0.504,0-0.972-0.396-0.972-0.972c0-0.252,0.126-0.503,0.324-0.647
				c-0.181-0.359-0.828-0.701-1.583-0.701c-1.044,0-2.321,0.881-2.321,2.752c0,1.602,1.17,2.681,2.771,2.681
				c0.899,0,1.709-0.27,2.663-0.827l-0.145,1.421c-0.791,0.504-1.709,0.737-2.662,0.737
				C167.052,209.704,165.271,208.049,165.271,205.656z"/>
			<path fill="#1E5035" d="M174.193,205.656c0-2.086,1.674-3.993,3.887-3.993c1.925,0,3.328,1.259,3.328,2.446
				c0,0.684-0.468,1.151-1.098,1.151c-0.504,0-0.972-0.396-0.972-0.972c0-0.252,0.126-0.503,0.324-0.647
				c-0.181-0.359-0.828-0.701-1.583-0.701c-1.044,0-2.321,0.881-2.321,2.752c0,1.602,1.17,2.681,2.771,2.681
				c0.899,0,1.709-0.27,2.663-0.827l-0.145,1.421c-0.791,0.504-1.709,0.737-2.662,0.737
				C175.974,209.704,174.193,208.049,174.193,205.656z"/>
			<path fill="#1E5035" d="M183.24,208.265h1.26v-5.128h-1.26v-1.331h2.807v6.459h1.241v1.295h-4.048V208.265z M183.977,199.036
				c0-0.611,0.522-1.115,1.134-1.115c0.594,0,1.115,0.504,1.115,1.115c0,0.63-0.54,1.134-1.134,1.134
				C184.481,200.17,183.977,199.666,183.977,199.036z"/>
			<path fill="#1E5035" d="M188.96,205.692c0-2.177,1.583-4.029,4.048-4.029s4.048,1.835,4.048,4.029
				c0,2.159-1.602,4.012-4.048,4.012C190.525,209.704,188.96,207.869,188.96,205.692z M195.454,205.692
				c0-1.583-1.007-2.716-2.446-2.716c-1.457,0-2.465,1.133-2.465,2.716s1.008,2.699,2.465,2.699
				C194.447,208.391,195.454,207.275,195.454,205.692z"/>
			<path fill="#1E5035" d="M201.46,203.156c0.738-0.792,1.71-1.493,2.825-1.493c0.971,0,1.637,0.378,2.032,0.989
				c0.252,0.432,0.396,0.972,0.396,1.619v3.994h1.205v1.295h-3.904v-1.295h1.151v-3.652c0-0.378-0.054-0.684-0.18-0.918
				c-0.216-0.413-0.594-0.611-1.151-0.611c-0.846,0-1.655,0.504-2.32,1.17v4.012h1.151v1.295h-3.886v-1.295h1.205v-5.128h-1.205
				v-1.331h2.68V203.156z"/>
			<path fill="#1E5035" d="M209.248,207.491c0-1.421,1.26-2.338,3.041-2.338c0.81,0,1.709,0.18,2.122,0.306v-0.882
				c0-0.449-0.126-0.81-0.342-1.079c-0.323-0.396-0.863-0.594-1.619-0.594c-0.485,0-0.773,0.107-1.007,0.233
				c0.054,0.126,0.09,0.288,0.09,0.433c0,0.503-0.378,0.881-0.899,0.881c-0.54,0-0.918-0.378-0.918-0.917
				c0-0.918,1.008-1.871,2.986-1.871c1.206,0,2.087,0.359,2.608,0.972c0.396,0.468,0.594,1.079,0.594,1.78v3.851h1.206v1.295h-2.663
				v-0.936c-0.63,0.594-1.619,1.079-2.662,1.079C210.363,209.704,209.248,208.894,209.248,207.491z M214.411,207.617v-1.259
				c-0.521-0.144-1.187-0.27-1.889-0.27c-1.098,0-1.709,0.521-1.709,1.277c0,0.701,0.521,1.169,1.421,1.169
				C213.062,208.535,213.817,208.139,214.411,207.617z"/>
			<path fill="#1E5035" d="M218.421,205.728c0-2.213,1.565-4.065,3.777-4.065c0.972,0,1.781,0.359,2.303,0.846v-4.786h-1.331v-1.331
				h2.879v11.874h1.205v1.295h-2.734v-0.989c-0.611,0.647-1.386,1.133-2.465,1.133C220.004,209.704,218.421,208.085,218.421,205.728
				z M224.501,207.366v-3.599c-0.558-0.432-1.223-0.756-2.122-0.756c-1.332,0-2.357,1.062-2.375,2.699
				c0,1.619,1.025,2.645,2.339,2.645C223.224,208.355,223.925,207.941,224.501,207.366z"/>
			<path fill="#1E5035" d="M228.763,205.692c0-2.177,1.583-4.029,4.048-4.029s4.048,1.835,4.048,4.029
				c0,2.159-1.602,4.012-4.048,4.012C230.329,209.704,228.763,207.869,228.763,205.692z M235.257,205.692
				c0-1.583-1.007-2.716-2.446-2.716c-1.457,0-2.465,1.133-2.465,2.716s1.008,2.699,2.465,2.699
				C234.251,208.391,235.257,207.275,235.257,205.692z"/>
			<path fill="#1E5035" d="M244.07,204.343c-0.539,0-0.936-0.342-0.936-0.864c0-0.126,0.019-0.27,0.072-0.396
				c-0.306-0.144-0.756-0.233-1.241-0.233c-0.989,0-1.529,0.485-1.529,0.989c0,0.575,0.594,0.81,1.835,1.133
				c1.673,0.433,2.896,0.882,2.896,2.339c0,1.548-1.476,2.411-3.166,2.411c-1.17,0-2.356-0.396-2.879-0.918
				c-0.287-0.287-0.432-0.611-0.432-1.007c0-0.504,0.36-0.936,0.882-0.936c0.504,0,0.917,0.342,0.917,0.899
				c0,0.144-0.018,0.27-0.071,0.396c0.287,0.18,0.863,0.36,1.583,0.36c0.936,0,1.69-0.36,1.69-1.044
				c0-0.558-0.558-0.827-1.709-1.115c-1.979-0.504-3.04-0.989-3.04-2.375c0-1.188,1.062-2.32,3.04-2.32
				c1.008,0,2.016,0.323,2.519,0.827c0.271,0.271,0.396,0.594,0.396,0.936C244.898,203.983,244.556,204.343,244.07,204.343z"/>
		</g>
	</g>
	<rect x="6.4" y="2.666" fill="#16A314" width="253.534" height="30.082"/>
	<g>
		<path fill="#FFFFFF" d="M98.963,10.103c1.714,0,3.217,0.212,5.185,0.805l-0.655,2.434c-2.265-0.529-3.175-0.635-4.297-0.635
			c-2.666,0-3.576,1.842-3.576,4.698c0,3.069,0.91,4.932,3.576,4.932c1.122,0,2.032-0.106,4.297-0.635l0.655,2.434
			c-1.968,0.571-3.471,0.783-5.185,0.783c-5.059,0-6.413-3.387-6.413-7.514C92.549,13.341,93.904,10.103,98.963,10.103z"/>
		<path fill="#FFFFFF" d="M116.081,21.448h-4.55l-0.974,3.259h-3.09l4.656-14.497h3.555l4.593,14.497h-3.217L116.081,21.448z
			 M113.796,13.849l-1.672,5.164h3.364l-1.65-5.164H113.796z"/>
		<path fill="#FFFFFF" d="M132.122,24.707l-3.027-5.122h-2.073v5.122H124.1V10.315h6.138c3.026,0,4.762,1.82,4.762,4.635
			c0,1.947-0.91,3.577-2.857,4.148l3.365,5.608H132.122z M127.021,16.982h2.856c1.207,0,2.138-0.529,2.138-2.032
			c0-1.46-0.867-2.031-2.095-2.031h-2.899V16.982z"/>
		<path fill="#FFFFFF" d="M147.631,21.448h-4.55l-0.974,3.259h-3.09l4.656-14.497h3.555l4.593,14.497h-3.217L147.631,21.448z
			 M145.345,13.849l-1.672,5.164h3.364l-1.65-5.164H145.345z"/>
		<path fill="#FFFFFF" d="M160.009,12.919v11.788h-2.92V12.919h-3.788v-2.604h10.476v2.604H160.009z"/>
		<path fill="#FFFFFF" d="M168.113,24.707V10.315h2.921v14.392H168.113z"/>
	</g>
	<g>
	</g>
	<g>
		<g>
			<g>
				<path fill="#1E5035" d="M52.155,97.324l-2.886-7.696c7.803-3.421,14.002-5.345,22.98-5.345c15.713,0,22.981,9.94,22.981,21.698
					c0,14.965-11.01,28.325-32.388,43.29v0.214h33.456v8.551h-47.03v-9.299c30.57-20.202,35.808-32.708,35.808-40.618
					c0-13.36-10.154-14.964-14.965-14.964C64.875,93.155,59.744,93.903,52.155,97.324z"/>
				<path fill="#1E5035" d="M103.885,153.76l2.886-7.375c7.589,3.634,13.254,4.703,19.561,4.703c10.368,0,16.567-6.2,16.567-16.033
					c0-7.055-3.42-15.179-14.43-15.179c-5.558,0-10.261,2.352-13.896,7.055l-7.055-0.642l1.711-40.938h39.548v8.551h-31.211
					l-1.496,24.37l0.213,0.107c3.635-3.848,9.192-6.841,15.499-6.841c12.934,0,21.271,8.337,21.271,22.98
					c0,16.033-10.154,24.585-26.188,24.585C118.423,159.105,111.688,157.502,103.885,153.76z"/>
			</g>
		</g>
	</g>
</g>
<g>
</g>
<g>
</g>
<g>
</g>
<g>
</g>
<g>
</g>
<g>
</g>
<g>
</g>
<g>
</g>
<g>
</g>
<g>
</g>
<g>
</g>
<g>
</g>
<g>
</g>
<g>
</g>
<g>
</g>
</svg>
