<?xml version="1.0" encoding="utf-8"?>
<!-- Generator: Adobe Illustrator 17.0.0, SVG Export Plug-In . SVG Version: 6.00 Build 0)  -->
<!DOCTYPE svg PUBLIC "-//W3C//DTD SVG 1.1//EN" "http://www.w3.org/Graphics/SVG/1.1/DTD/svg11.dtd">
<svg version="1.1" id="Layer_1" xmlns="http://www.w3.org/2000/svg" xmlns:xlink="http://www.w3.org/1999/xlink" x="0px" y="0px"
	 width="266.333px" height="265px" viewBox="0 0 266.333 265" enable-background="new 0 0 266.333 265" xml:space="preserve">
<g>
	<g>
		<path fill="#1E5035" d="M165.542,99.264c0-5.59,3.055-9.101,8.84-9.101c5.721,0,8.84,3.51,8.84,9.101s-3.119,9.035-8.84,9.035
			C168.596,108.299,165.542,104.854,165.542,99.264z M179.452,99.264c0-3.9-1.69-6.045-5.07-6.045c-3.381,0-5.135,2.145-5.135,6.045
			c0,3.9,1.754,5.98,5.135,5.98C177.761,105.244,179.452,103.164,179.452,99.264z M177.241,134.69h-3.899l24.051-44.202h3.899
			L177.241,134.69z M191.412,125.98c0-5.59,3.056-9.1,8.841-9.1c5.72,0,8.84,3.51,8.84,9.1s-3.12,9.036-8.84,9.036
			C194.467,135.016,191.412,131.57,191.412,125.98z M205.323,125.98c0-3.9-1.69-6.045-5.07-6.045c-3.381,0-5.136,2.145-5.136,6.045
			c0,3.9,1.755,5.98,5.136,5.98C203.632,131.96,205.323,129.88,205.323,125.98z"/>
		<path fill="#1E5035" d="M163.81,153.247c0-4.126,1.237-7.491,6.297-7.491c5.037,0,6.297,3.365,6.297,7.491
			c0,4.19-1.26,7.708-6.297,7.708C165.047,160.955,163.81,157.438,163.81,153.247z M165.981,153.247
			c0,3.148,0.586,5.971,4.126,5.971c3.518,0,4.126-2.822,4.126-5.971s-0.608-5.754-4.126-5.754
			C166.567,147.493,165.981,150.099,165.981,153.247z"/>
		<path fill="#1E5035" d="M188.407,147.818h-7.166v4.777h6.188v1.846h-6.188v6.297h-2.062v-14.766h9.229V147.818z"/>
		<path fill="#1E5035" d="M200.454,147.818h-7.166v4.777h6.188v1.846h-6.188v6.297h-2.062v-14.766h9.229V147.818z"/>
	</g>
	<g>
		<g>
			<path fill="#1E5035" d="M49.99,209.789h1.439v-8.924H49.99v-1.457h8.689v3.095h-1.547v-1.655h-4.065v3.67h3.742v1.403h-3.742
				v3.886h4.065v-1.655h1.565v3.095H49.99V209.789z"/>
			<path fill="#1E5035" d="M63.408,204.842c0.738-0.792,1.709-1.493,2.824-1.493c0.972,0,1.637,0.377,2.033,0.989
				c0.252,0.432,0.396,0.972,0.396,1.619v3.993h1.206v1.296h-3.904v-1.296h1.151v-3.651c0-0.378-0.054-0.684-0.18-0.918
				c-0.216-0.413-0.594-0.611-1.151-0.611c-0.845,0-1.655,0.504-2.321,1.169v4.012h1.151v1.296h-3.886v-1.296h1.206v-5.127h-1.206
				v-1.331h2.681V204.842z"/>
			<path fill="#1E5035" d="M76.951,210.364c-0.234-0.432-0.36-0.953-0.36-1.583v-3.958h-1.205v-1.331h2.734v4.947
				c0,0.396,0.072,0.701,0.198,0.936c0.216,0.414,0.576,0.594,1.133,0.594c0.846,0,1.637-0.521,2.321-1.17v-3.976h-1.241v-1.331
				h2.789v6.458h1.205v1.296h-2.698v-1.35c-0.738,0.792-1.709,1.493-2.825,1.493C78.013,211.39,77.347,210.994,76.951,210.364z"/>
			<path fill="#1E5035" d="M88.732,204.842c0.738-0.792,1.709-1.493,2.824-1.493c0.972,0,1.637,0.377,2.033,0.989
				c0.252,0.432,0.396,0.972,0.396,1.619v3.993h1.206v1.296h-3.904v-1.296h1.151v-3.651c0-0.378-0.054-0.684-0.18-0.918
				c-0.216-0.413-0.594-0.611-1.151-0.611c-0.845,0-1.655,0.504-2.321,1.169v4.012h1.151v1.296h-3.886v-1.296h1.206v-5.127h-1.206
				v-1.331h2.681V204.842z"/>
			<path fill="#1E5035" d="M100.836,213.477h1.206v-8.653h-1.206v-1.331h2.681v1.008c0.648-0.666,1.367-1.151,2.483-1.151
				c2.033,0,3.616,1.619,3.616,3.976c0,2.23-1.565,4.065-3.76,4.065c-0.881,0-1.655-0.323-2.267-0.827v2.914h1.385v1.295h-4.138
				V213.477z M108.015,207.342c0-1.619-0.989-2.645-2.303-2.645c-0.881,0-1.547,0.414-2.123,0.989v3.616
				c0.54,0.432,1.223,0.737,2.086,0.737C106.989,210.04,108.015,208.979,108.015,207.342z"/>
			<path fill="#1E5035" d="M117.727,204.481c0,0.558-0.45,1.044-0.989,1.044c-0.522,0-0.882-0.324-1.026-0.666
				c-0.576,0.18-1.241,0.827-1.619,1.565v3.525h1.421v1.296h-4.156v-1.296h1.206v-5.127h-1.206v-1.331h2.681v1.763
				c0.612-1.062,1.511-1.906,2.411-1.906C117.295,203.349,117.727,203.87,117.727,204.481z"/>
			<path fill="#1E5035" d="M118.787,207.378c0-2.177,1.583-4.029,4.048-4.029c2.464,0,4.047,1.835,4.047,4.029
				c0,2.159-1.601,4.012-4.047,4.012C120.352,211.39,118.787,209.555,118.787,207.378z M125.281,207.378
				c0-1.583-1.007-2.717-2.446-2.717c-1.458,0-2.465,1.134-2.465,2.717s1.007,2.698,2.465,2.698
				C124.274,210.076,125.281,208.961,125.281,207.378z"/>
			<path fill="#1E5035" d="M128.662,207.414c0-2.213,1.565-4.065,3.777-4.065c0.972,0,1.781,0.359,2.303,0.845v-4.785h-1.331v-1.331
				h2.879v11.873h1.205v1.296h-2.734v-0.989c-0.611,0.647-1.386,1.133-2.465,1.133C130.245,211.39,128.662,209.771,128.662,207.414z
				 M134.742,209.051v-3.598c-0.558-0.432-1.223-0.756-2.122-0.756c-1.332,0-2.357,1.062-2.375,2.698
				c0,1.619,1.025,2.645,2.339,2.645C133.465,210.04,134.167,209.627,134.742,209.051z"/>
			<path fill="#1E5035" d="M140.245,210.364c-0.234-0.432-0.359-0.953-0.359-1.583v-3.958h-1.206v-1.331h2.734v4.947
				c0,0.396,0.072,0.701,0.198,0.936c0.216,0.414,0.576,0.594,1.134,0.594c0.845,0,1.637-0.521,2.32-1.17v-3.976h-1.241v-1.331
				h2.788v6.458h1.206v1.296h-2.699v-1.35c-0.737,0.792-1.709,1.493-2.824,1.493C141.306,211.39,140.64,210.994,140.245,210.364z"/>
			<path fill="#1E5035" d="M149.381,207.342c0-2.087,1.674-3.993,3.887-3.993c1.925,0,3.328,1.259,3.328,2.446
				c0,0.684-0.468,1.151-1.098,1.151c-0.504,0-0.972-0.396-0.972-0.972c0-0.252,0.126-0.504,0.324-0.647
				c-0.181-0.359-0.828-0.701-1.583-0.701c-1.044,0-2.321,0.881-2.321,2.752c0,1.602,1.17,2.681,2.771,2.681
				c0.899,0,1.709-0.27,2.663-0.827l-0.145,1.421c-0.791,0.504-1.709,0.737-2.662,0.737
				C151.163,211.39,149.381,209.734,149.381,207.342z"/>
			<path fill="#1E5035" d="M159.669,210.418c-0.144-0.306-0.233-0.701-0.233-1.133v-4.462h-1.458v-1.331h1.458v-1.781l1.547-0.63
				v2.411h2.356v1.331h-2.356v4.191c0,0.252,0.036,0.433,0.107,0.594c0.145,0.252,0.433,0.378,0.882,0.378
				c0.468,0,1.025-0.216,1.476-0.432l-0.162,1.386c-0.45,0.233-1.025,0.449-1.745,0.449
				C160.677,211.39,160.011,211.084,159.669,210.418z"/>
			<path fill="#1E5035" d="M164.975,207.378c0-2.177,1.583-4.029,4.048-4.029s4.048,1.835,4.048,4.029
				c0,2.159-1.602,4.012-4.048,4.012C166.541,211.39,164.975,209.555,164.975,207.378z M171.469,207.378
				c0-1.583-1.007-2.717-2.446-2.717c-1.457,0-2.465,1.134-2.465,2.717s1.008,2.698,2.465,2.698
				C170.462,210.076,171.469,208.961,171.469,207.378z"/>
			<path fill="#1E5035" d="M179.239,207.414c0-2.213,1.565-4.065,3.777-4.065c0.972,0,1.781,0.359,2.303,0.845v-4.785h-1.331v-1.331
				h2.879v11.873h1.205v1.296h-2.734v-0.989c-0.611,0.647-1.386,1.133-2.465,1.133C180.822,211.39,179.239,209.771,179.239,207.414z
				 M185.319,209.051v-3.598c-0.558-0.432-1.223-0.756-2.122-0.756c-1.332,0-2.357,1.062-2.375,2.698
				c0,1.619,1.025,2.645,2.339,2.645C184.042,210.04,184.744,209.627,185.319,209.051z"/>
			<path fill="#1E5035" d="M191.164,207.863c0.216,1.476,1.295,2.195,2.807,2.195c0.989,0,1.835-0.306,2.752-0.827l-0.126,1.421
				c-0.81,0.504-1.799,0.737-2.86,0.737c-2.5,0-4.191-1.619-4.191-3.994c0-2.177,1.493-4.047,3.85-4.047
				c2.393,0,3.652,1.709,3.652,3.688c0,0.288-0.036,0.594-0.072,0.827H191.164z M191.164,206.712h4.336
				c-0.072-1.241-0.828-2.086-2.142-2.086C192.315,204.626,191.362,205.31,191.164,206.712z"/>
			<path fill="#1E5035" d="M202.98,209.95h1.259v-10.542h-1.259v-1.331h2.806v11.873h1.242v1.296h-4.048V209.95z"/>
			<path fill="#1E5035" d="M208.519,209.177c0-1.421,1.26-2.339,3.041-2.339c0.81,0,1.709,0.181,2.122,0.307v-0.882
				c0-0.45-0.126-0.81-0.342-1.079c-0.323-0.396-0.863-0.594-1.619-0.594c-0.485,0-0.773,0.107-1.007,0.233
				c0.054,0.126,0.09,0.288,0.09,0.432c0,0.504-0.378,0.882-0.899,0.882c-0.54,0-0.918-0.378-0.918-0.918
				c0-0.917,1.008-1.87,2.986-1.87c1.206,0,2.087,0.359,2.608,0.971c0.396,0.468,0.594,1.08,0.594,1.781v3.85h1.206v1.296h-2.663
				v-0.936c-0.63,0.594-1.619,1.079-2.662,1.079C209.634,211.39,208.519,210.58,208.519,209.177z M213.682,209.303v-1.259
				c-0.521-0.145-1.187-0.271-1.889-0.271c-1.098,0-1.709,0.522-1.709,1.277c0,0.702,0.521,1.17,1.421,1.17
				C212.333,210.221,213.088,209.824,213.682,209.303z"/>
			<path fill="#1E5035" d="M68.148,223.889v7.483h1.511v1.457h-4.534v-1.457h1.439v-8.923h-1.439v-1.457h2.843l6.404,8.347v-6.89
				h-1.511v-1.457h4.479v1.457h-1.385v10.416l-0.899,0.019L68.148,223.889z"/>
			<path fill="#1E5035" d="M79.982,231.948c-0.234-0.433-0.36-0.954-0.36-1.584v-3.957h-1.205v-1.332h2.734v4.947
				c0,0.396,0.072,0.702,0.198,0.936c0.216,0.414,0.576,0.594,1.133,0.594c0.846,0,1.637-0.521,2.321-1.169v-3.976h-1.241v-1.332
				h2.789v6.459h1.205v1.295h-2.698v-1.349c-0.738,0.791-1.709,1.493-2.825,1.493C81.044,232.974,80.378,232.577,79.982,231.948z"/>
			<path fill="#1E5035" d="M90.72,229.447c0.216,1.476,1.295,2.194,2.807,2.194c0.989,0,1.835-0.306,2.752-0.827l-0.126,1.421
				c-0.81,0.504-1.799,0.738-2.86,0.738c-2.501,0-4.192-1.619-4.192-3.994c0-2.177,1.493-4.048,3.85-4.048
				c2.393,0,3.652,1.709,3.652,3.688c0,0.287-0.036,0.593-0.072,0.827H90.72z M90.72,228.296h4.335
				c-0.072-1.241-0.827-2.087-2.141-2.087C91.872,226.209,90.918,226.893,90.72,228.296z"/>
			<path fill="#1E5035" d="M98.544,226.407h-0.972v-1.332h3.76v1.277h-1.187l2.104,4.66l2.105-4.66h-1.241v-1.277h3.76v1.332h-0.971
				l-3.185,6.638h-0.989L98.544,226.407z"/>
			<path fill="#1E5035" d="M107.789,230.761c0-1.422,1.259-2.339,3.04-2.339c0.81,0,1.709,0.18,2.123,0.306v-0.882
				c0-0.449-0.126-0.81-0.342-1.079c-0.324-0.396-0.864-0.594-1.619-0.594c-0.486,0-0.774,0.108-1.007,0.234
				c0.054,0.126,0.09,0.287,0.09,0.432c0,0.504-0.378,0.881-0.899,0.881c-0.54,0-0.917-0.377-0.917-0.917
				c0-0.918,1.007-1.871,2.986-1.871c1.205,0,2.086,0.359,2.608,0.972c0.396,0.468,0.594,1.079,0.594,1.781v3.85h1.205v1.295h-2.663
				v-0.936c-0.629,0.594-1.619,1.08-2.662,1.08C108.904,232.974,107.789,232.164,107.789,230.761z M112.952,230.887v-1.26
				c-0.522-0.144-1.188-0.27-1.889-0.27c-1.097,0-1.709,0.521-1.709,1.277c0,0.701,0.521,1.169,1.421,1.169
				C111.603,231.804,112.358,231.408,112.952,230.887z"/>
			<path fill="#1E5035" d="M121.71,226.946c0-3.615,2.789-6.17,6.099-6.17c2.59,0,4.497,1.475,4.497,2.896
				c0,0.755-0.503,1.276-1.151,1.276c-0.666,0-1.151-0.432-1.151-1.079c0-0.306,0.144-0.558,0.306-0.684
				c-0.324-0.396-1.205-0.917-2.537-0.917c-2.537,0-4.39,2.087-4.39,4.659c0,2.465,1.799,4.623,4.479,4.623
				c1.403,0,2.555-0.575,3.544-1.547l1.025,1.134c-1.169,1.223-2.842,1.906-4.569,1.906
				C124.211,233.045,121.71,230.383,121.71,226.946z"/>
			<path fill="#1E5035" d="M134.067,228.962c0-2.177,1.583-4.03,4.048-4.03s4.048,1.835,4.048,4.03c0,2.158-1.602,4.012-4.048,4.012
				C135.632,232.974,134.067,231.139,134.067,228.962z M140.561,228.962c0-1.584-1.007-2.717-2.446-2.717
				c-1.457,0-2.465,1.133-2.465,2.717c0,1.583,1.008,2.698,2.465,2.698C139.554,231.66,140.561,230.545,140.561,228.962z"/>
			<path fill="#1E5035" d="M143.761,231.534h1.259v-10.542h-1.259v-1.332h2.806v11.874h1.242v1.295h-4.048V231.534z"/>
			<path fill="#1E5035" d="M151.01,229.447c0.216,1.476,1.295,2.194,2.807,2.194c0.989,0,1.835-0.306,2.752-0.827l-0.126,1.421
				c-0.81,0.504-1.799,0.738-2.86,0.738c-2.5,0-4.191-1.619-4.191-3.994c0-2.177,1.493-4.048,3.85-4.048
				c2.393,0,3.652,1.709,3.652,3.688c0,0.287-0.036,0.593-0.072,0.827H151.01z M151.01,228.296h4.336
				c-0.072-1.241-0.828-2.087-2.142-2.087C152.162,226.209,151.208,226.893,151.01,228.296z"/>
			<path fill="#1E5035" d="M158.599,228.926c0-2.087,1.674-3.994,3.887-3.994c1.925,0,3.328,1.26,3.328,2.446
				c0,0.684-0.468,1.151-1.098,1.151c-0.504,0-0.972-0.396-0.972-0.971c0-0.252,0.126-0.504,0.324-0.648
				c-0.181-0.359-0.828-0.701-1.583-0.701c-1.044,0-2.321,0.882-2.321,2.753c0,1.601,1.17,2.68,2.771,2.68
				c0.899,0,1.709-0.27,2.663-0.827l-0.145,1.421c-0.791,0.504-1.709,0.738-2.662,0.738
				C160.38,232.974,158.599,231.318,158.599,228.926z"/>
			<path fill="#1E5035" d="M167.52,228.926c0-2.087,1.674-3.994,3.887-3.994c1.925,0,3.328,1.26,3.328,2.446
				c0,0.684-0.468,1.151-1.098,1.151c-0.504,0-0.972-0.396-0.972-0.971c0-0.252,0.126-0.504,0.324-0.648
				c-0.181-0.359-0.828-0.701-1.583-0.701c-1.044,0-2.321,0.882-2.321,2.753c0,1.601,1.17,2.68,2.771,2.68
				c0.899,0,1.709-0.27,2.663-0.827l-0.145,1.421c-0.791,0.504-1.709,0.738-2.662,0.738
				C169.301,232.974,167.52,231.318,167.52,228.926z"/>
			<path fill="#1E5035" d="M176.568,231.534h1.26v-5.127h-1.26v-1.332h2.807v6.459h1.241v1.295h-4.048V231.534z M177.305,222.305
				c0-0.611,0.522-1.115,1.134-1.115c0.594,0,1.115,0.504,1.115,1.115c0,0.63-0.54,1.134-1.134,1.134
				C177.809,223.438,177.305,222.935,177.305,222.305z"/>
			<path fill="#1E5035" d="M182.288,228.962c0-2.177,1.583-4.03,4.048-4.03s4.048,1.835,4.048,4.03c0,2.158-1.602,4.012-4.048,4.012
				C183.853,232.974,182.288,231.139,182.288,228.962z M188.782,228.962c0-1.584-1.007-2.717-2.446-2.717
				c-1.457,0-2.465,1.133-2.465,2.717c0,1.583,1.008,2.698,2.465,2.698C187.775,231.66,188.782,230.545,188.782,228.962z
				 M185.472,223.366l2.086-2.446c0.252-0.288,0.559-0.468,0.864-0.468c0.432,0,0.791,0.342,0.791,0.827
				c0,0.288-0.197,0.63-0.575,0.882l-2.717,1.709L185.472,223.366z"/>
			<path fill="#1E5035" d="M194.788,226.425c0.738-0.791,1.71-1.493,2.825-1.493c0.971,0,1.637,0.378,2.032,0.989
				c0.252,0.432,0.396,0.972,0.396,1.619v3.994h1.205v1.295h-3.904v-1.295h1.151v-3.652c0-0.378-0.054-0.684-0.18-0.917
				c-0.216-0.414-0.594-0.612-1.151-0.612c-0.846,0-1.655,0.504-2.32,1.17v4.012h1.151v1.295h-3.886v-1.295h1.205v-5.127h-1.205
				v-1.332h2.68V226.425z"/>
		</g>
	</g>
	<rect x="6.4" y="2.666" fill="#16A314" width="253.534" height="30.082"/>
	<g>
		<path fill="#FFFFFF" d="M35.027,18.665c1.566,0.466,2.604,1.63,2.604,3.492c0,2.455-1.588,3.937-4.593,3.937H26.52V11.702h6.095
			c3.006,0,4.593,1.354,4.593,3.683c0,1.545-0.847,2.751-2.18,3.238V18.665z M32.297,14.305H29.44v3.111h2.856
			c1.207,0,1.842-0.444,1.842-1.566C34.139,14.792,33.504,14.305,32.297,14.305z M29.44,20.019v3.492h3.11
			c1.228,0,2.011-0.402,2.011-1.756c0-1.291-0.783-1.736-2.116-1.736H29.44z"/>
		<path fill="#FFFFFF" d="M49.627,22.834h-4.55l-0.974,3.259h-3.09l4.656-14.497h3.555l4.593,14.497h-3.217L49.627,22.834z
			 M47.342,15.236L45.67,20.4h3.364l-1.65-5.164H47.342z"/>
		<path fill="#FFFFFF" d="M57.646,26.093V11.702h2.921l5.756,9.037h0.043v-9.037h2.814v14.392h-2.899l-5.757-8.72h-0.042v8.72
			H57.646z"/>
		<path fill="#FFFFFF" d="M81.622,22.834h-4.55l-0.974,3.259h-3.09l4.656-14.497h3.555l4.593,14.497h-3.217L81.622,22.834z
			 M79.337,15.236L77.665,20.4h3.364l-1.65-5.164H79.337z"/>
		<path fill="#FFFFFF" d="M89.641,26.093V11.702h2.921l5.756,9.037h0.043v-9.037h2.814v14.392h-2.899l-5.757-8.72h-0.042v8.72
			H89.641z"/>
		<path fill="#FFFFFF" d="M113.616,22.834h-4.55l-0.974,3.259h-3.09l4.656-14.497h3.555l4.593,14.497h-3.217L113.616,22.834z
			 M111.331,15.236l-1.672,5.164h3.364l-1.65-5.164H111.331z"/>
		<path fill="#FFFFFF" d="M136.301,26.093l-3.027-5.122H131.2v5.122h-2.921V11.702h6.138c3.026,0,4.762,1.82,4.762,4.635
			c0,1.947-0.91,3.577-2.857,4.148l3.365,5.608H136.301z M131.2,18.369h2.857c1.207,0,2.138-0.529,2.138-2.032
			c0-1.46-0.867-2.032-2.095-2.032h-2.9V18.369z"/>
		<path fill="#FFFFFF" d="M153.568,14.305h-6.814v3.068h5.862v2.582h-5.862v3.556h6.92v2.582h-9.841V11.702h9.735V14.305z"/>
		<path fill="#FFFFFF" d="M161.142,21.014v5.079h-2.921V11.702h6.138c3.026,0,4.762,1.862,4.762,4.656
			c0,2.857-1.735,4.656-4.762,4.656H161.142z M161.142,18.432h2.899c1.228,0,2.095-0.572,2.095-2.074
			c0-1.46-0.867-2.053-2.095-2.053h-2.899V18.432z"/>
		<path fill="#FFFFFF" d="M181.879,21.014v-9.312h2.899v9.312c0,3.767-2.243,5.291-5.65,5.291s-5.672-1.523-5.672-5.291v-9.312
			h2.921v9.312c0,1.545,0.465,2.857,2.772,2.857C181.372,23.871,181.879,22.559,181.879,21.014z"/>
		<path fill="#FFFFFF" d="M198.046,18.665c1.566,0.466,2.604,1.63,2.604,3.492c0,2.455-1.588,3.937-4.593,3.937h-6.519V11.702h6.095
			c3.006,0,4.593,1.354,4.593,3.683c0,1.545-0.847,2.751-2.18,3.238V18.665z M195.316,14.305h-2.856v3.111h2.856
			c1.207,0,1.842-0.444,1.842-1.566C197.158,14.792,196.523,14.305,195.316,14.305z M192.459,20.019v3.492h3.11
			c1.228,0,2.011-0.402,2.011-1.756c0-1.291-0.783-1.736-2.116-1.736H192.459z"/>
		<path fill="#FFFFFF" d="M207.906,11.702v11.81h6.709v2.582h-9.63V11.702H207.906z"/>
		<path fill="#FFFFFF" d="M218.951,26.093V11.702h2.921v14.392H218.951z"/>
		<path fill="#FFFFFF" d="M232.558,11.49c1.714,0,3.217,0.211,5.185,0.804l-0.655,2.434c-2.265-0.529-3.175-0.635-4.297-0.635
			c-2.666,0-3.576,1.841-3.576,4.698c0,3.069,0.91,4.932,3.576,4.932c1.122,0,2.032-0.106,4.297-0.635l0.655,2.434
			c-1.968,0.571-3.471,0.783-5.185,0.783c-5.059,0-6.413-3.386-6.413-7.513C226.145,14.728,227.5,11.49,232.558,11.49z"/>
	</g>
	<g>
		<g>
			<g>
				<path fill="#1E5035" d="M84.197,120.676c10.154,2.031,15.926,9.085,15.926,17.957c0,12.934-8.871,20.309-25.438,20.309
					c-8.552,0-16.354-1.282-23.729-5.023l2.993-7.482c6.306,3.207,13.04,4.489,20.201,4.489c14.003,0,16.033-8.23,16.033-12.826
					c0-7.589-5.451-12.506-17.315-12.506h-9.086v-8.017h8.658c11.437,0,15.927-6.841,15.927-13.361
					c0-4.81-2.565-12.078-14.217-12.078c-6.733,0-12.292,1.496-18.491,4.489l-2.993-7.375c7.482-3.634,15.499-5.13,23.088-5.13
					c13.361,0,22.232,6.841,22.232,19.026c0,8.872-5.879,14.644-13.788,17.316V120.676z"/>
				<path fill="#1E5035" d="M107.602,120.996c0-20.309,5.023-36.876,25.653-36.876c20.522,0,25.652,16.567,25.652,36.876
					c0,20.63-5.13,37.945-25.652,37.945C112.625,158.941,107.602,141.626,107.602,120.996z M117.756,120.996
					c0,15.499,2.886,29.929,15.499,29.929c12.506,0,15.498-14.43,15.498-29.929c0-15.499-2.992-28.859-15.498-28.859
					C120.642,92.137,117.756,105.498,117.756,120.996z"/>
			</g>
		</g>
	</g>
</g>
</svg>
