<?xml version="1.0" encoding="utf-8"?>
<!-- Generator: Adobe Illustrator 17.0.0, SVG Export Plug-In . SVG Version: 6.00 Build 0)  -->
<!DOCTYPE svg PUBLIC "-//W3C//DTD SVG 1.1//EN" "http://www.w3.org/Graphics/SVG/1.1/DTD/svg11.dtd">
<svg version="1.1" id="Layer_1" xmlns="http://www.w3.org/2000/svg" xmlns:xlink="http://www.w3.org/1999/xlink" x="0px" y="0px"
	 width="266.333px" height="265px" viewBox="0 0 266.333 265" enable-background="new 0 0 266.333 265" xml:space="preserve">
<g>
	<g>
		<path fill="#1E5035" d="M169.961,94.086c0-5.59,3.056-9.101,8.841-9.101c5.72,0,8.841,3.51,8.841,9.101s-3.121,9.035-8.841,9.035
			C173.017,103.121,169.961,99.676,169.961,94.086z M183.872,94.086c0-3.9-1.689-6.045-5.069-6.045s-5.136,2.145-5.136,6.045
			c0,3.9,1.756,5.98,5.136,5.98S183.872,97.986,183.872,94.086z M181.663,129.512h-3.9l24.051-44.202h3.9L181.663,129.512z
			 M195.833,120.802c0-5.59,3.055-9.1,8.84-9.1c5.721,0,8.841,3.51,8.841,9.1s-3.12,9.036-8.841,9.036
			C198.887,129.837,195.833,126.392,195.833,120.802z M209.743,120.802c0-3.9-1.689-6.045-5.07-6.045
			c-3.379,0-5.135,2.145-5.135,6.045c0,3.9,1.756,5.98,5.135,5.98C208.053,126.782,209.743,124.702,209.743,120.802z"/>
		<path fill="#1E5035" d="M168.231,148.068c0-4.125,1.237-7.49,6.297-7.49c5.037,0,6.297,3.365,6.297,7.49
			c0,4.191-1.26,7.709-6.297,7.709C169.468,155.777,168.231,152.26,168.231,148.068z M170.403,148.068
			c0,3.148,0.586,5.972,4.125,5.972c3.518,0,4.125-2.823,4.125-5.972s-0.607-5.754-4.125-5.754
			C170.989,142.314,170.403,144.92,170.403,148.068z"/>
		<path fill="#1E5035" d="M192.827,142.641h-7.165v4.776h6.188v1.846h-6.188v6.297h-2.063v-14.765h9.229V142.641z"/>
		<path fill="#1E5035" d="M204.874,142.641h-7.165v4.776h6.188v1.846h-6.188v6.297h-2.063v-14.765h9.229V142.641z"/>
	</g>
	<rect x="6.4" y="2.666" fill="#16A314" width="253.534" height="30.082"/>
	<g>
		<path fill="#FFFFFF" d="M106.865,25.929V11.537h2.92l5.757,9.037h0.042v-9.037h2.815v14.392H115.5l-5.756-8.72h-0.042v8.72
			H106.865z"/>
		<path fill="#FFFFFF" d="M122.692,18.627c0-4.063,1.354-7.302,6.413-7.302c5.058,0,6.391,3.238,6.391,7.302
			c0,4.106-1.333,7.514-6.391,7.514C124.047,26.141,122.692,22.733,122.692,18.627z M125.761,18.627
			c0,2.857,0.508,5.079,3.344,5.079s3.323-2.222,3.323-5.079c0-2.856-0.487-4.867-3.323-4.867S125.761,15.771,125.761,18.627z"/>
		<path fill="#FFFFFF" d="M148.065,16.215l-2.201,9.819h-3.725l-3.534-14.497h3.237l2.286,10.814h0.021l2.307-10.814h3.407
			l2.371,10.814h0.021l2.222-10.814h3.069l-3.513,14.497h-3.725l-2.201-9.819H148.065z"/>
	</g>
	<g>
		<g>
			<path fill="#1E5035" d="M65.656,208.103h1.439v-8.923h-1.439v-1.458h8.689v3.095h-1.548v-1.655h-4.065v3.67h3.742v1.403h-3.742
				v3.886h4.065v-1.655h1.565v3.095h-8.707V208.103z"/>
			<path fill="#1E5035" d="M79.074,203.155c0.738-0.792,1.709-1.493,2.824-1.493c0.972,0,1.638,0.378,2.033,0.989
				c0.252,0.432,0.396,0.972,0.396,1.619v3.994h1.206v1.295h-3.904v-1.295h1.151v-3.652c0-0.378-0.054-0.684-0.18-0.918
				c-0.216-0.413-0.594-0.611-1.151-0.611c-0.846,0-1.655,0.504-2.321,1.17v4.012h1.151v1.295h-3.886v-1.295h1.206v-5.128h-1.206
				v-1.331h2.681V203.155z"/>
			<path fill="#1E5035" d="M92.581,208.732c-0.144-0.307-0.233-0.702-0.233-1.134v-4.462H90.89v-1.331h1.457v-1.781l1.547-0.629
				v2.41h2.356v1.331h-2.356v4.192c0,0.252,0.036,0.432,0.108,0.594c0.144,0.252,0.432,0.377,0.881,0.377
				c0.468,0,1.025-0.216,1.476-0.432l-0.162,1.386c-0.449,0.233-1.025,0.449-1.745,0.449
				C93.588,209.703,92.922,209.397,92.581,208.732z"/>
			<path fill="#1E5035" d="M97.887,205.691c0-2.177,1.583-4.029,4.048-4.029c2.464,0,4.047,1.835,4.047,4.029
				c0,2.159-1.601,4.012-4.047,4.012C99.452,209.703,97.887,207.868,97.887,205.691z M104.381,205.691
				c0-1.583-1.008-2.716-2.446-2.716c-1.458,0-2.465,1.133-2.465,2.716s1.007,2.699,2.465,2.699
				C103.374,208.391,104.381,207.274,104.381,205.691z"/>
			<path fill="#1E5035" d="M107.761,205.728c0-2.213,1.564-4.065,3.777-4.065c0.972,0,1.781,0.359,2.303,0.846v-4.786h-1.331v-1.331
				h2.879v11.874h1.205v1.295h-2.734v-0.989c-0.612,0.647-1.386,1.133-2.465,1.133C109.344,209.703,107.761,208.084,107.761,205.728
				z M113.841,207.365v-3.599c-0.558-0.432-1.223-0.756-2.123-0.756c-1.331,0-2.356,1.062-2.374,2.699
				c0,1.619,1.025,2.645,2.339,2.645C112.564,208.354,113.266,207.94,113.841,207.365z"/>
			<path fill="#1E5035" d="M117.977,207.49c0-1.421,1.26-2.338,3.04-2.338c0.81,0,1.709,0.18,2.123,0.306v-0.882
				c0-0.449-0.126-0.81-0.342-1.079c-0.323-0.396-0.863-0.594-1.619-0.594c-0.485,0-0.773,0.107-1.007,0.233
				c0.054,0.126,0.09,0.288,0.09,0.433c0,0.503-0.378,0.881-0.899,0.881c-0.54,0-0.918-0.378-0.918-0.917
				c0-0.918,1.008-1.871,2.986-1.871c1.205,0,2.087,0.359,2.608,0.972c0.396,0.468,0.594,1.079,0.594,1.78v3.851h1.205v1.295h-2.662
				v-0.936c-0.63,0.594-1.619,1.079-2.662,1.079C119.092,209.703,117.977,208.894,117.977,207.49z M123.14,207.616v-1.259
				c-0.521-0.144-1.188-0.27-1.889-0.27c-1.098,0-1.709,0.521-1.709,1.277c0,0.701,0.521,1.169,1.421,1.169
				C121.791,208.534,122.546,208.139,123.14,207.616z"/>
			<path fill="#1E5035" d="M131.502,208.265h1.26v-10.543h-1.26v-1.331h2.807v11.874h1.241v1.295h-4.048V208.265z"/>
			<path fill="#1E5035" d="M137.042,207.49c0-1.421,1.26-2.338,3.04-2.338c0.81,0,1.709,0.18,2.123,0.306v-0.882
				c0-0.449-0.126-0.81-0.342-1.079c-0.323-0.396-0.863-0.594-1.619-0.594c-0.485,0-0.773,0.107-1.007,0.233
				c0.054,0.126,0.09,0.288,0.09,0.433c0,0.503-0.378,0.881-0.899,0.881c-0.54,0-0.918-0.378-0.918-0.917
				c0-0.918,1.008-1.871,2.986-1.871c1.205,0,2.087,0.359,2.608,0.972c0.396,0.468,0.594,1.079,0.594,1.78v3.851h1.205v1.295h-2.662
				v-0.936c-0.63,0.594-1.619,1.079-2.662,1.079C138.158,209.703,137.042,208.894,137.042,207.49z M142.206,207.616v-1.259
				c-0.521-0.144-1.188-0.27-1.889-0.27c-1.098,0-1.709,0.521-1.709,1.277c0,0.701,0.521,1.169,1.421,1.169
				C140.856,208.534,141.612,208.139,142.206,207.616z"/>
			<path fill="#1E5035" d="M151.953,208.732c-0.144-0.307-0.233-0.702-0.233-1.134v-4.462h-1.457v-1.331h1.457v-1.781l1.547-0.629
				v2.41h2.356v1.331h-2.356v4.192c0,0.252,0.036,0.432,0.108,0.594c0.144,0.252,0.432,0.377,0.881,0.377
				c0.468,0,1.025-0.216,1.476-0.432l-0.162,1.386c-0.449,0.233-1.025,0.449-1.745,0.449
				C152.96,209.703,152.294,209.397,151.953,208.732z"/>
			<path fill="#1E5035" d="M157.331,208.265h1.259v-5.128h-1.259v-1.331h2.807v6.459h1.241v1.295h-4.048V208.265z M158.068,199.035
				c0-0.611,0.521-1.115,1.134-1.115c0.594,0,1.115,0.504,1.115,1.115c0,0.63-0.54,1.134-1.134,1.134
				C158.572,200.169,158.068,199.665,158.068,199.035z"/>
			<path fill="#1E5035" d="M164.633,206.178c0.216,1.475,1.295,2.194,2.807,2.194c0.989,0,1.835-0.306,2.752-0.827l-0.126,1.421
				c-0.81,0.504-1.799,0.737-2.86,0.737c-2.501,0-4.191-1.619-4.191-3.993c0-2.177,1.493-4.048,3.85-4.048
				c2.393,0,3.652,1.709,3.652,3.688c0,0.288-0.036,0.594-0.072,0.828H164.633z M164.633,205.026h4.335
				c-0.071-1.241-0.827-2.087-2.141-2.087C165.785,202.939,164.831,203.623,164.633,205.026z"/>
			<path fill="#1E5035" d="M174.868,203.155c0.737-0.792,1.709-1.493,2.824-1.493c0.972,0,1.637,0.378,2.033,0.989
				c0.252,0.432,0.396,0.972,0.396,1.619v3.994h1.205v1.295h-3.903v-1.295h1.151v-3.652c0-0.378-0.055-0.684-0.181-0.918
				c-0.216-0.413-0.594-0.611-1.151-0.611c-0.845,0-1.654,0.504-2.32,1.17v4.012h1.151v1.295h-3.886v-1.295h1.205v-5.128h-1.205
				v-1.331h2.681V203.155z"/>
			<path fill="#1E5035" d="M182.637,205.728c0-2.213,1.564-4.065,3.777-4.065c0.972,0,1.781,0.359,2.303,0.846v-4.786h-1.331v-1.331
				h2.879v11.874h1.205v1.295h-2.734v-0.989c-0.612,0.647-1.386,1.133-2.465,1.133C184.22,209.703,182.637,208.084,182.637,205.728z
				 M188.717,207.365v-3.599c-0.558-0.432-1.223-0.756-2.123-0.756c-1.331,0-2.356,1.062-2.374,2.699
				c0,1.619,1.025,2.645,2.339,2.645C187.44,208.354,188.142,207.94,188.717,207.365z"/>
			<path fill="#1E5035" d="M192.853,207.49c0-1.421,1.26-2.338,3.04-2.338c0.81,0,1.709,0.18,2.123,0.306v-0.882
				c0-0.449-0.126-0.81-0.342-1.079c-0.323-0.396-0.863-0.594-1.619-0.594c-0.485,0-0.773,0.107-1.007,0.233
				c0.054,0.126,0.09,0.288,0.09,0.433c0,0.503-0.378,0.881-0.899,0.881c-0.54,0-0.918-0.378-0.918-0.917
				c0-0.918,1.008-1.871,2.986-1.871c1.205,0,2.087,0.359,2.608,0.972c0.396,0.468,0.594,1.079,0.594,1.78v3.851h1.205v1.295h-2.662
				v-0.936c-0.63,0.594-1.619,1.079-2.662,1.079C193.968,209.703,192.853,208.894,192.853,207.49z M198.016,207.616v-1.259
				c-0.521-0.144-1.188-0.27-1.889-0.27c-1.098,0-1.709,0.521-1.709,1.277c0,0.701,0.521,1.169,1.421,1.169
				C196.667,208.534,197.422,208.139,198.016,207.616z"/>
		</g>
	</g>
	<g>
		<g>
			<g>
				<path fill="#1E5035" d="M84.197,120.838c10.154,2.031,15.926,9.086,15.926,17.957c0,12.934-8.872,20.31-25.439,20.31
					c-8.551,0-16.354-1.283-23.729-5.024l2.993-7.481c6.307,3.206,13.041,4.489,20.202,4.489c14.002,0,16.033-8.23,16.033-12.827
					c0-7.589-5.451-12.506-17.315-12.506h-9.085v-8.017h8.658c11.437,0,15.926-6.841,15.926-13.36
					c0-4.811-2.565-12.079-14.216-12.079c-6.734,0-12.292,1.497-18.492,4.489l-2.993-7.375c7.482-3.634,15.499-5.131,23.088-5.131
					c13.361,0,22.233,6.841,22.233,19.026c0,8.872-5.879,14.644-13.789,17.315V120.838z"/>
				<path fill="#1E5035" d="M107.603,121.159c0-20.309,5.023-36.877,25.653-36.877c20.522,0,25.653,16.568,25.653,36.877
					c0,20.629-5.131,37.945-25.653,37.945C112.626,159.104,107.603,141.788,107.603,121.159z M117.757,121.159
					c0,15.498,2.886,29.929,15.499,29.929c12.506,0,15.499-14.431,15.499-29.929c0-15.499-2.993-28.86-15.499-28.86
					C120.643,92.299,117.757,105.66,117.757,121.159z"/>
			</g>
		</g>
	</g>
</g>
</svg>
