<?xml version="1.0" encoding="utf-8"?>
<!-- Generator: Adobe Illustrator 17.0.0, SVG Export Plug-In . SVG Version: 6.00 Build 0)  -->
<!DOCTYPE svg PUBLIC "-//W3C//DTD SVG 1.1//EN" "http://www.w3.org/Graphics/SVG/1.1/DTD/svg11.dtd">
<svg version="1.1" id="Layer_1" xmlns="http://www.w3.org/2000/svg" xmlns:xlink="http://www.w3.org/1999/xlink" x="0px" y="0px"
	 width="266.333px" height="265px" viewBox="0 0 266.333 265" enable-background="new 0 0 266.333 265" xml:space="preserve">
<g>
	<g>
		<path fill="#1E5035" d="M165.542,96.823c0-5.59,3.055-9.101,8.84-9.101c5.721,0,8.84,3.51,8.84,9.101s-3.119,9.035-8.84,9.035
			C168.596,105.858,165.542,102.413,165.542,96.823z M179.452,96.823c0-3.9-1.69-6.045-5.07-6.045c-3.381,0-5.135,2.145-5.135,6.045
			c0,3.9,1.754,5.98,5.135,5.98C177.761,102.803,179.452,100.723,179.452,96.823z M177.241,132.249h-3.899l24.051-44.202h3.899
			L177.241,132.249z M191.412,123.539c0-5.59,3.056-9.1,8.841-9.1c5.72,0,8.84,3.51,8.84,9.1s-3.12,9.036-8.84,9.036
			C194.467,132.574,191.412,129.129,191.412,123.539z M205.323,123.539c0-3.9-1.69-6.045-5.07-6.045
			c-3.381,0-5.136,2.145-5.136,6.045c0,3.9,1.755,5.98,5.136,5.98C203.632,129.519,205.323,127.439,205.323,123.539z"/>
		<path fill="#1E5035" d="M163.81,150.806c0-4.126,1.237-7.491,6.297-7.491c5.037,0,6.297,3.365,6.297,7.491
			c0,4.19-1.26,7.708-6.297,7.708C165.047,158.514,163.81,154.996,163.81,150.806z M165.981,150.806
			c0,3.148,0.586,5.971,4.126,5.971c3.518,0,4.126-2.822,4.126-5.971s-0.608-5.754-4.126-5.754
			C166.567,145.052,165.981,147.657,165.981,150.806z"/>
		<path fill="#1E5035" d="M188.407,145.377h-7.166v4.777h6.188V152h-6.188v6.297h-2.062v-14.766h9.229V145.377z"/>
		<path fill="#1E5035" d="M200.454,145.377h-7.166v4.777h6.188V152h-6.188v6.297h-2.062v-14.766h9.229V145.377z"/>
	</g>
	<rect x="6.4" y="2.666" fill="#16A314" width="253.534" height="30.082"/>
	<g>
		<path fill="#FFFFFF" d="M117.636,14.141h-6.814v3.068h5.862v2.582h-5.862v3.556h6.92v2.582h-9.841V11.538h9.735V14.141z"/>
		<path fill="#FFFFFF" d="M127.856,20.85h-0.043l-2.878,5.079h-3.238l4.339-7.471l-4.105-6.921h3.407l2.666,4.529h0.043l2.603-4.529
			h3.387l-4.106,6.921l4.509,7.471h-3.472L127.856,20.85z"/>
		<path fill="#FFFFFF" d="M138.583,25.929V11.538h2.921v14.392H138.583z"/>
		<path fill="#FFFFFF" d="M152.528,14.141v11.788h-2.92V14.141h-3.789v-2.604h10.477v2.604H152.528z"/>
	</g>
	<g>
		<g>
			<path fill="#1E5035" d="M37.652,212.139h1.439v-8.923h-1.439v-1.458h8.689v3.095h-1.547v-1.655h-4.066v3.67h3.742v1.403h-3.742
				v3.886h4.066v-1.655h1.564v3.095h-8.707V212.139z"/>
			<path fill="#1E5035" d="M51.07,207.191c0.738-0.792,1.71-1.493,2.825-1.493c0.971,0,1.637,0.378,2.032,0.989
				c0.252,0.432,0.396,0.972,0.396,1.619v3.994h1.205v1.295h-3.904v-1.295h1.151v-3.652c0-0.378-0.054-0.684-0.18-0.918
				c-0.216-0.413-0.594-0.611-1.151-0.611c-0.846,0-1.655,0.504-2.32,1.17v4.012h1.151v1.295H48.39v-1.295h1.205v-5.128H48.39
				v-1.331h2.68V207.191z"/>
			<path fill="#1E5035" d="M63.588,207.677c0-3.472,2.519-6.135,6.062-6.135c3.49,0,5.973,2.681,5.973,6.135
				c0,3.473-2.519,6.135-6.062,6.135C66.071,213.812,63.588,211.131,63.588,207.677z M73.951,207.677
				c0-2.645-1.817-4.623-4.336-4.623c-2.536,0-4.354,1.961-4.354,4.623c0,2.645,1.817,4.624,4.354,4.624
				C72.133,212.301,73.951,210.34,73.951,207.677z"/>
			<path fill="#1E5035" d="M78.84,212.769c-0.144-0.307-0.233-0.702-0.233-1.134v-4.462h-1.458v-1.331h1.458v-1.781l1.547-0.629
				v2.41h2.356v1.331h-2.356v4.192c0,0.252,0.036,0.432,0.107,0.594c0.145,0.252,0.433,0.377,0.882,0.377
				c0.468,0,1.025-0.216,1.476-0.432l-0.162,1.386c-0.45,0.233-1.025,0.449-1.745,0.449
				C79.848,213.739,79.182,213.434,78.84,212.769z"/>
			<path fill="#1E5035" d="M84.146,209.728c0-2.177,1.583-4.029,4.048-4.029s4.048,1.835,4.048,4.029
				c0,2.159-1.602,4.012-4.048,4.012C85.711,213.739,84.146,211.904,84.146,209.728z M90.64,209.728
				c0-1.583-1.007-2.716-2.446-2.716c-1.457,0-2.465,1.133-2.465,2.716s1.008,2.699,2.465,2.699
				C89.633,212.427,90.64,211.311,90.64,209.728z"/>
			<path fill="#1E5035" d="M96.647,207.191c0.738-0.792,1.71-1.493,2.825-1.493c0.971,0,1.637,0.378,2.032,0.989
				c0.252,0.432,0.396,0.972,0.396,1.619v3.994h1.205v1.295h-3.904v-1.295h1.151v-3.652c0-0.378-0.054-0.684-0.18-0.918
				c-0.216-0.413-0.594-0.611-1.151-0.611c-0.846,0-1.655,0.504-2.32,1.17v4.012h1.151v1.295h-3.886v-1.295h1.205v-5.128h-1.205
				v-1.331h2.68V207.191z M98.302,203.791c-0.432-0.378-0.72-0.54-0.989-0.54c-0.414,0-0.701,0.342-0.863,1.098l-1.134-0.27
				c0.145-1.439,1.008-2.356,1.907-2.356c0.701,0,1.188,0.306,1.583,0.665c0.45,0.378,0.737,0.54,0.989,0.54
				c0.432,0,0.72-0.342,0.882-1.098l1.115,0.27c-0.126,1.439-0.989,2.357-1.889,2.357C99.202,204.457,98.716,204.151,98.302,203.791
				z"/>
			<path fill="#1E5035" d="M104.417,209.728c0-2.177,1.583-4.029,4.048-4.029s4.048,1.835,4.048,4.029
				c0,2.159-1.602,4.012-4.048,4.012C105.982,213.739,104.417,211.904,104.417,209.728z M110.911,209.728
				c0-1.583-1.007-2.716-2.446-2.716c-1.457,0-2.465,1.133-2.465,2.716s1.008,2.699,2.465,2.699
				C109.904,212.427,110.911,211.311,110.911,209.728z"/>
			<path fill="#1E5035" d="M118.733,212.139h1.547v-8.923h-1.547v-1.458h4.695v1.458h-1.529v8.923h1.529v1.457h-4.695V212.139z"/>
			<path fill="#1E5035" d="M127.924,207.191c0.738-0.792,1.71-1.493,2.825-1.493c0.971,0,1.637,0.378,2.032,0.989
				c0.252,0.432,0.396,0.972,0.396,1.619v3.994h1.205v1.295h-3.904v-1.295h1.151v-3.652c0-0.378-0.054-0.684-0.18-0.918
				c-0.216-0.413-0.594-0.611-1.151-0.611c-0.846,0-1.655,0.504-2.32,1.17v4.012h1.151v1.295h-3.886v-1.295h1.205v-5.128h-1.205
				v-1.331h2.68V207.191z"/>
			<path fill="#1E5035" d="M135.82,207.173h-0.971v-1.331h3.76v1.277h-1.188l2.104,4.659l2.105-4.659h-1.242v-1.277h3.761v1.331
				h-0.972l-3.185,6.639h-0.989L135.82,207.173z"/>
			<path fill="#1E5035" d="M145.298,212.301h1.26v-5.128h-1.26v-1.331h2.807v6.459h1.241v1.295h-4.048V212.301z M146.036,203.071
				c0-0.611,0.522-1.115,1.134-1.115c0.594,0,1.115,0.504,1.115,1.115c0,0.63-0.54,1.134-1.134,1.134
				C146.54,204.205,146.036,203.701,146.036,203.071z"/>
			<path fill="#1E5035" d="M152.601,210.214c0.216,1.475,1.295,2.194,2.807,2.194c0.989,0,1.835-0.306,2.752-0.827l-0.126,1.421
				c-0.81,0.504-1.799,0.737-2.86,0.737c-2.5,0-4.191-1.619-4.191-3.993c0-2.177,1.493-4.048,3.85-4.048
				c2.393,0,3.652,1.709,3.652,3.688c0,0.288-0.036,0.594-0.072,0.828H152.601z M152.601,209.062h4.336
				c-0.072-1.241-0.828-2.087-2.142-2.087C153.752,206.976,152.799,207.659,152.601,209.062z"/>
			<path fill="#1E5035" d="M166.524,206.831c0,0.558-0.45,1.044-0.989,1.044c-0.521,0-0.882-0.324-1.025-0.666
				c-0.576,0.18-1.241,0.828-1.619,1.565v3.526h1.421v1.295h-4.155v-1.295h1.205v-5.128h-1.205v-1.331h2.68v1.764
				c0.612-1.062,1.512-1.907,2.411-1.907C166.092,205.698,166.524,206.22,166.524,206.831z"/>
			<path fill="#1E5035" d="M170.444,207.191c0.738-0.792,1.71-1.493,2.825-1.493c0.971,0,1.637,0.378,2.032,0.989
				c0.252,0.432,0.396,0.972,0.396,1.619v3.994h1.205v1.295h-3.904v-1.295h1.151v-3.652c0-0.378-0.054-0.684-0.18-0.918
				c-0.216-0.413-0.594-0.611-1.151-0.611c-0.846,0-1.655,0.504-2.32,1.17v4.012h1.151v1.295h-3.886v-1.295h1.205v-5.128h-1.205
				v-1.331h2.68V207.191z"/>
			<path fill="#1E5035" d="M178.213,209.728c0-2.177,1.583-4.029,4.048-4.029s4.048,1.835,4.048,4.029
				c0,2.159-1.602,4.012-4.048,4.012C179.779,213.739,178.213,211.904,178.213,209.728z M184.708,209.728
				c0-1.583-1.007-2.716-2.446-2.716c-1.457,0-2.465,1.133-2.465,2.716s1.008,2.699,2.465,2.699
				C183.701,212.427,184.708,211.311,184.708,209.728z"/>
			<path fill="#1E5035" d="M194.365,206.147c0.198,0.162,0.342,0.432,0.342,0.684c0,0.558-0.449,1.025-1.007,1.025
				c-0.576,0-1.062-0.503-1.062-1.241c0-0.323,0.144-0.684,0.378-1.007c0.575-0.773,1.763-1.422,3.202-1.422
				c2.248,0,3.489,1.313,3.489,2.681c0,1.529-1.259,2.356-2.788,3.274c-1.224,0.72-2.068,1.331-2.591,2.177h4.354v-1.529h1.332
				v2.807h-7.412l-0.234-0.773c0.702-1.673,2.142-2.771,3.688-3.724c1.169-0.738,2.068-1.313,2.068-2.195
				c0-0.81-0.791-1.385-1.979-1.385C195.354,205.519,194.653,205.77,194.365,206.147z"/>
			<path fill="#1E5035" d="M202.082,208.954c0-2.734,1.799-4.768,4.299-4.768c2.501,0,4.3,2.051,4.3,4.768
				c0,2.753-1.799,4.785-4.3,4.785C203.88,213.739,202.082,211.688,202.082,208.954z M209.08,208.954
				c0-1.979-1.098-3.454-2.699-3.454c-1.601,0-2.698,1.457-2.698,3.454c0,2.015,1.098,3.454,2.698,3.454
				C207.982,212.408,209.08,210.969,209.08,208.954z"/>
			<path fill="#1E5035" d="M212.909,212.301h2.159v-6.351l-1.871,0.468l-0.359-1.313l3.076-0.81h0.72v8.006h2.122v1.295h-5.847
				V212.301z"/>
			<path fill="#1E5035" d="M220.499,210.501c0-1.241,0.864-2.284,2.087-2.752c-1.115-0.521-1.835-1.547-1.835-2.555
				c0-1.817,1.583-3.166,3.67-3.166c2.105,0,3.688,1.349,3.688,3.166c0,1.043-0.756,2.033-1.854,2.555
				c1.224,0.468,2.105,1.493,2.105,2.752c0,1.8-1.565,3.238-3.94,3.238C222.064,213.739,220.499,212.301,220.499,210.501z
				 M226.742,210.394c0-1.134-0.936-2.033-2.321-2.033c-1.367,0-2.303,0.899-2.303,2.033c0,1.133,0.936,2.015,2.303,2.015
				C225.806,212.408,226.742,211.526,226.742,210.394z M226.507,205.284c0-1.133-0.863-1.925-2.087-1.925
				c-1.205,0-2.068,0.792-2.068,1.925c0,1.044,0.917,1.889,2.068,1.889S226.507,206.328,226.507,205.284z"/>
		</g>
	</g>
	<g>
		<g>
			<path fill="#1E5035" d="M84.197,120.838c10.154,2.031,15.926,9.086,15.926,17.958c0,12.934-8.871,20.31-25.438,20.31
				c-8.552,0-16.354-1.283-23.729-5.024l2.993-7.481c6.306,3.206,13.04,4.489,20.201,4.489c14.003,0,16.033-8.23,16.033-12.827
				c0-7.589-5.451-12.506-17.315-12.506h-9.086v-8.017h8.658c11.437,0,15.927-6.841,15.927-13.36
				c0-4.811-2.565-12.079-14.217-12.079c-6.733,0-12.292,1.497-18.491,4.489l-2.993-7.375c7.482-3.634,15.499-5.131,23.088-5.131
				c13.361,0,22.232,6.841,22.232,19.026c0,8.872-5.879,14.644-13.788,17.315V120.838z"/>
			<path fill="#1E5035" d="M107.602,121.16c0-20.309,5.023-36.877,25.653-36.877c20.522,0,25.652,16.568,25.652,36.877
				c0,20.629-5.13,37.946-25.652,37.946C112.625,159.105,107.602,141.789,107.602,121.16z M117.756,121.16
				c0,15.499,2.886,29.929,15.499,29.929c12.506,0,15.498-14.431,15.498-29.929c0-15.499-2.992-28.86-15.498-28.86
				C120.642,92.299,117.756,105.661,117.756,121.16z"/>
		</g>
	</g>
</g>
</svg>
