<?xml version="1.0" encoding="utf-8"?>
<!-- Generator: Adobe Illustrator 17.0.0, SVG Export Plug-In . SVG Version: 6.00 Build 0)  -->
<!DOCTYPE svg PUBLIC "-//W3C//DTD SVG 1.1//EN" "http://www.w3.org/Graphics/SVG/1.1/DTD/svg11.dtd">
<svg version="1.1" id="Layer_1" xmlns="http://www.w3.org/2000/svg" xmlns:xlink="http://www.w3.org/1999/xlink" x="0px" y="0px"
	 width="266.333px" height="265px" viewBox="0 0 266.333 265" enable-background="new 0 0 266.333 265" xml:space="preserve">
<g>
	<g>
		<path fill="#1E5035" d="M165.542,96.429c0-5.59,3.055-9.101,8.84-9.101c5.721,0,8.84,3.51,8.84,9.101s-3.119,9.035-8.84,9.035
			C168.596,105.464,165.542,102.019,165.542,96.429z M179.452,96.429c0-3.9-1.69-6.045-5.07-6.045c-3.381,0-5.135,2.145-5.135,6.045
			c0,3.9,1.754,5.98,5.135,5.98C177.761,102.409,179.452,100.329,179.452,96.429z M177.241,131.855h-3.899l24.051-44.202h3.899
			L177.241,131.855z M191.412,123.145c0-5.59,3.056-9.1,8.841-9.1c5.72,0,8.84,3.51,8.84,9.1c0,5.59-3.12,9.036-8.84,9.036
			C194.467,132.18,191.412,128.735,191.412,123.145z M205.323,123.145c0-3.9-1.69-6.045-5.07-6.045
			c-3.381,0-5.136,2.145-5.136,6.045c0,3.9,1.755,5.98,5.136,5.98C203.632,129.125,205.323,127.045,205.323,123.145z"/>
		<path fill="#1E5035" d="M163.81,150.412c0-4.126,1.237-7.491,6.297-7.491c5.037,0,6.297,3.365,6.297,7.491
			c0,4.19-1.26,7.708-6.297,7.708C165.048,158.12,163.81,154.602,163.81,150.412z M165.981,150.412c0,3.148,0.586,5.971,4.126,5.971
			c3.518,0,4.126-2.822,4.126-5.971s-0.608-5.754-4.126-5.754C166.567,144.658,165.981,147.263,165.981,150.412z"/>
		<path fill="#1E5035" d="M188.407,144.983h-7.166v4.777h6.188v1.846h-6.188v6.297h-2.062v-14.766h9.229V144.983z"/>
		<path fill="#1E5035" d="M200.454,144.983h-7.166v4.777h6.188v1.846h-6.188v6.297h-2.062v-14.766h9.229V144.983z"/>
	</g>
	<g>
		<g>
			<path fill="#1E5035" d="M65.656,221.253h1.439v-8.922h-1.439v-1.459h8.689v3.096h-1.547v-1.656h-4.065v3.67h3.741v1.404h-3.741
				v3.885h4.065v-1.654h1.565v3.094h-8.708V221.253z"/>
			<path fill="#1E5035" d="M79.075,216.305c0.737-0.791,1.709-1.492,2.824-1.492c0.972,0,1.637,0.377,2.033,0.988
				c0.252,0.432,0.396,0.973,0.396,1.619v3.994h1.205v1.295H81.63v-1.295h1.151v-3.652c0-0.377-0.055-0.684-0.181-0.918
				c-0.216-0.412-0.594-0.611-1.151-0.611c-0.845,0-1.654,0.504-2.32,1.17v4.012h1.151v1.295h-3.886v-1.295h1.205v-5.127h-1.205
				v-1.332h2.681V216.305z"/>
			<path fill="#1E5035" d="M92.582,221.883c-0.144-0.307-0.234-0.703-0.234-1.135v-4.461H90.89v-1.332h1.457v-1.781l1.548-0.629
				v2.41h2.356v1.332h-2.356v4.191c0,0.252,0.036,0.432,0.107,0.594c0.145,0.252,0.432,0.377,0.882,0.377
				c0.468,0,1.025-0.215,1.475-0.432l-0.161,1.387c-0.45,0.232-1.025,0.449-1.745,0.449
				C93.59,222.854,92.924,222.548,92.582,221.883z"/>
			<path fill="#1E5035" d="M97.887,218.842c0-2.178,1.583-4.029,4.048-4.029s4.048,1.834,4.048,4.029
				c0,2.158-1.602,4.012-4.048,4.012C99.453,222.854,97.887,221.018,97.887,218.842z M104.382,218.842
				c0-1.584-1.007-2.717-2.446-2.717c-1.457,0-2.465,1.133-2.465,2.717c0,1.582,1.008,2.699,2.465,2.699
				C103.375,221.542,104.382,220.424,104.382,218.842z"/>
			<path fill="#1E5035" d="M107.761,218.878c0-2.213,1.565-4.064,3.778-4.064c0.972,0,1.78,0.359,2.303,0.846v-4.787h-1.331v-1.33
				h2.878v11.873h1.205v1.295h-2.734v-0.988c-0.611,0.646-1.385,1.133-2.465,1.133C109.344,222.854,107.761,221.235,107.761,218.878
				z M113.842,220.516v-3.6c-0.558-0.432-1.224-0.756-2.123-0.756c-1.331,0-2.356,1.062-2.375,2.699
				c0,1.619,1.025,2.645,2.339,2.645C112.565,221.505,113.266,221.09,113.842,220.516z"/>
			<path fill="#1E5035" d="M117.978,220.641c0-1.422,1.259-2.338,3.04-2.338c0.81,0,1.709,0.18,2.123,0.305v-0.881
				c0-0.449-0.126-0.811-0.342-1.08c-0.324-0.395-0.864-0.594-1.619-0.594c-0.486,0-0.773,0.107-1.008,0.234
				c0.054,0.125,0.09,0.287,0.09,0.432c0,0.504-0.378,0.881-0.899,0.881c-0.54,0-0.917-0.377-0.917-0.916
				c0-0.918,1.007-1.871,2.986-1.871c1.205,0,2.086,0.359,2.608,0.971c0.396,0.469,0.594,1.08,0.594,1.781v3.85h1.205v1.295h-2.663
				v-0.936c-0.629,0.594-1.618,1.08-2.662,1.08C119.093,222.854,117.978,222.044,117.978,220.641z M123.141,220.766v-1.258
				c-0.522-0.145-1.188-0.27-1.89-0.27c-1.097,0-1.709,0.521-1.709,1.277c0,0.701,0.521,1.168,1.422,1.168
				C121.792,221.684,122.548,221.29,123.141,220.766z"/>
			<path fill="#1E5035" d="M131.504,221.415h1.259v-10.543h-1.259v-1.33h2.807v11.873h1.241v1.295h-4.048V221.415z"/>
			<path fill="#1E5035" d="M137.043,220.641c0-1.422,1.26-2.338,3.041-2.338c0.81,0,1.709,0.18,2.122,0.305v-0.881
				c0-0.449-0.126-0.811-0.342-1.08c-0.323-0.395-0.863-0.594-1.619-0.594c-0.485,0-0.773,0.107-1.007,0.234
				c0.054,0.125,0.09,0.287,0.09,0.432c0,0.504-0.378,0.881-0.899,0.881c-0.54,0-0.918-0.377-0.918-0.916
				c0-0.918,1.008-1.871,2.986-1.871c1.206,0,2.087,0.359,2.608,0.971c0.396,0.469,0.594,1.08,0.594,1.781v3.85h1.206v1.295h-2.663
				v-0.936c-0.63,0.594-1.619,1.08-2.662,1.08C138.158,222.854,137.043,222.044,137.043,220.641z M142.206,220.766v-1.258
				c-0.521-0.145-1.187-0.27-1.889-0.27c-1.098,0-1.709,0.521-1.709,1.277c0,0.701,0.521,1.168,1.421,1.168
				C140.857,221.684,141.612,221.29,142.206,220.766z"/>
			<path fill="#1E5035" d="M151.954,221.883c-0.144-0.307-0.233-0.703-0.233-1.135v-4.461h-1.458v-1.332h1.458v-1.781l1.547-0.629
				v2.41h2.356v1.332h-2.356v4.191c0,0.252,0.036,0.432,0.107,0.594c0.145,0.252,0.433,0.377,0.882,0.377
				c0.468,0,1.025-0.215,1.476-0.432l-0.162,1.387c-0.45,0.232-1.025,0.449-1.745,0.449
				C152.962,222.854,152.296,222.548,151.954,221.883z"/>
			<path fill="#1E5035" d="M157.332,221.415h1.26v-5.127h-1.26v-1.332h2.807v6.459h1.241v1.295h-4.048V221.415z M158.069,212.186
				c0-0.611,0.522-1.115,1.134-1.115c0.594,0,1.115,0.504,1.115,1.115c0,0.629-0.54,1.133-1.134,1.133
				C158.573,213.319,158.069,212.815,158.069,212.186z"/>
			<path fill="#1E5035" d="M164.634,219.329c0.216,1.475,1.295,2.193,2.807,2.193c0.989,0,1.835-0.305,2.752-0.826l-0.126,1.42
				c-0.81,0.504-1.799,0.738-2.86,0.738c-2.5,0-4.191-1.619-4.191-3.994c0-2.176,1.493-4.047,3.85-4.047
				c2.393,0,3.652,1.709,3.652,3.688c0,0.287-0.036,0.594-0.072,0.828H164.634z M164.634,218.176h4.336
				c-0.072-1.24-0.828-2.086-2.142-2.086C165.786,216.09,164.833,216.774,164.634,218.176z"/>
			<path fill="#1E5035" d="M174.868,216.305c0.738-0.791,1.71-1.492,2.825-1.492c0.971,0,1.637,0.377,2.032,0.988
				c0.252,0.432,0.396,0.973,0.396,1.619v3.994h1.205v1.295h-3.904v-1.295h1.151v-3.652c0-0.377-0.054-0.684-0.18-0.918
				c-0.216-0.412-0.594-0.611-1.151-0.611c-0.846,0-1.655,0.504-2.32,1.17v4.012h1.151v1.295h-3.886v-1.295h1.205v-5.127h-1.205
				v-1.332h2.68V216.305z"/>
			<path fill="#1E5035" d="M182.638,218.878c0-2.213,1.565-4.064,3.777-4.064c0.972,0,1.781,0.359,2.303,0.846v-4.787h-1.331v-1.33
				h2.879v11.873h1.205v1.295h-2.734v-0.988c-0.611,0.646-1.386,1.133-2.465,1.133C184.221,222.854,182.638,221.235,182.638,218.878
				z M188.718,220.516v-3.6c-0.558-0.432-1.223-0.756-2.122-0.756c-1.332,0-2.357,1.062-2.375,2.699
				c0,1.619,1.025,2.645,2.339,2.645C187.442,221.505,188.143,221.09,188.718,220.516z"/>
			<path fill="#1E5035" d="M192.854,220.641c0-1.422,1.26-2.338,3.041-2.338c0.81,0,1.709,0.18,2.122,0.305v-0.881
				c0-0.449-0.126-0.811-0.342-1.08c-0.323-0.395-0.863-0.594-1.619-0.594c-0.485,0-0.773,0.107-1.007,0.234
				c0.054,0.125,0.09,0.287,0.09,0.432c0,0.504-0.378,0.881-0.899,0.881c-0.54,0-0.918-0.377-0.918-0.916
				c0-0.918,1.008-1.871,2.986-1.871c1.206,0,2.087,0.359,2.608,0.971c0.396,0.469,0.594,1.08,0.594,1.781v3.85h1.206v1.295h-2.663
				v-0.936c-0.63,0.594-1.619,1.08-2.662,1.08C193.969,222.854,192.854,222.044,192.854,220.641z M198.017,220.766v-1.258
				c-0.521-0.145-1.187-0.27-1.889-0.27c-1.098,0-1.709,0.521-1.709,1.277c0,0.701,0.521,1.168,1.421,1.168
				C196.669,221.684,197.424,221.29,198.017,220.766z"/>
		</g>
	</g>
	<rect x="5.99" y="2.666" fill="#16A314" width="254.353" height="30.179"/>
	<g>
		<path fill="#FFFFFF" d="M67.559,26.001V11.569h2.93v5.687h5.518v-5.687h2.908v14.433h-2.908v-6.155h-5.518v6.155H67.559z"/>
		<path fill="#FFFFFF" d="M92.14,20.907v-9.339h2.908v9.339c0,3.777-2.25,5.306-5.667,5.306s-5.688-1.528-5.688-5.306v-9.339h2.93
			v9.339c0,1.549,0.467,2.865,2.78,2.865C91.632,23.773,92.14,22.456,92.14,20.907z"/>
		<path fill="#FFFFFF" d="M99.36,18.679c0-4.075,1.358-7.323,6.431-7.323c1.72,0,3.185,0.213,5.137,0.807l-0.637,2.441
			c-2.271-0.531-3.142-0.637-4.267-0.637c-2.674,0-3.587,1.846-3.587,4.712c0,3.077,0.913,4.945,3.587,4.945
			c0.743,0,1.358-0.148,1.995-0.403v-2.356h-2.229v-2.61h5.137v6.962c-1.783,0.637-3.227,0.997-5.137,0.997
			C100.718,26.213,99.36,22.818,99.36,18.679z"/>
		<path fill="#FFFFFF" d="M115.494,18.679c0-4.075,1.358-7.323,6.431-7.323c5.073,0,6.41,3.248,6.41,7.323
			c0,4.117-1.337,7.534-6.41,7.534C116.852,26.213,115.494,22.796,115.494,18.679z M118.571,18.679c0,2.865,0.51,5.094,3.354,5.094
			c2.845,0,3.333-2.229,3.333-5.094c0-2.866-0.488-4.882-3.333-4.882C119.081,13.797,118.571,15.813,118.571,18.679z"/>
		<path fill="#FFFFFF" d="M147.801,18.551c1.571,0.467,2.611,1.635,2.611,3.502c0,2.463-1.592,3.948-4.606,3.948h-6.537V11.569
			h6.113c3.014,0,4.605,1.358,4.605,3.692c0,1.55-0.849,2.76-2.187,3.248V18.551z M145.064,14.179h-2.865v3.12h2.865
			c1.21,0,1.847-0.446,1.847-1.57C146.911,14.667,146.274,14.179,145.064,14.179z M142.199,19.909v3.502h3.119
			c1.231,0,2.017-0.403,2.017-1.762c0-1.294-0.785-1.74-2.122-1.74H142.199z"/>
		<path fill="#FFFFFF" d="M154.193,18.679c0-4.075,1.358-7.323,6.431-7.323c5.073,0,6.41,3.248,6.41,7.323
			c0,4.117-1.337,7.534-6.41,7.534C155.551,26.213,154.193,22.796,154.193,18.679z M157.27,18.679c0,2.865,0.51,5.094,3.354,5.094
			c2.845,0,3.333-2.229,3.333-5.094c0-2.866-0.488-4.882-3.333-4.882C157.78,13.797,157.27,15.813,157.27,18.679z"/>
		<path fill="#FFFFFF" d="M170.815,25.428l0.509-2.44c2.25,0.53,3.842,0.637,4.967,0.637c1.486,0,2.378-0.68,2.378-1.635
			c0-1.337-1.656-1.613-3.333-2.08c-2.504-0.7-4.309-2.08-4.309-4.521c0-2.908,2.398-4.033,5.264-4.033
			c1.635,0,3.12,0.213,5.095,0.807l-0.658,2.441c-2.271-0.531-3.333-0.637-4.437-0.637c-1.485,0-2.186,0.637-2.186,1.507
			c0,1.188,1.549,1.57,3.289,1.995c2.505,0.573,4.352,1.762,4.352,4.287c0,3.078-2.377,4.457-5.455,4.457
			C174.635,26.213,172.789,26.001,170.815,25.428z"/>
		<path fill="#FFFFFF" d="M185.484,25.428l0.509-2.44c2.25,0.53,3.842,0.637,4.967,0.637c1.486,0,2.378-0.68,2.378-1.635
			c0-1.337-1.656-1.613-3.333-2.08c-2.504-0.7-4.309-2.08-4.309-4.521c0-2.908,2.398-4.033,5.264-4.033
			c1.635,0,3.12,0.213,5.095,0.807l-0.658,2.441c-2.271-0.531-3.332-0.637-4.437-0.637c-1.485,0-2.186,0.637-2.186,1.507
			c0,1.188,1.549,1.57,3.29,1.995c2.504,0.573,4.351,1.762,4.351,4.287c0,3.078-2.377,4.457-5.455,4.457
			C189.304,26.213,187.458,26.001,185.484,25.428z"/>
	</g>
	<rect x="6.4" y="2.733" fill="#16A314" width="253.534" height="30.082"/>
	<g>
		<path fill="#FFFFFF" d="M67.772,26.16V11.769h2.921v5.672h5.502v-5.672h2.899V26.16h-2.899v-6.138h-5.502v6.138H67.772z"/>
		<path fill="#FFFFFF" d="M92.277,21.081v-9.312h2.899v9.312c0,3.767-2.243,5.291-5.65,5.291s-5.672-1.523-5.672-5.291v-9.312h2.921
			v9.312c0,1.545,0.465,2.857,2.772,2.857C91.769,23.938,92.277,22.626,92.277,21.081z"/>
		<path fill="#FFFFFF" d="M99.47,18.859c0-4.063,1.354-7.301,6.413-7.301c1.714,0,3.175,0.211,5.121,0.804l-0.635,2.434
			c-2.265-0.529-3.132-0.635-4.254-0.635c-2.666,0-3.576,1.841-3.576,4.698c0,3.069,0.91,4.932,3.576,4.932
			c0.741,0,1.354-0.148,1.989-0.402v-2.349h-2.222v-2.603h5.121v6.941c-1.777,0.635-3.217,0.995-5.121,0.995
			C100.825,26.372,99.47,22.986,99.47,18.859z"/>
		<path fill="#FFFFFF" d="M115.551,18.859c0-4.063,1.354-7.301,6.413-7.301c5.058,0,6.392,3.238,6.392,7.301
			c0,4.106-1.334,7.513-6.392,7.513C116.906,26.372,115.551,22.965,115.551,18.859z M118.621,18.859c0,2.857,0.508,5.08,3.344,5.08
			s3.322-2.222,3.322-5.08c0-2.857-0.486-4.868-3.322-4.868S118.621,16.002,118.621,18.859z"/>
		<path fill="#FFFFFF" d="M147.759,18.732c1.566,0.466,2.604,1.63,2.604,3.492c0,2.455-1.588,3.937-4.593,3.937h-6.519V11.769h6.095
			c3.006,0,4.593,1.354,4.593,3.683c0,1.545-0.847,2.751-2.18,3.238V18.732z M145.029,14.372h-2.856v3.111h2.856
			c1.207,0,1.842-0.444,1.842-1.566C146.871,14.859,146.236,14.372,145.029,14.372z M142.173,20.086v3.492h3.11
			c1.228,0,2.011-0.402,2.011-1.756c0-1.291-0.783-1.736-2.116-1.736H142.173z"/>
		<path fill="#FFFFFF" d="M154.127,18.859c0-4.063,1.354-7.301,6.413-7.301c5.058,0,6.392,3.238,6.392,7.301
			c0,4.106-1.334,7.513-6.392,7.513C155.481,26.372,154.127,22.965,154.127,18.859z M157.196,18.859c0,2.857,0.508,5.08,3.344,5.08
			s3.322-2.222,3.322-5.08c0-2.857-0.486-4.868-3.322-4.868S157.196,16.002,157.196,18.859z"/>
		<path fill="#FFFFFF" d="M170.695,25.589l0.508-2.434c2.244,0.529,3.831,0.635,4.953,0.635c1.481,0,2.37-0.678,2.37-1.63
			c0-1.333-1.651-1.608-3.323-2.074c-2.497-0.698-4.296-2.074-4.296-4.508c0-2.899,2.392-4.021,5.249-4.021
			c1.629,0,3.11,0.211,5.079,0.804l-0.656,2.434c-2.265-0.529-3.322-0.635-4.423-0.635c-1.481,0-2.181,0.635-2.181,1.503
			c0,1.185,1.545,1.566,3.281,1.989c2.497,0.571,4.338,1.756,4.338,4.275c0,3.069-2.37,4.444-5.438,4.444
			C174.505,26.372,172.664,26.16,170.695,25.589z"/>
		<path fill="#FFFFFF" d="M185.317,25.589l0.508-2.434c2.244,0.529,3.831,0.635,4.953,0.635c1.481,0,2.37-0.678,2.37-1.63
			c0-1.333-1.651-1.608-3.323-2.074c-2.497-0.698-4.296-2.074-4.296-4.508c0-2.899,2.392-4.021,5.249-4.021
			c1.629,0,3.11,0.211,5.079,0.804l-0.656,2.434c-2.265-0.529-3.323-0.635-4.423-0.635c-1.481,0-2.181,0.635-2.181,1.503
			c0,1.185,1.545,1.566,3.28,1.989c2.498,0.571,4.339,1.756,4.339,4.275c0,3.069-2.37,4.444-5.438,4.444
			C189.127,26.372,187.286,26.16,185.317,25.589z"/>
	</g>
	<g>
		<path fill="#1E5035" d="M55.979,98.662l-2.886-7.696c7.803-3.42,14.002-5.344,22.98-5.344c15.713,0,22.981,9.94,22.981,21.698
			c0,14.964-11.01,28.325-32.388,43.29v0.213h33.456v8.551h-47.03v-9.299c30.57-20.202,35.808-32.708,35.808-40.617
			c0-13.361-10.154-14.964-14.965-14.964C68.699,94.493,63.568,95.241,55.979,98.662z"/>
		<path fill="#1E5035" d="M107.603,122.498c0-20.309,5.023-36.876,25.653-36.876c20.522,0,25.652,16.567,25.652,36.876
			c0,20.63-5.13,37.945-25.652,37.945C112.627,160.443,107.603,143.128,107.603,122.498z M117.757,122.498
			c0,15.499,2.886,29.929,15.499,29.929c12.506,0,15.498-14.43,15.498-29.929c0-15.499-2.992-28.859-15.498-28.859
			C120.643,93.638,117.757,106.999,117.757,122.498z"/>
	</g>
</g>
<g>
</g>
<g>
</g>
<g>
</g>
<g>
</g>
<g>
</g>
<g>
</g>
<g>
</g>
<g>
</g>
<g>
</g>
<g>
</g>
<g>
</g>
<g>
</g>
<g>
</g>
<g>
</g>
<g>
</g>
</svg>
