<?xml version="1.0" encoding="utf-8"?>
<!-- Generator: Adobe Illustrator 17.0.0, SVG Export Plug-In . SVG Version: 6.00 Build 0)  -->
<!DOCTYPE svg PUBLIC "-//W3C//DTD SVG 1.1//EN" "http://www.w3.org/Graphics/SVG/1.1/DTD/svg11.dtd">
<svg version="1.1" id="Layer_1" xmlns="http://www.w3.org/2000/svg" xmlns:xlink="http://www.w3.org/1999/xlink" x="0px" y="0px"
	 width="266.333px" height="265px" viewBox="0 0 266.333 265" enable-background="new 0 0 266.333 265" xml:space="preserve">
<g>
	<rect x="6.4" y="2.666" fill="#16A314" width="253.534" height="30.082"/>
	<g>
		<path fill="#FFFFFF" d="M69.687,22.395l3.217-10.857h3.069l-4.593,14.497h-3.556l-4.656-14.497h3.238l3.259,10.857H69.687z"/>
		<path fill="#FFFFFF" d="M79.8,25.929V11.538h2.921v14.392H79.8z"/>
		<path fill="#FFFFFF" d="M93.408,11.326c1.714,0,3.217,0.212,5.186,0.805l-0.656,2.434c-2.265-0.529-3.175-0.635-4.297-0.635
			c-2.666,0-3.576,1.842-3.576,4.698c0,3.069,0.91,4.932,3.576,4.932c1.122,0,2.032-0.106,4.297-0.635l0.656,2.434
			c-1.969,0.571-3.472,0.783-5.186,0.783c-5.059,0-6.413-3.387-6.413-7.514C86.995,14.564,88.349,11.326,93.408,11.326z"/>
		<path fill="#FFFFFF" d="M109.151,14.141v11.788h-2.92V14.141h-3.789v-2.604h10.477v2.604H109.151z"/>
		<path fill="#FFFFFF" d="M116.535,18.628c0-4.063,1.354-7.302,6.413-7.302c5.059,0,6.392,3.238,6.392,7.302
			c0,4.106-1.333,7.514-6.392,7.514C117.889,26.141,116.535,22.734,116.535,18.628z M119.604,18.628
			c0,2.857,0.508,5.079,3.344,5.079s3.323-2.222,3.323-5.079c0-2.856-0.487-4.867-3.323-4.867S119.604,15.771,119.604,18.628z"/>
		<path fill="#FFFFFF" d="M141.654,25.929l-3.026-5.122h-2.074v5.122h-2.921V11.538h6.138c3.026,0,4.762,1.82,4.762,4.635
			c0,1.947-0.91,3.577-2.857,4.148l3.365,5.608H141.654z M136.553,18.205h2.857c1.206,0,2.137-0.529,2.137-2.032
			c0-1.46-0.867-2.031-2.095-2.031h-2.899V18.205z"/>
		<path fill="#FFFFFF" d="M149.185,25.929V11.538h2.921v14.392H149.185z"/>
		<path fill="#FFFFFF" d="M156.845,25.929V11.538h2.92l5.757,9.037h0.042v-9.037h2.815v14.392h-2.899l-5.757-8.72h-0.042v8.72
			H156.845z"/>
		<path fill="#FFFFFF" d="M172.673,18.628c0-4.063,1.354-7.302,6.413-7.302s6.392,3.238,6.392,7.302
			c0,4.106-1.333,7.514-6.392,7.514S172.673,22.734,172.673,18.628z M175.742,18.628c0,2.857,0.508,5.079,3.344,5.079
			s3.323-2.222,3.323-5.079c0-2.856-0.487-4.867-3.323-4.867S175.742,15.771,175.742,18.628z"/>
		<path fill="#FFFFFF" d="M194.004,20.85h-0.042l-2.879,5.079h-3.238l4.339-7.471l-4.105-6.921h3.407l2.667,4.529h0.042l2.604-4.529
			h3.386l-4.105,6.921l4.508,7.471h-3.471L194.004,20.85z"/>
	</g>
	<g>
		<g>
			<path fill="#1E5035" d="M19.998,120h1.44v-8.931h-1.44v-1.459h8.696v3.097h-1.548v-1.656h-4.069v3.673h3.745v1.404h-3.745v3.89
				h4.069v-1.656h1.566v3.097h-8.714V120z"/>
			<path fill="#1E5035" d="M33.427,115.048c0.738-0.792,1.71-1.494,2.827-1.494c0.972,0,1.639,0.378,2.035,0.99
				c0.252,0.432,0.396,0.973,0.396,1.62v3.997h1.207v1.297h-3.907v-1.297h1.152v-3.654c0-0.379-0.054-0.685-0.18-0.919
				c-0.216-0.414-0.594-0.612-1.152-0.612c-0.846,0-1.656,0.505-2.323,1.171v4.015h1.152v1.297h-3.889v-1.297h1.207v-5.131h-1.207
				v-1.333h2.683V115.048z"/>
			<path fill="#1E5035" d="M45.558,120.161h1.26V109.61h-1.26v-1.332h2.809v11.883h1.242v1.297h-4.051V120.161z"/>
			<path fill="#1E5035" d="M51.102,119.387c0-1.423,1.26-2.341,3.043-2.341c0.81,0,1.71,0.18,2.125,0.306v-0.882
				c0-0.45-0.126-0.811-0.342-1.08c-0.324-0.396-0.864-0.595-1.62-0.595c-0.486,0-0.774,0.108-1.008,0.234
				c0.054,0.126,0.09,0.288,0.09,0.432c0,0.505-0.378,0.883-0.9,0.883c-0.54,0-0.918-0.378-0.918-0.919
				c0-0.918,1.008-1.872,2.989-1.872c1.207,0,2.088,0.36,2.611,0.973c0.396,0.468,0.594,1.08,0.594,1.782v3.853h1.206v1.297h-2.665
				v-0.937c-0.63,0.595-1.621,1.081-2.665,1.081C52.218,121.602,51.102,120.792,51.102,119.387z M56.269,119.513v-1.261
				c-0.522-0.144-1.188-0.27-1.891-0.27c-1.098,0-1.71,0.521-1.71,1.278c0,0.702,0.522,1.17,1.422,1.17
				C54.919,120.431,55.675,120.035,56.269,119.513z"/>
			<path fill="#1E5035" d="M64.637,120.161h1.261V109.61h-1.261v-1.332h2.809v11.883h1.242v1.297h-4.051V120.161z"/>
			<path fill="#1E5035" d="M70.271,120.161h1.261v-5.131h-1.261v-1.333h2.809v6.464h1.242v1.297h-4.051V120.161z M71.009,110.924
				c0-0.612,0.522-1.116,1.134-1.116c0.594,0,1.117,0.504,1.117,1.116c0,0.63-0.541,1.135-1.135,1.135
				C71.514,112.059,71.009,111.554,71.009,110.924z"/>
			<path fill="#1E5035" d="M80.659,123.654h1.494v-3.133c-0.63,0.595-1.368,1.081-2.502,1.081c-2.035,0-3.655-1.639-3.655-4.016
				c0-2.232,1.621-4.033,3.817-4.033c0.991,0,1.801,0.378,2.467,0.918l0.396-0.81h1.008v9.992h1.224v1.333h-4.249V123.654z
				 M82.153,119.261v-3.619c-0.558-0.414-1.278-0.738-2.161-0.738c-1.314,0-2.413,1.008-2.413,2.683
				c0,1.639,1.044,2.665,2.377,2.665C80.839,120.252,81.559,119.838,82.153,119.261z"/>
			<path fill="#1E5035" d="M87.173,120.576c-0.234-0.433-0.36-0.955-0.36-1.585v-3.961h-1.207v-1.333h2.737v4.952
				c0,0.396,0.072,0.702,0.198,0.936c0.216,0.415,0.576,0.595,1.134,0.595c0.846,0,1.639-0.522,2.323-1.171v-3.979h-1.242v-1.333
				h2.791v6.464h1.207v1.297h-2.701v-1.351c-0.738,0.792-1.71,1.495-2.827,1.495C88.236,121.602,87.569,121.206,87.173,120.576z"/>
			<path fill="#1E5035" d="M96.299,120.161h1.26v-5.131h-1.26v-1.333h2.809v6.464h1.242v1.297h-4.051V120.161z M97.037,110.924
				c0-0.612,0.522-1.116,1.134-1.116c0.594,0,1.116,0.504,1.116,1.116c0,0.63-0.54,1.135-1.134,1.135
				C97.542,112.059,97.037,111.554,97.037,110.924z"/>
			<path fill="#1E5035" d="M102.023,117.623c0-2.215,1.566-4.069,3.781-4.069c0.972,0,1.782,0.36,2.305,0.846v-4.789h-1.333v-1.332
				h2.881v11.883h1.207v1.297h-2.737v-0.99c-0.612,0.648-1.387,1.135-2.467,1.135C103.607,121.602,102.023,119.981,102.023,117.623z
				 M108.109,119.261v-3.602c-0.558-0.432-1.225-0.756-2.125-0.756c-1.333,0-2.359,1.062-2.377,2.7c0,1.621,1.026,2.647,2.341,2.647
				C106.83,120.252,107.532,119.838,108.109,119.261z"/>
			<path fill="#1E5035" d="M112.247,119.387c0-1.423,1.26-2.341,3.043-2.341c0.81,0,1.71,0.18,2.125,0.306v-0.882
				c0-0.45-0.126-0.811-0.342-1.08c-0.324-0.396-0.864-0.595-1.62-0.595c-0.486,0-0.774,0.108-1.008,0.234
				c0.054,0.126,0.09,0.288,0.09,0.432c0,0.505-0.378,0.883-0.9,0.883c-0.54,0-0.918-0.378-0.918-0.919
				c0-0.918,1.008-1.872,2.989-1.872c1.206,0,2.088,0.36,2.611,0.973c0.396,0.468,0.594,1.08,0.594,1.782v3.853h1.206v1.297h-2.665
				v-0.937c-0.63,0.595-1.621,1.081-2.665,1.081C113.363,121.602,112.247,120.792,112.247,119.387z M117.414,119.513v-1.261
				c-0.522-0.144-1.188-0.27-1.891-0.27c-1.098,0-1.71,0.521-1.71,1.278c0,0.702,0.522,1.17,1.422,1.17
				C116.064,120.431,116.82,120.035,117.414,119.513z"/>
			<path fill="#1E5035" d="M121.409,117.55c0-2.089,1.675-3.997,3.889-3.997c1.927,0,3.331,1.261,3.331,2.448
				c0,0.685-0.468,1.152-1.098,1.152c-0.504,0-0.973-0.396-0.973-0.972c0-0.252,0.126-0.504,0.324-0.648
				c-0.18-0.36-0.828-0.702-1.584-0.702c-1.044,0-2.323,0.882-2.323,2.755c0,1.603,1.17,2.683,2.773,2.683
				c0.9,0,1.71-0.27,2.665-0.828l-0.144,1.423c-0.792,0.504-1.711,0.738-2.665,0.738
				C123.192,121.602,121.409,119.945,121.409,117.55z"/>
			<path fill="#1E5035" d="M130.463,120.161h1.261v-5.131h-1.261v-1.333h2.809v6.464h1.242v1.297h-4.051V120.161z M131.201,110.924
				c0-0.612,0.522-1.116,1.134-1.116c0.594,0,1.117,0.504,1.117,1.116c0,0.63-0.541,1.135-1.135,1.135
				C131.705,112.059,131.201,111.554,131.201,110.924z"/>
			<path fill="#1E5035" d="M136.187,117.587c0-2.179,1.584-4.033,4.051-4.033s4.052,1.837,4.052,4.033
				c0,2.16-1.603,4.016-4.052,4.016C137.754,121.602,136.187,119.765,136.187,117.587z M142.687,117.587
				c0-1.585-1.009-2.719-2.449-2.719c-1.458,0-2.467,1.134-2.467,2.719c0,1.584,1.009,2.701,2.467,2.701
				C141.678,120.288,142.687,119.171,142.687,117.587z M139.374,111.987l2.089-2.449c0.252-0.288,0.558-0.468,0.864-0.468
				c0.432,0,0.792,0.342,0.792,0.828c0,0.288-0.198,0.63-0.576,0.883l-2.719,1.71L139.374,111.987z"/>
			<path fill="#1E5035" d="M148.698,115.048c0.738-0.792,1.71-1.494,2.826-1.494c0.973,0,1.639,0.378,2.035,0.99
				c0.252,0.432,0.396,0.973,0.396,1.62v3.997h1.207v1.297h-3.907v-1.297h1.152v-3.654c0-0.379-0.055-0.685-0.181-0.919
				c-0.216-0.414-0.594-0.612-1.152-0.612c-0.846,0-1.656,0.505-2.322,1.171v4.015h1.152v1.297h-3.89v-1.297h1.207v-5.131h-1.207
				v-1.333h2.684V115.048z"/>
			<path fill="#1E5035" d="M169.039,120.161h1.242v1.297h-3.979v-1.297h1.188v-5.131h-3.709v5.131h1.44v1.297h-4.195v-1.297h1.206
				v-5.131h-1.35v-1.333h1.35v-1.764c0-1.333,0.36-2.341,1.026-2.972c0.541-0.521,1.278-0.828,2.107-0.828
				c1.224,0,1.908,0.666,1.908,1.423c0,0.54-0.45,1.008-1.009,1.008c-0.594,0-1.025-0.521-1.008-1.098h-0.072
				c-0.27,0-0.648,0.126-0.954,0.504c-0.271,0.342-0.45,0.882-0.45,1.675v2.052h5.258V120.161z"/>
			<path fill="#1E5035" d="M174.582,115.048c0.738-0.792,1.71-1.494,2.826-1.494c0.973,0,1.639,0.378,2.035,0.99
				c0.252,0.432,0.396,0.973,0.396,1.62v3.997h1.207v1.297h-3.907v-1.297h1.152v-3.654c0-0.379-0.055-0.685-0.181-0.919
				c-0.216-0.414-0.594-0.612-1.152-0.612c-0.846,0-1.656,0.505-2.322,1.171v4.015h1.152v1.297h-3.89v-1.297h1.207v-5.131h-1.207
				v-1.333h2.684V115.048z"/>
			<path fill="#1E5035" d="M182.375,119.387c0-1.423,1.26-2.341,3.043-2.341c0.81,0,1.71,0.18,2.124,0.306v-0.882
				c0-0.45-0.126-0.811-0.342-1.08c-0.324-0.396-0.864-0.595-1.62-0.595c-0.486,0-0.774,0.108-1.009,0.234
				c0.054,0.126,0.09,0.288,0.09,0.432c0,0.505-0.378,0.883-0.9,0.883c-0.54,0-0.918-0.378-0.918-0.919
				c0-0.918,1.009-1.872,2.989-1.872c1.206,0,2.088,0.36,2.61,0.973c0.396,0.468,0.595,1.08,0.595,1.782v3.853h1.206v1.297h-2.665
				v-0.937c-0.63,0.595-1.62,1.081-2.665,1.081C183.491,121.602,182.375,120.792,182.375,119.387z M187.542,119.513v-1.261
				c-0.521-0.144-1.188-0.27-1.891-0.27c-1.098,0-1.71,0.521-1.71,1.278c0,0.702,0.521,1.17,1.422,1.17
				C186.191,120.431,186.948,120.035,187.542,119.513z"/>
			<path fill="#1E5035" d="M191.374,120.161h1.261V109.61h-1.261v-1.332h2.81v11.883h1.242v1.297h-4.052V120.161z"/>
			<path fill="#1E5035" d="M201.436,117.623c0-2.215,1.566-4.069,3.781-4.069c0.972,0,1.782,0.36,2.305,0.846v-4.789h-1.333v-1.332
				h2.881v11.883h1.207v1.297h-2.737v-0.99c-0.612,0.648-1.387,1.135-2.467,1.135C203.02,121.602,201.436,119.981,201.436,117.623z
				 M207.522,119.261v-3.602c-0.559-0.432-1.225-0.756-2.125-0.756c-1.332,0-2.358,1.062-2.377,2.7c0,1.621,1.026,2.647,2.341,2.647
				C206.244,120.252,206.946,119.838,207.522,119.261z"/>
			<path fill="#1E5035" d="M213.371,118.073c0.216,1.477,1.296,2.196,2.809,2.196c0.99,0,1.837-0.306,2.755-0.828l-0.126,1.423
				c-0.811,0.504-1.801,0.738-2.863,0.738c-2.503,0-4.195-1.621-4.195-3.998c0-2.179,1.495-4.051,3.854-4.051
				c2.395,0,3.655,1.711,3.655,3.691c0,0.288-0.036,0.594-0.072,0.828H213.371z M213.371,116.921h4.339
				c-0.072-1.242-0.828-2.089-2.143-2.089C214.523,114.832,213.569,115.516,213.371,116.921z"/>
			<path fill="#1E5035" d="M225.196,120.161h1.26V109.61h-1.26v-1.332h2.809v11.883h1.242v1.297h-4.051V120.161z"/>
			<path fill="#1E5035" d="M230.74,119.387c0-1.423,1.26-2.341,3.043-2.341c0.81,0,1.71,0.18,2.124,0.306v-0.882
				c0-0.45-0.126-0.811-0.342-1.08c-0.324-0.396-0.864-0.595-1.62-0.595c-0.486,0-0.774,0.108-1.009,0.234
				c0.054,0.126,0.09,0.288,0.09,0.432c0,0.505-0.378,0.883-0.9,0.883c-0.54,0-0.918-0.378-0.918-0.919
				c0-0.918,1.009-1.872,2.989-1.872c1.206,0,2.088,0.36,2.61,0.973c0.396,0.468,0.595,1.08,0.595,1.782v3.853h1.206v1.297h-2.665
				v-0.937c-0.63,0.595-1.62,1.081-2.665,1.081C231.856,121.602,230.74,120.792,230.74,119.387z M235.907,119.513v-1.261
				c-0.521-0.144-1.188-0.27-1.891-0.27c-1.098,0-1.71,0.521-1.71,1.278c0,0.702,0.521,1.17,1.422,1.17
				C234.556,120.431,235.313,120.035,235.907,119.513z"/>
			<path fill="#1E5035" d="M77.282,141.76h1.261V131.21h-1.261v-1.332h2.809v11.883h1.242v1.297h-4.051V141.76z"/>
			<path fill="#1E5035" d="M82.916,141.76h1.261v-5.131h-1.261v-1.333h2.809v6.464h1.242v1.297h-4.051V141.76z M83.942,133.587
				l2.089-2.449c0.252-0.288,0.558-0.468,0.864-0.468c0.432,0,0.792,0.342,0.792,0.828c0,0.288-0.198,0.63-0.576,0.883l-2.719,1.71
				L83.942,133.587z"/>
			<path fill="#1E5035" d="M91.269,136.647c0.738-0.792,1.71-1.494,2.827-1.494c0.972,0,1.639,0.378,2.035,0.99
				c0.252,0.432,0.396,0.973,0.396,1.62v3.997h1.207v1.297h-3.907v-1.297h1.152v-3.654c0-0.379-0.054-0.685-0.18-0.919
				c-0.216-0.414-0.594-0.612-1.152-0.612c-0.846,0-1.656,0.505-2.323,1.171v4.015h1.152v1.297h-3.889v-1.297h1.207v-5.131h-1.207
				v-1.333h2.683V136.647z"/>
			<path fill="#1E5035" d="M100.628,139.673c0.216,1.477,1.296,2.196,2.809,2.196c0.99,0,1.836-0.306,2.754-0.828l-0.126,1.423
				c-0.81,0.504-1.8,0.738-2.863,0.738c-2.503,0-4.195-1.621-4.195-3.998c0-2.179,1.495-4.051,3.854-4.051
				c2.395,0,3.655,1.711,3.655,3.691c0,0.288-0.036,0.594-0.072,0.828H100.628z M100.628,138.52h4.339
				c-0.072-1.242-0.828-2.089-2.143-2.089C101.78,136.431,100.826,137.116,100.628,138.52z"/>
			<path fill="#1E5035" d="M108.044,140.987c0-1.423,1.26-2.341,3.043-2.341c0.81,0,1.71,0.18,2.125,0.306v-0.882
				c0-0.45-0.126-0.811-0.342-1.08c-0.324-0.396-0.864-0.595-1.62-0.595c-0.486,0-0.774,0.108-1.008,0.234
				c0.054,0.126,0.09,0.288,0.09,0.432c0,0.505-0.378,0.883-0.9,0.883c-0.54,0-0.918-0.378-0.918-0.919
				c0-0.918,1.008-1.872,2.989-1.872c1.206,0,2.088,0.36,2.611,0.973c0.396,0.468,0.594,1.08,0.594,1.782v3.853h1.206v1.297h-2.665
				v-0.937c-0.63,0.595-1.621,1.081-2.665,1.081C109.16,143.202,108.044,142.391,108.044,140.987z M113.211,141.113v-1.261
				c-0.522-0.144-1.188-0.27-1.891-0.27c-1.098,0-1.71,0.521-1.71,1.278c0,0.702,0.522,1.17,1.422,1.17
				C111.861,142.031,112.617,141.634,113.211,141.113z"/>
			<path fill="#1E5035" d="M121.759,139.222c0-2.215,1.566-4.069,3.781-4.069c0.972,0,1.782,0.36,2.305,0.846v-4.789h-1.333v-1.332
				h2.881v11.883h1.207v1.297h-2.737v-0.99c-0.612,0.648-1.387,1.135-2.467,1.135C123.344,143.202,121.759,141.581,121.759,139.222z
				 M127.845,140.861v-3.602c-0.558-0.432-1.225-0.756-2.125-0.756c-1.332,0-2.358,1.062-2.376,2.7c0,1.621,1.026,2.647,2.341,2.647
				C126.567,141.851,127.269,141.437,127.845,140.861z"/>
			<path fill="#1E5035" d="M133.694,139.673c0.216,1.477,1.297,2.196,2.809,2.196c0.991,0,1.837-0.306,2.755-0.828l-0.126,1.423
				c-0.81,0.504-1.8,0.738-2.862,0.738c-2.503,0-4.196-1.621-4.196-3.998c0-2.179,1.495-4.051,3.853-4.051
				c2.396,0,3.655,1.711,3.655,3.691c0,0.288-0.036,0.594-0.071,0.828H133.694z M133.694,138.52h4.34
				c-0.072-1.242-0.828-2.089-2.143-2.089C134.846,136.431,133.892,137.116,133.694,138.52z"/>
			<path fill="#1E5035" d="M152.019,136.288c0,0.558-0.45,1.044-0.99,1.044c-0.521,0-0.882-0.324-1.026-0.666
				c-0.576,0.18-1.242,0.828-1.62,1.566v3.528h1.422v1.297h-4.159v-1.297h1.207v-5.131h-1.207v-1.333h2.684v1.765
				c0.611-1.062,1.512-1.908,2.412-1.908C151.588,135.153,152.019,135.675,152.019,136.288z"/>
			<path fill="#1E5035" d="M153.08,139.186c0-2.179,1.585-4.033,4.052-4.033s4.051,1.837,4.051,4.033
				c0,2.16-1.603,4.016-4.051,4.016C154.646,143.202,153.08,141.365,153.08,139.186z M159.58,139.186
				c0-1.585-1.008-2.719-2.448-2.719c-1.459,0-2.467,1.134-2.467,2.719c0,1.584,1.008,2.701,2.467,2.701
				C158.572,141.887,159.58,140.77,159.58,139.186z"/>
			<path fill="#1E5035" d="M162.763,145.29h1.207v-8.66h-1.207v-1.333h2.684v1.009c0.647-0.666,1.368-1.152,2.484-1.152
				c2.034,0,3.619,1.62,3.619,3.979c0,2.232-1.566,4.069-3.764,4.069c-0.882,0-1.656-0.324-2.269-0.829v2.917h1.387v1.297h-4.142
				V145.29z M169.948,139.15c0-1.62-0.99-2.646-2.305-2.646c-0.882,0-1.549,0.414-2.125,0.99v3.619
				c0.54,0.432,1.225,0.738,2.089,0.738C168.922,141.851,169.948,140.789,169.948,139.15z"/>
			<path fill="#1E5035" d="M173.221,140.987c0-1.423,1.261-2.341,3.043-2.341c0.811,0,1.711,0.18,2.125,0.306v-0.882
				c0-0.45-0.126-0.811-0.343-1.08c-0.323-0.396-0.864-0.595-1.62-0.595c-0.486,0-0.774,0.108-1.008,0.234
				c0.054,0.126,0.09,0.288,0.09,0.432c0,0.505-0.378,0.883-0.9,0.883c-0.54,0-0.918-0.378-0.918-0.919
				c0-0.918,1.008-1.872,2.988-1.872c1.206,0,2.089,0.36,2.611,0.973c0.396,0.468,0.594,1.08,0.594,1.782v3.853h1.206v1.297h-2.664
				v-0.937c-0.631,0.595-1.621,1.081-2.665,1.081C174.338,143.202,173.221,142.391,173.221,140.987z M178.389,141.113v-1.261
				c-0.522-0.144-1.188-0.27-1.891-0.27c-1.099,0-1.711,0.521-1.711,1.278c0,0.702,0.522,1.17,1.423,1.17
				C177.039,142.031,177.795,141.634,178.389,141.113z"/>
		</g>
	</g>
	<g>
		<g>
			<g>
				<path fill="#1E5035" d="M105.637,74.944c5.588,2.464,9.554,5.408,9.554,10.816c0,7.331-6.009,11.236-14.602,11.236
					c-8.352,0-14.241-3.605-14.241-10.695c0-5.469,4.086-8.653,9.494-10.636v-0.12c-4.867-2.043-8.292-4.987-8.292-10.155
					c0-6.73,5.949-10.456,13.34-10.456c7.15,0,13.099,3.726,13.099,10.216c0,4.927-3.305,7.451-8.353,9.674V74.944z M100.951,92.971
					c6.489,0,8.653-3.245,8.653-6.79c0-4.987-5.228-6.79-9.614-8.473c-4.086,1.442-8.112,3.726-8.112,8.052
					C91.877,89.366,94.221,92.971,100.951,92.971z M92.959,65.33c0,4.146,3.966,6.31,8.413,7.571
					c3.966-1.382,7.211-3.485,7.211-7.271c0-4.987-4.507-6.609-7.992-6.609C97.405,59.021,92.959,60.583,92.959,65.33z"/>
				<path fill="#1E5035" d="M119.396,75.666c0-11.417,2.824-20.731,14.421-20.731c11.537,0,14.421,9.314,14.421,20.731
					c0,11.597-2.885,21.331-14.421,21.331C122.22,96.997,119.396,87.262,119.396,75.666z M125.105,75.666
					c0,8.713,1.623,16.824,8.713,16.824c7.031,0,8.713-8.111,8.713-16.824s-1.683-16.225-8.713-16.225
					C126.727,59.441,125.105,66.953,125.105,75.666z"/>
			</g>
		</g>
	</g>
	<g>
		<g>
			<path fill="#1E5035" d="M20.722,237.23h1.44v-8.931h-1.44v-1.459h8.696v3.097H27.87v-1.656H23.8v3.673h3.745v1.404H23.8v3.89
				h4.069v-1.656h1.566v3.097h-8.714V237.23z"/>
			<path fill="#1E5035" d="M34.151,232.278c0.738-0.792,1.71-1.494,2.827-1.494c0.972,0,1.639,0.378,2.035,0.99
				c0.252,0.432,0.396,0.973,0.396,1.62v3.997h1.207v1.297h-3.907v-1.297h1.152v-3.654c0-0.379-0.054-0.685-0.18-0.919
				c-0.216-0.414-0.594-0.612-1.152-0.612c-0.846,0-1.656,0.505-2.323,1.171v4.015h1.152v1.297h-3.889v-1.297h1.207v-5.131h-1.207
				v-1.333h2.683V232.278z"/>
			<path fill="#1E5035" d="M46.263,240.921h1.207v-8.66h-1.207v-1.333h2.683v1.009c0.648-0.666,1.368-1.152,2.485-1.152
				c2.034,0,3.619,1.62,3.619,3.979c0,2.232-1.566,4.069-3.763,4.069c-0.882,0-1.656-0.324-2.269-0.829v2.917h1.387v1.297h-4.142
				V240.921z M53.448,234.781c0-1.62-0.991-2.646-2.305-2.646c-0.882,0-1.549,0.414-2.125,0.99v3.619
				c0.54,0.432,1.225,0.738,2.089,0.738C52.422,237.482,53.448,236.42,53.448,234.781z"/>
			<path fill="#1E5035" d="M63.167,231.919c0,0.558-0.45,1.044-0.99,1.044c-0.522,0-0.882-0.324-1.026-0.666
				c-0.576,0.18-1.242,0.828-1.621,1.566v3.528h1.423v1.297h-4.16v-1.297H58v-5.131h-1.207v-1.333h2.683v1.765
				c0.612-1.062,1.512-1.908,2.413-1.908C62.735,230.784,63.167,231.306,63.167,231.919z"/>
			<path fill="#1E5035" d="M64.228,234.817c0-2.179,1.584-4.033,4.051-4.033s4.051,1.837,4.051,4.033
				c0,2.16-1.603,4.016-4.051,4.016C65.794,238.833,64.228,236.996,64.228,234.817z M70.728,234.817
				c0-1.585-1.008-2.719-2.449-2.719c-1.458,0-2.467,1.134-2.467,2.719c0,1.584,1.008,2.701,2.467,2.701
				C69.719,237.518,70.728,236.401,70.728,234.817z"/>
			<path fill="#1E5035" d="M74.11,234.853c0-2.215,1.566-4.069,3.781-4.069c0.972,0,1.782,0.36,2.305,0.846v-4.789h-1.333v-1.332
				h2.881v11.883h1.207v1.297h-2.737v-0.99c-0.612,0.648-1.387,1.135-2.467,1.135C75.694,238.833,74.11,237.212,74.11,234.853z
				 M80.195,236.492v-3.602c-0.558-0.432-1.225-0.756-2.125-0.756c-1.333,0-2.359,1.062-2.377,2.7c0,1.621,1.026,2.647,2.341,2.647
				C78.917,237.482,79.619,237.068,80.195,236.492z"/>
			<path fill="#1E5035" d="M85.701,237.806c-0.234-0.433-0.36-0.955-0.36-1.585v-3.961h-1.207v-1.333h2.737v4.952
				c0,0.396,0.072,0.702,0.198,0.936c0.216,0.415,0.576,0.595,1.134,0.595c0.846,0,1.639-0.522,2.323-1.171v-3.979h-1.242v-1.333
				h2.791v6.464h1.207v1.297h-2.701v-1.351c-0.738,0.792-1.71,1.495-2.827,1.495C86.764,238.833,86.098,238.436,85.701,237.806z"/>
			<path fill="#1E5035" d="M94.845,234.781c0-2.089,1.674-3.997,3.889-3.997c1.927,0,3.331,1.261,3.331,2.448
				c0,0.685-0.468,1.152-1.098,1.152c-0.504,0-0.973-0.396-0.973-0.972c0-0.252,0.126-0.504,0.324-0.648
				c-0.18-0.36-0.828-0.702-1.584-0.702c-1.044,0-2.323,0.882-2.323,2.755c0,1.603,1.17,2.683,2.773,2.683
				c0.9,0,1.71-0.27,2.665-0.828l-0.145,1.423c-0.792,0.504-1.71,0.738-2.665,0.738C96.628,238.833,94.845,237.175,94.845,234.781z"
				/>
			<path fill="#1E5035" d="M105.142,237.86c-0.144-0.307-0.234-0.702-0.234-1.135v-4.465h-1.458v-1.333h1.458v-1.782l1.548-0.63
				v2.412h2.359v1.333h-2.359v4.195c0,0.252,0.036,0.432,0.108,0.594c0.144,0.252,0.432,0.378,0.882,0.378
				c0.468,0,1.026-0.216,1.476-0.432l-0.162,1.387c-0.45,0.233-1.026,0.45-1.746,0.45
				C106.15,238.833,105.484,238.526,105.142,237.86z"/>
			<path fill="#1E5035" d="M110.451,234.817c0-2.179,1.584-4.033,4.051-4.033s4.051,1.837,4.051,4.033
				c0,2.16-1.603,4.016-4.051,4.016C112.017,238.833,110.451,236.996,110.451,234.817z M116.951,234.817
				c0-1.585-1.008-2.719-2.449-2.719c-1.458,0-2.467,1.134-2.467,2.719c0,1.584,1.008,2.701,2.467,2.701
				C115.943,237.518,116.951,236.401,116.951,234.817z"/>
			<path fill="#1E5035" d="M125.77,233.466c-0.54,0-0.936-0.342-0.936-0.864c0-0.126,0.018-0.27,0.072-0.396
				c-0.306-0.144-0.756-0.233-1.242-0.233c-0.99,0-1.53,0.486-1.53,0.99c0,0.576,0.594,0.811,1.836,1.134
				c1.674,0.433,2.899,0.883,2.899,2.341c0,1.549-1.477,2.413-3.169,2.413c-1.17,0-2.359-0.396-2.881-0.918
				c-0.288-0.288-0.432-0.612-0.432-1.009c0-0.504,0.36-0.937,0.882-0.937c0.504,0,0.918,0.343,0.918,0.9
				c0,0.145-0.018,0.271-0.072,0.396c0.288,0.18,0.864,0.36,1.584,0.36c0.936,0,1.692-0.36,1.692-1.045
				c0-0.558-0.558-0.828-1.71-1.116c-1.981-0.504-3.043-0.99-3.043-2.377c0-1.188,1.062-2.322,3.043-2.322
				c1.008,0,2.017,0.324,2.521,0.828c0.27,0.271,0.396,0.594,0.396,0.937C126.598,233.106,126.257,233.466,125.77,233.466z"/>
			<path fill="#1E5035" d="M138.55,233.466c-0.54,0-0.936-0.342-0.936-0.864c0-0.126,0.018-0.27,0.071-0.396
				c-0.306-0.144-0.756-0.233-1.242-0.233c-0.99,0-1.53,0.486-1.53,0.99c0,0.576,0.594,0.811,1.837,1.134
				c1.674,0.433,2.898,0.883,2.898,2.341c0,1.549-1.477,2.413-3.169,2.413c-1.17,0-2.359-0.396-2.881-0.918
				c-0.288-0.288-0.432-0.612-0.432-1.009c0-0.504,0.36-0.937,0.882-0.937c0.504,0,0.918,0.343,0.918,0.9
				c0,0.145-0.018,0.271-0.071,0.396c0.288,0.18,0.864,0.36,1.584,0.36c0.937,0,1.692-0.36,1.692-1.045
				c0-0.558-0.558-0.828-1.71-1.116c-1.981-0.504-3.043-0.99-3.043-2.377c0-1.188,1.062-2.322,3.043-2.322
				c1.008,0,2.017,0.324,2.521,0.828c0.27,0.271,0.396,0.594,0.396,0.937C139.379,233.106,139.037,233.466,138.55,233.466z"/>
			<path fill="#1E5035" d="M143.013,235.303c0.216,1.477,1.297,2.196,2.809,2.196c0.991,0,1.837-0.306,2.755-0.828l-0.126,1.423
				c-0.81,0.504-1.8,0.738-2.862,0.738c-2.503,0-4.195-1.621-4.195-3.998c0-2.179,1.494-4.051,3.853-4.051
				c2.396,0,3.655,1.711,3.655,3.691c0,0.288-0.036,0.594-0.071,0.828H143.013z M143.013,234.151h4.34
				c-0.072-1.242-0.828-2.089-2.143-2.089C144.166,232.062,143.212,232.747,143.013,234.151z"/>
			<path fill="#1E5035" d="M150.447,237.391h1.26V226.84h-1.26v-1.332h2.809v11.883h1.242v1.297h-4.051V237.391z"/>
			<path fill="#1E5035" d="M157.701,235.303c0.216,1.477,1.297,2.196,2.809,2.196c0.991,0,1.837-0.306,2.755-0.828l-0.126,1.423
				c-0.81,0.504-1.8,0.738-2.862,0.738c-2.503,0-4.195-1.621-4.195-3.998c0-2.179,1.494-4.051,3.853-4.051
				c2.396,0,3.655,1.711,3.655,3.691c0,0.288-0.036,0.594-0.071,0.828H157.701z M157.701,234.151h4.34
				c-0.072-1.242-0.828-2.089-2.143-2.089C158.853,232.062,157.899,232.747,157.701,234.151z"/>
			<path fill="#1E5035" d="M165.297,234.781c0-2.089,1.675-3.997,3.89-3.997c1.927,0,3.331,1.261,3.331,2.448
				c0,0.685-0.469,1.152-1.099,1.152c-0.504,0-0.973-0.396-0.973-0.972c0-0.252,0.126-0.504,0.324-0.648
				c-0.18-0.36-0.828-0.702-1.584-0.702c-1.045,0-2.323,0.882-2.323,2.755c0,1.603,1.171,2.683,2.773,2.683
				c0.9,0,1.71-0.27,2.664-0.828l-0.144,1.423c-0.792,0.504-1.711,0.738-2.665,0.738
				C167.08,238.833,165.297,237.175,165.297,234.781z"/>
			<path fill="#1E5035" d="M174.224,234.781c0-2.089,1.675-3.997,3.89-3.997c1.927,0,3.331,1.261,3.331,2.448
				c0,0.685-0.469,1.152-1.099,1.152c-0.504,0-0.973-0.396-0.973-0.972c0-0.252,0.126-0.504,0.324-0.648
				c-0.18-0.36-0.828-0.702-1.584-0.702c-1.045,0-2.323,0.882-2.323,2.755c0,1.603,1.171,2.683,2.773,2.683
				c0.9,0,1.71-0.27,2.664-0.828l-0.144,1.423c-0.792,0.504-1.711,0.738-2.665,0.738
				C176.007,238.833,174.224,237.175,174.224,234.781z"/>
			<path fill="#1E5035" d="M183.279,237.391h1.26v-5.131h-1.26v-1.333h2.809v6.464h1.242v1.297h-4.051V237.391z M184.017,228.155
				c0-0.612,0.521-1.116,1.134-1.116c0.595,0,1.116,0.504,1.116,1.116c0,0.63-0.54,1.135-1.134,1.135
				C184.521,229.29,184.017,228.785,184.017,228.155z"/>
			<path fill="#1E5035" d="M189.003,234.817c0-2.179,1.584-4.033,4.051-4.033s4.052,1.837,4.052,4.033
				c0,2.16-1.603,4.016-4.052,4.016C190.569,238.833,189.003,236.996,189.003,234.817z M195.503,234.817
				c0-1.585-1.009-2.719-2.449-2.719c-1.458,0-2.467,1.134-2.467,2.719c0,1.584,1.009,2.701,2.467,2.701
				C194.494,237.518,195.503,236.401,195.503,234.817z"/>
			<path fill="#1E5035" d="M201.513,232.278c0.738-0.792,1.71-1.494,2.826-1.494c0.973,0,1.639,0.378,2.035,0.99
				c0.252,0.432,0.396,0.973,0.396,1.62v3.997h1.207v1.297h-3.907v-1.297h1.152v-3.654c0-0.379-0.055-0.685-0.181-0.919
				c-0.216-0.414-0.594-0.612-1.152-0.612c-0.846,0-1.656,0.505-2.322,1.171v4.015h1.152v1.297h-3.89v-1.297h1.207v-5.131h-1.207
				v-1.333h2.684V232.278z"/>
			<path fill="#1E5035" d="M209.306,236.618c0-1.423,1.261-2.341,3.043-2.341c0.811,0,1.711,0.18,2.125,0.306v-0.882
				c0-0.45-0.126-0.811-0.343-1.08c-0.323-0.396-0.864-0.595-1.62-0.595c-0.486,0-0.774,0.108-1.008,0.234
				c0.054,0.126,0.09,0.288,0.09,0.432c0,0.505-0.378,0.883-0.9,0.883c-0.54,0-0.918-0.378-0.918-0.919
				c0-0.918,1.008-1.872,2.988-1.872c1.206,0,2.089,0.36,2.611,0.973c0.396,0.468,0.594,1.08,0.594,1.782v3.853h1.206v1.297h-2.664
				v-0.937c-0.631,0.595-1.621,1.081-2.665,1.081C210.423,238.833,209.306,238.022,209.306,236.618z M214.474,236.744v-1.261
				c-0.522-0.144-1.188-0.27-1.891-0.27c-1.099,0-1.711,0.521-1.711,1.278c0,0.702,0.522,1.17,1.423,1.17
				C213.124,237.662,213.88,237.265,214.474,236.744z"/>
			<path fill="#1E5035" d="M218.486,234.853c0-2.215,1.566-4.069,3.781-4.069c0.973,0,1.782,0.36,2.305,0.846v-4.789h-1.332v-1.332
				h2.881v11.883h1.206v1.297h-2.736v-0.99c-0.612,0.648-1.387,1.135-2.467,1.135C220.071,238.833,218.486,237.212,218.486,234.853z
				 M224.572,236.492v-3.602c-0.558-0.432-1.225-0.756-2.125-0.756c-1.332,0-2.358,1.062-2.376,2.7c0,1.621,1.026,2.647,2.341,2.647
				C223.294,237.482,223.996,237.068,224.572,236.492z"/>
			<path fill="#1E5035" d="M228.836,234.817c0-2.179,1.585-4.033,4.052-4.033s4.051,1.837,4.051,4.033
				c0,2.16-1.603,4.016-4.051,4.016C230.402,238.833,228.836,236.996,228.836,234.817z M235.336,234.817
				c0-1.585-1.008-2.719-2.448-2.719c-1.459,0-2.467,1.134-2.467,2.719c0,1.584,1.008,2.701,2.467,2.701
				C234.328,237.518,235.336,236.401,235.336,234.817z"/>
			<path fill="#1E5035" d="M244.156,233.466c-0.54,0-0.937-0.342-0.937-0.864c0-0.126,0.019-0.27,0.072-0.396
				c-0.307-0.144-0.757-0.233-1.242-0.233c-0.99,0-1.531,0.486-1.531,0.99c0,0.576,0.595,0.811,1.837,1.134
				c1.675,0.433,2.899,0.883,2.899,2.341c0,1.549-1.477,2.413-3.169,2.413c-1.171,0-2.359-0.396-2.881-0.918
				c-0.288-0.288-0.433-0.612-0.433-1.009c0-0.504,0.36-0.937,0.882-0.937c0.505,0,0.919,0.343,0.919,0.9
				c0,0.145-0.019,0.271-0.072,0.396c0.288,0.18,0.864,0.36,1.585,0.36c0.936,0,1.692-0.36,1.692-1.045
				c0-0.558-0.559-0.828-1.711-1.116c-1.98-0.504-3.043-0.99-3.043-2.377c0-1.188,1.062-2.322,3.043-2.322
				c1.009,0,2.017,0.324,2.521,0.828c0.271,0.271,0.396,0.594,0.396,0.937C244.984,233.106,244.642,233.466,244.156,233.466z"/>
		</g>
	</g>
	<g>
		<g>
			<g>
				<path fill="#1E5035" d="M89.173,180.496l-1.623-4.326c4.387-1.923,7.872-3.005,12.919-3.005c8.833,0,12.919,5.589,12.919,12.198
					c0,8.413-6.189,15.924-18.207,24.336v0.12h18.808v4.808H87.55v-5.228c17.186-11.357,20.13-18.388,20.13-22.834
					c0-7.512-5.708-8.412-8.412-8.412C96.324,178.153,93.44,178.573,89.173,180.496z"/>
				<path fill="#1E5035" d="M118.194,193.896c0-11.417,2.824-20.731,14.421-20.731c11.538,0,14.421,9.314,14.421,20.731
					c0,11.597-2.884,21.331-14.421,21.331C121.018,215.227,118.194,205.493,118.194,193.896z M123.903,193.896
					c0,8.713,1.623,16.824,8.713,16.824c7.031,0,8.713-8.111,8.713-16.824s-1.683-16.225-8.713-16.225
					C125.525,177.672,123.903,185.183,123.903,193.896z"/>
			</g>
		</g>
	</g>
	<g>
		<path fill="#1E5035" d="M77.629,214.306v1.529H65.73v-1.529h4.59v-0.034c-0.799-0.815-1.36-1.836-1.36-3.025
			c0-1.7,1.02-2.55,2.805-2.55h5.864v1.529h-5.524c-1.105,0-1.87,0.426-1.87,1.7c0,0.986,0.595,1.87,0.986,2.38H77.629z"/>
		<path fill="#1E5035" d="M70.557,205.959l-1.241,0.238c-0.221-1.156-0.357-2.346-0.357-3.28c0-2.04,0.595-3.146,2.805-3.146h5.864
			v1.53h-0.85c0,0.017,0,0.017,0,0.034c0.731,0.815,1.02,1.581,1.02,2.686c0,1.7-1.02,2.72-2.499,2.72
			c-1.904,0-2.601-1.563-2.601-3.569v-1.87h-0.85c-1.122,0-1.615,0.561-1.615,1.955C70.235,203.902,70.302,204.701,70.557,205.959z
			 M73.634,201.301v1.785c0,1.58,0.561,2.124,1.53,2.124c0.901,0,1.445-0.68,1.445-1.784c0-0.969-0.408-1.734-0.714-2.125H73.634z"
			/>
		<path fill="#1E5035" d="M77.799,194.162c0,1.325-0.119,2.635-0.374,3.654l-1.241-0.271c0.34-1.36,0.391-2.618,0.391-3.213
			c0-1.564-0.935-1.785-1.258-1.785c-0.578,0-0.986,0.408-1.275,1.921c-0.34,1.802-0.918,3.179-2.703,3.179
			c-1.615,0-2.379-1.139-2.379-3.145c0-1.309,0.136-2.38,0.391-3.399l1.224,0.288c-0.34,1.36-0.374,2.432-0.374,3.026
			c0,1.529,0.816,1.699,1.105,1.699c0.544,0,0.986-0.289,1.292-1.818c0.391-1.768,0.867-3.28,2.618-3.28
			C76.915,191.017,77.799,192.173,77.799,194.162z"/>
		<path fill="#1E5035" d="M70.235,188.382v1.274h-1.003l-0.102-1.274l-2.38-0.188v-1.343h2.38v-2.38h1.105v2.38h4.674
			c1.088,0,1.666-0.34,1.666-1.444c0-0.238-0.034-0.511-0.085-0.867l1.189-0.153c0.068,0.459,0.119,1.122,0.119,1.53
			c0,1.751-0.714,2.465-2.635,2.465H70.235z"/>
		<path fill="#1E5035" d="M70.557,181.819l-1.241,0.238c-0.221-1.156-0.357-2.346-0.357-3.28c0-2.04,0.595-3.146,2.805-3.146h5.864
			v1.53h-0.85c0,0.017,0,0.017,0,0.034c0.731,0.815,1.02,1.581,1.02,2.686c0,1.7-1.02,2.72-2.499,2.72
			c-1.904,0-2.601-1.563-2.601-3.569v-1.87h-0.85c-1.122,0-1.615,0.561-1.615,1.955C70.235,179.762,70.302,180.561,70.557,181.819z
			 M73.634,177.162v1.785c0,1.58,0.561,2.124,1.53,2.124c0.901,0,1.445-0.68,1.445-1.784c0-0.969-0.408-1.734-0.714-2.125H73.634z"
			/>
	</g>
	<g>
		<path fill="#1E5035" d="M152.779,61.465c0-3.108,1.699-5.061,4.917-5.061c3.181,0,4.916,1.952,4.916,5.061
			c0,3.109-1.735,5.025-4.916,5.025C154.478,66.49,152.779,64.574,152.779,61.465z M160.515,61.465c0-2.168-0.94-3.361-2.819-3.361
			c-1.88,0-2.856,1.193-2.856,3.361c0,2.169,0.977,3.326,2.856,3.326C159.575,64.791,160.515,63.633,160.515,61.465z
			 M159.286,81.166h-2.169l13.375-24.581h2.169L159.286,81.166z M167.167,76.322c0-3.108,1.698-5.061,4.916-5.061
			c3.181,0,4.916,1.952,4.916,5.061s-1.735,5.024-4.916,5.024C168.865,81.346,167.167,79.43,167.167,76.322z M174.902,76.322
			c0-2.169-0.939-3.362-2.819-3.362s-2.855,1.193-2.855,3.362s0.976,3.325,2.855,3.325S174.902,78.491,174.902,76.322z"/>
		<path fill="#1E5035" d="M151.817,91.49c0-2.293,0.688-4.164,3.5-4.164c2.8,0,3.5,1.871,3.5,4.164c0,2.329-0.7,4.285-3.5,4.285
			C152.505,95.775,151.817,93.819,151.817,91.49z M153.023,91.49c0,1.75,0.326,3.319,2.294,3.319c1.955,0,2.293-1.569,2.293-3.319
			s-0.338-3.198-2.293-3.198C153.349,88.292,153.023,89.74,153.023,91.49z"/>
		<path fill="#1E5035" d="M165.494,88.472h-3.982v2.655h3.439v1.026h-3.439v3.5h-1.146v-8.207h5.129V88.472z"/>
		<path fill="#1E5035" d="M172.194,88.472h-3.982v2.655h3.439v1.026h-3.439v3.5h-1.146v-8.207h5.129V88.472z"/>
	</g>
	<g>
		<path fill="#1E5035" d="M152.779,179.965c0-3.108,1.699-5.061,4.917-5.061c3.181,0,4.916,1.952,4.916,5.061
			c0,3.109-1.735,5.025-4.916,5.025C154.478,184.99,152.779,183.074,152.779,179.965z M160.515,179.965
			c0-2.168-0.94-3.361-2.819-3.361c-1.88,0-2.856,1.193-2.856,3.361c0,2.169,0.977,3.326,2.856,3.326
			C159.575,183.291,160.515,182.133,160.515,179.965z M159.286,199.666h-2.169l13.375-24.581h2.169L159.286,199.666z
			 M167.167,194.822c0-3.108,1.698-5.061,4.916-5.061c3.181,0,4.916,1.952,4.916,5.061s-1.735,5.024-4.916,5.024
			C168.865,199.846,167.167,197.93,167.167,194.822z M174.902,194.822c0-2.169-0.939-3.362-2.819-3.362s-2.855,1.193-2.855,3.362
			s0.976,3.325,2.855,3.325S174.902,196.991,174.902,194.822z"/>
		<path fill="#1E5035" d="M151.817,209.99c0-2.293,0.688-4.164,3.5-4.164c2.8,0,3.5,1.871,3.5,4.164c0,2.329-0.7,4.285-3.5,4.285
			C152.505,214.275,151.817,212.319,151.817,209.99z M153.023,209.99c0,1.75,0.326,3.319,2.294,3.319
			c1.955,0,2.293-1.569,2.293-3.319s-0.338-3.198-2.293-3.198C153.349,206.792,153.023,208.24,153.023,209.99z"/>
		<path fill="#1E5035" d="M165.494,206.972h-3.982v2.655h3.439v1.026h-3.439v3.5h-1.146v-8.207h5.129V206.972z"/>
		<path fill="#1E5035" d="M172.194,206.972h-3.982v2.655h3.439v1.026h-3.439v3.5h-1.146v-8.207h5.129V206.972z"/>
	</g>
</g>
<g>
</g>
<g>
</g>
<g>
</g>
<g>
</g>
<g>
</g>
<g>
</g>
<g>
</g>
<g>
</g>
<g>
</g>
<g>
</g>
<g>
</g>
<g>
</g>
<g>
</g>
<g>
</g>
<g>
</g>
</svg>
