<?xml version="1.0" encoding="utf-8"?>
<!-- Generator: Adobe Illustrator 17.0.0, SVG Export Plug-In . SVG Version: 6.00 Build 0)  -->
<!DOCTYPE svg PUBLIC "-//W3C//DTD SVG 1.1//EN" "http://www.w3.org/Graphics/SVG/1.1/DTD/svg11.dtd">
<svg version="1.1" id="Layer_1" xmlns="http://www.w3.org/2000/svg" xmlns:xlink="http://www.w3.org/1999/xlink" x="0px" y="0px"
	 width="266.333px" height="265px" viewBox="0 0 266.333 265" enable-background="new 0 0 266.333 265" xml:space="preserve">
<g>
	<g>
		<path fill="#1E5035" d="M169.512,95.331c0-5.59,3.055-9.101,8.84-9.101c5.721,0,8.84,3.51,8.84,9.101s-3.119,9.035-8.84,9.035
			C172.567,104.366,169.512,100.921,169.512,95.331z M183.423,95.331c0-3.9-1.69-6.045-5.07-6.045c-3.381,0-5.135,2.145-5.135,6.045
			c0,3.9,1.754,5.98,5.135,5.98C181.732,101.311,183.423,99.231,183.423,95.331z M181.212,130.757h-3.899l24.051-44.202h3.899
			L181.212,130.757z M195.382,122.047c0-5.59,3.056-9.1,8.841-9.1c5.72,0,8.84,3.51,8.84,9.1s-3.12,9.036-8.84,9.036
			C198.438,131.082,195.382,127.637,195.382,122.047z M209.294,122.047c0-3.9-1.69-6.045-5.07-6.045
			c-3.381,0-5.136,2.145-5.136,6.045c0,3.9,1.755,5.98,5.136,5.98C207.603,128.027,209.294,125.947,209.294,122.047z"/>
		<path fill="#1E5035" d="M167.781,149.314c0-4.126,1.237-7.491,6.297-7.491c5.037,0,6.297,3.365,6.297,7.491
			c0,4.19-1.26,7.708-6.297,7.708C169.018,157.022,167.781,153.505,167.781,149.314z M169.952,149.314
			c0,3.148,0.586,5.971,4.126,5.971c3.518,0,4.126-2.822,4.126-5.971s-0.608-5.754-4.126-5.754
			C170.538,143.56,169.952,146.166,169.952,149.314z"/>
		<path fill="#1E5035" d="M192.378,143.885h-7.166v4.777h6.188v1.846h-6.188v6.297h-2.062V142.04h9.229V143.885z"/>
		<path fill="#1E5035" d="M204.424,143.885h-7.166v4.777h6.188v1.846h-6.188v6.297h-2.062V142.04h9.229V143.885z"/>
	</g>
	<rect x="5.99" y="2.666" fill="#16A314" width="254.353" height="30.179"/>
	<g>
		<path fill="#FFFFFF" d="M62.326,19.75h0.042l3.396-9.572h3.863v14.433h-2.908v-9.169h-0.042l-3.438,9.169h-2.123l-3.354-9.169
			H57.72v9.169h-2.844V10.178h3.884L62.326,19.75z"/>
		<path fill="#FFFFFF" d="M74.406,24.611V10.178h2.929v14.433H74.406z"/>
		<path fill="#FFFFFF" d="M85.02,10.178v11.843h6.729v2.59H82.09V10.178H85.02z"/>
		<path fill="#FFFFFF" d="M104.103,21.342H99.54l-0.976,3.269h-3.099l4.669-14.539h3.566l4.606,14.539h-3.226L104.103,21.342z
			 M101.811,13.722l-1.677,5.179h3.375l-1.656-5.179H101.811z"/>
		<path fill="#FFFFFF" d="M112.15,24.611V10.178h2.929l5.773,9.062h0.042v-9.062h2.823v14.433h-2.908l-5.773-8.745h-0.042v8.745
			H112.15z"/>
		<path fill="#FFFFFF" d="M128.029,17.288c0-4.075,1.358-7.323,6.431-7.323c5.072,0,6.409,3.248,6.409,7.323
			c0,4.117-1.337,7.534-6.409,7.534C129.388,24.822,128.029,21.405,128.029,17.288z M131.107,17.288
			c0,2.865,0.509,5.094,3.354,5.094c2.844,0,3.332-2.229,3.332-5.094c0-2.866-0.488-4.882-3.332-4.882
			C131.616,12.406,131.107,14.422,131.107,17.288z"/>
		<path fill="#FFFFFF" d="M160.338,17.16c1.57,0.467,2.61,1.635,2.61,3.502c0,2.463-1.592,3.948-4.605,3.948h-6.538V10.178h6.113
			c3.014,0,4.605,1.358,4.605,3.692c0,1.55-0.849,2.76-2.186,3.248V17.16z M157.599,12.788h-2.865v3.12h2.865
			c1.21,0,1.847-0.446,1.847-1.57C159.446,13.277,158.809,12.788,157.599,12.788z M154.734,18.519v3.502h3.12
			c1.23,0,2.017-0.403,2.017-1.762c0-1.294-0.786-1.74-2.123-1.74H154.734z"/>
		<path fill="#FFFFFF" d="M174.985,21.342h-4.563l-0.977,3.269h-3.099l4.669-14.539h3.566l4.605,14.539h-3.226L174.985,21.342z
			 M172.692,13.722l-1.677,5.179h3.375l-1.655-5.179H172.692z"/>
		<path fill="#FFFFFF" d="M182.035,17.288c0-4.075,1.358-7.323,6.431-7.323c1.72,0,3.184,0.213,5.137,0.807l-0.637,2.441
			c-2.271-0.531-3.142-0.637-4.267-0.637c-2.674,0-3.587,1.846-3.587,4.712c0,3.077,0.913,4.945,3.587,4.945
			c0.743,0,1.358-0.148,1.995-0.403v-2.356h-2.229v-2.61h5.137v6.962c-1.783,0.637-3.227,0.997-5.137,0.997
			C183.393,24.822,182.035,21.427,182.035,17.288z"/>
		<path fill="#FFFFFF" d="M198.169,24.037l0.509-2.44c2.25,0.53,3.842,0.637,4.967,0.637c1.485,0,2.377-0.68,2.377-1.635
			c0-1.337-1.655-1.613-3.332-2.08c-2.505-0.7-4.309-2.08-4.309-4.521c0-2.908,2.398-4.033,5.264-4.033
			c1.635,0,3.12,0.213,5.094,0.807l-0.657,2.441c-2.271-0.531-3.333-0.637-4.437-0.637c-1.485,0-2.187,0.637-2.187,1.507
			c0,1.188,1.55,1.57,3.29,1.995c2.505,0.573,4.352,1.762,4.352,4.287c0,3.078-2.377,4.457-5.455,4.457
			C201.989,24.822,200.142,24.611,198.169,24.037z"/>
	</g>
	<g>
		<g>
			<path fill="#1E5035" d="M69.595,222.155h1.439v-8.923h-1.439v-1.458h8.689v3.095h-1.547v-1.655h-4.065v3.67h3.742v1.403h-3.742
				v3.886h4.065v-1.655h1.565v3.095h-8.708V222.155z"/>
			<path fill="#1E5035" d="M83.013,217.208c0.738-0.792,1.709-1.493,2.824-1.493c0.972,0,1.637,0.378,2.033,0.989
				c0.252,0.432,0.396,0.972,0.396,1.619v3.994h1.206v1.295h-3.904v-1.295h1.151v-3.652c0-0.378-0.054-0.684-0.18-0.918
				c-0.216-0.413-0.594-0.611-1.151-0.611c-0.845,0-1.655,0.504-2.321,1.17v4.012h1.151v1.295h-3.886v-1.295h1.206v-5.128h-1.206
				v-1.331h2.681V217.208z"/>
			<path fill="#1E5035" d="M96.52,222.785c-0.144-0.307-0.234-0.702-0.234-1.134v-4.462h-1.457v-1.331h1.457v-1.781l1.547-0.629
				v2.41h2.356v1.331h-2.356v4.192c0,0.252,0.036,0.432,0.108,0.594c0.144,0.252,0.432,0.377,0.881,0.377
				c0.468,0,1.025-0.216,1.475-0.432l-0.162,1.386c-0.45,0.233-1.025,0.449-1.745,0.449C97.528,223.756,96.862,223.45,96.52,222.785
				z"/>
			<path fill="#1E5035" d="M101.826,219.744c0-2.177,1.583-4.029,4.048-4.029c2.464,0,4.047,1.835,4.047,4.029
				c0,2.159-1.601,4.012-4.047,4.012C103.391,223.756,101.826,221.921,101.826,219.744z M108.32,219.744
				c0-1.583-1.007-2.716-2.446-2.716c-1.458,0-2.465,1.133-2.465,2.716s1.007,2.699,2.465,2.699
				C107.313,222.443,108.32,221.327,108.32,219.744z"/>
			<path fill="#1E5035" d="M111.7,219.78c0-2.213,1.565-4.065,3.778-4.065c0.972,0,1.781,0.359,2.303,0.846v-4.786h-1.331v-1.331
				h2.878v11.874h1.206v1.295h-2.734v-0.989c-0.612,0.647-1.385,1.133-2.465,1.133C113.283,223.756,111.7,222.136,111.7,219.78z
				 M117.781,221.418v-3.599c-0.558-0.432-1.223-0.756-2.123-0.756c-1.331,0-2.356,1.062-2.375,2.699
				c0,1.619,1.025,2.645,2.339,2.645C116.504,222.407,117.205,221.993,117.781,221.418z"/>
			<path fill="#1E5035" d="M122.043,219.744c0-2.177,1.583-4.029,4.048-4.029c2.464,0,4.047,1.835,4.047,4.029
				c0,2.159-1.601,4.012-4.047,4.012C123.608,223.756,122.043,221.921,122.043,219.744z M128.537,219.744
				c0-1.583-1.007-2.716-2.446-2.716c-1.458,0-2.465,1.133-2.465,2.716s1.007,2.699,2.465,2.699
				C127.529,222.443,128.537,221.327,128.537,219.744z"/>
			<path fill="#1E5035" d="M136.179,222.802l4.857-5.703h-3.202v1.493h-1.35v-2.734h6.621v0.792l-4.84,5.702h3.58v-1.475h1.331
				v2.734h-6.998V222.802z"/>
			<path fill="#1E5035" d="M144.723,221.543c0-1.421,1.259-2.338,3.04-2.338c0.81,0,1.709,0.18,2.123,0.306v-0.882
				c0-0.449-0.126-0.81-0.342-1.079c-0.324-0.396-0.864-0.594-1.619-0.594c-0.486,0-0.774,0.107-1.008,0.233
				c0.054,0.126,0.09,0.288,0.09,0.433c0,0.503-0.378,0.881-0.899,0.881c-0.54,0-0.917-0.378-0.917-0.917
				c0-0.918,1.007-1.871,2.986-1.871c1.205,0,2.086,0.359,2.608,0.972c0.396,0.468,0.594,1.079,0.594,1.78v3.851h1.205v1.295h-2.663
				v-0.936c-0.629,0.594-1.619,1.079-2.662,1.079C145.839,223.756,144.723,222.946,144.723,221.543z M149.886,221.669v-1.259
				c-0.522-0.144-1.188-0.27-1.89-0.27c-1.097,0-1.709,0.521-1.709,1.277c0,0.701,0.521,1.169,1.422,1.169
				C148.537,222.587,149.293,222.191,149.886,221.669z"/>
			<path fill="#1E5035" d="M153.698,225.842h1.205v-8.653h-1.205v-1.331h2.681v1.008c0.647-0.666,1.367-1.151,2.482-1.151
				c2.033,0,3.616,1.619,3.616,3.976c0,2.23-1.565,4.065-3.76,4.065c-0.882,0-1.655-0.323-2.267-0.827v2.914h1.385v1.296h-4.138
				V225.842z M160.876,219.708c0-1.619-0.989-2.645-2.303-2.645c-0.881,0-1.547,0.414-2.122,0.99v3.615
				c0.539,0.433,1.223,0.738,2.086,0.738C159.85,222.407,160.876,221.345,160.876,219.708z"/>
			<path fill="#1E5035" d="M164.148,221.543c0-1.421,1.26-2.338,3.04-2.338c0.81,0,1.709,0.18,2.123,0.306v-0.882
				c0-0.449-0.126-0.81-0.342-1.079c-0.323-0.396-0.863-0.594-1.619-0.594c-0.485,0-0.773,0.107-1.007,0.233
				c0.054,0.126,0.09,0.288,0.09,0.433c0,0.503-0.378,0.881-0.899,0.881c-0.54,0-0.918-0.378-0.918-0.917
				c0-0.918,1.008-1.871,2.986-1.871c1.205,0,2.087,0.359,2.608,0.972c0.396,0.468,0.594,1.079,0.594,1.78v3.851h1.205v1.295h-2.662
				v-0.936c-0.63,0.594-1.619,1.079-2.662,1.079C165.263,223.756,164.148,222.946,164.148,221.543z M169.311,221.669v-1.259
				c-0.521-0.144-1.188-0.27-1.889-0.27c-1.098,0-1.709,0.521-1.709,1.277c0,0.701,0.521,1.169,1.421,1.169
				C167.962,222.587,168.717,222.191,169.311,221.669z"/>
			<path fill="#1E5035" d="M174.67,222.785c-0.144-0.307-0.233-0.702-0.233-1.134v-4.462h-1.457v-1.331h1.457v-1.781l1.547-0.629
				v2.41h2.356v1.331h-2.356v4.192c0,0.252,0.036,0.432,0.108,0.594c0.144,0.252,0.432,0.377,0.881,0.377
				c0.468,0,1.025-0.216,1.476-0.432l-0.162,1.386c-0.449,0.233-1.025,0.449-1.745,0.449
				C175.677,223.756,175.011,223.45,174.67,222.785z"/>
			<path fill="#1E5035" d="M179.976,219.744c0-2.177,1.583-4.029,4.048-4.029c2.464,0,4.047,1.835,4.047,4.029
				c0,2.159-1.601,4.012-4.047,4.012C181.541,223.756,179.976,221.921,179.976,219.744z M186.47,219.744
				c0-1.583-1.008-2.716-2.446-2.716c-1.458,0-2.465,1.133-2.465,2.716s1.007,2.699,2.465,2.699
				C185.463,222.443,186.47,221.327,186.47,219.744z"/>
			<path fill="#1E5035" d="M195.283,218.395c-0.54,0-0.936-0.342-0.936-0.864c0-0.126,0.019-0.27,0.072-0.396
				c-0.306-0.144-0.756-0.233-1.241-0.233c-0.99,0-1.529,0.485-1.529,0.989c0,0.575,0.594,0.81,1.835,1.133
				c1.673,0.433,2.896,0.882,2.896,2.339c0,1.548-1.476,2.411-3.166,2.411c-1.17,0-2.357-0.396-2.879-0.918
				c-0.288-0.287-0.432-0.611-0.432-1.007c0-0.504,0.359-0.936,0.882-0.936c0.503,0,0.917,0.342,0.917,0.899
				c0,0.144-0.018,0.27-0.072,0.396c0.288,0.18,0.864,0.36,1.584,0.36c0.935,0,1.69-0.36,1.69-1.044
				c0-0.558-0.558-0.827-1.709-1.115c-1.979-0.504-3.04-0.989-3.04-2.375c0-1.188,1.062-2.32,3.04-2.32
				c1.008,0,2.015,0.323,2.519,0.827c0.27,0.271,0.396,0.594,0.396,0.936C196.11,218.035,195.768,218.395,195.283,218.395z"/>
		</g>
	</g>
	<g>
		<g>
			<g>
				<g>
					<path fill="#1E5035" d="M59.656,98.371l-2.895-7.72c7.827-3.432,14.046-5.361,23.053-5.361
						c15.762,0,23.053,9.972,23.053,21.767c0,15.011-11.044,28.414-32.489,43.425v0.214h33.561v8.578H56.761v-9.328
						c30.666-20.265,35.92-32.81,35.92-40.745c0-13.403-10.187-15.012-15.012-15.012C72.415,94.19,67.269,94.941,59.656,98.371z"/>
					<path fill="#1E5035" d="M111.446,122.282c0-20.372,5.04-36.992,25.734-36.992c20.587,0,25.733,16.62,25.733,36.992
						c0,20.694-5.146,38.064-25.733,38.064C116.486,160.346,111.446,142.976,111.446,122.282z M121.632,122.282
						c0,15.548,2.895,30.022,15.548,30.022c12.545,0,15.547-14.474,15.547-30.022c0-15.547-3.002-28.95-15.547-28.95
						C124.528,93.332,121.632,106.736,121.632,122.282z"/>
				</g>
			</g>
		</g>
	</g>
</g>
<g>
</g>
<g>
</g>
<g>
</g>
<g>
</g>
<g>
</g>
<g>
</g>
<g>
</g>
<g>
</g>
<g>
</g>
<g>
</g>
<g>
</g>
<g>
</g>
<g>
</g>
<g>
</g>
<g>
</g>
</svg>
