<?xml version="1.0" encoding="utf-8"?>
<!-- Generator: Adobe Illustrator 17.0.0, SVG Export Plug-In . SVG Version: 6.00 Build 0)  -->
<!DOCTYPE svg PUBLIC "-//W3C//DTD SVG 1.1//EN" "http://www.w3.org/Graphics/SVG/1.1/DTD/svg11.dtd">
<svg version="1.1" id="Layer_1" xmlns="http://www.w3.org/2000/svg" xmlns:xlink="http://www.w3.org/1999/xlink" x="0px" y="0px"
	 width="266.333px" height="265px" viewBox="0 0 266.333 265" enable-background="new 0 0 266.333 265" xml:space="preserve">
<g>
	<g>
		<path fill="#1E5035" d="M167.401,97.086c0-5.59,3.055-9.101,8.84-9.101c5.721,0,8.84,3.51,8.84,9.101s-3.119,9.035-8.84,9.035
			C170.456,106.121,167.401,102.676,167.401,97.086z M181.311,97.086c0-3.9-1.69-6.045-5.07-6.045c-3.381,0-5.135,2.145-5.135,6.045
			c0,3.9,1.754,5.98,5.135,5.98C179.621,103.066,181.311,100.986,181.311,97.086z M179.1,132.512h-3.899l24.051-44.202h3.899
			L179.1,132.512z M193.271,123.801c0-5.59,3.056-9.1,8.841-9.1c5.72,0,8.84,3.51,8.84,9.1c0,5.59-3.12,9.036-8.84,9.036
			C196.327,132.837,193.271,129.392,193.271,123.801z M207.182,123.801c0-3.9-1.69-6.045-5.07-6.045
			c-3.381,0-5.136,2.145-5.136,6.045c0,3.9,1.755,5.98,5.136,5.98C205.492,129.782,207.182,127.702,207.182,123.801z"/>
		<path fill="#1E5035" d="M165.67,151.069c0-4.126,1.237-7.491,6.297-7.491c5.037,0,6.297,3.365,6.297,7.491
			c0,4.19-1.26,7.708-6.297,7.708C166.907,158.777,165.67,155.259,165.67,151.069z M167.84,151.069c0,3.148,0.586,5.971,4.126,5.971
			c3.518,0,4.126-2.822,4.126-5.971s-0.608-5.754-4.126-5.754C168.426,145.315,167.84,147.921,167.84,151.069z"/>
		<path fill="#1E5035" d="M190.266,145.64H183.1v4.777h6.188v1.846H183.1v6.297h-2.062v-14.766h9.229V145.64z"/>
		<path fill="#1E5035" d="M202.313,145.64h-7.166v4.777h6.188v1.846h-6.188v6.297h-2.062v-14.766h9.229V145.64z"/>
	</g>
	<g>
		<g>
			<path fill="#1E5035" d="M20.808,210.519h1.439v-8.923h-1.439v-1.457h8.689v3.094H27.95v-1.655h-4.065v3.67h3.742v1.403h-3.742
				v3.887h4.065v-1.655h1.565v3.094h-8.708V210.519z"/>
			<path fill="#1E5035" d="M34.226,205.572c0.738-0.791,1.709-1.493,2.824-1.493c0.972,0,1.637,0.378,2.033,0.989
				c0.252,0.432,0.396,0.972,0.396,1.619v3.994h1.206v1.295h-3.904v-1.295h1.151v-3.652c0-0.378-0.054-0.684-0.18-0.917
				c-0.216-0.414-0.594-0.612-1.151-0.612c-0.845,0-1.655,0.504-2.321,1.17v4.012h1.151v1.295h-3.886v-1.295h1.206v-5.127h-1.206
				v-1.332h2.681V205.572z"/>
			<path fill="#1E5035" d="M46.33,214.208h1.206v-8.653H46.33v-1.332h2.681v1.008c0.648-0.666,1.367-1.151,2.483-1.151
				c2.033,0,3.616,1.619,3.616,3.976c0,2.231-1.565,4.066-3.76,4.066c-0.881,0-1.655-0.324-2.267-0.828v2.915h1.385v1.295H46.33
				V214.208z M53.508,208.073c0-1.619-0.989-2.645-2.303-2.645c-0.881,0-1.547,0.413-2.123,0.989v3.616
				c0.54,0.432,1.223,0.737,2.086,0.737C52.483,210.771,53.508,209.71,53.508,208.073z"/>
			<path fill="#1E5035" d="M63.22,205.213c0,0.558-0.45,1.043-0.989,1.043c-0.522,0-0.882-0.323-1.026-0.666
				c-0.576,0.181-1.241,0.828-1.619,1.565v3.526h1.421v1.295h-4.156v-1.295h1.206v-5.127h-1.206v-1.332h2.681v1.764
				c0.612-1.062,1.511-1.907,2.411-1.907C62.789,204.079,63.22,204.6,63.22,205.213z"/>
			<path fill="#1E5035" d="M64.281,208.109c0-2.177,1.583-4.03,4.048-4.03c2.464,0,4.047,1.835,4.047,4.03
				c0,2.158-1.601,4.012-4.047,4.012C65.846,212.121,64.281,210.286,64.281,208.109z M70.775,208.109
				c0-1.584-1.007-2.717-2.446-2.717c-1.458,0-2.465,1.133-2.465,2.717c0,1.583,1.007,2.698,2.465,2.698
				C69.768,210.807,70.775,209.692,70.775,208.109z"/>
			<path fill="#1E5035" d="M74.155,208.144c0-2.212,1.565-4.065,3.778-4.065c0.971,0,1.781,0.359,2.303,0.846v-4.785h-1.332v-1.332
				h2.879v11.874h1.205v1.295h-2.734v-0.989c-0.612,0.647-1.385,1.134-2.465,1.134C75.738,212.121,74.155,210.502,74.155,208.144z
				 M80.236,209.782v-3.599c-0.558-0.432-1.223-0.755-2.123-0.755c-1.331,0-2.356,1.062-2.375,2.698
				c0,1.619,1.025,2.645,2.339,2.645C78.958,210.771,79.66,210.357,80.236,209.782z"/>
			<path fill="#1E5035" d="M85.738,211.095c-0.234-0.433-0.36-0.954-0.36-1.584v-3.957h-1.205v-1.332h2.734v4.947
				c0,0.396,0.072,0.702,0.198,0.936c0.216,0.414,0.576,0.594,1.133,0.594c0.846,0,1.637-0.521,2.321-1.169v-3.976h-1.241v-1.332
				h2.789v6.459h1.205v1.295h-2.698v-1.349c-0.738,0.791-1.709,1.493-2.825,1.493C86.799,212.121,86.134,211.724,85.738,211.095z"/>
			<path fill="#1E5035" d="M94.875,208.073c0-2.087,1.673-3.994,3.886-3.994c1.925,0,3.328,1.26,3.328,2.446
				c0,0.684-0.468,1.151-1.097,1.151c-0.504,0-0.972-0.396-0.972-0.971c0-0.252,0.126-0.504,0.324-0.648
				c-0.18-0.359-0.827-0.701-1.583-0.701c-1.043,0-2.321,0.882-2.321,2.753c0,1.601,1.169,2.68,2.771,2.68
				c0.899,0,1.709-0.27,2.663-0.827l-0.144,1.421c-0.792,0.504-1.709,0.738-2.662,0.738
				C96.656,212.121,94.875,210.465,94.875,208.073z"/>
			<path fill="#1E5035" d="M105.163,211.149c-0.144-0.306-0.234-0.702-0.234-1.134v-4.461h-1.457v-1.332h1.457v-1.78l1.547-0.63
				v2.41h2.356v1.332h-2.356v4.191c0,0.252,0.036,0.432,0.108,0.594c0.144,0.252,0.432,0.378,0.881,0.378
				c0.468,0,1.025-0.216,1.475-0.432l-0.162,1.385c-0.45,0.234-1.025,0.45-1.745,0.45
				C106.171,212.121,105.505,211.814,105.163,211.149z"/>
			<path fill="#1E5035" d="M110.469,208.109c0-2.177,1.583-4.03,4.048-4.03c2.464,0,4.047,1.835,4.047,4.03
				c0,2.158-1.601,4.012-4.047,4.012C112.034,212.121,110.469,210.286,110.469,208.109z M116.963,208.109
				c0-1.584-1.007-2.717-2.446-2.717c-1.458,0-2.465,1.133-2.465,2.717c0,1.583,1.007,2.698,2.465,2.698
				C115.956,210.807,116.963,209.692,116.963,208.109z"/>
			<path fill="#1E5035" d="M125.777,206.759c-0.54,0-0.936-0.342-0.936-0.863c0-0.126,0.018-0.271,0.072-0.396
				c-0.306-0.144-0.755-0.233-1.241-0.233c-0.99,0-1.529,0.485-1.529,0.989c0,0.576,0.594,0.81,1.835,1.134
				c1.673,0.432,2.896,0.881,2.896,2.339c0,1.547-1.475,2.41-3.166,2.41c-1.169,0-2.357-0.396-2.878-0.917
				c-0.288-0.288-0.432-0.612-0.432-1.008c0-0.504,0.36-0.936,0.882-0.936c0.503,0,0.917,0.342,0.917,0.899
				c0,0.144-0.018,0.27-0.072,0.396c0.288,0.181,0.864,0.36,1.583,0.36c0.935,0,1.691-0.36,1.691-1.044
				c0-0.558-0.558-0.827-1.709-1.115c-1.979-0.504-3.041-0.989-3.041-2.375c0-1.187,1.062-2.32,3.041-2.32
				c1.007,0,2.015,0.324,2.519,0.827c0.27,0.271,0.396,0.594,0.396,0.936C126.604,206.399,126.262,206.759,125.777,206.759z"/>
			<path fill="#1E5035" d="M138.547,206.759c-0.539,0-0.936-0.342-0.936-0.863c0-0.126,0.019-0.271,0.072-0.396
				c-0.306-0.144-0.756-0.233-1.241-0.233c-0.989,0-1.529,0.485-1.529,0.989c0,0.576,0.594,0.81,1.835,1.134
				c1.673,0.432,2.896,0.881,2.896,2.339c0,1.547-1.476,2.41-3.166,2.41c-1.17,0-2.356-0.396-2.879-0.917
				c-0.287-0.288-0.432-0.612-0.432-1.008c0-0.504,0.36-0.936,0.882-0.936c0.504,0,0.917,0.342,0.917,0.899
				c0,0.144-0.018,0.27-0.071,0.396c0.287,0.181,0.863,0.36,1.583,0.36c0.936,0,1.69-0.36,1.69-1.044
				c0-0.558-0.558-0.827-1.709-1.115c-1.979-0.504-3.04-0.989-3.04-2.375c0-1.187,1.062-2.32,3.04-2.32
				c1.008,0,2.016,0.324,2.519,0.827c0.271,0.271,0.396,0.594,0.396,0.936C139.375,206.399,139.033,206.759,138.547,206.759z"/>
			<path fill="#1E5035" d="M143.007,208.594c0.216,1.476,1.295,2.194,2.807,2.194c0.989,0,1.835-0.306,2.752-0.827l-0.126,1.421
				c-0.81,0.504-1.799,0.738-2.86,0.738c-2.5,0-4.191-1.619-4.191-3.994c0-2.177,1.493-4.048,3.85-4.048
				c2.393,0,3.652,1.709,3.652,3.688c0,0.287-0.036,0.593-0.072,0.827H143.007z M143.007,207.443h4.336
				c-0.072-1.241-0.828-2.087-2.142-2.087C144.158,205.356,143.205,206.04,143.007,207.443z"/>
			<path fill="#1E5035" d="M150.434,210.681h1.259v-10.542h-1.259v-1.332h2.806v11.874h1.242v1.295h-4.048V210.681z"/>
			<path fill="#1E5035" d="M157.682,208.594c0.216,1.476,1.295,2.194,2.807,2.194c0.989,0,1.835-0.306,2.752-0.827l-0.126,1.421
				c-0.81,0.504-1.799,0.738-2.86,0.738c-2.5,0-4.191-1.619-4.191-3.994c0-2.177,1.493-4.048,3.85-4.048
				c2.393,0,3.652,1.709,3.652,3.688c0,0.287-0.036,0.593-0.072,0.827H157.682z M157.682,207.443h4.336
				c-0.072-1.241-0.828-2.087-2.142-2.087C158.834,205.356,157.881,206.04,157.682,207.443z"/>
			<path fill="#1E5035" d="M165.272,208.073c0-2.087,1.674-3.994,3.887-3.994c1.925,0,3.328,1.26,3.328,2.446
				c0,0.684-0.468,1.151-1.098,1.151c-0.504,0-0.972-0.396-0.972-0.971c0-0.252,0.126-0.504,0.324-0.648
				c-0.181-0.359-0.828-0.701-1.583-0.701c-1.044,0-2.321,0.882-2.321,2.753c0,1.601,1.17,2.68,2.771,2.68
				c0.899,0,1.709-0.27,2.663-0.827l-0.145,1.421c-0.791,0.504-1.709,0.738-2.662,0.738
				C167.053,212.121,165.272,210.465,165.272,208.073z"/>
			<path fill="#1E5035" d="M174.193,208.073c0-2.087,1.674-3.994,3.887-3.994c1.925,0,3.328,1.26,3.328,2.446
				c0,0.684-0.468,1.151-1.098,1.151c-0.504,0-0.972-0.396-0.972-0.971c0-0.252,0.126-0.504,0.324-0.648
				c-0.181-0.359-0.828-0.701-1.583-0.701c-1.044,0-2.321,0.882-2.321,2.753c0,1.601,1.17,2.68,2.771,2.68
				c0.899,0,1.709-0.27,2.663-0.827l-0.145,1.421c-0.791,0.504-1.709,0.738-2.662,0.738
				C175.974,212.121,174.193,210.465,174.193,208.073z"/>
			<path fill="#1E5035" d="M183.241,210.681h1.26v-5.127h-1.26v-1.332h2.807v6.459h1.241v1.295h-4.048V210.681z M183.978,201.452
				c0-0.611,0.522-1.115,1.134-1.115c0.594,0,1.115,0.504,1.115,1.115c0,0.63-0.54,1.134-1.134,1.134
				C184.482,202.586,183.978,202.082,183.978,201.452z"/>
			<path fill="#1E5035" d="M188.961,208.109c0-2.177,1.583-4.03,4.048-4.03s4.048,1.835,4.048,4.03c0,2.158-1.602,4.012-4.048,4.012
				C190.526,212.121,188.961,210.286,188.961,208.109z M195.455,208.109c0-1.584-1.007-2.717-2.446-2.717
				c-1.457,0-2.465,1.133-2.465,2.717c0,1.583,1.008,2.698,2.465,2.698C194.448,210.807,195.455,209.692,195.455,208.109z"/>
			<path fill="#1E5035" d="M201.461,205.572c0.738-0.791,1.71-1.493,2.825-1.493c0.971,0,1.637,0.378,2.032,0.989
				c0.252,0.432,0.396,0.972,0.396,1.619v3.994h1.205v1.295h-3.904v-1.295h1.151v-3.652c0-0.378-0.054-0.684-0.18-0.917
				c-0.216-0.414-0.594-0.612-1.151-0.612c-0.846,0-1.655,0.504-2.32,1.17v4.012h1.151v1.295h-3.886v-1.295h1.205v-5.127h-1.205
				v-1.332h2.68V205.572z"/>
			<path fill="#1E5035" d="M209.248,209.908c0-1.422,1.26-2.339,3.041-2.339c0.81,0,1.709,0.18,2.122,0.306v-0.882
				c0-0.449-0.126-0.81-0.342-1.079c-0.323-0.396-0.863-0.594-1.619-0.594c-0.485,0-0.773,0.108-1.007,0.234
				c0.054,0.126,0.09,0.287,0.09,0.432c0,0.504-0.378,0.881-0.899,0.881c-0.54,0-0.918-0.377-0.918-0.917
				c0-0.918,1.008-1.871,2.986-1.871c1.206,0,2.087,0.359,2.608,0.972c0.396,0.468,0.594,1.079,0.594,1.781v3.85h1.206v1.295h-2.663
				v-0.936c-0.63,0.594-1.619,1.08-2.662,1.08C210.363,212.121,209.248,211.311,209.248,209.908z M214.411,210.034v-1.26
				c-0.521-0.144-1.187-0.27-1.889-0.27c-1.098,0-1.709,0.521-1.709,1.277c0,0.701,0.521,1.169,1.421,1.169
				C213.062,210.951,213.817,210.555,214.411,210.034z"/>
			<path fill="#1E5035" d="M218.422,208.144c0-2.212,1.565-4.065,3.777-4.065c0.972,0,1.781,0.359,2.303,0.846v-4.785h-1.331v-1.332
				h2.879v11.874h1.205v1.295h-2.734v-0.989c-0.611,0.647-1.386,1.134-2.465,1.134C220.005,212.121,218.422,210.502,218.422,208.144
				z M224.502,209.782v-3.599c-0.558-0.432-1.223-0.755-2.122-0.755c-1.332,0-2.357,1.062-2.375,2.698
				c0,1.619,1.025,2.645,2.339,2.645C223.225,210.771,223.926,210.357,224.502,209.782z"/>
			<path fill="#1E5035" d="M228.763,208.109c0-2.177,1.583-4.03,4.048-4.03s4.048,1.835,4.048,4.03c0,2.158-1.602,4.012-4.048,4.012
				C230.329,212.121,228.763,210.286,228.763,208.109z M235.257,208.109c0-1.584-1.007-2.717-2.446-2.717
				c-1.457,0-2.465,1.133-2.465,2.717c0,1.583,1.008,2.698,2.465,2.698C234.251,210.807,235.257,209.692,235.257,208.109z"/>
			<path fill="#1E5035" d="M244.07,206.759c-0.539,0-0.936-0.342-0.936-0.863c0-0.126,0.019-0.271,0.072-0.396
				c-0.306-0.144-0.756-0.233-1.241-0.233c-0.989,0-1.529,0.485-1.529,0.989c0,0.576,0.594,0.81,1.835,1.134
				c1.673,0.432,2.896,0.881,2.896,2.339c0,1.547-1.476,2.41-3.166,2.41c-1.17,0-2.356-0.396-2.879-0.917
				c-0.287-0.288-0.432-0.612-0.432-1.008c0-0.504,0.36-0.936,0.882-0.936c0.504,0,0.917,0.342,0.917,0.899
				c0,0.144-0.018,0.27-0.071,0.396c0.287,0.181,0.863,0.36,1.583,0.36c0.936,0,1.69-0.36,1.69-1.044
				c0-0.558-0.558-0.827-1.709-1.115c-1.979-0.504-3.04-0.989-3.04-2.375c0-1.187,1.062-2.32,3.04-2.32
				c1.008,0,2.016,0.324,2.519,0.827c0.271,0.271,0.396,0.594,0.396,0.936C244.898,206.399,244.556,206.759,244.07,206.759z"/>
		</g>
	</g>
	<rect x="6.4" y="2.666" fill="#16A314" width="253.534" height="30.082"/>
	<g>
		<path fill="#FFFFFF" d="M103.755,11.537v11.81h6.709v2.582h-9.629V11.537H103.755z"/>
		<path fill="#FFFFFF" d="M124.536,14.141h-6.815v3.068h5.863v2.582h-5.863v3.556h6.921v2.582H114.8V11.537h9.735V14.141z"/>
		<path fill="#FFFFFF" d="M135.072,22.395l3.217-10.857h3.069l-4.593,14.497h-3.555l-4.656-14.497h3.238l3.259,10.857H135.072z"/>
		<path fill="#FFFFFF" d="M145.186,25.929V11.537h2.921v14.392H145.186z"/>
		<path fill="#FFFFFF" d="M152.254,25.358l0.508-2.434c2.244,0.528,3.831,0.635,4.953,0.635c1.481,0,2.37-0.678,2.37-1.63
			c0-1.333-1.651-1.608-3.323-2.074c-2.497-0.698-4.296-2.074-4.296-4.508c0-2.899,2.392-4.021,5.249-4.021
			c1.629,0,3.11,0.212,5.079,0.805l-0.656,2.434c-2.265-0.529-3.323-0.635-4.423-0.635c-1.481,0-2.181,0.635-2.181,1.503
			c0,1.185,1.545,1.565,3.28,1.989c2.498,0.571,4.339,1.757,4.339,4.275c0,3.068-2.37,4.444-5.438,4.444
			C156.063,26.141,154.222,25.929,152.254,25.358z"/>
	</g>
	<g>
		<g>
			<g>
				<path fill="#1E5035" d="M57.91,97.323l-2.886-7.696c7.803-3.421,14.002-5.345,22.981-5.345c15.712,0,22.981,9.94,22.981,21.698
					c0,14.965-11.01,28.325-32.387,43.29v0.214h33.456v8.551H55.024v-9.299c30.57-20.202,35.807-32.708,35.807-40.618
					c0-13.36-10.154-14.964-14.964-14.964C70.63,93.154,65.499,93.903,57.91,97.323z"/>
				<path fill="#1E5035" d="M109.533,121.159c0-20.309,5.023-36.877,25.653-36.877c20.522,0,25.653,16.568,25.653,36.877
					c0,20.628-5.131,37.945-25.653,37.945C114.557,159.104,109.533,141.788,109.533,121.159z M119.688,121.159
					c0,15.498,2.886,29.928,15.499,29.928c12.506,0,15.499-14.43,15.499-29.928c0-15.499-2.993-28.86-15.499-28.86
					C122.573,92.299,119.688,105.66,119.688,121.159z"/>
			</g>
		</g>
	</g>
</g>
<g>
</g>
<g>
</g>
<g>
</g>
<g>
</g>
<g>
</g>
<g>
</g>
<g>
</g>
<g>
</g>
<g>
</g>
<g>
</g>
<g>
</g>
<g>
</g>
<g>
</g>
<g>
</g>
<g>
</g>
</svg>
