<?xml version="1.0" encoding="utf-8"?>
<!-- Generator: Adobe Illustrator 17.0.0, SVG Export Plug-In . SVG Version: 6.00 Build 0)  -->
<!DOCTYPE svg PUBLIC "-//W3C//DTD SVG 1.1//EN" "http://www.w3.org/Graphics/SVG/1.1/DTD/svg11.dtd">
<svg version="1.1" id="Layer_1" xmlns="http://www.w3.org/2000/svg" xmlns:xlink="http://www.w3.org/1999/xlink" x="0px" y="0px"
	 width="266.333px" height="265px" viewBox="0 0 266.333 265" enable-background="new 0 0 266.333 265" xml:space="preserve">
<g>
	<rect x="6.4" y="2.666" fill="#16A314" width="253.534" height="30.082"/>
	<g>
		<path fill="#FFFFFF" d="M65.826,14.305v11.788h-2.92V14.305h-3.789v-2.604h10.476v2.604H65.826z"/>
		<path fill="#FFFFFF" d="M73.93,26.093V11.702h2.92v14.392H73.93z"/>
		<path fill="#FFFFFF" d="M89.018,21.247h0.042l3.386-9.545h3.852v14.392h-2.899v-9.143h-0.042l-3.429,9.143h-2.116l-3.344-9.143
			h-0.042v9.143h-2.836V11.702h3.873L89.018,21.247z"/>
		<path fill="#FFFFFF" d="M109.564,18.665c1.566,0.466,2.603,1.63,2.603,3.492c0,2.455-1.587,3.937-4.592,3.937h-6.519V11.702h6.095
			c3.005,0,4.592,1.354,4.592,3.683c0,1.545-0.846,2.751-2.18,3.238V18.665z M106.834,14.305h-2.857v3.111h2.857
			c1.206,0,1.841-0.444,1.841-1.566C108.676,14.792,108.041,14.305,106.834,14.305z M103.977,20.019v3.492h3.111
			c1.228,0,2.011-0.402,2.011-1.756c0-1.291-0.783-1.736-2.117-1.736H103.977z"/>
		<path fill="#FFFFFF" d="M126.239,14.305h-6.815v3.068h5.863v2.582h-5.863v3.556h6.921v2.582h-9.841V11.702h9.735V14.305z"/>
		<path fill="#FFFFFF" d="M138.913,26.093l-3.025-5.122h-2.074v5.122h-2.921V11.702h6.138c3.026,0,4.762,1.82,4.762,4.635
			c0,1.947-0.91,3.577-2.857,4.148l3.365,5.608H138.913z M133.813,18.369h2.857c1.205,0,2.137-0.529,2.137-2.032
			c0-1.46-0.867-2.032-2.096-2.032h-2.898V18.369z"/>
		<path fill="#FFFFFF" d="M149.366,11.702v11.81h6.709v2.582h-9.63V11.702H149.366z"/>
		<path fill="#FFFFFF" d="M168.389,22.834h-4.55l-0.974,3.259h-3.09l4.656-14.497h3.555l4.594,14.497h-3.218L168.389,22.834z
			 M166.104,15.236l-1.672,5.164h3.365l-1.651-5.164H166.104z"/>
		<path fill="#FFFFFF" d="M176.408,26.093V11.702h2.921l5.756,9.037h0.043v-9.037h2.814v14.392h-2.899l-5.757-8.72h-0.042v8.72
			H176.408z"/>
		<path fill="#FFFFFF" d="M192.702,26.093V11.702h5.375c4.953,0,6.371,3.026,6.371,7.09c0,4.106-1.418,7.302-6.371,7.302H192.702z
			 M198.077,23.511c2.73,0,3.302-1.862,3.302-4.72c0-2.857-0.571-4.486-3.302-4.486h-2.455v9.206H198.077z"/>
	</g>
	<g>
		<g>
			<path fill="#1E5035" d="M20.808,209.789h1.439v-8.924h-1.439v-1.457h8.689v3.095H27.95v-1.655h-4.065v3.67h3.742v1.403h-3.742
				v3.886h4.065v-1.655h1.565v3.095h-8.708V209.789z"/>
			<path fill="#1E5035" d="M34.226,204.842c0.738-0.792,1.709-1.493,2.824-1.493c0.972,0,1.637,0.377,2.033,0.989
				c0.252,0.432,0.396,0.972,0.396,1.619v3.993h1.206v1.296h-3.904v-1.296h1.151v-3.651c0-0.378-0.054-0.684-0.18-0.918
				c-0.216-0.413-0.594-0.611-1.151-0.611c-0.845,0-1.655,0.504-2.321,1.169v4.012h1.151v1.296h-3.886v-1.296h1.206v-5.127h-1.206
				v-1.331h2.681V204.842z"/>
			<path fill="#1E5035" d="M46.33,213.477h1.206v-8.653H46.33v-1.331h2.681v1.008c0.648-0.666,1.367-1.151,2.483-1.151
				c2.033,0,3.616,1.619,3.616,3.976c0,2.23-1.565,4.065-3.76,4.065c-0.881,0-1.655-0.323-2.267-0.827v2.914h1.385v1.295H46.33
				V213.477z M53.508,207.342c0-1.619-0.989-2.645-2.303-2.645c-0.881,0-1.547,0.414-2.123,0.989v3.616
				c0.54,0.432,1.223,0.737,2.086,0.737C52.482,210.04,53.508,208.979,53.508,207.342z"/>
			<path fill="#1E5035" d="M63.22,204.481c0,0.558-0.45,1.044-0.989,1.044c-0.522,0-0.882-0.324-1.026-0.666
				c-0.576,0.18-1.241,0.827-1.619,1.565v3.525h1.421v1.296h-4.156v-1.296h1.206v-5.127h-1.206v-1.331h2.681v1.763
				c0.612-1.062,1.511-1.906,2.411-1.906C62.789,203.349,63.22,203.87,63.22,204.481z"/>
			<path fill="#1E5035" d="M64.281,207.378c0-2.177,1.583-4.029,4.048-4.029c2.464,0,4.047,1.835,4.047,4.029
				c0,2.159-1.601,4.012-4.047,4.012C65.846,211.39,64.281,209.555,64.281,207.378z M70.775,207.378
				c0-1.583-1.007-2.717-2.446-2.717c-1.458,0-2.465,1.134-2.465,2.717s1.007,2.698,2.465,2.698
				C69.768,210.076,70.775,208.961,70.775,207.378z"/>
			<path fill="#1E5035" d="M74.155,207.414c0-2.213,1.565-4.065,3.778-4.065c0.971,0,1.781,0.359,2.303,0.845v-4.785h-1.332v-1.331
				h2.879v11.873h1.205v1.296h-2.734v-0.989c-0.612,0.647-1.385,1.133-2.465,1.133C75.738,211.39,74.155,209.771,74.155,207.414z
				 M80.235,209.051v-3.598c-0.558-0.432-1.223-0.756-2.123-0.756c-1.331,0-2.356,1.062-2.375,2.698
				c0,1.619,1.025,2.645,2.339,2.645C78.958,210.04,79.66,209.627,80.235,209.051z"/>
			<path fill="#1E5035" d="M85.738,210.364c-0.234-0.432-0.36-0.953-0.36-1.583v-3.958h-1.205v-1.331h2.734v4.947
				c0,0.396,0.072,0.701,0.198,0.936c0.216,0.414,0.576,0.594,1.133,0.594c0.846,0,1.637-0.521,2.321-1.17v-3.976h-1.241v-1.331
				h2.789v6.458h1.205v1.296h-2.698v-1.35c-0.738,0.792-1.709,1.493-2.825,1.493C86.799,211.39,86.134,210.994,85.738,210.364z"/>
			<path fill="#1E5035" d="M94.875,207.342c0-2.087,1.673-3.993,3.886-3.993c1.925,0,3.328,1.259,3.328,2.446
				c0,0.684-0.468,1.151-1.097,1.151c-0.504,0-0.972-0.396-0.972-0.972c0-0.252,0.126-0.504,0.324-0.647
				c-0.18-0.359-0.827-0.701-1.583-0.701c-1.043,0-2.321,0.881-2.321,2.752c0,1.602,1.169,2.681,2.771,2.681
				c0.899,0,1.709-0.27,2.663-0.827l-0.144,1.421c-0.792,0.504-1.709,0.737-2.662,0.737
				C96.656,211.39,94.875,209.734,94.875,207.342z"/>
			<path fill="#1E5035" d="M105.163,210.418c-0.144-0.306-0.234-0.701-0.234-1.133v-4.462h-1.457v-1.331h1.457v-1.781l1.547-0.63
				v2.411h2.356v1.331h-2.356v4.191c0,0.252,0.036,0.433,0.108,0.594c0.144,0.252,0.432,0.378,0.881,0.378
				c0.468,0,1.025-0.216,1.475-0.432l-0.162,1.386c-0.45,0.233-1.025,0.449-1.745,0.449
				C106.171,211.39,105.505,211.084,105.163,210.418z"/>
			<path fill="#1E5035" d="M110.469,207.378c0-2.177,1.583-4.029,4.048-4.029c2.464,0,4.047,1.835,4.047,4.029
				c0,2.159-1.601,4.012-4.047,4.012C112.034,211.39,110.469,209.555,110.469,207.378z M116.963,207.378
				c0-1.583-1.007-2.717-2.446-2.717c-1.458,0-2.465,1.134-2.465,2.717s1.007,2.698,2.465,2.698
				C115.956,210.076,116.963,208.961,116.963,207.378z"/>
			<path fill="#1E5035" d="M125.776,206.028c-0.54,0-0.936-0.342-0.936-0.863c0-0.126,0.018-0.27,0.072-0.396
				c-0.306-0.144-0.755-0.234-1.241-0.234c-0.99,0-1.529,0.486-1.529,0.99c0,0.575,0.594,0.81,1.835,1.133
				c1.673,0.432,2.896,0.882,2.896,2.339c0,1.547-1.475,2.411-3.166,2.411c-1.169,0-2.357-0.396-2.878-0.918
				c-0.288-0.288-0.432-0.611-0.432-1.008c0-0.503,0.36-0.936,0.882-0.936c0.503,0,0.917,0.342,0.917,0.9
				c0,0.144-0.018,0.27-0.072,0.396c0.288,0.18,0.864,0.359,1.583,0.359c0.935,0,1.691-0.359,1.691-1.043
				c0-0.558-0.558-0.828-1.709-1.115c-1.979-0.504-3.041-0.99-3.041-2.375c0-1.188,1.062-2.32,3.041-2.32
				c1.007,0,2.015,0.323,2.519,0.827c0.27,0.27,0.396,0.594,0.396,0.936C126.604,205.669,126.262,206.028,125.776,206.028z"/>
			<path fill="#1E5035" d="M138.546,206.028c-0.54,0-0.936-0.342-0.936-0.863c0-0.126,0.019-0.27,0.071-0.396
				c-0.305-0.144-0.755-0.234-1.24-0.234c-0.99,0-1.529,0.486-1.529,0.99c0,0.575,0.594,0.81,1.834,1.133
				c1.674,0.432,2.896,0.882,2.896,2.339c0,1.547-1.475,2.411-3.166,2.411c-1.169,0-2.356-0.396-2.878-0.918
				c-0.288-0.288-0.432-0.611-0.432-1.008c0-0.503,0.36-0.936,0.882-0.936c0.503,0,0.917,0.342,0.917,0.9
				c0,0.144-0.019,0.27-0.072,0.396c0.288,0.18,0.864,0.359,1.583,0.359c0.936,0,1.691-0.359,1.691-1.043
				c0-0.558-0.558-0.828-1.709-1.115c-1.979-0.504-3.041-0.99-3.041-2.375c0-1.188,1.062-2.32,3.041-2.32
				c1.008,0,2.015,0.323,2.519,0.827c0.27,0.27,0.396,0.594,0.396,0.936C139.374,205.669,139.032,206.028,138.546,206.028z"/>
			<path fill="#1E5035" d="M143.006,207.863c0.215,1.476,1.295,2.195,2.807,2.195c0.988,0,1.834-0.306,2.752-0.827l-0.126,1.421
				c-0.81,0.504-1.8,0.737-2.86,0.737c-2.501,0-4.191-1.619-4.191-3.994c0-2.177,1.492-4.047,3.85-4.047
				c2.393,0,3.652,1.709,3.652,3.688c0,0.288-0.037,0.594-0.072,0.827H143.006z M143.006,206.712h4.335
				c-0.071-1.241-0.827-2.086-2.141-2.086C144.157,204.626,143.204,205.31,143.006,206.712z"/>
			<path fill="#1E5035" d="M150.434,209.95h1.259v-10.542h-1.259v-1.331h2.807v11.873h1.24v1.296h-4.047V209.95z"/>
			<path fill="#1E5035" d="M157.682,207.863c0.217,1.476,1.296,2.195,2.807,2.195c0.99,0,1.836-0.306,2.753-0.827l-0.126,1.421
				c-0.81,0.504-1.799,0.737-2.86,0.737c-2.501,0-4.192-1.619-4.192-3.994c0-2.177,1.494-4.047,3.851-4.047
				c2.393,0,3.651,1.709,3.651,3.688c0,0.288-0.035,0.594-0.071,0.827H157.682z M157.682,206.712h4.336
				c-0.072-1.241-0.827-2.086-2.141-2.086C158.834,204.626,157.88,205.31,157.682,206.712z"/>
			<path fill="#1E5035" d="M165.272,207.342c0-2.087,1.674-3.993,3.887-3.993c1.924,0,3.328,1.259,3.328,2.446
				c0,0.684-0.469,1.151-1.098,1.151c-0.504,0-0.972-0.396-0.972-0.972c0-0.252,0.126-0.504,0.323-0.647
				c-0.18-0.359-0.826-0.701-1.582-0.701c-1.044,0-2.321,0.881-2.321,2.752c0,1.602,1.169,2.681,2.771,2.681
				c0.899,0,1.709-0.27,2.662-0.827l-0.144,1.421c-0.792,0.504-1.709,0.737-2.662,0.737
				C167.053,211.39,165.272,209.734,165.272,207.342z"/>
			<path fill="#1E5035" d="M174.194,207.342c0-2.087,1.672-3.993,3.885-3.993c1.926,0,3.328,1.259,3.328,2.446
				c0,0.684-0.467,1.151-1.097,1.151c-0.504,0-0.972-0.396-0.972-0.972c0-0.252,0.126-0.504,0.324-0.647
				c-0.18-0.359-0.828-0.701-1.584-0.701c-1.043,0-2.32,0.881-2.32,2.752c0,1.602,1.17,2.681,2.771,2.681
				c0.899,0,1.709-0.27,2.663-0.827l-0.145,1.421c-0.791,0.504-1.709,0.737-2.662,0.737
				C175.974,211.39,174.194,209.734,174.194,207.342z"/>
			<path fill="#1E5035" d="M183.241,209.95h1.259v-5.127h-1.259v-1.331h2.807v6.458h1.24v1.296h-4.047V209.95z M183.978,200.722
				c0-0.611,0.521-1.115,1.134-1.115c0.594,0,1.115,0.504,1.115,1.115c0,0.63-0.54,1.134-1.134,1.134
				C184.481,201.855,183.978,201.352,183.978,200.722z"/>
			<path fill="#1E5035" d="M188.959,207.378c0-2.177,1.584-4.029,4.049-4.029c2.464,0,4.047,1.835,4.047,4.029
				c0,2.159-1.602,4.012-4.047,4.012C190.525,211.39,188.959,209.555,188.959,207.378z M195.454,207.378
				c0-1.583-1.007-2.717-2.445-2.717c-1.458,0-2.465,1.134-2.465,2.717s1.007,2.698,2.465,2.698
				C194.447,210.076,195.454,208.961,195.454,207.378z"/>
			<path fill="#1E5035" d="M201.461,204.842c0.737-0.792,1.709-1.493,2.824-1.493c0.971,0,1.637,0.377,2.033,0.989
				c0.252,0.432,0.395,0.972,0.395,1.619v3.993h1.206v1.296h-3.903v-1.296h1.15v-3.651c0-0.378-0.054-0.684-0.18-0.918
				c-0.216-0.413-0.594-0.611-1.151-0.611c-0.845,0-1.655,0.504-2.321,1.169v4.012h1.152v1.296h-3.887v-1.296h1.206v-5.127h-1.206
				v-1.331h2.682V204.842z"/>
			<path fill="#1E5035" d="M209.249,209.177c0-1.421,1.26-2.339,3.04-2.339c0.81,0,1.709,0.181,2.123,0.307v-0.882
				c0-0.45-0.126-0.81-0.342-1.079c-0.323-0.396-0.864-0.594-1.619-0.594c-0.485,0-0.773,0.107-1.007,0.233
				c0.053,0.126,0.09,0.288,0.09,0.432c0,0.504-0.379,0.882-0.9,0.882c-0.539,0-0.917-0.378-0.917-0.918
				c0-0.917,1.007-1.87,2.986-1.87c1.205,0,2.087,0.359,2.608,0.971c0.396,0.468,0.594,1.08,0.594,1.781v3.85h1.205v1.296h-2.662
				v-0.936c-0.63,0.594-1.619,1.079-2.662,1.079C210.364,211.39,209.249,210.58,209.249,209.177z M214.412,209.303v-1.259
				c-0.522-0.145-1.188-0.271-1.89-0.271c-1.097,0-1.709,0.522-1.709,1.277c0,0.702,0.521,1.17,1.422,1.17
				C213.062,210.221,213.818,209.824,214.412,209.303z"/>
			<path fill="#1E5035" d="M218.421,207.414c0-2.213,1.565-4.065,3.778-4.065c0.971,0,1.78,0.359,2.303,0.845v-4.785h-1.332v-1.331
				h2.879v11.873h1.205v1.296h-2.734v-0.989c-0.611,0.647-1.385,1.133-2.465,1.133C220.004,211.39,218.421,209.771,218.421,207.414z
				 M224.502,209.051v-3.598c-0.559-0.432-1.224-0.756-2.123-0.756c-1.332,0-2.357,1.062-2.375,2.698
				c0,1.619,1.025,2.645,2.339,2.645C223.225,210.04,223.926,209.627,224.502,209.051z"/>
			<path fill="#1E5035" d="M228.763,207.378c0-2.177,1.583-4.029,4.048-4.029s4.047,1.835,4.047,4.029
				c0,2.159-1.601,4.012-4.047,4.012C230.329,211.39,228.763,209.555,228.763,207.378z M235.257,207.378
				c0-1.583-1.007-2.717-2.446-2.717c-1.457,0-2.465,1.134-2.465,2.717s1.008,2.698,2.465,2.698
				C234.25,210.076,235.257,208.961,235.257,207.378z"/>
			<path fill="#1E5035" d="M244.071,206.028c-0.54,0-0.936-0.342-0.936-0.863c0-0.126,0.018-0.27,0.072-0.396
				c-0.307-0.144-0.756-0.234-1.242-0.234c-0.989,0-1.529,0.486-1.529,0.99c0,0.575,0.594,0.81,1.836,1.133
				c1.673,0.432,2.896,0.882,2.896,2.339c0,1.547-1.476,2.411-3.166,2.411c-1.17,0-2.357-0.396-2.879-0.918
				c-0.288-0.288-0.432-0.611-0.432-1.008c0-0.503,0.359-0.936,0.881-0.936c0.504,0,0.918,0.342,0.918,0.9
				c0,0.144-0.018,0.27-0.072,0.396c0.288,0.18,0.863,0.359,1.584,0.359c0.935,0,1.69-0.359,1.69-1.043
				c0-0.558-0.558-0.828-1.709-1.115c-1.979-0.504-3.04-0.99-3.04-2.375c0-1.188,1.061-2.32,3.04-2.32
				c1.007,0,2.015,0.323,2.519,0.827c0.27,0.27,0.396,0.594,0.396,0.936C244.898,205.669,244.556,206.028,244.071,206.028z"/>
		</g>
	</g>
	<g>
		<g>
			<g>
				<path fill="#1E5035" d="M63.734,153.598l2.886-7.376c7.59,3.635,13.255,4.703,19.561,4.703c10.368,0,16.568-6.199,16.568-16.033
					c0-7.055-3.421-15.178-14.431-15.178c-5.558,0-10.261,2.352-13.896,7.055l-7.054-0.641l1.71-40.938h39.548v8.551H77.416
					l-1.496,24.371l0.214,0.107c3.634-3.848,9.192-6.841,15.498-6.841c12.934,0,21.271,8.337,21.271,22.981
					c0,16.033-10.154,24.584-26.188,24.584C78.271,158.941,71.537,157.338,63.734,153.598z"/>
				<path fill="#1E5035" d="M120.381,120.996c0-20.309,5.023-36.876,25.653-36.876c20.522,0,25.653,16.567,25.653,36.876
					c0,20.63-5.131,37.945-25.653,37.945C125.405,158.941,120.381,141.626,120.381,120.996z M130.536,120.996
					c0,15.499,2.886,29.929,15.499,29.929c12.506,0,15.499-14.43,15.499-29.929c0-15.499-2.993-28.859-15.499-28.859
					C133.421,92.137,130.536,105.498,130.536,120.996z"/>
			</g>
			<g>
				<path fill="#1E5035" d="M50.531,134.801v1.954H35.332v-1.954h5.862v-0.044c-1.021-1.042-1.737-2.345-1.737-3.865
					c0-2.171,1.303-3.257,3.583-3.257h7.491v1.955h-7.057c-1.412,0-2.389,0.542-2.389,2.171c0,1.26,0.76,2.389,1.259,3.041H50.531z"
					/>
				<path fill="#1E5035" d="M41.498,124.143l-1.585,0.304c-0.282-1.477-0.456-2.996-0.456-4.19c0-2.605,0.76-4.017,3.583-4.017
					h7.491v1.954h-1.086c0,0.022,0,0.022,0,0.043c0.934,1.042,1.303,2.02,1.303,3.431c0,2.171-1.303,3.474-3.191,3.474
					c-2.433,0-3.322-1.998-3.322-4.56v-2.389h-1.086c-1.433,0-2.062,0.717-2.062,2.497
					C41.085,121.516,41.172,122.536,41.498,124.143z M45.428,118.193v2.28c0,2.02,0.716,2.714,1.954,2.714
					c1.15,0,1.846-0.869,1.846-2.28c0-1.238-0.521-2.215-0.912-2.714H45.428z"/>
				<path fill="#1E5035" d="M50.748,109.078c0,1.694-0.152,3.366-0.478,4.668l-1.585-0.347c0.435-1.737,0.499-3.344,0.499-4.104
					c0-1.998-1.194-2.28-1.606-2.28c-0.738,0-1.26,0.521-1.629,2.454c-0.434,2.302-1.172,4.061-3.452,4.061
					c-2.062,0-3.04-1.455-3.04-4.017c0-1.672,0.174-3.04,0.5-4.343l1.562,0.369c-0.434,1.737-0.478,3.105-0.478,3.865
					c0,1.954,1.043,2.171,1.412,2.171c0.694,0,1.259-0.369,1.649-2.323c0.5-2.258,1.107-4.19,3.344-4.19
					C49.619,105.061,50.748,106.538,50.748,109.078z"/>
				<path fill="#1E5035" d="M41.085,101.699v1.629h-1.281l-0.13-1.629l-3.04-0.239v-1.715h3.04v-3.04h1.411v3.04h5.971
					c1.39,0,2.128-0.434,2.128-1.846c0-0.304-0.043-0.651-0.108-1.107l1.52-0.196c0.087,0.586,0.152,1.433,0.152,1.954
					c0,2.237-0.912,3.148-3.365,3.148H41.085z"/>
				<path fill="#1E5035" d="M41.498,93.32l-1.585,0.304c-0.282-1.477-0.456-2.996-0.456-4.19c0-2.605,0.76-4.017,3.583-4.017h7.491
					v1.954h-1.086c0,0.022,0,0.022,0,0.043c0.934,1.042,1.303,2.02,1.303,3.431c0,2.171-1.303,3.474-3.191,3.474
					c-2.433,0-3.322-1.998-3.322-4.56v-2.389h-1.086c-1.433,0-2.062,0.717-2.062,2.497C41.085,90.693,41.172,91.713,41.498,93.32z
					 M45.428,87.371v2.28c0,2.02,0.716,2.714,1.954,2.714c1.15,0,1.846-0.869,1.846-2.28c0-1.238-0.521-2.215-0.912-2.714H45.428z"
					/>
			</g>
		</g>
	</g>
	<g>
		<path fill="#1E5035" d="M178.743,99.264c0-5.59,3.055-9.101,8.84-9.101c5.721,0,8.84,3.51,8.84,9.101s-3.119,9.035-8.84,9.035
			C181.797,108.299,178.743,104.854,178.743,99.264z M192.653,99.264c0-3.9-1.69-6.045-5.07-6.045c-3.381,0-5.135,2.145-5.135,6.045
			c0,3.9,1.754,5.98,5.135,5.98C190.962,105.244,192.653,103.164,192.653,99.264z M190.442,134.69h-3.899l24.051-44.202h3.899
			L190.442,134.69z M204.613,125.98c0-5.59,3.056-9.1,8.841-9.1c5.72,0,8.84,3.51,8.84,9.1s-3.12,9.036-8.84,9.036
			C207.668,135.016,204.613,131.57,204.613,125.98z M218.524,125.98c0-3.9-1.69-6.045-5.07-6.045c-3.381,0-5.136,2.145-5.136,6.045
			c0,3.9,1.755,5.98,5.136,5.98C216.833,131.96,218.524,129.88,218.524,125.98z"/>
		<path fill="#1E5035" d="M177.011,153.247c0-4.126,1.237-7.491,6.297-7.491c5.037,0,6.297,3.365,6.297,7.491
			c0,4.19-1.26,7.708-6.297,7.708C178.249,160.955,177.011,157.438,177.011,153.247z M179.182,153.247
			c0,3.148,0.586,5.971,4.126,5.971c3.518,0,4.126-2.822,4.126-5.971s-0.608-5.754-4.126-5.754
			C179.768,147.493,179.182,150.099,179.182,153.247z"/>
		<path fill="#1E5035" d="M201.608,147.818h-7.166v4.777h6.188v1.846h-6.188v6.297h-2.062v-14.766h9.229V147.818z"/>
		<path fill="#1E5035" d="M213.655,147.818h-7.166v4.777h6.188v1.846h-6.188v6.297h-2.062v-14.766h9.229V147.818z"/>
	</g>
	<g>
		<path fill="#1E5035" d="M50.531,134.801v1.954H35.332v-1.954h5.862v-0.044c-1.021-1.042-1.737-2.345-1.737-3.865
			c0-2.171,1.303-3.257,3.583-3.257h7.491v1.955h-7.057c-1.412,0-2.389,0.542-2.389,2.171c0,1.26,0.76,2.389,1.259,3.041H50.531z"/>
		<path fill="#1E5035" d="M41.498,124.143l-1.585,0.304c-0.282-1.477-0.456-2.996-0.456-4.19c0-2.605,0.76-4.017,3.583-4.017h7.491
			v1.954h-1.086c0,0.022,0,0.022,0,0.043c0.934,1.042,1.303,2.02,1.303,3.431c0,2.171-1.303,3.474-3.191,3.474
			c-2.433,0-3.322-1.998-3.322-4.56v-2.389h-1.086c-1.433,0-2.062,0.717-2.062,2.497C41.085,121.516,41.172,122.536,41.498,124.143z
			 M45.428,118.193v2.28c0,2.02,0.716,2.714,1.954,2.714c1.15,0,1.846-0.869,1.846-2.28c0-1.238-0.521-2.215-0.912-2.714H45.428z"/>
		<path fill="#1E5035" d="M50.748,109.078c0,1.694-0.152,3.366-0.478,4.668l-1.585-0.347c0.435-1.737,0.499-3.344,0.499-4.104
			c0-1.998-1.194-2.28-1.606-2.28c-0.738,0-1.26,0.521-1.629,2.454c-0.434,2.302-1.172,4.061-3.452,4.061
			c-2.062,0-3.04-1.455-3.04-4.017c0-1.672,0.174-3.04,0.5-4.343l1.562,0.369c-0.434,1.737-0.478,3.105-0.478,3.865
			c0,1.954,1.043,2.171,1.412,2.171c0.694,0,1.259-0.369,1.649-2.323c0.5-2.258,1.107-4.19,3.344-4.19
			C49.619,105.061,50.748,106.538,50.748,109.078z"/>
		<path fill="#1E5035" d="M41.085,101.699v1.629h-1.281l-0.13-1.629l-3.04-0.239v-1.715h3.04v-3.04h1.411v3.04h5.971
			c1.39,0,2.128-0.434,2.128-1.846c0-0.304-0.043-0.651-0.108-1.107l1.52-0.196c0.087,0.586,0.152,1.433,0.152,1.954
			c0,2.237-0.912,3.148-3.365,3.148H41.085z"/>
		<path fill="#1E5035" d="M41.498,93.32l-1.585,0.304c-0.282-1.477-0.456-2.996-0.456-4.19c0-2.605,0.76-4.017,3.583-4.017h7.491
			v1.954h-1.086c0,0.022,0,0.022,0,0.043c0.934,1.042,1.303,2.02,1.303,3.431c0,2.171-1.303,3.474-3.191,3.474
			c-2.433,0-3.322-1.998-3.322-4.56v-2.389h-1.086c-1.433,0-2.062,0.717-2.062,2.497C41.085,90.693,41.172,91.713,41.498,93.32z
			 M45.428,87.371v2.28c0,2.02,0.716,2.714,1.954,2.714c1.15,0,1.846-0.869,1.846-2.28c0-1.238-0.521-2.215-0.912-2.714H45.428z"/>
	</g>
</g>
</svg>
