<?xml version="1.0" encoding="utf-8"?>
<!-- Generator: Adobe Illustrator 17.0.0, SVG Export Plug-In . SVG Version: 6.00 Build 0)  -->
<!DOCTYPE svg PUBLIC "-//W3C//DTD SVG 1.1//EN" "http://www.w3.org/Graphics/SVG/1.1/DTD/svg11.dtd">
<svg version="1.1" id="Layer_1" xmlns="http://www.w3.org/2000/svg" xmlns:xlink="http://www.w3.org/1999/xlink" x="0px" y="0px"
	 width="266.333px" height="265px" viewBox="0 0 266.333 265" enable-background="new 0 0 266.333 265" xml:space="preserve">
<g>
	<g>
		<path fill="#1E5035" d="M167.362,99.264c0-5.59,3.055-9.101,8.84-9.101c5.721,0,8.84,3.51,8.84,9.101s-3.119,9.035-8.84,9.035
			C170.417,108.299,167.362,104.854,167.362,99.264z M181.272,99.264c0-3.9-1.69-6.045-5.07-6.045c-3.381,0-5.135,2.145-5.135,6.045
			c0,3.9,1.754,5.98,5.135,5.98C179.582,105.244,181.272,103.164,181.272,99.264z M179.061,134.69h-3.899l24.051-44.202h3.899
			L179.061,134.69z M193.232,125.98c0-5.59,3.056-9.1,8.841-9.1c5.72,0,8.84,3.51,8.84,9.1s-3.12,9.036-8.84,9.036
			C196.288,135.016,193.232,131.57,193.232,125.98z M207.143,125.98c0-3.9-1.69-6.045-5.07-6.045c-3.381,0-5.136,2.145-5.136,6.045
			c0,3.9,1.755,5.98,5.136,5.98C205.453,131.96,207.143,129.88,207.143,125.98z"/>
		<path fill="#1E5035" d="M165.63,153.247c0-4.126,1.237-7.491,6.297-7.491c5.037,0,6.297,3.365,6.297,7.491
			c0,4.19-1.26,7.708-6.297,7.708C166.868,160.955,165.63,157.438,165.63,153.247z M167.801,153.247
			c0,3.148,0.586,5.971,4.126,5.971c3.518,0,4.126-2.822,4.126-5.971s-0.608-5.754-4.126-5.754
			C168.387,147.493,167.801,150.099,167.801,153.247z"/>
		<path fill="#1E5035" d="M190.227,147.818h-7.166v4.777h6.188v1.846h-6.188v6.297h-2.062v-14.766h9.229V147.818z"/>
		<path fill="#1E5035" d="M202.274,147.818h-7.166v4.777h6.188v1.846h-6.188v6.297h-2.062v-14.766h9.229V147.818z"/>
	</g>
	<rect x="6.4" y="2.666" fill="#16A314" width="253.534" height="30.082"/>
	<g>
		<path fill="#FFFFFF" d="M107.31,11.702v11.81h6.709v2.582h-9.629V11.702H107.31z"/>
		<path fill="#FFFFFF" d="M118.355,26.093V11.702h2.92v14.392H118.355z"/>
		<path fill="#FFFFFF" d="M128.935,21.014v5.079h-2.92V11.702h6.137c3.026,0,4.762,1.862,4.762,4.656
			c0,2.857-1.735,4.656-4.762,4.656H128.935z M128.935,18.432h2.899c1.228,0,2.096-0.572,2.096-2.074
			c0-1.46-0.868-2.053-2.096-2.053h-2.899V18.432z"/>
		<path fill="#FFFFFF" d="M144.17,21.014v5.079h-2.921V11.702h6.138c3.026,0,4.762,1.862,4.762,4.656
			c0,2.857-1.735,4.656-4.762,4.656H144.17z M144.17,18.432h2.899c1.228,0,2.095-0.572,2.095-2.074c0-1.46-0.867-2.053-2.095-2.053
			h-2.899V18.432z"/>
		<path fill="#FFFFFF" d="M156.485,26.093V11.702h2.921v14.392H156.485z"/>
	</g>
	<g>
		<g>
			<path fill="#1E5035" d="M22.336,209.789h1.439v-8.924h-1.439v-1.457h8.689v3.095h-1.547v-1.655h-4.065v3.67h3.742v1.403h-3.742
				v3.886h4.065v-1.655h1.565v3.095h-8.708V209.789z"/>
			<path fill="#1E5035" d="M35.755,204.842c0.738-0.792,1.709-1.493,2.824-1.493c0.972,0,1.637,0.377,2.033,0.989
				c0.252,0.432,0.396,0.972,0.396,1.619v3.993h1.206v1.296H38.31v-1.296h1.151v-3.651c0-0.378-0.054-0.684-0.18-0.918
				c-0.216-0.413-0.594-0.611-1.151-0.611c-0.845,0-1.655,0.504-2.321,1.169v4.012h1.151v1.296h-3.886v-1.296h1.206v-5.127h-1.206
				v-1.331h2.681V204.842z"/>
			<path fill="#1E5035" d="M49.262,210.418c-0.144-0.306-0.234-0.701-0.234-1.133v-4.462h-1.457v-1.331h1.457v-1.781l1.547-0.63
				v2.411h2.356v1.331h-2.356v4.191c0,0.252,0.036,0.433,0.108,0.594c0.144,0.252,0.432,0.378,0.881,0.378
				c0.468,0,1.025-0.216,1.475-0.432l-0.162,1.386c-0.45,0.233-1.025,0.449-1.745,0.449C50.27,211.39,49.604,211.084,49.262,210.418
				z"/>
			<path fill="#1E5035" d="M54.568,207.378c0-2.177,1.583-4.029,4.048-4.029c2.464,0,4.047,1.835,4.047,4.029
				c0,2.159-1.601,4.012-4.047,4.012C56.133,211.39,54.568,209.555,54.568,207.378z M61.062,207.378
				c0-1.583-1.007-2.717-2.446-2.717c-1.458,0-2.465,1.134-2.465,2.717s1.007,2.698,2.465,2.698
				C60.055,210.076,61.062,208.961,61.062,207.378z"/>
			<path fill="#1E5035" d="M64.442,207.414c0-2.213,1.565-4.065,3.778-4.065c0.971,0,1.781,0.359,2.303,0.845v-4.785h-1.332v-1.331
				h2.879v11.873h1.205v1.296h-2.734v-0.989c-0.612,0.647-1.385,1.133-2.465,1.133C66.025,211.39,64.442,209.771,64.442,207.414z
				 M70.522,209.051v-3.598c-0.558-0.432-1.223-0.756-2.123-0.756c-1.331,0-2.356,1.062-2.375,2.698
				c0,1.619,1.025,2.645,2.339,2.645C69.245,210.04,69.947,209.627,70.522,209.051z"/>
			<path fill="#1E5035" d="M74.784,207.378c0-2.177,1.583-4.029,4.048-4.029c2.464,0,4.047,1.835,4.047,4.029
				c0,2.159-1.601,4.012-4.047,4.012C76.349,211.39,74.784,209.555,74.784,207.378z M81.278,207.378
				c0-1.583-1.007-2.717-2.446-2.717c-1.458,0-2.465,1.134-2.465,2.717s1.007,2.698,2.465,2.698
				C80.271,210.076,81.278,208.961,81.278,207.378z"/>
			<path fill="#1E5035" d="M89.407,204.823h-0.972v-1.331h3.76v1.277h-1.187l2.104,4.659l2.105-4.659h-1.241v-1.277h3.76v1.331
				h-0.971l-3.185,6.639h-0.989L89.407,204.823z"/>
			<path fill="#1E5035" d="M100.217,207.863c0.216,1.476,1.295,2.195,2.807,2.195c0.989,0,1.835-0.306,2.752-0.827l-0.126,1.421
				c-0.81,0.504-1.799,0.737-2.86,0.737c-2.501,0-4.192-1.619-4.192-3.994c0-2.177,1.493-4.047,3.85-4.047
				c2.393,0,3.652,1.709,3.652,3.688c0,0.288-0.036,0.594-0.072,0.827H100.217z M100.217,206.712h4.335
				c-0.072-1.241-0.827-2.086-2.141-2.086C101.368,204.626,100.415,205.31,100.217,206.712z"/>
			<path fill="#1E5035" d="M113.258,206.028c-0.54,0-0.936-0.342-0.936-0.863c0-0.126,0.018-0.27,0.072-0.396
				c-0.306-0.144-0.755-0.234-1.241-0.234c-0.99,0-1.529,0.486-1.529,0.99c0,0.575,0.594,0.81,1.835,1.133
				c1.673,0.432,2.896,0.882,2.896,2.339c0,1.547-1.475,2.411-3.166,2.411c-1.169,0-2.357-0.396-2.878-0.918
				c-0.288-0.288-0.432-0.611-0.432-1.008c0-0.503,0.36-0.936,0.882-0.936c0.503,0,0.917,0.342,0.917,0.9
				c0,0.144-0.018,0.27-0.072,0.396c0.288,0.18,0.864,0.359,1.583,0.359c0.935,0,1.691-0.359,1.691-1.043
				c0-0.558-0.558-0.828-1.709-1.115c-1.979-0.504-3.041-0.99-3.041-2.375c0-1.188,1.062-2.32,3.041-2.32
				c1.007,0,2.015,0.323,2.519,0.827c0.27,0.27,0.396,0.594,0.396,0.936C114.085,205.669,113.743,206.028,113.258,206.028z"/>
			<path fill="#1E5035" d="M117.411,210.418c-0.144-0.306-0.234-0.701-0.234-1.133v-4.462h-1.457v-1.331h1.457v-1.781l1.547-0.63
				v2.411h2.356v1.331h-2.356v4.191c0,0.252,0.036,0.433,0.108,0.594c0.144,0.252,0.432,0.378,0.881,0.378
				c0.468,0,1.025-0.216,1.475-0.432l-0.162,1.386c-0.45,0.233-1.025,0.449-1.745,0.449
				C118.419,211.39,117.753,211.084,117.411,210.418z"/>
			<path fill="#1E5035" d="M124.066,210.364c-0.234-0.432-0.36-0.953-0.36-1.583v-3.958h-1.205v-1.331h2.734v4.947
				c0,0.396,0.072,0.701,0.198,0.936c0.216,0.414,0.576,0.594,1.133,0.594c0.846,0,1.637-0.521,2.321-1.17v-3.976h-1.241v-1.331
				h2.789v6.458h1.205v1.296h-2.698v-1.35c-0.738,0.792-1.709,1.493-2.825,1.493C125.128,211.39,124.462,210.994,124.066,210.364z"
				/>
			<path fill="#1E5035" d="M133.239,209.177c0-1.421,1.26-2.339,3.041-2.339c0.81,0,1.709,0.181,2.122,0.307v-0.882
				c0-0.45-0.126-0.81-0.342-1.079c-0.323-0.396-0.863-0.594-1.619-0.594c-0.485,0-0.773,0.107-1.007,0.233
				c0.054,0.126,0.09,0.288,0.09,0.432c0,0.504-0.378,0.882-0.899,0.882c-0.54,0-0.918-0.378-0.918-0.918
				c0-0.917,1.008-1.87,2.986-1.87c1.206,0,2.087,0.359,2.608,0.971c0.396,0.468,0.594,1.08,0.594,1.781v3.85h1.206v1.296h-2.663
				v-0.936c-0.63,0.594-1.619,1.079-2.662,1.079C134.354,211.39,133.239,210.58,133.239,209.177z M138.402,209.303v-1.259
				c-0.521-0.145-1.187-0.271-1.889-0.271c-1.098,0-1.709,0.522-1.709,1.277c0,0.702,0.521,1.17,1.421,1.17
				C137.053,210.221,137.808,209.824,138.402,209.303z"/>
			<path fill="#1E5035" d="M148.871,204.481c0,0.558-0.45,1.044-0.989,1.044c-0.521,0-0.882-0.324-1.025-0.666
				c-0.576,0.18-1.241,0.827-1.619,1.565v3.525h1.421v1.296h-4.155v-1.296h1.205v-5.127h-1.205v-1.331h2.68v1.763
				c0.612-1.062,1.512-1.906,2.411-1.906C148.439,203.349,148.871,203.87,148.871,204.481z"/>
			<path fill="#1E5035" d="M150.127,209.95h1.26v-5.127h-1.26v-1.331h2.807v6.458h1.241v1.296h-4.048V209.95z M150.865,200.722
				c0-0.611,0.522-1.115,1.134-1.115c0.594,0,1.115,0.504,1.115,1.115c0,0.63-0.54,1.134-1.134,1.134
				C151.369,201.855,150.865,201.352,150.865,200.722z"/>
			<path fill="#1E5035" d="M155.847,207.378c0-2.177,1.583-4.029,4.048-4.029s4.048,1.835,4.048,4.029
				c0,2.159-1.602,4.012-4.048,4.012C157.413,211.39,155.847,209.555,155.847,207.378z M162.341,207.378
				c0-1.583-1.007-2.717-2.446-2.717c-1.457,0-2.465,1.134-2.465,2.717s1.008,2.698,2.465,2.698
				C161.334,210.076,162.341,208.961,162.341,207.378z"/>
			<path fill="#1E5035" d="M171.352,214.826c-0.863,0-1.476-0.486-1.476-1.098c0-0.558,0.378-0.882,0.846-0.882
				c0.45,0,0.738,0.324,0.846,0.647c0.252-0.09,0.504-0.287,0.792-0.701c0.144-0.233,0.306-0.521,0.485-0.882l0.521-1.079
				l-2.86-6.009H169.5v-1.331h3.777v1.277h-1.188c0,0,2.033,4.605,2.016,4.605l2.051-4.605h-1.241v-1.277h3.741v1.331h-1.007
				l-3.652,7.79c-0.198,0.396-0.396,0.737-0.611,1.043C172.809,214.412,172.144,214.826,171.352,214.826z"/>
			<path fill="#1E5035" d="M184.211,207.342c0-2.087,1.674-3.993,3.887-3.993c1.925,0,3.328,1.259,3.328,2.446
				c0,0.684-0.468,1.151-1.098,1.151c-0.504,0-0.972-0.396-0.972-0.972c0-0.252,0.126-0.504,0.324-0.647
				c-0.181-0.359-0.828-0.701-1.583-0.701c-1.044,0-2.321,0.881-2.321,2.752c0,1.602,1.17,2.681,2.771,2.681
				c0.899,0,1.709-0.27,2.663-0.827l-0.145,1.421c-0.791,0.504-1.709,0.737-2.662,0.737
				C185.993,211.39,184.211,209.734,184.211,207.342z"/>
			<path fill="#1E5035" d="M193.168,209.177c0-1.421,1.26-2.339,3.041-2.339c0.81,0,1.709,0.181,2.122,0.307v-0.882
				c0-0.45-0.126-0.81-0.342-1.079c-0.323-0.396-0.863-0.594-1.619-0.594c-0.485,0-0.773,0.107-1.007,0.233
				c0.054,0.126,0.09,0.288,0.09,0.432c0,0.504-0.378,0.882-0.899,0.882c-0.54,0-0.918-0.378-0.918-0.918
				c0-0.917,1.008-1.87,2.986-1.87c1.206,0,2.087,0.359,2.608,0.971c0.396,0.468,0.594,1.08,0.594,1.781v3.85h1.206v1.296h-2.663
				v-0.936c-0.63,0.594-1.619,1.079-2.662,1.079C194.284,211.39,193.168,210.58,193.168,209.177z M198.332,209.303v-1.259
				c-0.521-0.145-1.187-0.271-1.889-0.271c-1.098,0-1.709,0.522-1.709,1.277c0,0.702,0.521,1.17,1.421,1.17
				C196.983,210.221,197.738,209.824,198.332,209.303z"/>
			<path fill="#1E5035" d="M202.162,209.95h1.259v-10.542h-1.259v-1.331h2.806v11.873h1.242v1.296h-4.048V209.95z"/>
			<path fill="#1E5035" d="M207.557,210.437l4.857-5.703h-3.202v1.493h-1.35v-2.734h6.62v0.791l-4.839,5.703h3.58v-1.475h1.331
				v2.734h-6.998V210.437z"/>
			<path fill="#1E5035" d="M216.1,209.177c0-1.421,1.26-2.339,3.041-2.339c0.81,0,1.709,0.181,2.122,0.307v-0.882
				c0-0.45-0.126-0.81-0.342-1.079c-0.323-0.396-0.863-0.594-1.619-0.594c-0.485,0-0.773,0.107-1.007,0.233
				c0.054,0.126,0.09,0.288,0.09,0.432c0,0.504-0.378,0.882-0.899,0.882c-0.54,0-0.918-0.378-0.918-0.918
				c0-0.917,1.008-1.87,2.986-1.87c1.206,0,2.087,0.359,2.608,0.971c0.396,0.468,0.594,1.08,0.594,1.781v3.85h1.206v1.296h-2.663
				v-0.936c-0.63,0.594-1.619,1.079-2.662,1.079C217.215,211.39,216.1,210.58,216.1,209.177z M221.263,209.303v-1.259
				c-0.521-0.145-1.187-0.271-1.889-0.271c-1.098,0-1.709,0.522-1.709,1.277c0,0.702,0.521,1.17,1.421,1.17
				C219.915,210.221,220.669,209.824,221.263,209.303z"/>
			<path fill="#1E5035" d="M225.274,207.414c0-2.213,1.565-4.065,3.777-4.065c0.972,0,1.781,0.359,2.303,0.845v-4.785h-1.331v-1.331
				h2.879v11.873h1.205v1.296h-2.734v-0.989c-0.611,0.647-1.386,1.133-2.465,1.133C226.857,211.39,225.274,209.771,225.274,207.414z
				 M231.354,209.051v-3.598c-0.558-0.432-1.223-0.756-2.122-0.756c-1.332,0-2.357,1.062-2.375,2.698
				c0,1.619,1.025,2.645,2.339,2.645C230.078,210.04,230.779,209.627,231.354,209.051z"/>
			<path fill="#1E5035" d="M235.616,207.378c0-2.177,1.583-4.029,4.048-4.029s4.048,1.835,4.048,4.029
				c0,2.159-1.602,4.012-4.048,4.012C237.181,211.39,235.616,209.555,235.616,207.378z M242.11,207.378
				c0-1.583-1.007-2.717-2.446-2.717c-1.457,0-2.465,1.134-2.465,2.717s1.008,2.698,2.465,2.698
				C241.103,210.076,242.11,208.961,242.11,207.378z"/>
		</g>
	</g>
	<g>
		<g>
			<g>
				<path fill="#1E5035" d="M92.106,85.189v45.961h10.154v8.017H92.106v18.706h-9.62v-18.706H48.817v-8.017
					c11.757-12.826,23.622-28.752,31.211-45.961H92.106z M82.486,131.15V97.802h-0.214c-6.52,12.613-14.537,22.981-23.515,33.349
					H82.486z"/>
				<path fill="#1E5035" d="M108.671,120.996c0-20.309,5.023-36.876,25.652-36.876c20.522,0,25.653,16.567,25.653,36.876
					c0,20.63-5.131,37.945-25.653,37.945C113.695,158.941,108.671,141.626,108.671,120.996z M118.825,120.996
					c0,15.499,2.887,29.929,15.499,29.929c12.506,0,15.499-14.43,15.499-29.929c0-15.499-2.993-28.859-15.499-28.859
					C121.712,92.137,118.825,105.498,118.825,120.996z"/>
			</g>
		</g>
	</g>
</g>
</svg>
