<?xml version="1.0" encoding="utf-8"?>
<!-- Generator: Adobe Illustrator 17.0.0, SVG Export Plug-In . SVG Version: 6.00 Build 0)  -->
<!DOCTYPE svg PUBLIC "-//W3C//DTD SVG 1.1//EN" "http://www.w3.org/Graphics/SVG/1.1/DTD/svg11.dtd">
<svg version="1.1" id="Layer_1" xmlns="http://www.w3.org/2000/svg" xmlns:xlink="http://www.w3.org/1999/xlink" x="0px" y="0px"
	 width="266.333px" height="265px" viewBox="0 0 266.333 265" enable-background="new 0 0 266.333 265" xml:space="preserve">
<g>
	<rect x="6.4" y="2.667" fill="#16A314" width="253.534" height="30.082"/>
	<g>
		<path fill="#FFFFFF" d="M91.515,21.083h0.042l3.386-9.545h3.852v14.392h-2.899v-9.143h-0.042l-3.429,9.143h-2.116l-3.344-9.143
			h-0.042v9.143h-2.836V11.538h3.873L91.515,21.083z"/>
		<path fill="#FFFFFF" d="M113.289,14.141h-6.815v3.068h5.863v2.582h-5.863v3.556h6.921v2.582h-9.841V11.538h9.735V14.141z"/>
		<path fill="#FFFFFF" d="M120.862,11.538v11.81h6.709v2.582h-9.629V11.538H120.862z"/>
		<path fill="#FFFFFF" d="M131.908,25.929V11.538h2.921v14.392H131.908z"/>
		<path fill="#FFFFFF" d="M138.975,25.358l0.508-2.434c2.244,0.528,3.831,0.635,4.953,0.635c1.481,0,2.37-0.678,2.37-1.63
			c0-1.333-1.651-1.608-3.323-2.074c-2.497-0.698-4.296-2.074-4.296-4.508c0-2.899,2.392-4.021,5.249-4.021
			c1.629,0,3.11,0.212,5.079,0.805l-0.656,2.434c-2.265-0.529-3.322-0.635-4.423-0.635c-1.481,0-2.181,0.635-2.181,1.503
			c0,1.185,1.545,1.565,3.281,1.989c2.497,0.571,4.338,1.757,4.338,4.275c0,3.068-2.37,4.444-5.438,4.444
			C142.785,26.141,140.944,25.929,138.975,25.358z"/>
		<path fill="#FFFFFF" d="M153.597,25.358l0.508-2.434c2.244,0.528,3.831,0.635,4.953,0.635c1.481,0,2.37-0.678,2.37-1.63
			c0-1.333-1.651-1.608-3.323-2.074c-2.497-0.698-4.296-2.074-4.296-4.508c0-2.899,2.392-4.021,5.249-4.021
			c1.629,0,3.11,0.212,5.079,0.805l-0.656,2.434c-2.265-0.529-3.323-0.635-4.423-0.635c-1.481,0-2.181,0.635-2.181,1.503
			c0,1.185,1.545,1.565,3.28,1.989c2.498,0.571,4.339,1.757,4.339,4.275c0,3.068-2.37,4.444-5.438,4.444
			C157.407,26.141,155.566,25.929,153.597,25.358z"/>
		<path fill="#FFFFFF" d="M176.134,22.671h-4.55l-0.974,3.259h-3.09l4.656-14.497h3.555l4.593,14.497h-3.217L176.134,22.671z
			 M173.849,15.072l-1.672,5.164h3.364l-1.65-5.164H173.849z"/>
	</g>
	<g>
		<g>
			<path fill="#1E5035" d="M69.532,201.161h1.08l3.292-8.941H72.59v-1.439h5.937v1.439h-1.331l3.292,8.941h1.098v1.457h-4.21v-1.439
				h1.367l-0.881-2.5h-4.677l-0.882,2.5h1.439v1.439h-4.21V201.161z M77.394,197.311l-1.871-5.164l-1.871,5.164H77.394z"/>
			<path fill="#1E5035" d="M82.77,198.786c0-2.213,1.565-4.065,3.778-4.065c0.971,0,1.781,0.359,2.303,0.846v-4.786h-1.332v-1.331
				h2.879v11.874h1.205v1.295h-2.734v-0.989c-0.612,0.647-1.385,1.133-2.465,1.133C84.353,202.761,82.77,201.142,82.77,198.786z
				 M88.851,200.424v-3.599c-0.558-0.432-1.223-0.756-2.123-0.756c-1.331,0-2.356,1.062-2.375,2.699
				c0,1.619,1.025,2.645,2.339,2.645C87.573,201.413,88.275,200.999,88.851,200.424z"/>
			<path fill="#1E5035" d="M93.076,201.323h1.259v-5.128h-1.259v-1.331h2.807v6.459h1.241v1.295h-4.048V201.323z M93.814,192.093
				c0-0.611,0.521-1.115,1.133-1.115c0.594,0,1.115,0.504,1.115,1.115c0,0.63-0.54,1.134-1.133,1.134
				C94.318,193.227,93.814,192.723,93.814,192.093z"/>
			<path fill="#1E5035" d="M98.778,198.714c0-2.086,1.673-3.993,3.886-3.993c1.925,0,3.328,1.259,3.328,2.446
				c0,0.684-0.468,1.151-1.097,1.151c-0.504,0-0.972-0.396-0.972-0.972c0-0.252,0.126-0.503,0.324-0.647
				c-0.18-0.359-0.827-0.701-1.583-0.701c-1.043,0-2.321,0.881-2.321,2.752c0,1.602,1.169,2.681,2.771,2.681
				c0.899,0,1.709-0.27,2.663-0.827l-0.144,1.421c-0.792,0.504-1.709,0.737-2.662,0.737
				C100.558,202.761,98.778,201.107,98.778,198.714z"/>
			<path fill="#1E5035" d="M107.824,201.323h1.259v-5.128h-1.259v-1.331h2.807v6.459h1.241v1.295h-4.048V201.323z M108.562,192.093
				c0-0.611,0.521-1.115,1.133-1.115c0.594,0,1.115,0.504,1.115,1.115c0,0.63-0.54,1.134-1.133,1.134
				C109.066,193.227,108.562,192.723,108.562,192.093z"/>
			<path fill="#1E5035" d="M113.544,198.75c0-2.177,1.583-4.029,4.048-4.029c2.464,0,4.047,1.835,4.047,4.029
				c0,2.159-1.601,4.012-4.047,4.012C115.109,202.761,113.544,200.926,113.544,198.75z M120.038,198.75
				c0-1.583-1.007-2.716-2.446-2.716c-1.458,0-2.465,1.133-2.465,2.716s1.007,2.699,2.465,2.699
				C119.031,201.449,120.038,200.333,120.038,198.75z"/>
			<path fill="#1E5035" d="M126.045,196.214c0.738-0.792,1.709-1.493,2.824-1.493c0.972,0,1.637,0.378,2.033,0.989
				c0.252,0.432,0.396,0.972,0.396,1.619v3.994h1.206v1.295H128.6v-1.295h1.151v-3.652c0-0.378-0.054-0.684-0.18-0.918
				c-0.216-0.413-0.594-0.611-1.151-0.611c-0.845,0-1.655,0.504-2.321,1.17v4.012h1.151v1.295h-3.886v-1.295h1.206v-5.128h-1.206
				v-1.331h2.681V196.214z"/>
			<path fill="#1E5035" d="M133.832,200.549c0-1.421,1.26-2.338,3.041-2.338c0.81,0,1.709,0.18,2.122,0.306v-0.882
				c0-0.449-0.126-0.81-0.342-1.079c-0.323-0.396-0.863-0.594-1.619-0.594c-0.485,0-0.773,0.107-1.007,0.233
				c0.054,0.126,0.09,0.288,0.09,0.433c0,0.503-0.378,0.881-0.899,0.881c-0.54,0-0.918-0.378-0.918-0.917
				c0-0.918,1.008-1.871,2.986-1.871c1.206,0,2.087,0.359,2.608,0.972c0.396,0.468,0.594,1.079,0.594,1.78v3.851h1.206v1.295h-2.663
				v-0.936c-0.63,0.594-1.619,1.079-2.662,1.079C134.947,202.761,133.832,201.952,133.832,200.549z M138.995,200.674v-1.259
				c-0.521-0.144-1.187-0.27-1.889-0.27c-1.098,0-1.709,0.521-1.709,1.277c0,0.701,0.521,1.169,1.421,1.169
				C137.646,201.592,138.401,201.197,138.995,200.674z"/>
			<path fill="#1E5035" d="M142.826,201.323h1.259V190.78h-1.259v-1.331h2.806v11.874h1.242v1.295h-4.048V201.323z"/>
			<path fill="#1E5035" d="M158.312,197.401c-0.539,0-0.936-0.342-0.936-0.864c0-0.126,0.019-0.27,0.072-0.396
				c-0.306-0.144-0.756-0.233-1.241-0.233c-0.989,0-1.529,0.485-1.529,0.989c0,0.575,0.594,0.81,1.835,1.133
				c1.673,0.433,2.896,0.882,2.896,2.339c0,1.548-1.476,2.411-3.166,2.411c-1.17,0-2.356-0.396-2.879-0.918
				c-0.287-0.287-0.432-0.611-0.432-1.007c0-0.504,0.36-0.936,0.882-0.936c0.504,0,0.917,0.342,0.917,0.899
				c0,0.144-0.018,0.27-0.071,0.396c0.287,0.18,0.863,0.36,1.583,0.36c0.936,0,1.69-0.36,1.69-1.044
				c0-0.558-0.558-0.827-1.709-1.115c-1.979-0.504-3.04-0.989-3.04-2.375c0-1.188,1.062-2.32,3.04-2.32
				c1.008,0,2.016,0.323,2.519,0.827c0.271,0.271,0.396,0.594,0.396,0.936C159.14,197.041,158.799,197.401,158.312,197.401z"/>
			<path fill="#1E5035" d="M161.189,198.75c0-2.177,1.583-4.029,4.048-4.029s4.048,1.835,4.048,4.029
				c0,2.159-1.602,4.012-4.048,4.012C162.755,202.761,161.189,200.926,161.189,198.75z M167.683,198.75
				c0-1.583-1.007-2.716-2.446-2.716c-1.457,0-2.465,1.133-2.465,2.716s1.008,2.699,2.465,2.699
				C166.676,201.449,167.683,200.333,167.683,198.75z"/>
			<path fill="#1E5035" d="M173.151,201.844l-0.396,0.791h-1.008V190.78h-1.224v-1.331h2.771v6.369
				c0.612-0.612,1.35-1.098,2.482-1.098c2.033,0,3.67,1.637,3.67,4.012c0,2.23-1.618,4.029-3.831,4.029
				C174.626,202.761,173.816,202.402,173.151,201.844z M177.846,198.732c0-1.638-1.025-2.663-2.375-2.663
				c-0.881,0-1.601,0.414-2.177,0.99v3.615c0.558,0.414,1.26,0.738,2.141,0.738C176.749,201.413,177.846,200.405,177.846,198.732z"
				/>
			<path fill="#1E5035" d="M187.558,195.853c0,0.558-0.45,1.044-0.989,1.044c-0.521,0-0.882-0.324-1.025-0.666
				c-0.576,0.18-1.241,0.828-1.619,1.565v3.526h1.421v1.295h-4.155v-1.295h1.205v-5.128h-1.205v-1.331h2.68v1.764
				c0.612-1.062,1.512-1.907,2.411-1.907C187.127,194.72,187.558,195.242,187.558,195.853z"/>
			<path fill="#1E5035" d="M190.202,199.236c0.216,1.475,1.295,2.194,2.807,2.194c0.989,0,1.835-0.306,2.752-0.827l-0.126,1.421
				c-0.81,0.504-1.799,0.737-2.86,0.737c-2.5,0-4.191-1.619-4.191-3.993c0-2.177,1.493-4.048,3.85-4.048
				c2.393,0,3.652,1.709,3.652,3.688c0,0.288-0.036,0.594-0.072,0.828H190.202z M190.202,198.085h4.336
				c-0.072-1.241-0.828-2.087-2.142-2.087C191.353,195.998,190.4,196.681,190.202,198.085z"/>
			<path fill="#1E5035" d="M33.443,226.432h1.206v-8.653h-1.206v-1.331h2.681v1.008c0.648-0.666,1.367-1.151,2.483-1.151
				c2.033,0,3.616,1.619,3.616,3.976c0,2.23-1.565,4.065-3.76,4.065c-0.881,0-1.655-0.323-2.267-0.827v2.914h1.385v1.296h-4.138
				V226.432z M40.621,220.298c0-1.619-0.989-2.645-2.303-2.645c-0.881,0-1.547,0.414-2.123,0.99v3.615
				c0.54,0.433,1.223,0.738,2.086,0.738C39.595,222.997,40.621,221.935,40.621,220.298z"/>
			<path fill="#1E5035" d="M50.333,217.437c0,0.558-0.45,1.044-0.99,1.044c-0.521,0-0.881-0.324-1.025-0.666
				c-0.576,0.18-1.241,0.828-1.619,1.565v3.526h1.421v1.295h-4.156v-1.295h1.206v-5.128h-1.206v-1.331h2.681v1.764
				c0.612-1.062,1.511-1.907,2.411-1.907C49.902,216.304,50.333,216.826,50.333,217.437z"/>
			<path fill="#1E5035" d="M51.393,220.334c0-2.177,1.583-4.029,4.048-4.029c2.464,0,4.047,1.835,4.047,4.029
				c0,2.159-1.601,4.012-4.047,4.012C52.958,224.345,51.393,222.51,51.393,220.334z M57.887,220.334
				c0-1.583-1.007-2.716-2.446-2.716c-1.458,0-2.465,1.133-2.465,2.716s1.007,2.699,2.465,2.699
				C56.88,223.033,57.887,221.917,57.887,220.334z"/>
			<path fill="#1E5035" d="M61.268,220.37c0-2.213,1.565-4.065,3.778-4.065c0.972,0,1.781,0.359,2.303,0.846v-4.786h-1.331v-1.331
				h2.878v11.874h1.206v1.295h-2.734v-0.989c-0.612,0.647-1.385,1.133-2.465,1.133C62.851,224.345,61.268,222.726,61.268,220.37z
				 M67.348,222.007v-3.599c-0.558-0.432-1.223-0.756-2.123-0.756c-1.331,0-2.356,1.062-2.375,2.699
				c0,1.619,1.025,2.645,2.339,2.645C66.071,222.997,66.773,222.583,67.348,222.007z"/>
			<path fill="#1E5035" d="M72.851,223.32c-0.234-0.432-0.36-0.953-0.36-1.583v-3.958h-1.205v-1.331h2.734v4.947
				c0,0.396,0.072,0.702,0.198,0.936c0.216,0.414,0.576,0.594,1.133,0.594c0.846,0,1.637-0.521,2.321-1.169v-3.977h-1.241v-1.331
				h2.789v6.459h1.205v1.295h-2.698v-1.35c-0.738,0.792-1.709,1.493-2.825,1.493C73.912,224.345,73.247,223.95,72.851,223.32z"/>
			<path fill="#1E5035" d="M81.987,220.298c0-2.086,1.673-3.993,3.886-3.993c1.925,0,3.328,1.259,3.328,2.446
				c0,0.684-0.468,1.151-1.097,1.151c-0.504,0-0.972-0.396-0.972-0.972c0-0.252,0.126-0.503,0.324-0.647
				c-0.18-0.359-0.827-0.701-1.583-0.701c-1.043,0-2.321,0.881-2.321,2.752c0,1.602,1.169,2.681,2.771,2.681
				c0.899,0,1.709-0.27,2.663-0.827l-0.144,1.421c-0.792,0.504-1.709,0.737-2.662,0.737
				C83.768,224.345,81.987,222.691,81.987,220.298z"/>
			<path fill="#1E5035" d="M92.276,223.375c-0.144-0.307-0.234-0.702-0.234-1.134v-4.462h-1.457v-1.331h1.457v-1.781l1.547-0.629
				v2.41h2.356v1.331h-2.356v4.192c0,0.252,0.036,0.432,0.108,0.594c0.144,0.252,0.432,0.377,0.881,0.377
				c0.468,0,1.025-0.216,1.475-0.432l-0.162,1.386c-0.45,0.233-1.025,0.449-1.745,0.449
				C93.283,224.345,92.617,224.04,92.276,223.375z"/>
			<path fill="#1E5035" d="M97.582,220.334c0-2.177,1.583-4.029,4.048-4.029c2.464,0,4.047,1.835,4.047,4.029
				c0,2.159-1.601,4.012-4.047,4.012C99.147,224.345,97.582,222.51,97.582,220.334z M104.076,220.334
				c0-1.583-1.007-2.716-2.446-2.716c-1.458,0-2.465,1.133-2.465,2.716s1.007,2.699,2.465,2.699
				C103.069,223.033,104.076,221.917,104.076,220.334z"/>
			<path fill="#1E5035" d="M112.889,218.985c-0.54,0-0.936-0.342-0.936-0.864c0-0.126,0.018-0.27,0.072-0.396
				c-0.306-0.144-0.755-0.233-1.241-0.233c-0.99,0-1.529,0.485-1.529,0.989c0,0.575,0.594,0.81,1.835,1.133
				c1.673,0.433,2.896,0.882,2.896,2.339c0,1.548-1.475,2.411-3.166,2.411c-1.169,0-2.357-0.396-2.878-0.918
				c-0.288-0.287-0.432-0.611-0.432-1.007c0-0.504,0.36-0.936,0.882-0.936c0.503,0,0.917,0.342,0.917,0.899
				c0,0.144-0.018,0.27-0.072,0.396c0.288,0.18,0.864,0.36,1.583,0.36c0.935,0,1.691-0.36,1.691-1.044
				c0-0.558-0.558-0.827-1.709-1.115c-1.979-0.504-3.041-0.989-3.041-2.375c0-1.188,1.062-2.32,3.041-2.32
				c1.007,0,2.015,0.323,2.519,0.827c0.27,0.271,0.396,0.594,0.396,0.936C113.716,218.625,113.374,218.985,112.889,218.985z"/>
			<path fill="#1E5035" d="M125.659,218.985c-0.54,0-0.936-0.342-0.936-0.864c0-0.126,0.018-0.27,0.072-0.396
				c-0.306-0.144-0.755-0.233-1.241-0.233c-0.99,0-1.529,0.485-1.529,0.989c0,0.575,0.594,0.81,1.835,1.133
				c1.673,0.433,2.896,0.882,2.896,2.339c0,1.548-1.475,2.411-3.166,2.411c-1.169,0-2.357-0.396-2.878-0.918
				c-0.288-0.287-0.432-0.611-0.432-1.007c0-0.504,0.36-0.936,0.882-0.936c0.503,0,0.917,0.342,0.917,0.899
				c0,0.144-0.018,0.27-0.072,0.396c0.288,0.18,0.864,0.36,1.583,0.36c0.935,0,1.691-0.36,1.691-1.044
				c0-0.558-0.558-0.827-1.709-1.115c-1.979-0.504-3.041-0.989-3.041-2.375c0-1.188,1.062-2.32,3.041-2.32
				c1.007,0,2.015,0.323,2.519,0.827c0.27,0.271,0.396,0.594,0.396,0.936C126.486,218.625,126.145,218.985,125.659,218.985z"/>
			<path fill="#1E5035" d="M130.119,220.82c0.216,1.475,1.295,2.194,2.807,2.194c0.989,0,1.835-0.306,2.752-0.827l-0.126,1.421
				c-0.81,0.504-1.799,0.737-2.86,0.737c-2.5,0-4.191-1.619-4.191-3.993c0-2.177,1.493-4.048,3.85-4.048
				c2.393,0,3.652,1.709,3.652,3.688c0,0.288-0.036,0.594-0.072,0.828H130.119z M130.119,219.669h4.336
				c-0.072-1.241-0.828-2.087-2.142-2.087C131.27,217.582,130.317,218.265,130.119,219.669z"/>
			<path fill="#1E5035" d="M137.548,222.907h1.259v-10.543h-1.259v-1.331h2.806v11.874h1.242v1.295h-4.048V222.907z"/>
			<path fill="#1E5035" d="M144.796,220.82c0.216,1.475,1.295,2.194,2.807,2.194c0.989,0,1.835-0.306,2.752-0.827l-0.126,1.421
				c-0.81,0.504-1.799,0.737-2.86,0.737c-2.5,0-4.191-1.619-4.191-3.993c0-2.177,1.493-4.048,3.85-4.048
				c2.393,0,3.652,1.709,3.652,3.688c0,0.288-0.036,0.594-0.072,0.828H144.796z M144.796,219.669h4.336
				c-0.072-1.241-0.828-2.087-2.142-2.087C145.947,217.582,144.994,218.265,144.796,219.669z"/>
			<path fill="#1E5035" d="M152.384,220.298c0-2.086,1.674-3.993,3.887-3.993c1.925,0,3.328,1.259,3.328,2.446
				c0,0.684-0.468,1.151-1.098,1.151c-0.504,0-0.972-0.396-0.972-0.972c0-0.252,0.126-0.503,0.324-0.647
				c-0.181-0.359-0.828-0.701-1.583-0.701c-1.044,0-2.321,0.881-2.321,2.752c0,1.602,1.17,2.681,2.771,2.681
				c0.899,0,1.709-0.27,2.663-0.827l-0.145,1.421c-0.791,0.504-1.709,0.737-2.662,0.737
				C154.166,224.345,152.384,222.691,152.384,220.298z"/>
			<path fill="#1E5035" d="M161.306,220.298c0-2.086,1.674-3.993,3.887-3.993c1.925,0,3.328,1.259,3.328,2.446
				c0,0.684-0.468,1.151-1.098,1.151c-0.504,0-0.972-0.396-0.972-0.972c0-0.252,0.126-0.503,0.324-0.647
				c-0.181-0.359-0.828-0.701-1.583-0.701c-1.044,0-2.321,0.881-2.321,2.752c0,1.602,1.17,2.681,2.771,2.681
				c0.899,0,1.709-0.27,2.663-0.827l-0.145,1.421c-0.791,0.504-1.709,0.737-2.662,0.737
				C163.088,224.345,161.306,222.691,161.306,220.298z"/>
			<path fill="#1E5035" d="M170.353,222.907h1.26v-5.128h-1.26v-1.331h2.807v6.459h1.241v1.295h-4.048V222.907z M171.09,213.677
				c0-0.611,0.522-1.115,1.134-1.115c0.594,0,1.115,0.504,1.115,1.115c0,0.63-0.54,1.134-1.134,1.134
				C171.594,214.811,171.09,214.307,171.09,213.677z"/>
			<path fill="#1E5035" d="M176.073,220.334c0-2.177,1.583-4.029,4.048-4.029s4.048,1.835,4.048,4.029
				c0,2.159-1.602,4.012-4.048,4.012C177.638,224.345,176.073,222.51,176.073,220.334z M182.567,220.334
				c0-1.583-1.007-2.716-2.446-2.716c-1.457,0-2.465,1.133-2.465,2.716s1.008,2.699,2.465,2.699
				C181.56,223.033,182.567,221.917,182.567,220.334z"/>
			<path fill="#1E5035" d="M188.573,217.798c0.738-0.792,1.71-1.493,2.825-1.493c0.971,0,1.637,0.378,2.032,0.989
				c0.252,0.432,0.396,0.972,0.396,1.619v3.994h1.205v1.295h-3.904v-1.295h1.151v-3.652c0-0.378-0.054-0.684-0.18-0.918
				c-0.216-0.413-0.594-0.611-1.151-0.611c-0.846,0-1.655,0.504-2.32,1.17v4.012h1.151v1.295h-3.886v-1.295h1.205v-5.128h-1.205
				v-1.331h2.68V217.798z"/>
			<path fill="#1E5035" d="M196.361,222.132c0-1.421,1.26-2.338,3.041-2.338c0.81,0,1.709,0.18,2.122,0.306v-0.882
				c0-0.449-0.126-0.81-0.342-1.079c-0.323-0.396-0.863-0.594-1.619-0.594c-0.485,0-0.773,0.107-1.007,0.233
				c0.054,0.126,0.09,0.288,0.09,0.433c0,0.503-0.378,0.881-0.899,0.881c-0.54,0-0.918-0.378-0.918-0.917
				c0-0.918,1.008-1.871,2.986-1.871c1.206,0,2.087,0.359,2.608,0.972c0.396,0.468,0.594,1.079,0.594,1.78v3.851h1.206v1.295h-2.663
				v-0.936c-0.63,0.594-1.619,1.079-2.662,1.079C197.476,224.345,196.361,223.536,196.361,222.132z M201.524,222.258V221
				c-0.521-0.144-1.187-0.27-1.889-0.27c-1.098,0-1.709,0.521-1.709,1.277c0,0.701,0.521,1.169,1.421,1.169
				C200.175,223.176,200.93,222.781,201.524,222.258z"/>
			<path fill="#1E5035" d="M205.534,220.37c0-2.213,1.565-4.065,3.777-4.065c0.972,0,1.781,0.359,2.303,0.846v-4.786h-1.331v-1.331
				h2.879v11.874h1.205v1.295h-2.734v-0.989c-0.611,0.647-1.386,1.133-2.465,1.133C207.117,224.345,205.534,222.726,205.534,220.37z
				 M211.614,222.007v-3.599c-0.558-0.432-1.223-0.756-2.122-0.756c-1.332,0-2.357,1.062-2.375,2.699
				c0,1.619,1.025,2.645,2.339,2.645C210.338,222.997,211.039,222.583,211.614,222.007z"/>
			<path fill="#1E5035" d="M215.877,220.334c0-2.177,1.583-4.029,4.048-4.029s4.048,1.835,4.048,4.029
				c0,2.159-1.602,4.012-4.048,4.012C217.442,224.345,215.877,222.51,215.877,220.334z M222.371,220.334
				c0-1.583-1.007-2.716-2.446-2.716c-1.457,0-2.465,1.133-2.465,2.716s1.008,2.699,2.465,2.699
				C221.364,223.033,222.371,221.917,222.371,220.334z"/>
			<path fill="#1E5035" d="M231.183,218.985c-0.539,0-0.936-0.342-0.936-0.864c0-0.126,0.019-0.27,0.072-0.396
				c-0.306-0.144-0.756-0.233-1.241-0.233c-0.989,0-1.529,0.485-1.529,0.989c0,0.575,0.594,0.81,1.835,1.133
				c1.673,0.433,2.896,0.882,2.896,2.339c0,1.548-1.476,2.411-3.166,2.411c-1.17,0-2.356-0.396-2.879-0.918
				c-0.287-0.287-0.432-0.611-0.432-1.007c0-0.504,0.36-0.936,0.882-0.936c0.504,0,0.917,0.342,0.917,0.899
				c0,0.144-0.018,0.27-0.071,0.396c0.287,0.18,0.863,0.36,1.583,0.36c0.936,0,1.69-0.36,1.69-1.044
				c0-0.558-0.558-0.827-1.709-1.115c-1.979-0.504-3.04-0.989-3.04-2.375c0-1.188,1.062-2.32,3.04-2.32
				c1.008,0,2.016,0.323,2.519,0.827c0.271,0.271,0.396,0.594,0.396,0.936C232.011,218.625,231.67,218.985,231.183,218.985z"/>
		</g>
	</g>
	<g>
		<g>
			<path fill="#1E5035" d="M159.098,97.548c0-5.59,3.055-9.101,8.84-9.101c5.721,0,8.84,3.51,8.84,9.101s-3.119,9.035-8.84,9.035
				C162.153,106.583,159.098,103.138,159.098,97.548z M173.008,97.548c0-3.9-1.69-6.045-5.07-6.045
				c-3.381,0-5.135,2.145-5.135,6.045c0,3.9,1.754,5.98,5.135,5.98C171.318,103.528,173.008,101.448,173.008,97.548z
				 M170.798,132.974h-3.899l24.051-44.202h3.899L170.798,132.974z M184.968,124.264c0-5.59,3.056-9.1,8.841-9.1
				c5.72,0,8.84,3.51,8.84,9.1c0,5.59-3.12,9.036-8.84,9.036C188.024,133.299,184.968,129.854,184.968,124.264z M198.88,124.264
				c0-3.9-1.69-6.045-5.07-6.045c-3.381,0-5.136,2.145-5.136,6.045c0,3.9,1.755,5.98,5.136,5.98
				C197.189,130.244,198.88,128.164,198.88,124.264z"/>
			<path fill="#1E5035" d="M157.367,151.531c0-4.125,1.237-7.49,6.297-7.49c5.037,0,6.297,3.365,6.297,7.49
				c0,4.191-1.26,7.709-6.297,7.709C158.604,159.24,157.367,155.722,157.367,151.531z M159.538,151.531
				c0,3.148,0.586,5.972,4.126,5.972c3.518,0,4.126-2.823,4.126-5.972s-0.608-5.754-4.126-5.754
				C160.124,145.777,159.538,148.382,159.538,151.531z"/>
			<path fill="#1E5035" d="M181.964,146.103h-7.166v4.776h6.188v1.846h-6.188v6.297h-2.062v-14.765h9.229V146.103z"/>
			<path fill="#1E5035" d="M194.01,146.103h-7.166v4.776h6.188v1.846h-6.188v6.297h-2.062v-14.765h9.229V146.103z"/>
		</g>
		<g>
			<g>
				<g>
					<path fill="#1E5035" d="M64.698,105.661l-2.565-8.017c8.337-3.741,17.422-8.444,22.981-12.826h6.947v73.218h-9.62V96.362
						L64.698,105.661z"/>
					<path fill="#1E5035" d="M100.611,121.16c0-20.309,5.023-36.877,25.653-36.877c20.523,0,25.654,16.568,25.654,36.877
						c0,20.629-5.131,37.945-25.654,37.945C105.634,159.105,100.611,141.789,100.611,121.16z M110.765,121.16
						c0,15.498,2.886,29.929,15.499,29.929c12.506,0,15.5-14.431,15.5-29.929c0-15.499-2.993-28.86-15.5-28.86
						C113.651,92.299,110.765,105.661,110.765,121.16z"/>
				</g>
			</g>
		</g>
	</g>
</g>
<g>
</g>
<g>
</g>
<g>
</g>
<g>
</g>
<g>
</g>
<g>
</g>
<g>
</g>
<g>
</g>
<g>
</g>
<g>
</g>
<g>
</g>
<g>
</g>
<g>
</g>
<g>
</g>
<g>
</g>
</svg>
