<?xml version="1.0" encoding="utf-8"?>
<!-- Generator: Adobe Illustrator 17.0.0, SVG Export Plug-In . SVG Version: 6.00 Build 0)  -->
<!DOCTYPE svg PUBLIC "-//W3C//DTD SVG 1.1//EN" "http://www.w3.org/Graphics/SVG/1.1/DTD/svg11.dtd">
<svg version="1.1" id="Layer_1" xmlns="http://www.w3.org/2000/svg" xmlns:xlink="http://www.w3.org/1999/xlink" x="0px" y="0px"
	 width="266.333px" height="265px" viewBox="0 0 266.333 265" enable-background="new 0 0 266.333 265" xml:space="preserve">
<g>
	<rect x="5.99" y="2.479" fill="#16A314" width="254.353" height="30.179"/>
	<g>
		<path fill="#FFFFFF" d="M92.192,19.577h0.042l3.386-9.545h3.852v14.392h-2.899v-9.143H96.53l-3.429,9.143h-2.116l-3.344-9.143
			h-0.042v9.143h-2.836V10.032h3.873L92.192,19.577z"/>
		<path fill="#FFFFFF" d="M111.913,21.165h-4.55l-0.974,3.259h-3.09l4.656-14.497h3.556l4.593,14.497h-3.217L111.913,21.165z
			 M109.627,13.566l-1.672,5.164h3.365l-1.651-5.164H109.627z"/>
		<path fill="#FFFFFF" d="M127.952,24.424l-3.026-5.122h-2.074v5.122h-2.92V10.032h6.138c3.026,0,4.762,1.82,4.762,4.635
			c0,1.947-0.91,3.577-2.857,4.148l3.365,5.608H127.952z M122.852,16.699h2.857c1.206,0,2.137-0.529,2.137-2.032
			c0-1.46-0.868-2.031-2.095-2.031h-2.899V16.699z"/>
		<path fill="#FFFFFF" d="M143.463,21.165h-4.55l-0.974,3.259h-3.09l4.656-14.497h3.556l4.593,14.497h-3.218L143.463,21.165z
			 M141.177,13.566l-1.672,5.164h3.365l-1.651-5.164H141.177z"/>
		<path fill="#FFFFFF" d="M151.481,24.424V10.032h2.921l5.757,9.037h0.042v-9.037h2.814v14.392h-2.899l-5.756-8.72h-0.043v8.72
			H151.481z"/>
		<path fill="#FFFFFF" d="M175.457,21.165h-4.55l-0.974,3.259h-3.09L171.5,9.926h3.556l4.593,14.497h-3.218L175.457,21.165z
			 M173.172,13.566L171.5,18.73h3.365l-1.651-5.164H173.172z M174.145,9.165h-1.481l1.164-2.54h2.265L174.145,9.165z"/>
	</g>
	<g>
		<g>
			<g>
				<path fill="#1E5035" d="M93.871,134.993l0.688-3.436c4.467,1.073,7.474,1.288,9.836,1.288c4.296,0,6.229-2.233,6.229-4.596
					c0-3.565-4.167-4.425-7.303-5.283c-4.768-1.246-9.02-3.866-9.02-8.806c0-5.541,4.51-7.731,10.094-7.731
					c3.222,0,6.229,0.43,9.879,1.503l-0.944,3.437c-4.425-1.074-6.572-1.289-8.935-1.289c-4.295,0-5.799,1.934-5.799,4.21
					c0,3.308,4.253,4.467,7.517,5.24c4.726,1.074,8.806,3.351,8.806,8.376c0,5.799-4.51,8.591-10.523,8.591
					C101.173,136.497,97.522,136.067,93.871,134.993z"/>
				<path fill="#1E5035" d="M120.927,136.067h-3.436l15.893-29.208h3.437L120.927,136.067z"/>
				<path fill="#1E5035" d="M139.136,115.02l-1.031-3.222c3.351-1.504,7.002-3.394,9.235-5.154h2.792v29.423h-3.866v-24.784
					L139.136,115.02z"/>
				<path fill="#1E5035" d="M167.354,120.733c3.995,1.761,6.83,3.865,6.83,7.731c0,5.24-4.296,8.032-10.438,8.032
					c-5.971,0-10.181-2.577-10.181-7.646c0-3.909,2.921-6.186,6.787-7.604v-0.086c-3.479-1.46-5.928-3.564-5.928-7.259
					c0-4.811,4.253-7.474,9.536-7.474c5.111,0,9.363,2.663,9.363,7.302c0,3.522-2.362,5.326-5.971,6.916V120.733z M164.005,133.619
					c4.639,0,6.185-2.319,6.185-4.854c0-3.565-3.736-4.854-6.872-6.057c-2.921,1.03-5.799,2.663-5.799,5.756
					C157.518,131.042,159.193,133.619,164.005,133.619z M158.292,113.86c0,2.964,2.835,4.51,6.013,5.412
					c2.835-0.988,5.155-2.491,5.155-5.197c0-3.565-3.222-4.725-5.713-4.725C161.47,109.35,158.292,110.466,158.292,113.86z"/>
			</g>
		</g>
	</g>
	<g>
		<g>
			<g>
				<path fill="#1E5035" d="M101.984,94.118h-3.9l-0.87,2.58h-1.5l3.51-10.274h1.755l3.436,10.274h-1.59L101.984,94.118z
					 M100.049,88.209l-1.665,4.709h3.3l-1.604-4.709H100.049z"/>
				<path fill="#1E5035" d="M105.074,96.698V86.499h1.425l4.949,7.574h0.03v-7.574h1.395v10.199h-1.425l-4.965-7.41h-0.029v7.41
					H105.074z"/>
				<path fill="#1E5035" d="M118.153,87.773v8.925h-1.425v-8.925h-2.806v-1.274h7.05v1.274H118.153z"/>
				<path fill="#1E5035" d="M128.547,87.773h-5.1v3h4.425v1.275h-4.425v3.374h5.175v1.275h-6.6V86.499h6.524V87.773z"/>
				<path fill="#1E5035" d="M129.673,96.323l0.239-1.2c1.561,0.375,2.61,0.45,3.436,0.45c1.5,0,2.175-0.78,2.175-1.604
					c0-1.245-1.455-1.545-2.55-1.846c-1.665-0.435-3.15-1.35-3.15-3.074c0-1.936,1.575-2.7,3.525-2.7
					c1.125,0,2.175,0.15,3.449,0.525l-0.33,1.199c-1.545-0.375-2.295-0.449-3.119-0.449c-1.5,0-2.025,0.675-2.025,1.47
					c0,1.154,1.485,1.56,2.625,1.83c1.649,0.375,3.075,1.17,3.075,2.925c0,2.024-1.575,3-3.675,3
					C132.222,96.848,130.947,96.698,129.673,96.323z"/>
				<path fill="#1E5035" d="M140.172,96.323l0.239-1.2c1.561,0.375,2.61,0.45,3.436,0.45c1.5,0,2.175-0.78,2.175-1.604
					c0-1.245-1.455-1.545-2.55-1.846c-1.665-0.435-3.15-1.35-3.15-3.074c0-1.936,1.575-2.7,3.525-2.7
					c1.125,0,2.175,0.15,3.449,0.525l-0.33,1.199c-1.545-0.375-2.295-0.449-3.119-0.449c-1.5,0-2.025,0.675-2.025,1.47
					c0,1.154,1.485,1.56,2.625,1.83c1.649,0.375,3.075,1.17,3.075,2.925c0,2.024-1.575,3-3.675,3
					C142.721,96.848,141.446,96.698,140.172,96.323z"/>
				<path fill="#1E5035" d="M149.621,96.698h-1.2l5.55-10.199h1.2L149.621,96.698z"/>
				<path fill="#1E5035" d="M156.475,88.178l-0.404-1.08c1.095-0.48,1.965-0.75,3.225-0.75c2.205,0,3.225,1.395,3.225,3.045
					c0,2.1-1.545,3.975-4.545,6.075v0.029h4.695v1.2h-6.6v-1.305c4.289-2.835,5.024-4.59,5.024-5.7c0-1.875-1.425-2.1-2.1-2.1
					C158.26,87.593,157.541,87.698,156.475,88.178z"/>
				<path fill="#1E5035" d="M163.72,91.523c0-2.85,0.704-5.175,3.6-5.175c2.88,0,3.6,2.325,3.6,5.175c0,2.895-0.72,5.325-3.6,5.325
					C164.424,96.848,163.72,94.418,163.72,91.523z M165.145,91.523c0,2.175,0.404,4.2,2.175,4.2c1.755,0,2.175-2.025,2.175-4.2
					s-0.42-4.05-2.175-4.05C165.549,87.473,165.145,89.348,165.145,91.523z"/>
			</g>
		</g>
	</g>
	<g>
		<g>
			<path fill="#1E5035" d="M97.854,68.125h1.84V57.822h-2.738v2.334h-2.402v-4.534h12.816v4.534h-2.401v-2.334h-2.738v10.303h1.84
				v2.267h-6.217V68.125z"/>
			<path fill="#1E5035" d="M109.12,67.81c0-1.841,1.616-2.963,3.95-2.963c1.01,0,1.953,0.135,2.492,0.27v-0.786
				c0-0.583-0.135-1.032-0.382-1.347c-0.404-0.516-1.055-0.718-1.93-0.718c-0.426,0-0.741,0.067-0.965,0.157
				c0.044,0.134,0.089,0.358,0.089,0.493c0,0.741-0.583,1.279-1.324,1.279s-1.302-0.516-1.302-1.324
				c0-1.212,1.234-2.491,3.906-2.491c1.683,0,2.828,0.472,3.524,1.324c0.516,0.629,0.763,1.481,0.763,2.469v4.197h1.459v2.021
				h-3.793v-1.077c-0.786,0.673-1.975,1.257-3.3,1.257C110.624,70.571,109.12,69.651,109.12,67.81z M115.562,67.923v-1.549
				c-0.561-0.135-1.257-0.225-2.02-0.225c-1.19,0-1.908,0.539-1.908,1.437c0,0.785,0.584,1.212,1.459,1.212
				C113.968,68.798,114.821,68.461,115.562,67.923z"/>
			<path fill="#1E5035" d="M124.045,69.449l-0.539,0.987h-1.661v-14.41h-1.481v-2.065h3.928v7.677
				c0.718-0.695,1.639-1.257,2.896-1.257c2.604,0,4.557,2.088,4.557,5.05c0,2.851-2.065,5.141-4.713,5.141
				C125.773,70.571,124.875,70.122,124.045,69.449z M129.229,65.453c0-1.885-1.167-2.962-2.604-2.962
				c-0.92,0-1.661,0.403-2.334,0.987v4.22c0.651,0.449,1.414,0.763,2.334,0.763C127.995,68.461,129.229,67.406,129.229,65.453z"/>
			<path fill="#1E5035" d="M133.537,68.371h1.526V56.026h-1.526v-2.065h3.974v14.41h1.459v2.021h-5.433V68.371z"/>
			<path fill="#1E5035" d="M143.344,66.306c0.337,1.526,1.594,2.199,3.232,2.199c1.189,0,2.424-0.381,3.568-1.032l-0.201,2.199
				c-1.033,0.606-2.29,0.898-3.727,0.898c-3.209,0-5.432-2.021-5.432-5.073c0-2.783,1.953-5.117,4.982-5.117
				c3.143,0,4.781,2.11,4.781,4.714c0,0.381-0.045,0.875-0.112,1.212H143.344z M143.322,64.6h4.781
				c-0.045-1.347-0.921-2.244-2.356-2.244C144.669,62.356,143.591,62.984,143.322,64.6z"/>
			<path fill="#1E5035" d="M154.139,69.224c-0.225-0.404-0.336-0.921-0.336-1.549v-5.051h-1.908V60.56h1.908v-2.065l2.424-1.055
				v3.12h2.985v2.064h-2.985v4.579c0,0.314,0.045,0.517,0.156,0.719c0.18,0.314,0.539,0.471,1.033,0.471
				c0.629,0,1.347-0.246,1.93-0.516l-0.201,2.109c-0.674,0.337-1.459,0.584-2.357,0.584
				C155.598,70.571,154.633,70.167,154.139,69.224z"/>
			<path fill="#1E5035" d="M161.209,67.81c0-1.841,1.616-2.963,3.95-2.963c1.01,0,1.953,0.135,2.492,0.27v-0.786
				c0-0.583-0.135-1.032-0.383-1.347c-0.403-0.516-1.055-0.718-1.93-0.718c-0.426,0-0.74,0.067-0.965,0.157
				c0.045,0.134,0.09,0.358,0.09,0.493c0,0.741-0.584,1.279-1.324,1.279c-0.741,0-1.303-0.516-1.303-1.324
				c0-1.212,1.234-2.491,3.906-2.491c1.684,0,2.828,0.472,3.523,1.324c0.517,0.629,0.764,1.481,0.764,2.469v4.197h1.459v2.021
				h-3.793v-1.077c-0.786,0.673-1.976,1.257-3.301,1.257C162.713,70.571,161.209,69.651,161.209,67.81z M167.651,67.923v-1.549
				c-0.562-0.135-1.258-0.225-2.021-0.225c-1.19,0-1.908,0.539-1.908,1.437c0,0.785,0.584,1.212,1.459,1.212
				C166.057,68.798,166.91,68.461,167.651,67.923z"/>
		</g>
	</g>
	<g>
		<g>
			<g>
				<path fill="#1E5035" d="M83.349,248.993l0.688-3.436c4.467,1.073,7.474,1.288,9.836,1.288c4.295,0,6.228-2.233,6.228-4.596
					c0-3.565-4.167-4.425-7.302-5.283c-4.768-1.246-9.02-3.866-9.02-8.806c0-5.541,4.51-7.731,10.094-7.731
					c3.221,0,6.228,0.43,9.879,1.503l-0.945,3.437c-4.424-1.074-6.572-1.289-8.934-1.289c-4.295,0-5.799,1.934-5.799,4.21
					c0,3.308,4.252,4.467,7.517,5.24c4.725,1.074,8.806,3.351,8.806,8.376c0,5.799-4.51,8.591-10.523,8.591
					C90.651,250.497,87,250.067,83.349,248.993z"/>
				<path fill="#1E5035" d="M110.406,250.067h-3.436l15.893-29.208h3.437L110.406,250.067z"/>
				<path fill="#1E5035" d="M128.614,229.02l-1.031-3.222c3.351-1.504,7.001-3.394,9.235-5.154h2.791v29.423h-3.865v-24.784
					L128.614,229.02z"/>
				<path fill="#1E5035" d="M144.204,225.67l-1.159-3.093c3.136-1.375,5.627-2.147,9.235-2.147c6.314,0,9.234,3.994,9.234,8.72
					c0,6.013-4.424,11.382-13.015,17.396v0.086h13.444v3.437h-18.899v-3.737c12.284-8.118,14.39-13.144,14.39-16.322
					c0-5.369-4.08-6.014-6.014-6.014C149.316,223.994,147.255,224.295,144.204,225.67z"/>
				<path fill="#1E5035" d="M164.948,248.349l1.159-2.964c3.05,1.46,5.327,1.89,7.86,1.89c4.167,0,6.658-2.491,6.658-6.443
					c0-2.835-1.375-6.099-5.799-6.099c-2.233,0-4.123,0.944-5.584,2.835l-2.835-0.258l0.688-16.451h15.893v3.436h-12.542
					l-0.602,9.794l0.086,0.043c1.461-1.547,3.693-2.749,6.229-2.749c5.197,0,8.547,3.351,8.547,9.234c0,6.443-4.08,9.88-10.523,9.88
					C170.79,250.497,168.083,249.852,164.948,248.349z"/>
			</g>
		</g>
	</g>
	<g>
		<g>
			<g>
				<path fill="#1E5035" d="M99.509,208.118h-3.9l-0.87,2.58h-1.5l3.51-10.274h1.755l3.435,10.274h-1.59L99.509,208.118z
					 M97.574,202.209l-1.665,4.709h3.3l-1.605-4.709H97.574z"/>
				<path fill="#1E5035" d="M102.599,210.698v-10.199h1.425l4.95,7.574h0.03v-7.574h1.395v10.199h-1.425l-4.965-7.41h-0.03v7.41
					H102.599z"/>
				<path fill="#1E5035" d="M115.678,201.773v8.925h-1.425v-8.925h-2.805v-1.274h7.05v1.274H115.678z"/>
				<path fill="#1E5035" d="M126.072,201.773h-5.1v3h4.425v1.275h-4.425v3.374h5.175v1.275h-6.6v-10.199h6.524V201.773z"/>
				<path fill="#1E5035" d="M127.197,210.323l0.24-1.2c1.56,0.375,2.61,0.45,3.435,0.45c1.5,0,2.175-0.78,2.175-1.604
					c0-1.245-1.455-1.545-2.55-1.846c-1.665-0.435-3.15-1.35-3.15-3.074c0-1.936,1.575-2.7,3.525-2.7c1.125,0,2.175,0.15,3.45,0.525
					l-0.33,1.199c-1.545-0.375-2.295-0.449-3.12-0.449c-1.5,0-2.025,0.675-2.025,1.47c0,1.154,1.485,1.56,2.625,1.83
					c1.65,0.375,3.075,1.17,3.075,2.925c0,2.024-1.575,3-3.675,3C129.747,210.848,128.472,210.698,127.197,210.323z"/>
				<path fill="#1E5035" d="M137.696,210.323l0.24-1.2c1.561,0.375,2.609,0.45,3.436,0.45c1.5,0,2.174-0.78,2.174-1.604
					c0-1.245-1.455-1.545-2.549-1.846c-1.666-0.435-3.15-1.35-3.15-3.074c0-1.936,1.574-2.7,3.525-2.7
					c1.125,0,2.174,0.15,3.449,0.525l-0.33,1.199c-1.545-0.375-2.295-0.449-3.119-0.449c-1.5,0-2.025,0.675-2.025,1.47
					c0,1.154,1.484,1.56,2.625,1.83c1.649,0.375,3.074,1.17,3.074,2.925c0,2.024-1.574,3-3.674,3
					C140.247,210.848,138.971,210.698,137.696,210.323z"/>
				<path fill="#1E5035" d="M147.146,210.698h-1.2l5.55-10.199h1.2L147.146,210.698z"/>
				<path fill="#1E5035" d="M153.506,203.348l-0.36-1.125c1.17-0.525,2.445-1.185,3.225-1.8h0.976v10.274h-1.35v-8.654
					L153.506,203.348z"/>
				<path fill="#1E5035" d="M163.21,205.478c1.425,0.285,2.234,1.274,2.234,2.52c0,1.815-1.244,2.851-3.569,2.851
					c-1.2,0-2.295-0.181-3.329-0.705l0.42-1.05c0.885,0.449,1.829,0.63,2.834,0.63c1.965,0,2.25-1.155,2.25-1.8
					c0-1.065-0.765-1.756-2.43-1.756h-1.275v-1.124h1.215c1.605,0,2.235-0.96,2.235-1.875c0-0.676-0.36-1.695-1.995-1.695
					c-0.945,0-1.725,0.21-2.595,0.63l-0.42-1.035c1.05-0.51,2.175-0.72,3.239-0.72c1.875,0,3.121,0.96,3.121,2.67
					c0,1.245-0.826,2.055-1.936,2.43V205.478z"/>
				<path fill="#1E5035" d="M166.495,210.098l0.404-1.035c1.065,0.51,1.86,0.66,2.745,0.66c1.455,0,2.325-0.87,2.325-2.25
					c0-0.99-0.48-2.13-2.025-2.13c-0.779,0-1.439,0.33-1.949,0.989l-0.99-0.09l0.24-5.744h5.549v1.199h-4.379l-0.211,3.42
					l0.031,0.016c0.51-0.54,1.289-0.96,2.174-0.96c1.815,0,2.985,1.17,2.985,3.225c0,2.25-1.425,3.45-3.675,3.45
					C168.534,210.848,167.59,210.623,166.495,210.098z"/>
			</g>
		</g>
	</g>
	<g>
		<g>
			<path fill="#1E5035" d="M68.6,177.007c0-4.444,3.457-7.654,7.767-7.654c3.434,0,5.724,1.796,5.724,3.569
				c0,1.077-0.696,1.818-1.616,1.818c-1.011,0-1.706-0.629-1.706-1.594c0-0.292,0.067-0.584,0.157-0.764
				c-0.427-0.336-1.279-0.673-2.626-0.673c-2.873,0-5.073,2.199-5.073,5.274c0,2.963,2.065,5.319,5.186,5.319
				c1.728,0,3.142-0.763,4.242-1.952l1.683,1.751c-1.437,1.593-3.568,2.559-5.925,2.559C71.855,184.661,68.6,181.608,68.6,177.007z"
				/>
			<path fill="#1E5035" d="M84.557,181.81c0-1.841,1.616-2.963,3.95-2.963c1.01,0,1.953,0.135,2.491,0.27v-0.786
				c0-0.583-0.135-1.032-0.382-1.347c-0.403-0.516-1.055-0.718-1.93-0.718c-0.427,0-0.741,0.067-0.966,0.157
				c0.045,0.134,0.09,0.358,0.09,0.493c0,0.741-0.583,1.279-1.324,1.279c-0.74,0-1.302-0.516-1.302-1.324
				c0-1.212,1.234-2.491,3.906-2.491c1.683,0,2.828,0.472,3.523,1.324c0.517,0.629,0.764,1.481,0.764,2.469v4.197h1.459v2.021
				h-3.794v-1.077c-0.785,0.673-1.975,1.257-3.3,1.257C86.061,184.571,84.557,183.651,84.557,181.81z M90.999,181.923v-1.549
				c-0.561-0.135-1.257-0.225-2.02-0.225c-1.19,0-1.908,0.539-1.908,1.437c0,0.785,0.584,1.212,1.459,1.212
				S90.258,182.461,90.999,181.923z"/>
			<path fill="#1E5035" d="M95.89,185.738c0.719,0,1.212,0.517,1.324,1.189c0.494-0.112,0.831-0.516,1.01-1.01
				c0.18-0.517,0.225-1.032,0.225-1.549v-7.744h-1.84v-2.064h4.287v9.674c0,1.077-0.202,1.976-0.562,2.671
				c-0.674,1.347-1.953,1.976-3.39,1.976c-1.661,0-2.401-0.92-2.401-1.773C94.544,186.367,95.15,185.738,95.89,185.738z
				 M97.619,171.44c0-0.897,0.785-1.616,1.661-1.616c0.875,0,1.616,0.719,1.616,1.616s-0.786,1.616-1.661,1.616
				C98.359,173.056,97.619,172.338,97.619,171.44z"/>
			<path fill="#1E5035" d="M103.521,181.81c0-1.841,1.616-2.963,3.95-2.963c1.01,0,1.953,0.135,2.491,0.27v-0.786
				c0-0.583-0.135-1.032-0.382-1.347c-0.403-0.516-1.055-0.718-1.93-0.718c-0.427,0-0.741,0.067-0.966,0.157
				c0.045,0.134,0.09,0.358,0.09,0.493c0,0.741-0.583,1.279-1.324,1.279c-0.74,0-1.302-0.516-1.302-1.324
				c0-1.212,1.234-2.491,3.906-2.491c1.683,0,2.828,0.472,3.523,1.324c0.517,0.629,0.764,1.481,0.764,2.469v4.197h1.459v2.021
				h-3.794v-1.077c-0.785,0.673-1.975,1.257-3.3,1.257C105.025,184.571,103.521,183.651,103.521,181.81z M109.963,181.923v-1.549
				c-0.561-0.135-1.257-0.225-2.02-0.225c-1.19,0-1.908,0.539-1.908,1.437c0,0.785,0.584,1.212,1.459,1.212
				S109.222,182.461,109.963,181.923z"/>
			<path fill="#1E5035" d="M120.757,179.52c0-2.851,2.064-5.14,4.713-5.14c1.258,0,2.178,0.472,2.739,0.942v-5.297h-1.481v-2.065
				h3.928v14.41h1.459v2.021h-3.905v-1.077c-0.719,0.695-1.639,1.257-2.896,1.257C122.709,184.571,120.757,182.483,120.757,179.52z
				 M128.209,181.473v-4.22c-0.651-0.449-1.414-0.763-2.335-0.763c-1.369,0-2.604,1.055-2.604,3.007
				c0,1.886,1.167,2.963,2.604,2.963C126.795,182.461,127.535,182.057,128.209,181.473z"/>
			<path fill="#1E5035" d="M136.354,180.306c0.337,1.526,1.594,2.199,3.232,2.199c1.189,0,2.424-0.381,3.568-1.032l-0.202,2.199
				c-1.032,0.606-2.289,0.898-3.726,0.898c-3.21,0-5.432-2.021-5.432-5.073c0-2.783,1.952-5.117,4.982-5.117
				c3.143,0,4.781,2.11,4.781,4.714c0,0.381-0.045,0.875-0.112,1.212H136.354z M136.332,178.6h4.781
				c-0.045-1.347-0.921-2.244-2.357-2.244C137.678,176.356,136.601,176.984,136.332,178.6z"/>
			<path fill="#1E5035" d="M151.121,177.007c0-4.444,3.457-7.654,7.767-7.654c3.434,0,5.724,1.796,5.724,3.569
				c0,1.077-0.696,1.818-1.616,1.818c-1.011,0-1.706-0.629-1.706-1.594c0-0.292,0.067-0.584,0.157-0.764
				c-0.427-0.336-1.279-0.673-2.626-0.673c-2.873,0-5.073,2.199-5.073,5.274c0,2.963,2.065,5.319,5.186,5.319
				c1.728,0,3.142-0.763,4.242-1.952l1.683,1.751c-1.437,1.593-3.568,2.559-5.925,2.559
				C154.376,184.661,151.121,181.608,151.121,177.007z"/>
			<path fill="#1E5035" d="M167.078,181.81c0-1.841,1.616-2.963,3.95-2.963c1.01,0,1.953,0.135,2.491,0.27v-0.786
				c0-0.583-0.135-1.032-0.382-1.347c-0.403-0.516-1.055-0.718-1.93-0.718c-0.427,0-0.741,0.067-0.966,0.157
				c0.045,0.134,0.09,0.358,0.09,0.493c0,0.741-0.583,1.279-1.324,1.279c-0.74,0-1.302-0.516-1.302-1.324
				c0-1.212,1.234-2.491,3.906-2.491c1.683,0,2.828,0.472,3.523,1.324c0.517,0.629,0.764,1.481,0.764,2.469v4.197h1.459v2.021
				h-3.794v-1.077c-0.785,0.673-1.975,1.257-3.3,1.257C168.582,184.571,167.078,183.651,167.078,181.81z M173.519,181.923v-1.549
				c-0.561-0.135-1.257-0.225-2.02-0.225c-1.19,0-1.908,0.539-1.908,1.437c0,0.785,0.584,1.212,1.459,1.212
				S172.779,182.461,173.519,181.923z"/>
			<path fill="#1E5035" d="M180.611,183.224c-0.225-0.404-0.337-0.921-0.337-1.549v-5.051h-1.908v-2.064h1.908v-2.065l2.424-1.055
				v3.12h2.985v2.064h-2.985v4.579c0,0.314,0.045,0.517,0.157,0.719c0.18,0.314,0.539,0.471,1.032,0.471
				c0.629,0,1.347-0.246,1.931-0.516l-0.202,2.109c-0.673,0.337-1.459,0.584-2.356,0.584
				C182.07,184.571,181.104,184.167,180.611,183.224z"/>
			<path fill="#1E5035" d="M187.679,181.81c0-1.841,1.616-2.963,3.95-2.963c1.011,0,1.953,0.135,2.492,0.27v-0.786
				c0-0.583-0.135-1.032-0.382-1.347c-0.404-0.516-1.055-0.718-1.931-0.718c-0.426,0-0.74,0.067-0.965,0.157
				c0.045,0.134,0.09,0.358,0.09,0.493c0,0.741-0.584,1.279-1.324,1.279c-0.741,0-1.302-0.516-1.302-1.324
				c0-1.212,1.234-2.491,3.905-2.491c1.684,0,2.828,0.472,3.524,1.324c0.516,0.629,0.763,1.481,0.763,2.469v4.197h1.459v2.021
				h-3.793v-1.077c-0.786,0.673-1.976,1.257-3.3,1.257C189.183,184.571,187.679,183.651,187.679,181.81z M194.122,181.923v-1.549
				c-0.562-0.135-1.257-0.225-2.021-0.225c-1.189,0-1.908,0.539-1.908,1.437c0,0.785,0.584,1.212,1.459,1.212
				C192.528,182.798,193.381,182.461,194.122,181.923z"/>
		</g>
	</g>
</g>
<g>
</g>
<g>
</g>
<g>
</g>
<g>
</g>
<g>
</g>
<g>
</g>
<g>
</g>
<g>
</g>
<g>
</g>
<g>
</g>
<g>
</g>
<g>
</g>
<g>
</g>
<g>
</g>
<g>
</g>
</svg>
