<?xml version="1.0" encoding="utf-8"?>
<!-- Generator: Adobe Illustrator 17.0.0, SVG Export Plug-In . SVG Version: 6.00 Build 0)  -->
<!DOCTYPE svg PUBLIC "-//W3C//DTD SVG 1.1//EN" "http://www.w3.org/Graphics/SVG/1.1/DTD/svg11.dtd">
<svg version="1.1" id="Layer_1" xmlns="http://www.w3.org/2000/svg" xmlns:xlink="http://www.w3.org/1999/xlink" x="0px" y="0px"
	 width="266.333px" height="265px" viewBox="0 0 266.333 265" enable-background="new 0 0 266.333 265" xml:space="preserve">
<g>
	<g>
		<path fill="#1E5035" d="M167.401,94.538c0-5.59,3.055-9.101,8.84-9.101c5.721,0,8.84,3.51,8.84,9.101s-3.119,9.035-8.84,9.035
			C170.456,103.573,167.401,100.129,167.401,94.538z M181.311,94.538c0-3.9-1.69-6.045-5.07-6.045c-3.381,0-5.135,2.145-5.135,6.045
			c0,3.9,1.754,5.98,5.135,5.98C179.621,100.518,181.311,98.438,181.311,94.538z M179.1,129.965h-3.899l24.051-44.202h3.899
			L179.1,129.965z M193.271,121.254c0-5.59,3.056-9.1,8.841-9.1c5.72,0,8.84,3.51,8.84,9.1s-3.12,9.036-8.84,9.036
			C196.327,130.29,193.271,126.844,193.271,121.254z M207.182,121.254c0-3.9-1.69-6.045-5.07-6.045
			c-3.381,0-5.136,2.145-5.136,6.045c0,3.9,1.755,5.98,5.136,5.98C205.492,127.235,207.182,125.154,207.182,121.254z"/>
		<path fill="#1E5035" d="M165.67,148.521c0-4.126,1.237-7.491,6.297-7.491c5.037,0,6.297,3.365,6.297,7.491
			c0,4.19-1.26,7.708-6.297,7.708C166.907,156.229,165.67,152.712,165.67,148.521z M167.84,148.521c0,3.148,0.586,5.972,4.126,5.972
			c3.518,0,4.126-2.823,4.126-5.972s-0.608-5.754-4.126-5.754C168.426,142.767,167.84,145.373,167.84,148.521z"/>
		<path fill="#1E5035" d="M190.266,143.092H183.1v4.777h6.188v1.846H183.1v6.297h-2.062v-14.765h9.229V143.092z"/>
		<path fill="#1E5035" d="M202.313,143.092h-7.166v4.777h6.188v1.846h-6.188v6.297h-2.062v-14.765h9.229V143.092z"/>
	</g>
	<rect x="6.4" y="2.666" fill="#16A314" width="253.534" height="30.082"/>
	<g>
		<path fill="#FFFFFF" d="M110.398,18.628c0-4.063,1.354-7.301,6.413-7.301c1.714,0,3.174,0.211,5.122,0.804l-0.635,2.434
			c-2.264-0.529-3.132-0.635-4.254-0.635c-2.667,0-3.577,1.841-3.577,4.698c0,3.069,0.91,4.931,3.577,4.931
			c0.741,0,1.354-0.148,1.99-0.402v-2.349h-2.222v-2.603h5.122v6.941c-1.778,0.635-3.217,0.995-5.122,0.995
			C111.753,26.141,110.398,22.755,110.398,18.628z"/>
		<path fill="#FFFFFF" d="M134.671,22.67h-4.55l-0.974,3.259h-3.09l4.656-14.497h3.555l4.593,14.497h-3.217L134.671,22.67z
			 M132.385,15.072l-1.672,5.164h3.365l-1.65-5.164H132.385z"/>
		<path fill="#FFFFFF" d="M145.61,20.85v5.08h-2.921V11.538h6.138c3.026,0,4.762,1.863,4.762,4.656c0,2.857-1.735,4.656-4.762,4.656
			H145.61z M145.61,18.268h2.899c1.228,0,2.095-0.572,2.095-2.074c0-1.46-0.867-2.053-2.095-2.053h-2.899V18.268z"/>
	</g>
	<g>
		<g>
			<path fill="#1E5035" d="M65.656,201.161h1.439v-8.923h-1.439v-1.457h8.689v3.094h-1.547v-1.655h-4.065v3.67h3.742v1.403h-3.742
				v3.887h4.065v-1.655h1.565v3.094h-8.708V201.161z"/>
			<path fill="#1E5035" d="M79.075,196.214c0.738-0.791,1.709-1.493,2.824-1.493c0.972,0,1.637,0.378,2.033,0.989
				c0.252,0.432,0.396,0.972,0.396,1.619v3.994h1.206v1.295H81.63v-1.295h1.151v-3.652c0-0.378-0.054-0.684-0.18-0.917
				c-0.216-0.414-0.594-0.612-1.151-0.612c-0.845,0-1.655,0.504-2.321,1.17v4.012h1.151v1.295h-3.886v-1.295H77.6v-5.127h-1.206
				v-1.332h2.681V196.214z"/>
			<path fill="#1E5035" d="M92.582,201.791c-0.144-0.306-0.234-0.702-0.234-1.134v-4.461h-1.457v-1.332h1.457v-1.78l1.547-0.63v2.41
				h2.356v1.332h-2.356v4.191c0,0.252,0.036,0.432,0.108,0.594c0.144,0.252,0.432,0.378,0.881,0.378
				c0.468,0,1.025-0.216,1.475-0.432l-0.162,1.385c-0.45,0.234-1.025,0.45-1.745,0.45C93.59,202.762,92.924,202.456,92.582,201.791z
				"/>
			<path fill="#1E5035" d="M97.888,198.751c0-2.177,1.583-4.03,4.048-4.03c2.464,0,4.047,1.835,4.047,4.03
				c0,2.158-1.601,4.012-4.047,4.012C99.453,202.762,97.888,200.927,97.888,198.751z M104.382,198.751
				c0-1.584-1.007-2.717-2.446-2.717c-1.458,0-2.465,1.133-2.465,2.717c0,1.583,1.007,2.698,2.465,2.698
				C103.375,201.449,104.382,200.334,104.382,198.751z"/>
			<path fill="#1E5035" d="M107.762,198.786c0-2.212,1.565-4.065,3.778-4.065c0.971,0,1.781,0.359,2.303,0.846v-4.785h-1.332v-1.332
				h2.879v11.874h1.205v1.295h-2.734v-0.989c-0.612,0.647-1.385,1.134-2.465,1.134C109.345,202.762,107.762,201.143,107.762,198.786
				z M113.842,200.424v-3.599c-0.558-0.432-1.223-0.755-2.123-0.755c-1.331,0-2.356,1.062-2.375,2.698
				c0,1.619,1.025,2.645,2.339,2.645C112.565,201.413,113.267,200.999,113.842,200.424z"/>
			<path fill="#1E5035" d="M117.978,200.549c0-1.422,1.259-2.339,3.04-2.339c0.81,0,1.709,0.18,2.123,0.306v-0.882
				c0-0.449-0.126-0.81-0.342-1.079c-0.324-0.396-0.864-0.594-1.619-0.594c-0.486,0-0.774,0.108-1.007,0.234
				c0.054,0.126,0.09,0.287,0.09,0.432c0,0.504-0.378,0.881-0.899,0.881c-0.54,0-0.917-0.377-0.917-0.917
				c0-0.918,1.007-1.871,2.986-1.871c1.205,0,2.086,0.359,2.608,0.972c0.396,0.468,0.594,1.079,0.594,1.781v3.85h1.205v1.295h-2.663
				v-0.936c-0.629,0.594-1.619,1.08-2.662,1.08C119.093,202.762,117.978,201.953,117.978,200.549z M123.141,200.675v-1.26
				c-0.522-0.144-1.188-0.27-1.889-0.27c-1.097,0-1.709,0.521-1.709,1.277c0,0.701,0.521,1.169,1.421,1.169
				C121.792,201.592,122.548,201.197,123.141,200.675z"/>
			<path fill="#1E5035" d="M131.504,201.323h1.259v-10.542h-1.259v-1.332h2.806v11.874h1.242v1.295h-4.047V201.323z"/>
			<path fill="#1E5035" d="M137.043,200.549c0-1.422,1.26-2.339,3.041-2.339c0.81,0,1.709,0.18,2.122,0.306v-0.882
				c0-0.449-0.126-0.81-0.342-1.079c-0.323-0.396-0.863-0.594-1.619-0.594c-0.485,0-0.773,0.108-1.007,0.234
				c0.054,0.126,0.09,0.287,0.09,0.432c0,0.504-0.378,0.881-0.899,0.881c-0.54,0-0.918-0.377-0.918-0.917
				c0-0.918,1.008-1.871,2.986-1.871c1.206,0,2.087,0.359,2.608,0.972c0.396,0.468,0.594,1.079,0.594,1.781v3.85h1.206v1.295h-2.663
				v-0.936c-0.63,0.594-1.619,1.08-2.662,1.08C138.158,202.762,137.043,201.953,137.043,200.549z M142.206,200.675v-1.26
				c-0.521-0.144-1.187-0.27-1.889-0.27c-1.098,0-1.709,0.521-1.709,1.277c0,0.701,0.521,1.169,1.421,1.169
				C140.857,201.592,141.612,201.197,142.206,200.675z"/>
			<path fill="#1E5035" d="M151.954,201.791c-0.144-0.306-0.233-0.702-0.233-1.134v-4.461h-1.458v-1.332h1.458v-1.78l1.547-0.63
				v2.41h2.356v1.332h-2.356v4.191c0,0.252,0.036,0.432,0.107,0.594c0.145,0.252,0.433,0.378,0.882,0.378
				c0.468,0,1.025-0.216,1.476-0.432l-0.162,1.385c-0.45,0.234-1.025,0.45-1.745,0.45
				C152.962,202.762,152.296,202.456,151.954,201.791z"/>
			<path fill="#1E5035" d="M157.331,201.323h1.26v-5.127h-1.26v-1.332h2.807v6.459h1.241v1.295h-4.048V201.323z M158.068,192.093
				c0-0.611,0.522-1.115,1.134-1.115c0.594,0,1.115,0.504,1.115,1.115c0,0.63-0.54,1.134-1.134,1.134
				C158.572,193.227,158.068,192.723,158.068,192.093z"/>
			<path fill="#1E5035" d="M164.633,199.236c0.216,1.476,1.295,2.194,2.807,2.194c0.989,0,1.835-0.306,2.752-0.827l-0.126,1.421
				c-0.81,0.504-1.799,0.738-2.86,0.738c-2.5,0-4.191-1.619-4.191-3.994c0-2.177,1.493-4.048,3.85-4.048
				c2.393,0,3.652,1.709,3.652,3.688c0,0.287-0.036,0.593-0.072,0.827H164.633z M164.633,198.085h4.336
				c-0.072-1.241-0.828-2.087-2.142-2.087C165.785,195.998,164.832,196.681,164.633,198.085z"/>
			<path fill="#1E5035" d="M174.868,196.214c0.738-0.791,1.71-1.493,2.825-1.493c0.971,0,1.637,0.378,2.032,0.989
				c0.252,0.432,0.396,0.972,0.396,1.619v3.994h1.205v1.295h-3.904v-1.295h1.151v-3.652c0-0.378-0.054-0.684-0.18-0.917
				c-0.216-0.414-0.594-0.612-1.151-0.612c-0.846,0-1.655,0.504-2.32,1.17v4.012h1.151v1.295h-3.886v-1.295h1.205v-5.127h-1.205
				v-1.332h2.68V196.214z"/>
			<path fill="#1E5035" d="M182.637,198.786c0-2.212,1.565-4.065,3.777-4.065c0.972,0,1.781,0.359,2.303,0.846v-4.785h-1.331v-1.332
				h2.879v11.874h1.205v1.295h-2.734v-0.989c-0.611,0.647-1.386,1.134-2.465,1.134C184.22,202.762,182.637,201.143,182.637,198.786z
				 M188.717,200.424v-3.599c-0.558-0.432-1.223-0.755-2.122-0.755c-1.332,0-2.357,1.062-2.375,2.698
				c0,1.619,1.025,2.645,2.339,2.645C187.441,201.413,188.142,200.999,188.717,200.424z"/>
			<path fill="#1E5035" d="M192.853,200.549c0-1.422,1.26-2.339,3.041-2.339c0.81,0,1.709,0.18,2.122,0.306v-0.882
				c0-0.449-0.126-0.81-0.342-1.079c-0.323-0.396-0.863-0.594-1.619-0.594c-0.485,0-0.773,0.108-1.007,0.234
				c0.054,0.126,0.09,0.287,0.09,0.432c0,0.504-0.378,0.881-0.899,0.881c-0.54,0-0.918-0.377-0.918-0.917
				c0-0.918,1.008-1.871,2.986-1.871c1.206,0,2.087,0.359,2.608,0.972c0.396,0.468,0.594,1.079,0.594,1.781v3.85h1.206v1.295h-2.663
				v-0.936c-0.63,0.594-1.619,1.08-2.662,1.08C193.968,202.762,192.853,201.953,192.853,200.549z M198.016,200.675v-1.26
				c-0.521-0.144-1.187-0.27-1.889-0.27c-1.098,0-1.709,0.521-1.709,1.277c0,0.701,0.521,1.169,1.421,1.169
				C196.668,201.592,197.423,201.197,198.016,200.675z"/>
		</g>
	</g>
	<g>
		<g>
			<g>
				<path fill="#1E5035" d="M55.979,97.159l-2.886-7.696c7.803-3.42,14.002-5.344,22.981-5.344c15.712,0,22.981,9.94,22.981,21.698
					c0,14.964-11.01,28.325-32.387,43.29v0.214h33.456v8.551H53.093v-9.299c30.57-20.202,35.807-32.708,35.807-40.618
					c0-13.361-10.154-14.964-14.964-14.964C68.698,92.991,63.568,93.739,55.979,97.159z"/>
				<path fill="#1E5035" d="M107.602,120.995c0-20.309,5.023-36.876,25.653-36.876c20.522,0,25.653,16.567,25.653,36.876
					c0,20.629-5.131,37.946-25.653,37.946C112.626,158.941,107.602,141.625,107.602,120.995z M117.757,120.995
					c0,15.499,2.886,29.929,15.499,29.929c12.505,0,15.499-14.43,15.499-29.929c0-15.499-2.993-28.859-15.499-28.859
					C120.642,92.136,117.757,105.497,117.757,120.995z"/>
			</g>
		</g>
	</g>
</g>
<g>
</g>
<g>
</g>
<g>
</g>
<g>
</g>
<g>
</g>
<g>
</g>
<g>
</g>
<g>
</g>
<g>
</g>
<g>
</g>
<g>
</g>
<g>
</g>
<g>
</g>
<g>
</g>
<g>
</g>
</svg>
