<?xml version="1.0" encoding="utf-8"?>
<!-- Generator: Adobe Illustrator 17.0.0, SVG Export Plug-In . SVG Version: 6.00 Build 0)  -->
<!DOCTYPE svg PUBLIC "-//W3C//DTD SVG 1.1//EN" "http://www.w3.org/Graphics/SVG/1.1/DTD/svg11.dtd">
<svg version="1.1" id="Layer_1" xmlns="http://www.w3.org/2000/svg" xmlns:xlink="http://www.w3.org/1999/xlink" x="0px" y="0px"
	 width="266.333px" height="265px" viewBox="0 0 266.333 265" enable-background="new 0 0 266.333 265" xml:space="preserve">
<g>
	<g>
		<path fill="#1E5035" d="M168.876,96.429c0-5.59,3.055-9.101,8.84-9.101c5.721,0,8.84,3.51,8.84,9.101s-3.119,9.035-8.84,9.035
			C171.93,105.464,168.876,102.019,168.876,96.429z M182.786,96.429c0-3.9-1.69-6.045-5.07-6.045c-3.381,0-5.135,2.145-5.135,6.045
			c0,3.9,1.754,5.98,5.135,5.98C181.095,102.409,182.786,100.329,182.786,96.429z M180.575,131.855h-3.899l24.051-44.202h3.899
			L180.575,131.855z M194.746,123.145c0-5.59,3.056-9.1,8.841-9.1c5.72,0,8.84,3.51,8.84,9.1c0,5.59-3.12,9.036-8.84,9.036
			C197.801,132.18,194.746,128.735,194.746,123.145z M208.657,123.145c0-3.9-1.69-6.045-5.07-6.045
			c-3.381,0-5.136,2.145-5.136,6.045c0,3.9,1.755,5.98,5.136,5.98C206.966,129.125,208.657,127.045,208.657,123.145z"/>
		<path fill="#1E5035" d="M167.144,150.412c0-4.126,1.237-7.491,6.297-7.491c5.037,0,6.297,3.365,6.297,7.491
			c0,4.19-1.26,7.708-6.297,7.708C168.382,158.12,167.144,154.602,167.144,150.412z M169.315,150.412
			c0,3.148,0.586,5.971,4.126,5.971c3.518,0,4.126-2.822,4.126-5.971s-0.608-5.754-4.126-5.754
			C169.901,144.658,169.315,147.263,169.315,150.412z"/>
		<path fill="#1E5035" d="M191.741,144.983h-7.166v4.777h6.188v1.846h-6.188v6.297h-2.062v-14.766h9.229V144.983z"/>
		<path fill="#1E5035" d="M203.788,144.983h-7.166v4.777h6.188v1.846h-6.188v6.297h-2.062v-14.766h9.229V144.983z"/>
	</g>
	<rect x="5.99" y="2.666" fill="#16A314" width="254.353" height="30.179"/>
	<g>
		<path fill="#FFFFFF" d="M95.73,18.843c0-4.075,1.358-7.323,6.431-7.323c1.719,0,3.184,0.213,5.136,0.807l-0.637,2.441
			c-2.271-0.531-3.141-0.637-4.266-0.637c-2.674,0-3.587,1.846-3.587,4.712c0,3.077,0.913,4.945,3.587,4.945
			c0.743,0,1.358-0.148,1.995-0.403v-2.356h-2.229v-2.61h5.136v6.962c-1.783,0.637-3.226,0.997-5.136,0.997
			C97.089,26.377,95.73,22.982,95.73,18.843z"/>
		<path fill="#FFFFFF" d="M120.524,21.071v-9.339h2.908v9.339c0,3.777-2.25,5.306-5.667,5.306s-5.688-1.528-5.688-5.306v-9.339
			h2.929v9.339c0,1.549,0.467,2.865,2.78,2.865C120.014,23.937,120.524,22.62,120.524,21.071z"/>
		<path fill="#FFFFFF" d="M137.973,14.343h-6.834v3.077h5.878v2.59h-5.878v3.565h6.94v2.59h-9.869V11.733h9.764V14.343z"/>
		<path fill="#FFFFFF" d="M142.432,25.592l0.509-2.44c2.25,0.53,3.842,0.637,4.967,0.637c1.486,0,2.378-0.68,2.378-1.635
			c0-1.337-1.656-1.613-3.333-2.08c-2.504-0.7-4.309-2.08-4.309-4.521c0-2.908,2.398-4.033,5.264-4.033
			c1.635,0,3.12,0.213,5.095,0.807l-0.658,2.441c-2.271-0.531-3.332-0.637-4.437-0.637c-1.485,0-2.186,0.637-2.186,1.507
			c0,1.188,1.549,1.57,3.29,1.995c2.504,0.573,4.351,1.762,4.351,4.287c0,3.078-2.377,4.457-5.455,4.457
			C146.253,26.377,144.406,26.165,142.432,25.592z"/>
		<path fill="#FFFFFF" d="M157.102,25.592l0.509-2.44c2.25,0.53,3.842,0.637,4.967,0.637c1.486,0,2.378-0.68,2.378-1.635
			c0-1.337-1.656-1.613-3.333-2.08c-2.504-0.7-4.309-2.08-4.309-4.521c0-2.908,2.398-4.033,5.264-4.033
			c1.635,0,3.12,0.213,5.095,0.807l-0.658,2.441c-2.271-0.531-3.332-0.637-4.437-0.637c-1.485,0-2.186,0.637-2.186,1.507
			c0,1.188,1.549,1.57,3.29,1.995c2.504,0.573,4.351,1.762,4.351,4.287c0,3.078-2.377,4.457-5.455,4.457
			C160.923,26.377,159.076,26.165,157.102,25.592z"/>
	</g>
	<g>
		<g>
			<path fill="#1E5035" d="M35.043,210.462h1.439v-8.923h-1.439v-1.458h8.689v3.095h-1.547v-1.655H38.12v3.67h3.742v1.403H38.12
				v3.886h4.065v-1.655h1.565v3.095h-8.708V210.462z"/>
			<path fill="#1E5035" d="M48.462,205.514c0.738-0.792,1.709-1.493,2.824-1.493c0.972,0,1.637,0.378,2.033,0.989
				c0.252,0.432,0.396,0.972,0.396,1.619v3.994h1.206v1.295h-3.904v-1.295h1.151v-3.652c0-0.378-0.054-0.684-0.18-0.918
				c-0.216-0.413-0.594-0.611-1.151-0.611c-0.845,0-1.655,0.504-2.321,1.17v4.012h1.151v1.295h-3.886v-1.295h1.206v-5.128h-1.206
				v-1.331h2.681V205.514z"/>
			<path fill="#1E5035" d="M60.781,209.849c0-1.421,1.259-2.338,3.04-2.338c0.81,0,1.709,0.18,2.123,0.306v-0.882
				c0-0.449-0.126-0.81-0.342-1.079c-0.324-0.396-0.864-0.594-1.619-0.594c-0.486,0-0.773,0.107-1.007,0.233
				c0.054,0.126,0.09,0.288,0.09,0.433c0,0.503-0.378,0.881-0.899,0.881c-0.54,0-0.917-0.378-0.917-0.917
				c0-0.918,1.007-1.871,2.986-1.871c1.205,0,2.086,0.359,2.608,0.972c0.396,0.468,0.594,1.079,0.594,1.78v3.851h1.205v1.295H65.98
				v-0.936c-0.629,0.594-1.619,1.079-2.662,1.079C61.897,212.062,60.781,211.253,60.781,209.849z M65.944,209.975v-1.259
				c-0.522-0.144-1.188-0.27-1.889-0.27c-1.097,0-1.709,0.521-1.709,1.277c0,0.701,0.521,1.169,1.421,1.169
				C64.595,210.893,65.351,210.498,65.944,209.975z"/>
			<path fill="#1E5035" d="M70.08,205.496h-0.972v-1.331h3.76v1.277h-1.187l2.104,4.659l2.105-4.659H74.65v-1.277h3.76v1.331h-0.971
				l-3.185,6.639h-0.989L70.08,205.496z"/>
			<path fill="#1E5035" d="M79.325,209.849c0-1.421,1.259-2.338,3.04-2.338c0.81,0,1.709,0.18,2.123,0.306v-0.882
				c0-0.449-0.126-0.81-0.342-1.079c-0.324-0.396-0.864-0.594-1.619-0.594c-0.486,0-0.773,0.107-1.007,0.233
				c0.054,0.126,0.09,0.288,0.09,0.433c0,0.503-0.378,0.881-0.899,0.881c-0.54,0-0.917-0.378-0.917-0.917
				c0-0.918,1.007-1.871,2.986-1.871c1.205,0,2.086,0.359,2.608,0.972c0.396,0.468,0.594,1.079,0.594,1.78v3.851h1.205v1.295h-2.663
				v-0.936c-0.629,0.594-1.619,1.079-2.662,1.079C80.441,212.062,79.325,211.253,79.325,209.849z M84.488,209.975v-1.259
				c-0.522-0.144-1.188-0.27-1.889-0.27c-1.097,0-1.709,0.521-1.709,1.277c0,0.701,0.521,1.169,1.421,1.169
				C83.139,210.893,83.895,210.498,84.488,209.975z"/>
			<path fill="#1E5035" d="M91.269,205.514c0.738-0.792,1.709-1.493,2.824-1.493c0.972,0,1.637,0.378,2.033,0.989
				c0.252,0.432,0.396,0.972,0.396,1.619v3.994h1.206v1.295h-3.904v-1.295h1.151v-3.652c0-0.378-0.054-0.684-0.18-0.918
				c-0.216-0.413-0.594-0.611-1.151-0.611c-0.845,0-1.655,0.504-2.321,1.17v4.012h1.151v1.295h-3.886v-1.295h1.206v-5.128h-1.206
				v-1.331h2.681V205.514z"/>
			<path fill="#1E5035" d="M99.02,208.014c0-2.086,1.673-3.993,3.886-3.993c1.925,0,3.328,1.259,3.328,2.446
				c0,0.684-0.468,1.151-1.097,1.151c-0.504,0-0.972-0.396-0.972-0.972c0-0.252,0.126-0.503,0.324-0.647
				c-0.18-0.359-0.827-0.701-1.583-0.701c-1.043,0-2.321,0.881-2.321,2.752c0,1.602,1.169,2.681,2.771,2.681
				c0.899,0,1.709-0.27,2.663-0.827l-0.144,1.421c-0.792,0.504-1.709,0.737-2.662,0.737
				C100.801,212.062,99.02,210.408,99.02,208.014z"/>
			<path fill="#1E5035" d="M109.542,208.537c0.216,1.475,1.295,2.194,2.807,2.194c0.989,0,1.835-0.306,2.752-0.827l-0.126,1.421
				c-0.81,0.504-1.799,0.737-2.86,0.737c-2.501,0-4.192-1.619-4.192-3.993c0-2.177,1.493-4.048,3.85-4.048
				c2.393,0,3.652,1.709,3.652,3.688c0,0.288-0.036,0.594-0.072,0.828H109.542z M109.542,207.385h4.335
				c-0.072-1.241-0.827-2.087-2.141-2.087C110.694,205.299,109.74,205.982,109.542,207.385z"/>
			<path fill="#1E5035" d="M121.539,208.087c0-2.213,1.565-4.065,3.778-4.065c0.972,0,1.781,0.359,2.303,0.846v-4.786h-1.331v-1.331
				h2.878v11.874h1.206v1.295h-2.734v-0.989c-0.612,0.647-1.385,1.133-2.465,1.133C123.122,212.062,121.539,210.443,121.539,208.087
				z M127.619,209.724v-3.599c-0.558-0.432-1.223-0.756-2.123-0.756c-1.331,0-2.356,1.062-2.375,2.699
				c0,1.619,1.025,2.645,2.339,2.645C126.342,210.714,127.044,210.299,127.619,209.724z"/>
			<path fill="#1E5035" d="M133.464,208.537c0.216,1.475,1.295,2.194,2.807,2.194c0.989,0,1.835-0.306,2.752-0.827l-0.126,1.421
				c-0.81,0.504-1.799,0.737-2.86,0.737c-2.501,0-4.192-1.619-4.192-3.993c0-2.177,1.493-4.048,3.85-4.048
				c2.393,0,3.652,1.709,3.652,3.688c0,0.288-0.036,0.594-0.072,0.828H133.464z M133.464,207.385h4.336
				c-0.072-1.241-0.828-2.087-2.142-2.087C134.615,205.299,133.662,205.982,133.464,207.385z"/>
			<path fill="#1E5035" d="M146.666,211.091c-0.144-0.307-0.233-0.702-0.233-1.134v-4.462h-1.458v-1.331h1.458v-1.781l1.547-0.629
				v2.41h2.356v1.331h-2.356v4.192c0,0.252,0.036,0.432,0.107,0.594c0.145,0.252,0.433,0.377,0.882,0.377
				c0.468,0,1.025-0.216,1.476-0.432l-0.162,1.386c-0.45,0.233-1.025,0.449-1.745,0.449
				C147.674,212.062,147.007,211.757,146.666,211.091z"/>
			<path fill="#1E5035" d="M153.554,208.537c0.216,1.475,1.295,2.194,2.807,2.194c0.989,0,1.835-0.306,2.752-0.827l-0.126,1.421
				c-0.81,0.504-1.799,0.737-2.86,0.737c-2.5,0-4.191-1.619-4.191-3.993c0-2.177,1.493-4.048,3.85-4.048
				c2.393,0,3.652,1.709,3.652,3.688c0,0.288-0.036,0.594-0.072,0.828H153.554z M153.554,207.385h4.336
				c-0.072-1.241-0.828-2.087-2.142-2.087C154.706,205.299,153.753,205.982,153.554,207.385z"/>
			<path fill="#1E5035" d="M161.109,210.624h1.205v-5.128h-1.205v-1.331h2.68v1.35c0.648-0.756,1.602-1.493,2.735-1.493
				c0.899,0,1.511,0.342,1.889,0.881c0.107,0.162,0.18,0.342,0.233,0.54c0.792-0.791,1.745-1.421,2.735-1.421
				c1.115,0,1.799,0.413,2.158,1.115c0.198,0.414,0.306,0.917,0.306,1.476v4.012h1.206v1.295h-3.904v-1.295h1.151v-3.67
				c0-0.36-0.054-0.648-0.144-0.882c-0.181-0.432-0.54-0.63-1.098-0.63c-0.792,0-1.529,0.468-2.213,1.134v4.048h1.134v1.295h-3.832
				v-1.295h1.151v-3.67c0-0.36-0.036-0.648-0.126-0.882c-0.198-0.432-0.54-0.63-1.098-0.63c-0.827,0-1.565,0.504-2.23,1.151v4.03
				h1.133v1.295h-3.867V210.624z"/>
			<path fill="#1E5035" d="M176.163,214.149h1.205v-8.653h-1.205v-1.331h2.681v1.008c0.647-0.666,1.367-1.151,2.482-1.151
				c2.033,0,3.616,1.619,3.616,3.976c0,2.23-1.565,4.065-3.76,4.065c-0.882,0-1.655-0.323-2.267-0.827v2.914h1.385v1.296h-4.138
				V214.149z M183.341,208.014c0-1.619-0.99-2.645-2.303-2.645c-0.882,0-1.548,0.414-2.123,0.99v3.615
				c0.539,0.433,1.223,0.738,2.087,0.738C182.316,210.714,183.341,209.652,183.341,208.014z"/>
			<path fill="#1E5035" d="M186.739,208.05c0-2.177,1.583-4.029,4.048-4.029s4.048,1.835,4.048,4.029
				c0,2.159-1.602,4.012-4.048,4.012C188.304,212.062,186.739,210.227,186.739,208.05z M193.233,208.05
				c0-1.583-1.007-2.716-2.446-2.716c-1.457,0-2.465,1.133-2.465,2.716s1.008,2.699,2.465,2.699
				C192.226,210.75,193.233,209.633,193.233,208.05z"/>
			<path fill="#1E5035" d="M202.927,205.154c0,0.558-0.45,1.044-0.989,1.044c-0.521,0-0.882-0.324-1.025-0.666
				c-0.576,0.18-1.241,0.828-1.619,1.565v3.526h1.421v1.295h-4.155v-1.295h1.205v-5.128h-1.205v-1.331h2.68v1.764
				c0.612-1.062,1.512-1.907,2.411-1.907C202.496,204.021,202.927,204.543,202.927,205.154z"/>
			<path fill="#1E5035" d="M204.078,209.849c0-1.421,1.26-2.338,3.041-2.338c0.81,0,1.709,0.18,2.122,0.306v-0.882
				c0-0.449-0.126-0.81-0.342-1.079c-0.323-0.396-0.863-0.594-1.619-0.594c-0.485,0-0.773,0.107-1.007,0.233
				c0.054,0.126,0.09,0.288,0.09,0.433c0,0.503-0.378,0.881-0.899,0.881c-0.54,0-0.918-0.378-0.918-0.917
				c0-0.918,1.008-1.871,2.986-1.871c1.206,0,2.087,0.359,2.608,0.972c0.396,0.468,0.594,1.079,0.594,1.78v3.851h1.206v1.295h-2.663
				v-0.936c-0.63,0.594-1.619,1.079-2.662,1.079C205.193,212.062,204.078,211.253,204.078,209.849z M209.241,209.975v-1.259
				c-0.521-0.144-1.187-0.27-1.889-0.27c-1.098,0-1.709,0.521-1.709,1.277c0,0.701,0.521,1.169,1.421,1.169
				C207.892,210.893,208.647,210.498,209.241,209.975z"/>
			<path fill="#1E5035" d="M213.251,208.087c0-2.213,1.565-4.065,3.777-4.065c0.972,0,1.781,0.359,2.303,0.846v-4.786H218v-1.331
				h2.879v11.874h1.205v1.295h-2.734v-0.989c-0.611,0.647-1.386,1.133-2.465,1.133C214.834,212.062,213.251,210.443,213.251,208.087
				z M219.331,209.724v-3.599c-0.558-0.432-1.223-0.756-2.122-0.756c-1.332,0-2.357,1.062-2.375,2.699
				c0,1.619,1.025,2.645,2.339,2.645C218.054,210.714,218.756,210.299,219.331,209.724z"/>
			<path fill="#1E5035" d="M223.466,209.849c0-1.421,1.26-2.338,3.041-2.338c0.81,0,1.709,0.18,2.122,0.306v-0.882
				c0-0.449-0.126-0.81-0.342-1.079c-0.323-0.396-0.863-0.594-1.619-0.594c-0.485,0-0.773,0.107-1.007,0.233
				c0.054,0.126,0.09,0.288,0.09,0.433c0,0.503-0.378,0.881-0.899,0.881c-0.54,0-0.918-0.378-0.918-0.917
				c0-0.918,1.008-1.871,2.986-1.871c1.206,0,2.087,0.359,2.608,0.972c0.396,0.468,0.594,1.079,0.594,1.78v3.851h1.206v1.295h-2.663
				v-0.936c-0.63,0.594-1.619,1.079-2.662,1.079C224.582,212.062,223.466,211.253,223.466,209.849z M228.63,209.975v-1.259
				c-0.521-0.144-1.187-0.27-1.889-0.27c-1.098,0-1.709,0.521-1.709,1.277c0,0.701,0.521,1.169,1.421,1.169
				C227.281,210.893,228.036,210.498,228.63,209.975z"/>
			<path fill="#1E5035" d="M50.701,227.584c0-3.472,2.519-6.135,6.062-6.135c3.49,0,5.973,2.681,5.973,6.135
				c0,3.473-2.519,6.135-6.062,6.135C53.183,233.718,50.701,231.038,50.701,227.584z M61.063,227.584
				c0-2.645-1.817-4.623-4.335-4.623c-2.537,0-4.354,1.961-4.354,4.623c0,2.645,1.817,4.624,4.354,4.624
				C59.246,232.208,61.063,230.247,61.063,227.584z"/>
			<path fill="#1E5035" d="M65.953,232.675c-0.144-0.307-0.234-0.702-0.234-1.134v-4.462h-1.457v-1.331h1.457v-1.781l1.547-0.629
				v2.41h2.356v1.331h-2.356v4.192c0,0.252,0.036,0.432,0.108,0.594c0.144,0.252,0.432,0.377,0.881,0.377
				c0.468,0,1.025-0.216,1.475-0.432l-0.162,1.386c-0.45,0.233-1.025,0.449-1.745,0.449
				C66.961,233.646,66.295,233.34,65.953,232.675z"/>
			<path fill="#1E5035" d="M71.259,229.634c0-2.177,1.583-4.029,4.048-4.029c2.464,0,4.047,1.835,4.047,4.029
				c0,2.159-1.601,4.012-4.047,4.012C72.824,233.646,71.259,231.811,71.259,229.634z M77.753,229.634
				c0-1.583-1.007-2.716-2.446-2.716c-1.458,0-2.465,1.133-2.465,2.716s1.007,2.699,2.465,2.699
				C76.746,232.334,77.753,231.217,77.753,229.634z"/>
			<path fill="#1E5035" d="M83.76,227.098c0.738-0.792,1.709-1.493,2.824-1.493c0.972,0,1.637,0.378,2.033,0.989
				c0.252,0.432,0.396,0.972,0.396,1.619v3.994h1.206v1.295h-3.904v-1.295h1.151v-3.652c0-0.378-0.054-0.684-0.18-0.918
				c-0.216-0.413-0.594-0.611-1.151-0.611c-0.845,0-1.655,0.504-2.321,1.17v4.012h1.151v1.295h-3.886v-1.295h1.206v-5.128h-1.206
				v-1.331h2.681V227.098z M85.415,223.698c-0.432-0.378-0.72-0.54-0.99-0.54c-0.414,0-0.702,0.342-0.863,1.098l-1.133-0.27
				c0.144-1.439,1.007-2.356,1.907-2.356c0.702,0,1.188,0.306,1.583,0.665c0.45,0.378,0.738,0.54,0.99,0.54
				c0.432,0,0.719-0.342,0.881-1.098l1.115,0.27c-0.126,1.439-0.989,2.357-1.889,2.357
				C86.315,224.364,85.829,224.058,85.415,223.698z"/>
			<path fill="#1E5035" d="M91.529,229.634c0-2.177,1.583-4.029,4.048-4.029c2.464,0,4.047,1.835,4.047,4.029
				c0,2.159-1.601,4.012-4.047,4.012C93.094,233.646,91.529,231.811,91.529,229.634z M98.024,229.634
				c0-1.583-1.007-2.716-2.446-2.716c-1.458,0-2.465,1.133-2.465,2.716s1.007,2.699,2.465,2.699
				C97.016,232.334,98.024,231.217,98.024,229.634z"/>
			<path fill="#1E5035" d="M105.846,232.046h1.547v-8.923h-1.547v-1.458h4.695v1.458h-1.529v8.923h1.529v1.457h-4.695V232.046z"/>
			<path fill="#1E5035" d="M115.038,227.098c0.738-0.792,1.709-1.493,2.824-1.493c0.972,0,1.637,0.378,2.033,0.989
				c0.252,0.432,0.396,0.972,0.396,1.619v3.994h1.206v1.295h-3.904v-1.295h1.151v-3.652c0-0.378-0.054-0.684-0.18-0.918
				c-0.216-0.413-0.594-0.611-1.151-0.611c-0.845,0-1.655,0.504-2.321,1.17v4.012h1.151v1.295h-3.886v-1.295h1.206v-5.128h-1.206
				v-1.331h2.681V227.098z"/>
			<path fill="#1E5035" d="M122.933,227.08h-0.972v-1.331h3.76v1.277h-1.187l2.104,4.659l2.105-4.659h-1.241v-1.277h3.76v1.331
				h-0.971l-3.185,6.639h-0.989L122.933,227.08z"/>
			<path fill="#1E5035" d="M132.411,232.208h1.259v-5.128h-1.259v-1.331h2.807v6.459h1.241v1.295h-4.048V232.208z M133.149,222.978
				c0-0.611,0.521-1.115,1.133-1.115c0.594,0,1.116,0.504,1.116,1.115c0,0.63-0.54,1.134-1.134,1.134
				C133.653,224.112,133.149,223.608,133.149,222.978z"/>
			<path fill="#1E5035" d="M139.715,230.121c0.216,1.475,1.295,2.194,2.807,2.194c0.989,0,1.835-0.306,2.752-0.827l-0.126,1.421
				c-0.81,0.504-1.799,0.737-2.86,0.737c-2.5,0-4.191-1.619-4.191-3.993c0-2.177,1.493-4.048,3.85-4.048
				c2.393,0,3.652,1.709,3.652,3.688c0,0.288-0.036,0.594-0.072,0.828H139.715z M139.715,228.969h4.336
				c-0.072-1.241-0.828-2.087-2.142-2.087C140.866,226.882,139.913,227.566,139.715,228.969z"/>
			<path fill="#1E5035" d="M153.637,226.738c0,0.558-0.45,1.044-0.989,1.044c-0.521,0-0.882-0.324-1.025-0.666
				c-0.576,0.18-1.241,0.828-1.619,1.565v3.526h1.421v1.295h-4.155v-1.295h1.205v-5.128h-1.205v-1.331h2.68v1.764
				c0.612-1.062,1.512-1.907,2.411-1.907C153.206,225.605,153.637,226.127,153.637,226.738z"/>
			<path fill="#1E5035" d="M157.556,227.098c0.738-0.792,1.71-1.493,2.825-1.493c0.971,0,1.637,0.378,2.032,0.989
				c0.252,0.432,0.396,0.972,0.396,1.619v3.994h1.205v1.295h-3.904v-1.295h1.151v-3.652c0-0.378-0.054-0.684-0.18-0.918
				c-0.216-0.413-0.594-0.611-1.151-0.611c-0.846,0-1.655,0.504-2.32,1.17v4.012h1.151v1.295h-3.886v-1.295h1.205v-5.128h-1.205
				v-1.331h2.68V227.098z"/>
			<path fill="#1E5035" d="M165.327,229.634c0-2.177,1.583-4.029,4.048-4.029s4.048,1.835,4.048,4.029
				c0,2.159-1.602,4.012-4.048,4.012C166.892,233.646,165.327,231.811,165.327,229.634z M171.821,229.634
				c0-1.583-1.007-2.716-2.446-2.716c-1.457,0-2.465,1.133-2.465,2.716s1.008,2.699,2.465,2.699
				C170.814,232.334,171.821,231.217,171.821,229.634z"/>
			<path fill="#1E5035" d="M181.478,226.054c0.198,0.162,0.342,0.432,0.342,0.684c0,0.558-0.449,1.025-1.007,1.025
				c-0.576,0-1.062-0.503-1.062-1.241c0-0.323,0.144-0.684,0.378-1.007c0.575-0.773,1.763-1.422,3.202-1.422
				c2.248,0,3.489,1.313,3.489,2.681c0,1.529-1.259,2.356-2.788,3.274c-1.224,0.72-2.068,1.331-2.591,2.177h4.354v-1.529h1.332
				v2.807h-7.412l-0.234-0.773c0.702-1.673,2.142-2.771,3.688-3.724c1.169-0.738,2.068-1.313,2.068-2.195
				c0-0.81-0.791-1.385-1.979-1.385C182.467,225.425,181.766,225.676,181.478,226.054z"/>
			<path fill="#1E5035" d="M189.195,228.861c0-2.734,1.799-4.768,4.299-4.768c2.501,0,4.3,2.051,4.3,4.768
				c0,2.753-1.799,4.785-4.3,4.785C190.994,233.646,189.195,231.595,189.195,228.861z M196.193,228.861
				c0-1.979-1.098-3.454-2.699-3.454c-1.601,0-2.698,1.457-2.698,3.454c0,2.015,1.098,3.454,2.698,3.454
				C195.095,232.315,196.193,230.876,196.193,228.861z"/>
			<path fill="#1E5035" d="M200.021,232.208h2.159v-6.351l-1.871,0.468l-0.359-1.313l3.076-0.81h0.72v8.006h2.122v1.295h-5.847
				V232.208z"/>
			<path fill="#1E5035" d="M207.612,230.408c0-1.241,0.864-2.284,2.087-2.752c-1.115-0.521-1.835-1.547-1.835-2.555
				c0-1.817,1.583-3.166,3.67-3.166c2.105,0,3.688,1.349,3.688,3.166c0,1.043-0.756,2.033-1.854,2.555
				c1.224,0.468,2.105,1.493,2.105,2.752c0,1.8-1.565,3.238-3.94,3.238C209.177,233.646,207.612,232.208,207.612,230.408z
				 M213.855,230.3c0-1.134-0.936-2.033-2.321-2.033c-1.367,0-2.303,0.899-2.303,2.033c0,1.133,0.936,2.015,2.303,2.015
				C212.92,232.315,213.855,231.433,213.855,230.3z M213.621,225.191c0-1.133-0.863-1.925-2.087-1.925
				c-1.205,0-2.068,0.792-2.068,1.925c0,1.044,0.917,1.889,2.068,1.889S213.621,226.235,213.621,225.191z"/>
		</g>
	</g>
	<g>
		<g>
			<g>
				<path fill="#1E5035" d="M55.729,97.469l-2.895-7.72c7.827-3.431,14.046-5.361,23.053-5.361c15.762,0,23.053,9.972,23.053,21.767
					c0,15.011-11.044,28.414-32.489,43.426v0.214h33.561v8.578H52.834v-9.328c30.666-20.266,35.92-32.811,35.92-40.746
					c0-13.403-10.187-15.012-15.012-15.012C68.488,93.287,63.341,94.038,55.729,97.469z"/>
				<path fill="#1E5035" d="M107.519,121.38c0-20.372,5.04-36.992,25.733-36.992c20.587,0,25.733,16.62,25.733,36.992
					c0,20.695-5.146,38.065-25.733,38.065C112.559,159.445,107.519,142.075,107.519,121.38z M117.705,121.38
					c0,15.548,2.895,30.023,15.547,30.023c12.545,0,15.548-14.475,15.548-30.023c0-15.547-3.003-28.95-15.548-28.95
					C120.6,92.43,117.705,105.833,117.705,121.38z"/>
			</g>
		</g>
	</g>
</g>
<g>
</g>
<g>
</g>
<g>
</g>
<g>
</g>
<g>
</g>
<g>
</g>
<g>
</g>
<g>
</g>
<g>
</g>
<g>
</g>
<g>
</g>
<g>
</g>
<g>
</g>
<g>
</g>
<g>
</g>
</svg>
