<?xml version="1.0" encoding="utf-8"?>
<!-- Generator: Adobe Illustrator 17.0.0, SVG Export Plug-In . SVG Version: 6.00 Build 0)  -->
<!DOCTYPE svg PUBLIC "-//W3C//DTD SVG 1.1//EN" "http://www.w3.org/Graphics/SVG/1.1/DTD/svg11.dtd">
<svg version="1.1" id="Layer_1" xmlns="http://www.w3.org/2000/svg" xmlns:xlink="http://www.w3.org/1999/xlink" x="0px" y="0px"
	 width="266.333px" height="265px" viewBox="0 0 266.333 265" enable-background="new 0 0 266.333 265" xml:space="preserve">
<g>
	<rect x="6.4" y="2.666" fill="#16A314" width="253.534" height="30.082"/>
	<g>
		<path fill="#FFFFFF" d="M71.221,11.538v11.81h6.709v2.582H68.3V11.538H71.221z"/>
		<path fill="#FFFFFF" d="M79.791,17.359l0.529-2.751c-0.36,0-0.741,0-1.122,0v-3.069h2.752v3.069l-1.312,2.751H79.791z"/>
		<path fill="#FFFFFF" d="M86.287,18.628c0-4.063,1.354-7.301,6.413-7.301c5.058,0,6.392,3.238,6.392,7.301
			c0,4.106-1.334,7.513-6.392,7.513C87.641,26.141,86.287,22.734,86.287,18.628z M89.356,18.628c0,2.857,0.508,5.08,3.344,5.08
			s3.322-2.222,3.322-5.08c0-2.857-0.486-4.868-3.322-4.868S89.356,15.771,89.356,18.628z"/>
		<path fill="#FFFFFF" d="M109.839,11.327c1.714,0,3.217,0.211,5.185,0.804l-0.655,2.434c-2.265-0.529-3.175-0.635-4.297-0.635
			c-2.666,0-3.576,1.841-3.576,4.698c0,3.069,0.91,4.932,3.576,4.932c1.122,0,2.032-0.106,4.297-0.635l0.655,2.434
			c-1.968,0.571-3.471,0.783-5.185,0.783c-5.059,0-6.413-3.386-6.413-7.513C103.425,14.565,104.78,11.327,109.839,11.327z"/>
		<path fill="#FFFFFF" d="M124.609,11.327c1.714,0,3.217,0.211,5.185,0.804l-0.655,2.434c-2.265-0.529-3.175-0.635-4.297-0.635
			c-2.666,0-3.576,1.841-3.576,4.698c0,3.069,0.91,4.932,3.576,4.932c1.122,0,2.032-0.106,4.297-0.635l0.655,2.434
			c-1.968,0.571-3.471,0.783-5.185,0.783c-5.059,0-6.413-3.386-6.413-7.513C118.196,14.565,119.55,11.327,124.609,11.327z"/>
		<path fill="#FFFFFF" d="M133.728,25.93V11.538h2.921V25.93H133.728z"/>
		<path fill="#FFFFFF" d="M147.673,14.142V25.93h-2.92V14.142h-3.788v-2.604h10.476v2.604H147.673z"/>
		<path fill="#FFFFFF" d="M161.534,22.671h-4.55l-0.974,3.259h-3.09l4.656-14.497h3.555l4.593,14.497h-3.217L161.534,22.671z
			 M159.249,15.073l-1.672,5.164h3.364l-1.65-5.164H159.249z"/>
		<path fill="#FFFFFF" d="M169.552,25.93V11.538h2.921l5.756,9.037h0.043v-9.037h2.814V25.93h-2.899l-5.757-8.72h-0.042v8.72
			H169.552z"/>
		<path fill="#FFFFFF" d="M195.581,14.142h-6.814v3.068h5.862v2.582h-5.862v3.556h6.92v2.582h-9.841V11.538h9.735V14.142z"/>
	</g>
	<g>
		<g>
			<path fill="#1E5035" d="M38.398,201.162h1.439v-8.923h-1.439v-1.458h8.689v3.095h-1.547v-1.655h-4.066v3.67h3.742v1.403h-3.742
				v3.886h4.066v-1.655h1.564v3.095h-8.707V201.162z"/>
			<path fill="#1E5035" d="M51.816,196.215c0.738-0.792,1.71-1.493,2.825-1.493c0.971,0,1.637,0.378,2.032,0.989
				c0.252,0.432,0.396,0.972,0.396,1.619v3.994h1.205v1.295h-3.904v-1.295h1.151v-3.652c0-0.378-0.054-0.684-0.18-0.918
				c-0.216-0.413-0.594-0.611-1.151-0.611c-0.846,0-1.655,0.504-2.32,1.17v4.012h1.151v1.295h-3.886v-1.295h1.205v-5.128h-1.205
				v-1.331h2.68V196.215z"/>
			<path fill="#1E5035" d="M65.324,201.792c-0.144-0.307-0.233-0.702-0.233-1.134v-4.462h-1.458v-1.331h1.458v-1.781l1.547-0.629
				v2.41h2.356v1.331h-2.356v4.192c0,0.252,0.036,0.432,0.107,0.594c0.145,0.252,0.433,0.377,0.882,0.377
				c0.468,0,1.025-0.216,1.476-0.432l-0.162,1.386c-0.45,0.233-1.025,0.449-1.745,0.449
				C66.332,202.762,65.666,202.457,65.324,201.792z"/>
			<path fill="#1E5035" d="M70.63,198.751c0-2.177,1.583-4.029,4.048-4.029s4.048,1.835,4.048,4.029
				c0,2.159-1.602,4.012-4.048,4.012C72.195,202.762,70.63,200.927,70.63,198.751z M77.124,198.751c0-1.583-1.007-2.716-2.446-2.716
				c-1.457,0-2.465,1.133-2.465,2.716s1.008,2.699,2.465,2.699C76.117,201.45,77.124,200.334,77.124,198.751z"/>
			<path fill="#1E5035" d="M80.504,198.787c0-2.213,1.565-4.065,3.777-4.065c0.972,0,1.781,0.359,2.303,0.846v-4.786h-1.331v-1.331
				h2.879v11.874h1.205v1.295h-2.734v-0.989c-0.611,0.647-1.386,1.133-2.465,1.133C82.087,202.762,80.504,201.143,80.504,198.787z
				 M86.584,200.424v-3.599c-0.558-0.432-1.223-0.756-2.122-0.756c-1.332,0-2.357,1.062-2.375,2.699
				c0,1.619,1.025,2.645,2.339,2.645C85.307,201.414,86.008,201,86.584,200.424z"/>
			<path fill="#1E5035" d="M90.719,200.549c0-1.421,1.26-2.338,3.041-2.338c0.81,0,1.709,0.18,2.122,0.306v-0.882
				c0-0.449-0.126-0.81-0.342-1.079c-0.323-0.396-0.863-0.594-1.619-0.594c-0.485,0-0.773,0.107-1.007,0.233
				c0.054,0.126,0.09,0.288,0.09,0.433c0,0.503-0.378,0.881-0.899,0.881c-0.54,0-0.918-0.378-0.918-0.917
				c0-0.918,1.008-1.871,2.986-1.871c1.206,0,2.087,0.359,2.608,0.972c0.396,0.468,0.594,1.079,0.594,1.78v3.851h1.206v1.295h-2.663
				v-0.936c-0.63,0.594-1.619,1.079-2.662,1.079C91.835,202.762,90.719,201.953,90.719,200.549z M95.882,200.675v-1.259
				c-0.521-0.144-1.187-0.27-1.889-0.27c-1.098,0-1.709,0.521-1.709,1.277c0,0.701,0.521,1.169,1.421,1.169
				C94.534,201.593,95.289,201.198,95.882,200.675z"/>
			<path fill="#1E5035" d="M105.326,197.402c-0.539,0-0.936-0.342-0.936-0.864c0-0.126,0.019-0.27,0.072-0.396
				c-0.306-0.144-0.756-0.233-1.241-0.233c-0.989,0-1.529,0.485-1.529,0.989c0,0.575,0.594,0.81,1.835,1.133
				c1.673,0.433,2.896,0.882,2.896,2.339c0,1.548-1.476,2.411-3.166,2.411c-1.17,0-2.356-0.396-2.879-0.918
				c-0.287-0.287-0.432-0.611-0.432-1.007c0-0.504,0.36-0.936,0.882-0.936c0.504,0,0.917,0.342,0.917,0.899
				c0,0.144-0.018,0.27-0.071,0.396c0.287,0.18,0.863,0.36,1.583,0.36c0.936,0,1.69-0.36,1.69-1.044
				c0-0.558-0.558-0.827-1.709-1.115c-1.979-0.504-3.04-0.989-3.04-2.375c0-1.188,1.062-2.32,3.04-2.32
				c1.008,0,2.016,0.323,2.519,0.827c0.271,0.271,0.396,0.594,0.396,0.936C106.154,197.042,105.812,197.402,105.326,197.402z"/>
			<path fill="#1E5035" d="M112.483,201.324h1.259v-10.543h-1.259v-1.331h2.806v11.874h1.242v1.295h-4.048V201.324z"/>
			<path fill="#1E5035" d="M118.022,200.549c0-1.421,1.26-2.338,3.041-2.338c0.81,0,1.709,0.18,2.122,0.306v-0.882
				c0-0.449-0.126-0.81-0.342-1.079c-0.323-0.396-0.863-0.594-1.619-0.594c-0.485,0-0.773,0.107-1.007,0.233
				c0.054,0.126,0.09,0.288,0.09,0.433c0,0.503-0.378,0.881-0.899,0.881c-0.54,0-0.918-0.378-0.918-0.917
				c0-0.918,1.008-1.871,2.986-1.871c1.206,0,2.087,0.359,2.608,0.972c0.396,0.468,0.594,1.079,0.594,1.78v3.851h1.206v1.295h-2.663
				v-0.936c-0.63,0.594-1.619,1.079-2.662,1.079C119.137,202.762,118.022,201.953,118.022,200.549z M123.185,200.675v-1.259
				c-0.521-0.144-1.187-0.27-1.889-0.27c-1.098,0-1.709,0.521-1.709,1.277c0,0.701,0.521,1.169,1.421,1.169
				C121.837,201.593,122.591,201.198,123.185,200.675z"/>
			<path fill="#1E5035" d="M132.629,197.402c-0.539,0-0.936-0.342-0.936-0.864c0-0.126,0.019-0.27,0.072-0.396
				c-0.306-0.144-0.756-0.233-1.241-0.233c-0.989,0-1.529,0.485-1.529,0.989c0,0.575,0.594,0.81,1.835,1.133
				c1.673,0.433,2.896,0.882,2.896,2.339c0,1.548-1.476,2.411-3.166,2.411c-1.17,0-2.356-0.396-2.879-0.918
				c-0.287-0.287-0.432-0.611-0.432-1.007c0-0.504,0.36-0.936,0.882-0.936c0.504,0,0.917,0.342,0.917,0.899
				c0,0.144-0.018,0.27-0.071,0.396c0.287,0.18,0.863,0.36,1.583,0.36c0.936,0,1.69-0.36,1.69-1.044
				c0-0.558-0.558-0.827-1.709-1.115c-1.979-0.504-3.04-0.989-3.04-2.375c0-1.188,1.062-2.32,3.04-2.32
				c1.008,0,2.016,0.323,2.519,0.827c0.271,0.271,0.396,0.594,0.396,0.936C133.457,197.042,133.115,197.402,132.629,197.402z"/>
			<path fill="#1E5035" d="M143.673,190.674c-0.198,0.054-0.378,0.18-0.521,0.342c-0.252,0.342-0.396,0.827-0.396,1.583v2.267h2.016
				v1.331h-2.016v5.128h1.512v1.295h-4.246v-1.295h1.205v-5.128h-1.349v-1.331h1.349v-1.979c0-1.313,0.234-2.177,0.9-2.824
				c0.485-0.486,1.115-0.756,1.925-0.756c0.899,0,1.547,0.449,1.547,1.151c0,0.594-0.414,0.953-0.899,0.953
				C144.158,191.411,143.835,191.088,143.673,190.674z"/>
			<path fill="#1E5035" d="M152.54,195.854c0,0.558-0.45,1.044-0.989,1.044c-0.521,0-0.882-0.324-1.025-0.666
				c-0.576,0.18-1.241,0.828-1.619,1.565v3.526h1.421v1.295h-4.155v-1.295h1.205v-5.128h-1.205v-1.331h2.68v1.764
				c0.612-1.062,1.512-1.907,2.411-1.907C152.108,194.721,152.54,195.243,152.54,195.854z"/>
			<path fill="#1E5035" d="M153.689,200.549c0-1.421,1.26-2.338,3.041-2.338c0.81,0,1.709,0.18,2.122,0.306v-0.882
				c0-0.449-0.126-0.81-0.342-1.079c-0.323-0.396-0.863-0.594-1.619-0.594c-0.485,0-0.773,0.107-1.007,0.233
				c0.054,0.126,0.09,0.288,0.09,0.433c0,0.503-0.378,0.881-0.899,0.881c-0.54,0-0.918-0.378-0.918-0.917
				c0-0.918,1.008-1.871,2.986-1.871c1.206,0,2.087,0.359,2.608,0.972c0.396,0.468,0.594,1.079,0.594,1.78v3.851h1.206v1.295h-2.663
				v-0.936c-0.63,0.594-1.619,1.079-2.662,1.079C154.804,202.762,153.689,201.953,153.689,200.549z M158.852,200.675v-1.259
				c-0.521-0.144-1.187-0.27-1.889-0.27c-1.098,0-1.709,0.521-1.709,1.277c0,0.701,0.521,1.169,1.421,1.169
				C157.504,201.593,158.258,201.198,158.852,200.675z"/>
			<path fill="#1E5035" d="M170.455,202.781c0,0.953-0.252,1.727-0.72,2.284c-0.647,0.792-1.709,1.151-2.933,1.151
				c-1.277,0-2.303-0.396-2.807-0.899c-0.287-0.287-0.413-0.594-0.413-0.936c0-0.539,0.396-1.007,0.972-1.007
				c0.521,0,0.899,0.378,0.899,0.881c0,0.145-0.036,0.307-0.108,0.433c0.27,0.107,0.72,0.251,1.367,0.251
				c0.737,0,1.386-0.216,1.799-0.737c0.252-0.323,0.396-0.791,0.396-1.421v-1.35c-0.612,0.63-1.313,1.098-2.429,1.098
				c-1.997,0-3.616-1.565-3.616-3.85c0-2.142,1.565-3.958,3.742-3.958c1.025,0,1.799,0.396,2.374,0.917v-0.773h2.681v1.331h-1.205
				V202.781z M164.446,198.661c0,1.547,0.989,2.537,2.356,2.537c0.846,0,1.548-0.396,2.105-0.972v-3.4
				c-0.522-0.432-1.188-0.756-2.069-0.756C165.435,196.07,164.446,197.114,164.446,198.661z"/>
			<path fill="#1E5035" d="M173.096,200.549c0-1.421,1.26-2.338,3.041-2.338c0.81,0,1.709,0.18,2.122,0.306v-0.882
				c0-0.449-0.126-0.81-0.342-1.079c-0.323-0.396-0.863-0.594-1.619-0.594c-0.485,0-0.773,0.107-1.007,0.233
				c0.054,0.126,0.09,0.288,0.09,0.433c0,0.503-0.378,0.881-0.899,0.881c-0.54,0-0.918-0.378-0.918-0.917
				c0-0.918,1.008-1.871,2.986-1.871c1.206,0,2.087,0.359,2.608,0.972c0.396,0.468,0.594,1.079,0.594,1.78v3.851h1.206v1.295h-2.663
				v-0.936c-0.63,0.594-1.619,1.079-2.662,1.079C174.212,202.762,173.096,201.953,173.096,200.549z M178.259,200.675v-1.259
				c-0.521-0.144-1.187-0.27-1.889-0.27c-1.098,0-1.709,0.521-1.709,1.277c0,0.701,0.521,1.169,1.421,1.169
				C176.911,201.593,177.666,201.198,178.259,200.675z"/>
			<path fill="#1E5035" d="M185.04,196.215c0.738-0.792,1.71-1.493,2.825-1.493c0.971,0,1.637,0.378,2.032,0.989
				c0.252,0.432,0.396,0.972,0.396,1.619v3.994h1.205v1.295h-3.904v-1.295h1.151v-3.652c0-0.378-0.054-0.684-0.18-0.918
				c-0.216-0.413-0.594-0.611-1.151-0.611c-0.846,0-1.655,0.504-2.32,1.17v4.012h1.151v1.295h-3.886v-1.295h1.205v-5.128h-1.205
				v-1.331h2.68V196.215z"/>
			<path fill="#1E5035" d="M192.791,198.715c0-2.086,1.674-3.993,3.887-3.993c1.925,0,3.328,1.259,3.328,2.446
				c0,0.684-0.468,1.151-1.098,1.151c-0.504,0-0.972-0.396-0.972-0.972c0-0.252,0.126-0.503,0.324-0.647
				c-0.181-0.359-0.828-0.701-1.583-0.701c-1.044,0-2.321,0.881-2.321,2.752c0,1.602,1.17,2.681,2.771,2.681
				c0.899,0,1.709-0.27,2.663-0.827l-0.145,1.421c-0.791,0.504-1.709,0.737-2.662,0.737
				C194.572,202.762,192.791,201.108,192.791,198.715z"/>
			<path fill="#1E5035" d="M201.839,201.324h1.26v-5.128h-1.26v-1.331h2.807v6.459h1.241v1.295h-4.048V201.324z M202.576,192.094
				c0-0.611,0.522-1.115,1.134-1.115c0.594,0,1.115,0.504,1.115,1.115c0,0.63-0.54,1.134-1.134,1.134
				C203.08,193.228,202.576,192.724,202.576,192.094z"/>
			<path fill="#1E5035" d="M207.432,200.549c0-1.421,1.26-2.338,3.041-2.338c0.81,0,1.709,0.18,2.122,0.306v-0.882
				c0-0.449-0.126-0.81-0.342-1.079c-0.323-0.396-0.863-0.594-1.619-0.594c-0.485,0-0.773,0.107-1.007,0.233
				c0.054,0.126,0.09,0.288,0.09,0.433c0,0.503-0.378,0.881-0.899,0.881c-0.54,0-0.918-0.378-0.918-0.917
				c0-0.918,1.008-1.871,2.986-1.871c1.206,0,2.087,0.359,2.608,0.972c0.396,0.468,0.594,1.079,0.594,1.78v3.851h1.206v1.295h-2.663
				v-0.936c-0.63,0.594-1.619,1.079-2.662,1.079C208.548,202.762,207.432,201.953,207.432,200.549z M212.595,200.675v-1.259
				c-0.521-0.144-1.187-0.27-1.889-0.27c-1.098,0-1.709,0.521-1.709,1.277c0,0.701,0.521,1.169,1.421,1.169
				C211.247,201.593,212.002,201.198,212.595,200.675z"/>
			<path fill="#1E5035" d="M222.038,197.402c-0.539,0-0.936-0.342-0.936-0.864c0-0.126,0.019-0.27,0.072-0.396
				c-0.306-0.144-0.756-0.233-1.241-0.233c-0.989,0-1.529,0.485-1.529,0.989c0,0.575,0.594,0.81,1.835,1.133
				c1.673,0.433,2.896,0.882,2.896,2.339c0,1.548-1.476,2.411-3.166,2.411c-1.17,0-2.357-0.396-2.879-0.918
				c-0.287-0.287-0.432-0.611-0.432-1.007c0-0.504,0.36-0.936,0.882-0.936c0.504,0,0.917,0.342,0.917,0.899
				c0,0.144-0.018,0.27-0.071,0.396c0.287,0.18,0.863,0.36,1.583,0.36c0.936,0,1.69-0.36,1.69-1.044
				c0-0.558-0.558-0.827-1.709-1.115c-1.979-0.504-3.04-0.989-3.04-2.375c0-1.188,1.062-2.32,3.04-2.32
				c1.008,0,2.016,0.323,2.519,0.827c0.271,0.271,0.396,0.594,0.396,0.936C222.866,197.042,222.524,197.402,222.038,197.402z"/>
			<path fill="#1E5035" d="M224.321,204.904c1.188-0.918,1.691-1.781,1.709-2.285c-0.575-0.144-1.007-0.611-1.007-1.224
				c0-0.629,0.575-1.188,1.241-1.188c0.72,0,1.331,0.54,1.331,1.565c0,1.044-0.72,2.555-2.843,3.724L224.321,204.904z"/>
			<path fill="#1E5035" d="M38.076,224.365c0,0.953-0.252,1.727-0.72,2.284c-0.647,0.792-1.709,1.151-2.933,1.151
				c-1.277,0-2.303-0.396-2.807-0.899c-0.287-0.287-0.413-0.594-0.413-0.936c0-0.539,0.396-1.007,0.972-1.007
				c0.521,0,0.899,0.378,0.899,0.881c0,0.145-0.036,0.307-0.108,0.433c0.27,0.107,0.72,0.251,1.367,0.251
				c0.737,0,1.386-0.216,1.799-0.737c0.252-0.323,0.396-0.791,0.396-1.421v-1.35c-0.612,0.63-1.313,1.098-2.429,1.098
				c-1.997,0-3.616-1.565-3.616-3.85c0-2.142,1.565-3.958,3.742-3.958c1.025,0,1.799,0.396,2.374,0.917v-0.773h2.681v1.331h-1.205
				V224.365z M32.067,220.245c0,1.547,0.989,2.537,2.356,2.537c0.846,0,1.548-0.396,2.105-0.972v-3.4
				c-0.522-0.432-1.188-0.756-2.069-0.756C33.056,217.654,32.067,218.698,32.067,220.245z"/>
			<path fill="#1E5035" d="M42.427,220.821c0.216,1.475,1.295,2.194,2.807,2.194c0.989,0,1.835-0.306,2.752-0.827l-0.126,1.421
				c-0.81,0.504-1.799,0.737-2.86,0.737c-2.5,0-4.191-1.619-4.191-3.993c0-2.177,1.493-4.048,3.85-4.048
				c2.393,0,3.652,1.709,3.652,3.688c0,0.288-0.036,0.594-0.072,0.828H42.427z M42.427,219.67h4.336
				c-0.072-1.241-0.828-2.087-2.142-2.087C43.579,217.583,42.626,218.266,42.427,219.67z"/>
			<path fill="#1E5035" d="M49.855,222.908h1.259v-10.543h-1.259v-1.331h2.806v11.874h1.242v1.295h-4.048V222.908z"/>
			<path fill="#1E5035" d="M57.104,220.821c0.216,1.475,1.295,2.194,2.807,2.194c0.989,0,1.835-0.306,2.752-0.827l-0.126,1.421
				c-0.81,0.504-1.799,0.737-2.86,0.737c-2.5,0-4.191-1.619-4.191-3.993c0-2.177,1.493-4.048,3.85-4.048
				c2.393,0,3.652,1.709,3.652,3.688c0,0.288-0.036,0.594-0.072,0.828H57.104z M57.104,219.67h4.336
				c-0.072-1.241-0.828-2.087-2.142-2.087C58.256,217.583,57.302,218.266,57.104,219.67z"/>
			<path fill="#1E5035" d="M70.144,218.986c-0.539,0-0.936-0.342-0.936-0.864c0-0.126,0.019-0.27,0.072-0.396
				c-0.306-0.144-0.756-0.233-1.241-0.233c-0.989,0-1.529,0.485-1.529,0.989c0,0.575,0.594,0.81,1.835,1.133
				c1.673,0.433,2.896,0.882,2.896,2.339c0,1.548-1.476,2.411-3.166,2.411c-1.17,0-2.356-0.396-2.879-0.918
				c-0.287-0.287-0.432-0.611-0.432-1.007c0-0.504,0.36-0.936,0.882-0.936c0.504,0,0.917,0.342,0.917,0.899
				c0,0.144-0.018,0.27-0.071,0.396c0.287,0.18,0.863,0.36,1.583,0.36c0.936,0,1.69-0.36,1.69-1.044
				c0-0.558-0.558-0.827-1.709-1.115c-1.979-0.504-3.04-0.989-3.04-2.375c0-1.188,1.062-2.32,3.04-2.32
				c1.008,0,2.016,0.323,2.519,0.827c0.271,0.271,0.396,0.594,0.396,0.936C70.972,218.626,70.631,218.986,70.144,218.986z"/>
			<path fill="#1E5035" d="M77.482,220.371c0-2.213,1.565-4.065,3.777-4.065c0.972,0,1.781,0.359,2.303,0.846v-4.786h-1.331v-1.331
				h2.879v11.874h1.205v1.295h-2.734v-0.989c-0.611,0.647-1.386,1.133-2.465,1.133C79.065,224.346,77.482,222.727,77.482,220.371z
				 M83.562,222.008v-3.599c-0.558-0.432-1.223-0.756-2.122-0.756c-1.332,0-2.357,1.062-2.375,2.699
				c0,1.619,1.025,2.645,2.339,2.645C82.286,222.998,82.987,222.584,83.562,222.008z"/>
			<path fill="#1E5035" d="M89.407,220.821c0.216,1.475,1.295,2.194,2.807,2.194c0.989,0,1.835-0.306,2.752-0.827l-0.126,1.421
				c-0.81,0.504-1.799,0.737-2.86,0.737c-2.5,0-4.191-1.619-4.191-3.993c0-2.177,1.493-4.048,3.85-4.048
				c2.393,0,3.652,1.709,3.652,3.688c0,0.288-0.036,0.594-0.072,0.828H89.407z M89.407,219.67h4.336
				c-0.072-1.241-0.828-2.087-2.142-2.087C90.558,217.583,89.605,218.266,89.407,219.67z"/>
			<path fill="#1E5035" d="M101.403,220.371c0-2.213,1.565-4.065,3.777-4.065c0.972,0,1.781,0.359,2.303,0.846v-4.786h-1.331v-1.331
				h2.879v11.874h1.205v1.295h-2.734v-0.989c-0.611,0.647-1.386,1.133-2.465,1.133C102.986,224.346,101.403,222.727,101.403,220.371
				z M107.483,222.008v-3.599c-0.558-0.432-1.223-0.756-2.122-0.756c-1.332,0-2.357,1.062-2.375,2.699
				c0,1.619,1.025,2.645,2.339,2.645C106.207,222.998,106.908,222.584,107.483,222.008z"/>
			<path fill="#1E5035" d="M112.987,223.321c-0.234-0.432-0.359-0.953-0.359-1.583v-3.958h-1.206v-1.331h2.734v4.947
				c0,0.396,0.072,0.702,0.198,0.936c0.216,0.414,0.576,0.594,1.134,0.594c0.845,0,1.637-0.521,2.32-1.169v-3.977h-1.241v-1.331
				h2.788v6.459h1.206v1.295h-2.699v-1.35c-0.737,0.792-1.709,1.493-2.824,1.493C114.049,224.346,113.382,223.951,112.987,223.321z"
				/>
			<path fill="#1E5035" d="M122.123,220.299c0-2.086,1.674-3.993,3.887-3.993c1.925,0,3.328,1.259,3.328,2.446
				c0,0.684-0.468,1.151-1.098,1.151c-0.504,0-0.972-0.396-0.972-0.972c0-0.252,0.126-0.503,0.324-0.647
				c-0.181-0.359-0.828-0.701-1.583-0.701c-1.044,0-2.321,0.881-2.321,2.752c0,1.602,1.17,2.681,2.771,2.681
				c0.899,0,1.709-0.27,2.663-0.827l-0.145,1.421c-0.791,0.504-1.709,0.737-2.662,0.737
				C123.904,224.346,122.123,222.692,122.123,220.299z"/>
			<path fill="#1E5035" d="M131.008,212.365v-1.331h2.753v6.711c0.737-0.792,1.655-1.439,2.752-1.439
				c0.882,0,1.548,0.306,1.943,0.827c0.342,0.45,0.521,1.062,0.521,1.781v3.994h1.205v1.295h-3.903v-1.295h1.151v-3.652
				c0-0.504-0.108-0.846-0.306-1.098c-0.234-0.288-0.594-0.432-1.062-0.432c-0.846,0-1.655,0.504-2.303,1.17v4.012h1.151v1.295
				h-3.904v-1.295h1.205v-10.543H131.008z"/>
			<path fill="#1E5035" d="M141.512,222.133c0-1.421,1.26-2.338,3.041-2.338c0.81,0,1.709,0.18,2.122,0.306v-0.882
				c0-0.449-0.126-0.81-0.342-1.079c-0.323-0.396-0.863-0.594-1.619-0.594c-0.485,0-0.773,0.107-1.007,0.233
				c0.054,0.126,0.09,0.288,0.09,0.433c0,0.503-0.378,0.881-0.899,0.881c-0.54,0-0.918-0.378-0.918-0.917
				c0-0.918,1.008-1.871,2.986-1.871c1.206,0,2.087,0.359,2.608,0.972c0.396,0.468,0.594,1.079,0.594,1.78v3.851h1.206v1.295h-2.663
				v-0.936c-0.63,0.594-1.619,1.079-2.662,1.079C142.628,224.346,141.512,223.537,141.512,222.133z M146.675,222.259v-1.259
				c-0.521-0.144-1.187-0.27-1.889-0.27c-1.098,0-1.709,0.521-1.709,1.277c0,0.701,0.521,1.169,1.421,1.169
				C145.327,223.177,146.082,222.782,146.675,222.259z"/>
			<path fill="#1E5035" d="M156.459,227.783c-0.863,0-1.476-0.485-1.476-1.098c0-0.558,0.378-0.881,0.846-0.881
				c0.45,0,0.738,0.323,0.846,0.647c0.252-0.09,0.504-0.288,0.792-0.702c0.144-0.233,0.306-0.521,0.485-0.881l0.521-1.08
				l-2.86-6.009h-1.007v-1.331h3.777v1.277h-1.188c0,0,2.033,4.605,2.016,4.605l2.051-4.605h-1.241v-1.277h3.741v1.331h-1.007
				l-3.652,7.79c-0.198,0.396-0.396,0.737-0.611,1.044C157.916,227.369,157.251,227.783,156.459,227.783z"/>
			<path fill="#1E5035" d="M169.157,222.908h1.259v-10.543h-1.259v-1.331h2.806v11.874h1.242v1.295h-4.048V222.908z"/>
			<path fill="#1E5035" d="M174.823,220.335c0-2.177,1.583-4.029,4.048-4.029s4.048,1.835,4.048,4.029
				c0,2.159-1.602,4.012-4.048,4.012C176.388,224.346,174.823,222.511,174.823,220.335z M181.317,220.335
				c0-1.583-1.007-2.716-2.446-2.716c-1.457,0-2.465,1.133-2.465,2.716s1.008,2.699,2.465,2.699
				C180.31,223.034,181.317,221.918,181.317,220.335z"/>
			<path fill="#1E5035" d="M184.678,220.299c0-2.086,1.674-3.993,3.887-3.993c1.925,0,3.328,1.259,3.328,2.446
				c0,0.684-0.468,1.151-1.098,1.151c-0.504,0-0.972-0.396-0.972-0.972c0-0.252,0.126-0.503,0.324-0.647
				c-0.181-0.359-0.828-0.701-1.583-0.701c-1.044,0-2.321,0.881-2.321,2.752c0,1.602,1.17,2.681,2.771,2.681
				c0.899,0,1.709-0.27,2.663-0.827l-0.145,1.421c-0.791,0.504-1.709,0.737-2.662,0.737
				C186.46,224.346,184.678,222.692,184.678,220.299z"/>
			<path fill="#1E5035" d="M193.726,222.908h1.26v-5.128h-1.26v-1.331h2.807v6.459h1.241v1.295h-4.048V222.908z M194.464,213.678
				c0-0.611,0.522-1.115,1.134-1.115c0.594,0,1.115,0.504,1.115,1.115c0,0.63-0.54,1.134-1.134,1.134
				C194.967,214.812,194.464,214.308,194.464,213.678z"/>
			<path fill="#1E5035" d="M199.445,220.335c0-2.177,1.583-4.029,4.048-4.029s4.048,1.835,4.048,4.029
				c0,2.159-1.602,4.012-4.048,4.012C201.01,224.346,199.445,222.511,199.445,220.335z M205.939,220.335
				c0-1.583-1.007-2.716-2.446-2.716c-1.457,0-2.465,1.133-2.465,2.716s1.008,2.699,2.465,2.699
				C204.932,223.034,205.939,221.918,205.939,220.335z"/>
			<path fill="#1E5035" d="M211.946,217.799c0.738-0.792,1.71-1.493,2.825-1.493c0.971,0,1.637,0.378,2.032,0.989
				c0.252,0.432,0.396,0.972,0.396,1.619v3.994h1.205v1.295h-3.904v-1.295h1.151v-3.652c0-0.378-0.054-0.684-0.18-0.918
				c-0.216-0.413-0.594-0.611-1.151-0.611c-0.846,0-1.655,0.504-2.32,1.17v4.012h1.151v1.295h-3.886v-1.295h1.205v-5.128h-1.205
				v-1.331h2.68V217.799z"/>
			<path fill="#1E5035" d="M221.299,220.821c0.216,1.475,1.295,2.194,2.807,2.194c0.989,0,1.835-0.306,2.752-0.827l-0.126,1.421
				c-0.81,0.504-1.799,0.737-2.86,0.737c-2.5,0-4.191-1.619-4.191-3.993c0-2.177,1.493-4.048,3.85-4.048
				c2.393,0,3.652,1.709,3.652,3.688c0,0.288-0.036,0.594-0.072,0.828H221.299z M221.299,219.67h4.336
				c-0.072-1.241-0.828-2.087-2.142-2.087C222.45,217.583,221.497,218.266,221.299,219.67z"/>
			<path fill="#1E5035" d="M234.34,218.986c-0.539,0-0.936-0.342-0.936-0.864c0-0.126,0.019-0.27,0.072-0.396
				c-0.306-0.144-0.756-0.233-1.241-0.233c-0.989,0-1.529,0.485-1.529,0.989c0,0.575,0.594,0.81,1.835,1.133
				c1.673,0.433,2.896,0.882,2.896,2.339c0,1.548-1.476,2.411-3.166,2.411c-1.17,0-2.356-0.396-2.879-0.918
				c-0.287-0.287-0.432-0.611-0.432-1.007c0-0.504,0.36-0.936,0.882-0.936c0.504,0,0.917,0.342,0.917,0.899
				c0,0.144-0.018,0.27-0.071,0.396c0.287,0.18,0.863,0.36,1.583,0.36c0.936,0,1.69-0.36,1.69-1.044
				c0-0.558-0.558-0.827-1.709-1.115c-1.979-0.504-3.04-0.989-3.04-2.375c0-1.188,1.062-2.32,3.04-2.32
				c1.008,0,2.016,0.323,2.519,0.827c0.271,0.271,0.396,0.594,0.396,0.936C235.168,218.626,234.826,218.986,234.34,218.986z"/>
			<path fill="#1E5035" d="M90.692,241.882c0-2.086,1.674-3.993,3.887-3.993c1.925,0,3.328,1.259,3.328,2.446
				c0,0.684-0.468,1.151-1.098,1.151c-0.504,0-0.972-0.396-0.972-0.972c0-0.252,0.126-0.503,0.324-0.647
				c-0.181-0.359-0.828-0.701-1.583-0.701c-1.044,0-2.321,0.881-2.321,2.752c0,1.602,1.17,2.681,2.771,2.681
				c0.899,0,1.709-0.27,2.663-0.827l-0.145,1.421c-0.791,0.504-1.709,0.737-2.662,0.737
				C92.473,245.929,90.692,244.275,90.692,241.882z"/>
			<path fill="#1E5035" d="M99.632,241.918c0-2.177,1.583-4.029,4.048-4.029s4.048,1.835,4.048,4.029
				c0,2.159-1.602,4.012-4.048,4.012C101.197,245.929,99.632,244.094,99.632,241.918z M106.126,241.918
				c0-1.583-1.007-2.716-2.446-2.716c-1.457,0-2.465,1.133-2.465,2.716s1.008,2.699,2.465,2.699
				C105.119,244.617,106.126,243.501,106.126,241.918z"/>
			<path fill="#1E5035" d="M115.821,239.021c0,0.558-0.45,1.044-0.989,1.044c-0.521,0-0.882-0.324-1.025-0.666
				c-0.576,0.18-1.241,0.828-1.619,1.565v3.526h1.421v1.295h-4.155v-1.295h1.205v-5.128h-1.205v-1.331h2.68v1.764
				c0.612-1.062,1.512-1.907,2.411-1.907C115.389,237.888,115.821,238.41,115.821,239.021z"/>
			<path fill="#1E5035" d="M116.916,248.016h1.206v-8.653h-1.206v-1.331h2.681v1.008c0.647-0.666,1.367-1.151,2.482-1.151
				c2.033,0,3.616,1.619,3.616,3.976c0,2.23-1.565,4.065-3.76,4.065c-0.882,0-1.655-0.323-2.267-0.827v2.914h1.385v1.296h-4.138
				V248.016z M124.094,241.882c0-1.619-0.99-2.645-2.303-2.645c-0.882,0-1.548,0.414-2.123,0.99v3.615
				c0.539,0.433,1.223,0.738,2.087,0.738C123.069,244.581,124.094,243.519,124.094,241.882z"/>
			<path fill="#1E5035" d="M127.492,241.918c0-2.177,1.583-4.029,4.048-4.029s4.048,1.835,4.048,4.029
				c0,2.159-1.602,4.012-4.048,4.012C129.057,245.929,127.492,244.094,127.492,241.918z M133.986,241.918
				c0-1.583-1.007-2.716-2.446-2.716c-1.457,0-2.465,1.133-2.465,2.716s1.008,2.699,2.465,2.699
				C132.979,244.617,133.986,243.501,133.986,241.918z"/>
			<path fill="#1E5035" d="M143.681,239.021c0,0.558-0.45,1.044-0.989,1.044c-0.521,0-0.882-0.324-1.025-0.666
				c-0.576,0.18-1.241,0.828-1.619,1.565v3.526h1.421v1.295h-4.155v-1.295h1.205v-5.128h-1.205v-1.331h2.68v1.764
				c0.612-1.062,1.512-1.907,2.411-1.907C143.25,237.888,143.681,238.41,143.681,239.021z"/>
			<path fill="#1E5035" d="M144.831,243.716c0-1.421,1.26-2.338,3.041-2.338c0.81,0,1.709,0.18,2.122,0.306v-0.882
				c0-0.449-0.126-0.81-0.342-1.079c-0.323-0.396-0.863-0.594-1.619-0.594c-0.485,0-0.773,0.107-1.007,0.233
				c0.054,0.126,0.09,0.288,0.09,0.433c0,0.503-0.378,0.881-0.899,0.881c-0.54,0-0.918-0.378-0.918-0.917
				c0-0.918,1.008-1.871,2.986-1.871c1.206,0,2.087,0.359,2.608,0.972c0.396,0.468,0.594,1.079,0.594,1.78v3.851h1.206v1.295h-2.663
				v-0.936c-0.63,0.594-1.619,1.079-2.662,1.079C145.946,245.929,144.831,245.12,144.831,243.716z M149.994,243.842v-1.259
				c-0.521-0.144-1.187-0.27-1.889-0.27c-1.098,0-1.709,0.521-1.709,1.277c0,0.701,0.521,1.169,1.421,1.169
				C148.645,244.76,149.4,244.365,149.994,243.842z"/>
			<path fill="#1E5035" d="M153.824,244.491h1.259v-10.543h-1.259v-1.331h2.806v11.874h1.242v1.295h-4.048V244.491z"/>
			<path fill="#1E5035" d="M161.073,242.404c0.216,1.475,1.295,2.194,2.807,2.194c0.989,0,1.835-0.306,2.752-0.827l-0.126,1.421
				c-0.81,0.504-1.799,0.737-2.86,0.737c-2.5,0-4.191-1.619-4.191-3.993c0-2.177,1.493-4.048,3.85-4.048
				c2.393,0,3.652,1.709,3.652,3.688c0,0.288-0.036,0.594-0.072,0.828H161.073z M161.073,241.253h4.336
				c-0.072-1.241-0.828-2.087-2.142-2.087C162.224,239.166,161.271,239.849,161.073,241.253z"/>
			<path fill="#1E5035" d="M174.113,240.569c-0.539,0-0.936-0.342-0.936-0.864c0-0.126,0.019-0.27,0.072-0.396
				c-0.306-0.144-0.756-0.233-1.241-0.233c-0.989,0-1.529,0.485-1.529,0.989c0,0.575,0.594,0.81,1.835,1.133
				c1.673,0.433,2.896,0.882,2.896,2.339c0,1.548-1.476,2.411-3.166,2.411c-1.17,0-2.356-0.396-2.879-0.918
				c-0.287-0.287-0.432-0.611-0.432-1.007c0-0.504,0.36-0.936,0.882-0.936c0.504,0,0.917,0.342,0.917,0.899
				c0,0.144-0.018,0.27-0.071,0.396c0.287,0.18,0.863,0.36,1.583,0.36c0.936,0,1.69-0.36,1.69-1.044
				c0-0.558-0.558-0.827-1.709-1.115c-1.979-0.504-3.04-0.989-3.04-2.375c0-1.188,1.062-2.32,3.04-2.32
				c1.008,0,2.016,0.323,2.519,0.827c0.271,0.271,0.396,0.594,0.396,0.936C174.941,240.209,174.599,240.569,174.113,240.569z"/>
		</g>
	</g>
	<g>
		<g>
			<path fill="#1E5035" d="M158.044,92.812c0-5.59,3.055-9.101,8.84-9.101c5.721,0,8.84,3.51,8.84,9.101s-3.119,9.035-8.84,9.035
				C161.098,101.847,158.044,98.403,158.044,92.812z M171.954,92.812c0-3.9-1.69-6.045-5.07-6.045c-3.381,0-5.135,2.145-5.135,6.045
				c0,3.9,1.754,5.98,5.135,5.98C170.263,98.792,171.954,96.712,171.954,92.812z M169.743,128.238h-3.899l24.051-44.202h3.899
				L169.743,128.238z M183.914,119.528c0-5.59,3.056-9.1,8.841-9.1c5.72,0,8.84,3.51,8.84,9.1s-3.12,9.036-8.84,9.036
				C186.969,128.564,183.914,125.118,183.914,119.528z M197.825,119.528c0-3.9-1.69-6.045-5.07-6.045
				c-3.381,0-5.136,2.145-5.136,6.045c0,3.9,1.755,5.98,5.136,5.98C196.134,125.508,197.825,123.428,197.825,119.528z"/>
			<path fill="#1E5035" d="M156.312,146.796c0-4.126,1.237-7.491,6.297-7.491c5.037,0,6.297,3.365,6.297,7.491
				c0,4.19-1.26,7.708-6.297,7.708C157.549,154.504,156.312,150.986,156.312,146.796z M158.483,146.796
				c0,3.148,0.586,5.971,4.126,5.971c3.518,0,4.126-2.822,4.126-5.971s-0.608-5.754-4.126-5.754
				C159.069,141.041,158.483,143.647,158.483,146.796z"/>
			<path fill="#1E5035" d="M180.909,141.367h-7.166v4.777h6.188v1.846h-6.188v6.297h-2.062v-14.766h9.229V141.367z"/>
			<path fill="#1E5035" d="M192.956,141.367h-7.166v4.777h6.188v1.846h-6.188v6.297h-2.062v-14.766h9.229V141.367z"/>
		</g>
		<g>
			<g>
				<path fill="#1E5035" d="M65.753,105.661l-2.565-8.017c8.338-3.741,17.423-8.444,22.981-12.826h6.947v73.217h-9.62V96.362
					L65.753,105.661z"/>
				<path fill="#1E5035" d="M101.666,153.76l2.886-7.375c7.589,3.634,13.254,4.703,19.561,4.703c10.368,0,16.567-6.2,16.567-16.033
					c0-7.055-3.42-15.179-14.429-15.179c-5.558,0-10.261,2.352-13.896,7.055l-7.055-0.642l1.711-40.938h39.547v8.551h-31.21
					l-1.496,24.37l0.213,0.107c3.635-3.848,9.192-6.841,15.499-6.841c12.933,0,21.27,8.337,21.27,22.98
					c0,16.033-10.154,24.584-26.187,24.584C116.203,159.105,109.469,157.502,101.666,153.76z"/>
			</g>
		</g>
	</g>
</g>
<g>
</g>
<g>
</g>
<g>
</g>
<g>
</g>
<g>
</g>
<g>
</g>
<g>
</g>
<g>
</g>
<g>
</g>
<g>
</g>
<g>
</g>
<g>
</g>
<g>
</g>
<g>
</g>
<g>
</g>
</svg>
