<?xml version="1.0" encoding="utf-8"?>
<!-- Generator: Adobe Illustrator 17.0.0, SVG Export Plug-In . SVG Version: 6.00 Build 0)  -->
<!DOCTYPE svg PUBLIC "-//W3C//DTD SVG 1.1//EN" "http://www.w3.org/Graphics/SVG/1.1/DTD/svg11.dtd">
<svg version="1.1" id="Layer_1" xmlns="http://www.w3.org/2000/svg" xmlns:xlink="http://www.w3.org/1999/xlink" x="0px" y="0px"
	 width="30px" height="30px" viewBox="0 0 30 30" enable-background="new 0 0 30 30" xml:space="preserve">
<g>
	<path fill="#FFFFFF" d="M20.063,2.474H9.937c-4.115,0-7.463,3.348-7.463,7.463v10.125c0,4.115,3.348,7.463,7.463,7.463h10.125
		c4.115,0,7.463-3.348,7.463-7.463V9.937C27.525,5.822,24.178,2.474,20.063,2.474z M25.005,20.063c0,2.73-2.213,4.943-4.943,4.943
		H9.937c-2.73,0-4.943-2.213-4.943-4.943V9.937c0-2.73,2.213-4.943,4.943-4.943h10.125c2.73,0,4.943,2.213,4.943,4.943
		L25.005,20.063L25.005,20.063z"/>
	<path fill="#FFFFFF" d="M15,8.521c-3.573,0-6.479,2.907-6.479,6.479s2.907,6.479,6.479,6.479s6.479-2.907,6.479-6.479
		S18.573,8.521,15,8.521z M15,18.959c-2.186,0-3.959-1.772-3.959-3.959s1.773-3.959,3.959-3.959s3.959,1.772,3.959,3.959
		C18.959,17.186,17.186,18.959,15,18.959z"/>
	<circle fill="#FFFFFF" cx="21.492" cy="8.57" r="1.553"/>
</g>
</svg>
