<?xml version="1.0" encoding="utf-8"?>
<!-- Generator: Adobe Illustrator 17.0.0, SVG Export Plug-In . SVG Version: 6.00 Build 0)  -->
<!DOCTYPE svg PUBLIC "-//W3C//DTD SVG 1.1//EN" "http://www.w3.org/Graphics/SVG/1.1/DTD/svg11.dtd">
<svg version="1.1" id="Layer_1" xmlns="http://www.w3.org/2000/svg" xmlns:xlink="http://www.w3.org/1999/xlink" x="0px" y="0px"
	 width="243.63px" height="84.337px" viewBox="0 0 243.63 84.337" enable-background="new 0 0 243.63 84.337" xml:space="preserve">
<path fill="#222944" d="M16.433,30.1c8.946,0.565,23.467-3.878,29.619-10.234c5.632-5.817,6.966-9.322,7.029-12.158
	c0.086-3.771-2.487-5.147-3.271-5.514c-4.105-1.862-13.107-1.523-19.914,11.881c-2.656,5.181-4.706,11.375-5.36,13.686
	c-2.814,0.553-4.902,0.689-7.298-0.539c-1.302-0.667-2.208-0.652-2.793,0.259C13.861,28.392,14.158,29.904,16.433,30.1z
	 M37.159,10.418c4.758-7.242,10.237-8.564,11.266-6.22c1.027,2.341-0.74,7.996-5.027,12.906c-4.285,4.909-12.277,9.153-13.975,9.626
	C29.473,26.577,32.402,17.659,37.159,10.418z M65.599,75.984c-0.926-0.838-2.08-0.508-3.901,1.35
	c-4.352,4.099-14.059,3.605-19.08,1.45c-12.773-5.48-15.908-12.169-29.061-18.491c7.695-8.869,12.219-20.964,14.892-30.203
	c-1.193,0.452-3.275,0.966-4.916,1.183c-0.488,3.221-6.395,18.938-13.222,27.065c-3.25-2.438-5.291-1.567-5.991-0.451
	c-0.988,1.576-0.11,4.696,6.803,5.317c7.267,3.419,12.432,8.464,19.619,13.156c15.428,10.075,27.022,6.473,33.189,3.133
	C66.19,78.267,66.28,76.6,65.599,75.984z M177.799,55.568c-1.069,2.617-3.777,3.461-4.719,3.362
	c-1.224-0.13-2.141-1.095-1.703-2.908c0.288-1.187,0.574-2.198,0.865-3.128c1.909-5.141,4.018-10.944,4.558-12.969
	c1.049-3.923-0.776-6.619-3.192-7.09c-1.912-0.372-4.721,0.4-6.656,1.686c-1.94,1.287-4.652,4.062-5.553,5.742
	c1.563-6.063-1.827-8.492-6.124-7.161c-2.456,0.759-4.511,2.543-6.16,4.397c-0.921,1.035-1.837,2.257-2.355,3.06
	c0.161-0.603,0.706-3.029,0.803-4.419c0.109-1.461-0.709-2.95-1.888-3.284c-1.116-0.316-2.51-0.173-3.815,0.627v-0.009
	c-0.053,0.034-0.108,0.07-0.162,0.107c-0.014,0.008-0.03,0.016-0.044,0.026c-0.017,0.011-0.031,0.023-0.047,0.032
	c-1.73,1.162-2.73,2.716-3.635,4.067c-0.209,0.317-0.33,0.485-0.087,0.625c0.325,0.189,0.74-0.054,0.948-0.212
	c0.346-0.261,1.243-1.671,2.666-2.431c1.369-0.733,2.596-0.729,0.679,4.56c-2.06,5.681-8.104,21.575-8.104,21.575h4.873
	c0,0,3.072-8.452,5.725-15.123c2.652-6.673,7.015-9.897,9.619-10.834c3.558-1.187,3.247,3.25,1.644,7.531
	c-1.542,4.12-7.023,18.46-7.023,18.46h4.92l5.75-15.156c2.652-6.673,7.083-9.897,9.688-10.834c2.408-0.803,4.017,1.264,1.495,7.845
	c-0.489,1.399-1.191,3.19-2.816,7.476c-1.628,4.286-1.876,5.991-1.944,7.348c-0.108,2.142,1.075,3.379,3.221,3.63
	c3.362,0.392,8.169-2.729,9.051-5.629c0.128-0.432,0.182-0.623-0.053-1.09C178.119,55.233,177.988,55.117,177.799,55.568z
	 M44.712,33.48c-3.377,1.369-7.9,4.301-12.238,13.043c-1.379,2.836-2.371,6.33-1.818,9.541c0.789,4.577,4.754,6.989,9.108,5.407
	c1.531-0.556,4.067-2.003,5.318-3.035c1.88-1.551,2.735-2.437,4.167-4.404c-0.097,0.34-0.727,3.18-0.793,4.536
	c-0.109,2.142,1.073,3.378,3.218,3.63c3.363,0.394,8.187-2.961,9.066-5.861c0.131-0.432,0.183-0.621-0.049-1.092
	c-0.105-0.213-0.232-0.328-0.424,0.124c-1.069,2.615-3.794,3.694-4.736,3.595c-1.223-0.13-2.14-1.092-1.701-2.907
	c0.775-3.212,1.42-5.081,2.374-7.602c1.34-3.543,5.627-14.899,5.627-14.899l-4.864-0.001c0,0-1.198,3.133-1.353,3.582
	c-0.115-0.752-0.331-1.578-0.837-2.262c-0.727-0.977-1.755-1.618-3.508-2.016C49.518,32.464,46.593,32.715,44.712,33.48z
	 M54.043,37.739c0.405,1.63-0.045,3.626-0.045,3.626s-2.52,6.695-2.936,7.78c-1.444,2.86-4.235,5.886-6.076,7.19
	c-1.839,1.303-3.795,2.07-5.108,2.172C37.529,58.69,36.255,57.17,35.806,55c-0.45-2.169-0.294-4.055,1.61-8.146
	c1.9-4.094,5.196-8.038,7.615-9.988c2.116-1.771,4.149-2.25,5.547-2.126C52.232,34.891,53.636,36.109,54.043,37.739z
	 M237.461,33.332c-1.394-0.713-3.567-1.218-6.233,0.307c-2.222,1.224-5.131,4.059-6.798,6.631c0.51-1.386,0.663-3.556-0.031-5.447
	c-0.695-1.889-3.383-2.775-5.534-1.589c-2.15,1.186-3.282,2.957-4.298,4.473c-0.21,0.317-0.246,0.482-0.003,0.62
	c0.245,0.14,0.676-0.132,0.871-0.304c0.578-0.511,1.481-1.632,2.665-2.349c1.504-0.909,2.722-0.206,2.585,1.542
	c-0.101,1.267-0.383,2.557-0.813,3.754c-1.991,5.528-7.789,20.858-7.789,20.858h4.864c0,0,5.89-15.691,6.751-17.158
	c5.392-9.769,9.6-10.668,11.43-10.585c1.827,0.082,1.423,1.761,0.857,2.6c-0.681,1.078-1.756,2.477-0.978,3.092
	c0.777,0.616,3.32,0.834,4.313-1.59C240.312,35.764,238.854,34.049,237.461,33.332z M205.926,48.456
	c1.343-3.543,5.63-14.899,5.63-14.899l-4.865-0.001c0,0-1.198,3.133-1.354,3.582c-0.114-0.752-0.33-1.578-0.837-2.262
	c-0.726-0.977-1.753-1.618-3.507-2.016c-1.75-0.395-4.678-0.144-6.558,0.622c-3.376,1.369-7.901,4.301-12.239,13.043
	c-1.379,2.836-2.37,6.33-1.818,9.541c0.788,4.577,4.753,6.989,9.109,5.407c1.532-0.556,4.066-2.003,5.317-3.035
	c1.881-1.551,2.735-2.437,4.167-4.404c-0.098,0.34-0.727,3.18-0.792,4.536c-0.108,2.142,1.074,3.378,3.219,3.63
	c3.363,0.394,8.185-2.961,9.068-5.861c0.128-0.432,0.18-0.621-0.051-1.092c-0.105-0.213-0.234-0.328-0.424,0.124
	c-1.067,2.615-3.794,3.694-4.734,3.595c-1.224-0.13-2.142-1.092-1.703-2.907C204.33,52.846,204.973,50.976,205.926,48.456z
	 M200.786,49.145c-1.446,2.86-4.237,5.886-6.077,7.19c-1.839,1.303-3.796,2.07-5.107,2.172c-2.348,0.183-3.624-1.336-4.073-3.507
	c-0.452-2.169-0.296-4.055,1.607-8.146c1.904-4.094,5.202-8.038,7.617-9.988c2.119-1.771,4.152-2.25,5.546-2.126
	c1.657,0.15,3.059,1.369,3.467,2.999c0.405,1.63-0.044,3.626-0.044,3.626S201.201,48.06,200.786,49.145z M128.523,32.865
	c-6.11-1.228-14.028,3.644-17.586,11.644c-3.559,7.999-1.411,16.094,4.7,17.323c6.109,1.23,13.771-2.532,17.831-11.616
	C137.026,42.217,134.633,34.093,128.523,32.865z M128.622,49.21c-2.683,6.915-8.016,11.47-11.396,10.69
	c-3.378-0.778-4.363-7.013-1.683-13.928c2.683-6.915,8.015-11.888,11.393-11.11C130.319,35.641,131.303,42.296,128.622,49.21z
	 M89.679,38.188c0.991-2.424-0.468-4.139-1.86-4.856c-1.394-0.713-3.566-1.218-6.234,0.307c-2.221,1.224-5.131,4.059-6.797,6.631
	c0.51-1.386,0.663-3.556-0.031-5.447c-0.695-1.889-3.383-2.775-5.533-1.589c-2.15,1.186-3.281,2.957-4.299,4.473
	c-0.208,0.317-0.246,0.482-0.002,0.62c0.244,0.14,0.675-0.132,0.87-0.304c0.58-0.511,1.481-1.632,2.665-2.349
	c1.502-0.909,2.723-0.206,2.585,1.542c-0.102,1.267-0.384,2.557-0.813,3.754c-1.99,5.528-7.789,20.858-7.789,20.858h4.866
	c0,0,5.887-15.691,6.748-17.158c5.393-9.769,9.6-10.668,11.43-10.585c1.829,0.082,1.422,1.761,0.859,2.6
	c-0.681,1.078-1.755,2.477-0.979,3.092C86.143,40.394,88.687,40.612,89.679,38.188z M105.725,40.406
	c0.778,0.614,3.322,0.833,4.314-1.592c0.993-2.424-0.148-4.338-2.386-5.351c-2.278-1.176-5.052-0.744-7.579,0.11
	c-7.257,2.45-13.777,10.795-13.82,19.451c-0.033,6.741,5.797,10.595,12.448,8.514c6.092-1.908,7.85-7.969,7.654-8.234
	c-0.104-0.136-0.325-0.248-0.624-0.106c-0.185,0.086-0.629,1.682-3.011,3.961c-2.644,2.529-5.998,2.595-8.337,1.354
	c-3.641-1.935-6.168-11.678,4.193-21.622c1.837-1.762,4.464-2.885,6.451-2.583c2.542,0.386,2.251,2.06,1.676,3.004
	C106.041,38.399,104.948,39.788,105.725,40.406z"/>
<g>
</g>
<g>
</g>
<g>
</g>
<g>
</g>
<g>
</g>
<g>
</g>
<g>
</g>
<g>
</g>
<g>
</g>
<g>
</g>
<g>
</g>
<g>
</g>
<g>
</g>
<g>
</g>
<g>
</g>
</svg>
