<?xml version="1.0" encoding="utf-8"?>
<!-- Generator: Adobe Illustrator 17.0.0, SVG Export Plug-In . SVG Version: 6.00 Build 0)  -->
<!DOCTYPE svg PUBLIC "-//W3C//DTD SVG 1.1//EN" "http://www.w3.org/Graphics/SVG/1.1/DTD/svg11.dtd">
<svg version="1.1" id="Layer_1" xmlns="http://www.w3.org/2000/svg" xmlns:xlink="http://www.w3.org/1999/xlink" x="0px" y="0px"
	 width="30px" height="30px" viewBox="0 0 30 30" enable-background="new 0 0 30 30" xml:space="preserve">
<g>
	<path fill="#FFFFFF" d="M13.267,19.043c-0.657,3.449-1.461,6.755-3.841,8.482c-0.735-5.213,1.079-9.127,1.92-13.284
		c-1.436-2.416,0.173-7.28,3.201-6.082c3.726,1.474-3.227,8.985,1.441,9.923c4.873,0.98,6.862-8.455,3.841-11.523
		c-4.367-4.429-12.71-0.1-11.683,6.242c0.249,1.551,1.851,2.021,0.64,4.161c-2.794-0.619-3.628-2.823-3.521-5.761
		c0.173-4.809,4.321-8.177,8.482-8.642C19.009,1.97,23.948,4.49,24.63,9.441c0.768,5.587-2.375,11.638-8.002,11.203
		C15.102,20.525,14.462,19.77,13.267,19.043z"/>
</g>
</svg>
