<?xml version="1.0" encoding="utf-8"?>
<!-- Generator: Adobe Illustrator 17.0.0, SVG Export Plug-In . SVG Version: 6.00 Build 0)  -->
<!DOCTYPE svg PUBLIC "-//W3C//DTD SVG 1.1//EN" "http://www.w3.org/Graphics/SVG/1.1/DTD/svg11.dtd">
<svg version="1.1" id="Layer_1" xmlns="http://www.w3.org/2000/svg" xmlns:xlink="http://www.w3.org/1999/xlink" x="0px" y="0px"
	 width="30px" height="30px" viewBox="0 0 30 30" enable-background="new 0 0 30 30" xml:space="preserve">
<g>
	<path fill="#FFFFFF" d="M27.459,7.273c-0.915,0.407-1.903,0.682-2.936,0.806c1.055-0.633,1.866-1.636,2.246-2.83
		c-0.987,0.588-2.08,1.014-3.244,1.24c-0.931-0.991-2.262-1.613-3.731-1.613c-2.822,0-5.114,2.288-5.114,5.11
		c0,0.403,0.045,0.791,0.132,1.168C10.565,10.939,6.8,8.904,4.278,5.81C3.837,6.568,3.585,7.446,3.585,8.38
		c0,1.775,0.901,3.339,2.272,4.255c-0.837-0.026-1.624-0.256-2.314-0.637c0,0,0,0.041,0,0.064c0,2.476,1.764,4.541,4.1,5.012
		c-0.43,0.117-0.882,0.177-1.345,0.177c-0.332,0-0.652-0.031-0.965-0.091c0.652,2.031,2.54,3.508,4.779,3.55
		c-1.753,1.372-3.957,2.189-6.35,2.189c-0.414,0-0.822-0.026-1.221-0.071c2.265,1.451,4.952,2.295,7.838,2.295
		c9.402,0,14.543-7.789,14.543-14.543c0-0.222-0.004-0.445-0.015-0.663C25.906,9.198,26.773,8.298,27.459,7.273"/>
</g>
</svg>
